<?xml version="1.0" encoding="UTF-8" standalone="no"?>
<!-- Created with Inkscape (http://www.inkscape.org/) -->

<svg
   xmlns:dc="http://purl.org/dc/elements/1.1/"
   xmlns:cc="http://creativecommons.org/ns#"
   xmlns:rdf="http://www.w3.org/1999/02/22-rdf-syntax-ns#"
   xmlns:svg="http://www.w3.org/2000/svg"
   xmlns="http://www.w3.org/2000/svg"
   xmlns:sodipodi="http://sodipodi.sourceforge.net/DTD/sodipodi-0.dtd"
   xmlns:inkscape="http://www.inkscape.org/namespaces/inkscape"
   width="30mm"
   height="206mm"
   viewBox="0 0 106.29921 729.92126"
   id="svg12793"
   version="1.1"
   inkscape:version="0.91 r13725"
   sodipodi:docname="section-1-bg-left.svg">
  <defs
     id="defs12795" />
  <sodipodi:namedview
     id="base"
     pagecolor="#ffffff"
     bordercolor="#666666"
     borderopacity="1.0"
     inkscape:pageopacity="0.0"
     inkscape:pageshadow="2"
     inkscape:zoom="0.35"
     inkscape:cx="-23.739021"
     inkscape:cy="247.8632"
     inkscape:document-units="px"
     inkscape:current-layer="layer1"
     showgrid="false"
     fit-margin-top="0"
     fit-margin-left="0"
     fit-margin-right="0"
     fit-margin-bottom="0"
     inkscape:window-width="1366"
     inkscape:window-height="745"
     inkscape:window-x="-8"
     inkscape:window-y="-8"
     inkscape:window-maximized="1" />
  <metadata
     id="metadata12798">
    <rdf:RDF>
      <cc:Work
         rdf:about="">
        <dc:format>image/svg+xml</dc:format>
        <dc:type
           rdf:resource="http://purl.org/dc/dcmitype/StillImage" />
        <dc:title></dc:title>
      </cc:Work>
    </rdf:RDF>
  </metadata>
  <g
     inkscape:label="Layer 1"
     inkscape:groupmode="layer"
     id="layer1"
     transform="translate(135.54669,-50.304124)">
    <g
       transform="translate(-785.70959,-33.099876)"
       id="g11776">
      <g
         style="opacity:0.75"
         id="g305">
        <g
           id="g307">
          <path
             style="fill:#d9d9d6"
             inkscape:connector-curvature="0"
             id="path309"
             d="m 755.542,143.47 -2.569,0.744 -0.465,-1.602 0.969,-0.28 -0.648,-2.235 1.602,-0.464 1.111,3.837 z m -6.574,1.904 -4.004,1.16 -0.464,-1.602 4.004,-1.16 0.464,1.602 z m -8.809,2.552 -4.004,1.16 -0.464,-1.602 4.004,-1.16 0.464,1.602 z m -8.008,2.32 -4.805,1.392 -0.464,-1.602 4.805,-1.392 0.464,1.602 z m -8.808,2.551 -4.004,1.16 -0.464,-1.602 4.004,-1.16 0.464,1.602 z m -8.809,2.552 -4.004,1.16 -0.464,-1.602 4.004,-1.16 0.464,1.602 z m -8.008,2.32 -1.141,0.331 -1.624,-5.605 1.603,-0.464 1.392,4.805 -0.461,0.133 0.231,0.8 z m 46.745,-22.04 -1.602,0.464 -1.16,-4.004 1.602,-0.464 1.16,4.004 z m -49.068,12.297 -1.602,0.464 -1.16,-4.004 1.602,-0.464 1.16,4.004 z m 46.516,-21.106 -1.602,0.464 -1.16,-4.004 1.602,-0.464 1.16,4.004 z m -49.068,12.298 -1.602,0.464 -1.16,-4.004 1.602,-0.464 1.16,4.004 z m 46.747,-20.306 -1.602,0.464 -1.392,-4.805 1.602,-0.464 1.392,4.805 z m -49.067,12.298 -1.602,0.464 -1.392,-4.805 1.602,-0.464 1.392,4.805 z m 46.516,-21.107 -1.602,0.464 -1.16,-4.004 1.602,-0.464 1.16,4.004 z m -49.068,12.298 -1.602,0.464 -1.16,-4.004 1.602,-0.464 1.16,4.004 z m 45.971,-20.595 -0.161,-0.306 -0.896,0.259 -0.322,-1.111 0.602,-0.316 c 1.186,-0.626 2.096,-1.247 2.863,-1.954 l 1.129,1.227 c -0.877,0.807 -1.899,1.506 -3.215,2.201 z m -50.253,14.119 c -1.597,0 -3.05,-0.144 -4.321,-0.425 l 0.361,-1.628 c 1.152,0.256 2.485,0.385 3.96,0.386 l 0,1.667 z m 56.136,-19.765 -1.393,-0.917 2.751,-4.178 1.393,0.917 -2.751,4.178 z m -64.527,18.423 -4.057,-0.914 4.052,-2.611 0.903,1.401 -0.709,0.457 0.178,0.04 -0.367,1.627 z m 59.487,-20.418 0.583,-1.672 0.785,0.27 -0.289,-0.777 3.901,-1.449 0.58,1.563 -5.56,2.065 z m -21.998,5.944 -0.11,0.032 c -0.207,0.06 -0.444,0.085 -0.713,0.077 l 0.04,-1.32 -0.716,-0.184 c 0.368,-1.438 1.065,-2.782 2.071,-3.994 l 0.908,0.754 c 0.022,-0.046 0.045,-0.093 0.066,-0.139 l 1.508,0.71 c -0.717,1.522 -1.91,3.35 -2.957,4.001 l -0.097,0.063 z m -37.005,10.347 -3.768,-1.786 0.715,-1.507 0.438,0.208 -0.102,-1.437 4.158,-0.294 0.118,1.664 -3.756,0.265 2.909,1.379 -0.712,1.508 z m 25.358,-7.362 c -0.039,0.011 -0.077,0.021 -0.097,0.026 l -0.063,0.011 c -0.267,0.04 -0.565,0.054 -0.887,0.042 l 0.061,-1.667 c 0.201,0.007 0.382,10e-4 0.538,-0.019 0.152,-0.047 0.352,-0.136 0.573,-0.253 -0.112,-0.12 -0.224,-0.236 -0.336,-0.347 l 1.177,-1.182 c 0.364,0.363 0.728,0.766 1.081,1.199 l 0.571,0.702 -0.746,0.513 c -0.326,0.225 -1.165,0.77 -1.872,0.975 z m -12.777,3.608 -3.258,0.139 c -1.188,0.051 -2.385,0.103 -3.613,0.177 l -0.1,-1.665 c 1.242,-0.074 2.446,-0.126 3.611,-0.176 l 0.251,-0.011 0.215,-0.302 c 0.199,0.142 0.406,0.28 0.619,0.414 l 2.275,1.424 z m 39.738,-12.279 -0.854,-1.432 c 1.192,-0.711 2.505,-1.526 4.014,-2.491 l 0.212,-0.136 0.898,1.404 -0.211,0.136 c -1.524,0.975 -2.851,1.799 -4.059,2.519 z m -1.793,-0.328 -1.635,-0.329 c 0.253,-1.255 0.215,-2.462 -0.111,-3.589 l -0.036,-0.123 1.593,-0.491 0.045,0.15 c 0.402,1.387 0.45,2.861 0.144,4.382 z m -30.521,8.001 c -1.721,-0.688 -3.966,-1.861 -4.632,-2.904 l 1.406,-0.897 c 0.247,0.388 1.641,1.372 3.844,2.253 l -0.618,1.548 z m 40.096,-12.575 -0.899,-1.404 4.705,-3.011 -1.107,3.2 -0.519,-0.179 -2.18,1.394 z m -54.492,13.515 c -0.49,-0.75 -0.891,-1.565 -1.19,-2.423 -0.06,-0.171 -0.113,-0.341 -0.163,-0.512 -0.12,-0.416 -0.213,-0.838 -0.273,-1.255 l 1.649,-0.242 c 0.051,0.343 0.126,0.691 0.226,1.034 0.041,0.142 0.086,0.284 0.136,0.425 0.255,0.731 0.596,1.424 1.012,2.06 l -1.397,0.913 z m 15.659,-4.556 c -0.623,-0.203 -1.281,-0.355 -2.015,-0.463 -0.581,-0.086 -1.132,-0.063 -1.592,0.068 l -0.456,-1.604 c 0.686,-0.195 1.479,-0.234 2.293,-0.114 0.826,0.123 1.574,0.295 2.286,0.527 l -0.516,1.586 z m 8.685,-5.006 -0.863,-0.875 c -0.258,-0.261 -0.529,-0.516 -0.807,-0.757 l 1.094,-1.259 c 0.017,0.015 0.033,0.029 0.05,0.044 0.314,-0.589 0.676,-1.16 1.076,-1.704 l 1.342,0.99 c -0.448,0.607 -0.839,1.253 -1.161,1.92 -0.084,0.172 -0.162,0.343 -0.237,0.514 l -0.494,1.127 z m 16.204,-6.945 c -0.988,-0.696 -2.166,-1.16 -3.499,-1.379 l 0.271,-1.646 c 1.584,0.261 2.992,0.82 4.188,1.662 l -0.96,1.363 z m -11.542,0.651 -0.973,-1.354 c 1.482,-1.065 3.134,-1.811 4.828,-2.19 l 0.364,1.627 c -1.477,0.328 -2.919,0.983 -4.219,1.917 z m -10.343,2.146 c -0.812,-0.359 -1.684,-0.673 -2.591,-0.933 -0.391,-0.111 -0.791,-0.207 -1.189,-0.283 l 0.313,-1.638 c 0.446,0.085 0.896,0.192 1.334,0.317 0.981,0.28 1.926,0.62 2.808,1.011 l -0.675,1.526 z m -17.909,4.922 -1.487,-0.752 c 0.637,-1.259 1.569,-2.434 2.772,-3.491 l 1.102,1.252 c -1.043,0.917 -1.846,1.923 -2.387,2.991 z m 10.214,-6.321 c -1.562,0.147 -3.135,0.564 -4.545,1.207 l -0.691,-1.517 c 1.578,-0.719 3.334,-1.185 5.08,-1.35 l 0.156,1.66 z" />
        </g>
        <g
           id="g311">
          <path
             style="fill:#d9d9d6"
             inkscape:connector-curvature="0"
             id="path313"
             d="m 744.82,95.536 c -3.624,1.346 -3.626,-0.051 -2.879,-2.211 -5.735,3.67 -11.109,6.785 -17.369,8.604 3.189,-2.311 5.938,-4.694 6.937,-7.843 1.203,-3.791 -0.976,-6.935 -5.146,-7.331 -3.683,-0.35 -7.649,2.014 -9.466,5.768 -0.701,1.447 -1.065,2.943 -1.699,4.748 -0.703,-0.917 -1.206,-1.56 -1.693,-2.212 -1.759,-2.351 -4.317,-4.055 -7.729,-5.029 -3.535,-1.01 -7.543,-0.319 -10.502,1.885 -3.035,2.261 -3.882,4.883 -2.985,7.454 0.944,2.704 3.29,4.565 6.667,5.715 2.61,0.889 5.594,1.028 9.105,1.402 -6.362,2.183 -11.998,1.83 -18.674,2.302 3.03,1.437 0.924,2.303 -0.491,3.214 1.845,0.417 4.224,0.447 6.827,0.163 2.724,9.401 11.657,40.24 12.032,41.533 14.559,-4.218 29.027,-8.409 43.484,-12.597 -0.398,-1.375 -9.319,-32.168 -12.03,-41.526 1.988,-0.953 4.205,-1.904 5.611,-4.039 z m -26.83,4.871 c 0.184,-2.735 1.204,-5.424 3.648,-7.887 0.813,-0.819 1.847,-1.473 3.177,-1.395 1.461,0.084 1.93,0.941 2.249,1.863 0.604,1.906 -2.161,7.159 -4.5,8.543 -1.49,0.882 -4.661,0.185 -4.574,-1.124 z m -19.854,-0.994 c -0.81,-3.034 2.199,-5.528 6.218,-4.932 5.214,0.774 8.104,3.613 10.302,6.896 0.482,0.718 -2.897,3.187 -4.601,3.441 -3.698,0.55 -11.242,-2.87 -11.919,-5.405 z" />
        </g>
        <g
           id="g315">
          <path
             style="fill:#1c4781"
             inkscape:connector-curvature="0"
             id="path317"
             d="m 706.785,122.218 c -0.508,-1.755 -0.331,-3.402 0.514,-4.936 0.863,-1.539 2.204,-2.561 4.035,-3.091 1.83,-0.53 3.528,-0.388 5.062,0.456 1.533,0.845 2.563,2.142 3.072,3.897 0.509,1.755 0.325,3.383 -0.519,4.917 -0.845,1.534 -2.204,2.562 -4.035,3.092 -1.83,0.53 -3.51,0.382 -5.062,-0.457 -1.534,-0.845 -2.558,-2.123 -3.067,-3.878 z m 21.181,-14.093 3.428,1.38 -12.744,33.824 -3.425,-1.442 12.741,-33.762 z m -17.237,12.95 c 0.208,0.717 0.591,1.261 1.161,1.607 0.571,0.346 1.228,0.422 1.963,0.209 0.755,-0.219 1.27,-0.634 1.548,-1.226 0.297,-0.597 0.33,-1.261 0.122,-1.979 -0.213,-0.736 -0.59,-1.261 -1.161,-1.607 -0.552,-0.352 -1.208,-0.427 -1.963,-0.209 -0.736,0.213 -1.25,0.628 -1.548,1.226 -0.296,0.598 -0.334,1.243 -0.122,1.979 z m 16.192,11.9 c -0.508,-1.755 -0.331,-3.402 0.514,-4.936 0.845,-1.534 2.186,-2.556 4.016,-3.086 1.831,-0.53 3.529,-0.388 5.063,0.456 1.552,0.839 2.582,2.136 3.091,3.892 0.509,1.755 0.325,3.383 -0.538,4.922 -0.844,1.533 -2.203,2.562 -4.034,3.092 -1.83,0.53 -3.51,0.382 -5.043,-0.462 -1.535,-0.845 -2.56,-2.124 -3.069,-3.878 z m 3.944,-1.143 c 0.208,0.717 0.591,1.261 1.143,1.612 0.57,0.346 1.227,0.422 1.963,0.208 0.755,-0.219 1.269,-0.633 1.566,-1.231 0.297,-0.597 0.33,-1.262 0.122,-1.979 -0.213,-0.736 -0.59,-1.261 -1.161,-1.607 -0.57,-0.346 -1.227,-0.422 -1.981,-0.204 -0.736,0.213 -1.25,0.628 -1.548,1.226 -0.279,0.594 -0.317,1.239 -0.104,1.975 z" />
        </g>
      </g>
      <g
         style="opacity:0.75"
         id="g333">
        <g
           id="g335">
          <path
             style="fill:#d9d9d6"
             inkscape:connector-curvature="0"
             id="path337"
             d="m 690.166,422.971 -1.913,-0.865 0.539,-1.192 0.721,0.326 0.753,-1.664 1.192,0.539 -1.292,2.856 z m -4.894,-2.214 -2.98,-1.348 0.539,-1.192 2.98,1.348 -0.539,1.192 z m -6.556,-2.965 -2.981,-1.348 0.54,-1.192 2.98,1.348 -0.539,1.192 z m -5.962,-2.697 -3.576,-1.618 0.539,-1.192 3.577,1.618 -0.54,1.192 z m -6.557,-2.966 -2.98,-1.348 0.539,-1.192 2.98,1.348 -0.539,1.192 z m -6.557,-2.966 -2.98,-1.348 0.539,-1.192 2.981,1.348 -0.54,1.192 z m -5.961,-2.696 -0.85,-0.384 1.888,-4.173 1.192,0.539 -1.618,3.577 -0.343,-0.155 -0.269,0.596 z m 39.127,10.667 -1.192,-0.54 1.349,-2.98 1.192,0.54 -1.349,2.98 z m -35.549,-17.665 -1.191,-0.539 1.348,-2.98 1.192,0.539 -1.349,2.98 z m 38.514,11.108 -1.191,-0.54 1.348,-2.98 1.192,0.54 -1.349,2.98 z m -35.547,-17.665 -1.192,-0.54 1.348,-2.98 1.192,0.54 -1.348,2.98 z m 38.244,11.704 -1.192,-0.54 1.618,-3.577 1.192,0.539 -1.618,3.578 z m -35.548,-17.665 -1.192,-0.54 1.617,-3.577 1.192,0.54 -1.617,3.577 z m 38.514,11.108 -1.191,-0.539 1.348,-2.98 1.192,0.539 -1.349,2.98 z m -35.548,-17.665 -1.192,-0.54 1.348,-2.98 1.192,0.54 -1.348,2.98 z m 37.928,11.135 0.06,-0.266 -0.666,-0.301 0.374,-0.827 0.52,0.117 c 1.026,0.231 1.886,0.325 2.704,0.294 l 0.049,1.308 c -0.935,0.035 -1.901,-0.069 -3.041,-0.325 z M 666.63,374.347 c -0.952,-0.814 -1.747,-1.64 -2.362,-2.456 l 1.045,-0.788 c 0.559,0.74 1.287,1.497 2.167,2.248 l -0.85,0.996 z m 43.572,16.811 -0.363,-1.257 3.771,-1.091 0.363,1.257 -3.771,1.091 z m -47.895,-21.888 -1.955,-2.613 3.748,0.506 -0.175,1.297 -0.656,-0.089 0.086,0.115 -1.048,0.784 z m 45.904,18.128 1.2,-0.701 0.331,0.562 0.224,-0.611 3.066,1.123 -0.45,1.229 -4.371,-1.602 z m -16.156,-7.662 -0.083,-0.037 c -0.153,-0.07 -0.309,-0.176 -0.464,-0.317 l 0.696,-0.768 -0.334,-0.475 c 0.953,-0.67 2.054,-1.117 3.271,-1.328 l 0.157,0.913 c 0.037,-0.016 0.074,-0.032 0.11,-0.049 l 0.538,1.193 c -1.204,0.542 -2.847,1.025 -3.804,0.881 l -0.087,-0.013 z m -27.357,-12.683 -1.338,-2.985 1.193,-0.535 0.156,0.348 0.672,-0.909 2.631,1.944 -0.777,1.052 -2.377,-1.755 1.033,2.306 -1.193,0.534 z m 18.885,8.529 c -0.029,-0.013 -0.057,-0.026 -0.071,-0.034 l -0.043,-0.025 c -0.18,-0.112 -0.365,-0.256 -0.551,-0.427 l 0.886,-0.963 c 0.116,0.107 0.228,0.195 0.331,0.263 0.114,0.05 0.278,0.098 0.471,0.141 -0.006,-0.128 -0.014,-0.255 -0.023,-0.378 l 1.305,-0.105 c 0.032,0.402 0.044,0.828 0.033,1.267 l -0.016,0.71 -0.707,-0.075 c -0.31,-0.034 -1.089,-0.136 -1.615,-0.374 z m -9.464,-4.357 -2.015,-1.578 c -0.735,-0.575 -1.476,-1.154 -2.246,-1.736 l 0.788,-1.044 c 0.779,0.589 1.525,1.171 2.245,1.735 l 0.155,0.122 0.282,-0.071 c 0.047,0.187 0.101,0.374 0.159,0.563 l 0.632,2.009 z m 29.973,12.922 0.22,-1.29 c 1.073,0.183 2.272,0.366 3.665,0.559 l 0.195,0.027 -0.18,1.296 -0.195,-0.027 c -1.406,-0.195 -2.618,-0.379 -3.705,-0.565 z m -0.904,-1.11 -0.808,-1.03 c 0.79,-0.62 1.383,-1.359 1.762,-2.198 l 0.041,-0.092 1.201,0.519 -0.05,0.112 c -0.466,1.033 -1.188,1.938 -2.146,2.689 z m -22.292,-10.779 c -0.676,-1.287 -1.418,-3.131 -1.284,-4.093 l 1.296,0.181 c -0.05,0.358 0.28,1.655 1.146,3.304 l -1.158,0.608 z m 30.337,12.929 0.179,-1.296 4.342,0.601 -2.291,1.345 -0.218,-0.372 -2.012,-0.278 z m -39.406,-19.703 c 0.089,-0.697 0.266,-1.388 0.524,-2.053 0.051,-0.132 0.105,-0.261 0.163,-0.388 0.14,-0.31 0.3,-0.608 0.477,-0.889 l 1.107,0.696 c -0.145,0.23 -0.276,0.477 -0.392,0.731 -0.048,0.106 -0.094,0.213 -0.136,0.323 -0.221,0.566 -0.37,1.153 -0.446,1.745 l -1.297,-0.165 z m 11.666,5.261 c -0.268,-0.438 -0.584,-0.865 -0.966,-1.303 -0.303,-0.348 -0.644,-0.614 -0.984,-0.771 l 0.545,-1.189 c 0.509,0.233 1.002,0.613 1.426,1.101 0.431,0.494 0.789,0.978 1.096,1.48 l -1.117,0.682 z m 7.734,1.438 -0.069,-0.962 c -0.021,-0.287 -0.053,-0.577 -0.095,-0.862 l 1.294,-0.194 c 0.002,0.017 0.005,0.034 0.007,0.052 0.488,-0.191 0.995,-0.348 1.511,-0.468 l 0.296,1.274 c -0.576,0.134 -1.139,0.321 -1.672,0.555 -0.137,0.06 -0.271,0.122 -0.402,0.186 l -0.87,0.419 z m 13.21,4.112 c -0.235,-0.919 -0.702,-1.795 -1.386,-2.606 l 1,-0.844 c 0.813,0.963 1.368,2.014 1.653,3.125 l -1.267,0.325 z m -7.22,-5.493 0.109,-1.304 c 1.428,0.12 2.793,0.517 3.998,1.154 l -0.612,1.156 c -1.049,-0.556 -2.243,-0.901 -3.495,-1.006 z m -7.266,-3.99 c -0.302,-0.628 -0.662,-1.259 -1.071,-1.876 -0.176,-0.265 -0.366,-0.526 -0.565,-0.775 l 1.021,-0.818 c 0.224,0.279 0.437,0.572 0.635,0.87 0.442,0.667 0.833,1.352 1.16,2.034 l -1.18,0.565 z m -13.196,-6.188 -0.504,-1.207 c 1.021,-0.427 2.177,-0.652 3.434,-0.67 l 0.019,1.309 c -1.09,0.014 -2.082,0.206 -2.949,0.568 z m 9.316,1.432 c -1.007,-0.708 -2.157,-1.261 -3.327,-1.596 l 0.36,-1.258 c 1.309,0.375 2.594,0.992 3.72,1.784 l -0.753,1.07 z" />
        </g>
        <g
           id="g339">
          <path
             style="fill:#d9d9d6"
             inkscape:connector-curvature="0"
             id="path341"
             d="m 708.193,388.902 c -2.848,-1.043 -2.138,-1.878 -0.591,-2.786 -5.293,-0.732 -10.087,-1.612 -14.75,-3.717 3.081,0.247 5.936,0.224 8.137,-1.146 2.649,-1.649 2.952,-4.636 0.665,-6.997 -2.02,-2.085 -5.592,-2.696 -8.588,-1.381 -1.156,0.506 -2.136,1.213 -3.435,1.967 0.048,-0.906 0.075,-1.545 0.117,-2.183 0.148,-2.299 -0.511,-4.62 -2.05,-6.94 -1.595,-2.404 -4.339,-4.034 -7.228,-4.227 -2.964,-0.198 -4.806,0.936 -5.58,2.927 -0.814,2.094 -0.363,4.401 1.066,6.807 1.104,1.861 2.814,3.465 4.72,5.477 -4.91,-1.939 -8.093,-5.022 -12.317,-8.143 1.076,2.402 -0.622,1.845 -1.932,1.668 0.89,1.189 2.294,2.419 3.992,3.577 -3.165,6.998 -13.55,29.955 -13.984,30.917 10.837,4.902 21.607,9.773 32.369,14.642 0.463,-1.024 10.831,-23.946 13.982,-30.912 1.674,0.445 3.481,1.007 5.407,0.45 z M 689.7,378.137 c 1.504,-1.539 3.482,-2.623 6.196,-2.848 0.902,-0.075 1.853,0.062 2.607,0.787 0.828,0.795 0.672,1.545 0.393,2.257 -0.61,1.445 -4.938,3.171 -7.039,2.805 -1.338,-0.232 -2.876,-2.265 -2.157,-3.001 z m -11.342,-10.712 c 1.063,-2.223 4.13,-2.178 6.225,0.226 2.716,3.119 2.994,6.286 2.634,9.365 -0.079,0.674 -3.354,0.425 -4.499,-0.291 -2.488,-1.556 -5.247,-7.441 -4.36,-9.3 z" />
        </g>
        <g
           id="g343">
          <path
             style="fill:#1c4781"
             inkscape:connector-curvature="0"
             id="path345"
             d="m 671.899,385.443 c 0.591,-1.307 1.536,-2.199 2.821,-2.684 1.3,-0.479 2.62,-0.406 3.983,0.211 1.362,0.616 2.304,1.566 2.788,2.852 0.484,1.285 0.438,2.584 -0.152,3.891 -0.591,1.307 -1.53,2.185 -2.815,2.67 -1.285,0.484 -2.62,0.405 -3.982,-0.211 -1.363,-0.616 -2.29,-1.56 -2.789,-2.852 -0.484,-1.286 -0.444,-2.57 0.146,-3.877 z m 19.822,2.383 1.343,2.57 -24.842,13.691 -1.31,-2.606 24.809,-13.655 z m -16.886,-1.055 c -0.241,0.534 -0.29,1.053 -0.126,1.55 0.165,0.498 0.518,0.877 1.065,1.125 0.562,0.254 1.08,0.269 1.548,0.057 0.482,-0.205 0.84,-0.584 1.081,-1.119 0.248,-0.548 0.291,-1.053 0.126,-1.55 -0.149,-0.491 -0.503,-0.871 -1.064,-1.125 -0.548,-0.248 -1.066,-0.262 -1.548,-0.057 -0.482,0.205 -0.834,0.571 -1.082,1.119 z m 3.599,15.352 c 0.592,-1.307 1.537,-2.199 2.822,-2.684 1.285,-0.485 2.606,-0.412 3.969,0.205 1.363,0.616 2.304,1.566 2.788,2.852 0.499,1.292 0.453,2.591 -0.138,3.897 -0.591,1.306 -1.53,2.185 -2.829,2.663 -1.286,0.485 -2.621,0.406 -3.983,-0.211 -1.362,-0.616 -2.29,-1.56 -2.774,-2.846 -0.485,-1.284 -0.446,-2.569 0.145,-3.876 z m 2.936,1.328 c -0.241,0.534 -0.29,1.053 -0.14,1.544 0.164,0.498 0.517,0.877 1.064,1.125 0.563,0.254 1.08,0.269 1.563,0.063 0.481,-0.205 0.84,-0.584 1.081,-1.118 0.248,-0.548 0.29,-1.053 0.126,-1.551 -0.164,-0.498 -0.517,-0.877 -1.079,-1.131 -0.548,-0.248 -1.065,-0.262 -1.548,-0.057 -0.467,0.212 -0.819,0.577 -1.067,1.125 z" />
        </g>
      </g>
      <g
         style="opacity:0.8"
         id="g361">
        <g
           id="g363">
          <path
             style="fill:#d9d9d6"
             inkscape:connector-curvature="0"
             id="path365"
             d="m 713.027,703.534 c -1.072,-0.314 -1.623,-0.187 -1.871,1.032 -0.578,2.838 -1.271,5.652 -1.927,8.474 -0.235,1.003 -0.491,1.735 1.104,2.003 1.417,0.238 1.684,-0.212 1.88,-1.34 0.236,-1.336 0.58,-2.653 1.032,-4.675 1.2,1.996 1.932,3.463 2.911,4.737 0.504,0.652 0.453,2.381 2.334,1.316 1.798,-1.019 0.838,-1.8 0.304,-2.833 -0.621,-1.203 -2.241,-2.464 -1.694,-3.543 0.595,-1.178 2.302,0.13 3.539,0.151 1.267,0.023 1.629,-0.132 1.908,-1.32 0.293,-1.245 -0.216,-1.528 -1.252,-1.782 -2.771,-0.679 -5.527,-1.422 -8.268,-2.22 z" />
        </g>
        <g
           id="g367">
          <path
             style="fill:#d9d9d6"
             inkscape:connector-curvature="0"
             id="path369"
             d="m 688.183,666.559 c 1.358,0.424 1.653,-0.125 1.887,-1.301 0.531,-2.665 1.089,-5.335 1.855,-7.939 0.363,-1.232 0.399,-1.803 -0.992,-2.261 -1.603,-0.527 -1.758,0.354 -1.967,1.479 -0.233,1.257 -0.542,2.5 -0.817,3.75 -0.202,0.033 -0.402,0.067 -0.603,0.099 -0.916,-1.524 -1.888,-3.02 -2.73,-4.58 -0.605,-1.121 -1.273,-1.272 -2.353,-0.647 -1.195,0.695 -0.676,1.451 -0.231,2.246 0.319,0.568 0.675,1.119 0.979,1.693 0.474,0.895 1.755,1.903 0.988,2.741 -0.766,0.838 -2.073,-0.204 -3.145,-0.418 -0.073,-0.015 -0.142,-0.074 -0.202,-0.124 -0.888,-0.734 -1.604,-0.779 -1.993,0.494 -0.344,1.13 -0.685,2.118 1.076,2.509 2.781,0.616 5.527,1.411 8.248,2.259 z" />
        </g>
        <g
           id="g371">
          <path
             style="fill:#d9d9d6"
             inkscape:connector-curvature="0"
             id="path373"
             d="m 733.663,682.944 c -1.821,0.1 -3.652,0.058 -5.935,0.083 1.318,-1.347 2.242,-2.327 3.201,-3.267 0.731,-0.716 1.381,-1.24 0.306,-2.35 -1.039,-1.078 -1.716,-0.553 -2.429,0.133 -2.051,1.969 -4.065,3.975 -6.063,5.996 -0.578,0.584 -1.048,1.111 -0.062,1.954 2.282,1.955 4.455,4.039 6.607,6.137 0.843,0.821 1.396,0.792 2.184,-0.068 0.81,-0.883 0.685,-1.521 -0.15,-2.219 -0.685,-0.575 -1.354,-1.168 -2.008,-1.779 -0.29,-0.27 -0.693,-0.62 -0.432,-1.016 0.187,-0.285 0.811,-0.629 0.974,-0.526 1.375,0.864 2.633,-0.401 3.938,-0.14 1.246,0.248 1.95,-0.518 1.956,-1.483 0.009,-1.139 -0.926,-1.518 -2.087,-1.455 z" />
        </g>
        <g
           id="g375">
          <path
             style="fill:#d9d9d6"
             inkscape:connector-curvature="0"
             id="path377"
             d="m 666.707,687.102 c 0.942,0.142 1.813,0.148 2.763,-0.007 0.791,-0.13 1.775,-0.422 2.424,0.212 0.27,0.712 0.271,1.231 -0.256,1.68 -0.556,0.473 -1.026,1.052 -1.594,1.51 -0.907,0.73 -0.923,1.298 -0.034,2.144 0.87,0.835 1.412,0.742 2.194,-0.062 2.044,-2.09 4.145,-4.125 6.237,-6.168 0.586,-0.57 0.992,-1.116 0.209,-1.826 -2.341,-2.122 -4.708,-4.218 -7.007,-6.385 -0.987,-0.93 -1.354,-0.044 -1.957,0.446 -0.772,0.625 -0.647,1.128 -0.057,1.81 0.963,1.111 3.308,1.996 2.651,3.25 -0.561,1.073 -3.001,0.291 -4.603,0.443 -0.242,0.023 -0.49,0.027 -0.733,0.004 -0.797,-0.077 -1.299,0.208 -1.184,1.074 0.094,0.711 -0.365,1.678 0.947,1.875 z" />
        </g>
        <g
           id="g379">
          <path
             style="fill:#d9d9d6"
             inkscape:connector-curvature="0"
             id="path381"
             d="m 712.989,666.115 c 2.305,-0.98 4.578,-1.814 7.103,-2.102 0.752,-0.086 2.138,-0.666 1.612,-2.378 -0.497,-1.613 -1.216,-1.34 -2.31,-0.822 -0.646,0.304 -1.373,0.465 -2.079,0.614 -0.449,0.095 -1.23,0.216 -1.329,0.033 -0.234,-0.431 -0.323,-0.983 0.081,-1.557 0.744,-1.053 1.28,-2.25 1.995,-3.327 0.71,-1.073 0.156,-1.547 -0.699,-2.103 -0.974,-0.634 -1.412,-0.26 -1.875,0.617 -0.903,1.722 -1.888,3.398 -3.041,5.454 -0.476,-1.646 -0.764,-2.902 -1.205,-4.104 -0.292,-0.805 0.15,-2.276 -1.782,-1.761 -1.69,0.451 -1.475,1.327 -1.147,2.504 0.706,2.547 1.502,5.078 2.023,7.662 0.369,1.823 1.728,1.662 2.653,1.27 z" />
        </g>
        <g
           id="g383">
          <path
             style="fill:#d9d9d6"
             inkscape:connector-curvature="0"
             id="path385"
             d="m 708.509,672.362 c 2.719,-1.12 5.544,-1.921 8.431,-2.458 2.11,-0.392 1.65,-1.736 1.21,-3.249 -0.233,-0.574 -0.756,-0.473 -1.348,-0.276 -1.464,0.487 -2.976,0.85 -4.395,1.439 -1.919,0.794 -3.146,0.71 -3.45,-1.749 -0.186,-1.519 -0.732,-2.99 -1.109,-4.484 -0.248,-0.985 -0.679,-1.288 -1.741,-0.847 -0.766,0.317 -1.606,0.196 -1.244,1.475 0.885,3.118 1.671,6.267 2.516,9.398 0.143,0.541 0.259,1.109 1.13,0.751 z" />
        </g>
        <g
           id="g387">
          <path
             style="fill:#d9d9d6"
             inkscape:connector-curvature="0"
             id="path389"
             d="m 691.963,672.3 c 0.481,0.126 1.131,0.633 1.351,-0.313 0.772,-3.33 1.521,-6.664 2.271,-10.001 0.032,-0.148 -0.025,-0.317 -0.045,-0.52 -0.516,-0.568 -1.28,-0.605 -1.974,-0.749 -0.822,-0.17 -0.877,0.526 -1,1.072 -0.437,1.904 -0.912,3.803 -1.271,5.722 -0.207,1.1 -0.69,1.737 -1.738,1.075 -1.712,-1.081 -3.74,-0.793 -5.514,-1.49 -1.096,-0.432 -1.653,-0.175 -1.896,0.987 -0.207,0.997 -0.159,1.617 1.077,1.906 2.933,0.682 5.826,1.542 8.739,2.311 z" />
        </g>
        <g
           id="g391">
          <path
             style="fill:#d9d9d6"
             inkscape:connector-curvature="0"
             id="path393"
             d="m 680.563,684.202 c 1.191,0.945 0.999,1.566 -0.015,2.467 -1.395,1.243 -2.666,2.622 -3.997,3.94 -0.469,0.462 -1.12,0.937 -0.179,1.507 0.651,0.396 1.013,1.764 2.725,0.225 1.768,-1.745 4.083,-4.027 6.389,-6.317 0.816,-0.81 0.105,-1.247 -0.438,-1.747 -2.146,-1.97 -4.29,-3.941 -6.408,-5.941 -0.785,-0.741 -1.433,-1.098 -2.42,-0.179 -1.225,1.137 -0.135,1.767 0.441,2.376 1.222,1.298 2.507,2.562 3.902,3.669 z" />
        </g>
        <g
           id="g395">
          <path
             style="fill:#d9d9d6"
             inkscape:connector-curvature="0"
             id="path397"
             d="m 720.866,686.098 c -1.095,-0.998 -1.3,-1.854 0.041,-2.938 1.314,-1.064 2.388,-2.423 3.607,-3.608 0.698,-0.678 0.907,-1.14 0.042,-1.95 -0.825,-0.771 -1.399,-0.96 -2.221,-0.127 -2.161,2.195 -4.309,4.406 -6.535,6.534 -0.792,0.755 -0.484,1.058 0.169,1.639 2.302,2.045 4.576,4.125 6.764,6.289 0.639,0.631 1.359,0.84 1.713,0.228 0.344,-0.595 1.637,-1.236 0.543,-2.282 -1.374,-1.265 -2.745,-2.527 -4.123,-3.785 z" />
        </g>
        <g
           id="g399">
          <path
             style="fill:#d9d9d6"
             inkscape:connector-curvature="0"
             id="path401"
             d="m 709.482,697.718 c -1.12,-0.407 -1.445,-0.438 -1.693,0.732 -0.636,3.017 -1.356,6.017 -2.009,9.029 -0.102,0.473 -0.609,1.096 0.271,1.419 0.676,0.25 1.35,0.517 1.704,0.651 0.933,-0.533 0.794,-1.08 0.899,-1.532 0.404,-1.744 0.938,-3.47 1.165,-5.237 0.207,-1.626 0.869,-1.738 2.229,-1.271 1.765,0.607 3.612,0.967 5.394,1.524 0.943,0.294 1.402,0.083 1.476,-0.908 0.057,-0.763 0.838,-1.599 -0.769,-1.945 -2.932,-0.627 -5.848,-1.441 -8.667,-2.462 z" />
        </g>
        <g
           id="g403">
          <path
             style="fill:#d9d9d6"
             inkscape:connector-curvature="0"
             id="path405"
             d="m 718.114,678.073 c -0.61,-0.468 -1.007,-1.734 -2.15,-0.829 -0.612,0.484 -1.325,0.718 -1.854,1.464 -1.063,1.496 -2.332,2.922 -3.767,4.064 -1.664,1.322 -3.575,0.879 -5.159,-0.306 -1.594,-1.192 -0.266,-2.487 0.404,-3.37 0.862,-1.138 2.221,-2.233 3.642,-2.245 2.071,-0.014 3.51,-1.418 5.371,-1.834 1.38,-0.312 0.492,-1.496 0.323,-2.251 -0.218,-0.985 -1.064,-0.713 -1.541,-0.338 -1.623,1.274 -3.723,0.805 -5.458,1.618 -0.979,0.458 -1.234,0.43 -1.63,-0.92 -0.51,-1.739 -1.202,-3.466 -1.547,-5.26 -0.325,-1.695 -1.594,-1.765 -2.688,-1.541 -1.496,0.307 -0.512,1.44 -0.298,2.149 1.342,4.44 2.887,8.87 -0.828,12.975 -0.091,0.098 -0.264,0.12 -0.396,0.175 -3.604,-4.797 -3.637,-4.973 -2.228,-10.626 0.256,-1.021 0.458,-2.054 0.69,-3.08 0.314,-1.391 -0.89,-1.023 -1.517,-1.304 -0.716,-0.32 -1.25,-0.248 -1.379,0.689 -0.079,0.562 -0.234,1.114 -0.366,1.67 -1.397,5.918 -1.388,5.881 -7.196,4.209 -0.99,-0.284 -2.439,-1.534 -3.075,0.391 -0.671,2.028 1.097,2.081 2.356,2.451 0.392,0.114 0.802,0.174 1.181,0.313 3.167,1.173 6.817,1.546 8.071,5.628 0.389,1.274 0.188,1.69 -0.955,1.741 -2.751,0.125 -5.479,0.292 -7.407,-2.413 -0.832,-1.165 -2.2,-1.933 -3.188,-3.004 -0.892,-0.965 -1.496,-0.894 -2.381,0.016 -0.929,0.952 -0.45,1.535 0.26,2.185 1.195,1.097 2.361,2.234 3.605,3.275 1.161,0.97 1.773,1.699 0.101,2.892 -1.299,0.928 -2.305,2.275 -3.403,3.471 -0.527,0.574 -1.658,0.96 -0.458,2.083 0.97,0.908 1.657,1.103 2.596,0.054 1.029,-1.15 2.111,-2.254 3.228,-3.319 1.707,-1.63 3.672,-2.609 6.137,-2.382 1.718,0.161 2.111,0.743 1.513,2.501 -1.162,3.421 -4.025,4.225 -6.945,4.837 -2.721,0.57 -4.604,1.549 -4.035,4.762 2.462,-1.63 5.393,-1.733 8.121,-2.499 0.515,-0.145 0.75,0.106 0.946,0.475 0.247,0.465 0.018,0.8 -0.413,0.927 -2.547,0.742 -5.097,1.48 -7.663,2.157 -0.542,0.144 -0.801,-0.421 -1.063,-0.82 -0.587,0.546 -1.101,1.216 -1.774,1.607 -0.977,0.562 -1.817,1.083 -1.276,2.377 0.548,1.308 1.583,0.741 2.499,0.592 0.437,-0.071 0.989,-0.495 1.214,0.22 0.209,0.666 -0.498,0.692 -0.846,0.96 -1.407,1.081 -3.164,1.229 -4.761,1.807 -0.82,0.296 -1.74,0.499 -1.247,1.854 0.373,1.028 0.498,1.892 1.915,1.157 0.669,-0.344 1.59,0.309 2.293,-0.374 0.33,-0.32 0.747,-0.763 1.218,-0.228 0.377,0.426 0.13,0.979 -0.053,1.377 -0.504,1.107 -1.09,2.183 -1.706,3.233 -0.489,0.83 -0.597,1.42 0.439,1.956 0.943,0.489 1.498,0.619 2.128,-0.505 0.883,-1.579 1.549,-3.327 2.901,-4.751 1.014,1.262 1.057,2.687 1.394,3.997 0.274,1.062 0.747,1.501 1.903,1.171 1.085,-0.308 1.418,-0.774 1.085,-1.917 -0.728,-2.496 -1.365,-5.02 -1.949,-7.551 -0.382,-1.657 -0.925,-2.817 -2.882,-1.696 -0.299,0.17 -0.627,0.268 -0.853,-0.06 -0.316,-0.461 0.007,-0.73 0.377,-0.947 0.63,-0.369 1.249,-0.757 1.894,-1.1 1.184,-0.632 2.063,-0.764 2.365,1.004 0.3,1.752 0.894,3.454 1.335,5.183 0.261,1.02 0.702,1.527 1.888,1.138 1.064,-0.349 1.447,-0.781 1.054,-1.938 -0.496,-1.458 -0.868,-2.969 -1.149,-4.484 -0.207,-1.109 -1.415,-2.84 -0.169,-3.226 1.441,-0.447 1.163,1.692 1.629,2.674 0.428,0.895 0.666,1.66 1.866,1.151 1.02,-0.432 1.758,-0.825 1.185,-2.255 -0.708,-1.763 -1.112,-3.65 -1.613,-5.493 -0.271,-1.001 -0.689,-1.976 -0.031,-3.047 0.88,-1.433 1.622,-2.947 2.421,-4.427 0.549,0.561 1.096,1.119 1.646,1.678 0.191,0.316 0.386,0.634 0.581,0.949 0.211,1.082 0.953,1.875 1.505,2.778 -1.009,2.516 -0.629,5.419 -2.366,7.793 -0.618,0.845 0.47,1.539 1.415,1.761 0.801,0.188 1.729,0.843 2.015,-0.697 0.383,-2.064 0.879,-4.106 1.341,-6.155 0.141,-0.623 0.209,-1.349 1.198,-0.798 1.875,1.046 4.136,0.597 6.06,1.514 0.834,0.396 1.51,0.399 1.753,-0.81 0.216,-1.066 0.342,-1.81 -1.05,-2.119 -2.533,-0.563 -5.03,-1.285 -7.541,-1.94 -1.132,-1.975 -2.726,-3.702 -3.234,-6.011 4.978,-0.943 8.523,1.395 11.51,5.024 0.152,0.185 0.424,0.278 0.556,0.472 0.719,1.037 1.406,0.774 2.208,0.067 0.934,-0.822 0.701,-1.482 -0.099,-2.21 -1.381,-1.26 -2.659,-2.647 -4.126,-3.797 -1.014,-0.795 -0.88,-1.353 -0.105,-2.109 1.396,-1.364 2.781,-2.738 4.159,-4.121 0.433,-0.439 1.158,-0.919 0.323,-1.559 z" />
        </g>
      </g>
      <g
         style="opacity:0.8"
         id="g545">
        <g
           id="g547">
          <path
             style="fill:#d9d9d6"
             inkscape:connector-curvature="0"
             id="path549"
             d="m 690.826,240.303 c -0.402,-0.118 -0.608,-0.07 -0.701,0.387 -0.217,1.064 -0.477,2.119 -0.723,3.177 -0.088,0.376 -0.184,0.65 0.414,0.751 0.531,0.089 0.631,-0.08 0.705,-0.502 0.088,-0.501 0.217,-0.995 0.387,-1.753 0.449,0.749 0.724,1.298 1.091,1.776 0.189,0.245 0.17,0.893 0.875,0.494 0.674,-0.382 0.313,-0.675 0.114,-1.063 -0.233,-0.451 -0.841,-0.924 -0.636,-1.329 0.224,-0.442 0.863,0.049 1.327,0.057 0.475,0.009 0.61,-0.049 0.715,-0.495 0.109,-0.467 -0.081,-0.573 -0.47,-0.668 -1.037,-0.255 -2.07,-0.533 -3.098,-0.832 z" />
        </g>
        <g
           id="g551">
          <path
             style="fill:#d9d9d6"
             inkscape:connector-curvature="0"
             id="path553"
             d="m 681.514,226.439 c 0.509,0.159 0.62,-0.047 0.707,-0.488 0.199,-1 0.408,-2.001 0.695,-2.977 0.137,-0.462 0.15,-0.676 -0.372,-0.848 -0.601,-0.197 -0.658,0.133 -0.737,0.555 -0.087,0.471 -0.203,0.938 -0.306,1.406 -0.076,0.012 -0.151,0.025 -0.226,0.037 -0.344,-0.572 -0.708,-1.132 -1.024,-1.717 -0.227,-0.42 -0.477,-0.477 -0.882,-0.243 -0.447,0.261 -0.253,0.544 -0.086,0.842 0.119,0.213 0.253,0.419 0.367,0.635 0.177,0.335 0.657,0.713 0.37,1.028 -0.287,0.315 -0.777,-0.076 -1.179,-0.157 -0.027,-0.005 -0.054,-0.028 -0.076,-0.046 -0.332,-0.275 -0.601,-0.292 -0.746,0.185 -0.13,0.424 -0.258,0.794 0.402,0.94 1.044,0.231 2.073,0.53 3.093,0.848 z" />
        </g>
        <g
           id="g555">
          <path
             style="fill:#d9d9d6"
             inkscape:connector-curvature="0"
             id="path557"
             d="m 698.562,232.583 c -0.683,0.038 -1.369,0.022 -2.225,0.031 0.494,-0.505 0.84,-0.873 1.2,-1.225 0.273,-0.269 0.518,-0.465 0.114,-0.881 -0.39,-0.404 -0.644,-0.208 -0.91,0.05 -0.77,0.738 -1.524,1.49 -2.273,2.248 -0.216,0.219 -0.393,0.417 -0.022,0.733 0.855,0.733 1.67,1.515 2.477,2.301 0.315,0.308 0.523,0.297 0.818,-0.025 0.304,-0.332 0.257,-0.57 -0.057,-0.833 -0.256,-0.215 -0.507,-0.438 -0.752,-0.667 -0.109,-0.101 -0.26,-0.232 -0.162,-0.381 0.07,-0.107 0.304,-0.236 0.365,-0.197 0.516,0.324 0.986,-0.151 1.476,-0.053 0.467,0.093 0.731,-0.194 0.733,-0.556 0.003,-0.427 -0.348,-0.569 -0.782,-0.545 z" />
        </g>
        <g
           id="g559">
          <path
             style="fill:#d9d9d6"
             inkscape:connector-curvature="0"
             id="path561"
             d="m 673.464,234.141 c 0.353,0.054 0.679,0.056 1.036,-0.003 0.296,-0.048 0.665,-0.158 0.908,0.08 0.101,0.267 0.102,0.461 -0.096,0.629 -0.209,0.178 -0.386,0.395 -0.598,0.566 -0.341,0.274 -0.346,0.487 -0.014,0.804 0.327,0.313 0.53,0.278 0.823,-0.023 0.766,-0.784 1.554,-1.546 2.338,-2.313 0.22,-0.214 0.372,-0.418 0.078,-0.685 -0.877,-0.796 -1.765,-1.582 -2.626,-2.394 -0.37,-0.349 -0.508,-0.017 -0.734,0.167 -0.289,0.234 -0.242,0.423 -0.021,0.679 0.36,0.417 1.239,0.749 0.993,1.219 -0.21,0.402 -1.125,0.109 -1.725,0.166 -0.091,0.009 -0.184,0.01 -0.275,0.001 -0.299,-0.029 -0.486,0.078 -0.443,0.403 0.036,0.268 -0.136,0.631 0.356,0.704 z" />
        </g>
        <g
           id="g563">
          <path
             style="fill:#d9d9d6"
             inkscape:connector-curvature="0"
             id="path565"
             d="m 690.813,226.272 c 0.863,-0.368 1.716,-0.68 2.662,-0.788 0.281,-0.032 0.801,-0.25 0.604,-0.892 -0.187,-0.604 -0.456,-0.502 -0.866,-0.308 -0.242,0.114 -0.515,0.174 -0.779,0.23 -0.168,0.035 -0.461,0.081 -0.498,0.012 -0.088,-0.162 -0.121,-0.369 0.03,-0.584 0.278,-0.395 0.479,-0.843 0.748,-1.248 0.266,-0.402 0.059,-0.58 -0.263,-0.788 -0.364,-0.238 -0.529,-0.098 -0.702,0.231 -0.339,0.646 -0.708,1.274 -1.14,2.045 -0.179,-0.617 -0.287,-1.088 -0.452,-1.539 -0.109,-0.302 0.057,-0.854 -0.668,-0.661 -0.634,0.169 -0.553,0.498 -0.431,0.939 0.265,0.955 0.563,1.904 0.759,2.873 0.139,0.685 0.649,0.625 0.996,0.478 z" />
        </g>
        <g
           id="g567">
          <path
             style="fill:#d9d9d6"
             inkscape:connector-curvature="0"
             id="path569"
             d="m 689.133,228.614 c 1.019,-0.419 2.078,-0.72 3.16,-0.921 0.791,-0.146 0.618,-0.651 0.453,-1.218 -0.087,-0.215 -0.283,-0.177 -0.505,-0.103 -0.549,0.182 -1.115,0.318 -1.647,0.54 -0.719,0.298 -1.18,0.267 -1.293,-0.656 -0.07,-0.569 -0.275,-1.121 -0.416,-1.681 -0.093,-0.37 -0.255,-0.483 -0.652,-0.318 -0.287,0.119 -0.603,0.074 -0.467,0.553 0.332,1.169 0.626,2.35 0.943,3.524 0.054,0.202 0.098,0.415 0.424,0.28 z" />
        </g>
        <g
           id="g571">
          <path
             style="fill:#d9d9d6"
             inkscape:connector-curvature="0"
             id="path573"
             d="m 682.931,228.591 c 0.181,0.047 0.424,0.237 0.506,-0.118 0.29,-1.248 0.57,-2.499 0.852,-3.75 0.013,-0.056 -0.009,-0.119 -0.017,-0.195 -0.193,-0.213 -0.48,-0.227 -0.74,-0.281 -0.308,-0.064 -0.328,0.197 -0.374,0.402 -0.164,0.714 -0.343,1.426 -0.478,2.146 -0.077,0.412 -0.258,0.651 -0.651,0.403 -0.642,-0.405 -1.401,-0.297 -2.066,-0.559 -0.41,-0.162 -0.62,-0.066 -0.711,0.37 -0.077,0.374 -0.06,0.606 0.404,0.714 1.098,0.257 2.183,0.58 3.275,0.868 z" />
        </g>
        <g
           id="g575">
          <path
             style="fill:#d9d9d6"
             inkscape:connector-curvature="0"
             id="path577"
             d="m 678.657,233.054 c 0.446,0.354 0.374,0.587 -0.005,0.925 -0.523,0.466 -1,0.983 -1.499,1.478 -0.176,0.173 -0.42,0.351 -0.066,0.565 0.243,0.148 0.379,0.662 1.021,0.084 0.662,-0.655 1.53,-1.51 2.395,-2.369 0.306,-0.304 0.039,-0.468 -0.165,-0.655 -0.805,-0.739 -1.607,-1.478 -2.401,-2.228 -0.295,-0.278 -0.537,-0.411 -0.907,-0.067 -0.459,0.426 -0.051,0.663 0.165,0.891 0.458,0.487 0.94,0.961 1.462,1.376 z" />
        </g>
        <g
           id="g579">
          <path
             style="fill:#d9d9d6"
             inkscape:connector-curvature="0"
             id="path581"
             d="m 693.765,233.765 c -0.41,-0.374 -0.487,-0.695 0.016,-1.102 0.492,-0.399 0.895,-0.908 1.352,-1.353 0.262,-0.254 0.341,-0.427 0.016,-0.731 -0.309,-0.29 -0.524,-0.36 -0.832,-0.048 -0.811,0.823 -1.615,1.652 -2.449,2.45 -0.297,0.283 -0.182,0.396 0.063,0.614 0.863,0.767 1.716,1.546 2.535,2.358 0.24,0.237 0.51,0.315 0.643,0.085 0.129,-0.223 0.613,-0.463 0.204,-0.855 -0.518,-0.473 -1.032,-0.946 -1.548,-1.418 z" />
        </g>
        <g
           id="g583">
          <path
             style="fill:#d9d9d6"
             inkscape:connector-curvature="0"
             id="path585"
             d="m 689.497,238.122 c -0.42,-0.152 -0.541,-0.165 -0.634,0.274 -0.238,1.131 -0.509,2.256 -0.754,3.386 -0.038,0.177 -0.228,0.411 0.103,0.532 0.253,0.094 0.506,0.194 0.639,0.244 0.35,-0.2 0.297,-0.404 0.337,-0.574 0.151,-0.654 0.352,-1.301 0.437,-1.964 0.078,-0.61 0.326,-0.652 0.836,-0.476 0.661,0.228 1.354,0.362 2.021,0.571 0.354,0.11 0.525,0.031 0.553,-0.34 0.021,-0.287 0.314,-0.6 -0.288,-0.729 -1.1,-0.236 -2.192,-0.541 -3.25,-0.924 z" />
        </g>
        <g
           id="g587">
          <path
             style="fill:#d9d9d6"
             inkscape:connector-curvature="0"
             id="path589"
             d="m 692.733,230.756 c -0.229,-0.176 -0.378,-0.65 -0.807,-0.311 -0.229,0.182 -0.496,0.269 -0.694,0.549 -0.399,0.561 -0.875,1.096 -1.412,1.523 -0.624,0.496 -1.34,0.33 -1.935,-0.115 -0.597,-0.447 -0.1,-0.932 0.152,-1.264 0.323,-0.426 0.832,-0.837 1.364,-0.842 0.777,-0.005 1.316,-0.532 2.014,-0.688 0.518,-0.117 0.185,-0.561 0.121,-0.844 -0.082,-0.37 -0.398,-0.268 -0.577,-0.127 -0.609,0.478 -1.396,0.302 -2.046,0.607 -0.367,0.171 -0.463,0.161 -0.611,-0.345 -0.191,-0.652 -0.451,-1.3 -0.58,-1.972 -0.122,-0.635 -0.597,-0.662 -1.007,-0.578 -0.562,0.115 -0.192,0.54 -0.112,0.806 0.503,1.665 1.083,3.326 -0.311,4.865 -0.033,0.037 -0.099,0.045 -0.148,0.066 -1.351,-1.798 -1.363,-1.865 -0.835,-3.984 0.096,-0.382 0.172,-0.77 0.259,-1.155 0.118,-0.521 -0.333,-0.383 -0.568,-0.489 -0.269,-0.12 -0.469,-0.093 -0.517,0.258 -0.029,0.211 -0.088,0.418 -0.138,0.627 -0.523,2.219 -0.52,2.205 -2.697,1.578 -0.371,-0.106 -0.914,-0.575 -1.152,0.147 -0.252,0.76 0.411,0.78 0.883,0.918 0.147,0.043 0.301,0.065 0.442,0.118 1.188,0.44 2.556,0.58 3.026,2.11 0.146,0.478 0.069,0.634 -0.358,0.653 -1.031,0.047 -2.054,0.109 -2.776,-0.905 -0.312,-0.437 -0.824,-0.725 -1.195,-1.126 -0.334,-0.362 -0.561,-0.335 -0.893,0.006 -0.348,0.357 -0.169,0.576 0.098,0.819 0.448,0.411 0.885,0.837 1.352,1.228 0.435,0.364 0.664,0.637 0.037,1.084 -0.486,0.348 -0.863,0.853 -1.275,1.301 -0.197,0.215 -0.622,0.36 -0.172,0.781 0.364,0.34 0.621,0.414 0.974,0.02 0.385,-0.431 0.791,-0.845 1.21,-1.244 0.639,-0.611 1.376,-0.979 2.3,-0.893 0.644,0.06 0.791,0.278 0.567,0.938 -0.437,1.283 -1.51,1.584 -2.604,1.813 -1.021,0.213 -1.727,0.581 -1.513,1.786 0.923,-0.611 2.021,-0.65 3.044,-0.937 0.192,-0.054 0.281,0.04 0.354,0.178 0.093,0.174 0.007,0.3 -0.154,0.348 -0.955,0.278 -1.911,0.555 -2.873,0.809 -0.203,0.054 -0.3,-0.158 -0.398,-0.308 -0.22,0.205 -0.412,0.456 -0.665,0.603 -0.366,0.211 -0.681,0.406 -0.479,0.892 0.206,0.49 0.594,0.278 0.937,0.222 0.164,-0.027 0.371,-0.186 0.456,0.083 0.078,0.25 -0.188,0.259 -0.317,0.36 -0.527,0.405 -1.187,0.461 -1.784,0.678 -0.308,0.111 -0.652,0.187 -0.468,0.695 0.14,0.386 0.187,0.709 0.718,0.434 0.251,-0.129 0.596,0.116 0.859,-0.14 0.124,-0.12 0.28,-0.286 0.457,-0.086 0.141,0.16 0.048,0.367 -0.021,0.517 -0.188,0.415 -0.408,0.818 -0.64,1.212 -0.183,0.311 -0.224,0.532 0.165,0.733 0.354,0.184 0.562,0.232 0.798,-0.189 0.331,-0.592 0.581,-1.248 1.088,-1.782 0.38,0.473 0.396,1.008 0.521,1.499 0.104,0.398 0.28,0.563 0.714,0.439 0.407,-0.116 0.531,-0.29 0.407,-0.719 -0.273,-0.936 -0.512,-1.882 -0.731,-2.832 -0.143,-0.621 -0.347,-1.056 -1.08,-0.636 -0.111,0.064 -0.235,0.101 -0.319,-0.022 -0.118,-0.173 0.002,-0.274 0.142,-0.355 0.235,-0.138 0.468,-0.284 0.709,-0.412 0.444,-0.237 0.773,-0.287 0.887,0.376 0.112,0.657 0.335,1.295 0.501,1.943 0.098,0.382 0.263,0.572 0.707,0.426 0.399,-0.13 0.543,-0.292 0.396,-0.727 -0.187,-0.546 -0.326,-1.113 -0.431,-1.681 -0.078,-0.416 -0.531,-1.065 -0.063,-1.21 0.54,-0.167 0.436,0.635 0.61,1.003 0.16,0.335 0.25,0.622 0.699,0.431 0.383,-0.161 0.659,-0.309 0.444,-0.845 -0.266,-0.661 -0.417,-1.369 -0.604,-2.06 -0.102,-0.375 -0.259,-0.741 -0.012,-1.143 0.329,-0.537 0.607,-1.105 0.907,-1.66 0.206,0.21 0.41,0.419 0.616,0.629 0.072,0.118 0.146,0.237 0.218,0.355 0.079,0.406 0.357,0.703 0.564,1.042 -0.378,0.943 -0.235,2.032 -0.887,2.922 -0.231,0.317 0.176,0.577 0.53,0.66 0.301,0.071 0.648,0.316 0.755,-0.261 0.144,-0.774 0.33,-1.54 0.503,-2.308 0.053,-0.234 0.078,-0.506 0.449,-0.299 0.703,0.392 1.55,0.224 2.271,0.567 0.313,0.149 0.565,0.15 0.657,-0.304 0.081,-0.399 0.128,-0.679 -0.395,-0.794 -0.949,-0.211 -1.885,-0.482 -2.826,-0.728 -0.424,-0.74 -1.021,-1.388 -1.212,-2.254 1.865,-0.354 3.194,0.523 4.314,1.884 0.057,0.069 0.158,0.104 0.208,0.177 0.27,0.389 0.527,0.291 0.827,0.025 0.351,-0.308 0.264,-0.556 -0.037,-0.829 -0.518,-0.472 -0.996,-0.993 -1.546,-1.424 -0.38,-0.298 -0.33,-0.507 -0.04,-0.791 0.523,-0.512 1.043,-1.027 1.56,-1.545 0.165,-0.16 0.437,-0.34 0.124,-0.58 z" />
        </g>
      </g>
      <g
         style="opacity:0.8"
         id="g591">
        <g
           id="g593">
          <path
             style="fill:#d9d9d6"
             inkscape:connector-curvature="0"
             id="path595"
             d="m 667.887,593.163 c -0.401,-0.118 -0.608,-0.07 -0.701,0.387 -0.217,1.064 -0.477,2.119 -0.723,3.177 -0.088,0.376 -0.184,0.65 0.414,0.751 0.531,0.089 0.631,-0.08 0.705,-0.502 0.089,-0.501 0.217,-0.995 0.387,-1.753 0.449,0.748 0.724,1.298 1.092,1.776 0.188,0.245 0.169,0.893 0.874,0.494 0.674,-0.382 0.314,-0.675 0.114,-1.062 -0.233,-0.451 -0.84,-0.924 -0.636,-1.329 0.224,-0.441 0.863,0.049 1.327,0.057 0.475,0.009 0.61,-0.05 0.715,-0.495 0.11,-0.467 -0.081,-0.573 -0.469,-0.668 -1.039,-0.256 -2.072,-0.534 -3.099,-0.833 z" />
        </g>
        <g
           id="g597">
          <path
             style="fill:#d9d9d6"
             inkscape:connector-curvature="0"
             id="path599"
             d="m 658.574,579.298 c 0.51,0.159 0.62,-0.047 0.707,-0.488 0.199,-0.999 0.408,-2 0.695,-2.977 0.137,-0.462 0.15,-0.676 -0.371,-0.848 -0.601,-0.198 -0.659,0.132 -0.737,0.555 -0.088,0.471 -0.203,0.937 -0.307,1.406 -0.075,0.013 -0.151,0.025 -0.226,0.037 -0.344,-0.571 -0.708,-1.132 -1.023,-1.717 -0.228,-0.42 -0.478,-0.478 -0.882,-0.243 -0.448,0.26 -0.254,0.544 -0.087,0.842 0.119,0.213 0.253,0.419 0.367,0.635 0.178,0.335 0.657,0.713 0.37,1.027 -0.287,0.314 -0.777,-0.076 -1.179,-0.156 -0.027,-0.006 -0.053,-0.028 -0.076,-0.047 -0.332,-0.275 -0.601,-0.292 -0.746,0.186 -0.129,0.424 -0.257,0.794 0.403,0.94 1.043,0.232 2.073,0.53 3.092,0.848 z" />
        </g>
        <g
           id="g601">
          <path
             style="fill:#d9d9d6"
             inkscape:connector-curvature="0"
             id="path603"
             d="m 675.622,585.442 c -0.683,0.038 -1.369,0.022 -2.225,0.031 0.494,-0.505 0.841,-0.872 1.2,-1.225 0.274,-0.269 0.518,-0.465 0.114,-0.881 -0.39,-0.404 -0.644,-0.207 -0.91,0.05 -0.769,0.738 -1.524,1.49 -2.272,2.248 -0.217,0.219 -0.394,0.417 -0.023,0.733 0.855,0.732 1.67,1.514 2.477,2.301 0.315,0.308 0.523,0.297 0.818,-0.025 0.304,-0.331 0.257,-0.57 -0.057,-0.832 -0.256,-0.216 -0.507,-0.438 -0.752,-0.667 -0.108,-0.101 -0.26,-0.232 -0.162,-0.381 0.07,-0.107 0.304,-0.236 0.365,-0.197 0.516,0.324 0.986,-0.15 1.476,-0.052 0.468,0.093 0.731,-0.194 0.733,-0.556 0.003,-0.428 -0.346,-0.571 -0.782,-0.547 z" />
        </g>
        <g
           id="g605">
          <path
             style="fill:#d9d9d6"
             inkscape:connector-curvature="0"
             id="path607"
             d="m 650.524,587.001 c 0.354,0.053 0.68,0.056 1.036,-0.003 0.296,-0.049 0.665,-0.158 0.908,0.08 0.101,0.268 0.102,0.462 -0.096,0.63 -0.209,0.177 -0.385,0.395 -0.598,0.566 -0.34,0.274 -0.346,0.487 -0.013,0.804 0.326,0.313 0.529,0.278 0.822,-0.023 0.767,-0.784 1.554,-1.546 2.338,-2.313 0.22,-0.213 0.372,-0.418 0.078,-0.685 -0.877,-0.795 -1.765,-1.582 -2.626,-2.394 -0.37,-0.349 -0.508,-0.017 -0.733,0.167 -0.29,0.234 -0.243,0.423 -0.021,0.678 0.361,0.417 1.24,0.749 0.994,1.219 -0.21,0.402 -1.125,0.109 -1.726,0.167 -0.091,0.009 -0.184,0.01 -0.274,10e-4 -0.299,-0.029 -0.487,0.078 -0.444,0.402 0.036,0.267 -0.137,0.63 0.355,0.704 z" />
        </g>
        <g
           id="g609">
          <path
             style="fill:#d9d9d6"
             inkscape:connector-curvature="0"
             id="path611"
             d="m 667.873,579.132 c 0.863,-0.368 1.716,-0.681 2.662,-0.788 0.282,-0.032 0.802,-0.25 0.604,-0.892 -0.187,-0.605 -0.456,-0.502 -0.866,-0.308 -0.242,0.114 -0.515,0.174 -0.779,0.23 -0.168,0.036 -0.461,0.081 -0.498,0.013 -0.088,-0.162 -0.121,-0.369 0.03,-0.584 0.279,-0.395 0.48,-0.844 0.748,-1.248 0.267,-0.402 0.059,-0.58 -0.262,-0.789 -0.365,-0.238 -0.53,-0.098 -0.703,0.231 -0.339,0.646 -0.708,1.274 -1.14,2.045 -0.179,-0.618 -0.286,-1.088 -0.452,-1.539 -0.109,-0.301 0.057,-0.854 -0.668,-0.66 -0.634,0.169 -0.553,0.497 -0.43,0.939 0.265,0.955 0.563,1.904 0.758,2.873 0.14,0.684 0.649,0.624 0.996,0.477 z" />
        </g>
        <g
           id="g613">
          <path
             style="fill:#d9d9d6"
             inkscape:connector-curvature="0"
             id="path615"
             d="m 666.193,581.474 c 1.02,-0.42 2.078,-0.72 3.16,-0.921 0.791,-0.147 0.619,-0.651 0.453,-1.218 -0.087,-0.215 -0.283,-0.177 -0.505,-0.104 -0.549,0.183 -1.115,0.319 -1.647,0.54 -0.719,0.297 -1.179,0.266 -1.293,-0.656 -0.069,-0.569 -0.274,-1.121 -0.416,-1.682 -0.093,-0.37 -0.254,-0.483 -0.652,-0.317 -0.287,0.119 -0.603,0.073 -0.467,0.553 0.332,1.169 0.627,2.35 0.943,3.524 0.055,0.203 0.098,0.415 0.424,0.281 z" />
        </g>
        <g
           id="g617">
          <path
             style="fill:#d9d9d6"
             inkscape:connector-curvature="0"
             id="path619"
             d="m 659.991,581.451 c 0.181,0.047 0.424,0.237 0.507,-0.117 0.289,-1.249 0.57,-2.499 0.851,-3.75 0.013,-0.056 -0.009,-0.119 -0.017,-0.195 -0.193,-0.213 -0.479,-0.227 -0.74,-0.281 -0.308,-0.063 -0.328,0.197 -0.374,0.402 -0.164,0.714 -0.342,1.426 -0.477,2.146 -0.078,0.413 -0.259,0.651 -0.652,0.403 -0.642,-0.405 -1.401,-0.297 -2.066,-0.559 -0.41,-0.162 -0.62,-0.065 -0.71,0.371 -0.078,0.374 -0.06,0.606 0.403,0.714 1.099,0.255 2.183,0.578 3.275,0.866 z" />
        </g>
        <g
           id="g621">
          <path
             style="fill:#d9d9d6"
             inkscape:connector-curvature="0"
             id="path623"
             d="m 655.718,585.914 c 0.446,0.354 0.375,0.587 -0.005,0.925 -0.523,0.466 -1,0.983 -1.498,1.477 -0.177,0.173 -0.42,0.352 -0.067,0.565 0.244,0.148 0.38,0.661 1.021,0.084 0.662,-0.654 1.53,-1.51 2.395,-2.369 0.306,-0.304 0.039,-0.467 -0.165,-0.655 -0.805,-0.739 -1.607,-1.478 -2.401,-2.228 -0.295,-0.278 -0.537,-0.412 -0.907,-0.067 -0.459,0.427 -0.051,0.663 0.165,0.891 0.458,0.487 0.939,0.962 1.462,1.377 z" />
        </g>
        <g
           id="g625">
          <path
             style="fill:#d9d9d6"
             inkscape:connector-curvature="0"
             id="path627"
             d="m 670.825,586.625 c -0.41,-0.374 -0.487,-0.695 0.016,-1.102 0.492,-0.399 0.895,-0.909 1.353,-1.353 0.262,-0.254 0.34,-0.428 0.016,-0.731 -0.31,-0.289 -0.525,-0.36 -0.833,-0.047 -0.81,0.823 -1.615,1.652 -2.449,2.45 -0.297,0.283 -0.182,0.396 0.063,0.614 0.862,0.767 1.715,1.547 2.535,2.358 0.239,0.237 0.51,0.315 0.642,0.085 0.129,-0.223 0.614,-0.463 0.204,-0.855 -0.517,-0.475 -1.03,-0.948 -1.547,-1.419 z" />
        </g>
        <g
           id="g629">
          <path
             style="fill:#d9d9d6"
             inkscape:connector-curvature="0"
             id="path631"
             d="m 666.559,590.982 c -0.42,-0.153 -0.542,-0.165 -0.635,0.274 -0.238,1.131 -0.509,2.256 -0.753,3.385 -0.038,0.177 -0.229,0.411 0.102,0.532 0.253,0.094 0.506,0.193 0.639,0.244 0.35,-0.2 0.298,-0.405 0.337,-0.574 0.151,-0.654 0.352,-1.301 0.437,-1.964 0.078,-0.61 0.326,-0.652 0.836,-0.477 0.661,0.228 1.354,0.362 2.021,0.571 0.354,0.11 0.525,0.031 0.553,-0.34 0.021,-0.286 0.314,-0.6 -0.288,-0.729 -1.1,-0.234 -2.193,-0.539 -3.249,-0.922 z" />
        </g>
        <g
           id="g633">
          <path
             style="fill:#d9d9d6"
             inkscape:connector-curvature="0"
             id="path635"
             d="m 669.794,583.616 c -0.229,-0.176 -0.378,-0.65 -0.807,-0.311 -0.229,0.182 -0.496,0.269 -0.694,0.549 -0.398,0.561 -0.875,1.096 -1.412,1.524 -0.624,0.496 -1.34,0.33 -1.934,-0.115 -0.598,-0.447 -0.1,-0.933 0.151,-1.264 0.323,-0.427 0.832,-0.838 1.364,-0.842 0.777,-0.005 1.316,-0.532 2.014,-0.688 0.518,-0.117 0.185,-0.561 0.121,-0.844 -0.081,-0.369 -0.398,-0.267 -0.577,-0.127 -0.608,0.478 -1.396,0.302 -2.046,0.607 -0.367,0.172 -0.463,0.162 -0.611,-0.345 -0.191,-0.652 -0.45,-1.3 -0.58,-1.972 -0.121,-0.636 -0.597,-0.662 -1.007,-0.578 -0.561,0.115 -0.192,0.54 -0.111,0.806 0.503,1.665 1.082,3.326 -0.311,4.865 -0.034,0.037 -0.099,0.045 -0.148,0.066 -1.352,-1.799 -1.364,-1.865 -0.836,-3.984 0.097,-0.383 0.172,-0.771 0.26,-1.155 0.117,-0.521 -0.334,-0.384 -0.569,-0.489 -0.268,-0.12 -0.468,-0.093 -0.517,0.258 -0.029,0.211 -0.088,0.418 -0.137,0.626 -0.524,2.219 -0.521,2.205 -2.698,1.578 -0.371,-0.106 -0.914,-0.575 -1.152,0.146 -0.252,0.76 0.411,0.78 0.884,0.919 0.146,0.042 0.3,0.065 0.442,0.118 1.187,0.44 2.556,0.58 3.025,2.11 0.146,0.478 0.07,0.634 -0.358,0.653 -1.031,0.046 -2.054,0.109 -2.776,-0.905 -0.312,-0.437 -0.824,-0.725 -1.195,-1.126 -0.334,-0.362 -0.561,-0.335 -0.893,0.006 -0.348,0.357 -0.169,0.576 0.098,0.819 0.448,0.412 0.885,0.838 1.352,1.229 0.435,0.364 0.665,0.637 0.037,1.084 -0.486,0.348 -0.863,0.854 -1.275,1.302 -0.197,0.215 -0.621,0.36 -0.172,0.781 0.364,0.341 0.621,0.414 0.974,0.021 0.386,-0.431 0.791,-0.845 1.21,-1.245 0.64,-0.611 1.376,-0.978 2.3,-0.893 0.645,0.061 0.792,0.278 0.567,0.938 -0.436,1.283 -1.509,1.584 -2.604,1.814 -1.02,0.213 -1.726,0.581 -1.513,1.785 0.923,-0.611 2.021,-0.65 3.044,-0.937 0.193,-0.054 0.281,0.04 0.354,0.178 0.093,0.174 0.007,0.3 -0.154,0.347 -0.955,0.278 -1.911,0.555 -2.872,0.809 -0.204,0.054 -0.301,-0.158 -0.398,-0.307 -0.221,0.205 -0.413,0.456 -0.666,0.603 -0.365,0.211 -0.681,0.406 -0.478,0.892 0.205,0.49 0.593,0.278 0.937,0.222 0.164,-0.027 0.371,-0.186 0.455,0.083 0.078,0.25 -0.188,0.26 -0.317,0.36 -0.527,0.405 -1.186,0.46 -1.784,0.677 -0.308,0.111 -0.652,0.187 -0.468,0.695 0.14,0.386 0.187,0.709 0.718,0.434 0.251,-0.129 0.597,0.116 0.859,-0.14 0.124,-0.12 0.28,-0.286 0.457,-0.085 0.141,0.16 0.049,0.367 -0.02,0.516 -0.189,0.416 -0.409,0.819 -0.64,1.213 -0.184,0.311 -0.224,0.532 0.164,0.733 0.354,0.183 0.562,0.232 0.798,-0.189 0.331,-0.592 0.581,-1.248 1.088,-1.782 0.38,0.473 0.396,1.007 0.522,1.499 0.103,0.398 0.28,0.563 0.713,0.439 0.407,-0.116 0.532,-0.291 0.407,-0.719 -0.273,-0.936 -0.512,-1.883 -0.731,-2.832 -0.143,-0.622 -0.346,-1.056 -1.08,-0.636 -0.111,0.063 -0.234,0.1 -0.319,-0.022 -0.118,-0.173 0.003,-0.274 0.142,-0.355 0.236,-0.138 0.468,-0.284 0.709,-0.412 0.444,-0.237 0.774,-0.287 0.888,0.376 0.112,0.657 0.334,1.295 0.5,1.943 0.098,0.382 0.263,0.573 0.708,0.427 0.398,-0.131 0.542,-0.292 0.395,-0.727 -0.187,-0.547 -0.325,-1.113 -0.431,-1.682 -0.078,-0.416 -0.53,-1.065 -0.063,-1.209 0.54,-0.168 0.436,0.635 0.61,1.003 0.16,0.335 0.25,0.622 0.699,0.431 0.383,-0.162 0.659,-0.309 0.444,-0.845 -0.265,-0.661 -0.417,-1.369 -0.604,-2.06 -0.102,-0.376 -0.259,-0.741 -0.012,-1.143 0.33,-0.537 0.607,-1.105 0.907,-1.66 0.206,0.21 0.411,0.419 0.617,0.629 0.071,0.119 0.145,0.238 0.218,0.356 0.079,0.406 0.356,0.703 0.563,1.042 -0.378,0.943 -0.235,2.032 -0.887,2.922 -0.231,0.316 0.177,0.577 0.53,0.66 0.301,0.071 0.648,0.316 0.755,-0.261 0.144,-0.774 0.33,-1.54 0.503,-2.308 0.053,-0.233 0.078,-0.506 0.449,-0.299 0.703,0.393 1.551,0.224 2.271,0.567 0.313,0.149 0.566,0.15 0.657,-0.304 0.081,-0.399 0.128,-0.678 -0.394,-0.794 -0.95,-0.211 -1.886,-0.482 -2.826,-0.727 -0.425,-0.741 -1.022,-1.388 -1.213,-2.254 1.865,-0.354 3.195,0.523 4.314,1.884 0.057,0.069 0.159,0.104 0.208,0.177 0.27,0.389 0.527,0.291 0.828,0.025 0.35,-0.308 0.263,-0.556 -0.037,-0.829 -0.519,-0.472 -0.997,-0.993 -1.547,-1.424 -0.38,-0.298 -0.33,-0.507 -0.04,-0.791 0.523,-0.512 1.043,-1.026 1.56,-1.545 0.165,-0.166 0.436,-0.345 0.124,-0.585 z" />
        </g>
      </g>
      <g
         style="opacity:0.8"
         id="g729">
        <g
           id="g731">
          <path
             style="fill:#d9d9d6"
             inkscape:connector-curvature="0"
             id="path733"
             d="m 695.176,808.815 c -0.402,-0.118 -0.609,-0.07 -0.702,0.387 -0.217,1.064 -0.477,2.12 -0.722,3.178 -0.089,0.376 -0.185,0.65 0.413,0.751 0.531,0.089 0.632,-0.08 0.705,-0.502 0.089,-0.501 0.217,-0.995 0.387,-1.753 0.45,0.748 0.724,1.298 1.092,1.776 0.188,0.245 0.169,0.893 0.874,0.494 0.674,-0.382 0.314,-0.675 0.114,-1.062 -0.233,-0.451 -0.84,-0.924 -0.636,-1.329 0.224,-0.441 0.863,0.049 1.327,0.057 0.475,0.009 0.61,-0.049 0.715,-0.495 0.11,-0.467 -0.081,-0.573 -0.469,-0.668 -1.039,-0.256 -2.072,-0.534 -3.098,-0.834 z" />
        </g>
        <g
           id="g735">
          <path
             style="fill:#d9d9d6"
             inkscape:connector-curvature="0"
             id="path737"
             d="m 685.862,794.951 c 0.51,0.159 0.62,-0.047 0.707,-0.488 0.2,-0.999 0.408,-2 0.696,-2.977 0.136,-0.462 0.149,-0.676 -0.372,-0.848 -0.601,-0.198 -0.659,0.132 -0.737,0.555 -0.088,0.471 -0.203,0.937 -0.307,1.406 -0.075,0.013 -0.15,0.025 -0.226,0.037 -0.344,-0.571 -0.708,-1.132 -1.023,-1.717 -0.228,-0.42 -0.478,-0.478 -0.882,-0.243 -0.448,0.26 -0.254,0.544 -0.087,0.842 0.119,0.213 0.253,0.419 0.367,0.635 0.178,0.336 0.657,0.714 0.37,1.028 -0.287,0.314 -0.777,-0.077 -1.179,-0.157 -0.027,-0.006 -0.053,-0.028 -0.076,-0.047 -0.332,-0.275 -0.601,-0.292 -0.746,0.186 -0.13,0.424 -0.257,0.794 0.403,0.94 1.043,0.232 2.073,0.53 3.092,0.848 z" />
        </g>
        <g
           id="g739">
          <path
             style="fill:#d9d9d6"
             inkscape:connector-curvature="0"
             id="path741"
             d="m 702.91,801.095 c -0.683,0.038 -1.369,0.022 -2.225,0.031 0.494,-0.505 0.841,-0.872 1.2,-1.225 0.274,-0.269 0.518,-0.465 0.114,-0.881 -0.39,-0.404 -0.644,-0.208 -0.91,0.05 -0.769,0.738 -1.523,1.49 -2.273,2.248 -0.216,0.219 -0.393,0.417 -0.022,0.733 0.855,0.733 1.67,1.514 2.477,2.301 0.316,0.308 0.523,0.297 0.818,-0.026 0.304,-0.331 0.257,-0.57 -0.057,-0.832 -0.256,-0.215 -0.507,-0.438 -0.752,-0.667 -0.108,-0.101 -0.26,-0.232 -0.162,-0.381 0.07,-0.107 0.304,-0.236 0.365,-0.197 0.516,0.324 0.987,-0.15 1.476,-0.052 0.468,0.093 0.731,-0.194 0.733,-0.556 0.003,-0.428 -0.346,-0.57 -0.782,-0.546 z" />
        </g>
        <g
           id="g743">
          <path
             style="fill:#d9d9d6"
             inkscape:connector-curvature="0"
             id="path745"
             d="m 677.813,802.654 c 0.354,0.053 0.68,0.056 1.036,-0.003 0.296,-0.049 0.665,-0.158 0.908,0.08 0.102,0.268 0.102,0.462 -0.096,0.63 -0.209,0.177 -0.385,0.395 -0.598,0.566 -0.34,0.274 -0.346,0.487 -0.013,0.804 0.326,0.313 0.529,0.278 0.822,-0.023 0.767,-0.784 1.554,-1.546 2.338,-2.313 0.22,-0.213 0.372,-0.418 0.079,-0.685 -0.878,-0.795 -1.766,-1.582 -2.627,-2.394 -0.37,-0.349 -0.508,-0.016 -0.733,0.167 -0.29,0.234 -0.243,0.423 -0.021,0.678 0.361,0.417 1.24,0.749 0.994,1.219 -0.21,0.402 -1.125,0.109 -1.726,0.166 -0.091,0.009 -0.184,0.01 -0.274,10e-4 -0.299,-0.029 -0.487,0.078 -0.444,0.403 0.035,0.267 -0.138,0.63 0.355,0.704 z" />
        </g>
        <g
           id="g747">
          <path
             style="fill:#d9d9d6"
             inkscape:connector-curvature="0"
             id="path749"
             d="m 695.161,794.785 c 0.864,-0.368 1.716,-0.681 2.662,-0.788 0.282,-0.032 0.802,-0.25 0.604,-0.892 -0.187,-0.605 -0.456,-0.502 -0.866,-0.308 -0.242,0.114 -0.515,0.174 -0.779,0.23 -0.168,0.036 -0.461,0.081 -0.498,0.012 -0.088,-0.162 -0.121,-0.369 0.03,-0.583 0.279,-0.395 0.48,-0.844 0.748,-1.248 0.267,-0.402 0.059,-0.58 -0.262,-0.789 -0.365,-0.237 -0.529,-0.098 -0.703,0.231 -0.339,0.646 -0.708,1.274 -1.14,2.045 -0.179,-0.618 -0.286,-1.088 -0.452,-1.539 -0.109,-0.302 0.057,-0.853 -0.668,-0.66 -0.634,0.169 -0.553,0.497 -0.43,0.939 0.265,0.955 0.563,1.904 0.758,2.873 0.14,0.684 0.649,0.624 0.996,0.477 z" />
        </g>
        <g
           id="g751">
          <path
             style="fill:#d9d9d6"
             inkscape:connector-curvature="0"
             id="path753"
             d="m 693.481,797.127 c 1.02,-0.42 2.078,-0.72 3.16,-0.921 0.791,-0.147 0.619,-0.651 0.453,-1.218 -0.087,-0.215 -0.283,-0.177 -0.505,-0.104 -0.549,0.183 -1.115,0.319 -1.646,0.54 -0.72,0.297 -1.18,0.266 -1.294,-0.656 -0.069,-0.57 -0.274,-1.122 -0.416,-1.682 -0.093,-0.37 -0.254,-0.483 -0.652,-0.318 -0.287,0.119 -0.603,0.074 -0.467,0.553 0.332,1.169 0.627,2.35 0.943,3.524 0.055,0.203 0.098,0.416 0.424,0.282 z" />
        </g>
        <g
           id="g755">
          <path
             style="fill:#d9d9d6"
             inkscape:connector-curvature="0"
             id="path757"
             d="m 687.279,797.104 c 0.181,0.047 0.424,0.237 0.507,-0.117 0.289,-1.248 0.57,-2.499 0.851,-3.75 0.013,-0.056 -0.009,-0.119 -0.017,-0.195 -0.193,-0.213 -0.479,-0.227 -0.739,-0.28 -0.309,-0.064 -0.329,0.197 -0.375,0.402 -0.164,0.713 -0.342,1.426 -0.477,2.145 -0.078,0.413 -0.259,0.651 -0.652,0.403 -0.641,-0.405 -1.401,-0.298 -2.066,-0.559 -0.41,-0.162 -0.62,-0.065 -0.71,0.37 -0.078,0.374 -0.06,0.606 0.403,0.715 1.1,0.255 2.184,0.577 3.275,0.866 z" />
        </g>
        <g
           id="g759">
          <path
             style="fill:#d9d9d6"
             inkscape:connector-curvature="0"
             id="path761"
             d="m 683.006,801.566 c 0.447,0.354 0.375,0.587 -0.005,0.925 -0.523,0.466 -1,0.983 -1.498,1.478 -0.177,0.174 -0.42,0.352 -0.067,0.565 0.244,0.148 0.38,0.661 1.021,0.084 0.662,-0.654 1.53,-1.51 2.395,-2.369 0.306,-0.304 0.039,-0.467 -0.164,-0.655 -0.806,-0.739 -1.608,-1.478 -2.402,-2.228 -0.295,-0.278 -0.537,-0.412 -0.907,-0.067 -0.459,0.426 -0.051,0.662 0.165,0.891 0.458,0.487 0.939,0.961 1.462,1.376 z" />
        </g>
        <g
           id="g763">
          <path
             style="fill:#d9d9d6"
             inkscape:connector-curvature="0"
             id="path765"
             d="m 698.113,802.277 c -0.41,-0.374 -0.487,-0.695 0.016,-1.102 0.492,-0.399 0.895,-0.909 1.353,-1.353 0.262,-0.254 0.34,-0.427 0.016,-0.731 -0.31,-0.29 -0.525,-0.36 -0.833,-0.048 -0.81,0.823 -1.615,1.652 -2.449,2.45 -0.297,0.283 -0.182,0.396 0.063,0.614 0.862,0.767 1.715,1.547 2.535,2.358 0.239,0.237 0.51,0.315 0.642,0.085 0.129,-0.223 0.614,-0.463 0.204,-0.855 -0.516,-0.473 -1.03,-0.946 -1.547,-1.418 z" />
        </g>
        <g
           id="g767">
          <path
             style="fill:#d9d9d6"
             inkscape:connector-curvature="0"
             id="path769"
             d="m 693.847,806.635 c -0.42,-0.153 -0.542,-0.165 -0.635,0.274 -0.238,1.131 -0.509,2.256 -0.753,3.385 -0.038,0.177 -0.229,0.411 0.102,0.532 0.253,0.094 0.506,0.194 0.639,0.244 0.35,-0.2 0.298,-0.405 0.337,-0.574 0.151,-0.654 0.353,-1.301 0.437,-1.964 0.078,-0.61 0.326,-0.652 0.836,-0.477 0.661,0.228 1.354,0.362 2.021,0.571 0.354,0.11 0.525,0.031 0.553,-0.34 0.021,-0.286 0.314,-0.6 -0.288,-0.729 -1.1,-0.235 -2.193,-0.539 -3.249,-0.922 z" />
        </g>
        <g
           id="g771">
          <path
             style="fill:#d9d9d6"
             inkscape:connector-curvature="0"
             id="path773"
             d="m 697.082,799.269 c -0.229,-0.176 -0.377,-0.65 -0.807,-0.311 -0.229,0.182 -0.496,0.269 -0.694,0.549 -0.398,0.561 -0.874,1.096 -1.412,1.524 -0.624,0.496 -1.34,0.33 -1.934,-0.115 -0.598,-0.446 -0.1,-0.932 0.151,-1.263 0.323,-0.427 0.832,-0.837 1.365,-0.842 0.776,-0.005 1.315,-0.532 2.013,-0.688 0.518,-0.117 0.185,-0.561 0.121,-0.844 -0.081,-0.369 -0.398,-0.267 -0.577,-0.127 -0.608,0.478 -1.396,0.302 -2.046,0.607 -0.367,0.172 -0.463,0.161 -0.611,-0.345 -0.19,-0.652 -0.45,-1.3 -0.579,-1.973 -0.122,-0.635 -0.598,-0.662 -1.008,-0.577 -0.561,0.115 -0.192,0.54 -0.111,0.806 0.503,1.665 1.082,3.326 -0.311,4.865 -0.034,0.037 -0.099,0.045 -0.148,0.065 -1.352,-1.798 -1.363,-1.864 -0.836,-3.984 0.097,-0.383 0.172,-0.771 0.26,-1.155 0.117,-0.521 -0.334,-0.384 -0.569,-0.489 -0.268,-0.12 -0.468,-0.093 -0.517,0.258 -0.029,0.211 -0.088,0.418 -0.137,0.626 -0.524,2.219 -0.521,2.205 -2.698,1.578 -0.371,-0.106 -0.914,-0.575 -1.152,0.146 -0.251,0.76 0.411,0.78 0.884,0.919 0.146,0.042 0.3,0.065 0.442,0.118 1.187,0.439 2.556,0.58 3.025,2.11 0.146,0.478 0.07,0.634 -0.358,0.653 -1.031,0.046 -2.054,0.109 -2.776,-0.905 -0.312,-0.437 -0.824,-0.725 -1.195,-1.127 -0.334,-0.361 -0.561,-0.335 -0.893,0.006 -0.348,0.357 -0.169,0.576 0.098,0.819 0.448,0.412 0.885,0.838 1.352,1.229 0.435,0.363 0.665,0.637 0.038,1.084 -0.487,0.348 -0.864,0.853 -1.276,1.301 -0.197,0.215 -0.621,0.36 -0.172,0.781 0.364,0.34 0.621,0.414 0.974,0.02 0.386,-0.431 0.791,-0.845 1.21,-1.245 0.64,-0.611 1.376,-0.978 2.3,-0.893 0.645,0.061 0.791,0.279 0.567,0.938 -0.436,1.283 -1.509,1.584 -2.604,1.814 -1.02,0.213 -1.726,0.581 -1.513,1.786 0.923,-0.611 2.021,-0.65 3.044,-0.937 0.193,-0.054 0.281,0.04 0.354,0.178 0.093,0.174 0.007,0.3 -0.154,0.347 -0.955,0.278 -1.91,0.555 -2.872,0.809 -0.204,0.054 -0.301,-0.158 -0.398,-0.307 -0.221,0.205 -0.413,0.456 -0.665,0.603 -0.366,0.211 -0.682,0.406 -0.479,0.892 0.205,0.49 0.593,0.278 0.937,0.222 0.164,-0.026 0.371,-0.186 0.455,0.083 0.078,0.25 -0.187,0.26 -0.317,0.36 -0.527,0.405 -1.186,0.46 -1.784,0.677 -0.308,0.111 -0.652,0.187 -0.468,0.695 0.141,0.385 0.187,0.709 0.718,0.434 0.251,-0.129 0.597,0.116 0.86,-0.14 0.123,-0.12 0.279,-0.286 0.456,-0.085 0.142,0.16 0.049,0.367 -0.02,0.517 -0.189,0.415 -0.409,0.818 -0.64,1.212 -0.184,0.311 -0.224,0.532 0.164,0.733 0.354,0.183 0.562,0.232 0.798,-0.189 0.331,-0.592 0.581,-1.248 1.088,-1.782 0.38,0.473 0.396,1.007 0.522,1.499 0.103,0.398 0.28,0.563 0.713,0.439 0.407,-0.116 0.532,-0.291 0.407,-0.719 -0.272,-0.936 -0.512,-1.882 -0.731,-2.832 -0.143,-0.621 -0.346,-1.056 -1.079,-0.636 -0.112,0.063 -0.235,0.1 -0.32,-0.022 -0.118,-0.173 0.003,-0.274 0.142,-0.355 0.236,-0.138 0.468,-0.284 0.71,-0.412 0.443,-0.237 0.773,-0.287 0.887,0.376 0.112,0.657 0.335,1.295 0.5,1.943 0.098,0.382 0.263,0.573 0.708,0.427 0.398,-0.131 0.542,-0.293 0.395,-0.727 -0.187,-0.547 -0.325,-1.113 -0.431,-1.682 -0.078,-0.416 -0.53,-1.064 -0.063,-1.209 0.54,-0.168 0.436,0.634 0.61,1.002 0.16,0.336 0.25,0.623 0.7,0.432 0.382,-0.162 0.658,-0.309 0.443,-0.845 -0.265,-0.662 -0.417,-1.369 -0.604,-2.06 -0.102,-0.375 -0.259,-0.74 -0.012,-1.143 0.33,-0.537 0.608,-1.105 0.907,-1.66 0.206,0.21 0.411,0.42 0.617,0.629 0.071,0.119 0.145,0.238 0.218,0.356 0.079,0.406 0.356,0.703 0.563,1.042 -0.378,0.943 -0.235,2.032 -0.887,2.922 -0.231,0.316 0.177,0.577 0.53,0.66 0.301,0.07 0.648,0.316 0.755,-0.262 0.145,-0.773 0.33,-1.54 0.504,-2.308 0.052,-0.233 0.077,-0.506 0.448,-0.299 0.703,0.393 1.551,0.224 2.271,0.568 0.313,0.148 0.565,0.15 0.657,-0.304 0.081,-0.4 0.128,-0.679 -0.394,-0.795 -0.95,-0.211 -1.886,-0.482 -2.826,-0.727 -0.425,-0.741 -1.022,-1.388 -1.213,-2.254 1.865,-0.354 3.194,0.523 4.314,1.884 0.057,0.069 0.159,0.104 0.208,0.177 0.27,0.389 0.527,0.291 0.828,0.025 0.35,-0.308 0.263,-0.556 -0.037,-0.829 -0.518,-0.472 -0.997,-0.993 -1.547,-1.424 -0.38,-0.298 -0.33,-0.507 -0.039,-0.791 0.522,-0.512 1.042,-1.026 1.559,-1.545 0.165,-0.163 0.438,-0.342 0.124,-0.582 z" />
        </g>
      </g>
    </g>
  </g>
</svg>
