<?xml version="1.0" encoding="UTF-8" standalone="no"?>
<!-- Created with Inkscape (http://www.inkscape.org/) -->

<svg
   xmlns:dc="http://purl.org/dc/elements/1.1/"
   xmlns:cc="http://creativecommons.org/ns#"
   xmlns:rdf="http://www.w3.org/1999/02/22-rdf-syntax-ns#"
   xmlns:svg="http://www.w3.org/2000/svg"
   xmlns="http://www.w3.org/2000/svg"
   xmlns:sodipodi="http://sodipodi.sourceforge.net/DTD/sodipodi-0.dtd"
   xmlns:inkscape="http://www.inkscape.org/namespaces/inkscape"
   width="40mm"
   height="199mm"
   viewBox="0 0 141.73228 705.11811"
   id="svg12793"
   version="1.1"
   inkscape:version="0.91 r13725"
   sodipodi:docname="section-4-bg-left.svg">
  <defs
     id="defs12795" />
  <sodipodi:namedview
     id="base"
     pagecolor="#ffffff"
     bordercolor="#666666"
     borderopacity="1.0"
     inkscape:pageopacity="0.0"
     inkscape:pageshadow="2"
     inkscape:zoom="0.35"
     inkscape:cx="-101.72469"
     inkscape:cy="649.56355"
     inkscape:document-units="px"
     inkscape:current-layer="layer1"
     showgrid="false"
     fit-margin-top="0"
     fit-margin-left="0"
     fit-margin-right="0"
     fit-margin-bottom="0"
     inkscape:window-width="1366"
     inkscape:window-height="745"
     inkscape:window-x="-8"
     inkscape:window-y="-8"
     inkscape:window-maximized="1" />
  <metadata
     id="metadata12798">
    <rdf:RDF>
      <cc:Work
         rdf:about="">
        <dc:format>image/svg+xml</dc:format>
        <dc:type
           rdf:resource="http://purl.org/dc/dcmitype/StillImage" />
        <dc:title></dc:title>
      </cc:Work>
    </rdf:RDF>
  </metadata>
  <g
     inkscape:label="Layer 1"
     inkscape:groupmode="layer"
     id="layer1"
     transform="translate(57.561022,-1162.522)">
    <g
       transform="translate(-86.180022,-1314.6505)"
       id="g12526">
      <g
         style="opacity:0.6"
         id="g6378">
        <g
           id="g6380">
          <path
             style="fill:#1c4781"
             inkscape:connector-curvature="0"
             id="path6382"
             d="m 163.501,2493.474 c -0.354,-0.104 -0.536,-0.062 -0.618,0.341 -0.191,0.937 -0.419,1.866 -0.636,2.798 -0.077,0.331 -0.162,0.572 0.365,0.661 0.468,0.078 0.556,-0.07 0.62,-0.442 0.078,-0.441 0.191,-0.876 0.341,-1.544 0.396,0.659 0.637,1.144 0.961,1.564 0.166,0.215 0.149,0.785 0.77,0.435 0.593,-0.337 0.276,-0.595 0.1,-0.936 -0.205,-0.397 -0.74,-0.813 -0.559,-1.17 0.196,-0.389 0.76,0.043 1.168,0.05 0.418,0.01 0.538,-0.043 0.63,-0.436 0.097,-0.411 -0.071,-0.504 -0.413,-0.588 -0.915,-0.225 -1.825,-0.47 -2.729,-0.733 z" />
        </g>
        <g
           id="g6384">
          <path
             style="fill:#1c4781"
             inkscape:connector-curvature="0"
             id="path6386"
             d="m 155.301,2481.267 c 0.448,0.14 0.546,-0.041 0.623,-0.429 0.176,-0.881 0.359,-1.762 0.612,-2.621 0.12,-0.407 0.132,-0.596 -0.327,-0.747 -0.529,-0.174 -0.581,0.116 -0.649,0.488 -0.077,0.415 -0.179,0.825 -0.27,1.238 -0.066,0.011 -0.133,0.022 -0.199,0.032 -0.302,-0.503 -0.623,-0.997 -0.901,-1.512 -0.2,-0.37 -0.42,-0.42 -0.776,-0.213 -0.395,0.229 -0.223,0.479 -0.076,0.74 0.105,0.188 0.222,0.369 0.323,0.56 0.156,0.296 0.579,0.628 0.326,0.905 -0.253,0.276 -0.685,-0.067 -1.038,-0.139 -0.024,-0.01 -0.047,-0.024 -0.067,-0.041 -0.292,-0.242 -0.529,-0.257 -0.657,0.163 -0.114,0.374 -0.227,0.699 0.355,0.828 0.917,0.206 1.823,0.467 2.721,0.748 z" />
        </g>
        <g
           id="g6388">
          <path
             style="fill:#1c4781"
             inkscape:connector-curvature="0"
             id="path6390"
             d="m 170.312,2486.676 c -0.602,0.033 -1.206,0.02 -1.959,0.027 0.435,-0.444 0.74,-0.768 1.057,-1.078 0.241,-0.236 0.456,-0.409 0.101,-0.775 -0.343,-0.355 -0.566,-0.183 -0.801,0.044 -0.677,0.649 -1.342,1.312 -2.001,1.979 -0.19,0.192 -0.346,0.366 -0.02,0.645 0.753,0.646 1.47,1.334 2.181,2.026 0.278,0.271 0.46,0.262 0.721,-0.022 0.267,-0.291 0.226,-0.502 -0.05,-0.732 -0.226,-0.189 -0.446,-0.386 -0.663,-0.587 -0.096,-0.089 -0.229,-0.205 -0.143,-0.336 0.062,-0.094 0.268,-0.208 0.322,-0.174 0.454,0.285 0.869,-0.132 1.299,-0.046 0.411,0.082 0.644,-0.171 0.646,-0.489 10e-4,-0.378 -0.308,-0.503 -0.69,-0.482 z" />
        </g>
        <g
           id="g6392">
          <path
             style="fill:#1c4781"
             inkscape:connector-curvature="0"
             id="path6394"
             d="m 148.214,2488.049 c 0.311,0.047 0.598,0.049 0.912,0 0.261,-0.043 0.586,-0.139 0.8,0.07 0.089,0.235 0.09,0.406 -0.084,0.555 -0.184,0.156 -0.339,0.347 -0.526,0.499 -0.299,0.24 -0.304,0.428 -0.011,0.707 0.287,0.276 0.466,0.245 0.724,-0.02 0.675,-0.69 1.368,-1.362 2.059,-2.037 0.193,-0.188 0.328,-0.368 0.069,-0.603 -0.772,-0.7 -1.554,-1.393 -2.313,-2.108 -0.326,-0.307 -0.447,-0.014 -0.646,0.147 -0.255,0.206 -0.214,0.373 -0.019,0.598 0.318,0.366 1.092,0.659 0.875,1.073 -0.185,0.354 -0.99,0.096 -1.519,0.146 -0.08,0.01 -0.162,0.01 -0.242,0 -0.263,-0.025 -0.429,0.068 -0.391,0.354 0.03,0.236 -0.122,0.556 0.312,0.621 z" />
        </g>
        <g
           id="g6396">
          <path
             style="fill:#1c4781"
             inkscape:connector-curvature="0"
             id="path6398"
             d="m 163.488,2481.12 c 0.761,-0.323 1.511,-0.599 2.344,-0.694 0.249,-0.028 0.706,-0.22 0.532,-0.785 -0.164,-0.532 -0.401,-0.442 -0.762,-0.271 -0.213,0.101 -0.453,0.154 -0.686,0.203 -0.148,0.031 -0.406,0.071 -0.438,0.011 -0.078,-0.143 -0.107,-0.325 0.027,-0.514 0.245,-0.349 0.422,-0.743 0.658,-1.099 0.234,-0.354 0.051,-0.511 -0.23,-0.694 -0.322,-0.209 -0.466,-0.086 -0.619,0.204 -0.298,0.568 -0.623,1.121 -1.003,1.8 -0.157,-0.544 -0.252,-0.958 -0.398,-1.354 -0.096,-0.266 0.05,-0.752 -0.588,-0.582 -0.558,0.149 -0.486,0.438 -0.378,0.827 0.233,0.841 0.496,1.677 0.667,2.529 0.12,0.602 0.569,0.549 0.874,0.419 z" />
        </g>
        <g
           id="g6400">
          <path
             style="fill:#1c4781"
             inkscape:connector-curvature="0"
             id="path6402"
             d="m 162.01,2483.183 c 0.897,-0.37 1.83,-0.634 2.782,-0.812 0.696,-0.129 0.545,-0.573 0.399,-1.072 -0.077,-0.189 -0.25,-0.156 -0.445,-0.092 -0.483,0.161 -0.982,0.281 -1.45,0.476 -0.633,0.263 -1.039,0.234 -1.139,-0.577 -0.062,-0.502 -0.242,-0.987 -0.366,-1.48 -0.082,-0.325 -0.224,-0.426 -0.575,-0.279 -0.253,0.104 -0.53,0.064 -0.411,0.486 0.292,1.029 0.551,2.068 0.83,3.103 0.049,0.177 0.087,0.365 0.375,0.247 z" />
        </g>
        <g
           id="g6404">
          <path
             style="fill:#1c4781"
             inkscape:connector-curvature="0"
             id="path6406"
             d="m 156.549,2483.162 c 0.159,0.041 0.374,0.209 0.446,-0.104 0.255,-1.1 0.502,-2.2 0.75,-3.302 0.011,-0.049 -0.008,-0.104 -0.015,-0.171 -0.17,-0.188 -0.423,-0.2 -0.651,-0.248 -0.271,-0.056 -0.289,0.174 -0.33,0.354 -0.144,0.628 -0.301,1.255 -0.419,1.889 -0.068,0.363 -0.228,0.573 -0.574,0.354 -0.565,-0.356 -1.234,-0.262 -1.82,-0.491 -0.361,-0.143 -0.546,-0.058 -0.625,0.325 -0.068,0.33 -0.052,0.534 0.355,0.63 0.967,0.227 1.921,0.51 2.883,0.764 z" />
        </g>
        <g
           id="g6408">
          <path
             style="fill:#1c4781"
             inkscape:connector-curvature="0"
             id="path6410"
             d="m 152.787,2487.092 c 0.393,0.312 0.33,0.517 -0.005,0.814 -0.46,0.41 -0.88,0.865 -1.319,1.301 -0.155,0.152 -0.37,0.309 -0.059,0.497 0.215,0.131 0.334,0.582 0.899,0.074 0.583,-0.576 1.348,-1.329 2.108,-2.086 0.27,-0.267 0.035,-0.411 -0.145,-0.576 -0.708,-0.65 -1.416,-1.302 -2.115,-1.962 -0.259,-0.244 -0.473,-0.362 -0.798,-0.059 -0.404,0.375 -0.044,0.583 0.146,0.784 0.403,0.43 0.827,0.848 1.288,1.213 z" />
        </g>
        <g
           id="g6412">
          <path
             style="fill:#1c4781"
             inkscape:connector-curvature="0"
             id="path6414"
             d="m 166.088,2487.717 c -0.361,-0.329 -0.429,-0.611 0.014,-0.97 0.434,-0.351 0.788,-0.8 1.19,-1.191 0.23,-0.224 0.299,-0.376 0.014,-0.644 -0.272,-0.255 -0.462,-0.316 -0.732,-0.042 -0.714,0.726 -1.422,1.454 -2.157,2.157 -0.261,0.249 -0.16,0.35 0.056,0.541 0.76,0.675 1.511,1.361 2.232,2.076 0.211,0.208 0.449,0.277 0.565,0.075 0.113,-0.196 0.54,-0.408 0.179,-0.753 -0.454,-0.417 -0.907,-0.833 -1.361,-1.249 z" />
        </g>
        <g
           id="g6416">
          <path
             style="fill:#1c4781"
             inkscape:connector-curvature="0"
             id="path6418"
             d="m 162.331,2491.554 c -0.369,-0.135 -0.477,-0.146 -0.559,0.241 -0.209,0.996 -0.448,1.986 -0.663,2.98 -0.033,0.156 -0.201,0.362 0.09,0.469 0.223,0.083 0.445,0.171 0.563,0.215 0.308,-0.176 0.262,-0.355 0.296,-0.505 0.134,-0.576 0.31,-1.146 0.385,-1.729 0.068,-0.537 0.287,-0.574 0.735,-0.42 0.583,0.201 1.192,0.319 1.78,0.504 0.312,0.097 0.463,0.027 0.487,-0.3 0.019,-0.252 0.277,-0.528 -0.253,-0.642 -0.968,-0.208 -1.931,-0.476 -2.861,-0.813 z" />
        </g>
        <g
           id="g6420">
          <path
             style="fill:#1c4781"
             inkscape:connector-curvature="0"
             id="path6422"
             d="m 165.18,2485.068 c -0.202,-0.155 -0.333,-0.573 -0.71,-0.274 -0.202,0.16 -0.437,0.237 -0.612,0.483 -0.351,0.494 -0.77,0.965 -1.243,1.342 -0.549,0.437 -1.18,0.29 -1.703,-0.102 -0.526,-0.393 -0.088,-0.82 0.133,-1.112 0.285,-0.376 0.733,-0.737 1.202,-0.741 0.684,0 1.159,-0.468 1.773,-0.605 0.456,-0.103 0.163,-0.494 0.107,-0.743 -0.072,-0.325 -0.352,-0.235 -0.509,-0.112 -0.536,0.421 -1.229,0.267 -1.801,0.535 -0.323,0.15 -0.407,0.142 -0.538,-0.305 -0.168,-0.573 -0.397,-1.144 -0.51,-1.736 -0.107,-0.559 -0.526,-0.582 -0.887,-0.508 -0.494,0.102 -0.169,0.475 -0.098,0.709 0.443,1.466 0.953,2.929 -0.273,4.284 -0.03,0.032 -0.087,0.039 -0.131,0.058 -1.19,-1.584 -1.2,-1.642 -0.735,-3.508 0.084,-0.337 0.151,-0.678 0.228,-1.017 0.104,-0.46 -0.293,-0.338 -0.5,-0.431 -0.236,-0.105 -0.413,-0.082 -0.455,0.228 -0.026,0.186 -0.078,0.368 -0.121,0.552 -0.461,1.953 -0.458,1.941 -2.375,1.389 -0.327,-0.094 -0.805,-0.506 -1.015,0.13 -0.222,0.669 0.362,0.687 0.778,0.809 0.129,0.038 0.264,0.058 0.39,0.104 1.045,0.388 2.25,0.511 2.664,1.858 0.128,0.42 0.062,0.558 -0.315,0.574 -0.908,0.041 -1.808,0.097 -2.444,-0.797 -0.274,-0.384 -0.726,-0.638 -1.052,-0.991 -0.294,-0.318 -0.494,-0.295 -0.786,0.01 -0.306,0.314 -0.148,0.507 0.086,0.722 0.395,0.362 0.779,0.737 1.19,1.081 0.383,0.32 0.585,0.561 0.033,0.955 -0.428,0.307 -0.76,0.751 -1.123,1.146 -0.174,0.189 -0.547,0.317 -0.151,0.688 0.32,0.299 0.547,0.363 0.857,0.018 0.339,-0.38 0.697,-0.744 1.065,-1.096 0.563,-0.539 1.211,-0.861 2.025,-0.787 0.567,0.054 0.697,0.246 0.5,0.826 -0.384,1.13 -1.329,1.395 -2.292,1.597 -0.898,0.188 -1.52,0.512 -1.332,1.572 0.813,-0.538 1.78,-0.572 2.68,-0.825 0.17,-0.047 0.248,0.035 0.312,0.157 0.082,0.153 0.006,0.265 -0.136,0.306 -0.84,0.245 -1.682,0.489 -2.529,0.713 -0.179,0.047 -0.264,-0.14 -0.351,-0.271 -0.193,0.181 -0.363,0.402 -0.585,0.531 -0.322,0.186 -0.6,0.357 -0.421,0.784 0.181,0.433 0.522,0.245 0.825,0.196 0.144,-0.023 0.327,-0.164 0.4,0.072 0.069,0.22 -0.165,0.229 -0.279,0.316 -0.464,0.357 -1.044,0.406 -1.571,0.598 -0.271,0.098 -0.574,0.164 -0.412,0.611 0.123,0.34 0.165,0.625 0.632,0.382 0.221,-0.113 0.525,0.103 0.757,-0.123 0.109,-0.105 0.247,-0.252 0.402,-0.075 0.125,0.141 0.043,0.323 -0.017,0.454 -0.167,0.366 -0.36,0.721 -0.563,1.067 -0.161,0.274 -0.197,0.469 0.146,0.646 0.311,0.161 0.494,0.204 0.702,-0.167 0.292,-0.521 0.511,-1.099 0.958,-1.569 0.334,0.417 0.349,0.888 0.46,1.32 0.09,0.351 0.247,0.495 0.628,0.387 0.358,-0.102 0.468,-0.256 0.358,-0.633 -0.24,-0.824 -0.45,-1.657 -0.643,-2.493 -0.126,-0.547 -0.305,-0.931 -0.951,-0.56 -0.099,0.056 -0.207,0.088 -0.281,-0.02 -0.104,-0.152 0.002,-0.242 0.125,-0.313 0.208,-0.122 0.412,-0.25 0.625,-0.362 0.391,-0.209 0.681,-0.253 0.781,0.331 0.099,0.578 0.295,1.14 0.44,1.711 0.086,0.337 0.232,0.504 0.624,0.376 0.351,-0.115 0.477,-0.258 0.348,-0.641 -0.164,-0.481 -0.287,-0.98 -0.379,-1.48 -0.068,-0.366 -0.467,-0.938 -0.056,-1.064 0.476,-0.148 0.384,0.559 0.538,0.883 0.141,0.295 0.22,0.548 0.616,0.38 0.336,-0.143 0.58,-0.272 0.391,-0.745 -0.233,-0.582 -0.367,-1.205 -0.532,-1.813 -0.09,-0.331 -0.228,-0.652 -0.011,-1.007 0.291,-0.473 0.535,-0.973 0.799,-1.462 0.181,0.186 0.362,0.37 0.543,0.555 0.063,0.104 0.127,0.209 0.192,0.313 0.07,0.356 0.314,0.619 0.497,0.917 -0.333,0.83 -0.208,1.789 -0.781,2.572 -0.204,0.279 0.155,0.509 0.467,0.582 0.265,0.063 0.571,0.277 0.665,-0.23 0.126,-0.682 0.29,-1.355 0.443,-2.032 0.046,-0.205 0.069,-0.445 0.396,-0.263 0.619,0.345 1.365,0.197 2,0.499 0.275,0.131 0.498,0.132 0.579,-0.268 0.071,-0.352 0.113,-0.597 -0.347,-0.699 -0.836,-0.186 -1.66,-0.425 -2.488,-0.641 -0.374,-0.651 -0.9,-1.222 -1.068,-1.984 1.643,-0.312 2.813,0.46 3.799,1.658 0.05,0.062 0.14,0.093 0.184,0.156 0.237,0.343 0.464,0.256 0.729,0.022 0.308,-0.271 0.231,-0.49 -0.033,-0.73 -0.456,-0.416 -0.878,-0.874 -1.362,-1.253 -0.334,-0.263 -0.291,-0.446 -0.035,-0.696 0.46,-0.451 0.918,-0.904 1.373,-1.361 0.133,-0.145 0.372,-0.304 0.097,-0.515 z" />
        </g>
      </g>
      <g
         style="opacity:0.6"
         id="g6424">
        <g
           id="g6426">
          <path
             style="fill:#1c4781"
             inkscape:connector-curvature="0"
             id="path6428"
             d="m 120.788,2621.874 c -0.49,-0.144 -0.741,-0.085 -0.854,0.472 -0.263,1.296 -0.58,2.581 -0.879,3.869 -0.107,0.459 -0.224,0.793 0.504,0.915 0.647,0.108 0.769,-0.097 0.858,-0.612 0.108,-0.609 0.265,-1.211 0.471,-2.135 0.547,0.911 0.881,1.581 1.329,2.163 0.23,0.298 0.206,1.087 1.065,0.602 0.821,-0.466 0.382,-0.822 0.139,-1.294 -0.283,-0.549 -1.023,-1.125 -0.773,-1.618 0.271,-0.538 1.051,0.06 1.616,0.069 0.578,0.011 0.743,-0.061 0.871,-0.603 0.133,-0.569 -0.099,-0.698 -0.572,-0.814 -1.266,-0.31 -2.524,-0.65 -3.775,-1.014 z" />
        </g>
        <g
           id="g6430">
          <path
             style="fill:#1c4781"
             inkscape:connector-curvature="0"
             id="path6432"
             d="m 109.446,2604.99 c 0.621,0.193 0.755,-0.058 0.861,-0.594 0.243,-1.217 0.497,-2.437 0.847,-3.626 0.166,-0.563 0.182,-0.823 -0.453,-1.032 -0.731,-0.241 -0.802,0.161 -0.898,0.675 -0.106,0.574 -0.247,1.142 -0.373,1.713 -0.092,0.015 -0.184,0.03 -0.275,0.045 -0.418,-0.696 -0.862,-1.379 -1.247,-2.091 -0.276,-0.512 -0.581,-0.581 -1.074,-0.296 -0.545,0.317 -0.308,0.663 -0.106,1.025 0.146,0.26 0.308,0.511 0.448,0.773 0.216,0.409 0.801,0.869 0.451,1.252 -0.35,0.383 -0.947,-0.093 -1.436,-0.19 -0.034,-0.01 -0.065,-0.034 -0.093,-0.057 -0.405,-0.336 -0.732,-0.356 -0.91,0.225 -0.157,0.517 -0.313,0.967 0.491,1.146 1.272,0.281 2.526,0.645 3.767,1.032 z" />
        </g>
        <g
           id="g6434">
          <path
             style="fill:#1c4781"
             inkscape:connector-curvature="0"
             id="path6436"
             d="m 130.208,2612.473 c -0.832,0.045 -1.667,0.026 -2.709,0.037 0.602,-0.615 1.023,-1.063 1.461,-1.491 0.334,-0.327 0.63,-0.566 0.139,-1.073 -0.474,-0.492 -0.783,-0.252 -1.108,0.061 -0.937,0.899 -1.856,1.815 -2.768,2.738 -0.264,0.267 -0.478,0.507 -0.028,0.893 1.042,0.893 2.034,1.844 3.016,2.803 0.385,0.375 0.637,0.361 0.997,-0.031 0.37,-0.404 0.313,-0.695 -0.069,-1.014 -0.312,-0.263 -0.617,-0.533 -0.916,-0.813 -0.132,-0.123 -0.316,-0.283 -0.197,-0.464 0.085,-0.13 0.37,-0.287 0.445,-0.24 0.627,0.395 1.202,-0.183 1.797,-0.063 0.569,0.113 0.89,-0.236 0.893,-0.678 0.003,-0.522 -0.424,-0.695 -0.953,-0.665 z" />
        </g>
        <g
           id="g6438">
          <path
             style="fill:#1c4781"
             inkscape:connector-curvature="0"
             id="path6440"
             d="m 99.643,2614.37 c 0.43,0.065 0.827,0.068 1.261,0 0.361,-0.06 0.811,-0.192 1.106,0.097 0.123,0.325 0.124,0.563 -0.117,0.768 -0.254,0.216 -0.469,0.479 -0.728,0.689 -0.415,0.333 -0.421,0.593 -0.016,0.979 0.397,0.382 0.645,0.339 1.002,-0.028 0.933,-0.954 1.892,-1.883 2.848,-2.816 0.267,-0.26 0.453,-0.51 0.095,-0.834 -1.069,-0.969 -2.149,-1.926 -3.199,-2.915 -0.451,-0.425 -0.618,-0.021 -0.893,0.204 -0.353,0.285 -0.296,0.515 -0.026,0.826 0.439,0.507 1.51,0.911 1.21,1.484 -0.255,0.489 -1.37,0.133 -2.101,0.202 -0.11,0.011 -0.224,0.013 -0.334,0 -0.364,-0.036 -0.593,0.095 -0.541,0.49 0.043,0.324 -0.166,0.766 0.433,0.855 z" />
        </g>
        <g
           id="g6442">
          <path
             style="fill:#1c4781"
             inkscape:connector-curvature="0"
             id="path6444"
             d="m 120.771,2604.787 c 1.052,-0.447 2.089,-0.828 3.242,-0.96 0.344,-0.039 0.976,-0.304 0.736,-1.086 -0.227,-0.737 -0.555,-0.612 -1.054,-0.376 -0.295,0.14 -0.627,0.213 -0.949,0.281 -0.205,0.043 -0.562,0.098 -0.607,0.015 -0.107,-0.197 -0.147,-0.449 0.037,-0.711 0.34,-0.481 0.584,-1.027 0.911,-1.52 0.324,-0.49 0.072,-0.706 -0.319,-0.96 -0.445,-0.289 -0.645,-0.119 -0.856,0.281 -0.412,0.787 -0.862,1.553 -1.388,2.491 -0.217,-0.753 -0.349,-1.326 -0.55,-1.874 -0.134,-0.368 0.068,-1.04 -0.814,-0.805 -0.771,0.206 -0.673,0.605 -0.523,1.144 0.322,1.163 0.685,2.319 0.923,3.499 0.168,0.834 0.788,0.761 1.211,0.581 z" />
        </g>
        <g
           id="g6446">
          <path
             style="fill:#1c4781"
             inkscape:connector-curvature="0"
             id="path6448"
             d="m 118.725,2607.64 c 1.241,-0.511 2.531,-0.877 3.849,-1.122 0.963,-0.179 0.753,-0.793 0.552,-1.483 -0.106,-0.262 -0.345,-0.216 -0.615,-0.126 -0.668,0.222 -1.358,0.388 -2.006,0.657 -0.876,0.362 -1.437,0.324 -1.575,-0.799 -0.085,-0.693 -0.334,-1.365 -0.506,-2.048 -0.113,-0.449 -0.31,-0.588 -0.795,-0.387 -0.35,0.146 -0.733,0.09 -0.568,0.674 0.404,1.424 0.763,2.861 1.148,4.291 0.066,0.247 0.119,0.507 0.516,0.343 z" />
        </g>
        <g
           id="g6450">
          <path
             style="fill:#1c4781"
             inkscape:connector-curvature="0"
             id="path6452"
             d="m 111.172,2607.611 c 0.22,0.058 0.517,0.289 0.617,-0.143 0.353,-1.521 0.695,-3.043 1.037,-4.567 0.015,-0.067 -0.011,-0.145 -0.021,-0.237 -0.235,-0.259 -0.584,-0.275 -0.901,-0.342 -0.375,-0.077 -0.4,0.241 -0.456,0.49 -0.199,0.869 -0.417,1.736 -0.581,2.612 -0.094,0.502 -0.315,0.793 -0.793,0.491 -0.782,-0.494 -1.708,-0.362 -2.517,-0.681 -0.5,-0.197 -0.755,-0.08 -0.866,0.45 -0.095,0.456 -0.072,0.738 0.492,0.871 1.339,0.313 2.659,0.705 3.989,1.056 z" />
        </g>
        <g
           id="g6454">
          <path
             style="fill:#1c4781"
             inkscape:connector-curvature="0"
             id="path6456"
             d="m 105.968,2613.047 c 0.544,0.431 0.456,0.715 -0.006,1.126 -0.637,0.567 -1.217,1.197 -1.825,1.8 -0.214,0.211 -0.511,0.428 -0.082,0.688 0.297,0.181 0.462,0.806 1.244,0.103 0.807,-0.797 1.864,-1.839 2.917,-2.885 0.373,-0.37 0.048,-0.569 -0.2,-0.798 -0.98,-0.899 -1.958,-1.8 -2.925,-2.713 -0.359,-0.338 -0.654,-0.501 -1.105,-0.082 -0.559,0.52 -0.061,0.808 0.202,1.086 0.557,0.591 1.144,1.169 1.78,1.675 z" />
        </g>
        <g
           id="g6458">
          <path
             style="fill:#1c4781"
             inkscape:connector-curvature="0"
             id="path6460"
             d="m 124.366,2613.912 c -0.5,-0.456 -0.594,-0.847 0.019,-1.342 0.6,-0.486 1.09,-1.106 1.647,-1.647 0.318,-0.31 0.414,-0.521 0.019,-0.891 -0.376,-0.353 -0.639,-0.438 -1.013,-0.058 -0.987,1.002 -1.967,2.012 -2.983,2.983 -0.361,0.345 -0.221,0.482 0.077,0.748 1.051,0.934 2.089,1.884 3.087,2.872 0.292,0.288 0.621,0.383 0.782,0.104 0.157,-0.271 0.748,-0.564 0.249,-1.042 -0.629,-0.576 -1.255,-1.153 -1.884,-1.727 z" />
        </g>
        <g
           id="g6462">
          <path
             style="fill:#1c4781"
             inkscape:connector-curvature="0"
             id="path6464"
             d="m 119.169,2619.219 c -0.511,-0.187 -0.66,-0.201 -0.773,0.334 -0.29,1.377 -0.619,2.747 -0.917,4.123 -0.046,0.216 -0.278,0.5 0.124,0.647 0.309,0.114 0.616,0.236 0.778,0.298 0.426,-0.244 0.362,-0.493 0.41,-0.699 0.185,-0.797 0.429,-1.585 0.532,-2.392 0.094,-0.743 0.396,-0.794 1.018,-0.581 0.805,0.277 1.648,0.441 2.462,0.696 0.431,0.134 0.64,0.038 0.673,-0.415 0.026,-0.348 0.383,-0.729 -0.351,-0.888 -1.338,-0.285 -2.669,-0.657 -3.956,-1.123 z" />
        </g>
        <g
           id="g6466">
          <path
             style="fill:#1c4781"
             inkscape:connector-curvature="0"
             id="path6468"
             d="m 123.11,2610.248 c -0.279,-0.215 -0.459,-0.792 -0.982,-0.379 -0.279,0.221 -0.604,0.328 -0.846,0.668 -0.485,0.684 -1.065,1.335 -1.72,1.855 -0.759,0.604 -1.632,0.402 -2.355,-0.139 -0.727,-0.545 -0.121,-1.136 0.185,-1.539 0.394,-0.52 1.014,-1.021 1.662,-1.025 0.946,-0.01 1.603,-0.647 2.452,-0.838 0.63,-0.143 0.225,-0.683 0.148,-1.028 -0.1,-0.449 -0.486,-0.325 -0.704,-0.154 -0.741,0.582 -1.699,0.368 -2.492,0.739 -0.447,0.209 -0.563,0.196 -0.744,-0.42 -0.233,-0.794 -0.549,-1.583 -0.706,-2.402 -0.148,-0.773 -0.728,-0.806 -1.227,-0.703 -0.683,0.141 -0.233,0.657 -0.136,0.981 0.612,2.027 1.318,4.051 -0.378,5.925 -0.042,0.045 -0.121,0.055 -0.181,0.08 -1.646,-2.19 -1.661,-2.271 -1.018,-4.852 0.117,-0.467 0.209,-0.938 0.315,-1.406 0.144,-0.636 -0.406,-0.468 -0.692,-0.596 -0.327,-0.146 -0.57,-0.113 -0.629,0.314 -0.036,0.257 -0.107,0.509 -0.167,0.763 -0.638,2.703 -0.634,2.686 -3.285,1.923 -0.452,-0.131 -1.114,-0.701 -1.403,0.178 -0.307,0.926 0.5,0.95 1.076,1.119 0.179,0.052 0.366,0.079 0.539,0.144 1.446,0.535 3.112,0.706 3.685,2.569 0.177,0.582 0.085,0.771 -0.436,0.795 -1.256,0.057 -2.501,0.133 -3.381,-1.102 -0.38,-0.531 -1.004,-0.883 -1.456,-1.372 -0.407,-0.44 -0.683,-0.408 -1.087,0.01 -0.424,0.436 -0.206,0.701 0.119,0.998 0.546,0.501 1.078,1.021 1.646,1.496 0.53,0.442 0.81,0.775 0.046,1.32 -0.593,0.424 -1.052,1.039 -1.554,1.585 -0.241,0.263 -0.757,0.438 -0.209,0.951 0.443,0.415 0.756,0.504 1.185,0.024 0.47,-0.524 0.964,-1.029 1.473,-1.516 0.779,-0.744 1.676,-1.191 2.801,-1.087 0.784,0.073 0.964,0.339 0.691,1.142 -0.531,1.563 -1.838,1.93 -3.171,2.209 -1.242,0.26 -2.102,0.707 -1.842,2.175 1.124,-0.745 2.461,-0.792 3.707,-1.142 0.235,-0.065 0.343,0.049 0.432,0.218 0.113,0.212 0.008,0.365 -0.188,0.423 -1.163,0.339 -2.327,0.676 -3.498,0.984 -0.248,0.066 -0.366,-0.192 -0.485,-0.374 -0.268,0.249 -0.502,0.556 -0.81,0.733 -0.446,0.258 -0.83,0.495 -0.583,1.086 0.25,0.598 0.723,0.339 1.141,0.271 0.2,-0.032 0.452,-0.226 0.554,0.101 0.096,0.304 -0.228,0.316 -0.386,0.438 -0.642,0.493 -1.444,0.562 -2.173,0.825 -0.375,0.135 -0.794,0.228 -0.57,0.846 0.171,0.47 0.228,0.864 0.875,0.529 0.305,-0.158 0.726,0.141 1.047,-0.171 0.15,-0.146 0.341,-0.349 0.556,-0.104 0.172,0.195 0.06,0.447 -0.024,0.629 -0.23,0.506 -0.498,0.997 -0.779,1.477 -0.223,0.379 -0.272,0.648 0.201,0.894 0.431,0.224 0.684,0.282 0.972,-0.231 0.403,-0.721 0.707,-1.519 1.324,-2.169 0.463,0.576 0.482,1.227 0.636,1.825 0.125,0.484 0.341,0.685 0.869,0.534 0.495,-0.141 0.647,-0.353 0.495,-0.875 -0.332,-1.14 -0.623,-2.292 -0.89,-3.448 -0.174,-0.757 -0.422,-1.286 -1.315,-0.774 -0.136,0.078 -0.286,0.122 -0.389,-0.027 -0.145,-0.21 0.003,-0.333 0.172,-0.433 0.288,-0.168 0.57,-0.346 0.864,-0.502 0.541,-0.289 0.942,-0.35 1.08,0.458 0.137,0.8 0.408,1.577 0.609,2.367 0.12,0.466 0.321,0.697 0.862,0.52 0.485,-0.159 0.66,-0.356 0.481,-0.886 -0.227,-0.665 -0.396,-1.355 -0.525,-2.047 -0.095,-0.507 -0.646,-1.297 -0.077,-1.474 0.658,-0.204 0.531,0.772 0.744,1.222 0.195,0.408 0.304,0.758 0.852,0.525 0.465,-0.197 0.802,-0.377 0.541,-1.029 -0.323,-0.806 -0.508,-1.668 -0.736,-2.509 -0.124,-0.458 -0.314,-0.902 -0.014,-1.392 0.401,-0.654 0.74,-1.346 1.105,-2.021 0.25,0.256 0.5,0.511 0.751,0.766 0.087,0.145 0.176,0.29 0.265,0.434 0.097,0.494 0.435,0.856 0.687,1.269 -0.46,1.149 -0.287,2.475 -1.08,3.559 -0.282,0.386 0.215,0.703 0.646,0.804 0.366,0.087 0.79,0.385 0.919,-0.317 0.175,-0.942 0.402,-1.876 0.613,-2.811 0.063,-0.285 0.095,-0.616 0.546,-0.364 0.856,0.478 1.888,0.272 2.766,0.69 0.381,0.182 0.689,0.183 0.8,-0.37 0.099,-0.486 0.156,-0.826 -0.479,-0.967 -1.156,-0.258 -2.296,-0.587 -3.442,-0.887 -0.517,-0.901 -1.245,-1.689 -1.477,-2.744 2.272,-0.432 3.891,0.637 5.254,2.294 0.069,0.084 0.193,0.127 0.253,0.215 0.328,0.474 0.642,0.354 1.008,0.031 0.426,-0.376 0.32,-0.677 -0.045,-1.01 -0.631,-0.575 -1.214,-1.209 -1.884,-1.733 -0.462,-0.363 -0.401,-0.618 -0.048,-0.963 0.637,-0.624 1.27,-1.251 1.898,-1.883 0.2,-0.201 0.531,-0.42 0.15,-0.712 z" />
        </g>
      </g>
      <g
         style="opacity:0.8"
         id="g6516">
        <g
           id="g6518">
          <path
             style="fill:#1c4781"
             inkscape:connector-curvature="0"
             id="path6520"
             d="m 80.051,2967.471 c 0,0 -10.852,-9.981 -21.063,-1.764 -8.575,6.899 -9.603,7.995 -9.603,7.995 l -1.059,-6.017 -15.901,12.609 c 0,0 -1.271,8.682 12.953,31.459 -3.331,3.36 -3.331,3.36 -3.331,3.36 l 6.071,7.657 -0.29,-0.971 21.498,-17.047 -5.487,-6.92 -1.326,1.051 c 0,0 -9.208,-22.196 9.086,-24.232 9.336,-7.881 8.452,-7.18 8.452,-7.18 z m -24.706,35.719 c -13.712,-18.086 -12.843,-28.218 -12.843,-28.218 0.105,-0.083 0.647,-0.513 2.982,-2.364 -0.451,2.607 9.861,30.582 9.861,30.582 z m 18.821,-33.54 c -5.02,-4.743 -10.201,-2.884 -10.201,-2.884 6.218,-2.593 12.354,1.177 12.354,1.177 0,0 -0.43,0.251 -2.153,1.707 z" />
        </g>
        <g
           id="g6522">
          <rect
             style="fill:#1c4781"
             id="rect6524"
             height="3.665"
             width="10.08"
             transform="matrix(-0.7836,0.6213,-0.6213,-0.7836,1986.2628,5254.0508)"
             y="2971.145"
             x="72.981003" />
        </g>
        <g
           id="g6526">
          <path
             style="fill:#1c4781"
             inkscape:connector-curvature="0"
             id="path6528"
             d="m 73.931,3005.286 -1.705,1.352 -0.937,-1.182 0.523,-0.415 -0.991,-1.249 1.182,-0.937 1.928,2.431 z m -5.249,4.162 -2.954,2.342 -0.937,-1.181 2.954,-2.343 0.937,1.182 z m -5.907,4.685 -3.544,2.811 -0.937,-1.182 3.544,-2.811 0.937,1.182 z m -6.498,5.152 -2.954,2.342 -0.937,-1.182 2.954,-2.342 0.937,1.182 z m -6.358,3.94 -1.181,0.937 -0.183,-0.229 -1.978,1.03 -0.697,-1.337 3.083,-1.606 0.956,1.205 z m -5.468,-2.23 -1.181,0.937 -2.811,-3.544 1.182,-0.937 2.81,3.544 z m 25.211,-21.093 -1.182,0.937 -2.811,-3.545 1.182,-0.937 2.811,3.545 z m -30.449,15.557 -0.501,-0.497 -0.595,0.472 -0.445,-0.562 3.091,-3.118 1.071,1.062 -2.621,2.643 z m 25.088,-20.25 -0.938,0.743 -0.298,-1.107 c -0.341,-1.272 -0.607,-2.524 -0.789,-3.724 l 1.491,-0.226 c 0.174,1.143 0.428,2.34 0.754,3.558 l -0.675,0.182 0.455,0.574 z m 23.413,-23.396 -2.784,2.208 -0.937,-1.182 1.602,-1.271 -0.604,-0.761 1.182,-0.938 1.541,1.944 z m -5.737,4.55 -2.953,2.342 -0.937,-1.182 2.954,-2.342 0.936,1.182 z m -6.498,5.153 -0.8,0.635 -2.645,-3.336 1.182,-0.937 2.176,2.745 -0.381,0.302 0.468,0.591 z m -34.314,26.692 -1.302,0.761 c -0.647,-1.107 -1.277,-2.215 -1.871,-3.293 l 1.32,-0.728 c 0.588,1.067 1.212,2.163 1.853,3.26 z m 22.344,-21.672 -1.506,-0.079 c 0.076,-1.449 0.326,-2.765 0.744,-3.909 l 1.417,0.517 c -0.367,1.004 -0.587,2.171 -0.655,3.471 z m 6.146,-8.196 c -1.515,0.408 -2.746,1.045 -3.658,1.889 l -1.025,-1.105 c 1.088,-1.009 2.537,-1.766 4.291,-2.239 l 0.392,1.455 z m 14.177,-11.422 -1.182,0.937 -1.531,-1.931 -0.069,0.055 -0.468,-0.374 c -0.073,-0.059 -0.152,-0.12 -0.235,-0.186 l 0.507,-0.653 -0.271,-0.342 0.78,-0.618 2.469,3.112 z m -46.284,34.724 -1.34,0.69 c -0.716,-1.391 -1.39,-2.766 -2.003,-4.088 l 1.368,-0.635 c 0.604,1.303 1.269,2.661 1.975,4.033 z m 39.108,-38.593 c -0.877,-0.461 -1.77,-0.859 -2.654,-1.188 -0.232,-0.086 -0.463,-0.167 -0.695,-0.244 l 0.473,-1.432 c 0.248,0.082 0.497,0.17 0.746,0.262 0.944,0.351 1.897,0.776 2.831,1.267 l -0.701,1.335 z m -42.586,31.139 -1.394,0.576 c -0.503,-1.218 -0.961,-2.414 -1.362,-3.557 l 1.422,-0.5 c 0.393,1.117 0.842,2.289 1.334,3.481 z m 35.713,-33.376 c -1.459,-0.181 -2.905,-0.163 -4.299,0.052 l -0.23,-1.49 c 1.531,-0.236 3.118,-0.256 4.715,-0.058 l -0.186,1.496 z m -38.34,25.636 -1.462,0.368 c -0.342,-1.363 -0.587,-2.639 -0.727,-3.791 l 1.497,-0.182 c 0.132,1.091 0.365,2.304 0.692,3.605 z m 30.595,-24.617 c -1.081,0.448 -2.14,1.032 -3.15,1.738 l -0.864,-1.235 c 1.099,-0.769 2.255,-1.406 3.437,-1.896 l 0.577,1.393 z m -9.566,6.895 -0.96,-1.163 c 0.817,-0.675 1.783,-1.465 2.922,-2.391 l 0.951,1.171 c -1.136,0.922 -2.098,1.71 -2.913,2.383 z m -1.082,-2.544 -1.485,0.262 -0.35,-1.991 -0.465,0.369 -0.111,-1.411 c -0.021,-0.262 -0.04,-0.529 -0.059,-0.8 l 0.579,-0.038 1.102,-0.874 0.789,4.483 z m -20.938,13.007 -1.504,0.106 -0.083,-1.176 c -0.081,-1.131 -0.142,-2.263 -0.183,-3.365 l 1.507,-0.056 c 0.04,1.086 0.101,2.2 0.18,3.314 l 0.083,1.177 z m 19.826,-20.406 -1.508,0.016 c -0.015,-1.405 0.02,-2.694 0.104,-3.832 l 1.503,0.109 c -0.08,1.097 -0.114,2.344 -0.099,3.707 z m -20.151,12.179 -1.508,-0.01 c 0.006,-1.289 0.041,-2.568 0.104,-3.803 l 1.506,0.077 c -0.062,1.211 -0.096,2.467 -0.102,3.733 z m 34.631,-30.23 -1.063,0.844 -0.487,-0.614 -0.093,0.067 -1.404,-1.955 c -0.034,-0.047 -0.07,-0.096 -0.108,-0.143 -0.087,-0.11 -0.183,-0.22 -0.285,-0.324 l 1.079,-1.053 c 0.138,0.141 0.269,0.289 0.388,0.439 0.053,0.066 0.103,0.134 0.151,0.2 l 1.822,2.539 z m -4.018,3.187 -3.544,2.81 -0.937,-1.181 3.544,-2.811 0.937,1.182 z m -6.497,5.152 -2.954,2.342 -0.937,-1.181 2.954,-2.343 0.937,1.182 z m -23.642,13.701 -1.497,-0.177 c 0.158,-1.342 0.354,-2.614 0.581,-3.781 l 1.48,0.288 c -0.22,1.13 -0.41,2.366 -0.564,3.67 z m 27.198,-25.62 c -1.038,0.015 -2.094,0.363 -3.137,1.033 l -0.815,-1.268 c 1.284,-0.826 2.606,-1.254 3.931,-1.273 l 0.021,1.508 z m -3.292,1.137 c -0.6,0.404 -1.802,1.309 -3.573,2.688 l -0.927,-1.19 c 1.823,-1.419 3.02,-2.318 3.656,-2.748 l 0.844,1.25 z m -22.415,17.772 -0.951,-1.17 0.203,-0.166 c 0.033,-0.026 1.346,-1.093 3.322,-2.688 l 0.947,1.173 c -1.973,1.594 -3.285,2.659 -3.318,2.686 l -0.203,0.165 z m 6.458,-5.221 -0.946,-1.175 c 0.935,-0.753 1.927,-1.551 2.942,-2.365 l 0.944,1.177 c -1.014,0.813 -2.005,1.61 -2.94,2.363 z m 6.473,-5.192 -0.94,-1.179 c 0.781,-0.624 1.552,-1.237 2.297,-1.827 l 0.659,-0.522 0.936,1.183 -0.657,0.521 c -0.744,0.589 -1.514,1.201 -2.295,1.824 z" />
        </g>
        <g
           id="g6530">
          <path
             style="fill:#1c4781"
             inkscape:connector-curvature="0"
             id="path6532"
             d="m 55.497,2939.756 c -3.046,2.057 -22.086,17.514 -22.086,17.514 0,0 -2.232,7.166 -1.277,20.619 l 15.294,-12.129 c 0,0 -1.391,-11.848 0.807,-16.108 6.405,-5.079 12.037,-9.545 12.037,-9.545 0,0 -1.729,-2.407 -4.775,-0.351 z m -11.587,25.196 -3.534,2.802 c -0.629,-9.752 4.215,-15.213 4.215,-15.213 l -0.681,12.411 z" />
        </g>
      </g>
      <g
         style="opacity:0.6"
         id="g6534">
        <g
           id="g6536">
          <g
             id="g6538">
            <path
               style="fill:#1c4781"
               inkscape:connector-curvature="0"
               id="path6540"
               d="m 117.177,2751.723 -70.551,31.751 c -0.713,0.321 -1.031,1.157 -0.711,1.867 l 0.885,1.966 c 0.32,0.711 1.157,1.027 1.869,0.706 l 70.551,-31.751 c 0.712,-0.32 1.031,-1.156 0.711,-1.867 l -0.885,-1.966 c -0.319,-0.71 -1.157,-1.027 -1.869,-0.706 z" />
          </g>
          <g
             id="g6542">
            <path
               style="fill:#1c4781"
               inkscape:connector-curvature="0"
               id="path6544"
               d="m 118.186,2758.066 -67.482,30.369 c -0.781,0.352 -1.209,1.093 -0.957,1.654 l 2.557,5.682 c 0.042,0.093 0.104,0.171 0.175,0.241 0.106,0.328 0.231,0.661 0.385,1.003 2.404,5.342 8.815,8.246 17.136,8.588 l -0.734,0.32 c -0.785,0.345 -1.358,1.413 -1.279,2.386 l 0.092,1.136 -1.493,0.672 c -0.776,0.35 -1.123,1.261 -0.773,2.037 l 0.742,1.648 c 0.349,0.775 1.261,1.121 2.037,0.771 l 2.062,-0.928 c 0.585,-0.264 0.924,-0.849 0.905,-1.453 0.669,-0.431 1.132,-1.383 1.061,-2.263 l -0.285,-3.522 c -0.026,-0.309 -0.117,-0.564 -0.25,-0.768 7.284,-0.067 15.812,-1.976 24.324,-5.807 8.081,-3.637 14.868,-8.434 19.711,-13.537 0.065,0.103 0.141,0.203 0.234,0.3 l 2.447,2.55 c 0.611,0.637 1.631,0.922 2.397,0.707 0.44,0.415 1.103,0.549 1.689,0.285 l 2.062,-0.928 c 0.776,-0.349 1.121,-1.26 0.772,-2.035 l -0.742,-1.649 c -0.349,-0.775 -1.26,-1.121 -2.036,-0.772 l -1.493,0.673 -0.79,-0.822 c -0.622,-0.647 -1.667,-0.93 -2.437,-0.691 5.273,-6.46 7.36,-13.192 4.953,-18.54 -0.154,-0.343 -0.321,-0.659 -0.496,-0.958 -0.007,-0.098 -0.023,-0.195 -0.064,-0.286 l -2.557,-5.682 c -0.253,-0.561 -1.092,-0.732 -1.873,-0.381 z m -24.066,38.055 c -12.322,5.546 -24.843,6.467 -33.274,3.248 8.101,1.606 18.635,0.213 29.021,-4.461 12.784,-5.754 21.99,-14.969 24.834,-23.703 l 5.047,-2.271 c -1.226,9.678 -11.126,20.662 -25.628,27.187 z" />
          </g>
        </g>
        <g
           id="g6546">
          <path
             style="fill:#1c4781"
             inkscape:connector-curvature="0"
             id="path6548"
             d="m 128.211,2792.653 -0.893,0.402 c -1,0.45 -2.14,0.42 -3.105,-0.07 -0.265,0.01 -0.534,-0.01 -0.803,-0.046 l 0.26,-1.781 c 0.225,0.032 0.448,0.038 0.661,0.017 l 0.303,-0.03 0.26,0.16 c 0.509,0.314 1.139,0.355 1.687,0.109 l 0.893,-0.402 0.737,1.641 z m -57.639,25.817 -1.122,-1.407 c 0.343,-0.273 0.573,-0.663 0.648,-1.098 l 0.052,-0.302 0.225,-0.208 c 0.625,-0.576 0.985,-1.501 0.917,-2.356 l 1.792,-0.173 c 0.108,1.334 -0.378,2.694 -1.276,3.645 -0.195,0.747 -0.627,1.413 -1.236,1.899 z m -4.769,1.8 c -1.329,-0.094 -2.493,-0.904 -3.038,-2.115 l -0.649,-1.441 1.642,-0.739 0.649,1.442 c 0.273,0.605 0.856,1.012 1.523,1.059 l -0.127,1.794 z m 30.769,-15.844 c -1.675,0.711 -3.388,1.371 -5.094,1.963 l -0.59,-1.7 c 1.667,-0.579 3.343,-1.225 4.981,-1.92 l 0.703,1.657 z m 4.138,-1.895 -0.793,-1.615 c 1.338,-0.657 2.663,-1.354 3.938,-2.072 l 0.883,1.568 c -1.304,0.734 -2.659,1.447 -4.028,2.119 z m -13.572,5.225 c -1.474,0.416 -2.96,0.788 -4.418,1.104 l -0.381,-1.759 c 1.421,-0.309 2.872,-0.672 4.31,-1.078 l 0.489,1.733 z m 44.424,-20.043 -1.724,0.52 c -0.022,-0.076 -0.051,-0.151 -0.084,-0.227 l -0.817,-1.814 c -0.2,-0.445 -0.563,-0.783 -1.022,-0.952 l 0.622,-1.688 c 0.917,0.338 1.642,1.013 2.042,1.901 l 0.817,1.815 c 0.065,0.144 0.121,0.295 0.166,0.445 z m -22.159,9.852 -0.993,-1.502 c 1.248,-0.825 2.468,-1.688 3.625,-2.567 l 1.088,1.435 c -1.187,0.901 -2.439,1.788 -3.72,2.634 z m -32.074,12.24 c -1.544,0.203 -3.075,0.345 -4.551,0.421 l -0.093,-1.798 c 1.43,-0.074 2.913,-0.211 4.409,-0.408 l 0.235,1.785 z m 39.333,-17.756 -1.187,-1.354 c 1.024,-0.898 2.012,-1.826 2.935,-2.76 l 0.649,-0.657 1.544,1.609 -1.298,1.247 -0.271,-0.282 c -0.759,0.744 -1.555,1.48 -2.372,2.197 z m -50.592,20.456 -0.899,0.404 -0.42,-0.935 -0.526,0.043 -0.044,-0.541 c -0.042,-0.518 0.008,-1.049 0.144,-1.563 -0.035,0 -0.069,-0.01 -0.104,-0.014 l 0.246,-1.783 c 0.403,0.055 0.812,0.104 1.228,0.147 l 1.383,0.144 -0.697,1.203 c -0.308,0.531 -0.452,1.142 -0.405,1.72 l 0.094,1.175 z m 57.652,-27.726 c -0.206,-0.137 -0.432,-0.25 -0.672,-0.337 l -1.145,-0.41 0.728,-0.976 c 0.895,-1.199 1.694,-2.41 2.375,-3.601 l 1.562,0.895 c -0.553,0.966 -1.179,1.944 -1.868,2.919 0.007,0.01 0.014,0.01 0.021,0.014 l -1.001,1.496 z m -64.029,24.188 c -1.906,-0.542 -3.65,-1.253 -5.183,-2.113 l 0.881,-1.569 c 1.411,0.792 3.023,1.448 4.794,1.95 l -0.492,1.732 z m 68.861,-32.813 -1.687,-0.628 c 0.526,-1.414 0.884,-2.812 1.063,-4.155 l 1.785,0.239 c -0.198,1.476 -0.588,3.004 -1.161,4.544 z m -77.833,27.871 c -1.153,-1.148 -2.095,-2.448 -2.798,-3.864 l 1.612,-0.801 c 0.616,1.24 1.441,2.38 2.455,3.389 l -1.269,1.276 z m 78.768,-38.101 -1.754,0.404 c -0.184,-0.8 -0.447,-1.583 -0.783,-2.328 -0.14,-0.31 -0.289,-0.604 -0.455,-0.897 l -0.075,-0.131 -0.027,-0.148 c -0.013,-0.069 -0.033,-0.134 -0.06,-0.194 l -0.145,-0.321 1.641,-0.739 0.145,0.322 c 0.064,0.142 0.116,0.291 0.154,0.444 0.167,0.304 0.32,0.607 0.463,0.926 0.384,0.852 0.685,1.748 0.896,2.662 z m -82.162,28.552 -1.642,0.739 -1.427,-3.171 c -0.204,-0.454 -0.286,-0.958 -0.235,-1.458 l 1.791,0.18 c -0.019,0.189 0.01,0.371 0.085,0.539 l 1.428,3.171 z m 78.657,-37.011 -1.642,0.738 -0.823,-1.83 c -0.171,-0.38 -0.513,-0.548 -0.769,-0.621 l -2.231,-0.639 2.078,-1.032 c 0.312,-0.155 0.564,-0.399 0.728,-0.707 l 1.588,0.848 c -0.104,0.194 -0.224,0.376 -0.359,0.544 0.253,0.247 0.458,0.539 0.606,0.869 l 0.824,1.83 z m -84.845,31.767 c -0.045,-0.082 -0.087,-0.166 -0.126,-0.253 l -0.974,-2.165 c -0.536,-1.19 -0.36,-2.566 0.459,-3.588 l 1.405,1.125 c -0.395,0.492 -0.479,1.152 -0.223,1.725 l 0.975,2.164 c 0.018,0.041 0.038,0.081 0.059,0.119 l -1.575,0.873 z m 82.994,-40.031 -1.641,0.739 -0.087,-0.194 c -0.376,-0.836 -1.364,-1.209 -2.203,-0.832 l -4.924,2.217 -0.739,-1.642 4.924,-2.216 c 1.744,-0.785 3.799,-0.01 4.583,1.734 l 0.087,0.194 z m -12.959,3.777 -4.104,1.847 -0.739,-1.642 4.104,-1.847 0.739,1.642 z m -9.028,4.062 -4.104,1.847 -0.739,-1.641 4.104,-1.848 0.739,1.642 z m -8.207,3.694 -4.924,2.216 -0.739,-1.642 4.924,-2.217 0.739,1.643 z m -9.028,4.063 -4.104,1.847 -0.739,-1.642 4.104,-1.847 0.739,1.642 z m -9.028,4.062 -4.104,1.847 -0.739,-1.641 4.104,-1.847 0.739,1.641 z m -8.207,3.694 -4.924,2.217 -0.738,-1.642 4.924,-2.216 0.738,1.641 z m -9.028,4.063 -4.104,1.847 -0.739,-1.642 4.104,-1.847 0.739,1.642 z m -9.028,4.064 -4.104,1.846 -0.739,-1.641 4.104,-1.848 0.739,1.643 z" />
        </g>
      </g>
      <g
         style="opacity:0.8"
         id="g6574">
        <g
           id="g6576">
          <path
             style="fill:#1c4781"
             inkscape:connector-curvature="0"
             id="path6578"
             d="m 120.504,2552.91 -2.79,0.808 -0.504,-1.739 1.051,-0.304 -0.703,-2.428 1.739,-0.504 1.207,4.167 z m -7.138,2.068 -4.348,1.26 -0.503,-1.739 4.348,-1.26 0.503,1.739 z m -9.565,2.77 -4.348,1.26 -0.504,-1.739 4.348,-1.259 0.504,1.738 z m -8.696,2.52 -5.217,1.512 -0.503,-1.739 5.217,-1.512 0.503,1.739 z m -9.564,2.771 -4.348,1.259 -0.504,-1.739 4.348,-1.26 0.504,1.74 z m -9.565,2.771 -4.348,1.259 -0.503,-1.738 4.348,-1.26 0.503,1.739 z m -8.696,2.518 -1.239,0.359 -1.763,-6.087 1.739,-0.504 1.511,5.218 -0.5,0.145 0.252,0.869 z m 50.758,-23.932 -1.739,0.504 -1.26,-4.348 1.739,-0.504 1.26,4.348 z m -53.281,13.353 -1.739,0.504 -1.26,-4.348 1.739,-0.504 1.26,4.348 z m 50.51,-22.918 -1.739,0.504 -1.26,-4.348 1.739,-0.504 1.26,4.348 z m -53.281,13.353 -1.739,0.505 -1.26,-4.349 1.739,-0.504 1.26,4.348 z m 50.762,-22.048 -1.739,0.504 -1.511,-5.218 1.739,-0.504 1.511,5.218 z m -53.281,13.352 -1.739,0.504 -1.512,-5.217 1.739,-0.504 1.512,5.217 z m 50.51,-22.918 -1.739,0.504 -1.259,-4.348 1.739,-0.504 1.259,4.348 z m -53.281,13.354 -1.739,0.504 -1.26,-4.348 1.739,-0.504 1.26,4.348 z m 49.918,-22.363 -0.176,-0.333 -0.972,0.282 -0.349,-1.206 0.652,-0.345 c 1.287,-0.68 2.275,-1.353 3.109,-2.121 l 1.226,1.333 c -0.951,0.876 -2.061,1.636 -3.49,2.39 z m -54.568,15.332 c -1.733,0 -3.312,-0.156 -4.692,-0.462 l 0.392,-1.769 c 1.252,0.278 2.699,0.419 4.3,0.42 l 0,1.811 z m 60.956,-21.463 -1.512,-0.995 2.987,-4.536 1.512,0.995 -2.987,4.536 z m -70.066,20.005 -4.406,-0.992 4.4,-2.835 0.98,1.521 -0.77,0.496 0.193,0.043 -0.397,1.767 z m 64.593,-22.171 0.632,-1.816 0.853,0.293 -0.313,-0.843 4.235,-1.573 0.631,1.697 -6.038,2.242 z m -23.886,6.454 -0.121,0.035 c -0.224,0.065 -0.482,0.093 -0.773,0.083 l 0.043,-1.433 -0.778,-0.2 c 0.401,-1.561 1.157,-3.02 2.25,-4.336 l 0.986,0.818 c 0.024,-0.05 0.048,-0.1 0.072,-0.15 l 1.638,0.771 c -0.779,1.653 -2.074,3.638 -3.211,4.346 l -0.106,0.066 z m -40.183,11.235 -4.09,-1.938 0.775,-1.636 0.477,0.226 -0.11,-1.56 4.515,-0.319 0.127,1.806 -4.078,0.289 3.159,1.497 -0.775,1.635 z m 27.536,-7.994 c -0.042,0.013 -0.083,0.023 -0.105,0.028 L 70.824,2509 c -0.29,0.043 -0.614,0.059 -0.964,0.046 l 0.067,-1.81 c 0.218,0.01 0.414,0 0.584,-0.021 0.165,-0.052 0.381,-0.147 0.622,-0.275 -0.122,-0.13 -0.243,-0.256 -0.364,-0.377 l 1.277,-1.283 c 0.396,0.394 0.791,0.832 1.174,1.303 l 0.621,0.762 -0.811,0.557 c -0.356,0.243 -1.266,0.834 -2.034,1.057 z m -13.874,3.918 -3.538,0.15 c -1.29,0.056 -2.59,0.111 -3.923,0.192 l -0.109,-1.808 c 1.349,-0.081 2.657,-0.138 3.922,-0.191 l 0.272,-0.012 0.233,-0.328 c 0.217,0.153 0.441,0.303 0.672,0.448 l 2.471,1.549 z m 43.15,-13.333 -0.927,-1.556 c 1.294,-0.771 2.72,-1.656 4.358,-2.705 l 0.23,-0.146 0.976,1.524 -0.23,0.147 c -1.654,1.059 -3.096,1.954 -4.407,2.736 z m -1.947,-0.356 -1.775,-0.357 c 0.274,-1.363 0.234,-2.674 -0.12,-3.896 l -0.04,-0.134 1.73,-0.533 0.049,0.163 c 0.435,1.505 0.488,3.105 0.156,4.757 z m -33.142,8.687 c -1.868,-0.746 -4.306,-2.02 -5.029,-3.152 l 1.526,-0.975 c 0.269,0.421 1.781,1.49 4.174,2.446 l -0.671,1.681 z m 43.539,-13.654 -0.976,-1.524 5.108,-3.271 -1.203,3.475 -0.563,-0.194 -2.366,1.514 z m -59.17,14.675 c -0.533,-0.814 -0.968,-1.699 -1.293,-2.631 -0.065,-0.186 -0.124,-0.371 -0.177,-0.556 -0.131,-0.451 -0.231,-0.91 -0.297,-1.363 l 1.792,-0.263 c 0.055,0.372 0.137,0.75 0.245,1.122 0.045,0.154 0.094,0.308 0.147,0.462 0.277,0.794 0.647,1.546 1.099,2.236 l -1.516,0.993 z m 17.003,-4.947 c -0.676,-0.221 -1.391,-0.385 -2.187,-0.503 -0.631,-0.094 -1.229,-0.068 -1.729,0.074 l -0.495,-1.741 c 0.745,-0.212 1.605,-0.255 2.489,-0.124 0.897,0.134 1.709,0.32 2.483,0.573 l -0.561,1.721 z m 9.43,-5.435 -0.938,-0.95 c -0.279,-0.284 -0.574,-0.56 -0.875,-0.821 l 1.188,-1.367 c 0.018,0.016 0.036,0.031 0.054,0.047 0.342,-0.639 0.733,-1.26 1.168,-1.85 l 1.457,1.075 c -0.486,0.659 -0.911,1.361 -1.261,2.086 -0.09,0.187 -0.176,0.372 -0.257,0.558 l -0.536,1.222 z m 17.596,-7.542 c -1.074,-0.755 -2.352,-1.259 -3.8,-1.497 l 0.294,-1.787 c 1.719,0.283 3.249,0.891 4.547,1.804 l -1.041,1.48 z m -12.534,0.707 -1.056,-1.471 c 1.61,-1.157 3.403,-1.966 5.243,-2.378 l 0.395,1.767 c -1.604,0.357 -3.17,1.067 -4.582,2.082 z m -11.23,2.33 c -0.882,-0.391 -1.828,-0.731 -2.813,-1.013 -0.424,-0.121 -0.859,-0.224 -1.292,-0.307 l 0.34,-1.778 c 0.485,0.093 0.973,0.209 1.449,0.345 1.065,0.304 2.091,0.674 3.049,1.098 l -0.733,1.655 z m -19.446,5.345 -1.616,-0.817 c 0.691,-1.367 1.705,-2.643 3.011,-3.791 l 1.195,1.36 c -1.132,0.996 -2.003,2.088 -2.59,3.248 z m 11.09,-6.864 c -1.696,0.159 -3.404,0.611 -4.936,1.311 l -0.75,-1.648 c 1.713,-0.781 3.621,-1.286 5.516,-1.465 l 0.17,1.802 z" />
        </g>
        <g
           id="g6580">
          <path
             style="fill:#1c4781"
             inkscape:connector-curvature="0"
             id="path6582"
             d="m 108.862,2500.861 c -3.935,1.461 -3.938,-0.056 -3.125,-2.401 -6.228,3.985 -12.063,7.367 -18.861,9.343 3.463,-2.509 6.447,-5.097 7.532,-8.516 1.307,-4.117 -1.059,-7.531 -5.587,-7.961 -3.999,-0.38 -8.307,2.188 -10.278,6.264 -0.762,1.571 -1.157,3.195 -1.846,5.154 -0.763,-0.995 -1.309,-1.693 -1.838,-2.401 -1.91,-2.553 -4.688,-4.403 -8.394,-5.461 -3.838,-1.097 -8.19,-0.347 -11.403,2.047 -3.296,2.455 -4.215,5.303 -3.242,8.094 1.025,2.936 3.572,4.957 7.239,6.205 2.835,0.966 6.075,1.117 9.888,1.522 -6.909,2.37 -13.028,1.986 -20.277,2.499 3.291,1.561 1.003,2.501 -0.533,3.491 2.003,0.451 4.587,0.485 7.414,0.176 2.957,10.209 12.658,43.695 13.065,45.1 15.808,-4.58 31.519,-9.131 47.218,-13.679 -0.433,-1.493 -10.119,-34.93 -13.063,-45.092 2.157,-1.033 4.564,-2.065 6.091,-4.384 z m -29.133,5.289 c 0.199,-2.971 1.307,-5.889 3.961,-8.564 0.882,-0.89 2.005,-1.599 3.45,-1.515 1.586,0.092 2.095,1.022 2.441,2.022 0.656,2.069 -2.347,7.774 -4.886,9.277 -1.617,0.959 -5.061,0.202 -4.966,-1.22 z m -21.56,-1.08 c -0.879,-3.294 2.388,-6.003 6.752,-5.354 5.661,0.841 8.799,3.923 11.187,7.487 0.523,0.779 -3.146,3.46 -4.996,3.736 -4.015,0.598 -12.207,-3.116 -12.943,-5.869 z" />
        </g>
        <g
           id="g6584">
          <path
             style="fill:#faf7f4"
             inkscape:connector-curvature="0"
             id="path6586"
             d="m 67.562,2529.834 c -0.552,-1.906 -0.359,-3.694 0.558,-5.359 0.938,-1.672 2.393,-2.781 4.38,-3.357 1.987,-0.576 3.832,-0.422 5.497,0.496 1.665,0.916 2.784,2.325 3.336,4.23 0.552,1.906 0.354,3.674 -0.563,5.34 -0.917,1.664 -2.393,2.78 -4.381,3.356 -1.988,0.576 -3.811,0.415 -5.497,-0.495 -1.665,-0.918 -2.778,-2.306 -3.33,-4.211 z m 22.999,-15.304 3.722,1.499 -13.838,36.727 -3.719,-1.565 13.835,-36.661 z m -18.716,14.063 c 0.226,0.778 0.641,1.369 1.261,1.745 0.62,0.376 1.333,0.458 2.131,0.227 0.82,-0.237 1.378,-0.688 1.68,-1.331 0.323,-0.648 0.358,-1.37 0.133,-2.148 -0.231,-0.8 -0.641,-1.369 -1.261,-1.745 -0.599,-0.382 -1.312,-0.464 -2.131,-0.227 -0.799,0.231 -1.357,0.682 -1.68,1.331 -0.323,0.648 -0.365,1.349 -0.133,2.148 z m 17.581,12.921 c -0.552,-1.906 -0.359,-3.694 0.558,-5.359 0.917,-1.665 2.373,-2.775 4.36,-3.351 1.988,-0.576 3.832,-0.422 5.497,0.495 1.686,0.911 2.804,2.319 3.356,4.226 0.552,1.905 0.354,3.674 -0.584,5.345 -0.917,1.665 -2.393,2.781 -4.38,3.357 -1.988,0.575 -3.812,0.415 -5.477,-0.502 -1.665,-0.917 -2.777,-2.305 -3.33,-4.211 z m 4.283,-1.241 c 0.226,0.778 0.641,1.369 1.24,1.75 0.62,0.377 1.332,0.459 2.131,0.227 0.82,-0.236 1.378,-0.688 1.701,-1.336 0.323,-0.648 0.358,-1.37 0.133,-2.148 -0.231,-0.8 -0.641,-1.369 -1.261,-1.746 -0.62,-0.375 -1.332,-0.457 -2.152,-0.22 -0.799,0.231 -1.357,0.682 -1.68,1.331 -0.302,0.642 -0.343,1.343 -0.112,2.142 z" />
        </g>
      </g>
      <g
         style="opacity:0.8"
         id="g6588">
        <g
           id="g6590">
          <path
             style="fill:#1c4781"
             inkscape:connector-curvature="0"
             id="path6592"
             d="m 97.861,2895.436 c -0.54,-0.158 -0.817,-0.094 -0.942,0.52 -0.291,1.43 -0.64,2.847 -0.97,4.268 -0.119,0.506 -0.248,0.874 0.556,1.009 0.714,0.12 0.848,-0.106 0.947,-0.675 0.119,-0.673 0.292,-1.336 0.52,-2.354 0.604,1.005 0.973,1.744 1.467,2.386 0.254,0.329 0.228,1.199 1.175,0.663 0.906,-0.513 0.422,-0.906 0.153,-1.427 -0.313,-0.605 -1.129,-1.241 -0.854,-1.785 0.3,-0.593 1.159,0.066 1.783,0.076 0.638,0.013 0.82,-0.066 0.96,-0.664 0.147,-0.627 -0.108,-0.77 -0.63,-0.897 -1.396,-0.345 -2.785,-0.718 -4.165,-1.12 z" />
        </g>
        <g
           id="g6594">
          <path
             style="fill:#1c4781"
             inkscape:connector-curvature="0"
             id="path6596"
             d="m 85.349,2876.814 c 0.685,0.213 0.833,-0.063 0.951,-0.656 0.268,-1.342 0.548,-2.687 0.934,-3.998 0.183,-0.62 0.202,-0.908 -0.5,-1.139 -0.807,-0.266 -0.885,0.178 -0.991,0.745 -0.118,0.633 -0.273,1.259 -0.412,1.889 -0.102,0.017 -0.203,0.034 -0.303,0.05 -0.461,-0.768 -0.951,-1.521 -1.375,-2.307 -0.305,-0.564 -0.641,-0.641 -1.185,-0.326 -0.602,0.351 -0.34,0.73 -0.117,1.131 0.161,0.287 0.34,0.563 0.494,0.854 0.238,0.45 0.884,0.958 0.498,1.38 -0.385,0.423 -1.044,-0.103 -1.583,-0.21 -0.037,-0.01 -0.072,-0.037 -0.102,-0.063 -0.447,-0.369 -0.808,-0.393 -1.003,0.248 -0.174,0.57 -0.345,1.067 0.542,1.264 1.399,0.31 2.782,0.711 4.152,1.138 z" />
        </g>
        <g
           id="g6598">
          <path
             style="fill:#1c4781"
             inkscape:connector-curvature="0"
             id="path6600"
             d="m 108.254,2885.066 c -0.917,0.05 -1.84,0.029 -2.989,0.041 0.664,-0.678 1.129,-1.172 1.612,-1.645 0.368,-0.361 0.695,-0.625 0.154,-1.184 -0.523,-0.543 -0.864,-0.278 -1.223,0.067 -1.033,0.991 -2.047,2.001 -3.054,3.02 -0.291,0.294 -0.528,0.56 -0.031,0.983 1.149,0.984 2.243,2.035 3.328,3.092 0.424,0.413 0.703,0.398 1.1,-0.035 0.408,-0.444 0.345,-0.766 -0.076,-1.117 -0.345,-0.289 -0.682,-0.589 -1.011,-0.896 -0.146,-0.136 -0.349,-0.313 -0.218,-0.512 0.095,-0.144 0.409,-0.317 0.491,-0.265 0.692,0.435 1.326,-0.202 1.983,-0.071 0.627,0.125 0.982,-0.261 0.985,-0.747 0.004,-0.572 -0.466,-0.763 -1.051,-0.731 z" />
        </g>
        <g
           id="g6602">
          <path
             style="fill:#1c4781"
             inkscape:connector-curvature="0"
             id="path6604"
             d="m 74.533,2887.16 c 0.475,0.071 0.913,0.074 1.392,0 0.398,-0.066 0.894,-0.213 1.221,0.106 0.136,0.358 0.137,0.62 -0.129,0.847 -0.28,0.238 -0.517,0.529 -0.803,0.76 -0.457,0.368 -0.465,0.654 -0.018,1.08 0.438,0.421 0.712,0.373 1.105,-0.031 1.029,-1.053 2.087,-2.077 3.142,-3.106 0.295,-0.287 0.5,-0.562 0.105,-0.919 -1.179,-1.069 -2.371,-2.125 -3.529,-3.216 -0.498,-0.468 -0.682,-0.022 -0.986,0.225 -0.389,0.314 -0.326,0.568 -0.028,0.911 0.485,0.56 1.666,1.006 1.335,1.637 -0.282,0.541 -1.511,0.146 -2.318,0.224 -0.122,0.012 -0.247,0.014 -0.369,0 -0.402,-0.039 -0.654,0.104 -0.596,0.541 0.047,0.356 -0.185,0.844 0.476,0.943 z" />
        </g>
        <g
           id="g6606">
          <path
             style="fill:#1c4781"
             inkscape:connector-curvature="0"
             id="path6608"
             d="m 97.842,2876.59 c 1.161,-0.494 2.306,-0.914 3.577,-1.059 0.379,-0.043 1.077,-0.335 0.813,-1.197 -0.25,-0.813 -0.612,-0.676 -1.164,-0.414 -0.325,0.152 -0.691,0.234 -1.047,0.309 -0.226,0.048 -0.619,0.109 -0.669,0.017 -0.118,-0.217 -0.163,-0.495 0.041,-0.784 0.375,-0.53 0.645,-1.133 1.004,-1.676 0.358,-0.54 0.079,-0.779 -0.352,-1.059 -0.491,-0.319 -0.712,-0.131 -0.945,0.311 -0.455,0.867 -0.951,1.712 -1.531,2.747 -0.24,-0.829 -0.385,-1.462 -0.607,-2.067 -0.147,-0.405 0.076,-1.146 -0.898,-0.887 -0.851,0.227 -0.742,0.668 -0.578,1.262 0.356,1.282 0.756,2.557 1.019,3.858 0.187,0.918 0.871,0.836 1.337,0.639 z" />
        </g>
        <g
           id="g6610">
          <path
             style="fill:#1c4781"
             inkscape:connector-curvature="0"
             id="path6612"
             d="m 95.586,2879.736 c 1.369,-0.564 2.792,-0.968 4.246,-1.237 1.063,-0.197 0.831,-0.874 0.609,-1.637 -0.117,-0.289 -0.381,-0.237 -0.679,-0.139 -0.737,0.245 -1.499,0.428 -2.213,0.725 -0.966,0.4 -1.585,0.358 -1.738,-0.88 -0.094,-0.766 -0.369,-1.507 -0.559,-2.259 -0.125,-0.496 -0.342,-0.649 -0.877,-0.427 -0.386,0.16 -0.809,0.099 -0.626,0.742 0.445,1.57 0.841,3.156 1.267,4.733 0.073,0.274 0.131,0.56 0.57,0.379 z" />
        </g>
        <g
           id="g6614">
          <path
             style="fill:#1c4781"
             inkscape:connector-curvature="0"
             id="path6616"
             d="m 87.253,2879.705 c 0.242,0.063 0.569,0.318 0.68,-0.158 0.389,-1.676 0.766,-3.355 1.144,-5.036 0.017,-0.075 -0.012,-0.159 -0.022,-0.262 -0.259,-0.286 -0.645,-0.305 -0.994,-0.377 -0.414,-0.085 -0.441,0.265 -0.503,0.54 -0.22,0.959 -0.459,1.915 -0.64,2.881 -0.104,0.555 -0.348,0.875 -0.875,0.542 -0.862,-0.544 -1.884,-0.399 -2.777,-0.751 -0.552,-0.217 -0.833,-0.088 -0.955,0.498 -0.104,0.502 -0.08,0.813 0.542,0.959 1.476,0.344 2.933,0.777 4.4,1.164 z" />
        </g>
        <g
           id="g6618">
          <path
             style="fill:#1c4781"
             inkscape:connector-curvature="0"
             id="path6620"
             d="m 81.511,2885.699 c 0.6,0.476 0.503,0.789 -0.007,1.242 -0.703,0.627 -1.343,1.32 -2.013,1.984 -0.237,0.233 -0.564,0.473 -0.09,0.76 0.328,0.199 0.51,0.888 1.373,0.113 0.89,-0.88 2.056,-2.028 3.217,-3.182 0.411,-0.408 0.053,-0.629 -0.221,-0.881 -1.081,-0.992 -2.16,-1.984 -3.227,-2.992 -0.396,-0.373 -0.722,-0.553 -1.219,-0.09 -0.617,0.572 -0.068,0.891 0.222,1.197 0.616,0.655 1.263,1.293 1.965,1.849 z" />
        </g>
        <g
           id="g6622">
          <path
             style="fill:#1c4781"
             inkscape:connector-curvature="0"
             id="path6624"
             d="m 101.809,2886.654 c -0.551,-0.503 -0.654,-0.934 0.021,-1.48 0.662,-0.535 1.202,-1.22 1.817,-1.816 0.352,-0.342 0.457,-0.574 0.021,-0.982 -0.415,-0.389 -0.705,-0.483 -1.118,-0.064 -1.088,1.105 -2.17,2.219 -3.291,3.291 -0.399,0.381 -0.244,0.533 0.085,0.825 1.159,1.03 2.305,2.077 3.406,3.167 0.322,0.318 0.685,0.424 0.863,0.115 0.173,-0.3 0.824,-0.622 0.273,-1.149 -0.693,-0.637 -1.383,-1.274 -2.077,-1.907 z" />
        </g>
        <g
           id="g6626">
          <path
             style="fill:#1c4781"
             inkscape:connector-curvature="0"
             id="path6628"
             d="m 96.076,2892.507 c -0.564,-0.205 -0.728,-0.222 -0.853,0.368 -0.32,1.52 -0.684,3.03 -1.012,4.547 -0.051,0.238 -0.307,0.553 0.137,0.715 0.34,0.126 0.68,0.261 0.858,0.328 0.47,-0.269 0.399,-0.543 0.453,-0.771 0.204,-0.878 0.473,-1.747 0.587,-2.638 0.104,-0.819 0.438,-0.876 1.123,-0.64 0.889,0.306 1.819,0.486 2.716,0.768 0.475,0.148 0.706,0.041 0.743,-0.457 0.028,-0.385 0.422,-0.806 -0.387,-0.98 -1.477,-0.316 -2.945,-0.726 -4.365,-1.24 z" />
        </g>
        <g
           id="g6630">
          <path
             style="fill:#1c4781"
             inkscape:connector-curvature="0"
             id="path6632"
             d="m 100.423,2882.612 c -0.308,-0.235 -0.507,-0.873 -1.083,-0.417 -0.309,0.243 -0.667,0.361 -0.934,0.736 -0.535,0.754 -1.174,1.473 -1.897,2.047 -0.838,0.666 -1.8,0.443 -2.598,-0.154 -0.803,-0.6 -0.134,-1.252 0.204,-1.697 0.435,-0.572 1.119,-1.124 1.834,-1.13 1.043,-0.01 1.768,-0.714 2.705,-0.924 0.695,-0.157 0.248,-0.753 0.163,-1.134 -0.11,-0.496 -0.537,-0.359 -0.776,-0.171 -0.818,0.642 -1.875,0.405 -2.749,0.815 -0.493,0.23 -0.621,0.217 -0.821,-0.464 -0.257,-0.876 -0.605,-1.745 -0.779,-2.648 -0.164,-0.854 -0.802,-0.89 -1.353,-0.776 -0.753,0.154 -0.258,0.726 -0.15,1.083 0.676,2.235 1.454,4.467 -0.417,6.534 -0.045,0.05 -0.133,0.061 -0.199,0.088 -1.816,-2.415 -1.832,-2.504 -1.123,-5.352 0.129,-0.514 0.231,-1.033 0.348,-1.551 0.158,-0.7 -0.448,-0.515 -0.764,-0.656 -0.36,-0.161 -0.629,-0.125 -0.694,0.348 -0.04,0.283 -0.119,0.561 -0.185,0.841 -0.704,2.981 -0.699,2.962 -3.625,2.12 -0.499,-0.144 -1.229,-0.772 -1.548,0.196 -0.338,1.021 0.552,1.048 1.187,1.234 0.197,0.058 0.404,0.088 0.594,0.158 1.595,0.591 3.434,0.778 4.065,2.834 0.195,0.642 0.094,0.852 -0.481,0.877 -1.385,0.063 -2.759,0.147 -3.73,-1.215 -0.419,-0.587 -1.108,-0.974 -1.606,-1.514 -0.449,-0.485 -0.753,-0.45 -1.199,0.01 -0.468,0.479 -0.227,0.773 0.131,1.101 0.602,0.553 1.189,1.125 1.816,1.649 0.584,0.489 0.893,0.856 0.05,1.457 -0.654,0.468 -1.161,1.146 -1.714,1.748 -0.265,0.289 -0.835,0.483 -0.23,1.049 0.489,0.458 0.834,0.556 1.307,0.027 0.518,-0.579 1.063,-1.136 1.626,-1.672 0.859,-0.821 1.849,-1.313 3.09,-1.199 0.866,0.081 1.063,0.374 0.762,1.26 -0.585,1.723 -2.027,2.128 -3.498,2.437 -1.371,0.286 -2.319,0.779 -2.032,2.397 1.24,-0.821 2.716,-0.873 4.09,-1.258 0.259,-0.073 0.378,0.054 0.476,0.239 0.125,0.234 0.009,0.403 -0.208,0.467 -1.283,0.373 -2.567,0.745 -3.859,1.086 -0.273,0.072 -0.403,-0.212 -0.535,-0.413 -0.296,0.275 -0.554,0.612 -0.894,0.81 -0.492,0.283 -0.915,0.545 -0.643,1.197 0.276,0.658 0.797,0.373 1.258,0.298 0.22,-0.035 0.499,-0.249 0.612,0.111 0.105,0.335 -0.251,0.349 -0.426,0.483 -0.708,0.545 -1.593,0.619 -2.397,0.91 -0.413,0.149 -0.876,0.251 -0.628,0.934 0.188,0.518 0.251,0.953 0.964,0.582 0.337,-0.173 0.801,0.156 1.155,-0.188 0.166,-0.161 0.376,-0.385 0.613,-0.115 0.19,0.215 0.065,0.493 -0.026,0.693 -0.254,0.559 -0.549,1.1 -0.859,1.629 -0.246,0.418 -0.3,0.715 0.222,0.985 0.475,0.246 0.754,0.312 1.071,-0.255 0.445,-0.795 0.78,-1.676 1.461,-2.393 0.511,0.635 0.532,1.354 0.702,2.013 0.138,0.534 0.376,0.756 0.958,0.59 0.546,-0.155 0.714,-0.39 0.546,-0.966 -0.366,-1.256 -0.687,-2.527 -0.982,-3.803 -0.192,-0.834 -0.465,-1.418 -1.451,-0.854 -0.151,0.085 -0.316,0.135 -0.43,-0.03 -0.159,-0.232 0.003,-0.368 0.19,-0.478 0.317,-0.186 0.629,-0.381 0.954,-0.554 0.596,-0.317 1.039,-0.385 1.191,0.506 0.151,0.882 0.45,1.739 0.672,2.61 0.132,0.513 0.354,0.769 0.951,0.572 0.536,-0.176 0.729,-0.393 0.531,-0.976 -0.25,-0.734 -0.438,-1.495 -0.579,-2.259 -0.104,-0.559 -0.713,-1.43 -0.085,-1.625 0.726,-0.225 0.586,0.854 0.821,1.348 0.215,0.45 0.335,0.836 0.94,0.579 0.513,-0.217 0.885,-0.415 0.596,-1.136 -0.356,-0.888 -0.56,-1.838 -0.812,-2.767 -0.137,-0.504 -0.347,-0.994 -0.016,-1.534 0.443,-0.722 0.817,-1.484 1.219,-2.23 0.276,0.283 0.552,0.564 0.829,0.846 0.097,0.159 0.194,0.319 0.292,0.479 0.106,0.544 0.48,0.944 0.758,1.398 -0.508,1.268 -0.316,2.729 -1.191,3.925 -0.311,0.426 0.237,0.775 0.713,0.887 0.403,0.095 0.871,0.425 1.014,-0.351 0.193,-1.039 0.443,-2.068 0.676,-3.1 0.07,-0.314 0.105,-0.68 0.604,-0.402 0.944,0.527 2.083,0.301 3.051,0.763 0.42,0.199 0.761,0.201 0.883,-0.408 0.108,-0.537 0.172,-0.911 -0.529,-1.067 -1.275,-0.283 -2.533,-0.647 -3.797,-0.977 -0.57,-0.995 -1.373,-1.864 -1.629,-3.027 2.506,-0.476 4.292,0.702 5.797,2.529 0.076,0.094 0.213,0.141 0.28,0.238 0.361,0.521 0.708,0.39 1.112,0.033 0.47,-0.414 0.353,-0.746 -0.05,-1.113 -0.696,-0.634 -1.339,-1.333 -2.078,-1.912 -0.51,-0.4 -0.443,-0.682 -0.053,-1.063 0.703,-0.687 1.401,-1.379 2.095,-2.075 0.219,-0.216 0.584,-0.457 0.163,-0.781 z" />
        </g>
      </g>
      <g
         style="opacity:0.8"
         id="g6634">
        <g
           id="g6636">
          <path
             style="fill:#1c4781"
             inkscape:connector-curvature="0"
             id="path6638"
             d="m 104.043,3068.121 c -0.533,-0.156 -0.806,-0.093 -0.929,0.513 -0.287,1.408 -0.63,2.806 -0.956,4.206 -0.117,0.498 -0.244,0.861 0.548,0.994 0.704,0.118 0.835,-0.105 0.933,-0.665 0.118,-0.663 0.288,-1.317 0.512,-2.32 0.596,0.99 0.958,1.718 1.445,2.351 0.25,0.324 0.224,1.182 1.158,0.653 0.893,-0.505 0.416,-0.894 0.151,-1.406 -0.308,-0.597 -1.112,-1.223 -0.841,-1.759 0.295,-0.584 1.143,0.064 1.757,0.075 0.628,0.012 0.808,-0.065 0.947,-0.655 0.145,-0.617 -0.107,-0.758 -0.622,-0.884 -1.375,-0.337 -2.743,-0.706 -4.103,-1.103 z" />
        </g>
        <g
           id="g6640">
          <path
             style="fill:#1c4781"
             inkscape:connector-curvature="0"
             id="path6642"
             d="m 91.712,3049.77 c 0.675,0.211 0.821,-0.063 0.937,-0.646 0.264,-1.322 0.541,-2.648 0.921,-3.94 0.18,-0.611 0.199,-0.896 -0.492,-1.123 -0.795,-0.261 -0.873,0.176 -0.977,0.734 -0.116,0.624 -0.269,1.241 -0.406,1.861 -0.1,0.017 -0.2,0.033 -0.299,0.049 -0.455,-0.756 -0.937,-1.498 -1.355,-2.272 -0.3,-0.557 -0.632,-0.632 -1.168,-0.321 -0.593,0.345 -0.335,0.721 -0.115,1.115 0.158,0.281 0.335,0.555 0.486,0.84 0.235,0.444 0.871,0.944 0.491,1.36 -0.38,0.417 -1.029,-0.101 -1.561,-0.207 -0.036,-0.01 -0.07,-0.037 -0.101,-0.062 -0.44,-0.364 -0.795,-0.387 -0.989,0.245 -0.171,0.561 -0.34,1.051 0.534,1.245 1.381,0.306 2.744,0.701 4.094,1.122 z" />
        </g>
        <g
           id="g6644">
          <path
             style="fill:#1c4781"
             inkscape:connector-curvature="0"
             id="path6646"
             d="m 114.286,3057.902 c -0.904,0.049 -1.813,0.028 -2.946,0.041 0.654,-0.669 1.113,-1.154 1.589,-1.621 0.363,-0.355 0.685,-0.615 0.152,-1.166 -0.516,-0.535 -0.852,-0.275 -1.206,0.065 -1.018,0.978 -2.018,1.973 -3.01,2.976 -0.287,0.29 -0.52,0.552 -0.03,0.971 1.133,0.97 2.211,2.004 3.279,3.046 0.418,0.407 0.693,0.393 1.084,-0.034 0.402,-0.438 0.34,-0.755 -0.075,-1.102 -0.34,-0.285 -0.671,-0.58 -0.997,-0.883 -0.144,-0.133 -0.344,-0.307 -0.214,-0.504 0.093,-0.142 0.403,-0.313 0.483,-0.261 0.683,0.429 1.307,-0.199 1.955,-0.069 0.619,0.123 0.968,-0.257 0.971,-0.736 0.004,-0.566 -0.459,-0.754 -1.035,-0.723 z" />
        </g>
        <g
           id="g6648">
          <path
             style="fill:#1c4781"
             inkscape:connector-curvature="0"
             id="path6650"
             d="m 81.053,3059.965 c 0.468,0.071 0.899,0.074 1.372,0 0.392,-0.064 0.881,-0.21 1.203,0.105 0.134,0.354 0.135,0.61 -0.127,0.833 -0.276,0.235 -0.509,0.522 -0.791,0.75 -0.451,0.362 -0.458,0.645 -0.017,1.064 0.432,0.414 0.701,0.368 1.089,-0.031 1.015,-1.037 2.058,-2.047 3.096,-3.062 0.291,-0.282 0.493,-0.554 0.104,-0.905 -1.162,-1.054 -2.336,-2.094 -3.478,-3.17 -0.49,-0.461 -0.672,-0.021 -0.971,0.222 -0.384,0.31 -0.322,0.56 -0.028,0.898 0.478,0.552 1.642,0.99 1.316,1.613 -0.278,0.532 -1.49,0.144 -2.285,0.22 -0.12,0.012 -0.243,0.014 -0.364,0 -0.396,-0.038 -0.645,0.104 -0.587,0.533 0.044,0.354 -0.184,0.834 0.468,0.931 z" />
        </g>
        <g
           id="g6652">
          <path
             style="fill:#1c4781"
             inkscape:connector-curvature="0"
             id="path6654"
             d="m 104.024,3049.549 c 1.144,-0.486 2.272,-0.9 3.525,-1.043 0.374,-0.043 1.062,-0.331 0.801,-1.181 -0.247,-0.801 -0.604,-0.665 -1.146,-0.408 -0.321,0.151 -0.682,0.231 -1.032,0.305 -0.223,0.047 -0.61,0.107 -0.66,0.017 -0.116,-0.214 -0.16,-0.488 0.041,-0.773 0.369,-0.522 0.635,-1.116 0.99,-1.65 0.353,-0.533 0.078,-0.769 -0.347,-1.044 -0.484,-0.314 -0.702,-0.13 -0.931,0.306 -0.448,0.855 -0.937,1.688 -1.509,2.707 -0.236,-0.817 -0.379,-1.44 -0.598,-2.037 -0.146,-0.398 0.075,-1.129 -0.885,-0.874 -0.838,0.224 -0.731,0.658 -0.569,1.243 0.351,1.264 0.745,2.521 1.004,3.803 0.183,0.904 0.857,0.824 1.316,0.629 z" />
        </g>
        <g
           id="g6656">
          <path
             style="fill:#1c4781"
             inkscape:connector-curvature="0"
             id="path6658"
             d="m 101.801,3052.649 c 1.349,-0.556 2.751,-0.953 4.185,-1.22 1.047,-0.194 0.819,-0.861 0.6,-1.612 -0.116,-0.284 -0.375,-0.234 -0.669,-0.137 -0.726,0.241 -1.477,0.421 -2.181,0.714 -0.953,0.395 -1.562,0.353 -1.712,-0.867 -0.093,-0.754 -0.364,-1.484 -0.551,-2.227 -0.123,-0.488 -0.337,-0.639 -0.864,-0.42 -0.38,0.157 -0.797,0.098 -0.618,0.732 0.439,1.547 0.829,3.109 1.249,4.664 0.071,0.27 0.129,0.551 0.561,0.373 z" />
        </g>
        <g
           id="g6660">
          <path
             style="fill:#1c4781"
             inkscape:connector-curvature="0"
             id="path6662"
             d="m 93.588,3052.619 c 0.239,0.063 0.562,0.314 0.67,-0.156 0.383,-1.652 0.755,-3.307 1.127,-4.963 0.016,-0.074 -0.013,-0.157 -0.022,-0.258 -0.256,-0.282 -0.636,-0.301 -0.98,-0.372 -0.407,-0.084 -0.435,0.262 -0.496,0.532 -0.216,0.945 -0.453,1.887 -0.631,2.84 -0.103,0.546 -0.343,0.861 -0.863,0.533 -0.85,-0.536 -1.856,-0.394 -2.736,-0.739 -0.544,-0.215 -0.821,-0.087 -0.941,0.49 -0.103,0.495 -0.079,0.802 0.535,0.945 1.456,0.34 2.891,0.766 4.337,1.148 z" />
        </g>
        <g
           id="g6664">
          <path
             style="fill:#1c4781"
             inkscape:connector-curvature="0"
             id="path6666"
             d="m 87.93,3058.526 c 0.591,0.469 0.496,0.776 -0.007,1.224 -0.692,0.617 -1.323,1.303 -1.984,1.956 -0.233,0.229 -0.556,0.466 -0.089,0.748 0.323,0.196 0.502,0.876 1.353,0.112 0.877,-0.867 2.026,-1.999 3.171,-3.136 0.405,-0.402 0.052,-0.619 -0.218,-0.867 -1.065,-0.978 -2.129,-1.956 -3.181,-2.949 -0.39,-0.368 -0.711,-0.545 -1.201,-0.089 -0.608,0.564 -0.067,0.877 0.219,1.18 0.607,0.645 1.245,1.272 1.937,1.821 z" />
        </g>
        <g
           id="g6668">
          <path
             style="fill:#1c4781"
             inkscape:connector-curvature="0"
             id="path6670"
             d="m 107.934,3059.467 c -0.543,-0.495 -0.645,-0.92 0.021,-1.458 0.652,-0.528 1.185,-1.202 1.791,-1.791 0.346,-0.337 0.45,-0.565 0.021,-0.968 -0.409,-0.383 -0.695,-0.477 -1.102,-0.063 -1.073,1.089 -2.139,2.187 -3.244,3.242 -0.393,0.375 -0.24,0.525 0.083,0.813 1.143,1.015 2.271,2.048 3.357,3.121 0.317,0.313 0.675,0.417 0.851,0.113 0.17,-0.295 0.813,-0.613 0.27,-1.132 -0.684,-0.625 -1.364,-1.252 -2.048,-1.877 z" />
        </g>
        <g
           id="g6672">
          <path
             style="fill:#1c4781"
             inkscape:connector-curvature="0"
             id="path6674"
             d="m 102.284,3065.234 c -0.556,-0.201 -0.717,-0.217 -0.84,0.363 -0.315,1.498 -0.673,2.986 -0.997,4.481 -0.05,0.235 -0.302,0.544 0.135,0.704 0.335,0.125 0.67,0.257 0.846,0.324 0.463,-0.266 0.394,-0.536 0.446,-0.761 0.201,-0.865 0.466,-1.722 0.578,-2.6 0.103,-0.807 0.432,-0.862 1.106,-0.631 0.875,0.302 1.793,0.479 2.677,0.757 0.469,0.146 0.696,0.041 0.733,-0.451 0.028,-0.379 0.416,-0.793 -0.382,-0.965 -1.456,-0.309 -2.903,-0.713 -4.302,-1.221 z" />
        </g>
        <g
           id="g6676">
          <path
             style="fill:#1c4781"
             inkscape:connector-curvature="0"
             id="path6678"
             d="m 106.568,3055.484 c -0.303,-0.232 -0.5,-0.861 -1.068,-0.412 -0.304,0.24 -0.657,0.356 -0.92,0.727 -0.528,0.742 -1.158,1.451 -1.87,2.018 -0.826,0.656 -1.774,0.437 -2.561,-0.152 -0.791,-0.592 -0.132,-1.234 0.201,-1.672 0.428,-0.564 1.102,-1.109 1.807,-1.115 1.028,-0.01 1.742,-0.703 2.666,-0.91 0.685,-0.154 0.244,-0.742 0.161,-1.117 -0.108,-0.489 -0.529,-0.354 -0.765,-0.168 -0.806,0.632 -1.848,0.399 -2.709,0.803 -0.486,0.228 -0.612,0.214 -0.809,-0.456 -0.253,-0.863 -0.597,-1.721 -0.768,-2.61 -0.162,-0.842 -0.791,-0.877 -1.334,-0.765 -0.742,0.152 -0.254,0.715 -0.148,1.066 0.666,2.204 1.433,4.402 -0.411,6.44 -0.045,0.049 -0.131,0.059 -0.196,0.086 -1.79,-2.38 -1.806,-2.468 -1.106,-5.273 0.127,-0.506 0.228,-1.02 0.343,-1.528 0.156,-0.69 -0.441,-0.508 -0.753,-0.647 -0.355,-0.158 -0.62,-0.123 -0.684,0.343 -0.04,0.278 -0.117,0.553 -0.182,0.829 -0.694,2.938 -0.689,2.919 -3.572,2.089 -0.491,-0.142 -1.21,-0.761 -1.526,0.194 -0.333,1.006 0.544,1.032 1.169,1.216 0.194,0.057 0.398,0.086 0.586,0.155 1.572,0.582 3.384,0.768 4.006,2.794 0.193,0.632 0.093,0.839 -0.474,0.864 -1.365,0.062 -2.719,0.145 -3.676,-1.198 -0.413,-0.578 -1.092,-0.959 -1.583,-1.491 -0.442,-0.479 -0.742,-0.443 -1.182,0.01 -0.461,0.473 -0.224,0.762 0.129,1.084 0.593,0.545 1.172,1.109 1.79,1.626 0.576,0.481 0.88,0.844 0.05,1.436 -0.645,0.461 -1.144,1.13 -1.689,1.723 -0.262,0.285 -0.823,0.477 -0.228,1.034 0.482,0.451 0.823,0.548 1.289,0.027 0.511,-0.571 1.048,-1.119 1.602,-1.647 0.847,-0.81 1.822,-1.296 3.045,-1.183 0.853,0.08 1.048,0.369 0.751,1.242 -0.577,1.697 -1.998,2.096 -3.447,2.4 -1.351,0.282 -2.285,0.769 -2.003,2.363 1.222,-0.809 2.676,-0.86 4.031,-1.24 0.255,-0.071 0.373,0.053 0.469,0.236 0.123,0.23 0.009,0.396 -0.205,0.46 -1.264,0.368 -2.53,0.734 -3.803,1.07 -0.27,0.071 -0.398,-0.209 -0.528,-0.407 -0.292,0.271 -0.546,0.604 -0.881,0.798 -0.484,0.279 -0.902,0.537 -0.633,1.18 0.272,0.649 0.786,0.368 1.24,0.294 0.217,-0.035 0.491,-0.246 0.603,0.109 0.104,0.33 -0.248,0.344 -0.42,0.477 -0.699,0.536 -1.571,0.61 -2.363,0.896 -0.407,0.147 -0.863,0.248 -0.619,0.92 0.186,0.511 0.248,0.939 0.951,0.574 0.332,-0.17 0.79,0.153 1.138,-0.186 0.164,-0.158 0.371,-0.378 0.604,-0.112 0.187,0.212 0.064,0.485 -0.026,0.683 -0.25,0.55 -0.541,1.084 -0.847,1.605 -0.243,0.412 -0.296,0.705 0.218,0.971 0.468,0.243 0.743,0.308 1.056,-0.251 0.438,-0.784 0.769,-1.651 1.44,-2.358 0.503,0.627 0.524,1.334 0.692,1.984 0.136,0.526 0.371,0.744 0.944,0.581 0.539,-0.153 0.704,-0.384 0.539,-0.951 -0.361,-1.239 -0.677,-2.491 -0.968,-3.748 -0.189,-0.822 -0.458,-1.398 -1.43,-0.842 -0.148,0.085 -0.312,0.133 -0.423,-0.029 -0.157,-0.229 0.003,-0.362 0.187,-0.471 0.313,-0.183 0.62,-0.376 0.94,-0.546 0.587,-0.313 1.024,-0.379 1.174,0.498 0.149,0.87 0.444,1.715 0.663,2.572 0.129,0.506 0.349,0.759 0.937,0.565 0.528,-0.173 0.718,-0.388 0.523,-0.962 -0.246,-0.724 -0.431,-1.474 -0.57,-2.227 -0.103,-0.55 -0.703,-1.409 -0.084,-1.601 0.715,-0.222 0.577,0.84 0.809,1.327 0.212,0.444 0.331,0.824 0.926,0.571 0.506,-0.214 0.873,-0.409 0.588,-1.119 -0.351,-0.875 -0.552,-1.812 -0.801,-2.726 -0.134,-0.498 -0.342,-0.981 -0.016,-1.514 0.437,-0.711 0.805,-1.463 1.202,-2.197 0.272,0.278 0.543,0.556 0.816,0.833 0.095,0.157 0.192,0.315 0.289,0.472 0.104,0.536 0.473,0.93 0.747,1.378 -0.5,1.249 -0.312,2.69 -1.174,3.868 -0.306,0.42 0.233,0.764 0.703,0.874 0.397,0.094 0.858,0.419 1,-0.346 0.19,-1.024 0.437,-2.038 0.666,-3.055 0.069,-0.31 0.104,-0.67 0.595,-0.396 0.931,0.52 2.053,0.297 3.007,0.751 0.415,0.197 0.75,0.199 0.87,-0.401 0.107,-0.529 0.169,-0.898 -0.521,-1.052 -1.257,-0.279 -2.496,-0.639 -3.742,-0.963 -0.562,-0.98 -1.353,-1.838 -1.605,-2.984 2.47,-0.468 4.23,0.693 5.713,2.494 0.075,0.092 0.21,0.139 0.276,0.234 0.356,0.515 0.698,0.384 1.096,0.033 0.463,-0.408 0.348,-0.736 -0.049,-1.098 -0.686,-0.625 -1.32,-1.313 -2.048,-1.885 -0.503,-0.395 -0.437,-0.671 -0.052,-1.047 0.693,-0.677 1.38,-1.358 2.064,-2.045 0.216,-0.216 0.576,-0.453 0.161,-0.772 z" />
        </g>
      </g>
      <g
         style="opacity:0.8"
         id="g6726">
        <g
           id="g6728">
          <path
             style="fill:#1c4781"
             inkscape:connector-curvature="0"
             id="path6730"
             d="m 66.405,2693.85 c -0.653,-0.191 -0.989,-0.113 -1.14,0.63 -0.352,1.729 -0.774,3.443 -1.173,5.163 -0.144,0.611 -0.299,1.057 0.672,1.22 0.864,0.146 1.026,-0.129 1.146,-0.816 0.144,-0.813 0.353,-1.616 0.628,-2.849 0.731,1.217 1.177,2.11 1.773,2.887 0.307,0.397 0.276,1.45 1.421,0.802 1.095,-0.62 0.51,-1.097 0.185,-1.726 -0.378,-0.733 -1.365,-1.502 -1.032,-2.16 0.363,-0.717 1.402,0.08 2.156,0.093 0.771,0.015 0.992,-0.08 1.162,-0.804 0.179,-0.759 -0.131,-0.932 -0.762,-1.086 -1.688,-0.415 -3.367,-0.868 -5.036,-1.354 z" />
        </g>
        <g
           id="g6732">
          <path
             style="fill:#1c4781"
             inkscape:connector-curvature="0"
             id="path6734"
             d="m 51.271,2671.321 c 0.828,0.258 1.007,-0.077 1.149,-0.793 0.324,-1.624 0.663,-3.251 1.13,-4.837 0.221,-0.751 0.244,-1.1 -0.604,-1.379 -0.976,-0.32 -1.071,0.216 -1.198,0.902 -0.143,0.766 -0.33,1.522 -0.498,2.284 -0.123,0.021 -0.245,0.041 -0.367,0.061 -0.558,-0.929 -1.15,-1.84 -1.663,-2.79 -0.369,-0.684 -0.775,-0.775 -1.433,-0.395 -0.728,0.424 -0.412,0.884 -0.141,1.368 0.194,0.347 0.411,0.682 0.597,1.032 0.288,0.545 1.068,1.159 0.602,1.67 -0.467,0.511 -1.263,-0.124 -1.916,-0.255 -0.044,-0.01 -0.087,-0.045 -0.124,-0.075 -0.541,-0.447 -0.977,-0.475 -1.214,0.301 -0.209,0.688 -0.417,1.29 0.656,1.528 1.695,0.376 3.368,0.862 5.024,1.378 z" />
        </g>
        <g
           id="g6736">
          <path
             style="fill:#1c4781"
             inkscape:connector-curvature="0"
             id="path6738"
             d="m 78.974,2681.305 c -1.11,0.061 -2.225,0.035 -3.615,0.051 0.803,-0.821 1.366,-1.418 1.95,-1.99 0.445,-0.438 0.841,-0.756 0.186,-1.432 -0.633,-0.657 -1.045,-0.338 -1.479,0.081 -1.249,1.199 -2.476,2.421 -3.693,3.653 -0.352,0.355 -0.638,0.676 -0.038,1.19 1.391,1.19 2.714,2.461 4.025,3.739 0.513,0.5 0.85,0.482 1.33,-0.041 0.494,-0.539 0.417,-0.928 -0.092,-1.353 -0.417,-0.351 -0.824,-0.712 -1.223,-1.084 -0.176,-0.164 -0.422,-0.378 -0.263,-0.618 0.114,-0.174 0.494,-0.384 0.593,-0.321 0.837,0.526 1.604,-0.244 2.398,-0.085 0.759,0.15 1.188,-0.315 1.191,-0.903 0.006,-0.695 -0.563,-0.926 -1.27,-0.887 z" />
        </g>
        <g
           id="g6740">
          <path
             style="fill:#1c4781"
             inkscape:connector-curvature="0"
             id="path6742"
             d="m 38.191,2683.838 c 0.574,0.086 1.104,0.09 1.683,-0.01 0.481,-0.079 1.081,-0.257 1.476,0.13 0.164,0.434 0.165,0.75 -0.156,1.023 -0.339,0.288 -0.625,0.641 -0.971,0.92 -0.553,0.444 -0.562,0.791 -0.021,1.307 0.53,0.509 0.861,0.451 1.337,-0.038 1.245,-1.273 2.524,-2.513 3.799,-3.759 0.357,-0.347 0.604,-0.68 0.127,-1.111 -1.426,-1.293 -2.868,-2.57 -4.268,-3.891 -0.602,-0.566 -0.825,-0.027 -1.192,0.271 -0.471,0.381 -0.394,0.688 -0.034,1.103 0.586,0.677 2.015,1.216 1.615,1.98 -0.341,0.653 -1.828,0.177 -2.804,0.271 -0.147,0.014 -0.298,0.016 -0.446,0 -0.486,-0.047 -0.791,0.127 -0.721,0.654 0.056,0.434 -0.224,1.023 0.576,1.143 z" />
        </g>
        <g
           id="g6744">
          <path
             style="fill:#1c4781"
             inkscape:connector-curvature="0"
             id="path6746"
             d="m 66.382,2671.051 c 1.403,-0.598 2.788,-1.106 4.326,-1.281 0.458,-0.053 1.302,-0.406 0.982,-1.449 -0.303,-0.982 -0.741,-0.816 -1.407,-0.501 -0.394,0.185 -0.836,0.283 -1.267,0.374 -0.273,0.058 -0.749,0.131 -0.809,0.02 -0.143,-0.262 -0.197,-0.599 0.049,-0.948 0.453,-0.642 0.78,-1.371 1.215,-2.027 0.433,-0.653 0.096,-0.942 -0.425,-1.28 -0.593,-0.387 -0.861,-0.159 -1.143,0.375 -0.55,1.049 -1.149,2.07 -1.852,3.323 -0.29,-1.003 -0.465,-1.769 -0.734,-2.501 -0.178,-0.49 0.092,-1.387 -1.085,-1.073 -1.03,0.274 -0.898,0.809 -0.699,1.526 0.43,1.552 0.914,3.094 1.232,4.668 0.225,1.111 1.053,1.012 1.617,0.774 z" />
        </g>
        <g
           id="g6748">
          <path
             style="fill:#1c4781"
             inkscape:connector-curvature="0"
             id="path6750"
             d="m 63.652,2674.856 c 1.656,-0.683 3.377,-1.17 5.135,-1.497 1.286,-0.238 1.005,-1.058 0.737,-1.98 -0.142,-0.349 -0.46,-0.287 -0.821,-0.167 -0.891,0.296 -1.813,0.518 -2.676,0.877 -1.169,0.483 -1.917,0.433 -2.102,-1.065 -0.114,-0.926 -0.447,-1.822 -0.676,-2.732 -0.151,-0.601 -0.414,-0.785 -1.06,-0.517 -0.467,0.193 -0.979,0.12 -0.758,0.898 0.539,1.9 1.017,3.818 1.532,5.727 0.089,0.329 0.159,0.675 0.689,0.456 z" />
        </g>
        <g
           id="g6752">
          <path
             style="fill:#1c4781"
             inkscape:connector-curvature="0"
             id="path6754"
             d="m 53.574,2674.818 c 0.293,0.077 0.689,0.387 0.823,-0.19 0.47,-2.028 0.927,-4.061 1.383,-6.094 0.02,-0.09 -0.015,-0.192 -0.027,-0.316 -0.314,-0.346 -0.78,-0.368 -1.202,-0.456 -0.5,-0.104 -0.534,0.32 -0.609,0.653 -0.266,1.159 -0.556,2.316 -0.774,3.486 -0.126,0.67 -0.42,1.058 -1.059,0.655 -1.042,-0.659 -2.278,-0.484 -3.358,-0.908 -0.667,-0.264 -1.008,-0.107 -1.155,0.602 -0.126,0.607 -0.097,0.984 0.656,1.161 1.786,0.415 3.548,0.94 5.322,1.407 z" />
        </g>
        <g
           id="g6756">
          <path
             style="fill:#1c4781"
             inkscape:connector-curvature="0"
             id="path6758"
             d="m 46.63,2682.07 c 0.726,0.576 0.608,0.955 -0.008,1.504 -0.85,0.757 -1.625,1.598 -2.435,2.4 -0.286,0.282 -0.683,0.571 -0.109,0.918 0.396,0.241 0.616,1.075 1.659,0.138 1.077,-1.063 2.487,-2.454 3.892,-3.85 0.497,-0.493 0.064,-0.76 -0.268,-1.064 -1.308,-1.2 -2.613,-2.401 -3.903,-3.62 -0.479,-0.451 -0.873,-0.669 -1.474,-0.109 -0.746,0.693 -0.082,1.077 0.269,1.448 0.745,0.791 1.528,1.561 2.377,2.235 z" />
        </g>
        <g
           id="g6760">
          <path
             style="fill:#1c4781"
             inkscape:connector-curvature="0"
             id="path6762"
             d="m 71.179,2683.226 c -0.667,-0.607 -0.792,-1.129 0.025,-1.79 0.8,-0.648 1.454,-1.477 2.197,-2.198 0.425,-0.413 0.552,-0.694 0.025,-1.188 -0.502,-0.47 -0.852,-0.585 -1.352,-0.077 -1.317,1.337 -2.625,2.685 -3.98,3.98 -0.482,0.46 -0.295,0.646 0.103,0.999 1.402,1.246 2.788,2.514 4.12,3.832 0.39,0.385 0.828,0.512 1.043,0.139 0.209,-0.362 0.997,-0.753 0.331,-1.391 -0.837,-0.77 -1.672,-1.54 -2.512,-2.306 z" />
        </g>
        <g
           id="g6764">
          <path
             style="fill:#1c4781"
             inkscape:connector-curvature="0"
             id="path6766"
             d="m 64.245,2690.307 c -0.682,-0.248 -0.88,-0.268 -1.031,0.445 -0.388,1.838 -0.827,3.666 -1.224,5.502 -0.062,0.288 -0.372,0.667 0.165,0.864 0.412,0.152 0.822,0.314 1.038,0.397 0.568,-0.325 0.484,-0.658 0.548,-0.934 0.247,-1.063 0.572,-2.114 0.71,-3.191 0.126,-0.99 0.529,-1.06 1.357,-0.774 1.075,0.37 2.2,0.589 3.285,0.929 0.575,0.18 0.854,0.051 0.899,-0.553 0.034,-0.466 0.51,-0.975 -0.468,-1.186 -1.786,-0.382 -3.562,-0.877 -5.279,-1.499 z" />
        </g>
        <g
           id="g6768">
          <path
             style="fill:#1c4781"
             inkscape:connector-curvature="0"
             id="path6770"
             d="m 69.503,2678.336 c -0.372,-0.285 -0.613,-1.057 -1.311,-0.505 -0.373,0.295 -0.807,0.438 -1.129,0.892 -0.648,0.912 -1.421,1.781 -2.294,2.477 -1.014,0.806 -2.177,0.536 -3.143,-0.187 -0.97,-0.726 -0.162,-1.515 0.247,-2.054 0.525,-0.693 1.353,-1.36 2.218,-1.367 1.262,-0.01 2.138,-0.864 3.271,-1.118 0.841,-0.189 0.3,-0.911 0.197,-1.372 -0.133,-0.6 -0.648,-0.434 -0.938,-0.206 -0.989,0.776 -2.268,0.491 -3.325,0.986 -0.597,0.279 -0.752,0.263 -0.993,-0.561 -0.311,-1.06 -0.732,-2.112 -0.942,-3.205 -0.198,-1.032 -0.971,-1.075 -1.637,-0.938 -0.911,0.188 -0.312,0.878 -0.182,1.311 0.817,2.704 1.759,5.404 -0.504,7.905 -0.055,0.06 -0.16,0.073 -0.241,0.106 -2.196,-2.923 -2.215,-3.03 -1.357,-6.475 0.156,-0.621 0.279,-1.251 0.421,-1.876 0.191,-0.848 -0.542,-0.624 -0.924,-0.795 -0.436,-0.194 -0.761,-0.15 -0.839,0.421 -0.048,0.342 -0.143,0.679 -0.223,1.018 -0.852,3.605 -0.845,3.583 -4.384,2.564 -0.603,-0.174 -1.486,-0.935 -1.873,0.238 -0.409,1.235 0.668,1.268 1.436,1.492 0.238,0.07 0.488,0.106 0.719,0.191 1.929,0.715 4.153,0.942 4.916,3.43 0.237,0.776 0.114,1.029 -0.582,1.061 -1.676,0.076 -3.338,0.178 -4.512,-1.471 -0.507,-0.709 -1.34,-1.178 -1.942,-1.83 -0.542,-0.588 -0.911,-0.545 -1.45,0.01 -0.565,0.58 -0.274,0.936 0.158,1.331 0.729,0.669 1.438,1.361 2.196,1.995 0.707,0.592 1.08,1.036 0.061,1.763 -0.791,0.565 -1.403,1.387 -2.073,2.115 -0.321,0.35 -1.01,0.585 -0.279,1.269 0.591,0.554 1.009,0.673 1.581,0.033 0.626,-0.701 1.286,-1.374 1.966,-2.022 1.04,-0.993 2.236,-1.59 3.738,-1.451 1.047,0.099 1.286,0.452 0.922,1.524 -0.708,2.084 -2.452,2.574 -4.23,2.947 -1.658,0.347 -2.805,0.943 -2.458,2.901 1.5,-0.993 3.285,-1.057 4.946,-1.522 0.313,-0.088 0.457,0.064 0.576,0.29 0.151,0.282 0.011,0.487 -0.251,0.564 -1.551,0.452 -3.104,0.901 -4.667,1.313 -0.331,0.088 -0.488,-0.257 -0.648,-0.499 -0.357,0.333 -0.67,0.741 -1.081,0.979 -0.595,0.342 -1.107,0.659 -0.777,1.448 0.334,0.797 0.964,0.451 1.522,0.36 0.266,-0.043 0.603,-0.301 0.74,0.135 0.127,0.405 -0.304,0.422 -0.515,0.585 -0.857,0.658 -1.928,0.749 -2.9,1.101 -0.5,0.181 -1.06,0.304 -0.76,1.129 0.228,0.627 0.304,1.153 1.167,0.705 0.407,-0.209 0.969,0.188 1.397,-0.227 0.201,-0.195 0.455,-0.465 0.742,-0.14 0.229,0.26 0.079,0.597 -0.032,0.839 -0.307,0.675 -0.664,1.33 -1.039,1.971 -0.298,0.506 -0.364,0.865 0.268,1.191 0.575,0.299 0.912,0.377 1.296,-0.308 0.538,-0.962 0.943,-2.027 1.767,-2.896 0.618,0.77 0.644,1.638 0.849,2.436 0.167,0.646 0.455,0.914 1.159,0.714 0.661,-0.188 0.864,-0.472 0.661,-1.168 -0.443,-1.521 -0.832,-3.059 -1.188,-4.601 -0.233,-1.01 -0.563,-1.717 -1.755,-1.033 -0.182,0.104 -0.382,0.163 -0.52,-0.037 -0.192,-0.281 0.004,-0.445 0.229,-0.577 0.384,-0.226 0.761,-0.461 1.153,-0.67 0.721,-0.386 1.257,-0.466 1.441,0.611 0.183,1.067 0.544,2.104 0.813,3.158 0.159,0.621 0.428,0.931 1.15,0.692 0.648,-0.212 0.881,-0.475 0.642,-1.18 -0.302,-0.889 -0.529,-1.81 -0.7,-2.732 -0.126,-0.676 -0.862,-1.73 -0.103,-1.966 0.878,-0.272 0.708,1.03 0.992,1.63 0.26,0.545 0.406,1.011 1.137,0.7 0.621,-0.263 1.071,-0.503 0.721,-1.374 -0.431,-1.074 -0.678,-2.224 -0.982,-3.347 -0.165,-0.61 -0.42,-1.204 -0.019,-1.856 0.536,-0.873 0.988,-1.796 1.475,-2.697 0.334,0.341 0.667,0.682 1.002,1.021 0.117,0.193 0.235,0.387 0.354,0.579 0.128,0.659 0.581,1.142 0.917,1.692 -0.614,1.533 -0.383,3.302 -1.441,4.748 -0.376,0.515 0.286,0.938 0.862,1.073 0.488,0.114 1.054,0.514 1.227,-0.425 0.233,-1.258 0.536,-2.502 0.817,-3.75 0.085,-0.38 0.127,-0.822 0.73,-0.486 1.142,0.638 2.519,0.363 3.69,0.922 0.509,0.242 0.92,0.244 1.068,-0.493 0.131,-0.649 0.208,-1.103 -0.64,-1.291 -1.543,-0.343 -3.063,-0.783 -4.593,-1.183 -0.689,-1.203 -1.66,-2.255 -1.97,-3.662 3.032,-0.575 5.191,0.85 7.011,3.061 0.093,0.113 0.258,0.17 0.338,0.287 0.438,0.633 0.857,0.473 1.345,0.041 0.568,-0.5 0.427,-0.902 -0.061,-1.346 -0.841,-0.768 -1.62,-1.613 -2.513,-2.314 -0.617,-0.484 -0.536,-0.824 -0.064,-1.285 0.85,-0.831 1.694,-1.668 2.534,-2.511 0.266,-0.263 0.708,-0.555 0.199,-0.946 z" />
        </g>
      </g>
      <g
         style="opacity:0.8"
         id="g6790">
        <g
           id="g6792">
          <path
             style="fill:#1c4781"
             inkscape:connector-curvature="0"
             id="path6794"
             d="m 102.299,3116.462 0.994,-2.005 c 0.275,-0.554 1.13,-0.688 1.91,-0.302 l 14.945,7.415 c 0.78,0.387 1.191,1.15 0.916,1.704 l -0.994,2.004 c -0.274,0.554 -1.13,0.689 -1.911,0.302 l -14.946,-7.414 c -0.779,-0.387 -1.189,-1.15 -0.914,-1.704 z" />
        </g>
        <g
           id="g6796">
          <path
             style="fill:#1c4781"
             inkscape:connector-curvature="0"
             id="path6798"
             d="m 113.846,3117.098 -0.924,-0.458 c -0.724,-0.358 -1.021,-1.237 -0.662,-1.962 l 1.223,-2.467 c 0.359,-0.724 1.239,-1.02 1.963,-0.66 l 0.924,0.458 c 0.724,0.359 1.02,1.238 0.661,1.962 l -1.223,2.467 c -0.359,0.724 -1.238,1.019 -1.962,0.66 z" />
        </g>
        <g
           id="g6800">
          <rect
             style="fill:#1c4781"
             id="rect6802"
             height="39.417999"
             width="3.27"
             transform="matrix(0.4443,-0.8959,0.8959,0.4443,-2765.4346,1804.8406)"
             y="3111.999"
             x="70.575996" />
        </g>
        <g
           id="g6804">
          <path
             style="fill:#1c4781"
             inkscape:connector-curvature="0"
             id="path6806"
             d="m 77.577,3181.322 -3.572,-1.771 0.718,-1.448 3.611,1.791 -0.702,1.456 -0.055,-0.028 z m -7.192,-3.567 -4.343,-2.155 0.718,-1.447 4.343,2.154 -0.718,1.448 z m -7.962,-3.95 -3.62,-1.796 0.718,-1.448 3.619,1.796 -0.717,1.448 z m -7.962,-3.951 -3.62,-1.795 0.718,-1.448 3.619,1.796 -0.717,1.447 z m -7.239,-3.591 -2.95,-1.464 c -0.548,-0.271 -1.042,-0.628 -1.47,-1.058 l 1.146,-1.14 c 0.303,0.304 0.654,0.557 1.042,0.75 l 2.95,1.463 -0.718,1.449 z m 35.828,14.758 -0.871,-1.362 c 0.601,-0.384 1.086,-0.926 1.404,-1.567 l 0.229,-0.46 c 0.119,-0.239 0.213,-0.489 0.28,-0.743 l 1.563,0.414 c -0.095,0.358 -0.228,0.711 -0.395,1.047 l -0.229,0.46 c -0.448,0.903 -1.134,1.668 -1.981,2.211 z m -41.857,-21.574 c 0.048,-0.734 0.239,-1.442 0.568,-2.105 l 0.228,-0.461 c 0.289,-0.582 0.671,-1.103 1.139,-1.549 l 1.116,1.169 c -0.331,0.315 -0.602,0.686 -0.806,1.099 l -0.229,0.46 c -0.233,0.471 -0.368,0.973 -0.402,1.492 l -1.614,-0.105 z m 44.229,14.121 -1.447,-0.719 1.628,-3.282 2.509,1.245 -0.718,1.448 -1.062,-0.526 -0.91,1.834 z m -36.662,-18.759 -1.448,-0.718 1.795,-3.62 1.448,0.719 -1.795,3.619 z m 43.046,19.64 -0.792,-0.393 0.359,-0.725 -0.655,-0.325 1.761,-3.551 1.448,0.718 -2.121,4.276 z m -39.455,-26.881 -1.448,-0.718 0.173,-0.349 c -0.371,-1.263 -0.654,-2.555 -0.844,-3.845 l 1.599,-0.235 c 0.194,1.315 0.491,2.634 0.884,3.917 l 0.094,0.308 -0.458,0.922 z m 43.73,18.262 -1.448,-0.719 1.622,-3.27 0.167,-0.117 c 0.157,-0.111 0.312,-0.224 0.465,-0.338 l 0.966,1.295 c -0.109,0.082 -0.22,0.163 -0.331,0.243 l -1.441,2.906 z m -46.144,-27.321 c 0.007,-1.389 0.121,-2.784 0.339,-4.147 l 1.596,0.256 c -0.206,1.281 -0.313,2.594 -0.319,3.899 l -1.616,-0.01 z m 51.053,21.441 -1.153,-1.133 c 1.094,-1.114 2.088,-2.339 2.955,-3.642 l 1.345,0.896 c -0.923,1.387 -1.982,2.693 -3.147,3.879 z m -51.179,-28.534 -2.309,-1.146 1.368,-2.759 1.448,0.719 -0.65,1.311 0.862,0.428 -0.719,1.447 z m 57.511,24.916 -1.448,-0.719 1.795,-3.62 1.448,0.719 -1.795,3.62 z m -56.594,-31.256 -1.448,-0.718 2.154,-4.345 1.448,0.719 -2.154,4.344 z m 60.544,23.291 -1.448,-0.718 1.795,-3.62 1.448,0.718 -1.795,3.62 z m -22.772,-13.176 -3.619,-1.796 0.718,-1.448 3.619,1.796 -0.718,1.448 z m -7.962,-3.951 -3.619,-1.795 0.718,-1.448 3.619,1.796 -0.718,1.447 z m -7.239,-3.591 -4.343,-2.154 0.718,-1.448 4.343,2.154 -0.718,1.448 z m -7.962,-3.95 -3.619,-1.796 0.718,-1.448 3.62,1.796 -0.719,1.448 z m -7.962,-3.95 -3.619,-1.796 0.718,-1.448 3.619,1.796 -0.718,1.448 z m 34.983,14.366 -1.448,-0.718 2.154,-4.345 1.448,0.719 -2.154,4.344 z m 22.505,7.012 -1.448,-0.719 2.154,-4.344 1.448,0.719 -2.154,4.344 z m -18.555,-14.976 -1.448,-0.718 1.795,-3.621 1.448,0.719 -1.795,3.62 z m 22.505,7.011 -1.448,-0.718 1.795,-3.62 1.448,0.719 -1.795,3.619 z m -20.578,-15.195 c -0.258,-1.14 -0.123,-2.289 0.391,-3.327 l 0.523,-1.054 1.448,0.719 -0.523,1.054 c -0.347,0.7 -0.438,1.479 -0.263,2.25 l -1.576,0.358 z m 25.825,8.494 -1.448,-0.719 0.677,-1.364 c 0.304,-0.612 0.413,-1.295 0.315,-1.974 l 1.599,-0.23 c 0.145,1.004 -0.017,2.015 -0.466,2.922 l -0.677,1.365 z m -21.273,-14.717 -0.63,-1.488 c 1.513,-0.641 3.287,-0.558 4.867,0.227 l 0.463,0.229 -0.718,1.448 -0.463,-0.229 c -1.159,-0.576 -2.441,-0.643 -3.519,-0.187 z m 19.023,7.926 c -0.177,-0.119 -0.364,-0.229 -0.558,-0.324 l -3.302,-1.639 1.234,-2.489 1.448,0.718 -0.516,1.042 1.854,0.92 c 0.258,0.128 0.508,0.273 0.745,0.434 l -0.905,1.338 z m -10.923,-7.813 -1.448,-0.718 0.372,-0.75 c 0.558,-1.125 1.492,-2.037 2.632,-2.567 l 0.682,1.465 c -0.819,0.382 -1.465,1.011 -1.866,1.82 l -0.372,0.75 z m 8.53,0.09 c -0.351,-0.947 -1.042,-1.716 -1.944,-2.163 l -0.403,-0.2 0.718,-1.448 0.404,0.2 c 1.272,0.631 2.246,1.714 2.741,3.049 l -1.516,0.562 z" />
        </g>
        <g
           id="g6808">
          <path
             style="fill:#1c4781"
             inkscape:connector-curvature="0"
             id="path6810"
             d="m 57.035,3127.35 -2.816,-1.397 -1.224,2.468 2.816,1.396 c -2.33,5.516 -2.301,11.545 -0.319,17.006 l -6.019,12.137 -1.85,-0.918 c -0.724,-0.359 -1.603,-0.063 -1.962,0.662 l -0.229,0.461 c -0.359,0.725 -0.063,1.603 0.66,1.962 l 33.305,16.523 c 0.724,0.359 1.601,0.063 1.96,-0.662 l 0.229,-0.46 c 0.359,-0.725 0.064,-1.604 -0.659,-1.963 l -0.462,-0.229 4.016,-8.097 5.474,2.716 3.098,-6.247 -1.753,-0.87 c 4.616,-2.161 8.498,-5.756 10.878,-10.555 l 2.466,1.224 12.981,-26.177 -14.955,-7.419 -12.37,24.942 -29.452,-14.611 -3.813,-1.892 z m 37.341,15.354 9.676,-19.511 1.735,0.861 -9.676,19.51 -1.735,-0.86 z m -11.742,12.345 c 5.014,-1.31 9.471,-4.644 12.059,-9.564 -0.066,0.138 -0.125,0.277 -0.193,0.414 -2.608,5.26 -7.222,8.863 -12.457,10.344 l 0.591,-1.194 z m -25.103,-23.899 1.811,0.898 c -1.41,5.697 -0.078,11.67 3.414,16.205 l -1.031,2.078 c -4.584,-5.136 -6.285,-12.417 -4.194,-19.181 z" />
        </g>
      </g>
    </g>
  </g>
</svg>
