<?xml version="1.0" encoding="UTF-8" standalone="no"?>
<!-- Created with Inkscape (http://www.inkscape.org/) -->

<svg
   xmlns:dc="http://purl.org/dc/elements/1.1/"
   xmlns:cc="http://creativecommons.org/ns#"
   xmlns:rdf="http://www.w3.org/1999/02/22-rdf-syntax-ns#"
   xmlns:svg="http://www.w3.org/2000/svg"
   xmlns="http://www.w3.org/2000/svg"
   xmlns:sodipodi="http://sodipodi.sourceforge.net/DTD/sodipodi-0.dtd"
   xmlns:inkscape="http://www.inkscape.org/namespaces/inkscape"
   width="44mm"
   height="199mm"
   viewBox="0 0 155.90551 705.11811"
   id="svg12793"
   version="1.1"
   inkscape:version="0.91 r13725"
   sodipodi:docname="section-4-bg-right.svg">
  <defs
     id="defs12795" />
  <sodipodi:namedview
     id="base"
     pagecolor="#ffffff"
     bordercolor="#666666"
     borderopacity="1.0"
     inkscape:pageopacity="0.0"
     inkscape:pageshadow="2"
     inkscape:zoom="0.35"
     inkscape:cx="-80.512009"
     inkscape:cy="585.13454"
     inkscape:document-units="px"
     inkscape:current-layer="layer1"
     showgrid="false"
     fit-margin-top="0"
     fit-margin-left="0"
     fit-margin-right="0"
     fit-margin-bottom="0"
     inkscape:window-width="1366"
     inkscape:window-height="745"
     inkscape:window-x="-8"
     inkscape:window-y="-8"
     inkscape:window-maximized="1" />
  <metadata
     id="metadata12798">
    <rdf:RDF>
      <cc:Work
         rdf:about="">
        <dc:format>image/svg+xml</dc:format>
        <dc:type
           rdf:resource="http://purl.org/dc/dcmitype/StillImage" />
        <dc:title></dc:title>
      </cc:Work>
    </rdf:RDF>
  </metadata>
  <g
     inkscape:label="Layer 1"
     inkscape:groupmode="layer"
     id="layer1"
     transform="translate(78.7737,-1098.093)">
    <g
       transform="translate(-1223.1922,-1377.8834)"
       id="g12392">
      <g
         id="g6286">
        <g
           id="g6288">
          <path
             style="fill:#1c4781"
             inkscape:connector-curvature="0"
             id="path6290"
             d="m 1177.023,2498.524 c -0.49,-0.144 -0.741,-0.085 -0.854,0.472 -0.264,1.296 -0.58,2.581 -0.88,3.869 -0.107,0.459 -0.224,0.793 0.504,0.915 0.647,0.108 0.77,-0.097 0.858,-0.612 0.108,-0.609 0.265,-1.211 0.472,-2.135 0.547,0.911 0.881,1.582 1.329,2.163 0.229,0.298 0.206,1.087 1.064,0.602 0.821,-0.466 0.383,-0.822 0.139,-1.294 -0.283,-0.549 -1.022,-1.125 -0.773,-1.618 0.272,-0.538 1.051,0.06 1.616,0.069 0.578,0.011 0.743,-0.061 0.871,-0.603 0.133,-0.568 -0.099,-0.698 -0.572,-0.813 -1.265,-0.31 -2.523,-0.65 -3.774,-1.015 z" />
        </g>
        <g
           id="g6292">
          <path
             style="fill:#1c4781"
             inkscape:connector-curvature="0"
             id="path6294"
             d="m 1165.682,2481.641 c 0.621,0.193 0.756,-0.058 0.861,-0.594 0.243,-1.217 0.497,-2.437 0.848,-3.626 0.165,-0.563 0.182,-0.823 -0.453,-1.032 -0.731,-0.24 -0.803,0.161 -0.898,0.676 -0.106,0.573 -0.247,1.141 -0.373,1.712 -0.092,0.015 -0.184,0.03 -0.274,0.045 -0.418,-0.696 -0.862,-1.379 -1.247,-2.091 -0.275,-0.512 -0.581,-0.581 -1.073,-0.295 -0.546,0.316 -0.309,0.662 -0.106,1.025 0.146,0.259 0.309,0.51 0.448,0.772 0.216,0.409 0.801,0.869 0.451,1.252 -0.35,0.383 -0.947,-0.093 -1.436,-0.19 -0.034,-0.01 -0.065,-0.034 -0.093,-0.057 -0.405,-0.336 -0.732,-0.355 -0.91,0.225 -0.156,0.517 -0.313,0.968 0.491,1.146 1.269,0.282 2.522,0.645 3.764,1.032 z" />
        </g>
        <g
           id="g6296">
          <path
             style="fill:#1c4781"
             inkscape:connector-curvature="0"
             id="path6298"
             d="m 1186.443,2489.123 c -0.832,0.045 -1.667,0.026 -2.709,0.037 0.602,-0.615 1.023,-1.063 1.461,-1.491 0.334,-0.327 0.631,-0.566 0.14,-1.073 -0.475,-0.492 -0.783,-0.252 -1.108,0.061 -0.937,0.899 -1.856,1.815 -2.769,2.738 -0.263,0.267 -0.478,0.508 -0.027,0.893 1.041,0.893 2.033,1.844 3.016,2.803 0.385,0.375 0.638,0.361 0.997,-0.031 0.37,-0.403 0.313,-0.695 -0.068,-1.014 -0.313,-0.263 -0.618,-0.533 -0.917,-0.813 -0.132,-0.123 -0.316,-0.283 -0.197,-0.463 0.086,-0.131 0.37,-0.288 0.445,-0.24 0.627,0.394 1.201,-0.184 1.797,-0.064 0.569,0.113 0.891,-0.236 0.894,-0.678 10e-4,-0.521 -0.425,-0.694 -0.955,-0.665 z" />
        </g>
        <g
           id="g6300">
          <path
             style="fill:#1c4781"
             inkscape:connector-curvature="0"
             id="path6302"
             d="m 1155.879,2491.021 c 0.43,0.064 0.827,0.067 1.261,0 0.361,-0.06 0.811,-0.192 1.106,0.097 0.123,0.325 0.124,0.563 -0.116,0.768 -0.254,0.216 -0.469,0.479 -0.728,0.689 -0.415,0.333 -0.422,0.593 -0.016,0.979 0.397,0.381 0.645,0.338 1.001,-0.028 0.934,-0.954 1.893,-1.884 2.848,-2.817 0.268,-0.26 0.453,-0.51 0.096,-0.833 -1.069,-0.97 -2.149,-1.927 -3.198,-2.916 -0.451,-0.425 -0.618,-0.021 -0.894,0.204 -0.353,0.285 -0.296,0.515 -0.026,0.826 0.439,0.507 1.51,0.911 1.21,1.484 -0.255,0.489 -1.37,0.133 -2.101,0.202 -0.11,0.011 -0.224,0.013 -0.335,0 -0.364,-0.035 -0.593,0.095 -0.54,0.49 0.042,0.325 -0.168,0.768 0.432,0.857 z" />
        </g>
        <g
           id="g6304">
          <path
             style="fill:#1c4781"
             inkscape:connector-curvature="0"
             id="path6306"
             d="m 1177.006,2481.438 c 1.053,-0.447 2.09,-0.828 3.242,-0.96 0.344,-0.039 0.977,-0.304 0.736,-1.086 -0.227,-0.736 -0.555,-0.612 -1.055,-0.375 -0.295,0.139 -0.627,0.212 -0.949,0.28 -0.205,0.043 -0.562,0.098 -0.606,0.015 -0.107,-0.196 -0.147,-0.449 0.037,-0.711 0.34,-0.48 0.585,-1.027 0.91,-1.52 0.325,-0.489 0.072,-0.706 -0.318,-0.96 -0.444,-0.289 -0.646,-0.119 -0.856,0.281 -0.412,0.787 -0.861,1.553 -1.388,2.491 -0.218,-0.752 -0.349,-1.325 -0.55,-1.874 -0.134,-0.367 0.068,-1.04 -0.814,-0.805 -0.771,0.206 -0.673,0.605 -0.523,1.144 0.322,1.163 0.686,2.319 0.924,3.499 0.167,0.833 0.788,0.76 1.21,0.581 z" />
        </g>
        <g
           id="g6308">
          <path
             style="fill:#1c4781"
             inkscape:connector-curvature="0"
             id="path6310"
             d="m 1174.961,2484.29 c 1.241,-0.511 2.53,-0.877 3.849,-1.122 0.963,-0.179 0.753,-0.793 0.552,-1.483 -0.106,-0.262 -0.345,-0.216 -0.615,-0.126 -0.668,0.223 -1.358,0.388 -2.006,0.657 -0.876,0.362 -1.437,0.324 -1.574,-0.798 -0.086,-0.693 -0.335,-1.366 -0.507,-2.049 -0.113,-0.449 -0.311,-0.588 -0.795,-0.387 -0.35,0.146 -0.733,0.09 -0.568,0.674 0.404,1.424 0.763,2.861 1.148,4.291 0.066,0.247 0.118,0.507 0.516,0.343 z" />
        </g>
        <g
           id="g6312">
          <path
             style="fill:#1c4781"
             inkscape:connector-curvature="0"
             id="path6314"
             d="m 1167.408,2484.262 c 0.219,0.058 0.516,0.289 0.616,-0.143 0.353,-1.521 0.694,-3.043 1.036,-4.566 0.016,-0.068 -0.011,-0.145 -0.02,-0.237 -0.235,-0.26 -0.585,-0.276 -0.901,-0.342 -0.375,-0.078 -0.4,0.239 -0.456,0.489 -0.199,0.869 -0.417,1.736 -0.581,2.612 -0.094,0.502 -0.314,0.793 -0.793,0.491 -0.782,-0.494 -1.708,-0.362 -2.517,-0.681 -0.5,-0.197 -0.756,-0.08 -0.866,0.45 -0.095,0.456 -0.072,0.738 0.492,0.871 1.34,0.313 2.66,0.705 3.99,1.056 z" />
        </g>
        <g
           id="g6316">
          <path
             style="fill:#1c4781"
             inkscape:connector-curvature="0"
             id="path6318"
             d="m 1162.203,2489.697 c 0.544,0.431 0.456,0.715 -0.01,1.126 -0.637,0.567 -1.218,1.197 -1.825,1.8 -0.214,0.211 -0.511,0.428 -0.081,0.688 0.297,0.181 0.462,0.806 1.243,0.104 0.808,-0.798 1.864,-1.84 2.917,-2.885 0.372,-0.37 0.048,-0.57 -0.201,-0.798 -0.979,-0.9 -1.958,-1.8 -2.925,-2.714 -0.358,-0.338 -0.653,-0.501 -1.104,-0.082 -0.559,0.52 -0.062,0.808 0.201,1.086 0.558,0.592 1.145,1.169 1.781,1.675 z" />
        </g>
        <g
           id="g6320">
          <path
             style="fill:#1c4781"
             inkscape:connector-curvature="0"
             id="path6322"
             d="m 1180.602,2490.563 c -0.5,-0.455 -0.593,-0.846 0.019,-1.342 0.601,-0.485 1.09,-1.106 1.647,-1.647 0.318,-0.31 0.414,-0.521 0.019,-0.891 -0.376,-0.353 -0.639,-0.438 -1.014,-0.058 -0.986,1.002 -1.967,2.012 -2.983,2.983 -0.361,0.345 -0.221,0.483 0.077,0.748 1.051,0.934 2.089,1.884 3.088,2.872 0.292,0.288 0.62,0.383 0.782,0.104 0.156,-0.271 0.747,-0.563 0.248,-1.042 -0.629,-0.577 -1.255,-1.153 -1.883,-1.727 z" />
        </g>
        <g
           id="g6324">
          <path
             style="fill:#1c4781"
             inkscape:connector-curvature="0"
             id="path6326"
             d="m 1175.405,2495.869 c -0.512,-0.186 -0.66,-0.2 -0.772,0.334 -0.291,1.378 -0.62,2.748 -0.918,4.123 -0.046,0.216 -0.277,0.5 0.124,0.648 0.309,0.113 0.616,0.235 0.778,0.297 0.426,-0.243 0.362,-0.493 0.41,-0.699 0.185,-0.797 0.429,-1.585 0.532,-2.392 0.095,-0.743 0.396,-0.794 1.017,-0.581 0.806,0.277 1.649,0.441 2.463,0.696 0.431,0.135 0.64,0.038 0.674,-0.415 0.025,-0.348 0.382,-0.729 -0.352,-0.888 -1.339,-0.285 -2.67,-0.657 -3.956,-1.123 z" />
        </g>
        <g
           id="g6328">
          <path
             style="fill:#1c4781"
             inkscape:connector-curvature="0"
             id="path6330"
             d="m 1179.346,2486.898 c -0.279,-0.215 -0.46,-0.792 -0.982,-0.379 -0.279,0.221 -0.604,0.328 -0.846,0.669 -0.485,0.683 -1.064,1.334 -1.72,1.855 -0.76,0.604 -1.632,0.401 -2.355,-0.14 -0.727,-0.545 -0.121,-1.136 0.185,-1.539 0.395,-0.52 1.014,-1.02 1.662,-1.025 0.946,-0.01 1.603,-0.647 2.452,-0.838 0.63,-0.143 0.225,-0.683 0.147,-1.027 -0.099,-0.45 -0.485,-0.326 -0.703,-0.155 -0.741,0.582 -1.699,0.368 -2.491,0.739 -0.447,0.209 -0.563,0.196 -0.744,-0.42 -0.233,-0.794 -0.549,-1.583 -0.706,-2.402 -0.148,-0.773 -0.728,-0.806 -1.227,-0.703 -0.684,0.141 -0.234,0.658 -0.137,0.981 0.612,2.027 1.318,4.051 -0.378,5.925 -0.041,0.045 -0.12,0.055 -0.181,0.08 -1.646,-2.19 -1.66,-2.271 -1.018,-4.852 0.117,-0.467 0.21,-0.938 0.316,-1.406 0.143,-0.636 -0.406,-0.468 -0.693,-0.596 -0.326,-0.146 -0.57,-0.113 -0.629,0.314 -0.036,0.257 -0.107,0.51 -0.167,0.764 -0.639,2.702 -0.634,2.686 -3.285,1.922 -0.452,-0.131 -1.114,-0.701 -1.403,0.178 -0.307,0.926 0.5,0.95 1.075,1.119 0.179,0.052 0.366,0.079 0.539,0.144 1.445,0.535 3.112,0.706 3.685,2.569 0.177,0.582 0.085,0.772 -0.437,0.795 -1.256,0.057 -2.501,0.134 -3.381,-1.102 -0.38,-0.531 -1.005,-0.883 -1.456,-1.372 -0.406,-0.44 -0.683,-0.408 -1.087,0.01 -0.424,0.436 -0.205,0.701 0.119,0.998 0.546,0.501 1.077,1.021 1.646,1.496 0.53,0.443 0.81,0.775 0.046,1.32 -0.593,0.424 -1.052,1.039 -1.554,1.585 -0.24,0.263 -0.757,0.438 -0.209,0.951 0.443,0.415 0.757,0.504 1.186,0.024 0.469,-0.524 0.964,-1.029 1.473,-1.516 0.779,-0.744 1.676,-1.191 2.802,-1.087 0.784,0.073 0.964,0.339 0.69,1.142 -0.531,1.563 -1.838,1.93 -3.17,2.209 -1.242,0.26 -2.102,0.708 -1.843,2.175 1.124,-0.745 2.462,-0.792 3.708,-1.142 0.234,-0.065 0.342,0.049 0.431,0.218 0.113,0.212 0.01,0.365 -0.188,0.423 -1.163,0.339 -2.327,0.676 -3.498,0.984 -0.248,0.066 -0.366,-0.191 -0.485,-0.374 -0.269,0.249 -0.502,0.556 -0.811,0.734 -0.445,0.257 -0.829,0.494 -0.582,1.085 0.25,0.598 0.723,0.339 1.141,0.271 0.199,-0.032 0.451,-0.226 0.555,0.101 0.095,0.304 -0.229,0.316 -0.387,0.438 -0.643,0.493 -1.444,0.562 -2.173,0.825 -0.374,0.135 -0.795,0.228 -0.569,0.846 0.17,0.471 0.228,0.865 0.874,0.529 0.305,-0.157 0.726,0.141 1.047,-0.171 0.15,-0.146 0.341,-0.349 0.556,-0.104 0.172,0.195 0.059,0.447 -0.023,0.629 -0.23,0.506 -0.498,0.997 -0.779,1.477 -0.224,0.379 -0.272,0.648 0.2,0.894 0.431,0.224 0.684,0.282 0.972,-0.23 0.403,-0.722 0.707,-1.52 1.324,-2.17 0.463,0.576 0.482,1.227 0.637,1.825 0.125,0.484 0.341,0.686 0.868,0.535 0.495,-0.141 0.647,-0.354 0.495,-0.876 -0.332,-1.14 -0.623,-2.292 -0.89,-3.448 -0.174,-0.756 -0.422,-1.286 -1.315,-0.774 -0.136,0.078 -0.286,0.122 -0.389,-0.027 -0.145,-0.21 0,-0.333 0.172,-0.433 0.287,-0.168 0.57,-0.346 0.864,-0.502 0.54,-0.288 0.941,-0.349 1.08,0.459 0.137,0.8 0.407,1.576 0.608,2.366 0.12,0.466 0.321,0.697 0.862,0.52 0.486,-0.159 0.661,-0.356 0.481,-0.885 -0.227,-0.666 -0.396,-1.356 -0.525,-2.048 -0.094,-0.507 -0.646,-1.297 -0.077,-1.474 0.658,-0.204 0.531,0.773 0.744,1.222 0.194,0.408 0.304,0.758 0.852,0.525 0.466,-0.197 0.803,-0.377 0.541,-1.029 -0.323,-0.806 -0.508,-1.667 -0.736,-2.509 -0.124,-0.457 -0.315,-0.902 -0.015,-1.392 0.402,-0.654 0.74,-1.346 1.105,-2.021 0.25,0.256 0.5,0.511 0.751,0.766 0.087,0.145 0.176,0.29 0.265,0.434 0.097,0.494 0.436,0.856 0.688,1.269 -0.461,1.149 -0.287,2.475 -1.08,3.56 -0.282,0.385 0.215,0.702 0.646,0.803 0.366,0.087 0.79,0.386 0.92,-0.317 0.175,-0.942 0.401,-1.875 0.612,-2.811 0.063,-0.284 0.095,-0.616 0.547,-0.364 0.855,0.478 1.888,0.272 2.766,0.69 0.381,0.182 0.689,0.183 0.801,-0.37 0.099,-0.486 0.156,-0.826 -0.479,-0.967 -1.156,-0.258 -2.296,-0.587 -3.442,-0.887 -0.517,-0.901 -1.244,-1.689 -1.477,-2.744 2.272,-0.431 3.891,0.637 5.255,2.294 0.069,0.085 0.193,0.127 0.253,0.216 0.328,0.473 0.643,0.354 1.008,0.03 0.427,-0.375 0.32,-0.677 -0.045,-1.01 -0.631,-0.575 -1.214,-1.208 -1.884,-1.733 -0.462,-0.363 -0.401,-0.617 -0.048,-0.963 0.637,-0.623 1.27,-1.251 1.898,-1.883 0.199,-0.201 0.53,-0.42 0.149,-0.712 z" />
        </g>
      </g>
      <g
         id="g6332">
        <g
           id="g6334">
          <path
             style="fill:#1c4781"
             inkscape:connector-curvature="0"
             id="path6336"
             d="m 1254.5,2720.582 c -0.49,-0.144 -0.741,-0.086 -0.854,0.471 -0.264,1.297 -0.58,2.582 -0.88,3.87 -0.107,0.458 -0.224,0.792 0.504,0.915 0.647,0.108 0.77,-0.098 0.858,-0.612 0.108,-0.61 0.265,-1.211 0.472,-2.135 0.548,0.911 0.881,1.581 1.329,2.163 0.229,0.298 0.206,1.087 1.064,0.601 0.821,-0.465 0.383,-0.821 0.139,-1.294 -0.283,-0.549 -1.022,-1.125 -0.773,-1.617 0.272,-0.538 1.051,0.059 1.616,0.068 0.578,0.012 0.743,-0.06 0.871,-0.603 0.133,-0.568 -0.099,-0.697 -0.572,-0.813 -1.265,-0.311 -2.523,-0.65 -3.774,-1.014 z" />
        </g>
        <g
           id="g6338">
          <path
             style="fill:#1c4781"
             inkscape:connector-curvature="0"
             id="path6340"
             d="m 1243.158,2703.698 c 0.621,0.193 0.755,-0.058 0.861,-0.595 0.243,-1.217 0.497,-2.436 0.848,-3.625 0.165,-0.563 0.182,-0.823 -0.453,-1.033 -0.731,-0.24 -0.803,0.162 -0.898,0.676 -0.106,0.574 -0.247,1.142 -0.373,1.713 -0.092,0.015 -0.184,0.03 -0.274,0.045 -0.418,-0.696 -0.862,-1.379 -1.247,-2.092 -0.275,-0.512 -0.581,-0.58 -1.073,-0.295 -0.546,0.317 -0.309,0.662 -0.106,1.025 0.146,0.26 0.309,0.511 0.448,0.773 0.216,0.408 0.801,0.869 0.451,1.252 -0.351,0.383 -0.947,-0.094 -1.436,-0.191 -0.034,-0.01 -0.065,-0.033 -0.093,-0.057 -0.405,-0.335 -0.732,-0.355 -0.91,0.226 -0.156,0.517 -0.313,0.967 0.491,1.146 1.269,0.281 2.523,0.645 3.764,1.032 z" />
        </g>
        <g
           id="g6342">
          <path
             style="fill:#1c4781"
             inkscape:connector-curvature="0"
             id="path6344"
             d="m 1263.92,2711.18 c -0.832,0.046 -1.667,0.026 -2.709,0.038 0.602,-0.615 1.023,-1.063 1.461,-1.491 0.334,-0.327 0.631,-0.566 0.14,-1.073 -0.475,-0.492 -0.783,-0.253 -1.108,0.061 -0.937,0.899 -1.856,1.815 -2.769,2.738 -0.264,0.267 -0.478,0.507 -0.028,0.892 1.042,0.893 2.034,1.845 3.017,2.803 0.385,0.375 0.638,0.361 0.997,-0.031 0.37,-0.403 0.313,-0.694 -0.068,-1.014 -0.313,-0.262 -0.618,-0.533 -0.917,-0.812 -0.132,-0.123 -0.316,-0.283 -0.197,-0.464 0.086,-0.13 0.37,-0.287 0.444,-0.24 0.628,0.395 1.202,-0.184 1.798,-0.063 0.569,0.112 0.891,-0.236 0.893,-0.678 0,-0.522 -0.425,-0.695 -0.954,-0.666 z" />
        </g>
        <g
           id="g6346">
          <path
             style="fill:#1c4781"
             inkscape:connector-curvature="0"
             id="path6348"
             d="m 1233.355,2713.078 c 0.43,0.064 0.827,0.067 1.262,0 0.36,-0.059 0.81,-0.191 1.105,0.098 0.123,0.325 0.124,0.563 -0.116,0.767 -0.254,0.216 -0.469,0.48 -0.728,0.69 -0.415,0.333 -0.422,0.592 -0.017,0.979 0.397,0.382 0.646,0.339 1.002,-0.028 0.934,-0.954 1.893,-1.883 2.848,-2.816 0.268,-0.261 0.453,-0.51 0.096,-0.833 -1.069,-0.97 -2.149,-1.927 -3.198,-2.916 -0.451,-0.425 -0.618,-0.021 -0.895,0.203 -0.353,0.285 -0.295,0.516 -0.025,0.826 0.439,0.508 1.51,0.912 1.21,1.484 -0.255,0.49 -1.369,0.133 -2.101,0.203 -0.11,0.01 -0.224,0.012 -0.335,10e-4 -0.364,-0.035 -0.593,0.096 -0.54,0.491 0.043,0.324 -0.167,0.765 0.432,0.855 z" />
        </g>
        <g
           id="g6350">
          <path
             style="fill:#1c4781"
             inkscape:connector-curvature="0"
             id="path6352"
             d="m 1254.482,2703.495 c 1.052,-0.448 2.09,-0.829 3.242,-0.96 0.344,-0.039 0.977,-0.305 0.736,-1.086 -0.228,-0.737 -0.556,-0.612 -1.055,-0.376 -0.295,0.14 -0.627,0.213 -0.949,0.28 -0.205,0.043 -0.562,0.099 -0.606,0.016 -0.107,-0.197 -0.147,-0.449 0.037,-0.711 0.339,-0.48 0.584,-1.027 0.91,-1.52 0.325,-0.49 0.071,-0.707 -0.318,-0.96 -0.445,-0.29 -0.646,-0.119 -0.856,0.281 -0.412,0.786 -0.861,1.552 -1.388,2.49 -0.218,-0.752 -0.349,-1.325 -0.55,-1.874 -0.134,-0.367 0.068,-1.039 -0.814,-0.804 -0.771,0.205 -0.673,0.605 -0.523,1.144 0.322,1.162 0.686,2.318 0.924,3.498 0.167,0.835 0.789,0.761 1.21,0.582 z" />
        </g>
        <g
           id="g6354">
          <path
             style="fill:#1c4781"
             inkscape:connector-curvature="0"
             id="path6356"
             d="m 1252.438,2706.348 c 1.24,-0.512 2.53,-0.877 3.849,-1.122 0.963,-0.179 0.753,-0.793 0.552,-1.483 -0.106,-0.263 -0.345,-0.217 -0.615,-0.127 -0.668,0.223 -1.358,0.389 -2.006,0.658 -0.876,0.362 -1.437,0.324 -1.574,-0.799 -0.086,-0.693 -0.335,-1.365 -0.507,-2.048 -0.113,-0.45 -0.311,-0.588 -0.795,-0.387 -0.35,0.146 -0.733,0.09 -0.568,0.673 0.404,1.424 0.763,2.862 1.148,4.292 0.065,0.247 0.118,0.507 0.516,0.343 z" />
        </g>
        <g
           id="g6358">
          <path
             style="fill:#1c4781"
             inkscape:connector-curvature="0"
             id="path6360"
             d="m 1244.884,2706.319 c 0.22,0.058 0.517,0.289 0.617,-0.144 0.353,-1.52 0.694,-3.043 1.036,-4.566 0.016,-0.067 -0.011,-0.145 -0.02,-0.237 -0.236,-0.259 -0.585,-0.276 -0.901,-0.342 -0.375,-0.077 -0.4,0.24 -0.456,0.489 -0.2,0.869 -0.417,1.736 -0.581,2.613 -0.094,0.502 -0.315,0.793 -0.794,0.49 -0.781,-0.493 -1.707,-0.362 -2.516,-0.68 -0.5,-0.197 -0.756,-0.08 -0.866,0.45 -0.095,0.456 -0.072,0.738 0.492,0.87 1.339,0.314 2.66,0.706 3.989,1.057 z" />
        </g>
        <g
           id="g6362">
          <path
             style="fill:#1c4781"
             inkscape:connector-curvature="0"
             id="path6364"
             d="m 1239.68,2711.754 c 0.544,0.432 0.456,0.715 -0.01,1.127 -0.637,0.567 -1.218,1.197 -1.825,1.799 -0.214,0.211 -0.511,0.428 -0.081,0.688 0.297,0.181 0.462,0.806 1.243,0.103 0.807,-0.797 1.864,-1.839 2.917,-2.885 0.372,-0.37 0.048,-0.569 -0.201,-0.798 -0.979,-0.899 -1.958,-1.8 -2.925,-2.713 -0.358,-0.339 -0.653,-0.501 -1.104,-0.082 -0.56,0.52 -0.062,0.808 0.201,1.085 0.558,0.593 1.145,1.171 1.781,1.676 z" />
        </g>
        <g
           id="g6366">
          <path
             style="fill:#1c4781"
             inkscape:connector-curvature="0"
             id="path6368"
             d="m 1258.078,2712.62 c -0.5,-0.456 -0.594,-0.847 0.019,-1.342 0.601,-0.486 1.09,-1.106 1.647,-1.647 0.318,-0.311 0.414,-0.521 0.019,-0.891 -0.376,-0.353 -0.639,-0.438 -1.014,-0.059 -0.986,1.003 -1.967,2.012 -2.983,2.984 -0.361,0.344 -0.221,0.482 0.077,0.748 1.051,0.934 2.089,1.883 3.088,2.871 0.292,0.289 0.62,0.384 0.782,0.104 0.156,-0.271 0.747,-0.564 0.248,-1.042 -0.628,-0.575 -1.254,-1.152 -1.883,-1.726 z" />
        </g>
        <g
           id="g6370">
          <path
             style="fill:#1c4781"
             inkscape:connector-curvature="0"
             id="path6372"
             d="m 1252.882,2717.926 c -0.512,-0.186 -0.66,-0.2 -0.773,0.335 -0.29,1.377 -0.619,2.747 -0.917,4.122 -0.046,0.217 -0.278,0.501 0.124,0.648 0.309,0.114 0.616,0.236 0.778,0.297 0.426,-0.243 0.362,-0.492 0.41,-0.699 0.185,-0.796 0.429,-1.584 0.531,-2.391 0.096,-0.743 0.397,-0.795 1.018,-0.581 0.806,0.277 1.649,0.441 2.463,0.696 0.431,0.134 0.64,0.037 0.673,-0.415 0.026,-0.349 0.383,-0.729 -0.351,-0.888 -1.339,-0.286 -2.67,-0.657 -3.956,-1.124 z" />
        </g>
        <g
           id="g6374">
          <path
             style="fill:#1c4781"
             inkscape:connector-curvature="0"
             id="path6376"
             d="m 1256.822,2708.955 c -0.279,-0.214 -0.46,-0.792 -0.982,-0.379 -0.279,0.222 -0.604,0.328 -0.846,0.669 -0.485,0.683 -1.064,1.335 -1.72,1.855 -0.76,0.604 -1.632,0.401 -2.355,-0.14 -0.727,-0.544 -0.121,-1.135 0.185,-1.539 0.395,-0.52 1.014,-1.02 1.662,-1.024 0.946,-0.01 1.603,-0.647 2.452,-0.838 0.63,-0.143 0.225,-0.683 0.147,-1.028 -0.099,-0.449 -0.485,-0.325 -0.703,-0.154 -0.741,0.582 -1.699,0.367 -2.491,0.738 -0.447,0.21 -0.563,0.197 -0.744,-0.42 -0.233,-0.793 -0.549,-1.582 -0.706,-2.401 -0.148,-0.774 -0.728,-0.806 -1.227,-0.703 -0.684,0.14 -0.234,0.657 -0.137,0.981 0.613,2.027 1.318,4.051 -0.378,5.925 -0.041,0.044 -0.12,0.055 -0.181,0.08 -1.646,-2.19 -1.66,-2.271 -1.018,-4.853 0.117,-0.466 0.209,-0.938 0.315,-1.406 0.144,-0.635 -0.405,-0.467 -0.692,-0.596 -0.326,-0.146 -0.57,-0.113 -0.629,0.315 -0.036,0.257 -0.107,0.509 -0.167,0.763 -0.639,2.703 -0.634,2.686 -3.285,1.922 -0.452,-0.13 -1.114,-0.7 -1.403,0.179 -0.307,0.926 0.5,0.95 1.075,1.119 0.179,0.052 0.365,0.079 0.539,0.143 1.445,0.536 3.112,0.706 3.685,2.57 0.177,0.582 0.085,0.771 -0.437,0.795 -1.256,0.057 -2.501,0.133 -3.381,-1.102 -0.38,-0.532 -1.004,-0.883 -1.456,-1.372 -0.406,-0.44 -0.683,-0.408 -1.087,0.01 -0.424,0.435 -0.205,0.701 0.119,0.998 0.546,0.501 1.077,1.021 1.646,1.495 0.53,0.443 0.81,0.776 0.046,1.321 -0.593,0.424 -1.052,1.039 -1.554,1.585 -0.24,0.262 -0.757,0.438 -0.209,0.951 0.443,0.414 0.757,0.504 1.186,0.024 0.469,-0.524 0.964,-1.029 1.473,-1.516 0.779,-0.744 1.676,-1.191 2.802,-1.087 0.784,0.073 0.964,0.339 0.69,1.142 -0.531,1.562 -1.838,1.929 -3.171,2.209 -1.241,0.26 -2.102,0.707 -1.842,2.175 1.124,-0.745 2.462,-0.792 3.707,-1.142 0.235,-0.065 0.343,0.049 0.433,0.218 0.112,0.212 0.01,0.365 -0.189,0.423 -1.162,0.339 -2.326,0.676 -3.497,0.984 -0.248,0.065 -0.366,-0.192 -0.485,-0.374 -0.269,0.249 -0.502,0.556 -0.811,0.733 -0.445,0.257 -0.829,0.495 -0.582,1.086 0.25,0.597 0.723,0.339 1.141,0.271 0.199,-0.033 0.451,-0.227 0.554,0.1 0.096,0.305 -0.228,0.316 -0.386,0.439 -0.643,0.493 -1.444,0.561 -2.173,0.824 -0.375,0.136 -0.795,0.229 -0.569,0.847 0.17,0.47 0.228,0.864 0.874,0.528 0.305,-0.157 0.726,0.142 1.047,-0.17 0.15,-0.146 0.341,-0.349 0.556,-0.104 0.172,0.194 0.059,0.447 -0.023,0.629 -0.23,0.505 -0.498,0.997 -0.779,1.477 -0.224,0.379 -0.272,0.648 0.2,0.894 0.431,0.223 0.684,0.282 0.972,-0.231 0.403,-0.721 0.707,-1.519 1.324,-2.169 0.463,0.576 0.482,1.227 0.637,1.824 0.125,0.485 0.341,0.686 0.868,0.535 0.495,-0.141 0.647,-0.354 0.495,-0.875 -0.332,-1.14 -0.623,-2.293 -0.89,-3.448 -0.174,-0.757 -0.422,-1.286 -1.315,-0.774 -0.136,0.077 -0.286,0.122 -0.389,-0.027 -0.145,-0.211 0,-0.334 0.172,-0.433 0.287,-0.169 0.57,-0.346 0.864,-0.502 0.54,-0.289 0.941,-0.35 1.08,0.458 0.137,0.801 0.407,1.577 0.608,2.367 0.12,0.465 0.321,0.697 0.862,0.52 0.485,-0.16 0.66,-0.357 0.481,-0.886 -0.227,-0.665 -0.396,-1.355 -0.525,-2.048 -0.095,-0.506 -0.646,-1.297 -0.077,-1.473 0.658,-0.205 0.531,0.772 0.744,1.221 0.194,0.409 0.304,0.758 0.852,0.525 0.466,-0.196 0.803,-0.376 0.541,-1.029 -0.323,-0.805 -0.508,-1.667 -0.736,-2.508 -0.124,-0.458 -0.314,-0.902 -0.015,-1.392 0.401,-0.654 0.74,-1.347 1.105,-2.022 0.25,0.256 0.5,0.512 0.751,0.767 0.087,0.145 0.176,0.29 0.265,0.434 0.097,0.494 0.436,0.856 0.688,1.269 -0.461,1.148 -0.287,2.475 -1.08,3.559 -0.282,0.386 0.215,0.703 0.646,0.804 0.366,0.087 0.79,0.385 0.92,-0.318 0.175,-0.942 0.401,-1.875 0.612,-2.811 0.064,-0.284 0.095,-0.616 0.547,-0.364 0.855,0.479 1.888,0.273 2.766,0.691 0.381,0.182 0.689,0.183 0.801,-0.37 0.099,-0.486 0.156,-0.826 -0.479,-0.968 -1.156,-0.257 -2.296,-0.586 -3.442,-0.886 -0.517,-0.901 -1.244,-1.69 -1.477,-2.745 2.272,-0.431 3.891,0.638 5.254,2.295 0.07,0.084 0.194,0.127 0.254,0.215 0.328,0.474 0.643,0.354 1.008,0.031 0.426,-0.376 0.32,-0.678 -0.045,-1.01 -0.631,-0.575 -1.214,-1.209 -1.884,-1.734 -0.462,-0.362 -0.401,-0.617 -0.048,-0.963 0.637,-0.623 1.27,-1.25 1.898,-1.882 0.198,-0.201 0.529,-0.42 0.148,-0.713 z" />
        </g>
      </g>
      <g
         style="opacity:0.6"
         id="g6470">
        <g
           id="g6472">
          <path
             style="fill:#1c4781"
             inkscape:connector-curvature="0"
             id="path6474"
             d="m 1186.719,2879.039 c -0.49,-0.144 -0.741,-0.086 -0.854,0.472 -0.264,1.296 -0.58,2.581 -0.88,3.869 -0.107,0.458 -0.225,0.792 0.504,0.915 0.646,0.108 0.769,-0.098 0.858,-0.612 0.107,-0.61 0.265,-1.211 0.471,-2.135 0.548,0.911 0.882,1.581 1.329,2.163 0.23,0.298 0.207,1.087 1.065,0.602 0.821,-0.466 0.382,-0.822 0.139,-1.294 -0.283,-0.55 -1.023,-1.125 -0.773,-1.618 0.271,-0.538 1.051,0.06 1.615,0.069 0.579,0.011 0.744,-0.061 0.871,-0.603 0.134,-0.568 -0.099,-0.698 -0.571,-0.814 -1.265,-0.311 -2.524,-0.65 -3.774,-1.014 z" />
        </g>
        <g
           id="g6476">
          <path
             style="fill:#1c4781"
             inkscape:connector-curvature="0"
             id="path6478"
             d="m 1175.377,2862.155 c 0.62,0.193 0.755,-0.058 0.861,-0.595 0.242,-1.217 0.497,-2.436 0.847,-3.625 0.166,-0.563 0.183,-0.823 -0.452,-1.032 -0.732,-0.241 -0.803,0.161 -0.898,0.675 -0.106,0.574 -0.248,1.142 -0.373,1.713 -0.092,0.015 -0.184,0.03 -0.275,0.045 -0.418,-0.695 -0.861,-1.379 -1.246,-2.091 -0.276,-0.513 -0.581,-0.581 -1.074,-0.296 -0.545,0.317 -0.309,0.662 -0.105,1.025 0.146,0.26 0.308,0.511 0.447,0.773 0.217,0.409 0.801,0.869 0.451,1.252 -0.35,0.383 -0.946,-0.094 -1.436,-0.191 -0.033,-0.01 -0.064,-0.033 -0.093,-0.057 -0.404,-0.335 -0.731,-0.355 -0.909,0.226 -0.157,0.517 -0.313,0.968 0.491,1.146 1.268,0.281 2.522,0.645 3.764,1.032 z" />
        </g>
        <g
           id="g6480">
          <path
             style="fill:#1c4781"
             inkscape:connector-curvature="0"
             id="path6482"
             d="m 1196.139,2869.637 c -0.832,0.046 -1.668,0.027 -2.71,0.038 0.603,-0.615 1.023,-1.062 1.462,-1.491 0.334,-0.327 0.63,-0.566 0.14,-1.073 -0.475,-0.492 -0.784,-0.253 -1.109,0.062 -0.937,0.898 -1.855,1.814 -2.768,2.737 -0.264,0.267 -0.479,0.507 -0.028,0.893 1.042,0.893 2.034,1.845 3.017,2.802 0.385,0.375 0.637,0.362 0.997,-0.031 0.369,-0.402 0.312,-0.693 -0.069,-1.013 -0.313,-0.263 -0.617,-0.534 -0.916,-0.813 -0.133,-0.123 -0.316,-0.282 -0.197,-0.464 0.085,-0.13 0.37,-0.287 0.444,-0.24 0.628,0.395 1.202,-0.184 1.798,-0.063 0.568,0.112 0.89,-0.236 0.893,-0.677 0,-0.523 -0.425,-0.696 -0.954,-0.667 z" />
        </g>
        <g
           id="g6484">
          <path
             style="fill:#1c4781"
             inkscape:connector-curvature="0"
             id="path6486"
             d="m 1165.574,2871.535 c 0.43,0.065 0.827,0.068 1.261,0 0.361,-0.06 0.811,-0.192 1.106,0.097 0.123,0.325 0.124,0.563 -0.117,0.768 -0.254,0.216 -0.469,0.479 -0.728,0.689 -0.414,0.333 -0.421,0.593 -0.016,0.979 0.397,0.382 0.646,0.339 1.002,-0.027 0.933,-0.955 1.892,-1.884 2.848,-2.817 0.267,-0.26 0.452,-0.51 0.095,-0.833 -1.068,-0.97 -2.148,-1.927 -3.198,-2.916 -0.451,-0.425 -0.618,-0.02 -0.894,0.203 -0.353,0.285 -0.295,0.516 -0.025,0.826 0.439,0.508 1.51,0.912 1.21,1.485 -0.256,0.489 -1.37,0.132 -2.101,0.202 -0.111,0.011 -0.224,0.012 -0.335,0 -0.364,-0.035 -0.593,0.095 -0.54,0.49 0.042,0.324 -0.167,0.765 0.432,0.855 z" />
        </g>
        <g
           id="g6488">
          <path
             style="fill:#1c4781"
             inkscape:connector-curvature="0"
             id="path6490"
             d="m 1186.701,2861.952 c 1.052,-0.448 2.09,-0.829 3.242,-0.96 0.343,-0.039 0.976,-0.305 0.735,-1.086 -0.227,-0.736 -0.555,-0.612 -1.054,-0.375 -0.295,0.139 -0.627,0.212 -0.949,0.279 -0.205,0.043 -0.562,0.099 -0.607,0.016 -0.106,-0.197 -0.146,-0.449 0.038,-0.711 0.339,-0.48 0.584,-1.027 0.91,-1.52 0.324,-0.49 0.071,-0.706 -0.319,-0.96 -0.444,-0.29 -0.645,-0.119 -0.855,0.282 -0.412,0.785 -0.862,1.551 -1.389,2.49 -0.217,-0.752 -0.349,-1.326 -0.55,-1.875 -0.134,-0.367 0.069,-1.039 -0.813,-0.804 -0.771,0.206 -0.673,0.605 -0.523,1.144 0.322,1.163 0.685,2.318 0.923,3.498 0.168,0.835 0.789,0.761 1.211,0.582 z" />
        </g>
        <g
           id="g6492">
          <path
             style="fill:#1c4781"
             inkscape:connector-curvature="0"
             id="path6494"
             d="m 1184.655,2864.805 c 1.241,-0.512 2.531,-0.877 3.849,-1.122 0.964,-0.179 0.754,-0.793 0.553,-1.483 -0.106,-0.262 -0.346,-0.216 -0.615,-0.126 -0.668,0.222 -1.358,0.388 -2.006,0.657 -0.876,0.362 -1.437,0.324 -1.575,-0.799 -0.085,-0.693 -0.335,-1.365 -0.507,-2.047 -0.113,-0.451 -0.31,-0.589 -0.795,-0.388 -0.35,0.146 -0.733,0.09 -0.567,0.674 0.403,1.424 0.763,2.861 1.148,4.291 0.065,0.247 0.118,0.507 0.515,0.343 z" />
        </g>
        <g
           id="g6496">
          <path
             style="fill:#1c4781"
             inkscape:connector-curvature="0"
             id="path6498"
             d="m 1177.103,2864.776 c 0.22,0.058 0.517,0.289 0.616,-0.143 0.353,-1.521 0.695,-3.043 1.037,-4.567 0.015,-0.067 -0.012,-0.145 -0.021,-0.236 -0.235,-0.26 -0.585,-0.276 -0.901,-0.342 -0.375,-0.078 -0.399,0.24 -0.456,0.489 -0.199,0.869 -0.416,1.735 -0.58,2.612 -0.095,0.502 -0.315,0.793 -0.794,0.491 -0.781,-0.494 -1.707,-0.362 -2.517,-0.681 -0.5,-0.197 -0.755,-0.08 -0.865,0.451 -0.095,0.455 -0.072,0.738 0.491,0.869 1.339,0.314 2.659,0.707 3.99,1.057 z" />
        </g>
        <g
           id="g6500">
          <path
             style="fill:#1c4781"
             inkscape:connector-curvature="0"
             id="path6502"
             d="m 1171.898,2870.211 c 0.544,0.432 0.456,0.715 -0.01,1.127 -0.637,0.567 -1.217,1.197 -1.824,1.799 -0.214,0.212 -0.512,0.429 -0.082,0.688 0.298,0.181 0.462,0.806 1.244,0.103 0.807,-0.797 1.864,-1.839 2.916,-2.885 0.373,-0.369 0.048,-0.569 -0.2,-0.798 -0.979,-0.899 -1.958,-1.8 -2.925,-2.713 -0.358,-0.339 -0.654,-0.501 -1.104,-0.081 -0.56,0.519 -0.062,0.807 0.201,1.085 0.559,0.593 1.145,1.17 1.781,1.675 z" />
        </g>
        <g
           id="g6504">
          <path
             style="fill:#1c4781"
             inkscape:connector-curvature="0"
             id="path6506"
             d="m 1190.297,2871.077 c -0.5,-0.456 -0.594,-0.847 0.019,-1.342 0.6,-0.485 1.09,-1.106 1.646,-1.647 0.319,-0.31 0.414,-0.521 0.02,-0.891 -0.377,-0.353 -0.64,-0.438 -1.014,-0.059 -0.987,1.003 -1.968,2.013 -2.983,2.984 -0.361,0.345 -0.221,0.482 0.077,0.748 1.051,0.934 2.089,1.884 3.087,2.871 0.292,0.289 0.621,0.384 0.782,0.105 0.157,-0.272 0.747,-0.564 0.248,-1.043 -0.627,-0.575 -1.253,-1.152 -1.882,-1.726 z" />
        </g>
        <g
           id="g6508">
          <path
             style="fill:#1c4781"
             inkscape:connector-curvature="0"
             id="path6510"
             d="m 1185.1,2876.383 c -0.511,-0.186 -0.659,-0.199 -0.772,0.335 -0.29,1.378 -0.619,2.747 -0.917,4.123 -0.047,0.216 -0.278,0.5 0.124,0.647 0.309,0.114 0.616,0.236 0.777,0.298 0.426,-0.243 0.362,-0.493 0.411,-0.7 0.184,-0.796 0.428,-1.584 0.531,-2.391 0.095,-0.743 0.396,-0.794 1.018,-0.581 0.806,0.277 1.648,0.441 2.462,0.696 0.431,0.135 0.641,0.038 0.674,-0.414 0.025,-0.35 0.383,-0.73 -0.351,-0.889 -1.339,-0.286 -2.67,-0.657 -3.957,-1.124 z" />
        </g>
        <g
           id="g6512">
          <path
             style="fill:#1c4781"
             inkscape:connector-curvature="0"
             id="path6514"
             d="m 1189.041,2867.412 c -0.279,-0.213 -0.46,-0.791 -0.982,-0.378 -0.279,0.221 -0.604,0.327 -0.847,0.668 -0.485,0.684 -1.064,1.335 -1.72,1.856 -0.759,0.604 -1.631,0.401 -2.354,-0.141 -0.728,-0.544 -0.121,-1.135 0.185,-1.539 0.394,-0.52 1.014,-1.02 1.662,-1.024 0.945,-0.01 1.603,-0.647 2.452,-0.838 0.63,-0.142 0.225,-0.683 0.147,-1.028 -0.1,-0.449 -0.486,-0.325 -0.703,-0.154 -0.741,0.582 -1.699,0.368 -2.492,0.739 -0.446,0.209 -0.563,0.196 -0.744,-0.42 -0.232,-0.794 -0.549,-1.583 -0.706,-2.402 -0.148,-0.773 -0.728,-0.806 -1.227,-0.703 -0.683,0.14 -0.233,0.657 -0.136,0.981 0.612,2.027 1.318,4.051 -0.378,5.925 -0.042,0.045 -0.12,0.055 -0.181,0.08 -1.646,-2.19 -1.661,-2.271 -1.018,-4.853 0.117,-0.466 0.209,-0.938 0.315,-1.406 0.144,-0.635 -0.406,-0.467 -0.692,-0.595 -0.327,-0.146 -0.57,-0.113 -0.629,0.314 -0.037,0.257 -0.107,0.509 -0.168,0.763 -0.638,2.703 -0.633,2.686 -3.285,1.922 -0.451,-0.13 -1.113,-0.7 -1.403,0.179 -0.307,0.926 0.501,0.95 1.076,1.119 0.179,0.052 0.365,0.079 0.538,0.144 1.446,0.535 3.112,0.705 3.685,2.569 0.178,0.582 0.086,0.772 -0.436,0.795 -1.256,0.058 -2.502,0.134 -3.382,-1.102 -0.379,-0.532 -1.004,-0.883 -1.455,-1.372 -0.407,-0.44 -0.683,-0.408 -1.087,0.01 -0.424,0.435 -0.206,0.701 0.118,0.998 0.546,0.501 1.078,1.021 1.646,1.495 0.529,0.443 0.81,0.776 0.046,1.321 -0.593,0.424 -1.053,1.039 -1.554,1.585 -0.24,0.262 -0.757,0.438 -0.209,0.951 0.442,0.414 0.756,0.504 1.185,0.024 0.47,-0.524 0.964,-1.029 1.474,-1.515 0.779,-0.745 1.676,-1.192 2.801,-1.088 0.785,0.073 0.964,0.339 0.691,1.142 -0.531,1.563 -1.838,1.93 -3.171,2.209 -1.242,0.26 -2.102,0.708 -1.842,2.175 1.124,-0.744 2.462,-0.792 3.707,-1.141 0.235,-0.066 0.343,0.048 0.432,0.217 0.113,0.212 0.01,0.365 -0.188,0.423 -1.162,0.339 -2.326,0.676 -3.498,0.984 -0.247,0.065 -0.365,-0.192 -0.485,-0.374 -0.268,0.249 -0.502,0.556 -0.81,0.734 -0.445,0.256 -0.83,0.494 -0.583,1.085 0.251,0.597 0.723,0.339 1.141,0.271 0.2,-0.032 0.452,-0.226 0.555,0.101 0.096,0.304 -0.228,0.316 -0.386,0.438 -0.643,0.493 -1.445,0.561 -2.174,0.825 -0.374,0.136 -0.794,0.228 -0.569,0.847 0.171,0.469 0.228,0.863 0.874,0.527 0.306,-0.156 0.727,0.142 1.047,-0.17 0.15,-0.146 0.342,-0.349 0.557,-0.104 0.172,0.194 0.059,0.447 -0.024,0.629 -0.23,0.506 -0.497,0.997 -0.779,1.477 -0.223,0.379 -0.272,0.648 0.201,0.894 0.431,0.223 0.684,0.282 0.972,-0.23 0.402,-0.722 0.707,-1.52 1.324,-2.17 0.463,0.576 0.482,1.227 0.636,1.825 0.125,0.484 0.341,0.685 0.869,0.534 0.495,-0.141 0.647,-0.354 0.495,-0.875 -0.332,-1.14 -0.623,-2.293 -0.89,-3.448 -0.175,-0.757 -0.422,-1.286 -1.315,-0.774 -0.137,0.078 -0.287,0.123 -0.39,-0.027 -0.144,-0.211 0,-0.333 0.173,-0.433 0.287,-0.169 0.569,-0.346 0.863,-0.502 0.541,-0.288 0.942,-0.349 1.08,0.458 0.137,0.801 0.408,1.577 0.609,2.367 0.119,0.465 0.32,0.697 0.862,0.52 0.485,-0.159 0.66,-0.357 0.48,-0.885 -0.227,-0.666 -0.396,-1.356 -0.524,-2.048 -0.095,-0.507 -0.646,-1.297 -0.077,-1.474 0.658,-0.204 0.53,0.773 0.743,1.222 0.195,0.408 0.305,0.758 0.853,0.524 0.465,-0.196 0.802,-0.376 0.54,-1.029 -0.322,-0.805 -0.508,-1.666 -0.736,-2.508 -0.123,-0.457 -0.314,-0.902 -0.014,-1.392 0.401,-0.654 0.74,-1.347 1.104,-2.021 0.251,0.256 0.5,0.511 0.751,0.767 0.088,0.144 0.177,0.289 0.266,0.433 0.096,0.494 0.435,0.856 0.687,1.269 -0.46,1.148 -0.287,2.475 -1.08,3.559 -0.281,0.386 0.215,0.703 0.646,0.805 0.365,0.086 0.789,0.385 0.919,-0.318 0.176,-0.942 0.402,-1.875 0.613,-2.811 0.063,-0.285 0.095,-0.616 0.547,-0.365 0.855,0.479 1.888,0.273 2.766,0.691 0.381,0.182 0.689,0.183 0.801,-0.369 0.098,-0.487 0.155,-0.827 -0.48,-0.969 -1.156,-0.256 -2.295,-0.586 -3.441,-0.885 -0.517,-0.902 -1.244,-1.69 -1.477,-2.746 2.271,-0.43 3.891,0.638 5.254,2.295 0.069,0.084 0.193,0.127 0.254,0.215 0.328,0.474 0.642,0.354 1.008,0.031 0.426,-0.375 0.32,-0.677 -0.045,-1.01 -0.631,-0.575 -1.214,-1.209 -1.884,-1.733 -0.463,-0.363 -0.401,-0.618 -0.048,-0.964 0.637,-0.623 1.27,-1.25 1.898,-1.882 0.199,-0.201 0.531,-0.42 0.15,-0.713 z" />
        </g>
      </g>
      <g
         style="opacity:0.7"
         id="g6550">
        <g
           id="g6552">
          <path
             style="fill:#1c4781"
             inkscape:connector-curvature="0"
             id="path6554"
             d="m 1234.168,2969.053 c 3.922,1.689 7.338,3.16 10.943,4.714 -2.789,-6.991 -5.432,-13.617 -8.314,-20.842 3.758,0.11 5.733,2.028 8.727,2.489 -1.843,-6.028 -3.59,-11.744 -5.51,-18.027 2.438,0.925 4.283,1.625 6.815,2.586 -2.604,-8.668 -5.013,-16.682 -7.42,-24.695 -0.19,-0.505 -0.401,-0.895 -0.638,-1.138 -0.34,0 -0.768,0.109 -1.265,0.317 -7.478,3.756 -14.956,7.512 -23.043,11.572 2.438,1.181 4.214,2.041 6.561,3.178 -5.885,2.921 -11.238,5.578 -16.886,8.38 2.391,1.858 5.142,1.976 7.804,4.631 -7.23,2.868 -13.861,5.499 -20.857,8.275 3.606,1.554 7.021,3.024 10.943,4.714 -7.985,3.694 -15.369,7.11 -23.451,10.85 8.666,3.732 16.444,7.2 24.327,10.41 2.449,0.998 3.012,2.135 1.637,4.32 -0.258,0.409 -0.397,0.894 -0.591,1.344 -2.692,6.253 -3.043,7.076 1.611,9.102 4.669,1.991 5.026,1.171 7.721,-5.082 0.194,-0.449 0.451,-0.883 0.571,-1.352 0.644,-2.5 1.856,-2.873 4.264,-1.778 7.748,3.522 15.611,6.794 24.276,10.526 -2.834,-8.442 -5.423,-16.154 -8.225,-24.494 z" />
        </g>
        <g
           id="g6556">
          <path
             style="fill:#1c4781"
             inkscape:connector-curvature="0"
             id="path6558"
             d="m 1203.531,2995.932 c -1.022,-0.439 -1.929,-0.966 -2.692,-1.563 l 1.036,-1.327 c 0.65,0.509 1.433,0.96 2.322,1.344 0.402,0.188 0.763,0.307 1.133,0.421 l -0.501,1.608 c -0.424,-0.132 -0.859,-0.294 -1.293,-0.48 0,-10e-4 0,0 -0.01,0 z m 5.864,0.793 -0.336,-1.649 c 1.173,-0.239 2.275,-0.823 3.276,-1.735 l 1.134,1.245 c -1.229,1.119 -2.6,1.839 -4.074,2.139 z m -11.312,-6.05 c -0.499,-1.354 -0.646,-2.884 -0.437,-4.546 l 1.67,0.21 c -0.175,1.393 -0.058,2.655 0.347,3.753 l -1.58,0.583 z m 18.109,0.372 -1.47,-0.821 c 0.295,-0.529 0.576,-1.103 0.835,-1.701 0.354,-0.821 0.6,-1.544 0.743,-2.007 l 1.608,0.501 c -0.156,0.501 -0.423,1.284 -0.806,2.172 -0.28,0.653 -0.586,1.277 -0.91,1.856 z m -17.348,-9.183 0.057,-0.132 c 0.795,-1.848 1.651,-3.096 1.688,-3.147 l 0.133,0.091 0.265,-0.645 1.58,0.649 -0.591,0.86 c -0.01,0.012 -0.803,1.172 -1.528,2.857 l -0.051,0.119 -1.553,-0.652 z m -11.436,-7.745 -2.579,-1.113 0.669,-1.545 2.576,1.111 1.287,0.555 -0.664,1.547 -1.289,-0.555 z m 47.96,20.658 0.663,-1.548 3.869,1.651 -0.661,1.549 -3.871,-1.652 z m -3.868,-1.669 c -1.219,-0.53 -2.483,-1.086 -3.858,-1.696 l 0.683,-1.539 c 1.371,0.608 2.632,1.162 3.848,1.691 l -0.673,1.544 z m -50.534,-21.776 -3.862,-1.677 0.67,-1.544 3.862,1.676 -0.67,1.545 z m 11.604,4.998 0.659,-1.55 c 1.301,0.554 2.593,1.1 3.874,1.638 l -0.651,1.553 c -1.284,-0.539 -2.578,-1.086 -3.882,-1.641 z m 50.539,21.751 0.662,-1.548 c 1.189,0.509 2.469,1.057 3.869,1.659 l -0.665,1.547 c -1.399,-0.601 -2.677,-1.149 -3.866,-1.658 z m -69.867,-30.101 -5.604,-2.417 2.104,-0.803 0.236,0.613 0.231,-0.536 3.7,1.598 -0.667,1.545 z m 50.554,21.711 -3.833,-1.749 0.699,-1.531 3.825,1.745 -0.691,1.535 z m 22.014,6.572 c -0.552,-1.384 -1.058,-2.683 -1.534,-3.929 l 1.572,-0.603 c 0.475,1.24 0.977,2.531 1.525,3.907 l -1.563,0.625 z m -71.535,-31.471 -0.626,-1.563 c 1.352,-0.54 2.638,-1.066 3.888,-1.583 l 0.644,1.556 c -1.256,0.519 -2.548,1.048 -3.906,1.59 z m 68.512,23.601 -0.395,-1.057 c -0.355,-0.955 -0.712,-1.909 -1.077,-2.881 l 1.575,-0.593 c 0.367,0.974 0.724,1.929 1.08,2.886 l 0.394,1.056 -1.577,0.589 z m -60.72,-26.817 -0.654,-1.552 0.835,-0.352 c 1.011,-0.427 2.02,-0.851 3.045,-1.28 l 0.649,1.554 c -1.023,0.428 -2.031,0.853 -3.04,1.278 l -0.835,0.352 z m 57.749,18.958 c -0.479,-1.229 -0.989,-2.519 -1.55,-3.896 l 1.131,-0.46 -1.286,-0.555 0.666,-1.547 3.866,1.666 -0.666,1.547 -1.976,-0.852 c 0.496,1.225 0.953,2.379 1.384,3.486 l -1.569,0.611 z m -49.993,-22.19 -0.634,-1.561 c 1.251,-0.509 2.549,-1.028 3.918,-1.563 l 0.613,1.568 c -1.362,0.532 -2.652,1.049 -3.897,1.556 z m 59.886,22.275 -3.865,-1.665 0.666,-1.547 3.865,1.666 -0.666,1.546 z m -56.928,-25.439 -3.865,-1.666 0.666,-1.546 3.866,1.665 -0.667,1.547 z m -7.731,-3.331 -4.47,-1.926 2.139,-0.686 c 0.508,-0.163 1.006,-0.327 1.499,-0.493 l 0.358,1.067 1.14,0.491 -0.666,1.547 z m 63.411,25.393 c -0.51,-1.206 -1.022,-2.496 -1.567,-3.942 l 1.575,-0.595 c 0.537,1.426 1.042,2.695 1.544,3.881 l -1.552,0.656 z m -59.717,-28.32 -0.588,-1.578 c 1.327,-0.495 2.624,-0.998 3.913,-1.506 l 0.616,1.566 c -1.296,0.512 -2.603,1.019 -3.941,1.518 z m 56.699,20.412 -0.261,-0.729 c -0.384,-1.072 -0.768,-2.146 -1.163,-3.225 l 1.581,-0.579 c 0.396,1.083 0.782,2.161 1.167,3.236 l 0.261,0.728 -1.585,0.569 z m -48.843,-23.481 -0.62,-1.566 c 1.293,-0.511 2.598,-1.022 3.937,-1.528 l 0.595,1.575 c -1.331,0.502 -2.628,1.01 -3.912,1.519 z m 45.927,15.62 c -0.547,-1.364 -1.083,-2.617 -1.638,-3.832 l 1.53,-0.701 c 0.567,1.239 1.113,2.518 1.671,3.906 l -1.563,0.627 z m -38.083,-18.566 -0.55,-1.592 c 0.42,-0.146 0.845,-0.289 1.274,-0.433 l 0.502,-1.042 3.293,1.586 -2.01,0.645 c -0.855,0.275 -1.691,0.554 -2.509,0.836 z m -3.297,-3.375 -3.792,-1.827 0.73,-1.517 3.792,1.826 -0.73,1.518 z m 46.083,19.78 c -0.277,-0.155 -0.552,-0.314 -0.826,-0.476 -0.897,-0.522 -1.735,-1.014 -2.782,-1.381 l 0.559,-1.589 c 1.183,0.416 2.15,0.979 3.071,1.516 0.266,0.155 0.53,0.31 0.799,0.459 l -0.821,1.471 z m 2.632,0.163 -1.493,-3.936 1.574,-0.596 1.492,3.933 -1.573,0.599 z m -48.911,-23.394 -0.648,-1.554 3.881,-1.621 0.65,1.553 -3.883,1.622 z m 45.931,15.523 -1.486,-3.936 1.575,-0.595 1.486,3.936 -1.575,0.595 z m -38.168,-18.768 -0.649,-1.553 3.883,-1.622 0.648,1.554 -3.882,1.621 z m 35.191,10.899 -1.43,-3.757 1.762,0.68 c 0.714,0.275 1.346,0.518 1.935,0.741 l -0.6,1.573 c -0.061,-0.022 -0.121,-0.045 -0.182,-0.069 l 0.089,0.234 -1.574,0.598 z m -29.644,-14.196 c -0.991,-0.48 -1.583,-0.785 -2.179,-1.092 -0.46,-0.236 -0.922,-0.474 -1.578,-0.797 l 0.744,-1.511 c 0.668,0.329 1.137,0.57 1.604,0.811 0.586,0.302 1.168,0.601 2.145,1.074 l -0.736,1.515 z m 35.245,14.925 0.599,-1.573 c 0.065,0.025 0.132,0.05 0.197,0.075 -0.034,-0.1 -0.07,-0.2 -0.104,-0.3 l 1.59,-0.556 c 0.239,0.688 0.481,1.358 0.725,2.007 l 0.66,1.758 -1.752,-0.676 c -0.708,-0.274 -1.335,-0.513 -1.915,-0.735 z m -37.377,-18.7 -0.762,-1.502 c 1.014,-0.514 2.305,-1.17 3.764,-1.914 l 0.765,1.5 c -1.46,0.745 -2.753,1.401 -3.767,1.916 z m 36.737,12.88 c -0.416,-1.317 -0.828,-2.67 -1.236,-4.04 l 1.613,-0.48 c 0.406,1.361 0.815,2.705 1.229,4.013 l -1.606,0.507 z m -29.211,-16.72 -0.768,-1.498 c 1.22,-0.625 2.483,-1.276 3.749,-1.931 l 0.773,1.495 c -1.265,0.656 -2.532,1.308 -3.754,1.934 z m 26.786,8.633 -1.175,-4.043 1.617,-0.472 1.175,4.045 -1.617,0.47 z m -19.283,-12.517 -0.78,-1.492 c 1.308,-0.685 2.567,-1.349 3.726,-1.968 l 0.794,1.484 c -1.163,0.622 -2.427,1.29 -3.74,1.976 z m 16.913,4.444 c -0.419,-1.382 -0.837,-2.723 -1.256,-4 l 1.601,-0.524 c 0.422,1.289 0.844,2.642 1.267,4.036 l -1.612,0.488 z m -9.449,-8.451 -0.825,-1.467 c 0.506,-0.285 0.904,-0.516 1.219,-0.701 l -0.747,-0.434 1.867,-0.556 c 0.336,-0.1 0.664,-0.178 0.988,-0.038 l 0.773,0.334 -0.319,0.816 c -0.061,0.141 -0.111,0.26 -0.419,0.498 l 0.017,0.09 c -0.059,0.012 -0.117,0.021 -0.176,0.027 -0.396,0.284 -1.098,0.711 -2.378,1.431 z m 6.875,0.887 c -0.489,-0.519 -0.62,-1.408 -0.759,-2.35 -0.072,-0.494 -0.194,-1.321 -0.347,-1.512 l 0.947,-1.383 c 0.745,0.469 0.9,1.528 1.065,2.649 0.069,0.473 0.186,1.263 0.325,1.448 l -1.231,1.148 z" />
        </g>
      </g>
      <g
         id="g6560">
        <g
           id="g6562">
          <path
             style="fill:#1c4781"
             inkscape:connector-curvature="0"
             id="path6564"
             d="m 1204.401,2662.576 -1.878,0.846 -0.527,-1.171 0.708,-0.319 -0.736,-1.634 1.171,-0.526 1.262,2.804 z m -4.804,2.163 -2.928,1.317 -0.526,-1.17 2.927,-1.318 0.527,1.171 z m -6.44,2.899 -2.927,1.317 -0.527,-1.17 2.927,-1.318 0.527,1.171 z m -5.854,2.635 -3.512,1.581 -0.527,-1.171 3.513,-1.581 0.526,1.171 z m -6.44,2.899 -2.927,1.318 -0.526,-1.172 2.927,-1.317 0.526,1.171 z m -6.439,2.898 -2.927,1.318 -0.526,-1.171 2.927,-1.317 0.526,1.17 z m -5.854,2.636 -0.834,0.376 -1.845,-4.098 1.171,-0.527 1.581,3.512 -0.337,0.152 0.264,0.585 z m 33.251,-21.862 -1.171,0.527 -1.317,-2.927 1.171,-0.527 1.317,2.927 z m -36.077,14.685 -1.17,0.527 -1.318,-2.927 1.171,-0.527 1.317,2.927 z m 33.179,-21.125 -1.171,0.527 -1.318,-2.927 1.171,-0.527 1.318,2.927 z m -36.077,14.687 -1.171,0.526 -1.317,-2.927 1.171,-0.526 1.317,2.927 z m 33.441,-20.54 -1.171,0.527 -1.581,-3.513 1.171,-0.526 1.581,3.512 z m -36.076,14.685 -1.171,0.527 -1.581,-3.513 1.17,-0.526 1.582,3.512 z m 33.178,-21.125 -1.171,0.527 -1.317,-2.927 1.17,-0.527 1.318,2.927 z m -36.077,14.686 -1.171,0.527 -1.317,-2.927 1.171,-0.527 1.317,2.927 z m 32.818,-20.676 -0.156,-0.217 -0.655,0.295 -0.365,-0.812 0.424,-0.307 c 0.836,-0.605 1.463,-1.177 1.972,-1.8 l 0.994,0.814 c -0.582,0.711 -1.285,1.355 -2.214,2.027 z m -36.784,16.203 c -1.217,0.172 -2.34,0.221 -3.34,0.143 l 0.099,-1.279 c 0.907,0.069 1.937,0.024 3.062,-0.135 l 0.179,1.271 z m 40.658,-21.144 -1.161,-0.548 1.646,-3.483 1.16,0.549 -1.645,3.482 z m -47.199,21.029 -3.192,-0.258 2.807,-2.43 0.841,0.971 -0.492,0.426 0.141,0.011 -0.105,1.28 z m 43.14,-22.004 0.263,-1.339 0.628,0.121 -0.304,-0.562 2.817,-1.526 0.611,1.129 -4.015,2.177 z m -16.128,6.912 -0.081,0.036 c -0.15,0.067 -0.329,0.113 -0.534,0.136 l -0.112,-1.011 -0.566,-0.063 c 0.126,-1.136 0.512,-2.236 1.147,-3.269 l 0.774,0.477 c 0.012,-0.038 0.023,-0.076 0.035,-0.113 l 1.227,0.379 c -0.382,1.238 -1.094,2.76 -1.821,3.37 l -0.069,0.058 z m -27.09,11.893 -3.065,-0.953 0.381,-1.227 0.357,0.111 -0.232,-1.084 3.138,-0.674 0.27,1.255 -2.834,0.609 2.367,0.736 -0.382,1.227 z m 18.535,-8.358 c -0.028,0.014 -0.057,0.025 -0.071,0.031 l -0.046,0.015 c -0.199,0.06 -0.425,0.103 -0.672,0.129 l -0.134,-1.277 c 0.154,-0.017 0.291,-0.04 0.408,-0.073 0.111,-0.052 0.253,-0.141 0.409,-0.254 -0.098,-0.08 -0.195,-0.156 -0.293,-0.229 l 0.769,-1.028 c 0.317,0.237 0.639,0.506 0.954,0.798 l 0.512,0.474 -0.514,0.471 c -0.225,0.205 -0.805,0.711 -1.322,0.943 z m -9.35,4.134 -2.47,0.458 c -0.899,0.168 -1.807,0.337 -2.735,0.526 l -0.256,-1.259 c 0.938,-0.191 1.852,-0.361 2.734,-0.525 l 0.189,-0.035 0.131,-0.254 c 0.168,0.087 0.341,0.17 0.518,0.248 l 1.889,0.841 z m 28.966,-13.662 -0.806,-0.999 c 0.832,-0.671 1.744,-1.435 2.79,-2.334 l 0.146,-0.126 0.838,0.974 -0.147,0.126 c -1.055,0.908 -1.978,1.68 -2.821,2.359 z m -1.403,-0.056 -1.281,-0.074 c 0.057,-0.984 -0.103,-1.9 -0.473,-2.724 l -0.042,-0.09 1.162,-0.547 0.05,0.109 c 0.457,1.015 0.653,2.134 0.584,3.326 z m -22.403,9.404 c -1.386,-0.338 -3.225,-0.989 -3.845,-1.713 l 0.975,-0.836 c 0.23,0.269 1.399,0.868 3.175,1.302 l -0.305,1.247 z m 29.207,-13.927 -0.837,-0.973 3.261,-2.806 -0.498,2.56 -0.414,-0.08 -1.512,1.299 z m -40.079,16.201 c -0.455,-0.519 -0.849,-1.097 -1.17,-1.719 -0.064,-0.123 -0.124,-0.247 -0.181,-0.372 -0.137,-0.304 -0.252,-0.616 -0.344,-0.928 l 1.231,-0.362 c 0.075,0.256 0.171,0.513 0.283,0.764 0.047,0.104 0.097,0.206 0.149,0.309 0.274,0.53 0.608,1.021 0.995,1.461 l -0.963,0.847 z m 11.445,-5.168 c -0.497,-0.088 -1.016,-0.132 -1.586,-0.135 -0.452,0 -0.869,0.074 -1.206,0.224 l -0.521,-1.173 c 0.502,-0.223 1.103,-0.339 1.735,-0.335 0.644,0 1.232,0.055 1.801,0.154 l -0.223,1.265 z m 6.079,-4.756 -0.753,-0.574 c -0.225,-0.171 -0.459,-0.336 -0.696,-0.489 l 0.697,-1.078 c 0.014,0.01 0.028,0.019 0.043,0.027 0.176,-0.483 0.389,-0.957 0.636,-1.415 l 1.13,0.609 c -0.276,0.512 -0.504,1.047 -0.678,1.591 -0.045,0.14 -0.086,0.278 -0.124,0.417 l -0.255,0.912 z m 11.601,-7.049 c -0.829,-0.424 -1.776,-0.65 -2.816,-0.674 l 0.028,-1.283 c 1.235,0.027 2.37,0.301 3.372,0.813 l -0.584,1.144 z m -8.728,1.746 -0.889,-0.928 c 1.016,-0.973 2.193,-1.72 3.444,-2.192 l 0.453,1.201 c -1.089,0.411 -2.119,1.065 -3.008,1.919 z m -7.654,2.754 c -0.657,-0.186 -1.355,-0.331 -2.075,-0.43 -0.31,-0.043 -0.626,-0.072 -0.938,-0.088 l 0.063,-1.282 c 0.35,0.017 0.703,0.05 1.051,0.098 0.779,0.108 1.535,0.265 2.25,0.467 l -0.351,1.235 z m -13.12,5.692 -1.216,-0.412 c 0.35,-1.029 0.934,-2.025 1.736,-2.962 l 0.975,0.836 c -0.695,0.811 -1.198,1.665 -1.495,2.538 z m 7.103,-5.925 c -1.175,0.281 -2.329,0.769 -3.335,1.412 l -0.69,-1.082 c 1.125,-0.719 2.413,-1.264 3.727,-1.579 l 0.298,1.249 z" />
        </g>
        <g
           id="g6566">
          <path
             style="fill:#1c4781"
             inkscape:connector-curvature="0"
             id="path6568"
             d="m 1191.04,2627.193 c -2.617,1.418 -2.771,0.354 -2.434,-1.374 -3.976,3.419 -7.735,6.374 -12.312,8.439 2.182,-2.107 4.019,-4.222 4.439,-6.73 0.508,-3.021 -1.493,-5.182 -4.716,-5.032 -2.846,0.132 -5.614,2.363 -6.592,5.422 -0.378,1.18 -0.494,2.359 -0.782,3.804 -0.635,-0.623 -1.088,-1.059 -1.53,-1.503 -1.595,-1.603 -3.73,-2.624 -6.438,-2.998 -2.804,-0.387 -5.784,0.573 -7.802,2.574 -2.069,2.052 -2.431,4.143 -1.469,6.006 1.012,1.958 3.002,3.124 5.7,3.635 2.087,0.395 4.377,0.179 7.094,0.083 -4.614,2.353 -8.948,2.693 -13.987,3.775 2.466,0.768 0.954,1.656 -0.026,2.504 1.452,0.118 3.269,-0.116 5.223,-0.614 3.094,6.872 13.242,29.416 13.668,30.361 10.643,-4.791 21.22,-9.553 31.788,-14.31 -0.453,-1.006 -10.586,-23.516 -13.666,-30.356 1.414,-0.941 3.001,-1.906 3.842,-3.686 z m -19.927,6.618 c -0.156,-2.105 0.33,-4.266 1.928,-6.408 0.53,-0.712 1.248,-1.322 2.271,-1.407 1.123,-0.094 1.573,0.509 1.916,1.177 0.667,1.388 -0.872,5.692 -2.506,7 -1.04,0.833 -3.534,0.645 -3.609,-0.362 z m -15.245,1.39 c -0.945,-2.226 1.079,-4.453 4.208,-4.433 4.058,0.026 6.568,1.878 8.6,4.142 0.445,0.496 -1.864,2.743 -3.135,3.121 -2.76,0.821 -8.882,-0.97 -9.673,-2.83 z" />
        </g>
        <g
           id="g6570">
          <path
             style="fill:#ffffff"
             inkscape:connector-curvature="0"
             id="path6572"
             d="m 1164.932,2651.651 c -0.578,-1.283 -0.621,-2.559 -0.143,-3.818 0.491,-1.267 1.402,-2.191 2.74,-2.794 1.339,-0.603 2.648,-0.678 3.909,-0.2 1.261,0.479 2.187,1.355 2.764,2.639 0.577,1.284 0.614,2.544 0.137,3.805 -0.479,1.261 -1.403,2.19 -2.741,2.794 -1.338,0.602 -2.635,0.671 -3.908,0.199 -1.261,-0.478 -2.181,-1.342 -2.758,-2.625 z m 14.622,-13.037 2.762,0.681 -6.055,27.166 -2.768,-0.729 6.061,-27.118 z m -11.74,11.74 c 0.236,0.523 0.587,0.896 1.06,1.099 0.473,0.203 0.98,0.189 1.519,-0.053 0.552,-0.249 0.899,-0.62 1.047,-1.103 0.162,-0.487 0.115,-0.997 -0.121,-1.521 -0.242,-0.538 -0.586,-0.897 -1.059,-1.1 -0.459,-0.208 -0.967,-0.195 -1.52,0.054 -0.537,0.242 -0.885,0.614 -1.047,1.102 -0.162,0.487 -0.121,0.982 0.121,1.522 z m 13.632,7.318 c -0.577,-1.282 -0.62,-2.558 -0.143,-3.817 0.478,-1.261 1.39,-2.186 2.728,-2.788 1.338,-0.602 2.648,-0.678 3.908,-0.199 1.274,0.471 2.2,1.349 2.778,2.632 0.577,1.283 0.614,2.544 0.122,3.811 -0.478,1.261 -1.402,2.191 -2.741,2.794 -1.338,0.602 -2.634,0.671 -3.895,0.193 -1.261,-0.478 -2.179,-1.343 -2.757,-2.626 z m 2.884,-1.297 c 0.235,0.523 0.586,0.896 1.045,1.105 0.473,0.201 0.981,0.188 1.52,-0.054 0.552,-0.249 0.898,-0.62 1.061,-1.108 0.162,-0.487 0.115,-0.997 -0.121,-1.521 -0.242,-0.538 -0.587,-0.897 -1.059,-1.1 -0.473,-0.202 -0.981,-0.188 -1.533,0.06 -0.538,0.242 -0.885,0.614 -1.047,1.102 -0.149,0.481 -0.108,0.977 0.134,1.516 z" />
        </g>
      </g>
      <g
         style="opacity:0.8"
         id="g6680">
        <g
           id="g6682">
          <path
             style="fill:#1c4781"
             inkscape:connector-curvature="0"
             id="path6684"
             d="m 1249.924,3066.251 c -0.532,-0.155 -0.806,-0.093 -0.929,0.513 -0.286,1.408 -0.631,2.805 -0.956,4.206 -0.117,0.498 -0.244,0.86 0.548,0.994 0.703,0.118 0.835,-0.105 0.933,-0.665 0.117,-0.663 0.288,-1.316 0.513,-2.32 0.596,0.99 0.958,1.719 1.444,2.351 0.251,0.324 0.225,1.182 1.158,0.653 0.893,-0.506 0.416,-0.894 0.151,-1.406 -0.309,-0.597 -1.112,-1.223 -0.841,-1.759 0.295,-0.585 1.143,0.064 1.756,0.075 0.629,0.012 0.809,-0.065 0.947,-0.654 0.146,-0.618 -0.106,-0.759 -0.621,-0.885 -1.375,-0.338 -2.743,-0.707 -4.103,-1.103 z" />
        </g>
        <g
           id="g6686">
          <path
             style="fill:#1c4781"
             inkscape:connector-curvature="0"
             id="path6688"
             d="m 1237.593,3047.899 c 0.675,0.21 0.821,-0.063 0.937,-0.646 0.264,-1.322 0.54,-2.648 0.921,-3.941 0.18,-0.611 0.198,-0.895 -0.492,-1.121 -0.796,-0.262 -0.873,0.175 -0.977,0.733 -0.116,0.624 -0.27,1.241 -0.406,1.861 -0.1,0.017 -0.199,0.033 -0.299,0.049 -0.454,-0.756 -0.937,-1.498 -1.354,-2.272 -0.301,-0.557 -0.632,-0.632 -1.168,-0.321 -0.594,0.345 -0.335,0.72 -0.115,1.114 0.158,0.282 0.335,0.556 0.486,0.841 0.235,0.444 0.871,0.944 0.491,1.36 -0.381,0.416 -1.029,-0.102 -1.562,-0.207 -0.036,-0.01 -0.07,-0.037 -0.101,-0.063 -0.44,-0.363 -0.796,-0.386 -0.988,0.246 -0.171,0.561 -0.341,1.051 0.534,1.244 1.379,0.308 2.742,0.703 4.093,1.123 z" />
        </g>
        <g
           id="g6690">
          <path
             style="fill:#1c4781"
             inkscape:connector-curvature="0"
             id="path6692"
             d="m 1260.166,3056.031 c -0.904,0.051 -1.813,0.029 -2.945,0.042 0.654,-0.669 1.112,-1.155 1.589,-1.622 0.363,-0.355 0.685,-0.615 0.151,-1.166 -0.516,-0.535 -0.852,-0.273 -1.205,0.066 -1.019,0.978 -2.018,1.973 -3.01,2.976 -0.287,0.29 -0.52,0.552 -0.03,0.971 1.133,0.97 2.211,2.004 3.279,3.046 0.418,0.407 0.692,0.393 1.084,-0.034 0.402,-0.438 0.339,-0.755 -0.075,-1.102 -0.34,-0.285 -0.672,-0.58 -0.996,-0.883 -0.144,-0.134 -0.344,-0.308 -0.215,-0.504 0.094,-0.142 0.403,-0.313 0.484,-0.261 0.682,0.429 1.307,-0.199 1.954,-0.07 0.618,0.123 0.968,-0.256 0.971,-0.735 0,-0.567 -0.46,-0.755 -1.036,-0.724 z" />
        </g>
        <g
           id="g6694">
          <path
             style="fill:#1c4781"
             inkscape:connector-curvature="0"
             id="path6696"
             d="m 1226.934,3058.096 c 0.468,0.07 0.899,0.073 1.372,0 0.392,-0.064 0.881,-0.21 1.202,0.105 0.135,0.354 0.135,0.611 -0.127,0.833 -0.275,0.235 -0.51,0.522 -0.791,0.75 -0.45,0.362 -0.458,0.645 -0.018,1.063 0.433,0.415 0.702,0.369 1.09,-0.03 1.015,-1.037 2.058,-2.047 3.096,-3.062 0.291,-0.282 0.492,-0.554 0.104,-0.906 -1.162,-1.053 -2.336,-2.093 -3.478,-3.169 -0.49,-0.461 -0.672,-0.021 -0.972,0.222 -0.383,0.311 -0.321,0.561 -0.027,0.898 0.478,0.551 1.642,0.99 1.315,1.613 -0.278,0.532 -1.489,0.145 -2.284,0.22 -0.12,0.012 -0.243,0.014 -0.364,0 -0.396,-0.038 -0.645,0.104 -0.587,0.533 0.045,0.354 -0.183,0.834 0.469,0.932 z" />
        </g>
        <g
           id="g6698">
          <path
             style="fill:#1c4781"
             inkscape:connector-curvature="0"
             id="path6700"
             d="m 1249.905,3047.679 c 1.144,-0.486 2.272,-0.9 3.524,-1.043 0.374,-0.043 1.062,-0.331 0.801,-1.181 -0.247,-0.801 -0.604,-0.665 -1.146,-0.408 -0.32,0.15 -0.682,0.23 -1.032,0.305 -0.223,0.047 -0.61,0.107 -0.659,0.017 -0.116,-0.214 -0.16,-0.488 0.04,-0.772 0.369,-0.523 0.636,-1.117 0.99,-1.652 0.353,-0.532 0.078,-0.768 -0.347,-1.043 -0.483,-0.314 -0.701,-0.129 -0.931,0.306 -0.448,0.854 -0.938,1.687 -1.51,2.707 -0.235,-0.817 -0.379,-1.44 -0.598,-2.037 -0.146,-0.399 0.075,-1.13 -0.885,-0.874 -0.839,0.224 -0.731,0.658 -0.569,1.243 0.351,1.264 0.745,2.521 1.004,3.803 0.184,0.903 0.859,0.823 1.318,0.629 z" />
        </g>
        <g
           id="g6702">
          <path
             style="fill:#1c4781"
             inkscape:connector-curvature="0"
             id="path6704"
             d="m 1247.682,3050.779 c 1.349,-0.556 2.751,-0.953 4.185,-1.22 1.047,-0.194 0.819,-0.861 0.6,-1.612 -0.115,-0.285 -0.375,-0.234 -0.669,-0.137 -0.726,0.241 -1.477,0.422 -2.181,0.714 -0.952,0.395 -1.562,0.353 -1.712,-0.868 -0.093,-0.753 -0.364,-1.483 -0.551,-2.225 -0.123,-0.49 -0.338,-0.64 -0.864,-0.421 -0.38,0.157 -0.798,0.097 -0.618,0.731 0.439,1.548 0.829,3.11 1.249,4.665 0.07,0.27 0.128,0.551 0.561,0.373 z" />
        </g>
        <g
           id="g6706">
          <path
             style="fill:#1c4781"
             inkscape:connector-curvature="0"
             id="path6708"
             d="m 1239.469,3050.748 c 0.239,0.063 0.562,0.314 0.671,-0.154 0.383,-1.652 0.755,-3.309 1.127,-4.965 0.017,-0.073 -0.013,-0.156 -0.022,-0.258 -0.256,-0.281 -0.636,-0.3 -0.979,-0.371 -0.407,-0.084 -0.435,0.262 -0.496,0.532 -0.217,0.944 -0.452,1.888 -0.631,2.84 -0.103,0.546 -0.343,0.862 -0.863,0.533 -0.85,-0.536 -1.856,-0.394 -2.736,-0.739 -0.544,-0.215 -0.82,-0.087 -0.94,0.49 -0.104,0.494 -0.079,0.802 0.534,0.945 1.454,0.339 2.889,0.766 4.335,1.147 z" />
        </g>
        <g
           id="g6710">
          <path
             style="fill:#1c4781"
             inkscape:connector-curvature="0"
             id="path6712"
             d="m 1233.811,3056.656 c 0.591,0.469 0.496,0.777 -0.01,1.225 -0.692,0.617 -1.323,1.301 -1.983,1.955 -0.233,0.229 -0.557,0.465 -0.089,0.748 0.322,0.196 0.502,0.875 1.352,0.111 0.877,-0.866 2.026,-1.998 3.171,-3.135 0.405,-0.402 0.053,-0.619 -0.218,-0.867 -1.065,-0.979 -2.129,-1.957 -3.181,-2.949 -0.39,-0.368 -0.711,-0.545 -1.201,-0.089 -0.607,0.564 -0.066,0.877 0.22,1.18 0.605,0.644 1.243,1.271 1.936,1.821 z" />
        </g>
        <g
           id="g6714">
          <path
             style="fill:#1c4781"
             inkscape:connector-curvature="0"
             id="path6716"
             d="m 1253.814,3057.597 c -0.543,-0.495 -0.645,-0.92 0.021,-1.458 0.652,-0.528 1.185,-1.202 1.791,-1.791 0.346,-0.337 0.45,-0.565 0.021,-0.968 -0.41,-0.383 -0.695,-0.477 -1.103,-0.063 -1.072,1.09 -2.139,2.188 -3.243,3.243 -0.394,0.375 -0.24,0.525 0.083,0.813 1.143,1.015 2.271,2.047 3.357,3.121 0.317,0.313 0.675,0.417 0.851,0.113 0.17,-0.295 0.813,-0.613 0.27,-1.133 -0.683,-0.626 -1.364,-1.252 -2.048,-1.877 z" />
        </g>
        <g
           id="g6718">
          <path
             style="fill:#1c4781"
             inkscape:connector-curvature="0"
             id="path6720"
             d="m 1248.164,3063.364 c -0.556,-0.202 -0.717,-0.218 -0.84,0.363 -0.315,1.497 -0.674,2.986 -0.997,4.481 -0.051,0.234 -0.303,0.544 0.135,0.705 0.335,0.123 0.67,0.256 0.846,0.322 0.463,-0.264 0.394,-0.535 0.446,-0.76 0.2,-0.865 0.466,-1.723 0.578,-2.6 0.104,-0.807 0.432,-0.863 1.106,-0.631 0.876,0.302 1.793,0.479 2.677,0.757 0.469,0.146 0.696,0.041 0.732,-0.45 0.028,-0.38 0.416,-0.794 -0.382,-0.966 -1.454,-0.31 -2.902,-0.714 -4.301,-1.221 z" />
        </g>
        <g
           id="g6722">
          <path
             style="fill:#1c4781"
             inkscape:connector-curvature="0"
             id="path6724"
             d="m 1252.449,3053.614 c -0.304,-0.233 -0.5,-0.861 -1.068,-0.412 -0.304,0.24 -0.657,0.356 -0.92,0.728 -0.527,0.742 -1.157,1.449 -1.869,2.016 -0.826,0.657 -1.774,0.438 -2.561,-0.151 -0.791,-0.592 -0.132,-1.234 0.2,-1.673 0.429,-0.564 1.103,-1.108 1.808,-1.113 1.028,-0.01 1.742,-0.705 2.666,-0.911 0.685,-0.154 0.244,-0.742 0.16,-1.117 -0.107,-0.489 -0.528,-0.354 -0.765,-0.168 -0.806,0.632 -1.848,0.399 -2.709,0.803 -0.486,0.228 -0.612,0.214 -0.81,-0.456 -0.253,-0.863 -0.597,-1.721 -0.768,-2.611 -0.161,-0.841 -0.791,-0.875 -1.334,-0.764 -0.742,0.152 -0.254,0.715 -0.147,1.066 0.666,2.203 1.433,4.402 -0.411,6.439 -0.045,0.049 -0.131,0.06 -0.196,0.088 -1.79,-2.381 -1.806,-2.469 -1.106,-5.274 0.127,-0.507 0.228,-1.02 0.343,-1.528 0.156,-0.69 -0.441,-0.508 -0.753,-0.647 -0.354,-0.159 -0.62,-0.123 -0.684,0.343 -0.039,0.278 -0.117,0.553 -0.182,0.829 -0.694,2.938 -0.689,2.919 -3.572,2.089 -0.491,-0.142 -1.211,-0.762 -1.526,0.193 -0.333,1.007 0.544,1.033 1.17,1.217 0.194,0.057 0.397,0.086 0.586,0.155 1.571,0.582 3.384,0.768 4.006,2.794 0.193,0.632 0.093,0.839 -0.474,0.863 -1.366,0.063 -2.72,0.145 -3.677,-1.197 -0.413,-0.578 -1.092,-0.959 -1.583,-1.491 -0.442,-0.479 -0.742,-0.443 -1.182,0.01 -0.461,0.473 -0.224,0.762 0.129,1.085 0.594,0.544 1.172,1.108 1.79,1.625 0.576,0.481 0.88,0.844 0.05,1.436 -0.645,0.461 -1.144,1.13 -1.689,1.723 -0.262,0.285 -0.823,0.477 -0.227,1.034 0.481,0.45 0.822,0.548 1.288,0.026 0.511,-0.57 1.048,-1.119 1.602,-1.646 0.848,-0.81 1.822,-1.295 3.046,-1.183 0.854,0.08 1.048,0.368 0.751,1.241 -0.577,1.698 -1.998,2.098 -3.447,2.401 -1.351,0.282 -2.285,0.769 -2.003,2.363 1.223,-0.81 2.677,-0.86 4.031,-1.24 0.255,-0.071 0.372,0.053 0.469,0.236 0.123,0.23 0.01,0.396 -0.204,0.46 -1.265,0.367 -2.53,0.734 -3.804,1.07 -0.27,0.071 -0.397,-0.209 -0.527,-0.407 -0.292,0.271 -0.546,0.604 -0.881,0.798 -0.484,0.279 -0.902,0.537 -0.634,1.18 0.272,0.649 0.786,0.368 1.24,0.294 0.218,-0.035 0.491,-0.245 0.603,0.109 0.104,0.33 -0.247,0.344 -0.42,0.477 -0.698,0.536 -1.57,0.61 -2.362,0.896 -0.407,0.147 -0.864,0.248 -0.619,0.92 0.186,0.511 0.247,0.939 0.95,0.574 0.332,-0.171 0.79,0.153 1.139,-0.185 0.164,-0.159 0.37,-0.379 0.604,-0.113 0.187,0.211 0.064,0.485 -0.026,0.684 -0.25,0.549 -0.541,1.083 -0.847,1.604 -0.243,0.412 -0.296,0.705 0.218,0.971 0.469,0.243 0.743,0.308 1.057,-0.251 0.438,-0.783 0.769,-1.651 1.439,-2.357 0.504,0.626 0.524,1.333 0.692,1.983 0.136,0.526 0.37,0.745 0.944,0.581 0.538,-0.152 0.704,-0.384 0.538,-0.951 -0.36,-1.238 -0.677,-2.492 -0.968,-3.748 -0.189,-0.822 -0.458,-1.398 -1.43,-0.842 -0.148,0.084 -0.312,0.133 -0.423,-0.029 -0.157,-0.229 0,-0.363 0.187,-0.471 0.313,-0.184 0.62,-0.376 0.939,-0.546 0.588,-0.313 1.024,-0.379 1.175,0.498 0.148,0.87 0.443,1.714 0.662,2.572 0.13,0.507 0.349,0.759 0.938,0.565 0.528,-0.174 0.718,-0.388 0.522,-0.962 -0.246,-0.724 -0.431,-1.474 -0.57,-2.226 -0.103,-0.551 -0.702,-1.41 -0.084,-1.602 0.716,-0.223 0.577,0.84 0.809,1.327 0.212,0.444 0.331,0.823 0.927,0.571 0.506,-0.214 0.872,-0.409 0.588,-1.119 -0.352,-0.875 -0.553,-1.812 -0.801,-2.727 -0.135,-0.497 -0.343,-0.98 -0.016,-1.513 0.437,-0.711 0.805,-1.463 1.201,-2.197 0.272,0.278 0.544,0.556 0.816,0.833 0.096,0.157 0.192,0.314 0.289,0.471 0.104,0.537 0.473,0.932 0.747,1.379 -0.501,1.249 -0.313,2.689 -1.175,3.868 -0.307,0.419 0.233,0.765 0.702,0.874 0.398,0.094 0.858,0.418 1,-0.346 0.19,-1.024 0.437,-2.038 0.666,-3.055 0.069,-0.31 0.104,-0.67 0.595,-0.396 0.931,0.52 2.052,0.297 3.007,0.751 0.414,0.197 0.75,0.198 0.87,-0.401 0.107,-0.529 0.17,-0.898 -0.521,-1.052 -1.258,-0.28 -2.497,-0.638 -3.742,-0.964 -0.563,-0.979 -1.354,-1.836 -1.605,-2.982 2.47,-0.469 4.229,0.691 5.712,2.493 0.075,0.092 0.211,0.138 0.276,0.233 0.355,0.516 0.697,0.385 1.096,0.034 0.463,-0.408 0.348,-0.735 -0.049,-1.098 -0.687,-0.625 -1.32,-1.313 -2.049,-1.884 -0.502,-0.395 -0.437,-0.672 -0.052,-1.047 0.692,-0.678 1.38,-1.359 2.064,-2.046 0.219,-0.216 0.579,-0.454 0.165,-0.772 z" />
        </g>
      </g>
      <g
         style="opacity:0.8"
         id="g6772">
        <g
           id="g6774">
          <path
             style="fill:#1c4781"
             inkscape:connector-curvature="0"
             id="path6776"
             d="m 1190.525,3159.822 c 13.505,-16.252 28.969,6.593 28.969,6.593 l -1.845,0.607 3.169,9.63 29.918,-9.843 0.746,0.891 -3.506,-10.656 c 0,0 0,0 -5.324,1.071 -12.852,-28.02 -21.979,-32.284 -21.979,-32.284 l -22.13,7.281 5.099,4.813 c 0,0 -1.699,0.295 -13.729,4.157 -14.326,4.601 -11.611,21.307 -11.611,21.307 0,0 -1.229,0.405 12.223,-3.567 z m 14.534,-26.326 c 3.25,-1.068 4.003,-1.316 4.149,-1.365 0,0 10.262,5.565 18.94,30.132 0,0 -20.306,-27.554 -23.089,-28.767 z m -23.946,26.613 c 0,0 0.262,-8.262 6.674,-12.585 0,0 -5.054,3.792 -3.678,11.6 -2.483,0.731 -2.996,0.985 -2.996,0.985 z" />
        </g>
        <g
           id="g6778">
          <rect
             style="fill:#1c4781"
             id="rect6780"
             height="4.2069998"
             width="11.572"
             transform="matrix(0.9499,-0.3125,0.3125,0.9499,-929.7075,528.7847)"
             y="3162.8181"
             x="1179.079" />
        </g>
        <g
           id="g6782">
          <path
             style="fill:#1c4781"
             inkscape:connector-curvature="0"
             id="path6784"
             d="m 1217.307,3178.021 1.645,-0.541 0.572,1.739 0.728,-0.24 0.541,1.645 -2.372,0.78 -1.114,-3.383 z m 7.877,-0.666 4.11,-1.353 0.541,1.645 -4.11,1.353 -0.541,-1.645 z m 8.22,-2.705 4.933,-1.622 0.541,1.644 -4.933,1.623 -0.541,-1.645 z m 9.043,-2.974 4.111,-1.353 0.541,1.644 -4.111,1.354 -0.541,-1.645 z m 7.782,-3.642 3.486,-1.94 0.842,1.513 -2.237,1.245 0.104,0.32 -1.644,0.541 -0.551,-1.679 z m 0.244,-9.904 1.645,-0.541 1.623,4.933 -1.645,0.541 -1.623,-4.933 z m -36.141,10.848 1.644,-0.541 1.623,4.933 -1.645,0.541 -1.622,-4.933 z m 31.576,-13.59 -0.342,-1.697 4.941,-0.993 0.257,0.781 -0.828,0.272 0.16,0.794 -4.188,0.843 z m -31.33,9.62 -0.601,0.533 c -0.961,-1.082 -1.948,-2.082 -2.935,-2.971 l 1.158,-1.285 c 1.034,0.932 2.067,1.977 3.071,3.107 l 0.874,0.984 -1.306,0.43 -0.261,-0.798 z m -37.84,5.766 1.645,-0.54 0.348,1.059 2.23,-0.734 0.541,1.645 -3.874,1.274 -0.89,-2.704 z m 8.333,-1.567 4.11,-1.353 0.541,1.644 -4.11,1.353 -0.541,-1.644 z m 9.314,-2.153 -0.531,0.175 -1.256,-3.82 1.644,-0.54 1.527,4.642 -1.113,0.365 -0.271,-0.822 z m 45.573,-19.051 1.531,-0.806 c 0.658,1.25 1.323,2.553 1.976,3.873 l -1.552,0.768 c -0.645,-1.308 -1.304,-2.598 -1.955,-3.835 z m -36.673,10.004 0.399,-1.685 c 1.361,0.323 2.78,0.913 4.218,1.756 l -0.876,1.493 c -1.288,-0.755 -2.547,-1.281 -3.741,-1.564 z m -9.144,0.984 c 1.562,-1.382 3.202,-2.293 4.856,-2.699 l 0.413,1.682 c -1.387,0.341 -2.773,1.119 -4.122,2.313 l -1.147,-1.296 z m -20.18,3.342 1.086,-0.357 0.156,0.475 0.947,-0.073 c 0.01,0.121 0.02,0.235 0.029,0.342 l 0.063,0.686 -0.096,0.032 0.884,2.687 -1.645,0.541 -1.424,-4.333 z m 61.323,-22.55 1.473,-0.911 c 0.88,1.423 1.772,2.938 2.654,4.503 l -1.509,0.849 c -0.869,-1.544 -1.75,-3.038 -2.618,-4.441 z m -60.798,17.387 c 0.12,-1.204 0.313,-2.387 0.574,-3.513 0.068,-0.297 0.142,-0.59 0.22,-0.88 l 1.671,0.45 c -0.072,0.271 -0.141,0.544 -0.205,0.82 -0.244,1.054 -0.425,2.163 -0.537,3.294 l -1.723,-0.171 z m 55.973,-24.463 1.377,-1.049 c 0.842,1.105 1.699,2.301 2.55,3.552 l -1.433,0.973 c -0.832,-1.226 -1.671,-2.395 -2.494,-3.476 z m -53.606,15.866 c 0.819,-1.656 1.84,-3.165 3.033,-4.483 l 1.283,1.161 c -1.087,1.2 -2.017,2.576 -2.765,4.089 l -1.551,-0.767 z m 47.321,-22.737 1.12,-1.32 c 1.017,0.863 2.085,1.902 3.175,3.091 l -1.275,1.17 c -1.042,-1.136 -2.058,-2.126 -3.02,-2.941 z m -40.871,15.29 c 1.215,-0.823 2.557,-1.528 3.987,-2.098 l 0.639,1.609 c -1.314,0.521 -2.544,1.169 -3.655,1.921 l -0.971,-1.432 z m 9.497,-2.096 -0.522,-1.65 c 1.606,-0.508 2.974,-0.934 4.137,-1.292 l 0.509,1.655 c -1.16,0.357 -2.524,0.781 -4.124,1.287 z m -1.433,-7.518 1.534,-0.505 0.402,-0.53 c 0.248,0.188 0.491,0.375 0.73,0.561 l 1.282,0.998 -0.647,0.213 1.688,1.593 -1.188,1.259 -3.801,-3.589 z m 28.419,-9.093 c -1.019,-0.779 -2.049,-1.541 -3.063,-2.265 l 1.005,-1.41 c 1.03,0.735 2.077,1.51 3.11,2.301 l 1.074,0.822 -1.052,1.374 -1.074,-0.822 z m -34.624,4.696 0.844,-1.511 c 1.144,0.639 2.401,1.42 3.739,2.321 l -0.968,1.435 c -1.297,-0.874 -2.513,-1.63 -3.615,-2.245 z m 24.373,-11.639 0.877,-1.492 c 1.223,0.719 2.472,1.493 3.712,2.302 l -0.945,1.449 c -1.218,-0.795 -2.444,-1.554 -3.644,-2.259 z m -48.487,13.016 c -0.034,-0.089 -0.066,-0.179 -0.097,-0.271 -0.069,-0.21 -0.129,-0.429 -0.177,-0.65 l 1.691,-0.368 c 0.035,0.163 0.079,0.324 0.13,0.478 0.021,0.066 0.045,0.131 0.068,0.194 l 0.987,2.58 -0.123,0.047 0.282,0.855 -1.481,0.486 -1.28,-3.351 z m 6.332,-0.133 4.933,-1.623 0.541,1.645 -4.933,1.623 -0.541,-1.645 z m 9.043,-2.975 4.11,-1.353 0.541,1.645 -4.11,1.353 -0.541,-1.645 z m 24.73,-14.144 0.659,-1.601 c 1.262,0.52 2.605,1.136 3.991,1.83 l -0.776,1.548 c -1.347,-0.675 -2.651,-1.274 -3.874,-1.777 z m -39.293,10.699 c 0.854,-1.259 2.1,-2.256 3.702,-2.965 l 0.701,1.582 c -1.303,0.576 -2.303,1.369 -2.972,2.354 l -1.431,-0.971 z m 3.935,-3.064 c 0.813,-0.339 2.431,-0.918 4.943,-1.77 l 0.556,1.64 c -2.44,0.827 -4.067,1.408 -4.834,1.728 l -0.665,-1.598 z m 31.569,-8.576 c -0.046,0.015 -1.896,0.6 -4.67,1.484 l -0.526,-1.649 c 2.778,-0.886 4.63,-1.472 4.676,-1.486 l 0.287,-0.09 0.521,1.65 -0.288,0.091 z m -12.918,4.129 -0.531,-1.647 c 1.421,-0.458 2.813,-0.905 4.125,-1.327 l 0.528,1.648 c -1.31,0.42 -2.701,0.867 -4.122,1.326 z m -8.14,2.648 -0.913,0.301 -0.544,-1.644 0.917,-0.302 c 1.036,-0.342 2.111,-0.693 3.202,-1.049 l 0.536,1.646 c -1.09,0.356 -2.163,0.707 -3.198,1.048 z" />
        </g>
        <g
           id="g6786">
          <path
             style="fill:#1c4781"
             inkscape:connector-curvature="0"
             id="path6788"
             d="m 1164.563,3127.147 c 0,0 7.837,-2.578 16.751,-5.511 5.473,0.583 15.952,9.398 15.952,9.398 l 21.285,-7.003 c -12.293,-9.41 -20.572,-11.796 -20.572,-11.796 0,0 -26.843,8.49 -30.737,10.112 -3.894,1.622 -2.679,4.8 -2.679,4.8 z m 21.822,-7.179 c 0,0 8.294,-1.195 17.246,5.566 l -4.918,1.618 -12.328,-7.184 z" />
        </g>
      </g>
      <g
         style="opacity:0.8"
         id="g6812">
        <g
           id="g6814">
          <path
             style="fill:#1c4781"
             inkscape:connector-curvature="0"
             id="path6816"
             d="m 1183.824,2765.257 -0.705,-1.825 c -0.194,-0.504 -0.928,-0.69 -1.638,-0.416 l -13.606,5.257 c -0.711,0.274 -1.129,0.906 -0.935,1.41 l 0.704,1.825 c 0.195,0.504 0.93,0.69 1.64,0.416 l 13.606,-5.257 c 0.712,-0.274 1.129,-0.906 0.934,-1.41 z" />
        </g>
        <g
           id="g6818">
          <path
             style="fill:#1c4781"
             inkscape:connector-curvature="0"
             id="path6820"
             d="m 1173.72,2764.885 0.841,-0.325 c 0.659,-0.255 0.988,-0.996 0.733,-1.655 l -0.866,-2.245 c -0.255,-0.659 -0.997,-0.987 -1.656,-0.732 l -0.841,0.325 c -0.659,0.254 -0.987,0.996 -0.732,1.655 l 0.866,2.245 c 0.254,0.659 0.996,0.987 1.655,0.732 z" />
        </g>
        <g
           id="g6822">
          <rect
             style="fill:#1c4781"
             id="rect6824"
             height="34.464001"
             width="2.8599999"
             transform="matrix(-0.3602,-0.9329,0.9329,-0.3602,-949.9819,4910.3809)"
             y="2763.7109"
             x="1207.3669" />
        </g>
        <g
           id="g6826">
          <path
             style="fill:#1c4781"
             inkscape:connector-curvature="0"
             id="path6828"
             d="m 1200.095,2823.729 -0.494,-1.324 3.288,-1.271 0.509,1.318 -3.252,1.257 -0.051,0.02 z m 6.089,-3.868 3.954,-1.528 0.509,1.318 -3.954,1.528 -0.509,-1.318 z m 7.249,-2.8 3.295,-1.273 0.509,1.318 -3.295,1.273 -0.509,-1.318 z m 7.249,-2.801 3.295,-1.273 0.509,1.318 -3.295,1.273 -0.509,-1.318 z m 6.589,-2.547 2.686,-1.037 c 0.354,-0.137 0.68,-0.328 0.968,-0.569 l 0.906,1.085 c -0.407,0.34 -0.866,0.609 -1.364,0.803 l -2.687,1.038 -0.509,-1.32 z m -33.414,9.21 -0.162,-0.419 c -0.118,-0.307 -0.205,-0.624 -0.26,-0.943 l 1.394,-0.235 c 0.038,0.227 0.101,0.451 0.185,0.669 l 0.162,0.42 c 0.225,0.583 0.604,1.094 1.097,1.477 l -0.867,1.116 c -0.696,-0.541 -1.231,-1.262 -1.549,-2.085 z m 38.306,-13.379 c 0.013,-0.456 -0.065,-0.903 -0.23,-1.331 l -0.162,-0.42 c -0.145,-0.376 -0.352,-0.72 -0.614,-1.021 l 1.065,-0.929 c 0.371,0.426 0.663,0.91 0.867,1.439 l 0.162,0.42 c 0.232,0.604 0.342,1.235 0.325,1.879 l -1.413,-0.037 z m -38.871,7.114 -0.967,0.373 -0.509,-1.318 2.284,-0.882 1.154,2.988 -1.318,0.509 -0.644,-1.67 z m 32.796,-15.017 1.318,-0.509 1.272,3.296 -1.318,0.509 -1.272,-3.296 z m -39.282,13.05 1.317,-0.51 1.249,3.233 -0.597,0.23 0.255,0.659 -0.722,0.279 -1.502,-3.891 z m 37.685,-17.185 0.106,-0.26 c 0.444,-1.087 0.81,-2.21 1.083,-3.34 l 1.373,0.333 c -0.269,1.108 -0.619,2.21 -1.043,3.28 l 0.122,0.316 -1.317,0.51 -0.324,-0.839 z m -40.234,10.586 c -0.09,-0.079 -0.18,-0.158 -0.269,-0.238 l 0.945,-1.05 c 0.124,0.111 0.25,0.222 0.377,0.331 l 0.137,0.115 1.149,2.978 -1.318,0.509 -1.021,-2.645 z m 41.979,-17.564 c 0.099,-1.138 0.11,-2.288 0.035,-3.421 l 1.409,-0.094 c 0.081,1.204 0.068,2.428 -0.037,3.638 l -1.407,-0.123 z m -47.189,11.068 1.243,-0.673 c 0.649,1.203 1.417,2.35 2.28,3.407 l -1.095,0.894 c -0.918,-1.127 -1.736,-2.348 -2.428,-3.628 z m 48.766,-18.428 0.785,-0.303 -0.461,-1.193 1.318,-0.509 0.969,2.511 -2.102,0.813 -0.509,-1.319 z m -52.833,15.102 1.317,-0.509 1.273,3.296 -1.318,0.509 -1.272,-3.296 z m 51.524,-23.332 1.318,-0.509 1.527,3.954 -1.318,0.51 -1.527,-3.955 z m -54.324,16.082 1.318,-0.51 1.272,3.296 -1.317,0.509 -1.273,-3.295 z m 21.646,-7.668 3.295,-1.273 0.51,1.318 -3.296,1.273 -0.509,-1.318 z m 7.249,-2.801 3.295,-1.273 0.509,1.318 -3.295,1.273 -0.509,-1.318 z m 6.59,-2.546 3.954,-1.528 0.51,1.318 -3.955,1.528 -0.509,-1.318 z m 7.249,-2.801 3.295,-1.272 0.51,1.317 -3.295,1.273 -0.51,-1.318 z m 7.249,-2.801 3.295,-1.272 0.51,1.318 -3.295,1.272 -0.51,-1.318 z m -32.628,7.066 1.318,-0.509 1.527,3.955 -1.318,0.509 -1.527,-3.955 z m -20.155,4.3 1.318,-0.51 1.527,3.955 -1.318,0.509 -1.527,-3.954 z m 17.61,-10.892 1.317,-0.509 1.273,3.296 -1.318,0.509 -1.272,-3.296 z m -20.155,4.3 1.317,-0.509 1.273,3.295 -1.318,0.51 -1.272,-3.296 z m 19.062,-8.722 c 0.215,-0.658 0.198,-1.344 -0.048,-1.98 l -0.371,-0.96 1.318,-0.509 0.37,0.959 c 0.365,0.945 0.391,1.957 0.074,2.928 l -1.343,-0.438 z m -22.299,4.52 c -0.319,-0.826 -0.379,-1.719 -0.172,-2.582 l 1.373,0.33 c -0.139,0.582 -0.099,1.186 0.116,1.742 l 0.479,1.242 -1.317,0.51 -0.479,-1.242 z m 17.101,-9.985 -0.422,0.163 -0.509,-1.318 0.421,-0.163 c 1.439,-0.556 2.99,-0.485 4.256,0.193 l -0.668,1.246 c -0.901,-0.484 -2.023,-0.528 -3.078,-0.121 z m -14.799,4.256 c 0.218,-0.119 0.448,-0.227 0.683,-0.316 l 1.688,-0.652 -0.366,-0.949 1.317,-0.509 0.876,2.267 -3.007,1.161 c -0.176,0.068 -0.348,0.148 -0.512,0.238 l -0.679,-1.24 z m 10.552,-5.369 c -0.284,-0.737 -0.795,-1.337 -1.478,-1.735 l 0.711,-1.221 c 0.949,0.554 1.689,1.423 2.085,2.446 l 0.264,0.684 -1.318,0.509 -0.264,-0.683 z m -8.443,-0.535 c 0.538,-1.122 1.473,-1.986 2.631,-2.435 l 0.367,-0.142 0.509,1.318 -0.367,0.142 c -0.821,0.317 -1.484,0.931 -1.865,1.728 l -1.275,-0.611 z" />
        </g>
        <g
           id="g6830">
          <path
             style="fill:#1c4781"
             inkscape:connector-curvature="0"
             id="path6832"
             d="m 1218.886,2779.708 -26.813,10.358 -8.769,-22.707 -13.615,5.26 9.202,23.831 2.245,-0.868 c 1.688,4.369 4.778,7.811 8.624,10.063 l -1.597,0.617 2.196,5.687 4.983,-1.926 2.846,7.372 -0.42,0.162 c -0.659,0.254 -0.986,0.995 -0.731,1.655 l 0.162,0.419 c 0.255,0.66 0.995,0.988 1.654,0.734 l 30.321,-11.715 c 0.658,-0.255 0.986,-0.996 0.732,-1.656 l -0.162,-0.419 c -0.255,-0.659 -0.996,-0.987 -1.655,-0.733 l -1.685,0.65 -4.267,-11.049 c 2.164,-4.596 2.673,-9.843 1.087,-14.831 l 2.563,-0.99 -0.867,-2.247 -2.563,0.991 -3.471,1.342 z m -31.848,9.642 -6.859,-17.762 1.579,-0.611 6.859,17.763 -1.579,0.61 z m 11.232,12.165 c -4.438,-1.709 -8.167,-5.216 -10.016,-10.004 -0.049,-0.125 -0.089,-0.251 -0.135,-0.376 1.857,4.492 5.471,7.752 9.73,9.294 l 0.421,1.086 z m 18.163,-3.515 -0.73,-1.893 c 3.403,-3.669 5.042,-8.762 4.271,-13.835 l 1.648,-0.638 c 1.277,6.057 -0.787,12.261 -5.189,16.366 z" />
        </g>
      </g>
      <g
         style="opacity:0.8"
         id="g6834">
        <g
           id="g6836">
          <g
             id="g6838">
            <path
               style="fill:#1c4781"
               inkscape:connector-curvature="0"
               id="path6840"
               d="m 1279.291,2501.954 -78.34,45.364 c -0.791,0.458 -1.063,1.47 -0.605,2.258 l 1.264,2.184 c 0.457,0.789 1.469,1.057 2.261,0.599 l 78.339,-45.364 c 0.792,-0.458 1.063,-1.469 0.606,-2.258 l -1.265,-2.184 c -0.456,-0.788 -1.469,-1.057 -2.26,-0.599 z" />
          </g>
          <g
             id="g6842">
            <path
               style="fill:#1c4781"
               inkscape:connector-curvature="0"
               id="path6844"
               d="m 1281.222,2509.218 -74.933,43.391 c -0.867,0.503 -1.277,1.416 -0.916,2.04 l 3.653,6.308 c 0.06,0.104 0.142,0.187 0.232,0.261 0.162,0.369 0.348,0.742 0.567,1.122 3.436,5.931 11.244,8.548 20.971,7.954 l -0.816,0.461 c -0.873,0.494 -1.413,1.806 -1.205,2.929 l 0.242,1.312 -1.658,0.96 c -0.862,0.499 -1.156,1.601 -0.657,2.462 l 1.06,1.831 c 0.499,0.861 1.602,1.155 2.463,0.655 l 2.29,-1.325 c 0.649,-0.376 0.975,-1.099 0.88,-1.8 0.728,-0.58 1.153,-1.744 0.966,-2.76 l -0.752,-4.066 c -0.066,-0.355 -0.203,-0.643 -0.382,-0.863 8.47,-0.946 18.169,-4.184 27.621,-9.657 8.974,-5.196 16.302,-11.589 21.332,-18.105 0.088,0.11 0.188,0.22 0.309,0.321 l 3.152,2.676 c 0.787,0.669 2.009,0.879 2.874,0.537 0.562,0.431 1.35,0.509 2,0.131 l 2.289,-1.325 c 0.861,-0.499 1.155,-1.601 0.656,-2.462 l -1.06,-1.83 c -0.499,-0.862 -1.601,-1.155 -2.462,-0.656 l -1.658,0.96 -1.018,-0.862 c -0.802,-0.681 -2.051,-0.884 -2.919,-0.515 5.368,-8.147 6.995,-16.232 3.557,-22.171 -0.221,-0.381 -0.452,-0.729 -0.691,-1.057 -0.02,-0.113 -0.051,-0.225 -0.109,-0.326 l -3.653,-6.308 c -0.362,-0.627 -1.359,-0.725 -2.225,-0.223 z m -23.48,47.164 c -13.683,7.924 -28.146,10.487 -38.345,7.745 9.62,0.904 21.717,-1.973 33.249,-8.65 14.194,-8.221 23.813,-20.045 26.084,-30.55 l 5.604,-3.245 c -0.272,11.412 -10.489,25.376 -26.592,34.7 z" />
          </g>
        </g>
        <g
           id="g6846">
          <path
             style="fill:#1c4781"
             inkscape:connector-curvature="0"
             id="path6848"
             d="m 1297.012,2548.283 -0.991,0.574 c -1.11,0.643 -2.44,0.744 -3.623,0.289 -0.308,0.041 -0.622,0.055 -0.94,0.041 l 0.09,-2.104 c 0.266,0.011 0.525,-0.01 0.771,-0.059 l 0.35,-0.072 0.321,0.156 c 0.63,0.306 1.369,0.277 1.977,-0.074 l 0.991,-0.574 1.054,1.823 z m -64.017,36.918 -1.474,-1.504 c 0.367,-0.359 0.589,-0.841 0.623,-1.355 l 0.025,-0.357 0.237,-0.268 c 0.659,-0.746 0.968,-1.866 0.786,-2.854 l 2.064,-0.414 c 0.284,1.539 -0.119,3.181 -1.051,4.394 -0.137,0.893 -0.559,1.721 -1.21,2.358 z m -5.338,2.664 c -1.558,0.049 -3.009,-0.756 -3.788,-2.101 l -0.927,-1.602 1.822,-1.056 0.927,1.602 c 0.391,0.673 1.118,1.076 1.899,1.051 l 0.067,2.106 z m 33.929,-22.109 c -1.864,1.027 -3.78,2 -5.696,2.893 l -0.889,-1.909 c 1.872,-0.872 3.745,-1.824 5.569,-2.829 l 1.016,1.845 z m 4.592,-2.697 -1.117,-1.787 c 1.479,-0.924 2.939,-1.894 4.338,-2.881 l 1.215,1.721 c -1.432,1.009 -2.925,2.001 -4.436,2.947 z m -15.177,7.697 c -1.667,0.661 -3.353,1.271 -5.012,1.813 l -0.653,-2.002 c 1.617,-0.528 3.263,-1.123 4.888,-1.768 l 0.777,1.957 z m 49.323,-28.622 -1.945,0.81 c -0.035,-0.086 -0.077,-0.17 -0.125,-0.253 l -1.167,-2.017 c -0.286,-0.492 -0.749,-0.843 -1.304,-0.985 l 0.523,-2.04 c 1.107,0.284 2.031,0.983 2.603,1.971 l 1.168,2.016 c 0.093,0.16 0.176,0.328 0.247,0.498 z m -24.62,14.108 -1.335,-1.63 c 1.355,-1.109 2.672,-2.261 3.915,-3.421 l 1.438,1.54 c -1.277,1.192 -2.628,2.373 -4.018,3.511 z m -35.877,18.067 c -1.772,0.422 -3.538,0.77 -5.247,1.033 l -0.322,-2.081 c 1.654,-0.257 3.364,-0.593 5.082,-1.001 l 0.487,2.049 z m 43.668,-25.354 -1.542,-1.434 c 1.086,-1.168 2.125,-2.366 3.087,-3.563 l 0.678,-0.842 1.989,1.689 -1.362,1.605 -0.349,-0.296 c -0.796,0.958 -1.634,1.909 -2.501,2.841 z m -56.452,29.84 -0.998,0.578 -0.601,-1.038 -0.607,0.112 -0.116,-0.625 c -0.11,-0.598 -0.114,-1.221 -0.019,-1.836 -0.041,0 -0.081,0 -0.123,0 l 0.073,-2.104 c 0.477,0.017 0.958,0.025 1.447,0.025 l 1.627,0 -0.668,1.483 c -0.295,0.655 -0.39,1.384 -0.267,2.051 l 0.252,1.356 z m 63.805,-39.142 c -0.256,-0.136 -0.532,-0.241 -0.822,-0.313 l -1.382,-0.341 0.73,-1.223 c 0.899,-1.502 1.685,-3.008 2.336,-4.475 l 1.925,0.855 c -0.529,1.19 -1.141,2.404 -1.826,3.621 0.01,0 0.018,0.01 0.025,0.013 l -0.986,1.863 z m -71.649,35.783 c -2.284,-0.403 -4.398,-1.023 -6.285,-1.842 l 0.838,-1.932 c 1.736,0.753 3.691,1.324 5.813,1.699 l -0.366,2.075 z m 76.246,-46.399 -2.039,-0.529 c 0.444,-1.709 0.694,-3.379 0.743,-4.963 l 2.105,0.064 c -0.054,1.742 -0.326,3.568 -0.809,5.428 z m -87.279,41.715 c -1.479,-1.198 -2.729,-2.6 -3.717,-4.164 l 1.781,-1.124 c 0.864,1.37 1.961,2.599 3.262,3.651 l -1.326,1.637 z m 87.148,-53.734 -1.994,0.68 c -0.31,-0.909 -0.709,-1.789 -1.188,-2.617 -0.199,-0.344 -0.407,-0.668 -0.637,-0.99 l -0.103,-0.144 -0.05,-0.169 c -0.023,-0.08 -0.054,-0.152 -0.093,-0.22 l -0.207,-0.356 1.823,-1.056 0.206,0.356 c 0.092,0.158 0.17,0.326 0.232,0.5 0.23,0.333 0.444,0.669 0.649,1.022 0.551,0.948 1.008,1.955 1.362,2.994 z m -92.236,43.023 -1.822,1.056 -2.039,-3.521 c -0.292,-0.504 -0.446,-1.08 -0.447,-1.669 l 2.106,0 c 0,0.223 0.056,0.431 0.163,0.617 l 2.039,3.521 z m 87.15,-52.452 -1.823,1.056 -1.177,-2.033 c -0.244,-0.422 -0.662,-0.576 -0.969,-0.631 l -2.673,-0.479 2.296,-1.449 c 0.345,-0.218 0.608,-0.532 0.763,-0.909 l 1.95,0.798 c -0.098,0.238 -0.217,0.465 -0.354,0.676 0.324,0.258 0.598,0.573 0.811,0.939 l 1.176,2.032 z m -94.978,47.087 c -0.063,-0.09 -0.121,-0.184 -0.178,-0.279 l -1.392,-2.404 c -0.766,-1.322 -0.725,-2.944 0.106,-4.232 l 1.77,1.143 c -0.4,0.621 -0.421,1.4 -0.053,2.034 l 1.392,2.404 c 0.026,0.045 0.054,0.089 0.083,0.131 l -1.728,1.203 z m 91.838,-56.486 -1.822,1.056 -0.125,-0.216 c -0.537,-0.928 -1.732,-1.245 -2.663,-0.706 l -5.468,3.166 -1.056,-1.822 5.468,-3.166 c 1.937,-1.121 4.422,-0.461 5.541,1.473 l 0.125,0.215 z m -14.635,5.939 -4.557,2.639 -1.056,-1.822 4.557,-2.639 1.056,1.822 z m -10.024,5.806 -4.557,2.639 -1.056,-1.823 4.557,-2.639 1.056,1.823 z m -9.114,5.277 -5.468,3.166 -1.056,-1.823 5.468,-3.166 1.056,1.823 z m -10.024,5.805 -4.557,2.639 -1.056,-1.823 4.557,-2.639 1.056,1.823 z m -10.025,5.804 -4.557,2.639 -1.055,-1.822 4.557,-2.639 1.055,1.822 z m -9.114,5.278 -5.468,3.166 -1.056,-1.822 5.469,-3.166 1.055,1.822 z m -10.024,5.804 -4.557,2.639 -1.056,-1.822 4.557,-2.639 1.056,1.822 z m -10.024,5.806 -4.557,2.639 -1.056,-1.823 4.557,-2.639 1.056,1.823 z" />
        </g>
      </g>
    </g>
  </g>
</svg>
