<?xml version="1.0" encoding="UTF-8" standalone="no"?>
<!-- Created with Inkscape (http://www.inkscape.org/) -->

<svg
   xmlns:dc="http://purl.org/dc/elements/1.1/"
   xmlns:cc="http://creativecommons.org/ns#"
   xmlns:rdf="http://www.w3.org/1999/02/22-rdf-syntax-ns#"
   xmlns:svg="http://www.w3.org/2000/svg"
   xmlns="http://www.w3.org/2000/svg"
   xmlns:sodipodi="http://sodipodi.sourceforge.net/DTD/sodipodi-0.dtd"
   xmlns:inkscape="http://www.inkscape.org/namespaces/inkscape"
   width="56mm"
   height="208mm"
   viewBox="0 0 198.42519 737.00788"
   id="svg12793"
   version="1.1"
   inkscape:version="0.91 r13725"
   sodipodi:docname="section-1-bg-right.svg">
  <defs
     id="defs12795" />
  <sodipodi:namedview
     id="base"
     pagecolor="#ffffff"
     bordercolor="#666666"
     borderopacity="1.0"
     inkscape:pageopacity="0.0"
     inkscape:pageshadow="2"
     inkscape:zoom="0.35"
     inkscape:cx="-325.06784"
     inkscape:cy="370.22607"
     inkscape:document-units="px"
     inkscape:current-layer="layer1"
     showgrid="false"
     fit-margin-top="0"
     fit-margin-left="0"
     fit-margin-right="0"
     fit-margin-bottom="0"
     inkscape:window-width="1366"
     inkscape:window-height="745"
     inkscape:window-x="-8"
     inkscape:window-y="-8"
     inkscape:window-maximized="1" />
  <metadata
     id="metadata12798">
    <rdf:RDF>
      <cc:Work
         rdf:about="">
        <dc:format>image/svg+xml</dc:format>
        <dc:type
           rdf:resource="http://purl.org/dc/dcmitype/StillImage" />
        <dc:title></dc:title>
      </cc:Work>
    </rdf:RDF>
  </metadata>
  <g
     inkscape:label="Layer 1"
     inkscape:groupmode="layer"
     id="layer1"
     transform="translate(-165.78213,-851.29467)">
    <g
       transform="translate(-951.80976,768.84513)"
       style="opacity:0.8"
       id="g683">
      <g
         id="g685">
        <path
           style="fill:#d9d9d6"
           inkscape:connector-curvature="0"
           d="m 1255.526,244.983 c -0.402,-0.118 -0.608,-0.07 -0.701,0.387 -0.217,1.064 -0.477,2.119 -0.723,3.177 -0.088,0.376 -0.184,0.65 0.414,0.751 0.531,0.089 0.631,-0.08 0.705,-0.502 0.088,-0.501 0.217,-0.995 0.387,-1.753 0.449,0.748 0.724,1.298 1.091,1.776 0.189,0.245 0.17,0.893 0.875,0.494 0.674,-0.382 0.313,-0.675 0.114,-1.062 -0.233,-0.451 -0.841,-0.924 -0.636,-1.329 0.224,-0.442 0.863,0.049 1.327,0.057 0.475,0.009 0.61,-0.049 0.715,-0.495 0.109,-0.466 -0.081,-0.573 -0.47,-0.668 -1.037,-0.255 -2.07,-0.534 -3.098,-0.833 z"
           id="path687" />
      </g>
      <g
         id="g689">
        <path
           style="fill:#d9d9d6"
           inkscape:connector-curvature="0"
           d="m 1246.214,231.119 c 0.509,0.159 0.62,-0.047 0.707,-0.488 0.199,-0.999 0.408,-2 0.695,-2.977 0.137,-0.462 0.15,-0.676 -0.372,-0.848 -0.6,-0.198 -0.658,0.132 -0.736,0.555 -0.088,0.471 -0.204,0.938 -0.307,1.406 -0.076,0.012 -0.151,0.025 -0.227,0.037 -0.343,-0.571 -0.707,-1.132 -1.023,-1.717 -0.227,-0.42 -0.477,-0.477 -0.882,-0.243 -0.447,0.261 -0.253,0.544 -0.086,0.842 0.119,0.213 0.253,0.419 0.367,0.635 0.177,0.335 0.657,0.713 0.37,1.028 -0.287,0.314 -0.777,-0.077 -1.179,-0.157 -0.027,-0.006 -0.054,-0.028 -0.076,-0.046 -0.332,-0.275 -0.601,-0.292 -0.747,0.185 -0.129,0.424 -0.256,0.794 0.403,0.94 1.043,0.231 2.073,0.53 3.093,0.848 z"
           id="path691" />
      </g>
      <g
         id="g693">
        <path
           style="fill:#d9d9d6"
           inkscape:connector-curvature="0"
           d="m 1263.262,237.263 c -0.683,0.038 -1.369,0.021 -2.225,0.031 0.494,-0.505 0.84,-0.873 1.199,-1.225 0.274,-0.269 0.519,-0.465 0.115,-0.881 -0.39,-0.404 -0.644,-0.208 -0.91,0.05 -0.77,0.738 -1.524,1.49 -2.273,2.248 -0.216,0.219 -0.393,0.417 -0.022,0.733 0.855,0.733 1.67,1.515 2.477,2.301 0.315,0.308 0.523,0.297 0.818,-0.026 0.304,-0.331 0.257,-0.57 -0.057,-0.832 -0.257,-0.215 -0.507,-0.438 -0.752,-0.667 -0.109,-0.101 -0.26,-0.232 -0.162,-0.381 0.07,-0.107 0.304,-0.236 0.365,-0.197 0.515,0.324 0.986,-0.15 1.476,-0.052 0.467,0.093 0.731,-0.194 0.733,-0.556 0,-0.428 -0.348,-0.57 -0.782,-0.546 z"
           id="path695" />
      </g>
      <g
         id="g697">
        <path
           style="fill:#d9d9d6"
           inkscape:connector-curvature="0"
           d="m 1238.164,238.821 c 0.354,0.053 0.68,0.056 1.035,-0.003 0.297,-0.049 0.666,-0.158 0.909,0.08 0.101,0.267 0.102,0.461 -0.097,0.629 -0.208,0.178 -0.385,0.395 -0.597,0.566 -0.341,0.274 -0.347,0.487 -0.014,0.804 0.327,0.313 0.53,0.278 0.823,-0.023 0.766,-0.783 1.554,-1.546 2.338,-2.313 0.22,-0.213 0.372,-0.418 0.078,-0.684 -0.877,-0.796 -1.765,-1.582 -2.626,-2.394 -0.37,-0.349 -0.508,-0.017 -0.733,0.167 -0.29,0.234 -0.243,0.423 -0.021,0.678 0.36,0.417 1.24,0.749 0.993,1.219 -0.21,0.402 -1.124,0.109 -1.725,0.166 -0.091,0.009 -0.184,0.01 -0.275,0.001 -0.299,-0.029 -0.486,0.078 -0.443,0.403 0.035,0.268 -0.137,0.631 0.355,0.704 z"
           id="path699" />
      </g>
      <g
         id="g701">
        <path
           style="fill:#d9d9d6"
           inkscape:connector-curvature="0"
           d="m 1255.513,230.952 c 0.863,-0.368 1.716,-0.68 2.661,-0.788 0.282,-0.032 0.802,-0.25 0.605,-0.892 -0.187,-0.605 -0.456,-0.502 -0.866,-0.308 -0.242,0.114 -0.515,0.174 -0.779,0.23 -0.168,0.036 -0.461,0.081 -0.498,0.013 -0.088,-0.162 -0.121,-0.369 0.03,-0.584 0.279,-0.395 0.48,-0.844 0.748,-1.248 0.266,-0.402 0.059,-0.58 -0.262,-0.788 -0.365,-0.238 -0.53,-0.098 -0.703,0.231 -0.339,0.646 -0.708,1.274 -1.141,2.045 -0.178,-0.617 -0.286,-1.088 -0.451,-1.539 -0.109,-0.302 0.057,-0.854 -0.668,-0.661 -0.634,0.169 -0.553,0.498 -0.43,0.939 0.265,0.955 0.563,1.904 0.758,2.873 0.139,0.685 0.649,0.624 0.996,0.477 z"
           id="path703" />
      </g>
      <g
         id="g705">
        <path
           style="fill:#d9d9d6"
           inkscape:connector-curvature="0"
           d="m 1253.833,233.294 c 1.019,-0.42 2.078,-0.72 3.16,-0.921 0.791,-0.147 0.618,-0.651 0.453,-1.218 -0.087,-0.215 -0.283,-0.177 -0.505,-0.104 -0.549,0.183 -1.115,0.319 -1.647,0.54 -0.719,0.298 -1.18,0.266 -1.293,-0.656 -0.07,-0.569 -0.274,-1.121 -0.416,-1.682 -0.093,-0.37 -0.255,-0.483 -0.652,-0.317 -0.287,0.119 -0.603,0.073 -0.467,0.553 0.332,1.169 0.626,2.35 0.943,3.524 0.054,0.203 0.097,0.416 0.424,0.281 z"
           id="path707" />
      </g>
      <g
         id="g709">
        <path
           style="fill:#d9d9d6"
           inkscape:connector-curvature="0"
           d="m 1247.631,233.271 c 0.181,0.048 0.424,0.238 0.506,-0.117 0.29,-1.249 0.57,-2.499 0.852,-3.75 0.013,-0.055 -0.01,-0.119 -0.017,-0.195 -0.193,-0.213 -0.48,-0.227 -0.74,-0.28 -0.308,-0.064 -0.328,0.197 -0.374,0.402 -0.164,0.713 -0.343,1.426 -0.477,2.145 -0.078,0.413 -0.259,0.651 -0.652,0.403 -0.642,-0.405 -1.401,-0.297 -2.066,-0.559 -0.41,-0.162 -0.62,-0.066 -0.711,0.37 -0.077,0.374 -0.059,0.606 0.404,0.714 1.098,0.257 2.183,0.579 3.275,0.867 z"
           id="path711" />
      </g>
      <g
         id="g713">
        <path
           style="fill:#d9d9d6"
           inkscape:connector-curvature="0"
           d="m 1243.357,237.734 c 0.446,0.354 0.374,0.587 -0.01,0.925 -0.522,0.466 -0.999,0.983 -1.498,1.478 -0.176,0.173 -0.42,0.351 -0.066,0.565 0.243,0.148 0.379,0.661 1.021,0.084 0.662,-0.655 1.53,-1.51 2.395,-2.369 0.306,-0.304 0.039,-0.467 -0.165,-0.655 -0.805,-0.739 -1.607,-1.478 -2.401,-2.228 -0.295,-0.278 -0.537,-0.412 -0.907,-0.067 -0.46,0.426 -0.051,0.663 0.165,0.891 0.459,0.487 0.94,0.961 1.462,1.376 z"
           id="path715" />
      </g>
      <g
         id="g717">
        <path
           style="fill:#d9d9d6"
           inkscape:connector-curvature="0"
           d="m 1258.465,238.445 c -0.41,-0.374 -0.487,-0.695 0.016,-1.102 0.492,-0.399 0.895,-0.909 1.352,-1.353 0.262,-0.254 0.34,-0.427 0.016,-0.731 -0.309,-0.29 -0.524,-0.36 -0.832,-0.048 -0.811,0.823 -1.615,1.652 -2.449,2.45 -0.297,0.283 -0.182,0.397 0.063,0.615 0.863,0.767 1.716,1.546 2.535,2.358 0.24,0.237 0.51,0.315 0.643,0.085 0.129,-0.223 0.613,-0.463 0.204,-0.855 -0.518,-0.474 -1.032,-0.947 -1.548,-1.419 z"
           id="path719" />
      </g>
      <g
         id="g721">
        <path
           style="fill:#d9d9d6"
           inkscape:connector-curvature="0"
           d="m 1254.197,242.802 c -0.42,-0.153 -0.541,-0.165 -0.634,0.274 -0.238,1.131 -0.509,2.256 -0.753,3.385 -0.039,0.177 -0.229,0.411 0.102,0.532 0.253,0.094 0.506,0.194 0.639,0.244 0.35,-0.2 0.297,-0.405 0.337,-0.574 0.151,-0.654 0.352,-1.301 0.437,-1.964 0.078,-0.61 0.326,-0.652 0.836,-0.477 0.661,0.228 1.354,0.362 2.021,0.572 0.354,0.11 0.525,0.031 0.553,-0.341 0.021,-0.286 0.314,-0.6 -0.288,-0.729 -1.099,-0.234 -2.193,-0.539 -3.25,-0.922 z"
           id="path723" />
      </g>
      <g
         id="g725">
        <g
           id="g11983">
          <g
             id="g319"
             style="opacity:0.75">
            <g
               id="g321">
              <path
                 style="fill:#d9d9d6"
                 inkscape:connector-curvature="0"
                 id="path323"
                 d="m 1279.178,716.083 -2.34,1.297 -0.809,-1.458 0.882,-0.488 -1.128,-2.036 1.458,-0.808 1.937,3.493 z m -5.986,3.317 -3.646,2.021 -0.808,-1.458 3.646,-2.021 0.808,1.458 z m -8.021,4.447 -3.646,2.021 -0.809,-1.458 3.646,-2.021 0.809,1.458 z m -7.292,4.042 -4.375,2.425 -0.809,-1.458 4.376,-2.425 0.808,1.458 z m -8.021,4.445 -3.646,2.021 -0.809,-1.458 3.646,-2.021 0.809,1.458 z m -8.021,4.447 -3.646,2.021 -0.809,-1.458 3.646,-2.021 0.809,1.458 z m -7.292,4.042 -1.039,0.576 -2.829,-5.104 1.458,-0.808 2.426,4.375 -0.42,0.232 0.404,0.729 z m 40.676,-31.88 -1.459,0.809 -2.021,-3.646 1.458,-0.809 2.022,3.646 z m -45.107,22.897 -1.458,0.808 -2.021,-3.646 1.459,-0.809 2.02,3.647 z m 40.66,-30.918 -1.459,0.808 -2.021,-3.646 1.458,-0.809 2.022,3.647 z m -45.106,22.897 -1.458,0.808 -2.021,-3.646 1.459,-0.808 2.02,3.646 z m 41.064,-30.189 -1.459,0.809 -2.425,-4.375 1.458,-0.809 2.426,4.375 z m -45.106,22.897 -1.458,0.809 -2.426,-4.375 1.459,-0.809 2.425,4.375 z m 40.66,-30.918 -1.459,0.809 -2.021,-3.646 1.458,-0.809 2.022,3.646 z m -45.106,22.897 -1.458,0.808 -2.021,-3.646 1.458,-0.809 2.021,3.647 z m 40.243,-30.299 -0.226,-0.263 -0.815,0.452 -0.561,-1.012 0.515,-0.442 c 1.018,-0.874 1.767,-1.681 2.358,-2.541 l 1.373,0.946 c -0.674,0.982 -1.515,1.89 -2.644,2.86 z m -45.858,24.938 c -1.557,0.354 -3.006,0.538 -4.308,0.546 l -0.01,-1.667 c 1.181,-0.007 2.509,-0.177 3.947,-0.504 l 0.371,1.625 z m 50.338,-31.75 -1.562,-0.584 1.753,-4.685 1.562,0.584 -1.753,4.685 z m -58.817,32.306 -4.158,0.01 3.37,-3.446 1.192,1.166 -0.59,0.604 0.182,0 0,1.666 z m 53.459,-33.131 0.197,-1.76 0.825,0.088 -0.454,-0.693 3.48,-2.28 0.914,1.395 -4.962,3.25 z m -20.126,10.686 -0.101,0.056 c -0.188,0.104 -0.414,0.182 -0.678,0.233 l -0.254,-1.296 -0.739,-0.02 c 0.04,-1.484 0.42,-2.949 1.132,-4.354 l 1.053,0.534 c 0.012,-0.05 0.023,-0.101 0.034,-0.15 l 1.629,0.358 c -0.361,1.644 -1.118,3.69 -1.994,4.558 l -0.082,0.081 z m -33.779,18.314 -4.069,-0.904 0.361,-1.628 0.475,0.105 -0.418,-1.378 3.988,-1.21 0.484,1.596 -3.603,1.093 3.143,0.698 -0.361,1.628 z m 23.088,-12.815 c -0.036,0.02 -0.07,0.038 -0.089,0.047 l -0.058,0.025 c -0.251,0.098 -0.54,0.178 -0.855,0.239 l -0.312,-1.639 c 0.198,-0.037 0.373,-0.084 0.521,-0.138 0.138,-0.08 0.313,-0.21 0.503,-0.374 -0.136,-0.092 -0.271,-0.18 -0.404,-0.264 l 0.884,-1.414 c 0.436,0.272 0.88,0.585 1.32,0.929 l 0.714,0.557 -0.614,0.666 c -0.27,0.291 -0.966,1.008 -1.61,1.366 z m -11.656,6.358 -3.146,0.859 c -1.146,0.314 -2.303,0.63 -3.483,0.976 l -0.468,-1.601 c 1.194,-0.349 2.357,-0.667 3.481,-0.975 l 0.242,-0.066 0.143,-0.342 c 0.227,0.094 0.459,0.183 0.696,0.266 l 2.535,0.883 z m 36.015,-20.805 -1.151,-1.207 c 1.004,-0.958 2.104,-2.044 3.359,-3.321 l 0.177,-0.179 1.188,1.169 -0.176,0.18 c -1.269,1.288 -2.38,2.387 -3.397,3.358 z m -1.822,0.078 -1.667,0.042 c -0.032,-1.28 -0.337,-2.449 -0.905,-3.475 l -0.063,-0.111 1.444,-0.833 0.077,0.136 c 0.7,1.264 1.075,2.69 1.114,4.241 z m -27.979,14.586 c -1.83,-0.288 -4.279,-0.933 -5.161,-1.802 l 1.171,-1.187 c 0.327,0.323 1.904,0.973 4.249,1.342 l -0.259,1.647 z m 36.298,-21.174 -1.188,-1.169 3.917,-3.982 -0.368,3.366 -0.545,-0.06 -1.816,1.845 z m -50.124,25.29 c -0.645,-0.622 -1.216,-1.327 -1.699,-2.098 -0.096,-0.153 -0.187,-0.307 -0.272,-0.462 -0.21,-0.378 -0.394,-0.77 -0.547,-1.163 l 1.556,-0.603 c 0.125,0.323 0.276,0.645 0.449,0.957 0.071,0.129 0.147,0.258 0.227,0.385 0.411,0.656 0.897,1.256 1.444,1.783 l -1.158,1.201 z m 14.254,-7.922 c -0.651,-0.06 -1.328,-0.061 -2.066,-0.004 -0.586,0.045 -1.117,0.191 -1.537,0.42 l -0.801,-1.462 c 0.625,-0.342 1.39,-0.557 2.21,-0.62 0.833,-0.064 1.601,-0.063 2.347,0.006 l -0.153,1.66 z m 7.354,-6.812 -1.036,-0.662 c -0.309,-0.197 -0.63,-0.385 -0.954,-0.558 l 0.786,-1.471 c 0.02,0.011 0.039,0.021 0.059,0.032 0.176,-0.645 0.4,-1.281 0.671,-1.9 l 1.527,0.667 c -0.302,0.691 -0.539,1.408 -0.705,2.131 -0.043,0.186 -0.082,0.37 -0.116,0.553 l -0.232,1.208 z m 14.255,-10.374 c -1.118,-0.458 -2.369,-0.649 -3.718,-0.567 l -0.102,-1.665 c 1.602,-0.098 3.1,0.134 4.452,0.689 l -0.632,1.543 z m -11.108,3.201 -1.25,-1.104 c 1.21,-1.368 2.653,-2.462 4.222,-3.208 l 0.716,1.505 c -1.368,0.648 -2.628,1.607 -3.688,2.807 z m -9.608,4.391 c -0.871,-0.17 -1.79,-0.282 -2.732,-0.333 -0.405,-0.022 -0.817,-0.026 -1.223,-0.011 l -0.059,-1.667 c 0.455,-0.016 0.916,-0.012 1.371,0.013 1.02,0.055 2.016,0.177 2.962,0.361 l -0.319,1.637 z m -16.365,8.782 -1.618,-0.403 c 0.341,-1.369 0.989,-2.722 1.928,-4.02 l 1.352,0.977 c -0.814,1.124 -1.373,2.283 -1.662,3.446 z m 8.552,-8.435 c -1.489,0.49 -2.931,1.246 -4.163,2.187 l -1.012,-1.326 c 1.379,-1.052 2.988,-1.896 4.653,-2.445 l 0.522,1.584 z" />
            </g>
            <g
               id="g325">
              <path
                 style="fill:#d9d9d6"
                 inkscape:connector-curvature="0"
                 id="path327"
                 d="m 1258.068,671.732 c -3.233,2.118 -3.546,0.756 -3.297,-1.516 -4.776,4.854 -9.323,9.084 -15.022,12.25 2.596,-2.962 4.745,-5.897 5.02,-9.189 0.331,-3.964 -2.492,-6.545 -6.646,-6.004 -3.669,0.478 -7.011,3.664 -7.946,7.728 -0.362,1.567 -0.385,3.106 -0.603,5.007 -0.889,-0.738 -1.522,-1.252 -2.143,-1.78 -2.237,-1.901 -5.11,-2.994 -8.654,-3.185 -3.671,-0.199 -7.425,1.366 -9.819,4.172 -2.457,2.879 -2.699,5.624 -1.254,7.931 1.521,2.426 4.223,3.72 7.771,4.089 2.743,0.287 5.683,-0.241 9.189,-0.657 -5.718,3.543 -11.291,4.451 -17.695,6.396 3.274,0.727 1.413,2.04 0.235,3.243 1.893,-0.004 4.219,-0.503 6.693,-1.359 4.745,8.56 20.311,36.642 20.964,37.819 13.257,-7.349 26.432,-14.651 39.596,-21.949 -0.694,-1.252 -16.236,-29.292 -20.96,-37.813 1.727,-1.37 3.676,-2.79 4.571,-5.183 z m -25.075,10.713 c -0.429,-2.708 -0.031,-5.556 1.804,-8.501 0.609,-0.979 1.474,-1.846 2.788,-2.066 1.442,-0.242 2.09,0.488 2.606,1.316 1.012,1.724 -0.516,7.46 -2.488,9.33 -1.257,1.191 -4.504,1.217 -4.71,-0.079 z m -19.579,3.444 c -1.464,-2.777 0.916,-5.879 4.967,-6.19 5.255,-0.404 8.704,1.722 11.577,4.433 0.629,0.593 -2.117,3.75 -3.721,4.377 -3.482,1.359 -11.598,-0.299 -12.823,-2.62 z" />
            </g>
            <g
               id="g329">
              <path
                 style="fill:#1c4781"
                 inkscape:connector-curvature="0"
                 id="path331"
                 d="m 1226.917,706.201 c -0.886,-1.598 -1.079,-3.244 -0.596,-4.926 0.499,-1.692 1.579,-2.987 3.246,-3.911 1.667,-0.924 3.354,-1.163 5.037,-0.68 1.683,0.482 2.976,1.518 3.861,3.116 0.885,1.598 1.069,3.226 0.587,4.909 -0.482,1.683 -1.579,2.987 -3.246,3.911 -1.667,0.924 -3.337,1.153 -5.037,0.681 -1.682,-0.484 -2.966,-1.502 -3.852,-3.1 z m 17.519,-18.449 3.648,0.583 -4.906,35.811 -3.66,-0.645 4.918,-35.749 z m -13.927,16.458 c 0.362,0.653 0.856,1.098 1.489,1.309 0.634,0.211 1.29,0.139 1.961,-0.232 0.687,-0.381 1.096,-0.9 1.235,-1.539 0.157,-0.649 0.042,-1.304 -0.32,-1.957 -0.372,-0.67 -0.856,-1.098 -1.489,-1.309 -0.616,-0.22 -1.272,-0.148 -1.96,0.233 -0.671,0.371 -1.079,0.89 -1.236,1.539 -0.158,0.648 -0.051,1.286 0.32,1.956 z m 18.431,8.002 c -0.886,-1.598 -1.079,-3.243 -0.597,-4.926 0.482,-1.683 1.563,-2.978 3.229,-3.901 1.666,-0.923 3.354,-1.163 5.037,-0.681 1.699,0.473 2.992,1.509 3.878,3.107 0.887,1.598 1.07,3.226 0.57,4.918 -0.482,1.683 -1.579,2.987 -3.246,3.911 -1.667,0.924 -3.337,1.153 -5.02,0.671 -1.682,-0.482 -2.965,-1.5 -3.851,-3.099 z m 3.592,-1.99 c 0.362,0.653 0.855,1.098 1.472,1.318 0.634,0.211 1.29,0.139 1.961,-0.233 0.688,-0.381 1.096,-0.899 1.253,-1.548 0.157,-0.648 0.041,-1.303 -0.32,-1.956 -0.372,-0.67 -0.856,-1.098 -1.489,-1.309 -0.634,-0.21 -1.29,-0.139 -1.978,0.243 -0.67,0.371 -1.079,0.89 -1.236,1.539 -0.14,0.638 -0.035,1.275 0.337,1.946 z" />
            </g>
          </g>
          <g
             id="g407"
             style="opacity:0.8">
            <g
               id="g409">
              <path
                 style="fill:#d9d9d6"
                 inkscape:connector-curvature="0"
                 id="path411"
                 d="m 1293.294,499.815 c -1.072,-0.314 -1.623,-0.187 -1.872,1.032 -0.577,2.837 -1.271,5.652 -1.926,8.474 -0.235,1.004 -0.491,1.735 1.104,2.003 1.418,0.238 1.684,-0.212 1.88,-1.34 0.237,-1.336 0.58,-2.652 1.032,-4.675 1.2,1.995 1.932,3.462 2.911,4.736 0.505,0.653 0.453,2.381 2.334,1.317 1.798,-1.019 0.838,-1.8 0.304,-2.833 -0.621,-1.203 -2.241,-2.464 -1.694,-3.543 0.595,-1.178 2.302,0.13 3.539,0.151 1.267,0.024 1.629,-0.132 1.908,-1.32 0.293,-1.245 -0.216,-1.528 -1.252,-1.782 -2.771,-0.68 -5.528,-1.422 -8.268,-2.22 z" />
            </g>
            <g
               id="g413">
              <path
                 style="fill:#d9d9d6"
                 inkscape:connector-curvature="0"
                 id="path415"
                 d="m 1268.449,462.84 c 1.359,0.423 1.654,-0.126 1.887,-1.301 0.531,-2.665 1.089,-5.335 1.855,-7.939 0.363,-1.232 0.399,-1.803 -0.992,-2.262 -1.603,-0.527 -1.758,0.354 -1.967,1.479 -0.233,1.257 -0.542,2.5 -0.817,3.75 -0.202,0.033 -0.402,0.067 -0.603,0.099 -0.916,-1.524 -1.888,-3.02 -2.73,-4.579 -0.605,-1.122 -1.273,-1.273 -2.353,-0.647 -1.195,0.695 -0.676,1.451 -0.231,2.246 0.319,0.568 0.675,1.118 0.98,1.693 0.473,0.896 1.754,1.903 0.988,2.741 -0.767,0.838 -2.074,-0.204 -3.146,-0.417 -0.073,-0.015 -0.142,-0.074 -0.202,-0.125 -0.888,-0.733 -1.604,-0.778 -1.993,0.494 -0.344,1.13 -0.685,2.118 1.076,2.508 2.781,0.616 5.528,1.412 8.248,2.26 z" />
            </g>
            <g
               id="g417">
              <path
                 style="fill:#d9d9d6"
                 inkscape:connector-curvature="0"
                 id="path419"
                 d="m 1313.93,479.225 c -1.821,0.101 -3.652,0.059 -5.936,0.083 1.319,-1.347 2.243,-2.326 3.202,-3.266 0.731,-0.716 1.381,-1.24 0.306,-2.35 -1.039,-1.078 -1.717,-0.553 -2.429,0.133 -2.051,1.969 -4.065,3.975 -6.063,5.996 -0.578,0.584 -1.048,1.111 -0.062,1.955 2.282,1.955 4.455,4.039 6.607,6.137 0.843,0.821 1.396,0.792 2.184,-0.068 0.81,-0.883 0.685,-1.521 -0.15,-2.219 -0.685,-0.575 -1.354,-1.168 -2.008,-1.778 -0.29,-0.27 -0.693,-0.62 -0.432,-1.016 0.187,-0.285 0.811,-0.629 0.974,-0.526 1.375,0.864 2.633,-0.401 3.938,-0.14 1.246,0.248 1.95,-0.517 1.956,-1.483 0.01,-1.142 -0.926,-1.521 -2.087,-1.458 z" />
            </g>
            <g
               id="g421">
              <path
                 style="fill:#d9d9d6"
                 inkscape:connector-curvature="0"
                 id="path423"
                 d="m 1246.974,483.382 c 0.942,0.143 1.813,0.148 2.763,-0.007 0.791,-0.13 1.775,-0.421 2.424,0.212 0.27,0.713 0.271,1.231 -0.256,1.68 -0.556,0.473 -1.026,1.052 -1.594,1.511 -0.907,0.729 -0.923,1.298 -0.034,2.144 0.87,0.835 1.412,0.742 2.194,-0.062 2.044,-2.09 4.145,-4.124 6.238,-6.168 0.585,-0.569 0.991,-1.116 0.208,-1.826 -2.341,-2.122 -4.708,-4.218 -7.007,-6.385 -0.987,-0.93 -1.354,-0.044 -1.957,0.446 -0.772,0.624 -0.647,1.128 -0.057,1.809 0.963,1.111 3.308,1.997 2.651,3.251 -0.561,1.072 -3.001,0.291 -4.603,0.443 -0.242,0.023 -0.49,0.027 -0.733,0.004 -0.797,-0.077 -1.299,0.208 -1.184,1.074 0.093,0.71 -0.367,1.678 0.947,1.874 z" />
            </g>
            <g
               id="g425">
              <path
                 style="fill:#d9d9d6"
                 inkscape:connector-curvature="0"
                 id="path427"
                 d="m 1293.256,462.395 c 2.305,-0.98 4.578,-1.814 7.103,-2.102 0.752,-0.086 2.138,-0.667 1.612,-2.379 -0.497,-1.613 -1.216,-1.34 -2.31,-0.822 -0.646,0.304 -1.372,0.465 -2.079,0.614 -0.449,0.094 -1.23,0.215 -1.329,0.033 -0.234,-0.431 -0.323,-0.983 0.081,-1.557 0.744,-1.053 1.28,-2.25 1.995,-3.327 0.71,-1.073 0.156,-1.547 -0.698,-2.103 -0.975,-0.634 -1.413,-0.261 -1.876,0.617 -0.903,1.722 -1.888,3.398 -3.041,5.454 -0.476,-1.647 -0.764,-2.903 -1.204,-4.104 -0.293,-0.805 0.15,-2.276 -1.783,-1.761 -1.689,0.451 -1.475,1.326 -1.147,2.504 0.706,2.546 1.502,5.078 2.023,7.662 0.369,1.825 1.728,1.664 2.653,1.271 z" />
            </g>
            <g
               id="g429">
              <path
                 style="fill:#d9d9d6"
                 inkscape:connector-curvature="0"
                 id="path431"
                 d="m 1288.775,468.642 c 2.719,-1.12 5.544,-1.92 8.431,-2.457 2.11,-0.392 1.65,-1.736 1.21,-3.25 -0.232,-0.573 -0.756,-0.472 -1.348,-0.275 -1.463,0.486 -2.976,0.85 -4.395,1.439 -1.919,0.794 -3.146,0.71 -3.449,-1.749 -0.188,-1.519 -0.733,-2.99 -1.11,-4.484 -0.248,-0.986 -0.679,-1.288 -1.741,-0.847 -0.766,0.317 -1.606,0.196 -1.244,1.475 0.885,3.118 1.671,6.267 2.516,9.398 0.144,0.541 0.259,1.109 1.13,0.75 z" />
            </g>
            <g
               id="g433">
              <path
                 style="fill:#d9d9d6"
                 inkscape:connector-curvature="0"
                 id="path435"
                 d="m 1272.229,468.58 c 0.481,0.126 1.132,0.633 1.351,-0.313 0.772,-3.329 1.521,-6.664 2.271,-10 0.033,-0.148 -0.025,-0.317 -0.045,-0.52 -0.516,-0.568 -1.28,-0.605 -1.974,-0.749 -0.821,-0.17 -0.876,0.526 -1,1.072 -0.437,1.903 -0.912,3.802 -1.271,5.722 -0.206,1.1 -0.69,1.736 -1.738,1.075 -1.712,-1.081 -3.74,-0.793 -5.514,-1.49 -1.095,-0.432 -1.653,-0.175 -1.896,0.987 -0.207,0.997 -0.158,1.617 1.077,1.906 2.934,0.682 5.826,1.542 8.739,2.31 z" />
            </g>
            <g
               id="g437">
              <path
                 style="fill:#d9d9d6"
                 inkscape:connector-curvature="0"
                 id="path439"
                 d="m 1260.829,480.482 c 1.191,0.944 0.999,1.565 -0.015,2.467 -1.395,1.243 -2.666,2.622 -3.996,3.94 -0.47,0.462 -1.121,0.937 -0.18,1.507 0.65,0.395 1.013,1.764 2.725,0.225 1.768,-1.746 4.083,-4.027 6.389,-6.317 0.816,-0.81 0.105,-1.247 -0.438,-1.747 -2.146,-1.97 -4.29,-3.942 -6.408,-5.942 -0.785,-0.741 -1.433,-1.097 -2.42,-0.179 -1.225,1.137 -0.135,1.767 0.441,2.376 1.223,1.299 2.508,2.564 3.902,3.67 z" />
            </g>
            <g
               id="g441">
              <path
                 style="fill:#d9d9d6"
                 inkscape:connector-curvature="0"
                 id="path443"
                 d="m 1301.133,482.378 c -1.095,-0.998 -1.3,-1.853 0.041,-2.938 1.314,-1.064 2.388,-2.423 3.607,-3.609 0.698,-0.678 0.907,-1.14 0.042,-1.95 -0.825,-0.772 -1.399,-0.96 -2.221,-0.127 -2.161,2.196 -4.309,4.406 -6.535,6.534 -0.792,0.755 -0.484,1.058 0.169,1.639 2.302,2.045 4.576,4.125 6.764,6.289 0.639,0.632 1.359,0.84 1.713,0.229 0.344,-0.595 1.637,-1.236 0.543,-2.282 -1.374,-1.265 -2.745,-2.527 -4.123,-3.785 z" />
            </g>
            <g
               id="g445">
              <path
                 style="fill:#d9d9d6"
                 inkscape:connector-curvature="0"
                 id="path447"
                 d="m 1289.749,493.999 c -1.12,-0.407 -1.445,-0.439 -1.693,0.732 -0.636,3.017 -1.356,6.017 -2.009,9.028 -0.102,0.473 -0.609,1.096 0.271,1.419 0.676,0.25 1.35,0.517 1.704,0.651 0.933,-0.533 0.794,-1.079 0.899,-1.531 0.404,-1.744 0.938,-3.47 1.165,-5.237 0.207,-1.626 0.869,-1.739 2.229,-1.271 1.765,0.607 3.612,0.966 5.394,1.524 0.943,0.294 1.402,0.083 1.476,-0.908 0.057,-0.764 0.838,-1.599 -0.769,-1.945 -2.933,-0.628 -5.848,-1.441 -8.667,-2.462 z" />
            </g>
            <g
               id="g449">
              <path
                 style="fill:#d9d9d6"
                 inkscape:connector-curvature="0"
                 id="path451"
                 d="m 1298.381,474.354 c -0.61,-0.469 -1.007,-1.734 -2.15,-0.83 -0.613,0.484 -1.325,0.718 -1.854,1.464 -1.063,1.496 -2.332,2.922 -3.767,4.063 -1.664,1.323 -3.574,0.879 -5.159,-0.306 -1.593,-1.191 -0.266,-2.486 0.404,-3.37 0.862,-1.138 2.221,-2.234 3.642,-2.245 2.071,-0.014 3.51,-1.418 5.371,-1.834 1.38,-0.312 0.492,-1.496 0.324,-2.251 -0.219,-0.985 -1.065,-0.712 -1.541,-0.338 -1.625,1.274 -3.724,0.806 -5.459,1.618 -0.979,0.458 -1.234,0.431 -1.63,-0.919 -0.51,-1.739 -1.202,-3.467 -1.547,-5.26 -0.325,-1.694 -1.594,-1.765 -2.688,-1.54 -1.496,0.307 -0.512,1.44 -0.298,2.149 1.342,4.439 2.887,8.87 -0.828,12.975 -0.091,0.098 -0.264,0.12 -0.396,0.175 -3.605,-4.796 -3.637,-4.973 -2.228,-10.626 0.256,-1.02 0.458,-2.054 0.69,-3.079 0.314,-1.391 -0.889,-1.023 -1.517,-1.304 -0.716,-0.32 -1.25,-0.248 -1.379,0.689 -0.079,0.562 -0.235,1.115 -0.366,1.671 -1.397,5.918 -1.388,5.881 -7.196,4.208 -0.99,-0.284 -2.439,-1.534 -3.075,0.391 -0.671,2.027 1.097,2.081 2.356,2.451 0.392,0.113 0.802,0.173 1.181,0.313 3.167,1.173 6.818,1.546 8.071,5.628 0.389,1.274 0.188,1.69 -0.955,1.741 -2.751,0.124 -5.479,0.291 -7.407,-2.413 -0.832,-1.165 -2.199,-1.933 -3.188,-3.005 -0.892,-0.965 -1.495,-0.894 -2.382,0.016 -0.928,0.952 -0.449,1.536 0.26,2.185 1.196,1.097 2.362,2.234 3.606,3.275 1.161,0.97 1.773,1.699 0.101,2.893 -1.299,0.928 -2.305,2.275 -3.403,3.471 -0.527,0.574 -1.658,0.96 -0.458,2.083 0.971,0.908 1.657,1.104 2.596,0.054 1.029,-1.15 2.111,-2.255 3.228,-3.319 1.707,-1.63 3.672,-2.609 6.137,-2.381 1.718,0.161 2.111,0.742 1.513,2.501 -1.162,3.42 -4.025,4.225 -6.945,4.837 -2.721,0.569 -4.604,1.549 -4.035,4.762 2.462,-1.63 5.393,-1.733 8.121,-2.499 0.515,-0.145 0.75,0.106 0.945,0.476 0.248,0.465 0.019,0.8 -0.412,0.927 -2.547,0.742 -5.097,1.479 -7.662,2.156 -0.543,0.144 -0.802,-0.421 -1.063,-0.82 -0.587,0.546 -1.101,1.217 -1.774,1.607 -0.977,0.562 -1.817,1.082 -1.276,2.377 0.548,1.308 1.583,0.741 2.499,0.592 0.437,-0.071 0.989,-0.495 1.214,0.22 0.209,0.665 -0.498,0.692 -0.846,0.96 -1.407,1.081 -3.164,1.229 -4.761,1.807 -0.82,0.296 -1.74,0.499 -1.247,1.854 0.373,1.028 0.498,1.892 1.915,1.157 0.669,-0.344 1.59,0.309 2.293,-0.374 0.33,-0.319 0.747,-0.763 1.218,-0.228 0.377,0.427 0.13,0.979 -0.053,1.377 -0.504,1.107 -1.09,2.183 -1.706,3.234 -0.489,0.83 -0.597,1.42 0.439,1.956 0.943,0.489 1.498,0.619 2.128,-0.505 0.883,-1.58 1.55,-3.327 2.901,-4.751 1.014,1.262 1.057,2.687 1.394,3.997 0.274,1.061 0.747,1.5 1.903,1.171 1.085,-0.309 1.418,-0.774 1.085,-1.917 -0.728,-2.496 -1.365,-5.021 -1.949,-7.551 -0.382,-1.657 -0.925,-2.817 -2.882,-1.696 -0.299,0.17 -0.627,0.268 -0.853,-0.06 -0.316,-0.461 0.01,-0.73 0.377,-0.948 0.63,-0.369 1.249,-0.757 1.894,-1.1 1.184,-0.631 2.063,-0.764 2.365,1.004 0.3,1.752 0.894,3.454 1.335,5.183 0.261,1.02 0.702,1.527 1.889,1.138 1.063,-0.349 1.446,-0.781 1.053,-1.938 -0.496,-1.458 -0.868,-2.97 -1.149,-4.485 -0.207,-1.109 -1.415,-2.839 -0.169,-3.226 1.441,-0.448 1.163,1.692 1.629,2.674 0.427,0.895 0.666,1.659 1.866,1.15 1.02,-0.431 1.758,-0.825 1.185,-2.254 -0.708,-1.764 -1.112,-3.65 -1.612,-5.494 -0.271,-1.001 -0.69,-1.975 -0.032,-3.047 0.88,-1.433 1.622,-2.948 2.421,-4.428 0.549,0.561 1.096,1.119 1.646,1.678 0.191,0.316 0.386,0.634 0.581,0.949 0.211,1.082 0.953,1.875 1.505,2.778 -1.009,2.516 -0.629,5.419 -2.366,7.793 -0.618,0.844 0.47,1.539 1.415,1.76 0.801,0.189 1.729,0.843 2.015,-0.697 0.383,-2.063 0.879,-4.106 1.342,-6.155 0.14,-0.623 0.208,-1.349 1.197,-0.798 1.875,1.046 4.136,0.597 6.06,1.513 0.835,0.397 1.51,0.4 1.753,-0.81 0.216,-1.066 0.342,-1.81 -1.05,-2.119 -2.533,-0.563 -5.03,-1.285 -7.54,-1.94 -1.133,-1.974 -2.727,-3.701 -3.235,-6.011 4.978,-0.943 8.523,1.396 11.511,5.024 0.151,0.185 0.424,0.279 0.555,0.472 0.719,1.038 1.406,0.775 2.209,0.067 0.933,-0.822 0.7,-1.482 -0.1,-2.21 -1.381,-1.26 -2.659,-2.647 -4.126,-3.797 -1.014,-0.795 -0.88,-1.353 -0.105,-2.109 1.396,-1.365 2.781,-2.738 4.159,-4.122 0.431,-0.436 1.157,-0.915 0.322,-1.555 z" />
            </g>
          </g>
          <g
             id="g453"
             style="opacity:0.8">
            <g
               id="g455">
              <path
                 style="fill:#d9d9d6"
                 inkscape:connector-curvature="0"
                 id="path457"
                 d="m 1139.612,104.317 c -0.475,-0.139 -0.719,-0.083 -0.829,0.457 -0.256,1.256 -0.563,2.503 -0.853,3.753 -0.104,0.444 -0.218,0.768 0.488,0.887 0.628,0.105 0.746,-0.094 0.833,-0.593 0.104,-0.592 0.257,-1.175 0.457,-2.07 0.531,0.884 0.855,1.533 1.289,2.098 0.224,0.289 0.2,1.054 1.033,0.583 0.797,-0.451 0.371,-0.797 0.135,-1.255 -0.274,-0.533 -0.992,-1.091 -0.75,-1.569 0.264,-0.521 1.02,0.058 1.567,0.067 0.561,0.01 0.721,-0.059 0.845,-0.584 0.13,-0.551 -0.096,-0.677 -0.555,-0.79 -1.225,-0.302 -2.446,-0.631 -3.66,-0.984 z" />
            </g>
            <g
               id="g459">
              <path
                 style="fill:#d9d9d6"
                 inkscape:connector-curvature="0"
                 id="path461"
                 d="m 1128.609,87.941 c 0.602,0.188 0.732,-0.056 0.836,-0.576 0.235,-1.18 0.481,-2.363 0.821,-3.516 0.161,-0.546 0.177,-0.799 -0.439,-1.001 -0.71,-0.233 -0.778,0.156 -0.871,0.655 -0.104,0.556 -0.24,1.107 -0.362,1.661 -0.089,0.015 -0.178,0.03 -0.267,0.043 -0.405,-0.675 -0.836,-1.337 -1.209,-2.028 -0.269,-0.497 -0.563,-0.563 -1.042,-0.287 -0.529,0.308 -0.299,0.643 -0.103,0.995 0.142,0.251 0.299,0.495 0.435,0.75 0.209,0.396 0.776,0.842 0.438,1.214 -0.34,0.371 -0.919,-0.09 -1.393,-0.185 -0.033,-0.007 -0.063,-0.033 -0.09,-0.055 -0.394,-0.325 -0.711,-0.345 -0.883,0.219 -0.152,0.5 -0.304,0.938 0.477,1.111 1.231,0.272 2.447,0.625 3.652,1 z" />
            </g>
            <g
               id="g463">
              <path
                 style="fill:#d9d9d6"
                 inkscape:connector-curvature="0"
                 id="path465"
                 d="m 1148.752,95.198 c -0.808,0.044 -1.618,0.026 -2.629,0.037 0.584,-0.597 0.993,-1.03 1.418,-1.447 0.324,-0.317 0.611,-0.549 0.135,-1.041 -0.46,-0.478 -0.76,-0.245 -1.075,0.059 -0.908,0.872 -1.801,1.76 -2.686,2.655 -0.256,0.258 -0.464,0.492 -0.027,0.865 1.011,0.866 1.974,1.789 2.927,2.718 0.373,0.363 0.618,0.351 0.967,-0.03 0.358,-0.391 0.303,-0.674 -0.066,-0.983 -0.304,-0.254 -0.6,-0.518 -0.89,-0.788 -0.128,-0.12 -0.307,-0.274 -0.191,-0.45 0.083,-0.126 0.359,-0.279 0.432,-0.233 0.609,0.383 1.166,-0.178 1.744,-0.062 0.552,0.11 0.863,-0.229 0.866,-0.657 0,-0.503 -0.411,-0.671 -0.925,-0.643 z" />
            </g>
            <g
               id="g467">
              <path
                 style="fill:#d9d9d6"
                 inkscape:connector-curvature="0"
                 id="path469"
                 d="m 1119.099,97.039 c 0.417,0.063 0.802,0.065 1.224,-0.003 0.35,-0.058 0.786,-0.187 1.073,0.094 0.119,0.315 0.12,0.545 -0.113,0.744 -0.247,0.209 -0.455,0.466 -0.706,0.669 -0.402,0.323 -0.408,0.575 -0.016,0.95 0.386,0.37 0.626,0.329 0.973,-0.027 0.905,-0.925 1.835,-1.827 2.762,-2.732 0.26,-0.252 0.439,-0.494 0.093,-0.809 -1.037,-0.939 -2.085,-1.868 -3.103,-2.828 -0.438,-0.412 -0.6,-0.02 -0.867,0.198 -0.342,0.276 -0.287,0.5 -0.025,0.801 0.427,0.492 1.465,0.884 1.174,1.439 -0.248,0.475 -1.328,0.129 -2.038,0.196 -0.106,0.01 -0.217,0.012 -0.324,0.002 -0.354,-0.034 -0.575,0.092 -0.524,0.476 0.039,0.314 -0.165,0.743 0.417,0.83 z" />
            </g>
            <g
               id="g471">
              <path
                 style="fill:#d9d9d6"
                 inkscape:connector-curvature="0"
                 id="path473"
                 d="m 1139.596,87.745 c 1.021,-0.435 2.027,-0.804 3.146,-0.931 0.333,-0.038 0.946,-0.295 0.714,-1.053 -0.22,-0.714 -0.538,-0.593 -1.023,-0.364 -0.286,0.135 -0.607,0.206 -0.92,0.272 -0.199,0.042 -0.545,0.096 -0.589,0.015 -0.104,-0.191 -0.144,-0.436 0.036,-0.689 0.329,-0.466 0.566,-0.997 0.883,-1.474 0.315,-0.475 0.069,-0.685 -0.309,-0.931 -0.432,-0.281 -0.626,-0.115 -0.831,0.273 -0.4,0.763 -0.836,1.505 -1.347,2.416 -0.211,-0.729 -0.338,-1.286 -0.533,-1.818 -0.13,-0.356 0.066,-1.008 -0.79,-0.78 -0.748,0.2 -0.652,0.587 -0.508,1.109 0.313,1.127 0.665,2.249 0.896,3.393 0.163,0.807 0.765,0.735 1.175,0.562 z" />
            </g>
            <g
               id="g475">
              <path
                 style="fill:#d9d9d6"
                 inkscape:connector-curvature="0"
                 id="path477"
                 d="m 1137.611,90.511 c 1.204,-0.496 2.455,-0.851 3.733,-1.088 0.935,-0.173 0.731,-0.769 0.536,-1.439 -0.104,-0.254 -0.335,-0.209 -0.597,-0.122 -0.648,0.215 -1.318,0.376 -1.946,0.638 -0.85,0.352 -1.394,0.314 -1.528,-0.774 -0.082,-0.673 -0.324,-1.325 -0.491,-1.986 -0.109,-0.437 -0.301,-0.57 -0.771,-0.375 -0.34,0.141 -0.712,0.087 -0.552,0.653 0.392,1.381 0.74,2.775 1.114,4.163 0.066,0.237 0.117,0.489 0.502,0.33 z" />
            </g>
            <g
               id="g479">
              <path
                 style="fill:#d9d9d6"
                 inkscape:connector-curvature="0"
                 id="path481"
                 d="m 1130.283,90.484 c 0.214,0.056 0.501,0.28 0.599,-0.139 0.342,-1.475 0.674,-2.952 1.006,-4.429 0.015,-0.066 -0.011,-0.14 -0.021,-0.23 -0.228,-0.252 -0.566,-0.268 -0.874,-0.332 -0.363,-0.075 -0.388,0.233 -0.442,0.475 -0.193,0.843 -0.404,1.684 -0.563,2.534 -0.091,0.487 -0.306,0.769 -0.77,0.476 -0.758,-0.479 -1.656,-0.351 -2.441,-0.66 -0.485,-0.191 -0.732,-0.078 -0.84,0.437 -0.092,0.442 -0.07,0.716 0.478,0.844 1.297,0.303 2.578,0.683 3.868,1.024 z" />
            </g>
            <g
               id="g483">
              <path
                 style="fill:#d9d9d6"
                 inkscape:connector-curvature="0"
                 id="path485"
                 d="m 1125.234,95.755 c 0.527,0.418 0.442,0.693 -0.01,1.092 -0.618,0.551 -1.182,1.162 -1.771,1.745 -0.208,0.205 -0.496,0.415 -0.079,0.667 0.288,0.175 0.448,0.781 1.207,0.1 0.782,-0.773 1.808,-1.783 2.829,-2.798 0.361,-0.358 0.046,-0.552 -0.194,-0.773 -0.951,-0.873 -1.9,-1.746 -2.838,-2.632 -0.348,-0.328 -0.635,-0.486 -1.072,-0.079 -0.542,0.503 -0.06,0.783 0.195,1.053 0.543,0.575 1.112,1.135 1.729,1.625 z" />
            </g>
            <g
               id="g487">
              <path
                 style="fill:#d9d9d6"
                 inkscape:connector-curvature="0"
                 id="path489"
                 d="m 1143.084,96.595 c -0.484,-0.442 -0.575,-0.821 0.019,-1.301 0.582,-0.472 1.057,-1.073 1.598,-1.598 0.309,-0.3 0.401,-0.505 0.018,-0.864 -0.364,-0.342 -0.619,-0.425 -0.982,-0.056 -0.958,0.972 -1.909,1.951 -2.895,2.894 -0.351,0.334 -0.215,0.468 0.074,0.726 1.02,0.906 2.027,1.827 2.996,2.785 0.283,0.28 0.602,0.372 0.759,0.101 0.151,-0.263 0.725,-0.547 0.24,-1.011 -0.609,-0.561 -1.217,-1.119 -1.827,-1.676 z" />
            </g>
            <g
               id="g491">
              <path
                 style="fill:#d9d9d6"
                 inkscape:connector-curvature="0"
                 id="path493"
                 d="m 1138.042,101.741 c -0.496,-0.18 -0.64,-0.194 -0.749,0.324 -0.282,1.336 -0.602,2.665 -0.891,3.999 -0.045,0.21 -0.27,0.485 0.12,0.629 0.3,0.11 0.599,0.229 0.755,0.288 0.413,-0.236 0.352,-0.478 0.398,-0.678 0.18,-0.772 0.416,-1.537 0.516,-2.319 0.093,-0.72 0.386,-0.77 0.987,-0.563 0.781,0.269 1.601,0.428 2.389,0.675 0.418,0.13 0.621,0.037 0.653,-0.402 0.025,-0.338 0.371,-0.708 -0.34,-0.861 -1.298,-0.28 -2.589,-0.64 -3.838,-1.092 z" />
            </g>
            <g
               id="g495">
              <path
                 style="fill:#d9d9d6"
                 inkscape:connector-curvature="0"
                 id="path497"
                 d="m 1141.865,93.041 c -0.271,-0.208 -0.446,-0.768 -0.952,-0.367 -0.271,0.214 -0.587,0.318 -0.821,0.648 -0.471,0.662 -1.033,1.294 -1.668,1.799 -0.737,0.586 -1.584,0.39 -2.285,-0.135 -0.705,-0.528 -0.118,-1.102 0.179,-1.493 0.382,-0.504 0.983,-0.989 1.613,-0.994 0.917,-0.006 1.554,-0.628 2.379,-0.813 0.61,-0.138 0.218,-0.662 0.143,-0.997 -0.097,-0.436 -0.472,-0.315 -0.683,-0.15 -0.719,0.564 -1.648,0.357 -2.417,0.717 -0.434,0.203 -0.547,0.19 -0.722,-0.407 -0.226,-0.77 -0.533,-1.535 -0.686,-2.33 -0.144,-0.75 -0.705,-0.782 -1.189,-0.682 -0.663,0.136 -0.228,0.638 -0.133,0.952 0.595,1.966 1.279,3.928 -0.366,5.746 -0.04,0.043 -0.117,0.053 -0.176,0.078 -1.597,-2.125 -1.61,-2.203 -0.986,-4.706 0.113,-0.452 0.202,-0.91 0.306,-1.364 0.14,-0.616 -0.394,-0.453 -0.672,-0.578 -0.316,-0.142 -0.553,-0.109 -0.61,0.306 -0.035,0.249 -0.104,0.494 -0.162,0.74 -0.619,2.621 -0.614,2.604 -3.188,1.864 -0.438,-0.126 -1.08,-0.679 -1.361,0.173 -0.298,0.898 0.485,0.921 1.044,1.085 0.173,0.051 0.354,0.077 0.522,0.139 1.402,0.52 3.02,0.685 3.574,2.493 0.172,0.564 0.083,0.748 -0.423,0.771 -1.219,0.055 -2.427,0.129 -3.28,-1.069 -0.368,-0.516 -0.975,-0.856 -1.412,-1.331 -0.395,-0.427 -0.663,-0.396 -1.055,0.007 -0.411,0.422 -0.199,0.68 0.115,0.968 0.529,0.486 1.046,0.989 1.597,1.451 0.514,0.43 0.785,0.752 0.045,1.281 -0.575,0.411 -1.021,1.008 -1.508,1.537 -0.233,0.254 -0.734,0.425 -0.203,0.923 0.43,0.402 0.734,0.488 1.15,0.023 0.455,-0.509 0.935,-0.998 1.43,-1.47 0.755,-0.722 1.625,-1.156 2.717,-1.055 0.762,0.071 0.936,0.329 0.67,1.108 -0.515,1.515 -1.782,1.871 -3.075,2.142 -1.205,0.252 -2.039,0.686 -1.787,2.109 1.09,-0.722 2.388,-0.768 3.597,-1.106 0.228,-0.064 0.332,0.047 0.419,0.21 0.109,0.206 0.01,0.354 -0.184,0.41 -1.127,0.329 -2.257,0.656 -3.394,0.955 -0.24,0.064 -0.354,-0.187 -0.471,-0.363 -0.26,0.242 -0.487,0.539 -0.786,0.711 -0.432,0.249 -0.805,0.479 -0.564,1.053 0.242,0.579 0.701,0.328 1.106,0.262 0.193,-0.032 0.438,-0.219 0.538,0.097 0.093,0.295 -0.222,0.307 -0.375,0.425 -0.623,0.479 -1.401,0.544 -2.108,0.8 -0.363,0.131 -0.771,0.221 -0.553,0.821 0.166,0.456 0.221,0.838 0.849,0.513 0.296,-0.153 0.704,0.137 1.016,-0.166 0.146,-0.142 0.331,-0.338 0.539,-0.101 0.167,0.189 0.058,0.434 -0.023,0.61 -0.224,0.49 -0.482,0.967 -0.755,1.432 -0.217,0.368 -0.265,0.629 0.194,0.866 0.418,0.217 0.663,0.274 0.942,-0.224 0.391,-0.7 0.686,-1.474 1.285,-2.104 0.449,0.559 0.468,1.19 0.617,1.77 0.121,0.47 0.33,0.665 0.843,0.519 0.48,-0.137 0.628,-0.343 0.48,-0.849 -0.322,-1.105 -0.604,-2.223 -0.863,-3.344 -0.169,-0.734 -0.409,-1.248 -1.276,-0.751 -0.133,0.075 -0.277,0.119 -0.378,-0.026 -0.14,-0.204 0,-0.324 0.167,-0.42 0.279,-0.163 0.554,-0.335 0.839,-0.487 0.524,-0.28 0.914,-0.338 1.048,0.444 0.133,0.776 0.396,1.53 0.591,2.295 0.115,0.452 0.311,0.676 0.836,0.504 0.472,-0.154 0.641,-0.346 0.467,-0.858 -0.22,-0.646 -0.385,-1.315 -0.509,-1.986 -0.092,-0.491 -0.627,-1.258 -0.075,-1.429 0.639,-0.198 0.515,0.75 0.722,1.185 0.189,0.396 0.295,0.735 0.826,0.509 0.452,-0.191 0.778,-0.365 0.524,-0.999 -0.313,-0.781 -0.492,-1.617 -0.714,-2.433 -0.12,-0.444 -0.306,-0.875 -0.014,-1.35 0.39,-0.635 0.718,-1.306 1.072,-1.961 0.242,0.249 0.484,0.496 0.728,0.743 0.085,0.14 0.172,0.281 0.258,0.42 0.094,0.479 0.422,0.831 0.667,1.23 -0.447,1.114 -0.279,2.4 -1.049,3.451 -0.273,0.374 0.209,0.682 0.627,0.78 0.355,0.083 0.767,0.373 0.893,-0.309 0.17,-0.914 0.39,-1.818 0.594,-2.726 0.063,-0.275 0.093,-0.597 0.531,-0.353 0.83,0.463 1.831,0.264 2.683,0.67 0.37,0.176 0.669,0.177 0.776,-0.358 0.096,-0.472 0.151,-0.802 -0.465,-0.938 -1.122,-0.25 -2.228,-0.569 -3.339,-0.859 -0.502,-0.875 -1.208,-1.639 -1.433,-2.662 2.204,-0.417 3.774,0.618 5.098,2.225 0.066,0.082 0.188,0.123 0.246,0.208 0.317,0.459 0.622,0.343 0.978,0.03 0.413,-0.364 0.311,-0.656 -0.044,-0.979 -0.611,-0.558 -1.178,-1.173 -1.827,-1.682 -0.449,-0.352 -0.39,-0.599 -0.047,-0.935 0.618,-0.604 1.231,-1.212 1.842,-1.825 0.193,-0.188 0.514,-0.401 0.144,-0.684 z" />
            </g>
          </g>
          <g
             id="g499"
             style="opacity:0.8">
            <g
               id="g501">
              <path
                 style="fill:#d9d9d6"
                 inkscape:connector-curvature="0"
                 id="path503"
                 d="m 1180.947,813.167 c -0.476,-0.139 -0.719,-0.083 -0.829,0.457 -0.256,1.257 -0.563,2.503 -0.854,3.753 -0.104,0.444 -0.217,0.769 0.489,0.887 0.628,0.105 0.746,-0.094 0.832,-0.594 0.105,-0.591 0.257,-1.175 0.457,-2.07 0.532,0.884 0.855,1.534 1.29,2.098 0.224,0.289 0.2,1.055 1.033,0.583 0.797,-0.451 0.371,-0.797 0.135,-1.254 -0.274,-0.533 -0.992,-1.091 -0.751,-1.569 0.264,-0.522 1.02,0.058 1.568,0.067 0.561,0.01 0.721,-0.059 0.845,-0.584 0.13,-0.551 -0.096,-0.677 -0.555,-0.79 -1.225,-0.302 -2.447,-0.63 -3.66,-0.984 z" />
            </g>
            <g
               id="g505">
              <path
                 style="fill:#d9d9d6"
                 inkscape:connector-curvature="0"
                 id="path507"
                 d="m 1169.943,796.792 c 0.603,0.188 0.733,-0.056 0.836,-0.576 0.235,-1.18 0.482,-2.363 0.822,-3.516 0.16,-0.545 0.177,-0.798 -0.439,-1.001 -0.71,-0.233 -0.779,0.157 -0.871,0.655 -0.104,0.557 -0.24,1.107 -0.362,1.661 -0.089,0.015 -0.178,0.03 -0.267,0.044 -0.405,-0.675 -0.836,-1.337 -1.209,-2.028 -0.269,-0.497 -0.564,-0.563 -1.042,-0.287 -0.529,0.308 -0.3,0.643 -0.103,0.995 0.141,0.252 0.299,0.495 0.434,0.75 0.21,0.396 0.777,0.843 0.438,1.214 -0.339,0.371 -0.918,-0.09 -1.393,-0.185 -0.032,-0.006 -0.063,-0.033 -0.09,-0.055 -0.393,-0.325 -0.71,-0.345 -0.882,0.219 -0.153,0.5 -0.304,0.938 0.477,1.111 1.23,0.27 2.447,0.623 3.651,0.999 z" />
            </g>
            <g
               id="g509">
              <path
                 style="fill:#d9d9d6"
                 inkscape:connector-curvature="0"
                 id="path511"
                 d="m 1190.086,804.048 c -0.807,0.044 -1.617,0.026 -2.629,0.037 0.585,-0.597 0.994,-1.03 1.419,-1.447 0.323,-0.317 0.611,-0.549 0.135,-1.041 -0.46,-0.478 -0.76,-0.245 -1.075,0.059 -0.908,0.872 -1.801,1.76 -2.686,2.655 -0.256,0.258 -0.464,0.492 -0.027,0.866 1.011,0.865 1.973,1.789 2.927,2.718 0.373,0.364 0.618,0.351 0.967,-0.03 0.358,-0.391 0.303,-0.674 -0.067,-0.983 -0.303,-0.254 -0.599,-0.518 -0.889,-0.788 -0.128,-0.119 -0.307,-0.274 -0.191,-0.45 0.083,-0.126 0.359,-0.279 0.432,-0.233 0.608,0.382 1.166,-0.178 1.744,-0.063 0.552,0.11 0.863,-0.229 0.866,-0.656 0,-0.504 -0.411,-0.671 -0.926,-0.644 z" />
            </g>
            <g
               id="g513">
              <path
                 style="fill:#d9d9d6"
                 inkscape:connector-curvature="0"
                 id="path515"
                 d="m 1160.434,805.889 c 0.417,0.063 0.802,0.066 1.223,-0.003 0.351,-0.058 0.787,-0.187 1.074,0.094 0.119,0.316 0.12,0.545 -0.113,0.744 -0.247,0.21 -0.455,0.466 -0.706,0.669 -0.402,0.323 -0.409,0.575 -0.016,0.949 0.386,0.37 0.626,0.329 0.972,-0.027 0.905,-0.925 1.836,-1.826 2.763,-2.732 0.26,-0.252 0.439,-0.494 0.093,-0.809 -1.037,-0.939 -2.085,-1.868 -3.104,-2.827 -0.438,-0.412 -0.6,-0.02 -0.866,0.197 -0.343,0.276 -0.287,0.5 -0.025,0.801 0.427,0.492 1.465,0.884 1.174,1.44 -0.248,0.475 -1.329,0.128 -2.038,0.196 -0.107,0.01 -0.217,0.012 -0.324,10e-4 -0.354,-0.034 -0.576,0.092 -0.524,0.476 0.038,0.316 -0.165,0.744 0.417,0.831 z" />
            </g>
            <g
               id="g517">
              <path
                 style="fill:#d9d9d6"
                 inkscape:connector-curvature="0"
                 id="path519"
                 d="m 1180.931,796.595 c 1.021,-0.434 2.027,-0.804 3.145,-0.931 0.334,-0.038 0.947,-0.295 0.715,-1.054 -0.221,-0.714 -0.539,-0.593 -1.023,-0.364 -0.286,0.134 -0.607,0.206 -0.921,0.271 -0.198,0.042 -0.545,0.096 -0.588,0.015 -0.104,-0.191 -0.144,-0.436 0.035,-0.689 0.33,-0.466 0.567,-0.997 0.884,-1.474 0.314,-0.475 0.069,-0.685 -0.31,-0.931 -0.432,-0.281 -0.625,-0.115 -0.83,0.273 -0.4,0.762 -0.836,1.505 -1.347,2.415 -0.211,-0.729 -0.339,-1.286 -0.534,-1.817 -0.129,-0.356 0.067,-1.008 -0.789,-0.78 -0.748,0.2 -0.653,0.587 -0.508,1.109 0.313,1.128 0.665,2.249 0.896,3.393 0.163,0.809 0.765,0.738 1.175,0.564 z" />
            </g>
            <g
               id="g521">
              <path
                 style="fill:#d9d9d6"
                 inkscape:connector-curvature="0"
                 id="path523"
                 d="m 1178.946,799.361 c 1.204,-0.496 2.455,-0.851 3.733,-1.088 0.935,-0.173 0.73,-0.769 0.535,-1.439 -0.103,-0.254 -0.334,-0.209 -0.597,-0.122 -0.647,0.216 -1.317,0.376 -1.945,0.638 -0.851,0.352 -1.394,0.314 -1.528,-0.774 -0.082,-0.673 -0.324,-1.324 -0.491,-1.986 -0.11,-0.437 -0.301,-0.571 -0.771,-0.375 -0.339,0.141 -0.711,0.087 -0.551,0.653 0.392,1.381 0.74,2.775 1.114,4.162 0.065,0.239 0.116,0.49 0.501,0.331 z" />
            </g>
            <g
               id="g525">
              <path
                 style="fill:#d9d9d6"
                 inkscape:connector-curvature="0"
                 id="path527"
                 d="m 1171.618,799.334 c 0.213,0.056 0.501,0.28 0.599,-0.139 0.342,-1.475 0.674,-2.951 1.006,-4.429 0.014,-0.065 -0.012,-0.14 -0.021,-0.23 -0.228,-0.251 -0.567,-0.268 -0.874,-0.332 -0.363,-0.075 -0.388,0.233 -0.442,0.475 -0.193,0.843 -0.404,1.684 -0.563,2.534 -0.092,0.487 -0.306,0.769 -0.77,0.476 -0.759,-0.479 -1.656,-0.352 -2.442,-0.66 -0.484,-0.191 -0.732,-0.078 -0.839,0.438 -0.092,0.441 -0.07,0.716 0.477,0.844 1.298,0.302 2.579,0.682 3.869,1.023 z" />
            </g>
            <g
               id="g529">
              <path
                 style="fill:#d9d9d6"
                 inkscape:connector-curvature="0"
                 id="path531"
                 d="m 1166.569,804.605 c 0.527,0.418 0.442,0.693 -0.01,1.093 -0.617,0.55 -1.181,1.161 -1.77,1.745 -0.208,0.205 -0.496,0.415 -0.079,0.668 0.288,0.175 0.448,0.781 1.206,0.099 0.783,-0.773 1.809,-1.783 2.83,-2.797 0.361,-0.359 0.046,-0.553 -0.195,-0.774 -0.95,-0.873 -1.899,-1.746 -2.838,-2.631 -0.348,-0.328 -0.634,-0.486 -1.071,-0.079 -0.542,0.503 -0.06,0.782 0.195,1.052 0.543,0.574 1.111,1.134 1.729,1.624 z" />
            </g>
            <g
               id="g533">
              <path
                 style="fill:#d9d9d6"
                 inkscape:connector-curvature="0"
                 id="path535"
                 d="m 1184.419,805.445 c -0.485,-0.442 -0.576,-0.821 0.019,-1.301 0.582,-0.471 1.057,-1.073 1.598,-1.598 0.309,-0.3 0.401,-0.505 0.018,-0.864 -0.365,-0.342 -0.619,-0.425 -0.983,-0.056 -0.957,0.972 -1.908,1.951 -2.894,2.894 -0.352,0.334 -0.215,0.469 0.074,0.726 1.02,0.906 2.026,1.827 2.995,2.785 0.283,0.28 0.603,0.372 0.759,0.102 0.152,-0.264 0.726,-0.547 0.241,-1.011 -0.61,-0.561 -1.217,-1.12 -1.827,-1.677 z" />
            </g>
            <g
               id="g537">
              <path
                 style="fill:#d9d9d6"
                 inkscape:connector-curvature="0"
                 id="path539"
                 d="m 1179.377,810.591 c -0.496,-0.18 -0.64,-0.194 -0.75,0.324 -0.281,1.336 -0.601,2.665 -0.89,3.999 -0.045,0.209 -0.27,0.485 0.12,0.628 0.3,0.111 0.598,0.229 0.755,0.288 0.413,-0.236 0.352,-0.478 0.398,-0.678 0.179,-0.772 0.416,-1.537 0.516,-2.319 0.092,-0.72 0.386,-0.77 0.987,-0.563 0.781,0.269 1.6,0.428 2.389,0.675 0.418,0.13 0.621,0.037 0.653,-0.402 0.025,-0.338 0.371,-0.708 -0.341,-0.861 -1.297,-0.278 -2.588,-0.639 -3.837,-1.091 z" />
            </g>
            <g
               id="g541">
              <path
                 style="fill:#d9d9d6"
                 inkscape:connector-curvature="0"
                 id="path543"
                 d="m 1183.2,801.891 c -0.271,-0.208 -0.446,-0.768 -0.953,-0.367 -0.271,0.214 -0.586,0.318 -0.82,0.648 -0.472,0.662 -1.033,1.294 -1.669,1.8 -0.736,0.585 -1.583,0.389 -2.284,-0.136 -0.706,-0.528 -0.118,-1.101 0.179,-1.492 0.382,-0.504 0.983,-0.989 1.612,-0.994 0.918,-0.006 1.555,-0.628 2.379,-0.813 0.611,-0.138 0.218,-0.663 0.144,-0.997 -0.097,-0.437 -0.472,-0.316 -0.683,-0.15 -0.719,0.564 -1.648,0.357 -2.417,0.717 -0.434,0.203 -0.547,0.191 -0.723,-0.407 -0.226,-0.77 -0.532,-1.535 -0.685,-2.33 -0.144,-0.75 -0.706,-0.782 -1.19,-0.682 -0.662,0.136 -0.227,0.638 -0.132,0.952 0.595,1.966 1.278,3.928 -0.366,5.746 -0.04,0.043 -0.117,0.053 -0.176,0.078 -1.597,-2.125 -1.611,-2.203 -0.986,-4.706 0.113,-0.452 0.202,-0.91 0.306,-1.364 0.14,-0.616 -0.394,-0.453 -0.672,-0.577 -0.317,-0.142 -0.554,-0.11 -0.61,0.305 -0.035,0.249 -0.104,0.494 -0.162,0.74 -0.619,2.621 -0.615,2.604 -3.188,1.864 -0.438,-0.126 -1.08,-0.679 -1.361,0.173 -0.298,0.898 0.485,0.921 1.043,1.085 0.174,0.05 0.355,0.077 0.523,0.139 1.402,0.52 3.019,0.685 3.574,2.493 0.172,0.564 0.083,0.749 -0.423,0.771 -1.219,0.055 -2.427,0.129 -3.28,-1.069 -0.369,-0.516 -0.975,-0.856 -1.412,-1.331 -0.396,-0.427 -0.663,-0.396 -1.055,0.007 -0.411,0.422 -0.199,0.68 0.114,0.968 0.53,0.486 1.046,0.99 1.598,1.451 0.514,0.43 0.785,0.752 0.044,1.281 -0.574,0.411 -1.021,1.008 -1.507,1.537 -0.233,0.254 -0.734,0.425 -0.203,0.923 0.43,0.402 0.734,0.488 1.149,0.024 0.456,-0.509 0.936,-0.999 1.43,-1.47 0.756,-0.722 1.626,-1.155 2.718,-1.055 0.761,0.071 0.935,0.329 0.67,1.108 -0.515,1.515 -1.782,1.871 -3.075,2.142 -1.205,0.252 -2.039,0.686 -1.787,2.109 1.09,-0.722 2.388,-0.768 3.596,-1.106 0.229,-0.064 0.333,0.047 0.419,0.21 0.11,0.206 0.01,0.354 -0.183,0.411 -1.128,0.328 -2.257,0.655 -3.394,0.955 -0.24,0.063 -0.354,-0.187 -0.471,-0.363 -0.26,0.242 -0.487,0.539 -0.786,0.712 -0.432,0.249 -0.805,0.479 -0.564,1.053 0.242,0.579 0.7,0.328 1.106,0.262 0.193,-0.031 0.438,-0.219 0.538,0.097 0.092,0.295 -0.222,0.307 -0.375,0.426 -0.623,0.479 -1.401,0.544 -2.108,0.8 -0.363,0.131 -0.771,0.221 -0.553,0.821 0.166,0.456 0.221,0.838 0.849,0.513 0.296,-0.152 0.704,0.137 1.016,-0.166 0.146,-0.142 0.33,-0.338 0.539,-0.101 0.167,0.189 0.058,0.434 -0.023,0.61 -0.224,0.49 -0.482,0.967 -0.756,1.432 -0.216,0.368 -0.264,0.629 0.195,0.866 0.418,0.217 0.663,0.274 0.942,-0.224 0.391,-0.7 0.686,-1.474 1.284,-2.104 0.449,0.559 0.469,1.19 0.617,1.771 0.122,0.47 0.331,0.665 0.844,0.519 0.48,-0.137 0.628,-0.343 0.48,-0.849 -0.322,-1.105 -0.604,-2.224 -0.864,-3.344 -0.169,-0.734 -0.409,-1.248 -1.275,-0.751 -0.133,0.075 -0.278,0.119 -0.378,-0.026 -0.14,-0.204 0,-0.324 0.167,-0.419 0.279,-0.164 0.554,-0.335 0.839,-0.487 0.523,-0.28 0.913,-0.338 1.047,0.444 0.133,0.776 0.396,1.53 0.592,2.295 0.115,0.452 0.311,0.676 0.836,0.504 0.471,-0.154 0.641,-0.346 0.467,-0.858 -0.22,-0.646 -0.385,-1.315 -0.509,-1.986 -0.093,-0.491 -0.627,-1.258 -0.075,-1.429 0.639,-0.198 0.515,0.75 0.722,1.185 0.188,0.396 0.295,0.735 0.826,0.509 0.451,-0.191 0.778,-0.365 0.524,-0.999 -0.313,-0.781 -0.492,-1.617 -0.714,-2.433 -0.12,-0.443 -0.306,-0.875 -0.015,-1.35 0.39,-0.634 0.719,-1.306 1.072,-1.961 0.243,0.249 0.485,0.496 0.729,0.743 0.085,0.14 0.172,0.281 0.258,0.421 0.094,0.479 0.422,0.83 0.666,1.23 -0.446,1.114 -0.278,2.4 -1.048,3.452 -0.273,0.374 0.208,0.681 0.627,0.779 0.354,0.084 0.766,0.374 0.892,-0.309 0.17,-0.914 0.391,-1.818 0.595,-2.726 0.062,-0.276 0.092,-0.598 0.53,-0.354 0.83,0.463 1.832,0.265 2.684,0.67 0.37,0.175 0.669,0.177 0.776,-0.359 0.096,-0.472 0.151,-0.802 -0.465,-0.938 -1.122,-0.249 -2.228,-0.569 -3.339,-0.859 -0.502,-0.874 -1.208,-1.639 -1.434,-2.662 2.205,-0.417 3.775,0.618 5.098,2.225 0.067,0.082 0.188,0.124 0.246,0.209 0.318,0.459 0.623,0.343 0.979,0.03 0.413,-0.364 0.311,-0.656 -0.044,-0.979 -0.612,-0.558 -1.178,-1.172 -1.827,-1.682 -0.449,-0.352 -0.391,-0.599 -0.047,-0.934 0.617,-0.604 1.231,-1.213 1.842,-1.825 0.192,-0.196 0.514,-0.409 0.144,-0.692 z" />
            </g>
          </g>
          <g
             id="g637"
             style="opacity:0.8">
            <g
               id="g639">
              <path
                 style="fill:#d9d9d6"
                 inkscape:connector-curvature="0"
                 id="path641"
                 d="m 1243.898,383.769 c -0.402,-0.118 -0.609,-0.07 -0.702,0.387 -0.216,1.064 -0.477,2.119 -0.722,3.177 -0.089,0.376 -0.185,0.651 0.413,0.751 0.531,0.089 0.632,-0.08 0.705,-0.502 0.089,-0.501 0.217,-0.995 0.387,-1.753 0.45,0.749 0.724,1.298 1.092,1.776 0.188,0.245 0.169,0.893 0.874,0.494 0.674,-0.382 0.314,-0.675 0.114,-1.063 -0.233,-0.451 -0.84,-0.924 -0.636,-1.329 0.224,-0.442 0.863,0.049 1.327,0.057 0.475,0.009 0.61,-0.049 0.715,-0.495 0.11,-0.467 -0.081,-0.573 -0.469,-0.668 -1.038,-0.255 -2.071,-0.533 -3.098,-0.832 z" />
            </g>
            <g
               id="g643">
              <path
                 style="fill:#d9d9d6"
                 inkscape:connector-curvature="0"
                 id="path645"
                 d="m 1234.585,369.905 c 0.51,0.159 0.62,-0.047 0.707,-0.488 0.2,-1 0.408,-2 0.696,-2.977 0.136,-0.462 0.149,-0.676 -0.372,-0.848 -0.601,-0.197 -0.659,0.133 -0.737,0.555 -0.088,0.471 -0.203,0.938 -0.307,1.406 -0.075,0.012 -0.15,0.025 -0.226,0.037 -0.344,-0.572 -0.708,-1.132 -1.023,-1.717 -0.228,-0.42 -0.478,-0.477 -0.882,-0.242 -0.448,0.26 -0.253,0.544 -0.087,0.842 0.119,0.213 0.253,0.419 0.367,0.635 0.178,0.336 0.657,0.713 0.37,1.028 -0.287,0.315 -0.777,-0.076 -1.179,-0.157 -0.027,-0.005 -0.053,-0.028 -0.075,-0.046 -0.333,-0.275 -0.602,-0.292 -0.747,0.185 -0.13,0.424 -0.257,0.794 0.403,0.94 1.043,0.23 2.072,0.528 3.092,0.847 z" />
            </g>
            <g
               id="g647">
              <path
                 style="fill:#d9d9d6"
                 inkscape:connector-curvature="0"
                 id="path649"
                 d="m 1251.633,376.048 c -0.683,0.038 -1.369,0.022 -2.225,0.031 0.494,-0.505 0.841,-0.873 1.2,-1.225 0.274,-0.269 0.518,-0.465 0.114,-0.881 -0.39,-0.404 -0.643,-0.208 -0.91,0.05 -0.769,0.738 -1.523,1.491 -2.273,2.248 -0.216,0.219 -0.392,0.417 -0.022,0.733 0.855,0.733 1.67,1.515 2.477,2.301 0.316,0.308 0.523,0.297 0.818,-0.025 0.304,-0.331 0.257,-0.57 -0.056,-0.832 -0.257,-0.216 -0.508,-0.438 -0.753,-0.667 -0.108,-0.101 -0.26,-0.232 -0.162,-0.381 0.07,-0.107 0.304,-0.236 0.365,-0.197 0.516,0.324 0.987,-0.15 1.476,-0.053 0.468,0.093 0.731,-0.194 0.733,-0.556 0,-0.427 -0.347,-0.569 -0.782,-0.546 z" />
            </g>
            <g
               id="g651">
              <path
                 style="fill:#d9d9d6"
                 inkscape:connector-curvature="0"
                 id="path653"
                 d="m 1226.535,377.607 c 0.354,0.053 0.68,0.056 1.036,-0.002 0.296,-0.049 0.665,-0.158 0.908,0.08 0.102,0.267 0.102,0.461 -0.096,0.63 -0.209,0.177 -0.385,0.394 -0.598,0.566 -0.34,0.273 -0.346,0.486 -0.013,0.804 0.326,0.313 0.529,0.278 0.822,-0.023 0.767,-0.784 1.554,-1.546 2.338,-2.313 0.22,-0.214 0.372,-0.418 0.079,-0.685 -0.878,-0.796 -1.766,-1.582 -2.627,-2.394 -0.37,-0.349 -0.507,-0.017 -0.733,0.167 -0.29,0.234 -0.243,0.423 -0.021,0.678 0.361,0.417 1.24,0.749 0.994,1.219 -0.21,0.402 -1.125,0.109 -1.726,0.166 -0.091,0.009 -0.184,0.01 -0.274,10e-4 -0.299,-0.029 -0.487,0.078 -0.444,0.403 0.036,0.267 -0.137,0.63 0.355,0.703 z" />
            </g>
            <g
               id="g655">
              <path
                 style="fill:#d9d9d6"
                 inkscape:connector-curvature="0"
                 id="path657"
                 d="m 1243.884,369.738 c 0.864,-0.368 1.716,-0.68 2.662,-0.788 0.282,-0.032 0.802,-0.25 0.604,-0.892 -0.187,-0.605 -0.456,-0.502 -0.866,-0.309 -0.242,0.114 -0.515,0.174 -0.779,0.23 -0.168,0.035 -0.461,0.081 -0.498,0.012 -0.088,-0.162 -0.121,-0.369 0.03,-0.584 0.279,-0.395 0.48,-0.843 0.748,-1.247 0.267,-0.403 0.059,-0.581 -0.262,-0.789 -0.365,-0.238 -0.529,-0.098 -0.703,0.231 -0.339,0.646 -0.707,1.274 -1.14,2.044 -0.179,-0.617 -0.286,-1.088 -0.452,-1.539 -0.109,-0.302 0.057,-0.854 -0.668,-0.661 -0.633,0.169 -0.553,0.498 -0.43,0.939 0.265,0.955 0.563,1.904 0.758,2.873 0.139,0.688 0.649,0.627 0.996,0.48 z" />
            </g>
            <g
               id="g659">
              <path
                 style="fill:#d9d9d6"
                 inkscape:connector-curvature="0"
                 id="path661"
                 d="m 1242.204,372.08 c 1.02,-0.419 2.078,-0.72 3.16,-0.921 0.791,-0.146 0.619,-0.65 0.453,-1.218 -0.087,-0.215 -0.283,-0.177 -0.505,-0.103 -0.549,0.182 -1.115,0.318 -1.646,0.54 -0.72,0.298 -1.18,0.267 -1.294,-0.656 -0.069,-0.569 -0.274,-1.121 -0.416,-1.681 -0.093,-0.37 -0.254,-0.483 -0.652,-0.318 -0.287,0.119 -0.603,0.074 -0.466,0.553 0.331,1.169 0.626,2.35 0.942,3.524 0.055,0.202 0.098,0.415 0.424,0.28 z" />
            </g>
            <g
               id="g663">
              <path
                 style="fill:#d9d9d6"
                 inkscape:connector-curvature="0"
                 id="path665"
                 d="m 1236.002,372.057 c 0.181,0.047 0.424,0.237 0.507,-0.118 0.289,-1.248 0.57,-2.499 0.851,-3.75 0.013,-0.056 -0.01,-0.119 -0.017,-0.195 -0.193,-0.213 -0.479,-0.227 -0.739,-0.281 -0.309,-0.063 -0.329,0.197 -0.375,0.402 -0.164,0.714 -0.342,1.426 -0.477,2.146 -0.078,0.412 -0.259,0.651 -0.651,0.403 -0.642,-0.405 -1.402,-0.297 -2.067,-0.559 -0.41,-0.162 -0.619,-0.066 -0.71,0.37 -0.078,0.374 -0.06,0.606 0.403,0.714 1.099,0.258 2.183,0.58 3.275,0.868 z" />
            </g>
            <g
               id="g667">
              <path
                 style="fill:#d9d9d6"
                 inkscape:connector-curvature="0"
                 id="path669"
                 d="m 1231.729,376.52 c 0.447,0.354 0.375,0.587 -0.01,0.925 -0.523,0.466 -0.999,0.983 -1.498,1.478 -0.177,0.173 -0.42,0.351 -0.067,0.565 0.244,0.148 0.38,0.661 1.021,0.084 0.662,-0.654 1.53,-1.51 2.395,-2.369 0.306,-0.304 0.039,-0.468 -0.164,-0.655 -0.805,-0.739 -1.608,-1.478 -2.402,-2.228 -0.295,-0.278 -0.537,-0.411 -0.907,-0.067 -0.459,0.426 -0.051,0.663 0.165,0.891 0.458,0.487 0.939,0.961 1.462,1.376 z" />
            </g>
            <g
               id="g671">
              <path
                 style="fill:#d9d9d6"
                 inkscape:connector-curvature="0"
                 id="path673"
                 d="m 1246.836,377.231 c -0.41,-0.375 -0.486,-0.695 0.016,-1.102 0.492,-0.399 0.895,-0.909 1.353,-1.354 0.262,-0.254 0.34,-0.427 0.016,-0.731 -0.31,-0.29 -0.524,-0.36 -0.833,-0.048 -0.81,0.823 -1.614,1.652 -2.449,2.45 -0.297,0.283 -0.182,0.396 0.063,0.614 0.862,0.767 1.715,1.547 2.535,2.358 0.239,0.237 0.51,0.315 0.642,0.086 0.129,-0.223 0.614,-0.463 0.204,-0.856 -0.517,-0.472 -1.03,-0.945 -1.547,-1.417 z" />
            </g>
            <g
               id="g675">
              <path
                 style="fill:#d9d9d6"
                 inkscape:connector-curvature="0"
                 id="path677"
                 d="m 1242.569,381.588 c -0.42,-0.152 -0.542,-0.164 -0.635,0.274 -0.238,1.131 -0.509,2.256 -0.753,3.386 -0.038,0.177 -0.229,0.411 0.102,0.532 0.254,0.094 0.506,0.194 0.639,0.245 0.35,-0.2 0.298,-0.405 0.337,-0.575 0.151,-0.654 0.353,-1.301 0.437,-1.963 0.078,-0.61 0.326,-0.652 0.836,-0.477 0.661,0.228 1.354,0.362 2.021,0.571 0.354,0.11 0.525,0.031 0.554,-0.341 0.021,-0.286 0.313,-0.599 -0.289,-0.729 -1.099,-0.235 -2.192,-0.54 -3.249,-0.923 z" />
            </g>
            <g
               id="g679">
              <path
                 style="fill:#d9d9d6"
                 inkscape:connector-curvature="0"
                 id="path681"
                 d="m 1245.805,374.222 c -0.229,-0.176 -0.377,-0.65 -0.807,-0.311 -0.229,0.182 -0.496,0.27 -0.694,0.549 -0.398,0.561 -0.874,1.096 -1.412,1.523 -0.624,0.496 -1.34,0.33 -1.934,-0.115 -0.598,-0.447 -0.1,-0.932 0.151,-1.264 0.323,-0.426 0.832,-0.837 1.365,-0.841 0.776,-0.005 1.315,-0.532 2.013,-0.688 0.518,-0.117 0.185,-0.561 0.122,-0.844 -0.082,-0.37 -0.399,-0.268 -0.578,-0.127 -0.608,0.478 -1.396,0.302 -2.046,0.607 -0.367,0.171 -0.463,0.161 -0.611,-0.345 -0.19,-0.652 -0.45,-1.3 -0.579,-1.972 -0.122,-0.635 -0.598,-0.662 -1.008,-0.578 -0.561,0.115 -0.191,0.54 -0.111,0.806 0.503,1.665 1.082,3.326 -0.311,4.865 -0.034,0.037 -0.099,0.045 -0.148,0.065 -1.352,-1.798 -1.363,-1.865 -0.836,-3.984 0.097,-0.382 0.172,-0.77 0.26,-1.155 0.117,-0.521 -0.334,-0.383 -0.568,-0.489 -0.269,-0.12 -0.469,-0.093 -0.518,0.259 -0.029,0.21 -0.088,0.417 -0.137,0.626 -0.524,2.219 -0.521,2.205 -2.698,1.578 -0.37,-0.107 -0.914,-0.575 -1.152,0.146 -0.251,0.76 0.411,0.78 0.884,0.919 0.146,0.042 0.3,0.065 0.442,0.117 1.187,0.44 2.556,0.58 3.025,2.11 0.146,0.478 0.07,0.634 -0.358,0.653 -1.031,0.047 -2.054,0.109 -2.776,-0.905 -0.312,-0.437 -0.824,-0.725 -1.195,-1.126 -0.334,-0.362 -0.561,-0.335 -0.893,0.006 -0.348,0.357 -0.169,0.576 0.098,0.819 0.448,0.412 0.886,0.838 1.352,1.228 0.436,0.364 0.665,0.637 0.038,1.084 -0.487,0.348 -0.864,0.853 -1.276,1.301 -0.197,0.215 -0.621,0.36 -0.171,0.781 0.363,0.34 0.621,0.414 0.973,0.021 0.386,-0.431 0.791,-0.846 1.21,-1.245 0.64,-0.611 1.376,-0.979 2.3,-0.893 0.645,0.06 0.791,0.278 0.567,0.938 -0.436,1.283 -1.509,1.584 -2.604,1.813 -1.02,0.213 -1.726,0.581 -1.513,1.786 0.923,-0.611 2.021,-0.65 3.044,-0.937 0.193,-0.054 0.281,0.04 0.354,0.178 0.094,0.174 0.01,0.3 -0.154,0.348 -0.955,0.278 -1.91,0.555 -2.872,0.809 -0.204,0.054 -0.301,-0.158 -0.398,-0.308 -0.221,0.205 -0.412,0.456 -0.665,0.603 -0.366,0.21 -0.682,0.406 -0.479,0.891 0.205,0.49 0.593,0.278 0.937,0.222 0.164,-0.027 0.371,-0.186 0.455,0.083 0.078,0.25 -0.187,0.259 -0.317,0.36 -0.527,0.405 -1.186,0.461 -1.784,0.678 -0.308,0.111 -0.652,0.187 -0.468,0.695 0.141,0.386 0.188,0.709 0.718,0.434 0.251,-0.129 0.597,0.116 0.86,-0.14 0.123,-0.12 0.279,-0.286 0.456,-0.086 0.142,0.16 0.049,0.367 -0.02,0.517 -0.189,0.415 -0.409,0.818 -0.64,1.212 -0.184,0.312 -0.224,0.533 0.164,0.733 0.354,0.184 0.562,0.232 0.798,-0.189 0.331,-0.592 0.581,-1.248 1.088,-1.782 0.38,0.474 0.396,1.008 0.522,1.499 0.103,0.398 0.28,0.563 0.713,0.439 0.407,-0.116 0.532,-0.29 0.407,-0.719 -0.272,-0.936 -0.512,-1.882 -0.731,-2.831 -0.143,-0.622 -0.346,-1.057 -1.08,-0.636 -0.111,0.064 -0.234,0.101 -0.319,-0.022 -0.118,-0.173 0,-0.274 0.142,-0.355 0.236,-0.139 0.468,-0.284 0.71,-0.413 0.443,-0.237 0.773,-0.287 0.887,0.376 0.112,0.657 0.335,1.295 0.5,1.943 0.098,0.382 0.263,0.572 0.708,0.426 0.398,-0.13 0.542,-0.292 0.395,-0.727 -0.186,-0.546 -0.325,-1.113 -0.431,-1.681 -0.078,-0.416 -0.53,-1.065 -0.063,-1.21 0.54,-0.167 0.436,0.635 0.61,1.003 0.16,0.335 0.25,0.623 0.7,0.432 0.382,-0.162 0.658,-0.31 0.443,-0.846 -0.265,-0.661 -0.417,-1.369 -0.604,-2.06 -0.102,-0.375 -0.259,-0.741 -0.012,-1.143 0.33,-0.537 0.608,-1.105 0.907,-1.66 0.206,0.21 0.411,0.419 0.617,0.629 0.071,0.118 0.145,0.238 0.218,0.356 0.079,0.405 0.356,0.703 0.563,1.042 -0.378,0.943 -0.235,2.032 -0.887,2.922 -0.231,0.317 0.177,0.577 0.53,0.66 0.301,0.071 0.648,0.316 0.755,-0.261 0.145,-0.774 0.33,-1.54 0.504,-2.308 0.052,-0.234 0.077,-0.506 0.448,-0.299 0.703,0.392 1.551,0.224 2.271,0.567 0.313,0.149 0.565,0.15 0.657,-0.304 0.081,-0.399 0.128,-0.679 -0.394,-0.794 -0.95,-0.211 -1.886,-0.482 -2.826,-0.728 -0.425,-0.74 -1.022,-1.388 -1.213,-2.254 1.865,-0.354 3.195,0.523 4.314,1.884 0.058,0.069 0.159,0.104 0.208,0.177 0.27,0.389 0.527,0.291 0.828,0.025 0.35,-0.308 0.263,-0.556 -0.037,-0.829 -0.518,-0.472 -0.997,-0.993 -1.547,-1.424 -0.38,-0.298 -0.33,-0.507 -0.039,-0.791 0.522,-0.512 1.042,-1.027 1.559,-1.545 0.165,-0.159 0.437,-0.339 0.124,-0.579 z" />
            </g>
          </g>
          <path
             style="fill:#d9d9d6"
             inkscape:connector-curvature="0"
             id="path727"
             d="m 1257.434,235.436 c -0.229,-0.176 -0.378,-0.65 -0.807,-0.311 -0.229,0.182 -0.496,0.269 -0.695,0.549 -0.398,0.561 -0.874,1.096 -1.411,1.524 -0.624,0.496 -1.34,0.33 -1.935,-0.115 -0.597,-0.447 -0.1,-0.933 0.152,-1.264 0.323,-0.427 0.832,-0.837 1.364,-0.842 0.776,-0.005 1.316,-0.532 2.014,-0.688 0.518,-0.117 0.185,-0.561 0.121,-0.844 -0.081,-0.369 -0.399,-0.267 -0.577,-0.126 -0.609,0.478 -1.396,0.302 -2.046,0.606 -0.367,0.172 -0.463,0.162 -0.611,-0.345 -0.191,-0.652 -0.451,-1.3 -0.58,-1.972 -0.122,-0.636 -0.597,-0.662 -1.007,-0.578 -0.561,0.115 -0.192,0.54 -0.112,0.806 0.503,1.665 1.083,3.326 -0.311,4.865 -0.033,0.037 -0.099,0.045 -0.147,0.066 -1.352,-1.799 -1.364,-1.865 -0.836,-3.984 0.096,-0.383 0.172,-0.77 0.26,-1.155 0.117,-0.521 -0.334,-0.384 -0.569,-0.489 -0.269,-0.12 -0.469,-0.093 -0.517,0.258 -0.029,0.211 -0.088,0.418 -0.137,0.626 -0.524,2.219 -0.521,2.205 -2.698,1.578 -0.371,-0.106 -0.914,-0.575 -1.152,0.146 -0.252,0.76 0.411,0.78 0.884,0.919 0.146,0.043 0.3,0.065 0.441,0.118 1.188,0.44 2.556,0.58 3.025,2.11 0.146,0.478 0.07,0.634 -0.357,0.653 -1.031,0.046 -2.054,0.109 -2.776,-0.905 -0.312,-0.437 -0.825,-0.725 -1.195,-1.127 -0.334,-0.361 -0.561,-0.335 -0.893,0.006 -0.349,0.357 -0.169,0.576 0.098,0.819 0.448,0.412 0.885,0.838 1.352,1.229 0.435,0.364 0.664,0.637 0.037,1.084 -0.486,0.348 -0.863,0.853 -1.275,1.301 -0.197,0.215 -0.622,0.36 -0.172,0.781 0.364,0.34 0.621,0.414 0.974,0.02 0.385,-0.431 0.791,-0.845 1.209,-1.245 0.641,-0.611 1.377,-0.978 2.301,-0.893 0.644,0.061 0.791,0.279 0.567,0.938 -0.437,1.283 -1.509,1.584 -2.604,1.814 -1.021,0.213 -1.727,0.581 -1.513,1.786 0.923,-0.611 2.021,-0.65 3.044,-0.937 0.192,-0.054 0.281,0.04 0.354,0.178 0.093,0.174 0.01,0.3 -0.154,0.347 -0.955,0.278 -1.911,0.555 -2.873,0.809 -0.203,0.054 -0.3,-0.158 -0.398,-0.307 -0.22,0.205 -0.412,0.456 -0.665,0.603 -0.366,0.211 -0.681,0.406 -0.478,0.892 0.205,0.49 0.593,0.278 0.937,0.222 0.163,-0.026 0.37,-0.186 0.455,0.083 0.078,0.25 -0.188,0.26 -0.317,0.36 -0.527,0.405 -1.186,0.461 -1.784,0.677 -0.308,0.111 -0.652,0.187 -0.468,0.695 0.14,0.385 0.187,0.709 0.718,0.434 0.251,-0.129 0.596,0.116 0.859,-0.14 0.124,-0.12 0.28,-0.286 0.457,-0.085 0.141,0.16 0.048,0.367 -0.021,0.517 -0.188,0.415 -0.408,0.818 -0.639,1.212 -0.184,0.311 -0.225,0.532 0.164,0.733 0.354,0.184 0.562,0.232 0.798,-0.189 0.331,-0.592 0.581,-1.248 1.088,-1.782 0.38,0.473 0.396,1.007 0.521,1.499 0.104,0.398 0.28,0.563 0.714,0.439 0.406,-0.116 0.531,-0.29 0.406,-0.719 -0.272,-0.936 -0.512,-1.882 -0.73,-2.832 -0.143,-0.621 -0.346,-1.056 -1.08,-0.636 -0.111,0.063 -0.235,0.101 -0.319,-0.022 -0.118,-0.173 0,-0.274 0.142,-0.355 0.235,-0.138 0.468,-0.284 0.709,-0.412 0.444,-0.237 0.773,-0.287 0.887,0.376 0.112,0.657 0.335,1.295 0.501,1.943 0.098,0.382 0.263,0.573 0.707,0.427 0.399,-0.131 0.543,-0.292 0.396,-0.727 -0.187,-0.547 -0.326,-1.113 -0.431,-1.682 -0.078,-0.416 -0.53,-1.064 -0.063,-1.209 0.54,-0.168 0.436,0.635 0.61,1.003 0.16,0.335 0.249,0.622 0.699,0.431 0.383,-0.162 0.659,-0.309 0.444,-0.845 -0.266,-0.661 -0.417,-1.369 -0.604,-2.06 -0.102,-0.376 -0.259,-0.741 -0.012,-1.143 0.329,-0.538 0.607,-1.105 0.907,-1.66 0.205,0.21 0.41,0.419 0.616,0.629 0.072,0.119 0.146,0.238 0.218,0.356 0.079,0.406 0.357,0.703 0.564,1.042 -0.378,0.943 -0.235,2.032 -0.887,2.922 -0.231,0.316 0.176,0.577 0.53,0.66 0.3,0.071 0.648,0.316 0.755,-0.261 0.144,-0.774 0.33,-1.54 0.503,-2.308 0.053,-0.233 0.078,-0.505 0.449,-0.299 0.703,0.393 1.55,0.224 2.271,0.568 0.313,0.148 0.566,0.15 0.658,-0.304 0.08,-0.4 0.128,-0.679 -0.394,-0.794 -0.95,-0.211 -1.886,-0.482 -2.827,-0.728 -0.424,-0.741 -1.021,-1.388 -1.212,-2.254 1.865,-0.354 3.194,0.523 4.314,1.884 0.057,0.069 0.158,0.104 0.208,0.177 0.27,0.389 0.527,0.291 0.828,0.025 0.35,-0.308 0.262,-0.556 -0.037,-0.829 -0.519,-0.472 -0.997,-0.993 -1.547,-1.424 -0.38,-0.298 -0.33,-0.507 -0.04,-0.791 0.523,-0.511 1.043,-1.026 1.56,-1.545 0.164,-0.163 0.435,-0.343 0.123,-0.583 z" />
        </g>
      </g>
    </g>
  </g>
</svg>
