<?xml version="1.0" encoding="UTF-8" standalone="no"?>
<!-- Created with Inkscape (http://www.inkscape.org/) -->

<svg
   xmlns:dc="http://purl.org/dc/elements/1.1/"
   xmlns:cc="http://creativecommons.org/ns#"
   xmlns:rdf="http://www.w3.org/1999/02/22-rdf-syntax-ns#"
   xmlns:svg="http://www.w3.org/2000/svg"
   xmlns="http://www.w3.org/2000/svg"
   xmlns:sodipodi="http://sodipodi.sourceforge.net/DTD/sodipodi-0.dtd"
   xmlns:inkscape="http://www.inkscape.org/namespaces/inkscape"
   width="41mm"
   height="190mm"
   viewBox="0 0 145.27558 673.22835"
   id="svg12793"
   version="1.1"
   inkscape:version="0.91 r13725"
   sodipodi:docname="section-2-bg-left.svg">
  <defs
     id="defs12795" />
  <sodipodi:namedview
     id="base"
     pagecolor="#ffffff"
     bordercolor="#666666"
     borderopacity="1.0"
     inkscape:pageopacity="0.0"
     inkscape:pageshadow="2"
     inkscape:zoom="0.35"
     inkscape:cx="-66.916057"
     inkscape:cy="698.62413"
     inkscape:document-units="px"
     inkscape:current-layer="layer1"
     showgrid="false"
     fit-margin-top="0"
     fit-margin-left="0"
     fit-margin-right="0"
     fit-margin-bottom="0"
     inkscape:window-width="1366"
     inkscape:window-height="745"
     inkscape:window-x="-8"
     inkscape:window-y="-8"
     inkscape:window-maximized="1" />
  <metadata
     id="metadata12798">
    <rdf:RDF>
      <cc:Work
         rdf:about="">
        <dc:format>image/svg+xml</dc:format>
        <dc:type
           rdf:resource="http://purl.org/dc/dcmitype/StillImage" />
        <dc:title></dc:title>
      </cc:Work>
    </rdf:RDF>
  </metadata>
  <g
     inkscape:label="Layer 1"
     inkscape:groupmode="layer"
     id="layer1"
     transform="translate(92.369652,-1243.4723)">
    <g
       transform="translate(-109.67066,368.15684)"
       id="g12244">
      <g
         style="opacity:0.6"
         id="g2813">
        <g
           id="g2815">
          <path
             style="fill:#1c4781"
             inkscape:connector-curvature="0"
             id="path2817"
             d="m 51.915,1200.646 c -0.476,-0.14 -0.719,-0.083 -0.829,0.457 -0.256,1.257 -0.563,2.504 -0.853,3.754 -0.104,0.444 -0.218,0.769 0.489,0.887 0.627,0.105 0.746,-0.094 0.833,-0.594 0.104,-0.592 0.256,-1.175 0.457,-2.071 0.531,0.884 0.855,1.534 1.29,2.098 0.223,0.289 0.2,1.055 1.033,0.583 0.796,-0.452 0.371,-0.798 0.135,-1.255 -0.275,-0.533 -0.993,-1.092 -0.75,-1.57 0.264,-0.522 1.019,0.058 1.567,0.067 0.561,0.011 0.721,-0.058 0.845,-0.584 0.13,-0.551 -0.095,-0.677 -0.554,-0.79 -1.229,-0.299 -2.45,-0.628 -3.663,-0.982 z" />
        </g>
        <g
           id="g2819">
          <path
             style="fill:#1c4781"
             inkscape:connector-curvature="0"
             id="path2821"
             d="m 40.911,1184.266 c 0.602,0.188 0.732,-0.056 0.835,-0.576 0.236,-1.181 0.482,-2.364 0.822,-3.518 0.161,-0.545 0.177,-0.799 -0.439,-1.001 -0.709,-0.233 -0.778,0.157 -0.871,0.655 -0.104,0.557 -0.24,1.107 -0.362,1.661 -0.089,0.015 -0.178,0.03 -0.267,0.044 -0.406,-0.675 -0.836,-1.337 -1.209,-2.029 -0.268,-0.497 -0.564,-0.563 -1.042,-0.287 -0.529,0.308 -0.299,0.643 -0.103,0.995 0.142,0.252 0.299,0.496 0.434,0.75 0.21,0.396 0.777,0.843 0.438,1.214 -0.339,0.371 -0.918,-0.09 -1.393,-0.185 -0.032,-0.01 -0.063,-0.033 -0.09,-0.055 -0.393,-0.325 -0.71,-0.345 -0.882,0.219 -0.152,0.501 -0.303,0.938 0.477,1.111 1.231,0.274 2.448,0.626 3.652,1.002 z" />
        </g>
        <g
           id="g2823">
          <path
             style="fill:#1c4781"
             inkscape:connector-curvature="0"
             id="path2825"
             d="m 61.053,1191.524 c -0.807,0.045 -1.617,0.026 -2.628,0.037 0.584,-0.597 0.993,-1.031 1.418,-1.447 0.324,-0.317 0.611,-0.549 0.135,-1.041 -0.46,-0.478 -0.76,-0.245 -1.076,0.059 -0.908,0.872 -1.8,1.761 -2.686,2.656 -0.255,0.259 -0.464,0.492 -0.027,0.866 1.011,0.866 1.973,1.79 2.926,2.719 0.373,0.364 0.618,0.351 0.967,-0.03 0.359,-0.391 0.303,-0.674 -0.066,-0.983 -0.303,-0.254 -0.599,-0.518 -0.889,-0.788 -0.128,-0.119 -0.307,-0.274 -0.191,-0.45 0.083,-0.126 0.359,-0.279 0.432,-0.233 0.609,0.383 1.166,-0.178 1.744,-0.062 0.552,0.11 0.864,-0.229 0.866,-0.657 0.003,-0.505 -0.411,-0.673 -0.925,-0.646 z" />
        </g>
        <g
           id="g2827">
          <path
             style="fill:#1c4781"
             inkscape:connector-curvature="0"
             id="path2829"
             d="m 31.4,1193.366 c 0.417,0.063 0.802,0.066 1.224,0 0.35,-0.058 0.786,-0.187 1.073,0.094 0.12,0.316 0.12,0.546 -0.113,0.744 -0.247,0.21 -0.455,0.466 -0.706,0.669 -0.402,0.323 -0.409,0.575 -0.015,0.95 0.386,0.37 0.625,0.329 0.972,-0.027 0.906,-0.926 1.836,-1.827 2.763,-2.732 0.259,-0.253 0.439,-0.495 0.093,-0.809 -1.037,-0.94 -2.085,-1.869 -3.104,-2.829 -0.437,-0.412 -0.599,-0.02 -0.867,0.198 -0.342,0.276 -0.287,0.5 -0.025,0.801 0.426,0.492 1.465,0.885 1.174,1.44 -0.248,0.475 -1.329,0.128 -2.038,0.196 -0.107,0.01 -0.217,0.012 -0.325,10e-4 -0.353,-0.034 -0.575,0.092 -0.524,0.476 0.04,0.316 -0.163,0.744 0.418,0.831 z" />
        </g>
        <g
           id="g2831">
          <path
             style="fill:#1c4781"
             inkscape:connector-curvature="0"
             id="path2833"
             d="m 51.897,1184.069 c 1.021,-0.435 2.027,-0.804 3.146,-0.931 0.333,-0.038 0.947,-0.295 0.714,-1.054 -0.22,-0.715 -0.539,-0.594 -1.023,-0.364 -0.286,0.135 -0.608,0.206 -0.921,0.272 -0.199,0.042 -0.544,0.095 -0.588,0.015 -0.104,-0.191 -0.143,-0.436 0.036,-0.69 0.329,-0.467 0.567,-0.997 0.883,-1.474 0.315,-0.476 0.069,-0.686 -0.309,-0.932 -0.432,-0.281 -0.626,-0.115 -0.831,0.273 -0.4,0.762 -0.836,1.505 -1.347,2.416 -0.21,-0.729 -0.338,-1.286 -0.533,-1.818 -0.13,-0.356 0.066,-1.008 -0.79,-0.78 -0.749,0.2 -0.653,0.587 -0.508,1.109 0.313,1.128 0.665,2.25 0.896,3.395 0.164,0.808 0.766,0.737 1.175,0.563 z" />
        </g>
        <g
           id="g2835">
          <path
             style="fill:#1c4781"
             inkscape:connector-curvature="0"
             id="path2837"
             d="m 49.913,1186.836 c 1.204,-0.496 2.455,-0.851 3.734,-1.089 0.935,-0.173 0.731,-0.769 0.536,-1.439 -0.103,-0.254 -0.334,-0.209 -0.597,-0.122 -0.648,0.216 -1.318,0.376 -1.946,0.638 -0.85,0.352 -1.394,0.315 -1.528,-0.774 -0.083,-0.673 -0.325,-1.325 -0.491,-1.987 -0.11,-0.437 -0.301,-0.57 -0.771,-0.375 -0.339,0.14 -0.712,0.086 -0.551,0.653 0.392,1.381 0.74,2.776 1.114,4.164 0.064,0.239 0.114,0.49 0.5,0.331 z" />
        </g>
        <g
           id="g2839">
          <path
             style="fill:#1c4781"
             inkscape:connector-curvature="0"
             id="path2841"
             d="m 42.585,1186.809 c 0.213,0.056 0.501,0.28 0.598,-0.139 0.342,-1.475 0.674,-2.952 1.006,-4.43 0.015,-0.066 -0.011,-0.14 -0.02,-0.23 -0.228,-0.252 -0.567,-0.268 -0.874,-0.332 -0.364,-0.075 -0.388,0.233 -0.443,0.475 -0.193,0.843 -0.404,1.685 -0.563,2.535 -0.091,0.487 -0.306,0.77 -0.77,0.477 -0.758,-0.479 -1.656,-0.352 -2.441,-0.661 -0.485,-0.191 -0.732,-0.078 -0.84,0.438 -0.092,0.442 -0.07,0.716 0.478,0.844 1.298,0.302 2.579,0.682 3.869,1.023 z" />
        </g>
        <g
           id="g2843">
          <path
             style="fill:#1c4781"
             inkscape:connector-curvature="0"
             id="path2845"
             d="m 37.537,1192.082 c 0.527,0.418 0.442,0.694 -0.006,1.093 -0.618,0.551 -1.181,1.162 -1.771,1.745 -0.208,0.205 -0.496,0.416 -0.079,0.668 0.288,0.175 0.448,0.781 1.207,0.1 0.783,-0.773 1.809,-1.784 2.83,-2.799 0.361,-0.358 0.046,-0.552 -0.194,-0.774 -0.951,-0.873 -1.9,-1.746 -2.838,-2.632 -0.348,-0.328 -0.634,-0.486 -1.072,-0.079 -0.542,0.504 -0.06,0.783 0.195,1.053 0.541,0.574 1.11,1.135 1.728,1.625 z" />
        </g>
        <g
           id="g2847">
          <path
             style="fill:#1c4781"
             inkscape:connector-curvature="0"
             id="path2849"
             d="m 55.386,1192.922 c -0.485,-0.442 -0.576,-0.821 0.018,-1.302 0.582,-0.472 1.057,-1.073 1.598,-1.599 0.309,-0.3 0.401,-0.505 0.018,-0.864 -0.365,-0.342 -0.62,-0.425 -0.983,-0.057 -0.958,0.973 -1.909,1.952 -2.895,2.895 -0.351,0.334 -0.214,0.468 0.075,0.726 1.02,0.906 2.027,1.828 2.996,2.786 0.283,0.28 0.602,0.372 0.758,0.101 0.152,-0.263 0.725,-0.547 0.241,-1.011 -0.608,-0.559 -1.216,-1.118 -1.826,-1.675 z" />
        </g>
        <g
           id="g2851">
          <path
             style="fill:#1c4781"
             inkscape:connector-curvature="0"
             id="path2853"
             d="m 50.344,1198.07 c -0.496,-0.18 -0.64,-0.194 -0.75,0.324 -0.282,1.336 -0.601,2.666 -0.89,4 -0.045,0.209 -0.27,0.485 0.12,0.628 0.3,0.111 0.598,0.229 0.755,0.289 0.413,-0.236 0.352,-0.478 0.398,-0.678 0.179,-0.773 0.416,-1.537 0.516,-2.32 0.092,-0.721 0.385,-0.771 0.987,-0.563 0.781,0.269 1.6,0.428 2.389,0.675 0.418,0.13 0.621,0.037 0.653,-0.402 0.025,-0.338 0.371,-0.708 -0.34,-0.862 -1.298,-0.278 -2.589,-0.639 -3.838,-1.091 z" />
        </g>
        <g
           id="g2855">
          <path
             style="fill:#1c4781"
             inkscape:connector-curvature="0"
             id="path2857"
             d="m 54.167,1189.366 c -0.271,-0.207 -0.446,-0.768 -0.953,-0.367 -0.271,0.215 -0.587,0.318 -0.821,0.648 -0.471,0.663 -1.033,1.295 -1.668,1.801 -0.737,0.586 -1.583,0.39 -2.285,-0.136 -0.706,-0.528 -0.118,-1.102 0.179,-1.493 0.382,-0.504 0.983,-0.989 1.613,-0.994 0.917,-0.01 1.554,-0.628 2.379,-0.813 0.611,-0.138 0.218,-0.663 0.143,-0.998 -0.097,-0.437 -0.472,-0.315 -0.683,-0.15 -0.719,0.564 -1.648,0.357 -2.417,0.717 -0.434,0.203 -0.546,0.19 -0.722,-0.408 -0.226,-0.77 -0.533,-1.536 -0.685,-2.33 -0.144,-0.751 -0.706,-0.782 -1.19,-0.683 -0.663,0.136 -0.227,0.638 -0.132,0.953 0.594,1.967 1.279,3.929 -0.367,5.748 -0.04,0.043 -0.117,0.053 -0.175,0.077 -1.597,-2.125 -1.611,-2.203 -0.987,-4.707 0.113,-0.452 0.203,-0.91 0.306,-1.364 0.139,-0.616 -0.394,-0.454 -0.672,-0.578 -0.317,-0.142 -0.554,-0.109 -0.61,0.306 -0.036,0.249 -0.104,0.494 -0.163,0.74 -0.619,2.622 -0.615,2.605 -3.187,1.864 -0.438,-0.126 -1.081,-0.679 -1.362,0.173 -0.297,0.898 0.485,0.922 1.043,1.086 0.173,0.05 0.355,0.077 0.523,0.139 1.402,0.52 3.02,0.685 3.575,2.494 0.172,0.564 0.083,0.749 -0.423,0.771 -1.218,0.055 -2.427,0.129 -3.28,-1.069 -0.368,-0.516 -0.974,-0.856 -1.412,-1.331 -0.395,-0.428 -0.663,-0.396 -1.055,0.01 -0.411,0.422 -0.199,0.68 0.115,0.968 0.529,0.486 1.046,0.99 1.597,1.451 0.514,0.43 0.786,0.753 0.044,1.281 -0.575,0.411 -1.021,1.008 -1.507,1.538 -0.233,0.254 -0.734,0.425 -0.203,0.923 0.43,0.402 0.734,0.489 1.15,0.024 0.456,-0.509 0.935,-0.999 1.429,-1.47 0.756,-0.722 1.626,-1.156 2.718,-1.055 0.761,0.071 0.935,0.329 0.67,1.108 -0.515,1.515 -1.783,1.871 -3.076,2.143 -1.205,0.252 -2.039,0.687 -1.787,2.11 1.09,-0.722 2.388,-0.768 3.597,-1.107 0.228,-0.064 0.332,0.047 0.419,0.21 0.109,0.206 0.008,0.354 -0.183,0.411 -1.127,0.329 -2.257,0.655 -3.394,0.955 -0.24,0.064 -0.355,-0.187 -0.471,-0.363 -0.26,0.242 -0.487,0.539 -0.786,0.712 -0.432,0.249 -0.805,0.479 -0.565,1.053 0.243,0.579 0.701,0.328 1.106,0.262 0.194,-0.032 0.438,-0.219 0.538,0.098 0.092,0.294 -0.221,0.307 -0.375,0.425 -0.623,0.479 -1.401,0.544 -2.108,0.8 -0.363,0.131 -0.771,0.221 -0.553,0.821 0.166,0.456 0.221,0.838 0.848,0.513 0.296,-0.153 0.705,0.137 1.016,-0.166 0.146,-0.142 0.331,-0.338 0.539,-0.101 0.167,0.189 0.057,0.434 -0.023,0.61 -0.224,0.491 -0.483,0.967 -0.756,1.433 -0.216,0.368 -0.264,0.629 0.195,0.867 0.418,0.217 0.663,0.274 0.942,-0.224 0.391,-0.699 0.686,-1.474 1.285,-2.105 0.449,0.559 0.468,1.19 0.617,1.771 0.121,0.47 0.331,0.665 0.843,0.519 0.48,-0.137 0.628,-0.343 0.48,-0.849 -0.322,-1.106 -0.604,-2.225 -0.863,-3.346 -0.169,-0.734 -0.409,-1.248 -1.276,-0.751 -0.132,0.075 -0.278,0.118 -0.377,-0.027 -0.14,-0.204 0.003,-0.324 0.167,-0.419 0.279,-0.164 0.553,-0.335 0.838,-0.487 0.524,-0.28 0.914,-0.339 1.048,0.444 0.133,0.776 0.396,1.53 0.591,2.296 0.116,0.452 0.311,0.676 0.836,0.504 0.471,-0.154 0.641,-0.346 0.466,-0.859 -0.22,-0.646 -0.384,-1.315 -0.509,-1.986 -0.092,-0.491 -0.627,-1.258 -0.075,-1.429 0.639,-0.198 0.515,0.75 0.722,1.185 0.189,0.396 0.295,0.735 0.827,0.509 0.452,-0.191 0.778,-0.365 0.524,-0.999 -0.313,-0.781 -0.493,-1.617 -0.714,-2.434 -0.12,-0.444 -0.305,-0.875 -0.014,-1.35 0.39,-0.635 0.718,-1.306 1.072,-1.961 0.243,0.248 0.485,0.496 0.729,0.743 0.085,0.14 0.171,0.281 0.257,0.421 0.094,0.479 0.422,0.831 0.667,1.23 -0.446,1.114 -0.278,2.401 -1.048,3.453 -0.273,0.374 0.208,0.682 0.627,0.78 0.355,0.083 0.766,0.374 0.892,-0.309 0.17,-0.914 0.39,-1.819 0.594,-2.727 0.062,-0.276 0.092,-0.598 0.53,-0.354 0.831,0.463 1.832,0.265 2.684,0.67 0.37,0.176 0.669,0.177 0.776,-0.359 0.096,-0.472 0.151,-0.802 -0.465,-0.939 -1.122,-0.25 -2.228,-0.569 -3.339,-0.859 -0.501,-0.875 -1.208,-1.64 -1.433,-2.663 2.204,-0.417 3.774,0.618 5.098,2.226 0.067,0.082 0.188,0.124 0.246,0.209 0.318,0.459 0.623,0.343 0.978,0.03 0.413,-0.364 0.311,-0.656 -0.044,-0.979 -0.612,-0.558 -1.178,-1.173 -1.827,-1.682 -0.449,-0.353 -0.39,-0.6 -0.047,-0.935 0.618,-0.604 1.232,-1.213 1.842,-1.826 0.196,-0.193 0.517,-0.405 0.147,-0.689 z" />
        </g>
      </g>
      <g
         style="opacity:0.6"
         id="g2859">
        <g
           id="g2861">
          <path
             style="fill:#1c4781"
             inkscape:connector-curvature="0"
             id="path2863"
             d="m 70.174,1350 c -0.475,-0.139 -0.719,-0.083 -0.829,0.458 -0.256,1.257 -0.563,2.504 -0.854,3.754 -0.104,0.445 -0.217,0.769 0.489,0.887 0.628,0.105 0.746,-0.094 0.833,-0.593 0.105,-0.592 0.257,-1.175 0.457,-2.071 0.532,0.884 0.855,1.534 1.29,2.099 0.223,0.289 0.201,1.055 1.033,0.583 0.797,-0.451 0.372,-0.797 0.135,-1.255 -0.275,-0.533 -0.992,-1.092 -0.75,-1.57 0.264,-0.521 1.02,0.058 1.568,0.067 0.561,0.01 0.721,-0.059 0.845,-0.585 0.13,-0.551 -0.095,-0.677 -0.554,-0.789 -1.228,-0.302 -2.449,-0.631 -3.663,-0.985 z" />
        </g>
        <g
           id="g2865">
          <path
             style="fill:#1c4781"
             inkscape:connector-curvature="0"
             id="path2867"
             d="m 59.171,1333.62 c 0.602,0.188 0.732,-0.056 0.835,-0.577 0.235,-1.18 0.482,-2.364 0.822,-3.517 0.161,-0.546 0.177,-0.799 -0.439,-1.002 -0.709,-0.233 -0.779,0.157 -0.871,0.655 -0.104,0.557 -0.24,1.107 -0.362,1.661 -0.089,0.015 -0.178,0.03 -0.267,0.044 -0.405,-0.675 -0.836,-1.337 -1.209,-2.029 -0.268,-0.497 -0.564,-0.563 -1.042,-0.287 -0.529,0.308 -0.299,0.643 -0.103,0.995 0.141,0.251 0.299,0.495 0.434,0.75 0.209,0.396 0.777,0.843 0.438,1.214 -0.339,0.371 -0.918,-0.09 -1.393,-0.185 -0.033,-0.01 -0.063,-0.033 -0.09,-0.055 -0.393,-0.325 -0.71,-0.345 -0.882,0.219 -0.153,0.5 -0.304,0.938 0.477,1.111 1.231,0.275 2.447,0.627 3.652,1.003 z" />
        </g>
        <g
           id="g2869">
          <path
             style="fill:#1c4781"
             inkscape:connector-curvature="0"
             id="path2871"
             d="m 79.313,1340.879 c -0.807,0.044 -1.618,0.025 -2.628,0.037 0.583,-0.597 0.993,-1.031 1.418,-1.447 0.324,-0.317 0.611,-0.549 0.135,-1.041 -0.46,-0.478 -0.76,-0.245 -1.076,0.059 -0.909,0.872 -1.8,1.761 -2.686,2.656 -0.256,0.259 -0.464,0.492 -0.027,0.866 1.011,0.865 1.973,1.789 2.927,2.719 0.373,0.363 0.618,0.351 0.967,-0.03 0.359,-0.392 0.303,-0.674 -0.067,-0.983 -0.303,-0.254 -0.599,-0.518 -0.889,-0.788 -0.128,-0.12 -0.307,-0.275 -0.191,-0.45 0.083,-0.126 0.359,-0.279 0.431,-0.233 0.609,0.382 1.166,-0.178 1.744,-0.062 0.552,0.109 0.863,-0.229 0.866,-0.657 0.004,-0.506 -0.409,-0.674 -0.924,-0.646 z" />
        </g>
        <g
           id="g2873">
          <path
             style="fill:#1c4781"
             inkscape:connector-curvature="0"
             id="path2875"
             d="m 49.66,1342.721 c 0.417,0.063 0.803,0.065 1.224,0 0.351,-0.058 0.787,-0.187 1.074,0.094 0.119,0.315 0.12,0.545 -0.113,0.744 -0.247,0.209 -0.455,0.466 -0.706,0.669 -0.402,0.323 -0.409,0.575 -0.016,0.95 0.386,0.37 0.626,0.329 0.972,-0.027 0.905,-0.926 1.836,-1.828 2.763,-2.733 0.259,-0.252 0.439,-0.495 0.092,-0.809 -1.037,-0.94 -2.085,-1.868 -3.103,-2.828 -0.438,-0.412 -0.6,-0.02 -0.867,0.197 -0.342,0.276 -0.287,0.5 -0.025,0.802 0.426,0.492 1.465,0.884 1.174,1.44 -0.248,0.475 -1.329,0.129 -2.039,0.196 -0.107,0.01 -0.217,0.012 -0.324,10e-4 -0.354,-0.034 -0.576,0.092 -0.524,0.476 0.04,0.315 -0.163,0.744 0.418,0.831 z" />
        </g>
        <g
           id="g2877">
          <path
             style="fill:#1c4781"
             inkscape:connector-curvature="0"
             id="path2879"
             d="m 70.158,1333.423 c 1.021,-0.435 2.027,-0.804 3.145,-0.931 0.333,-0.038 0.947,-0.295 0.714,-1.054 -0.22,-0.715 -0.539,-0.594 -1.023,-0.364 -0.286,0.135 -0.608,0.206 -0.921,0.272 -0.199,0.042 -0.545,0.096 -0.588,0.015 -0.104,-0.191 -0.143,-0.436 0.036,-0.689 0.329,-0.467 0.567,-0.997 0.883,-1.474 0.314,-0.476 0.069,-0.686 -0.31,-0.932 -0.431,-0.281 -0.625,-0.115 -0.831,0.273 -0.4,0.763 -0.836,1.505 -1.347,2.416 -0.21,-0.73 -0.338,-1.286 -0.534,-1.818 -0.129,-0.356 0.067,-1.008 -0.79,-0.78 -0.748,0.2 -0.653,0.587 -0.508,1.11 0.313,1.128 0.665,2.25 0.896,3.394 0.166,0.807 0.768,0.736 1.178,0.562 z" />
        </g>
        <g
           id="g2881">
          <path
             style="fill:#1c4781"
             inkscape:connector-curvature="0"
             id="path2883"
             d="m 68.173,1336.19 c 1.204,-0.496 2.455,-0.851 3.734,-1.088 0.935,-0.174 0.731,-0.769 0.536,-1.44 -0.104,-0.254 -0.335,-0.209 -0.597,-0.122 -0.648,0.216 -1.318,0.377 -1.946,0.638 -0.85,0.352 -1.394,0.314 -1.528,-0.775 -0.083,-0.673 -0.325,-1.325 -0.492,-1.986 -0.11,-0.437 -0.301,-0.571 -0.771,-0.376 -0.339,0.141 -0.711,0.087 -0.551,0.653 0.392,1.382 0.74,2.776 1.114,4.164 0.064,0.24 0.116,0.492 0.501,0.332 z" />
        </g>
        <g
           id="g2885">
          <path
             style="fill:#1c4781"
             inkscape:connector-curvature="0"
             id="path2887"
             d="m 60.845,1336.163 c 0.213,0.056 0.501,0.28 0.599,-0.139 0.342,-1.475 0.674,-2.952 1.005,-4.431 0.015,-0.065 -0.011,-0.14 -0.02,-0.23 -0.229,-0.251 -0.567,-0.268 -0.875,-0.332 -0.363,-0.075 -0.388,0.233 -0.442,0.475 -0.193,0.843 -0.404,1.685 -0.563,2.535 -0.092,0.487 -0.306,0.769 -0.77,0.476 -0.758,-0.479 -1.656,-0.352 -2.442,-0.661 -0.485,-0.191 -0.732,-0.077 -0.839,0.438 -0.092,0.442 -0.07,0.716 0.477,0.844 1.299,0.303 2.58,0.684 3.87,1.025 z" />
        </g>
        <g
           id="g2889">
          <path
             style="fill:#1c4781"
             inkscape:connector-curvature="0"
             id="path2891"
             d="m 55.796,1341.436 c 0.528,0.419 0.442,0.694 -0.006,1.093 -0.618,0.551 -1.181,1.162 -1.77,1.746 -0.208,0.205 -0.496,0.415 -0.079,0.668 0.288,0.175 0.448,0.781 1.207,0.1 0.783,-0.773 1.808,-1.784 2.829,-2.799 0.362,-0.359 0.047,-0.553 -0.194,-0.774 -0.951,-0.873 -1.899,-1.747 -2.838,-2.632 -0.348,-0.329 -0.634,-0.486 -1.072,-0.08 -0.542,0.504 -0.06,0.783 0.195,1.053 0.542,0.574 1.111,1.135 1.728,1.625 z" />
        </g>
        <g
           id="g2893">
          <path
             style="fill:#1c4781"
             inkscape:connector-curvature="0"
             id="path2895"
             d="m 73.646,1342.276 c -0.485,-0.442 -0.576,-0.821 0.018,-1.302 0.582,-0.471 1.057,-1.073 1.598,-1.599 0.309,-0.3 0.401,-0.505 0.018,-0.864 -0.365,-0.342 -0.62,-0.425 -0.983,-0.056 -0.957,0.973 -1.908,1.952 -2.894,2.894 -0.351,0.335 -0.215,0.469 0.075,0.726 1.019,0.906 2.026,1.828 2.995,2.787 0.283,0.279 0.602,0.372 0.759,0.101 0.152,-0.264 0.725,-0.547 0.241,-1.011 -0.61,-0.559 -1.217,-1.119 -1.827,-1.676 z" />
        </g>
        <g
           id="g2897">
          <path
             style="fill:#1c4781"
             inkscape:connector-curvature="0"
             id="path2899"
             d="m 68.604,1347.424 c -0.496,-0.18 -0.64,-0.194 -0.75,0.324 -0.281,1.336 -0.601,2.666 -0.89,4 -0.045,0.209 -0.27,0.485 0.12,0.629 0.299,0.11 0.598,0.229 0.755,0.288 0.413,-0.236 0.352,-0.478 0.398,-0.678 0.179,-0.772 0.416,-1.538 0.516,-2.32 0.092,-0.72 0.385,-0.77 0.987,-0.563 0.781,0.269 1.6,0.428 2.388,0.675 0.418,0.13 0.621,0.037 0.654,-0.402 0.025,-0.338 0.371,-0.708 -0.34,-0.862 -1.298,-0.278 -2.589,-0.639 -3.838,-1.091 z" />
        </g>
        <g
           id="g2901">
          <path
             style="fill:#1c4781"
             inkscape:connector-curvature="0"
             id="path2903"
             d="m 72.427,1338.721 c -0.271,-0.208 -0.446,-0.769 -0.953,-0.368 -0.271,0.215 -0.586,0.318 -0.821,0.649 -0.471,0.663 -1.033,1.294 -1.668,1.8 -0.737,0.586 -1.583,0.39 -2.285,-0.136 -0.706,-0.528 -0.118,-1.102 0.179,-1.493 0.382,-0.504 0.983,-0.99 1.612,-0.995 0.917,-0.01 1.555,-0.628 2.379,-0.813 0.611,-0.138 0.218,-0.662 0.143,-0.997 -0.096,-0.437 -0.471,-0.316 -0.682,-0.15 -0.719,0.564 -1.649,0.356 -2.417,0.717 -0.434,0.203 -0.546,0.19 -0.722,-0.408 -0.226,-0.771 -0.533,-1.536 -0.685,-2.33 -0.144,-0.751 -0.706,-0.782 -1.19,-0.683 -0.663,0.136 -0.227,0.638 -0.132,0.953 0.594,1.967 1.278,3.929 -0.367,5.748 -0.04,0.043 -0.117,0.053 -0.176,0.078 -1.596,-2.125 -1.611,-2.203 -0.986,-4.708 0.113,-0.452 0.203,-0.91 0.306,-1.364 0.139,-0.616 -0.394,-0.454 -0.672,-0.578 -0.317,-0.142 -0.553,-0.11 -0.61,0.306 -0.035,0.249 -0.104,0.493 -0.162,0.74 -0.619,2.622 -0.615,2.605 -3.188,1.865 -0.438,-0.126 -1.08,-0.68 -1.361,0.173 -0.297,0.898 0.485,0.922 1.043,1.086 0.173,0.05 0.355,0.077 0.522,0.139 1.403,0.52 3.02,0.685 3.575,2.494 0.172,0.564 0.083,0.749 -0.423,0.771 -1.219,0.055 -2.427,0.129 -3.28,-1.069 -0.369,-0.516 -0.974,-0.856 -1.413,-1.331 -0.395,-0.427 -0.662,-0.396 -1.054,0.01 -0.411,0.422 -0.199,0.68 0.115,0.968 0.53,0.486 1.046,0.99 1.597,1.451 0.514,0.43 0.785,0.753 0.044,1.282 -0.575,0.411 -1.021,1.008 -1.507,1.537 -0.233,0.255 -0.734,0.426 -0.203,0.923 0.43,0.402 0.734,0.489 1.149,0.024 0.456,-0.51 0.935,-0.999 1.43,-1.471 0.756,-0.722 1.626,-1.156 2.717,-1.055 0.761,0.071 0.936,0.329 0.67,1.108 -0.515,1.515 -1.783,1.872 -3.076,2.143 -1.205,0.252 -2.039,0.686 -1.787,2.109 1.09,-0.722 2.388,-0.768 3.596,-1.107 0.228,-0.064 0.333,0.047 0.419,0.21 0.11,0.206 0.008,0.354 -0.183,0.411 -1.128,0.329 -2.257,0.656 -3.394,0.956 -0.241,0.063 -0.355,-0.187 -0.471,-0.363 -0.26,0.242 -0.487,0.539 -0.786,0.712 -0.433,0.249 -0.805,0.479 -0.565,1.053 0.243,0.579 0.701,0.328 1.106,0.262 0.194,-0.031 0.438,-0.219 0.538,0.098 0.093,0.295 -0.221,0.307 -0.375,0.425 -0.623,0.479 -1.401,0.544 -2.108,0.801 -0.363,0.131 -0.771,0.221 -0.552,0.821 0.166,0.456 0.221,0.838 0.848,0.513 0.296,-0.152 0.704,0.137 1.016,-0.166 0.146,-0.142 0.331,-0.338 0.539,-0.101 0.167,0.189 0.058,0.434 -0.023,0.61 -0.224,0.49 -0.483,0.967 -0.756,1.433 -0.216,0.367 -0.264,0.629 0.195,0.866 0.418,0.217 0.663,0.274 0.942,-0.224 0.391,-0.7 0.686,-1.474 1.285,-2.105 0.449,0.56 0.468,1.19 0.617,1.771 0.122,0.47 0.331,0.665 0.843,0.519 0.48,-0.137 0.628,-0.343 0.48,-0.849 -0.323,-1.106 -0.604,-2.224 -0.864,-3.345 -0.169,-0.734 -0.409,-1.248 -1.276,-0.751 -0.132,0.075 -0.278,0.119 -0.378,-0.027 -0.14,-0.204 0.003,-0.323 0.167,-0.419 0.279,-0.164 0.553,-0.335 0.838,-0.487 0.524,-0.28 0.914,-0.338 1.048,0.445 0.132,0.776 0.396,1.53 0.591,2.296 0.116,0.452 0.311,0.677 0.836,0.504 0.471,-0.154 0.641,-0.346 0.466,-0.858 -0.22,-0.646 -0.385,-1.315 -0.509,-1.987 -0.092,-0.491 -0.627,-1.258 -0.075,-1.429 0.638,-0.198 0.515,0.75 0.722,1.185 0.189,0.396 0.295,0.735 0.826,0.509 0.452,-0.191 0.779,-0.365 0.525,-0.999 -0.313,-0.781 -0.493,-1.617 -0.714,-2.434 -0.12,-0.444 -0.306,-0.875 -0.014,-1.35 0.39,-0.635 0.718,-1.306 1.072,-1.961 0.243,0.249 0.485,0.496 0.729,0.744 0.085,0.14 0.171,0.281 0.257,0.42 0.093,0.479 0.422,0.831 0.667,1.23 -0.447,1.115 -0.279,2.401 -1.048,3.453 -0.273,0.374 0.208,0.682 0.626,0.78 0.355,0.083 0.766,0.373 0.892,-0.309 0.17,-0.914 0.39,-1.819 0.594,-2.727 0.062,-0.276 0.092,-0.598 0.531,-0.354 0.83,0.463 1.832,0.265 2.683,0.67 0.37,0.176 0.669,0.177 0.777,-0.359 0.096,-0.472 0.151,-0.802 -0.465,-0.939 -1.122,-0.249 -2.228,-0.569 -3.339,-0.859 -0.501,-0.875 -1.207,-1.64 -1.432,-2.663 2.204,-0.418 3.774,0.618 5.097,2.226 0.067,0.082 0.188,0.123 0.246,0.208 0.318,0.46 0.623,0.343 0.978,0.03 0.413,-0.364 0.31,-0.657 -0.044,-0.979 -0.612,-0.558 -1.178,-1.173 -1.828,-1.682 -0.449,-0.352 -0.39,-0.599 -0.046,-0.935 0.618,-0.604 1.232,-1.213 1.842,-1.826 0.199,-0.193 0.52,-0.406 0.15,-0.689 z" />
        </g>
      </g>
      <g
         style="opacity:0.8"
         id="g2905">
        <g
           id="g2907">
          <path
             style="fill:#1c4781"
             inkscape:connector-curvature="0"
             id="path2909"
             d="m 47.326,982.692 -0.462,-1.797 c -0.127,-0.496 0.337,-1.045 1.036,-1.224 l 13.405,-3.442 c 0.7,-0.18 1.371,0.077 1.499,0.573 l 0.461,1.797 c 0.127,0.497 -0.336,1.046 -1.037,1.226 l -13.405,3.442 c -0.699,0.179 -1.37,-0.079 -1.497,-0.575 z" />
        </g>
        <g
           id="g2911">
          <path
             style="fill:#1c4781"
             inkscape:connector-curvature="0"
             id="path2913"
             d="m 54.924,976.834 -0.829,0.212 c -0.649,0.167 -1.312,-0.224 -1.479,-0.874 l -0.568,-2.211 c -0.167,-0.649 0.226,-1.312 0.875,-1.479 l 0.829,-0.212 c 0.649,-0.167 1.312,0.225 1.478,0.874 l 0.568,2.211 c 0.167,0.651 -0.225,1.312 -0.874,1.479 z" />
        </g>
        <g
           id="g2915">
          <rect
             style="fill:#1c4781"
             id="rect2917"
             height="32.699001"
             width="2.7130001"
             transform="matrix(-0.2486,-0.9686,0.9686,-0.2486,-931.1047,1294.8225)"
             y="992.22101"
             x="35.330002" />
        </g>
        <g
           id="g2919">
          <path
             style="fill:#1c4781"
             inkscape:connector-curvature="0"
             id="path2921"
             d="m 66.938,1036.819 -3.204,0.822 -0.333,-1.298 3.239,-0.832 0.348,1.294 -0.05,0.014 z m -6.451,1.657 -3.896,1 -0.333,-1.299 3.896,-1 0.333,1.299 z m -7.142,1.834 -3.246,0.833 -0.333,-1.298 3.246,-0.833 0.333,1.298 z m -7.141,1.834 -3.246,0.833 -0.333,-1.298 3.246,-0.833 0.333,1.298 z m -6.493,1.667 -2.646,0.68 c -0.492,0.126 -0.995,0.17 -1.497,0.132 l 0.102,-1.336 c 0.355,0.027 0.712,0 1.062,-0.094 l 2.646,-0.679 0.333,1.297 z m 30.5,-10.147 -1.285,-0.383 c 0.169,-0.566 0.18,-1.17 0.033,-1.745 l -0.106,-0.413 c -0.055,-0.214 -0.131,-0.422 -0.227,-0.618 l 1.206,-0.586 c 0.134,0.277 0.242,0.57 0.319,0.871 l 0.106,0.413 c 0.209,0.81 0.193,1.661 -0.046,2.461 z m -37.979,9.133 c -0.368,-0.487 -0.632,-1.035 -0.785,-1.629 l -0.106,-0.413 c -0.134,-0.521 -0.176,-1.056 -0.124,-1.589 l 1.334,0.129 c -0.037,0.377 -0.007,0.756 0.088,1.126 l 0.106,0.414 c 0.108,0.422 0.295,0.81 0.556,1.155 l -1.069,0.807 z m 35.433,-15.099 -1.298,0.333 -0.756,-2.944 2.25,-0.578 0.333,1.298 -0.952,0.245 0.423,1.646 z m -33.193,8.087 -1.298,0.333 -0.833,-3.246 1.298,-0.333 0.833,3.246 z m 37.679,-10.993 -0.711,0.183 -0.167,-0.649 -0.587,0.151 -0.817,-3.184 1.298,-0.333 0.984,3.832 z m -39.347,4.5 -1.298,0.333 -0.08,-0.313 c -0.917,-0.592 -1.795,-1.25 -2.614,-1.957 l 0.877,-1.014 c 0.834,0.721 1.735,1.388 2.677,1.981 l 0.226,0.142 0.212,0.828 z m 37.363,-12.229 -1.298,0.333 -0.753,-2.932 0.041,-0.165 c 0.038,-0.154 0.075,-0.309 0.109,-0.464 l 1.309,0.291 c -0.024,0.11 -0.05,0.221 -0.077,0.331 l 0.669,2.606 z m -43.788,7.848 c -0.748,-0.875 -1.433,-1.813 -2.034,-2.788 l 1.141,-0.704 c 0.565,0.916 1.209,1.798 1.913,2.622 l -1.02,0.87 z m 43.686,-14.201 -1.338,-0.086 c 0.083,-1.293 0.044,-2.601 -0.117,-3.888 l 1.331,-0.167 c 0.171,1.372 0.213,2.764 0.124,4.141 z m -47.607,9.816 -2.071,0.532 -0.635,-2.474 1.298,-0.333 0.302,1.175 0.773,-0.199 0.333,1.299 z m 49.624,-15.519 -1.298,0.333 -0.834,-3.247 1.299,-0.333 0.833,3.247 z m -52.482,11.04 -1.299,0.333 -1,-3.896 1.298,-0.333 1.001,3.896 z m 50.648,-18.182 -1.298,0.333 -0.833,-3.246 1.298,-0.333 0.833,3.246 z m -21.443,4.066 -3.246,0.834 -0.333,-1.298 3.247,-0.834 0.332,1.298 z m -7.141,1.834 -3.246,0.834 -0.333,-1.299 3.246,-0.833 0.333,1.298 z m -6.493,1.667 -3.896,1 -0.333,-1.299 3.896,-1 0.333,1.299 z m -7.142,1.834 -3.246,0.833 -0.333,-1.298 3.246,-0.833 0.333,1.298 z m -7.141,1.834 -3.246,0.833 -0.333,-1.298 3.246,-0.833 0.333,1.298 z m 29.758,-9.935 -1.299,0.333 -1,-3.896 1.299,-0.333 1,3.896 z m 17.935,-7.792 -1.298,0.333 -1,-3.896 1.298,-0.333 1,3.896 z m -19.768,0.65 -1.299,0.333 -0.833,-3.246 1.298,-0.333 0.834,3.246 z m 17.934,-7.792 -1.299,0.333 -0.833,-3.246 1.298,-0.333 0.834,3.246 z m -21.158,1.608 c -0.78,-0.575 -1.318,-1.371 -1.557,-2.301 l -0.243,-0.945 1.299,-0.333 0.243,0.945 c 0.161,0.628 0.526,1.166 1.054,1.556 l -0.796,1.078 z m 20.823,-8.66 -1.298,0.333 -0.314,-1.224 c -0.141,-0.549 -0.442,-1.037 -0.871,-1.41 l 0.88,-1.011 c 0.635,0.552 1.081,1.274 1.29,2.087 l 0.313,1.225 z m -21.335,2.286 -1.203,-0.593 c 0.604,-1.222 1.762,-2.131 3.18,-2.495 l 0.416,-0.107 0.333,1.298 -0.416,0.107 c -1.038,0.267 -1.881,0.92 -2.31,1.79 z m 16.242,-5.331 c -0.176,0.021 -0.353,0.054 -0.526,0.099 l -2.961,0.76 -0.573,-2.232 1.298,-0.333 0.24,0.934 1.663,-0.427 c 0.231,-0.059 0.468,-0.104 0.703,-0.131 l 0.156,1.33 z m -11.093,1.013 -1.298,0.333 -0.173,-0.673 c -0.259,-1.008 -0.167,-2.087 0.262,-3.038 l 1.222,0.55 c -0.308,0.684 -0.372,1.429 -0.186,2.154 l 0.173,0.674 z m 5.406,-4.566 c -0.734,-0.404 -1.583,-0.513 -2.393,-0.305 l -0.362,0.093 -0.333,-1.298 0.362,-0.093 c 1.142,-0.293 2.34,-0.141 3.374,0.429 l -0.648,1.174 z" />
        </g>
        <g
           id="g2923">
          <path
             style="fill:#1c4781"
             inkscape:connector-curvature="0"
             id="path2925"
             d="m 24.792,1014.057 -2.526,0.648 0.568,2.212 2.525,-0.648 c 1.525,4.726 4.81,8.497 9.014,10.852 l 2.794,10.883 -1.659,0.426 c -0.649,0.167 -1.041,0.829 -0.874,1.479 l 0.106,0.413 c 0.167,0.649 0.829,1.041 1.478,0.875 l 29.873,-7.671 c 0.649,-0.167 1.04,-0.828 0.873,-1.478 l -0.106,-0.413 c -0.167,-0.65 -0.828,-1.042 -1.477,-0.875 l -0.414,0.106 -1.865,-7.26 4.91,-1.261 -1.438,-5.602 -1.573,0.404 c 1.729,-3.859 2.219,-8.22 1.114,-12.522 l 2.212,-0.568 -6.028,-23.472 -13.413,3.444 5.743,22.366 -26.416,6.783 -3.421,0.879 z m 31.775,-10.592 -4.493,-17.495 1.556,-0.4 4.493,17.495 -1.556,0.4 z m -0.688,14.115 c 2.44,-3.539 3.434,-8.048 2.393,-12.541 0.034,0.123 0.072,0.242 0.103,0.365 1.211,4.716 0.265,9.479 -2.221,13.245 l -0.275,-1.069 z m -28.716,-1.405 1.624,-0.417 c 2.201,4.342 6.273,7.371 10.924,8.327 l 0.479,1.864 c -5.662,-0.742 -10.675,-4.394 -13.027,-9.774 z" />
        </g>
      </g>
      <g
         style="opacity:0.6"
         id="g2927">
        <g
           id="g2929">
          <g
             id="g2931">
            <path
               style="fill:#1c4781"
               inkscape:connector-curvature="0"
               id="path2933"
               d="m 143.419,880.189 -56.842,39.898 c -0.574,0.403 -0.713,1.194 -0.312,1.766 l 1.112,1.584 c 0.402,0.573 1.193,0.71 1.767,0.307 l 56.842,-39.899 c 0.574,-0.403 0.714,-1.193 0.312,-1.766 l -1.112,-1.584 c -0.401,-0.571 -1.192,-0.709 -1.767,-0.306 z" />
          </g>
          <g
             id="g2935">
            <path
               style="fill:#1c4781"
               inkscape:connector-curvature="0"
               id="path2937"
               d="m 145.38,885.612 -54.369,38.163 c -0.629,0.442 -0.882,1.167 -0.564,1.62 l 3.212,4.577 c 0.053,0.075 0.121,0.133 0.195,0.184 0.149,0.271 0.315,0.544 0.509,0.82 3.021,4.304 9.164,5.782 16.557,4.679 l -0.593,0.407 c -0.634,0.437 -0.959,1.475 -0.725,2.319 l 0.272,0.986 -1.203,0.844 c -0.625,0.439 -0.777,1.301 -0.338,1.926 l 0.933,1.329 c 0.438,0.625 1.3,0.775 1.926,0.336 l 1.661,-1.166 c 0.471,-0.331 0.672,-0.904 0.552,-1.434 0.517,-0.492 0.765,-1.41 0.554,-2.174 l -0.846,-3.058 c -0.074,-0.267 -0.198,-0.477 -0.35,-0.634 6.41,-1.289 13.607,-4.411 20.465,-9.225 6.511,-4.57 11.685,-9.944 15.094,-15.261 0.075,0.079 0.158,0.155 0.257,0.225 l 2.588,1.835 c 0.646,0.458 1.594,0.537 2.232,0.218 0.458,0.292 1.065,0.299 1.537,-0.033 l 1.661,-1.166 c 0.625,-0.438 0.775,-1.301 0.337,-1.925 l -0.933,-1.329 c -0.439,-0.625 -1.3,-0.775 -1.925,-0.337 l -1.203,0.845 -0.835,-0.591 c -0.658,-0.467 -1.626,-0.539 -2.265,-0.198 3.559,-6.585 4.262,-12.873 1.237,-17.182 -0.194,-0.276 -0.394,-0.527 -0.599,-0.761 -0.022,-0.085 -0.054,-0.168 -0.105,-0.242 l -3.212,-4.577 c -0.317,-0.453 -1.085,-0.462 -1.714,-0.02 z m -14.796,37.612 c -9.928,6.969 -20.811,9.894 -28.788,8.479 7.413,0.049 16.465,-2.958 24.833,-8.831 10.3,-7.23 16.861,-16.908 17.895,-25.088 l 4.066,-2.854 c 0.554,8.739 -6.321,20.092 -18.006,28.294 z" />
          </g>
        </g>
        <g
           id="g2939">
          <path
             style="fill:#1c4781"
             inkscape:connector-curvature="0"
             id="path2941"
             d="m 160.055,914.413 -0.719,0.505 c -0.806,0.565 -1.815,0.731 -2.75,0.462 -0.232,0.052 -0.471,0.083 -0.715,0.094 l -0.072,-1.614 c 0.204,-0.009 0.401,-0.042 0.585,-0.096 l 0.263,-0.078 0.256,0.098 c 0.501,0.191 1.064,0.121 1.505,-0.189 l 0.719,-0.505 0.928,1.323 z m -46.459,32.487 -1.227,-1.051 c 0.256,-0.299 0.394,-0.682 0.386,-1.077 l -0.005,-0.275 0.164,-0.221 c 0.455,-0.614 0.615,-1.49 0.41,-2.233 l 1.551,-0.454 c 0.32,1.158 0.122,2.439 -0.51,3.428 -0.047,0.692 -0.315,1.353 -0.769,1.883 z m -3.902,2.392 c -1.188,0.142 -2.35,-0.376 -3.035,-1.353 l -0.816,-1.162 1.323,-0.929 0.815,1.162 c 0.343,0.488 0.926,0.748 1.522,0.677 l 0.191,1.605 z m 24.454,-19.162 c -1.356,0.91 -2.756,1.781 -4.16,2.591 l -0.807,-1.4 c 1.373,-0.792 2.741,-1.644 4.067,-2.533 l 0.9,1.342 z m 3.329,-2.367 -0.972,-1.291 c 1.069,-0.805 2.12,-1.644 3.123,-2.492 l 1.043,1.234 c -1.027,0.868 -2.102,1.725 -3.194,2.549 z m -11.085,6.896 c -1.229,0.617 -2.477,1.195 -3.709,1.72 l -0.633,-1.487 c 1.201,-0.511 2.418,-1.076 3.617,-1.677 l 0.725,1.444 z m 35.784,-25.167 -1.432,0.748 c -0.033,-0.063 -0.07,-0.125 -0.112,-0.185 l -1.027,-1.463 c -0.251,-0.358 -0.628,-0.595 -1.062,-0.667 l 0.263,-1.594 c 0.865,0.143 1.619,0.616 2.121,1.332 l 1.027,1.462 c 0.082,0.119 0.156,0.242 0.222,0.367 z m -17.873,12.425 -1.129,-1.156 c 0.961,-0.938 1.891,-1.906 2.763,-2.875 l 1.201,1.081 c -0.895,0.995 -1.849,1.988 -2.835,2.95 z M 118.09,938.12 c -1.326,0.44 -2.652,0.823 -3.941,1.14 l -0.386,-1.569 c 1.248,-0.307 2.532,-0.678 3.818,-1.104 l 0.509,1.533 z m 31.681,-22.291 -1.274,-0.993 c 0.752,-0.965 1.466,-1.95 2.122,-2.929 l 0.462,-0.688 1.633,1.158 -0.934,1.318 -0.286,-0.203 c -0.546,0.783 -1.123,1.567 -1.723,2.337 z m -41.151,26.572 -0.725,0.508 -0.528,-0.753 -0.457,0.126 -0.13,-0.469 c -0.124,-0.45 -0.169,-0.926 -0.137,-1.402 -0.031,0.002 -0.063,0.003 -0.094,0.005 l -0.085,-1.613 c 0.365,-0.02 0.734,-0.045 1.108,-0.077 l 1.244,-0.107 -0.412,1.178 c -0.182,0.521 -0.205,1.083 -0.067,1.585 l 0.283,1.019 z m 46.149,-34.172 c -0.205,-0.086 -0.423,-0.148 -0.649,-0.184 l -1.079,-0.168 0.477,-0.982 c 0.586,-1.208 1.087,-2.412 1.486,-3.576 l 1.528,0.525 c -0.325,0.946 -0.711,1.914 -1.154,2.89 0.007,0.002 0.014,0.005 0.021,0.008 l -0.63,1.487 z M 102.4,940.358 c -1.772,-0.156 -3.43,-0.488 -4.926,-0.988 l 0.511,-1.533 c 1.377,0.46 2.91,0.766 4.557,0.911 l -0.142,1.61 z m 55.173,-40.549 -1.593,-0.269 c 0.225,-1.335 0.305,-2.628 0.236,-3.843 l 1.613,-0.091 c 0.075,1.335 -0.011,2.748 -0.256,4.203 z m -63.917,37.706 c -1.211,-0.817 -2.26,-1.804 -3.119,-2.934 l 1.287,-0.978 c 0.752,0.989 1.672,1.855 2.736,2.573 l -0.904,1.339 z m 63.015,-46.883 -1.479,0.652 c -0.297,-0.673 -0.661,-1.32 -1.083,-1.92 -0.175,-0.25 -0.356,-0.483 -0.552,-0.714 l -0.088,-0.103 -0.049,-0.126 c -0.023,-0.059 -0.051,-0.112 -0.085,-0.161 l -0.183,-0.26 1.323,-0.929 0.182,0.259 c 0.081,0.115 0.151,0.237 0.211,0.366 0.199,0.239 0.384,0.481 0.564,0.738 0.482,0.689 0.899,1.427 1.239,2.198 z m -67.618,39.037 -1.323,0.928 -1.793,-2.555 c -0.256,-0.365 -0.413,-0.796 -0.453,-1.246 l 1.609,-0.143 c 0.015,0.17 0.071,0.325 0.166,0.46 l 1.794,2.556 z m 63.101,-45.904 -1.323,0.928 -1.035,-1.475 c -0.215,-0.307 -0.544,-0.396 -0.782,-0.418 l -2.075,-0.187 1.658,-1.261 c 0.249,-0.189 0.429,-0.447 0.522,-0.746 l 1.543,0.479 c -0.059,0.189 -0.134,0.37 -0.226,0.541 0.265,0.175 0.495,0.397 0.682,0.663 l 1.036,1.476 z m -69.442,42.326 c -0.054,-0.064 -0.105,-0.132 -0.154,-0.202 l -1.224,-1.744 c -0.674,-0.959 -0.75,-2.202 -0.201,-3.241 l 1.428,0.755 c -0.265,0.501 -0.229,1.098 0.095,1.558 l 1.225,1.744 c 0.023,0.033 0.047,0.064 0.072,0.095 l -1.241,1.035 z m 66.415,-49.299 -1.323,0.928 -0.109,-0.156 c -0.473,-0.674 -1.407,-0.836 -2.083,-0.362 l -3.967,2.785 -0.929,-1.322 3.968,-2.785 c 1.405,-0.986 3.348,-0.647 4.333,0.756 l 0.11,0.156 z m -10.788,5.516 -3.306,2.321 -0.928,-1.322 3.306,-2.321 0.928,1.322 z m -7.274,5.106 -3.306,2.321 -0.928,-1.322 3.306,-2.321 0.928,1.322 z m -6.612,4.641 -3.968,2.785 -0.928,-1.322 3.968,-2.785 0.928,1.322 z m -7.274,5.106 -3.306,2.321 -0.928,-1.323 3.306,-2.32 0.928,1.322 z m -7.273,5.105 -3.306,2.321 -0.928,-1.322 3.306,-2.321 0.928,1.322 z m -6.613,4.642 -3.968,2.785 -0.928,-1.322 3.968,-2.785 0.928,1.322 z m -7.273,5.105 -3.306,2.321 -0.928,-1.323 3.306,-2.321 0.928,1.323 z m -7.274,5.106 -3.306,2.321 -0.928,-1.323 3.306,-2.32 0.928,1.322 z" />
        </g>
      </g>
      <g
         style="opacity:0.8"
         id="g2943">
        <g
           id="g2945">
          <path
             style="fill:#1c4781"
             inkscape:connector-curvature="0"
             id="path2947"
             d="m 107.741,1284.032 -2.689,-1.536 0.614,-1.075 2.689,1.536 -0.614,1.075 z m -5.916,-3.379 -2.689,-1.536 0.615,-1.076 2.689,1.536 -0.615,1.076 z m -5.378,-3.072 -3.227,-1.843 0.614,-1.076 3.227,1.843 -0.614,1.076 z m -5.915,-3.379 -2.689,-1.536 0.614,-1.076 2.689,1.536 -0.614,1.076 z m -5.916,-3.38 -2.022,-1.155 c -0.261,-0.149 -0.506,-0.326 -0.728,-0.525 l 0.828,-0.921 c 0.156,0.141 0.33,0.265 0.514,0.371 l 2.022,1.155 -0.614,1.075 z m 26.298,14.355 -0.017,-1.238 c 1.043,-0.015 2.013,-0.585 2.529,-1.49 l 1.076,0.614 c -0.734,1.284 -2.109,2.094 -3.588,2.114 z M 80.48,1265.905 c 0.019,-0.685 0.209,-1.362 0.551,-1.961 l 0.973,-1.704 1.076,0.615 -0.973,1.704 c -0.241,0.422 -0.375,0.899 -0.389,1.381 l -1.238,-0.035 z m 34.342,16.597 -1.076,-0.614 1.843,-3.227 1.076,0.615 -1.843,3.226 z m -30.205,-22.336 -1.076,-0.615 1.536,-2.689 1.076,0.614 -1.536,2.69 z m 33.584,16.421 -1.076,-0.614 1.536,-2.689 1.076,0.615 -1.536,2.688 z m -30.205,-22.337 -1.076,-0.614 1.536,-2.689 1.076,0.614 -1.536,2.689 z m 33.584,16.421 -1.075,-0.614 1.536,-2.689 1.075,0.614 -1.536,2.689 z m -30.512,-21.799 -1.076,-0.614 1.844,-3.227 1.075,0.615 -1.843,3.226 z m 33.584,16.421 -1.076,-0.614 1.843,-3.227 1.076,0.614 -1.843,3.227 z m -30.205,-22.337 -1.076,-0.614 1.536,-2.689 1.076,0.615 -1.536,2.688 z m 33.585,16.421 -1.076,-0.615 1.428,-2.499 c 0.029,-0.052 0.058,-0.106 0.085,-0.161 l 1.109,0.55 c -0.037,0.075 -0.076,0.149 -0.118,0.223 l -1.428,2.502 z m -30.124,-21.939 -0.722,-1.006 c 1.003,-0.719 2.263,-0.96 3.458,-0.664 l -0.299,1.202 c -0.843,-0.21 -1.731,-0.039 -2.437,0.468 z m 30.38,15.736 c -0.257,-0.392 -0.595,-0.709 -1.005,-0.943 l -1.227,-0.701 0.614,-1.076 1.228,0.701 c 0.581,0.332 1.061,0.783 1.426,1.339 l -1.036,0.68 z m -4.921,-3.18 -3.227,-1.843 0.614,-1.076 3.227,1.843 -0.614,1.076 z m -5.916,-3.38 -2.689,-1.536 0.614,-1.075 2.689,1.536 -0.614,1.075 z m -5.915,-3.379 -2.689,-1.536 0.614,-1.076 2.689,1.536 -0.614,1.076 z m -5.378,-3.072 -3.227,-1.843 0.614,-1.076 3.227,1.843 -0.614,1.076 z" />
        </g>
        <g
           id="g2949">
          <rect
             style="fill:#1c4781"
             id="rect2951"
             height="9.8339996"
             width="9.8339996"
             transform="matrix(0.8683,0.496,-0.496,0.8683,631.0988,114.063)"
             y="1240.661"
             x="95.818001" />
        </g>
        <g
           id="g2953">
          <rect
             style="fill:#1c4781"
             id="rect2955"
             height="9.8339996"
             width="9.8339996"
             transform="matrix(0.8683,0.496,-0.496,0.8683,635.0558,110.0508)"
             y="1246.1071"
             x="105.352" />
        </g>
        <g
           id="g2957">
          <rect
             style="fill:#1c4781"
             id="rect2959"
             height="9.8339996"
             width="9.8330002"
             transform="matrix(0.8683,0.496,-0.496,0.8683,639.0364,105.984)"
             y="1251.615"
             x="114.995" />
        </g>
        <g
           id="g2961">
          <rect
             style="fill:#1c4781"
             id="rect2963"
             height="9.8339996"
             width="9.8339996"
             transform="matrix(0.8683,0.496,-0.496,0.8683,635.0844,117.9941)"
             y="1250.132"
             x="90.406998" />
        </g>
        <g
           id="g2965">
          <rect
             style="fill:#1c4781"
             id="rect2967"
             height="9.8339996"
             width="9.8339996"
             transform="matrix(0.8683,0.496,-0.496,0.8683,638.9921,113.9589)"
             y="1255.578"
             x="99.942001" />
        </g>
        <g
           id="g2969">
          <rect
             style="fill:#1c4781"
             id="rect2971"
             height="9.8339996"
             width="9.8330002"
             transform="matrix(0.8683,0.496,-0.496,0.8683,643.022,109.9148)"
             y="1261.087"
             x="109.584" />
        </g>
        <g
           id="g2973">
          <rect
             style="fill:#1c4781"
             id="rect2975"
             height="9.8339996"
             width="9.8339996"
             transform="matrix(0.8683,0.496,-0.496,0.8683,639.0256,121.9063)"
             y="1259.615"
             x="84.989998" />
        </g>
        <g
           id="g2977">
          <rect
             style="fill:#1c4781"
             id="rect2979"
             height="9.8339996"
             width="9.8339996"
             transform="matrix(0.8683,0.496,-0.496,0.8683,643.032,117.9177)"
             y="1265.062"
             x="94.525002" />
        </g>
        <g
           id="g2981">
          <path
             style="fill:#1c4781"
             inkscape:connector-curvature="0"
             id="path2983"
             d="m 107.253,1268.778 -4.878,8.539 8.539,4.878 4.877,-8.539 -8.538,-4.878 z m 1.345,11.212 c -0.127,-0.037 -0.25,-0.083 -0.368,-0.135 l 0.389,-1.351 c 0.119,0.051 0.24,0.097 0.368,0.134 1.425,0.411 2.902,-0.241 3.592,-1.485 -0.012,0.232 -0.048,0.466 -0.115,0.699 -0.478,1.658 -2.208,2.615 -3.866,2.138 z" />
        </g>
      </g>
      <g
         style="opacity:0.7"
         id="g2985">
        <g
           id="g2987">
          <path
             style="fill:#1c4781"
             inkscape:connector-curvature="0"
             id="path2989"
             d="m 99.988,1445.583 c 3.02,1.835 5.65,3.433 8.427,5.12 -1.483,-6.049 -2.888,-11.783 -4.421,-18.035 3.066,0.522 4.465,2.321 6.865,3.042 -0.818,-5.152 -1.594,-10.037 -2.446,-15.406 1.892,1.038 3.324,1.823 5.289,2.901 -1.139,-7.402 -2.193,-14.246 -3.246,-21.09 -0.098,-0.435 -0.226,-0.778 -0.392,-1.005 -0.278,-0.043 -0.642,0 -1.073,0.115 -6.56,2.219 -13.119,4.438 -20.213,6.838 1.862,1.247 3.219,2.156 5.012,3.357 -5.158,1.718 -9.85,3.281 -14.8,4.929 1.746,1.797 3.986,2.209 5.863,4.69 -6.255,1.521 -11.991,2.916 -18.043,4.388 2.777,1.687 5.407,3.285 8.427,5.12 -6.968,2.11 -13.411,4.063 -20.464,6.199 6.673,4.054 12.65,7.789 18.741,11.324 1.893,1.099 2.223,2.095 0.845,3.728 -0.258,0.306 -0.428,0.687 -0.638,1.034 -2.924,4.816 -3.306,5.45 0.276,7.644 3.597,2.168 3.984,1.537 6.911,-3.277 0.211,-0.347 0.471,-0.672 0.624,-1.043 0.814,-1.975 1.851,-2.141 3.698,-0.968 5.945,3.776 12.014,7.36 18.687,11.414 -1.354,-7.245 -2.59,-13.862 -3.929,-21.019 z" />
        </g>
        <g
           id="g2991">
          <path
             style="fill:#1c4781"
             inkscape:connector-curvature="0"
             id="path2993"
             d="m 71.794,1464.095 c -0.787,-0.479 -1.469,-1.013 -2.027,-1.59 l 1.002,-0.968 c 0.475,0.491 1.063,0.951 1.749,1.368 0.309,0.2 0.59,0.339 0.88,0.475 l -0.595,1.26 c -0.333,-0.157 -0.67,-0.339 -1.004,-0.542 -0.002,0 -0.003,0 -0.005,0 z m 4.715,1.322 -0.086,-1.391 c 0.988,-0.061 1.958,-0.413 2.884,-1.046 l 0.787,1.151 c -1.136,0.777 -2.343,1.209 -3.585,1.286 z m -8.575,-6.257 c -0.253,-1.167 -0.198,-2.437 0.164,-3.775 l 1.345,0.364 c -0.303,1.121 -0.353,2.169 -0.147,3.115 l -1.362,0.296 z m 14.797,2.384 -1.11,-0.842 c 0.303,-0.4 0.6,-0.837 0.88,-1.298 0.384,-0.632 0.668,-1.197 0.84,-1.559 l 1.26,0.595 c -0.186,0.393 -0.494,1.004 -0.909,1.688 -0.306,0.502 -0.629,0.978 -0.961,1.416 z m -13.163,-9.516 0.062,-0.102 c 0.864,-1.422 1.708,-2.347 1.745,-2.386 l 0.098,0.09 0.292,-0.498 1.22,0.713 -0.583,0.637 c -0.008,0.01 -0.792,0.869 -1.58,2.166 l -0.056,0.092 -1.198,-0.712 z m -8.482,-7.66 -1.986,-1.208 0.725,-1.19 1.984,1.208 0.991,0.602 -0.722,1.192 -0.992,-0.604 z m 36.933,22.435 0.721,-1.192 2.981,1.798 -0.72,1.193 -2.982,-1.799 z m -2.979,-1.812 c -0.938,-0.575 -1.91,-1.175 -2.967,-1.833 l 0.736,-1.183 c 1.054,0.656 2.023,1.254 2.958,1.828 l -0.727,1.188 z m -38.914,-23.647 -2.972,-1.817 0.726,-1.189 2.973,1.816 -0.727,1.19 z m 8.937,5.428 0.718,-1.195 c 1.002,0.603 1.999,1.199 2.987,1.787 l -0.712,1.197 c -0.991,-0.588 -1.989,-1.185 -2.993,-1.789 z m 38.92,23.627 0.721,-1.193 c 0.917,0.554 1.902,1.15 2.98,1.804 l -0.723,1.191 c -1.077,-0.653 -2.062,-1.249 -2.978,-1.802 z m -53.802,-32.688 -4.314,-2.625 1.815,-0.416 0.124,0.53 0.251,-0.414 2.849,1.735 -0.725,1.19 z m 38.938,23.595 -2.941,-1.873 0.75,-1.175 2.935,1.869 -0.744,1.179 z m 17.286,7.913 c -0.293,-1.198 -0.559,-2.319 -0.807,-3.396 l 1.358,-0.313 c 0.247,1.071 0.51,2.187 0.802,3.377 l -1.353,0.332 z m -55.011,-34.003 -0.333,-1.353 c 1.169,-0.288 2.284,-0.571 3.367,-0.852 l 0.349,1.349 c -1.089,0.283 -2.209,0.567 -3.383,0.856 z m 53.438,27.206 -0.202,-0.912 c -0.182,-0.823 -0.364,-1.646 -0.553,-2.484 l 1.36,-0.305 c 0.188,0.839 0.371,1.663 0.554,2.488 l 0.201,0.911 -1.36,0.302 z m -46.684,-28.946 -0.357,-1.347 0.725,-0.192 c 0.877,-0.233 1.753,-0.465 2.642,-0.699 l 0.354,1.348 c -0.887,0.233 -1.762,0.465 -2.638,0.698 l -0.726,0.192 z m 45.151,22.166 c -0.251,-1.063 -0.522,-2.178 -0.823,-3.372 l 0.98,-0.247 -0.991,-0.602 0.723,-1.191 2.977,1.809 -0.723,1.191 -1.521,-0.924 c 0.266,1.06 0.508,2.059 0.734,3.016 l -1.356,0.32 z m -38.423,-23.926 -0.34,-1.351 c 1.084,-0.273 2.207,-0.55 3.391,-0.832 l 0.322,1.355 c -1.178,0.281 -2.295,0.556 -3.373,0.828 z m 46.52,25.131 -2.977,-1.809 0.723,-1.191 2.978,1.809 -0.724,1.191 z m -43.732,-27.384 -2.977,-1.809 0.723,-1.19 2.977,1.809 -0.723,1.19 z m -5.955,-3.617 -3.442,-2.091 1.832,-0.317 c 0.434,-0.075 0.862,-0.152 1.284,-0.231 l 0.172,0.916 0.877,0.533 -0.723,1.19 z m 49.052,28.089 c -0.279,-1.046 -0.552,-2.162 -0.833,-3.41 l 1.359,-0.306 c 0.276,1.23 0.545,2.328 0.82,3.357 l -1.346,0.359 z m -45.687,-30.064 -0.301,-1.36 c 1.145,-0.253 2.265,-0.518 3.38,-0.785 l 0.326,1.354 c -1.124,0.271 -2.252,0.536 -3.405,0.791 z m 44.122,23.237 -0.13,-0.627 c -0.191,-0.922 -0.383,-1.847 -0.583,-2.776 l 1.362,-0.293 c 0.201,0.933 0.394,1.861 0.585,2.787 l 0.13,0.626 -1.364,0.283 z m -37.333,-24.85 -0.329,-1.354 c 1.118,-0.271 2.247,-0.54 3.401,-0.801 l 0.307,1.359 c -1.147,0.259 -2.268,0.526 -3.379,0.796 z m 35.846,18.073 c -0.292,-1.181 -0.587,-2.27 -0.903,-3.329 l 1.335,-0.398 c 0.322,1.08 0.624,2.19 0.92,3.393 l -1.352,0.334 z m -29.079,-19.586 -0.268,-1.368 c 0.361,-0.07 0.726,-0.14 1.094,-0.208 l 0.531,-0.796 2.517,1.678 -1.721,0.297 c -0.734,0.126 -1.45,0.259 -2.153,0.397 z m -2.314,-3.145 -2.899,-1.932 0.773,-1.159 2.898,1.932 -0.772,1.159 z m 35.496,21.5 c -0.21,-0.158 -0.417,-0.321 -0.624,-0.484 -0.675,-0.532 -1.305,-1.031 -2.121,-1.452 l 0.64,-1.238 c 0.922,0.477 1.65,1.049 2.343,1.595 0.2,0.158 0.399,0.314 0.602,0.468 l -0.84,1.111 z m 2.137,0.436 -0.771,-3.396 1.359,-0.308 0.771,3.394 -1.359,0.31 z m -37.398,-24.786 -0.353,-1.348 3.366,-0.883 0.355,1.348 -3.368,0.883 z m 35.859,17.993 -0.766,-3.396 1.359,-0.307 0.766,3.396 -1.359,0.307 z m -29.125,-19.762 -0.354,-1.348 3.368,-0.883 0.353,1.348 -3.367,0.883 z m 27.589,12.972 -0.74,-3.243 1.366,0.759 c 0.554,0.308 1.043,0.578 1.5,0.829 l -0.671,1.221 c -0.047,-0.026 -0.094,-0.052 -0.142,-0.078 l 0.046,0.202 -1.359,0.31 z M 88.21,1410.916 c -0.758,-0.508 -1.208,-0.825 -1.661,-1.145 -0.35,-0.246 -0.701,-0.494 -1.202,-0.835 l 0.784,-1.152 c 0.509,0.346 0.866,0.598 1.221,0.848 0.446,0.314 0.888,0.626 1.634,1.126 l -0.776,1.158 z m 27.17,16.277 0.672,-1.221 c 0.051,0.028 0.102,0.056 0.153,0.084 -0.017,-0.085 -0.035,-0.171 -0.052,-0.258 l 1.367,-0.272 c 0.118,0.591 0.239,1.168 0.364,1.728 l 0.339,1.517 -1.358,-0.755 c -0.549,-0.306 -1.034,-0.575 -1.485,-0.823 z m -28.484,-19.616 -0.452,-1.318 c 0.889,-0.305 2.022,-0.693 3.304,-1.136 l 0.455,1.317 c -1.283,0.443 -2.417,0.832 -3.307,1.137 z m 28.628,14.773 c -0.19,-1.126 -0.372,-2.283 -0.55,-3.452 l 1.378,-0.209 c 0.176,1.162 0.357,2.311 0.546,3.43 l -1.374,0.231 z m -22.019,-17.055 -0.458,-1.316 c 1.072,-0.373 2.182,-0.761 3.294,-1.152 l 0.463,1.314 c -1.114,0.392 -2.226,0.781 -3.299,1.154 z m 20.96,10.149 -0.499,-3.448 1.379,-0.201 0.499,3.45 -1.379,0.199 z m -14.365,-12.471 -0.469,-1.313 c 1.15,-0.411 2.259,-0.811 3.28,-1.186 l 0.48,1.308 c -1.024,0.377 -2.137,0.779 -3.291,1.191 z m 13.35,5.584 c -0.185,-1.181 -0.374,-2.327 -0.57,-3.422 l 1.372,-0.246 c 0.198,1.105 0.389,2.262 0.575,3.453 l -1.377,0.215 z m -6.774,-8.011 -0.508,-1.297 c 0.448,-0.175 0.801,-0.318 1.079,-0.434 l -0.562,-0.442 1.594,-0.24 c 0.287,-0.043 0.564,-0.069 0.814,0.082 l 0.595,0.362 -0.355,0.633 c -0.066,0.108 -0.122,0.2 -0.401,0.36 l 0.004,0.076 c -0.05,0 -0.099,0 -0.147,0 -0.357,0.185 -0.98,0.455 -2.113,0.898 z m 5.532,1.517 c -0.341,-0.481 -0.347,-1.226 -0.352,-2.013 -0.003,-0.413 -0.007,-1.105 -0.111,-1.278 l 0.936,-1.025 c 0.556,0.47 0.563,1.356 0.569,2.294 0.002,0.395 0.007,1.056 0.1,1.224 l -1.142,0.798 z" />
        </g>
      </g>
      <g
         style="opacity:0.8"
         id="g6024">
        <g
           id="g6026">
          <path
             style="fill:#1c4781"
             inkscape:connector-curvature="0"
             id="path6028"
             d="m 117.464,1151.418 -19.912,8.12 c -0.977,0.398 -1.446,1.512 -1.048,2.489 0.398,0.976 1.513,1.445 2.49,1.047 l 19.912,-8.12 c 0.976,-0.397 1.445,-1.513 1.047,-2.489 -0.398,-0.977 -1.513,-1.444 -2.489,-1.047 z" />
        </g>
        <g
           id="g6030">
          <path
             style="fill:#1c4781"
             inkscape:connector-curvature="0"
             id="path6032"
             d="m 100.271,1094.622 c -0.713,-1.748 -2.708,-2.587 -4.456,-1.875 L 72,1102.459 c -1.748,0.712 -2.587,2.708 -1.875,4.456 l 1.509,24.993 c 0.712,1.747 2.707,2.586 4.456,1.873 l 17.723,-7.228 1.215,2.978 -8.328,3.396 c -0.976,0.398 -1.446,1.513 -1.048,2.489 0.398,0.977 1.514,1.445 2.49,1.047 l 19.912,-8.12 c 0.976,-0.398 1.445,-1.513 1.046,-2.489 -0.398,-0.976 -1.513,-1.444 -2.489,-1.047 l -8.328,3.396 -1.214,-2.979 17.724,-7.228 c 1.748,-0.713 2.587,-2.708 1.874,-4.455 l -16.396,-18.919 z m -20.53,10.158 c -0.261,0.07 -0.521,0.15 -0.777,0.255 -2.868,1.169 -4.448,4.147 -3.971,7.079 -0.28,-0.396 -0.523,-0.826 -0.714,-1.293 -1.36,-3.336 0.241,-7.143 3.577,-8.503 0.256,-0.104 0.516,-0.187 0.776,-0.256 l 1.109,2.718 z" />
        </g>
        <g
           id="g6034">
          <path
             style="fill:#1c4781"
             inkscape:connector-curvature="0"
             id="path6036"
             d="m 120.079,1157.828 -0.834,0.34 -0.462,-1.133 0.833,-0.34 c 0.576,-0.235 1.088,-0.611 1.483,-1.087 l 0.942,0.78 c -0.521,0.632 -1.201,1.13 -1.962,1.44 z m -4.234,1.727 -2.833,1.155 -0.462,-1.133 2.833,-1.155 0.462,1.133 z m -5.666,2.31 -3.399,1.387 -0.462,-1.133 3.399,-1.386 0.462,1.132 z m -6.232,2.542 -2.833,1.155 -0.462,-1.133 2.833,-1.155 0.462,1.133 z m -6.74,1.797 c -1.146,-0.251 -2.173,-0.897 -2.89,-1.817 l 0.965,-0.752 c 0.542,0.695 1.319,1.184 2.187,1.374 l -0.262,1.195 z m 25.992,-13.027 -1.224,0 c 0,-0.488 -0.095,-0.967 -0.281,-1.423 -0.217,-0.532 -0.542,-0.996 -0.967,-1.379 l 0.819,-0.909 c 0.563,0.507 0.994,1.122 1.281,1.826 0.246,0.603 0.371,1.237 0.372,1.884 z m -28.713,8.004 -1.223,-0.042 c 0.049,-1.411 0.693,-2.743 1.768,-3.655 l 0.792,0.933 c -0.813,0.689 -1.3,1.697 -1.337,2.764 z m 23.849,-11.781 c -0.542,-0.022 -1.074,0.071 -1.581,0.278 l -1.092,0.445 -0.462,-1.133 1.092,-0.445 c 0.67,-0.273 1.374,-0.397 2.093,-0.367 l -0.05,1.222 z m -20.683,7.666 c -0.512,-0.399 -1.034,-0.827 -1.615,-1.305 l -0.077,-0.063 c -0.229,-0.188 -0.46,-0.378 -0.694,-0.569 l 0.773,-0.949 c 0.235,0.191 0.467,0.383 0.698,0.572 l 0.077,0.063 c 0.575,0.473 1.09,0.895 1.59,1.285 l -0.752,0.966 z m 18.377,-10.52 -1.216,-0.139 c 0.097,-0.847 0.184,-1.501 0.281,-2.124 l 0.006,-0.035 c 0.031,-0.145 0.092,-0.453 0.149,-0.882 l 1.213,0.161 c -0.058,0.435 -0.12,0.76 -0.162,0.961 -0.093,0.601 -0.177,1.237 -0.271,2.058 z m -23.672,6.332 c -0.808,-0.675 -1.56,-1.43 -2.236,-2.244 l 0.941,-0.782 c 0.629,0.757 1.329,1.459 2.08,2.087 l -0.785,0.939 z m 24.226,-12.517 -1.222,0.064 c -0.063,-1.203 -0.259,-2.372 -0.582,-3.474 l 1.174,-0.344 c 0.351,1.193 0.563,2.456 0.63,3.754 z m -28.248,7.648 c -0.265,-0.488 -0.504,-0.991 -0.71,-1.496 -0.274,-0.673 -0.499,-1.369 -0.667,-2.067 l 1.19,-0.286 c 0.153,0.639 0.359,1.275 0.61,1.892 0.189,0.463 0.408,0.926 0.652,1.374 l -1.075,0.583 z m 25.328,-13.756 c -0.339,-0.617 -0.732,-1.212 -1.168,-1.768 -0.17,-0.217 -0.341,-0.425 -0.514,-0.624 l 0.925,-0.801 c 0.184,0.212 0.369,0.438 0.551,0.67 0.478,0.608 0.908,1.258 1.279,1.934 l -1.073,0.589 z m -25.889,7.001 -1.224,0.038 c -0.018,-0.572 -0.003,-1.127 0.042,-1.657 -0.109,-0.019 -0.218,-0.041 -0.326,-0.066 l 0.283,-1.19 c 0.243,0.058 0.493,0.091 0.742,0.101 l 0.678,0.024 -0.094,0.672 c -0.09,0.644 -0.124,1.344 -0.101,2.078 z m 23.866,-12.123 -1.053,-0.624 c 0.454,-0.765 0.627,-1.666 0.487,-2.535 l 1.208,-0.194 c 0.185,1.152 -0.043,2.342 -0.642,3.353 z m -28.61,7.985 c -0.094,-0.17 -0.179,-0.348 -0.252,-0.528 -0.369,-0.904 -0.465,-1.889 -0.278,-2.846 l 1.201,0.234 c -0.141,0.723 -0.068,1.466 0.21,2.149 0.056,0.137 0.12,0.271 0.191,0.4 l -1.072,0.591 z m 26.791,-13.399 c -0.166,-0.144 -0.345,-0.274 -0.533,-0.387 l -1.049,-0.629 3.823,-1.56 0.462,1.134 -2.246,0.916 -0.457,0.526 z m 6.145,-2.846 -0.61,0.249 -0.462,-1.133 0.61,-0.249 c 0.672,-0.274 1.27,-0.674 1.774,-1.188 l 0.874,0.857 c -0.623,0.634 -1.358,1.126 -2.186,1.464 z m -35.147,14.333 -3.399,1.387 -0.462,-1.133 3.399,-1.386 0.462,1.132 z m -6.682,1.9 c -1.122,-0.116 -2.201,-0.522 -3.122,-1.176 l 0.708,-0.998 c 0.749,0.532 1.626,0.863 2.539,0.957 l -0.125,1.217 z m 45.807,-21.256 -1.208,-0.193 c 0.144,-0.904 0.048,-1.837 -0.276,-2.695 l 1.145,-0.433 c 0.399,1.057 0.517,2.206 0.339,3.321 z m -50.162,16.583 -0.375,0.023 -0.773,0.315 -0.067,-0.164 -0.186,-3.079 1.222,-0.074 0.179,2.979 z m 46.942,-21.696 -2.404,-2.774 0.925,-0.801 2.404,2.774 -0.925,0.801 z m -47.307,15.664 -1.221,0.074 -0.222,-3.664 1.222,-0.074 0.221,3.664 z m 42.898,-20.75 -2.003,-2.312 0.925,-0.801 2.003,2.312 -0.925,0.801 z m -43.303,14.032 -1.221,0.074 -0.185,-3.054 1.221,-0.074 0.185,3.054 z m 38.896,-19.118 -2.004,-2.312 0.925,-0.801 2.003,2.312 -0.924,0.801 z m -39.302,12.399 -1.222,0.074 -0.184,-3.054 1.221,-0.074 0.185,3.054 z m 35.294,-17.024 -2.027,-2.338 -0.034,-0.069 c -0.498,-0.991 -1.283,-1.789 -2.27,-2.307 l 0.568,-1.084 c 1.192,0.626 2.145,1.583 2.76,2.772 l 1.927,2.224 -0.924,0.802 z m -35.783,10.838 -1.195,0.267 c -0.297,-1.332 -0.17,-2.705 0.368,-3.969 l 1.126,0.479 c -0.437,1.027 -0.541,2.142 -0.299,3.223 z m 28.809,-16.16 c -0.625,0.021 -1.237,0.151 -1.82,0.39 l -10e-4,0 -0.897,0.366 -0.462,-1.133 0.897,-0.366 c 0,0 0.001,0 0.001,0 0.718,-0.293 1.473,-0.454 2.243,-0.479 l 0.039,1.222 z m -26.848,10.793 -0.742,-0.973 c 0.455,-0.347 0.957,-0.633 1.49,-0.851 l 1.388,-0.566 0.462,1.133 -1.388,0.566 c -0.434,0.178 -0.841,0.41 -1.21,0.691 z m 20.729,-8.65 -2.833,1.155 -0.462,-1.133 2.833,-1.155 0.462,1.133 z m -5.665,2.31 -3.399,1.386 -0.462,-1.133 3.399,-1.386 0.462,1.133 z m -6.233,2.542 -2.833,1.155 -0.462,-1.133 2.833,-1.155 0.462,1.133 z" />
        </g>
        <g
           id="g6038">
          <path
             style="fill:#1c4781"
             inkscape:connector-curvature="0"
             id="path6040"
             d="m 102.18,1156.238 c 0.233,0.246 0.579,0.308 1.152,0.075 l 0.119,-0.049 7.506,-3.061 0.12,-0.049 c 0.572,-0.233 0.775,-0.519 0.771,-0.858 0.831,-1.61 0.853,-4.922 1.4,-8.383 0,0 1.38,-5.664 -2.233,-10.267 -4.126,-5.255 -7.15,-2.835 -8.899,-2.123 l -7.507,3.062 c -1.748,0.713 -5.603,1.099 -4.876,7.74 0.636,5.818 5.583,8.901 5.583,8.901 2.813,2.09 5.145,4.442 6.864,5.012 z m 0.89,-5.511 c 0.337,-0.09 0.673,-0.195 1.005,-0.331 3.711,-1.514 5.756,-5.368 5.14,-9.163 0.362,0.513 0.677,1.068 0.924,1.674 1.761,4.318 -0.312,9.246 -4.629,11.006 -0.332,0.135 -0.668,0.24 -1.005,0.331 l -1.435,-3.517 z" />
        </g>
      </g>
      <g
         style="opacity:0.8"
         id="g6042">
        <g
           id="g6044">
          <path
             style="fill:#1c4781"
             inkscape:connector-curvature="0"
             id="path6046"
             d="m 66.456,1543.258 c -0.524,-0.154 -0.793,-0.092 -0.915,0.504 -0.282,1.387 -0.621,2.762 -0.941,4.141 -0.115,0.49 -0.24,0.848 0.539,0.979 0.692,0.116 0.823,-0.104 0.919,-0.654 0.115,-0.653 0.283,-1.297 0.504,-2.285 0.586,0.976 0.944,1.692 1.423,2.314 0.246,0.319 0.221,1.164 1.14,0.644 0.878,-0.498 0.409,-0.88 0.148,-1.384 -0.303,-0.588 -1.095,-1.204 -0.828,-1.731 0.291,-0.576 1.125,0.063 1.729,0.073 0.619,0.012 0.796,-0.064 0.932,-0.645 0.143,-0.608 -0.105,-0.746 -0.612,-0.871 -1.353,-0.333 -2.7,-0.696 -4.038,-1.085 z" />
        </g>
        <g
           id="g6048">
          <path
             style="fill:#1c4781"
             inkscape:connector-curvature="0"
             id="path6050"
             d="m 54.316,1525.191 c 0.664,0.207 0.808,-0.062 0.922,-0.636 0.26,-1.302 0.532,-2.607 0.907,-3.88 0.177,-0.602 0.195,-0.881 -0.485,-1.104 -0.783,-0.258 -0.859,0.173 -0.961,0.723 -0.114,0.614 -0.265,1.222 -0.399,1.832 -0.099,0.017 -0.197,0.033 -0.294,0.049 -0.447,-0.745 -0.922,-1.476 -1.334,-2.237 -0.296,-0.549 -0.622,-0.622 -1.15,-0.316 -0.583,0.34 -0.33,0.709 -0.113,1.097 0.156,0.278 0.33,0.547 0.479,0.828 0.231,0.437 0.857,0.929 0.483,1.339 -0.375,0.41 -1.014,-0.1 -1.537,-0.204 -0.036,-0.01 -0.07,-0.036 -0.099,-0.061 -0.434,-0.358 -0.783,-0.381 -0.974,0.241 -0.168,0.553 -0.335,1.035 0.526,1.226 1.358,0.3 2.7,0.688 4.029,1.103 z" />
        </g>
        <g
           id="g6052">
          <path
             style="fill:#1c4781"
             inkscape:connector-curvature="0"
             id="path6054"
             d="m 76.538,1533.197 c -0.89,0.049 -1.785,0.028 -2.9,0.04 0.644,-0.658 1.096,-1.137 1.564,-1.596 0.357,-0.351 0.674,-0.605 0.149,-1.148 -0.507,-0.526 -0.838,-0.271 -1.187,0.065 -1.002,0.962 -1.986,1.941 -2.962,2.93 -0.282,0.285 -0.512,0.542 -0.03,0.955 1.115,0.954 2.177,1.973 3.229,2.998 0.412,0.401 0.682,0.387 1.067,-0.033 0.396,-0.432 0.334,-0.743 -0.074,-1.084 -0.334,-0.281 -0.661,-0.571 -0.98,-0.869 -0.142,-0.132 -0.339,-0.303 -0.211,-0.496 0.092,-0.14 0.396,-0.308 0.476,-0.258 0.672,0.422 1.287,-0.195 1.924,-0.068 0.608,0.121 0.952,-0.252 0.956,-0.725 0.003,-0.556 -0.454,-0.742 -1.021,-0.711 z" />
        </g>
        <g
           id="g6056">
          <path
             style="fill:#1c4781"
             inkscape:connector-curvature="0"
             id="path6058"
             d="m 43.823,1535.229 c 0.46,0.069 0.885,0.072 1.35,0 0.387,-0.063 0.868,-0.206 1.185,0.104 0.131,0.349 0.132,0.602 -0.125,0.821 -0.271,0.23 -0.501,0.514 -0.779,0.737 -0.443,0.357 -0.451,0.635 -0.017,1.048 0.425,0.408 0.69,0.362 1.072,-0.03 0.999,-1.021 2.025,-2.015 3.048,-3.014 0.286,-0.278 0.485,-0.545 0.102,-0.893 -1.144,-1.036 -2.3,-2.061 -3.424,-3.119 -0.482,-0.454 -0.661,-0.021 -0.956,0.218 -0.377,0.306 -0.316,0.552 -0.028,0.884 0.47,0.543 1.616,0.976 1.295,1.589 -0.273,0.524 -1.466,0.142 -2.249,0.216 -0.118,0.012 -0.239,0.014 -0.358,0 -0.39,-0.037 -0.635,0.102 -0.579,0.525 0.046,0.346 -0.179,0.82 0.463,0.916 z" />
        </g>
        <g
           id="g6060">
          <path
             style="fill:#1c4781"
             inkscape:connector-curvature="0"
             id="path6062"
             d="m 66.437,1524.974 c 1.126,-0.479 2.237,-0.887 3.47,-1.026 0.368,-0.043 1.045,-0.326 0.788,-1.163 -0.243,-0.788 -0.594,-0.654 -1.128,-0.401 -0.316,0.148 -0.671,0.228 -1.016,0.3 -0.219,0.047 -0.601,0.105 -0.649,0.017 -0.114,-0.211 -0.158,-0.48 0.04,-0.761 0.363,-0.515 0.625,-1.1 0.975,-1.626 0.347,-0.524 0.076,-0.756 -0.341,-1.027 -0.476,-0.31 -0.69,-0.127 -0.917,0.302 -0.441,0.841 -0.922,1.66 -1.486,2.664 -0.232,-0.805 -0.373,-1.418 -0.588,-2.005 -0.143,-0.394 0.073,-1.112 -0.871,-0.86 -0.826,0.22 -0.721,0.647 -0.561,1.224 0.345,1.244 0.733,2.48 0.988,3.743 0.18,0.889 0.844,0.81 1.296,0.619 z" />
        </g>
        <g
           id="g6064">
          <path
             style="fill:#1c4781"
             inkscape:connector-curvature="0"
             id="path6066"
             d="m 64.248,1528.026 c 1.329,-0.547 2.708,-0.938 4.12,-1.201 1.031,-0.191 0.806,-0.848 0.591,-1.587 -0.114,-0.28 -0.369,-0.231 -0.659,-0.135 -0.715,0.237 -1.454,0.415 -2.146,0.703 -0.938,0.388 -1.538,0.347 -1.686,-0.854 -0.091,-0.742 -0.358,-1.461 -0.542,-2.19 -0.121,-0.482 -0.332,-0.63 -0.851,-0.415 -0.374,0.155 -0.785,0.097 -0.608,0.721 0.432,1.524 0.816,3.063 1.229,4.593 0.07,0.263 0.126,0.54 0.552,0.365 z" />
        </g>
        <g
           id="g6068">
          <path
             style="fill:#1c4781"
             inkscape:connector-curvature="0"
             id="path6070"
             d="m 56.163,1527.996 c 0.235,0.062 0.553,0.309 0.66,-0.153 0.377,-1.627 0.743,-3.256 1.109,-4.886 0.016,-0.073 -0.012,-0.155 -0.022,-0.254 -0.251,-0.278 -0.625,-0.296 -0.964,-0.366 -0.401,-0.083 -0.428,0.257 -0.488,0.523 -0.213,0.931 -0.446,1.858 -0.621,2.796 -0.101,0.537 -0.337,0.849 -0.85,0.525 -0.836,-0.528 -1.828,-0.388 -2.694,-0.729 -0.535,-0.211 -0.808,-0.086 -0.926,0.482 -0.102,0.487 -0.078,0.79 0.526,0.932 1.433,0.334 2.846,0.754 4.27,1.13 z" />
        </g>
        <g
           id="g6072">
          <path
             style="fill:#1c4781"
             inkscape:connector-curvature="0"
             id="path6074"
             d="m 50.593,1533.812 c 0.582,0.461 0.488,0.765 -0.007,1.205 -0.682,0.607 -1.303,1.281 -1.953,1.925 -0.229,0.227 -0.547,0.458 -0.087,0.737 0.318,0.192 0.495,0.861 1.331,0.109 0.864,-0.853 1.995,-1.968 3.122,-3.087 0.399,-0.396 0.052,-0.609 -0.214,-0.854 -1.049,-0.963 -2.096,-1.926 -3.131,-2.903 -0.384,-0.361 -0.7,-0.536 -1.183,-0.087 -0.598,0.556 -0.066,0.863 0.216,1.161 0.597,0.634 1.225,1.253 1.906,1.794 z" />
        </g>
        <g
           id="g6076">
          <path
             style="fill:#1c4781"
             inkscape:connector-curvature="0"
             id="path6078"
             d="m 70.286,1534.737 c -0.535,-0.487 -0.635,-0.905 0.02,-1.435 0.642,-0.521 1.167,-1.185 1.763,-1.764 0.341,-0.331 0.443,-0.557 0.02,-0.953 -0.403,-0.377 -0.684,-0.469 -1.084,-0.062 -1.057,1.072 -2.105,2.152 -3.193,3.192 -0.387,0.369 -0.237,0.517 0.083,0.801 1.125,0.999 2.236,2.016 3.305,3.072 0.312,0.309 0.664,0.41 0.837,0.111 0.168,-0.29 0.8,-0.604 0.266,-1.115 -0.675,-0.615 -1.345,-1.231 -2.017,-1.847 z" />
        </g>
        <g
           id="g6080">
          <path
             style="fill:#1c4781"
             inkscape:connector-curvature="0"
             id="path6082"
             d="m 64.723,1540.416 c -0.547,-0.199 -0.706,-0.215 -0.827,0.357 -0.311,1.474 -0.663,2.939 -0.981,4.411 -0.05,0.231 -0.298,0.535 0.132,0.693 0.33,0.122 0.66,0.253 0.833,0.318 0.456,-0.261 0.388,-0.527 0.439,-0.748 0.198,-0.853 0.459,-1.696 0.569,-2.56 0.101,-0.794 0.425,-0.85 1.089,-0.621 0.862,0.297 1.765,0.473 2.635,0.745 0.461,0.144 0.686,0.04 0.721,-0.443 0.027,-0.373 0.41,-0.781 -0.375,-0.95 -1.433,-0.305 -2.857,-0.704 -4.235,-1.202 z" />
        </g>
        <g
           id="g6084">
          <path
             style="fill:#1c4781"
             inkscape:connector-curvature="0"
             id="path6086"
             d="m 68.941,1530.816 c -0.298,-0.229 -0.492,-0.847 -1.051,-0.405 -0.299,0.237 -0.647,0.351 -0.906,0.716 -0.519,0.73 -1.139,1.428 -1.84,1.985 -0.813,0.646 -1.747,0.43 -2.521,-0.149 -0.778,-0.582 -0.129,-1.215 0.198,-1.646 0.421,-0.556 1.085,-1.092 1.779,-1.097 1.012,-0.01 1.715,-0.693 2.625,-0.896 0.674,-0.152 0.24,-0.731 0.158,-1.101 -0.106,-0.481 -0.521,-0.348 -0.753,-0.165 -0.793,0.622 -1.819,0.394 -2.667,0.791 -0.479,0.224 -0.603,0.21 -0.796,-0.45 -0.25,-0.85 -0.588,-1.693 -0.756,-2.569 -0.159,-0.828 -0.778,-0.862 -1.313,-0.753 -0.731,0.15 -0.25,0.704 -0.146,1.051 0.656,2.169 1.411,4.334 -0.404,6.339 -0.044,0.048 -0.129,0.059 -0.194,0.086 -1.761,-2.344 -1.777,-2.43 -1.089,-5.192 0.125,-0.498 0.224,-1.003 0.338,-1.504 0.154,-0.68 -0.435,-0.5 -0.741,-0.638 -0.35,-0.156 -0.611,-0.121 -0.673,0.337 -0.039,0.275 -0.115,0.545 -0.179,0.816 -0.683,2.892 -0.678,2.874 -3.517,2.057 -0.483,-0.139 -1.192,-0.749 -1.502,0.191 -0.328,0.99 0.536,1.017 1.151,1.197 0.191,0.055 0.392,0.084 0.577,0.153 1.547,0.572 3.331,0.755 3.944,2.749 0.189,0.623 0.091,0.826 -0.467,0.852 -1.344,0.061 -2.678,0.142 -3.619,-1.18 -0.406,-0.569 -1.075,-0.944 -1.558,-1.468 -0.436,-0.472 -0.73,-0.437 -1.164,0.01 -0.454,0.465 -0.22,0.75 0.127,1.067 0.584,0.536 1.154,1.092 1.762,1.601 0.567,0.474 0.866,0.83 0.049,1.413 -0.634,0.453 -1.126,1.111 -1.663,1.695 -0.258,0.281 -0.811,0.47 -0.224,1.019 0.474,0.443 0.81,0.539 1.269,0.026 0.502,-0.563 1.032,-1.102 1.577,-1.622 0.833,-0.797 1.794,-1.274 2.998,-1.163 0.84,0.078 1.032,0.362 0.739,1.222 -0.568,1.671 -1.967,2.064 -3.394,2.363 -1.33,0.278 -2.25,0.757 -1.972,2.327 1.203,-0.797 2.635,-0.848 3.968,-1.221 0.251,-0.071 0.367,0.052 0.462,0.232 0.121,0.227 0.009,0.391 -0.202,0.452 -1.244,0.362 -2.49,0.724 -3.744,1.054 -0.265,0.07 -0.391,-0.206 -0.52,-0.4 -0.287,0.267 -0.537,0.594 -0.867,0.785 -0.477,0.274 -0.888,0.529 -0.624,1.161 0.268,0.64 0.773,0.362 1.221,0.29 0.214,-0.035 0.484,-0.242 0.594,0.107 0.102,0.325 -0.244,0.338 -0.414,0.469 -0.688,0.528 -1.546,0.601 -2.326,0.883 -0.4,0.146 -0.85,0.244 -0.609,0.906 0.183,0.502 0.244,0.924 0.936,0.565 0.327,-0.169 0.777,0.15 1.121,-0.183 0.161,-0.156 0.364,-0.373 0.595,-0.111 0.184,0.208 0.063,0.478 -0.026,0.673 -0.247,0.54 -0.533,1.066 -0.833,1.579 -0.239,0.406 -0.292,0.694 0.215,0.956 0.461,0.239 0.731,0.303 1.04,-0.247 0.431,-0.771 0.757,-1.625 1.417,-2.321 0.496,0.616 0.516,1.313 0.681,1.953 0.134,0.519 0.365,0.733 0.93,0.572 0.53,-0.151 0.693,-0.378 0.53,-0.937 -0.355,-1.22 -0.667,-2.453 -0.953,-3.689 -0.187,-0.811 -0.452,-1.377 -1.408,-0.829 -0.146,0.083 -0.307,0.131 -0.417,-0.029 -0.154,-0.226 0.003,-0.356 0.185,-0.463 0.308,-0.181 0.61,-0.37 0.925,-0.537 0.579,-0.309 1.008,-0.374 1.156,0.49 0.146,0.856 0.437,1.688 0.652,2.532 0.127,0.498 0.343,0.746 0.922,0.556 0.52,-0.17 0.707,-0.381 0.515,-0.946 -0.243,-0.713 -0.424,-1.451 -0.562,-2.191 -0.102,-0.542 -0.692,-1.388 -0.083,-1.576 0.705,-0.219 0.568,0.827 0.796,1.307 0.208,0.438 0.325,0.811 0.912,0.563 0.498,-0.211 0.859,-0.403 0.579,-1.102 -0.346,-0.862 -0.543,-1.784 -0.788,-2.685 -0.132,-0.489 -0.337,-0.965 -0.015,-1.488 0.43,-0.7 0.792,-1.44 1.183,-2.164 0.268,0.274 0.535,0.547 0.804,0.82 0.094,0.154 0.189,0.31 0.284,0.464 0.103,0.528 0.465,0.916 0.735,1.357 -0.493,1.229 -0.308,2.647 -1.156,3.808 -0.302,0.413 0.23,0.752 0.691,0.86 0.392,0.092 0.845,0.412 0.984,-0.341 0.187,-1.008 0.43,-2.006 0.655,-3.007 0.068,-0.305 0.102,-0.659 0.585,-0.391 0.916,0.512 2.021,0.292 2.96,0.74 0.408,0.193 0.738,0.195 0.857,-0.396 0.105,-0.521 0.167,-0.884 -0.513,-1.035 -1.238,-0.274 -2.458,-0.628 -3.684,-0.947 -0.553,-0.965 -1.332,-1.809 -1.581,-2.938 2.432,-0.461 4.165,0.682 5.624,2.455 0.074,0.09 0.207,0.136 0.271,0.23 0.351,0.507 0.687,0.378 1.079,0.032 0.456,-0.401 0.342,-0.724 -0.048,-1.08 -0.675,-0.615 -1.299,-1.293 -2.016,-1.854 -0.495,-0.389 -0.43,-0.661 -0.052,-1.031 0.682,-0.667 1.359,-1.338 2.032,-2.014 0.217,-0.214 0.571,-0.447 0.163,-0.761 z" />
        </g>
      </g>
      <g
         style="opacity:0.8"
         id="g6180">
        <g
           id="g6182">
          <path
             style="fill:#1c4781"
             inkscape:connector-curvature="0"
             id="path6184"
             d="m 132.381,1014.83 c -0.444,-0.13 -0.671,-0.078 -0.774,0.427 -0.239,1.174 -0.525,2.338 -0.796,3.506 -0.097,0.415 -0.203,0.718 0.457,0.829 0.586,0.098 0.696,-0.088 0.777,-0.554 0.098,-0.553 0.24,-1.098 0.427,-1.935 0.496,0.826 0.799,1.433 1.204,1.96 0.208,0.27 0.187,0.985 0.965,0.544 0.744,-0.421 0.347,-0.745 0.126,-1.172 -0.257,-0.498 -0.927,-1.02 -0.701,-1.466 0.246,-0.488 0.952,0.054 1.464,0.063 0.524,0.01 0.673,-0.055 0.789,-0.546 0.121,-0.515 -0.089,-0.632 -0.518,-0.737 -1.147,-0.282 -2.287,-0.589 -3.42,-0.919 z" />
        </g>
        <g
           id="g6186">
          <path
             style="fill:#1c4781"
             inkscape:connector-curvature="0"
             id="path6188"
             d="m 122.106,999.534 c 0.562,0.175 0.684,-0.052 0.781,-0.538 0.22,-1.103 0.45,-2.207 0.767,-3.284 0.15,-0.51 0.166,-0.746 -0.41,-0.936 -0.663,-0.218 -0.727,0.146 -0.813,0.612 -0.097,0.52 -0.224,1.034 -0.338,1.551 -0.083,0.014 -0.166,0.028 -0.249,0.041 -0.378,-0.631 -0.78,-1.249 -1.129,-1.895 -0.25,-0.464 -0.526,-0.526 -0.973,-0.268 -0.494,0.287 -0.279,0.6 -0.096,0.929 0.132,0.235 0.279,0.463 0.405,0.701 0.196,0.37 0.726,0.787 0.409,1.134 -0.316,0.347 -0.857,-0.084 -1.3,-0.173 -0.03,-0.006 -0.059,-0.031 -0.084,-0.051 -0.367,-0.303 -0.663,-0.322 -0.824,0.204 -0.143,0.468 -0.284,0.876 0.445,1.038 1.149,0.255 2.284,0.585 3.409,0.935 z" />
        </g>
        <g
           id="g6190">
          <path
             style="fill:#1c4781"
             inkscape:connector-curvature="0"
             id="path6192"
             d="m 140.915,1006.313 c -0.753,0.042 -1.51,0.024 -2.455,0.034 0.545,-0.557 0.927,-0.962 1.324,-1.351 0.302,-0.296 0.571,-0.513 0.126,-0.972 -0.43,-0.446 -0.709,-0.229 -1.004,0.055 -0.848,0.814 -1.681,1.644 -2.507,2.48 -0.239,0.242 -0.433,0.46 -0.025,0.809 0.944,0.809 1.842,1.671 2.732,2.539 0.349,0.339 0.577,0.328 0.903,-0.028 0.335,-0.365 0.283,-0.629 -0.063,-0.918 -0.283,-0.238 -0.56,-0.483 -0.83,-0.736 -0.12,-0.111 -0.287,-0.256 -0.179,-0.42 0.077,-0.118 0.335,-0.26 0.403,-0.218 0.568,0.357 1.089,-0.166 1.628,-0.058 0.515,0.103 0.806,-0.214 0.809,-0.613 0.004,-0.473 -0.382,-0.63 -0.862,-0.603 z" />
        </g>
        <g
           id="g6194">
          <path
             style="fill:#1c4781"
             inkscape:connector-curvature="0"
             id="path6196"
             d="m 113.225,1008.032 c 0.39,0.059 0.75,0.061 1.143,0 0.327,-0.054 0.734,-0.175 1.002,0.087 0.112,0.295 0.112,0.51 -0.106,0.695 -0.23,0.195 -0.424,0.435 -0.659,0.625 -0.375,0.302 -0.381,0.537 -0.014,0.887 0.36,0.346 0.584,0.307 0.908,-0.025 0.845,-0.864 1.714,-1.706 2.58,-2.552 0.242,-0.235 0.41,-0.461 0.086,-0.755 -0.968,-0.878 -1.947,-1.745 -2.898,-2.642 -0.408,-0.384 -0.56,-0.018 -0.809,0.185 -0.32,0.258 -0.268,0.467 -0.024,0.749 0.398,0.459 1.368,0.826 1.097,1.345 -0.231,0.444 -1.241,0.12 -1.903,0.184 -0.1,0.01 -0.203,0.011 -0.303,10e-4 -0.33,-0.032 -0.537,0.086 -0.49,0.444 0.037,0.294 -0.153,0.694 0.39,0.775 z" />
        </g>
        <g
           id="g6198">
          <path
             style="fill:#1c4781"
             inkscape:connector-curvature="0"
             id="path6200"
             d="m 132.365,999.35 c 0.953,-0.405 1.893,-0.75 2.937,-0.869 0.312,-0.036 0.885,-0.276 0.667,-0.984 -0.206,-0.667 -0.503,-0.554 -0.956,-0.34 -0.267,0.125 -0.567,0.192 -0.86,0.254 -0.186,0.039 -0.509,0.089 -0.55,0.014 -0.097,-0.178 -0.133,-0.407 0.034,-0.644 0.308,-0.436 0.53,-0.931 0.825,-1.376 0.294,-0.444 0.065,-0.64 -0.289,-0.87 -0.403,-0.262 -0.584,-0.108 -0.775,0.255 -0.374,0.712 -0.781,1.406 -1.258,2.256 -0.196,-0.681 -0.315,-1.201 -0.498,-1.698 -0.121,-0.333 0.062,-0.942 -0.737,-0.729 -0.699,0.186 -0.609,0.548 -0.474,1.036 0.292,1.053 0.621,2.1 0.836,3.169 0.153,0.756 0.715,0.689 1.098,0.526 z" />
        </g>
        <g
           id="g6202">
          <path
             style="fill:#1c4781"
             inkscape:connector-curvature="0"
             id="path6204"
             d="m 130.512,1001.935 c 1.124,-0.463 2.292,-0.794 3.486,-1.017 0.873,-0.162 0.683,-0.718 0.5,-1.344 -0.097,-0.237 -0.313,-0.195 -0.558,-0.114 -0.605,0.201 -1.23,0.352 -1.817,0.595 -0.794,0.329 -1.301,0.294 -1.427,-0.723 -0.077,-0.628 -0.303,-1.237 -0.459,-1.855 -0.103,-0.408 -0.281,-0.533 -0.72,-0.351 -0.316,0.131 -0.664,0.081 -0.515,0.61 0.366,1.29 0.691,2.592 1.041,3.888 0.061,0.224 0.109,0.459 0.469,0.311 z" />
        </g>
        <g
           id="g6206">
          <path
             style="fill:#1c4781"
             inkscape:connector-curvature="0"
             id="path6208"
             d="m 123.669,1001.909 c 0.199,0.052 0.468,0.262 0.559,-0.129 0.319,-1.377 0.629,-2.757 0.939,-4.137 0.014,-0.061 -0.01,-0.131 -0.019,-0.215 -0.213,-0.235 -0.53,-0.25 -0.816,-0.31 -0.34,-0.07 -0.362,0.218 -0.413,0.443 -0.181,0.788 -0.377,1.573 -0.526,2.367 -0.085,0.455 -0.286,0.718 -0.719,0.444 -0.708,-0.447 -1.546,-0.328 -2.28,-0.616 -0.453,-0.179 -0.684,-0.073 -0.784,0.408 -0.085,0.413 -0.065,0.669 0.446,0.789 1.213,0.282 2.409,0.638 3.613,0.956 z" />
        </g>
        <g
           id="g6210">
          <path
             style="fill:#1c4781"
             inkscape:connector-curvature="0"
             id="path6212"
             d="m 118.955,1006.833 c 0.493,0.391 0.413,0.648 -0.006,1.021 -0.577,0.514 -1.103,1.085 -1.653,1.63 -0.194,0.191 -0.463,0.388 -0.074,0.624 0.269,0.164 0.418,0.729 1.127,0.093 0.73,-0.722 1.688,-1.666 2.642,-2.614 0.338,-0.335 0.044,-0.516 -0.181,-0.723 -0.888,-0.815 -1.774,-1.63 -2.65,-2.458 -0.325,-0.307 -0.593,-0.454 -1.001,-0.074 -0.506,0.47 -0.056,0.731 0.183,0.983 0.505,0.537 1.036,1.06 1.613,1.518 z" />
        </g>
        <g
           id="g6214">
          <path
             style="fill:#1c4781"
             inkscape:connector-curvature="0"
             id="path6216"
             d="m 135.623,1007.617 c -0.453,-0.413 -0.538,-0.767 0.017,-1.215 0.543,-0.44 0.987,-1.002 1.492,-1.493 0.289,-0.281 0.375,-0.472 0.017,-0.807 -0.341,-0.319 -0.579,-0.397 -0.918,-0.053 -0.894,0.908 -1.782,1.823 -2.703,2.703 -0.328,0.313 -0.201,0.438 0.069,0.678 0.952,0.846 1.893,1.707 2.797,2.602 0.264,0.261 0.562,0.348 0.708,0.094 0.142,-0.246 0.677,-0.511 0.225,-0.944 -0.568,-0.523 -1.135,-1.045 -1.704,-1.565 z" />
        </g>
        <g
           id="g6218">
          <path
             style="fill:#1c4781"
             inkscape:connector-curvature="0"
             id="path6220"
             d="m 130.915,1012.424 c -0.463,-0.168 -0.598,-0.181 -0.7,0.303 -0.263,1.248 -0.561,2.489 -0.831,3.735 -0.042,0.196 -0.252,0.453 0.112,0.587 0.28,0.104 0.559,0.214 0.705,0.27 0.386,-0.221 0.328,-0.446 0.372,-0.634 0.167,-0.721 0.389,-1.435 0.482,-2.167 0.086,-0.673 0.359,-0.719 0.922,-0.526 0.729,0.251 1.494,0.4 2.23,0.631 0.39,0.122 0.58,0.034 0.61,-0.376 0.023,-0.315 0.346,-0.661 -0.318,-0.804 -1.213,-0.26 -2.418,-0.596 -3.584,-1.019 z" />
        </g>
        <g
           id="g6222">
          <path
             style="fill:#1c4781"
             inkscape:connector-curvature="0"
             id="path6224"
             d="m 134.484,1004.297 c -0.252,-0.194 -0.417,-0.718 -0.89,-0.343 -0.253,0.2 -0.548,0.297 -0.767,0.605 -0.439,0.619 -0.964,1.209 -1.558,1.681 -0.688,0.547 -1.479,0.364 -2.133,-0.126 -0.659,-0.493 -0.11,-1.029 0.167,-1.394 0.357,-0.471 0.918,-0.924 1.506,-0.929 0.856,-0.01 1.452,-0.587 2.221,-0.759 0.571,-0.129 0.204,-0.619 0.134,-0.932 -0.09,-0.407 -0.44,-0.294 -0.637,-0.14 -0.671,0.527 -1.54,0.333 -2.257,0.67 -0.405,0.189 -0.51,0.178 -0.674,-0.381 -0.211,-0.719 -0.498,-1.434 -0.64,-2.176 -0.135,-0.701 -0.659,-0.73 -1.111,-0.637 -0.619,0.127 -0.212,0.596 -0.124,0.889 0.555,1.836 1.194,3.669 -0.342,5.368 -0.038,0.041 -0.109,0.049 -0.164,0.072 -1.491,-1.984 -1.504,-2.057 -0.921,-4.396 0.106,-0.422 0.189,-0.85 0.286,-1.274 0.13,-0.576 -0.368,-0.423 -0.627,-0.54 -0.296,-0.132 -0.517,-0.103 -0.57,0.285 -0.033,0.232 -0.097,0.461 -0.151,0.691 -0.578,2.448 -0.574,2.433 -2.977,1.741 -0.409,-0.118 -1.009,-0.634 -1.271,0.162 -0.278,0.839 0.453,0.861 0.974,1.014 0.162,0.047 0.332,0.072 0.488,0.129 1.31,0.485 2.819,0.64 3.338,2.328 0.161,0.527 0.077,0.699 -0.395,0.72 -1.138,0.052 -2.266,0.121 -3.063,-0.998 -0.344,-0.482 -0.91,-0.799 -1.319,-1.243 -0.369,-0.399 -0.619,-0.37 -0.985,0.01 -0.384,0.394 -0.186,0.635 0.107,0.904 0.495,0.454 0.977,0.924 1.491,1.355 0.48,0.401 0.733,0.703 0.042,1.196 -0.537,0.384 -0.953,0.941 -1.407,1.436 -0.218,0.237 -0.686,0.397 -0.189,0.862 0.401,0.375 0.685,0.456 1.074,0.022 0.425,-0.476 0.873,-0.933 1.334,-1.373 0.706,-0.675 1.519,-1.08 2.538,-0.985 0.711,0.066 0.874,0.307 0.626,1.035 -0.481,1.415 -1.665,1.748 -2.872,2.001 -1.125,0.236 -1.904,0.641 -1.669,1.97 1.018,-0.674 2.23,-0.717 3.358,-1.034 0.213,-0.06 0.311,0.044 0.391,0.197 0.103,0.192 0.007,0.331 -0.17,0.383 -1.053,0.307 -2.108,0.612 -3.169,0.892 -0.225,0.06 -0.332,-0.174 -0.44,-0.339 -0.243,0.226 -0.455,0.503 -0.734,0.665 -0.404,0.233 -0.751,0.448 -0.527,0.983 0.227,0.541 0.654,0.307 1.033,0.245 0.181,-0.029 0.409,-0.205 0.502,0.091 0.086,0.275 -0.207,0.286 -0.35,0.397 -0.582,0.447 -1.309,0.509 -1.969,0.748 -0.339,0.123 -0.72,0.206 -0.516,0.767 0.154,0.425 0.206,0.783 0.792,0.479 0.276,-0.143 0.657,0.127 0.948,-0.155 0.136,-0.132 0.309,-0.315 0.503,-0.094 0.156,0.176 0.054,0.405 -0.021,0.569 -0.209,0.458 -0.451,0.903 -0.706,1.338 -0.203,0.343 -0.247,0.587 0.182,0.809 0.39,0.203 0.619,0.256 0.88,-0.209 0.365,-0.653 0.641,-1.376 1.2,-1.965 0.419,0.522 0.437,1.111 0.577,1.653 0.113,0.439 0.309,0.621 0.787,0.484 0.448,-0.127 0.586,-0.32 0.448,-0.793 -0.301,-1.032 -0.564,-2.077 -0.806,-3.124 -0.158,-0.686 -0.382,-1.166 -1.191,-0.702 -0.124,0.07 -0.259,0.111 -0.353,-0.025 -0.131,-0.19 0.002,-0.302 0.156,-0.392 0.261,-0.152 0.517,-0.313 0.783,-0.455 0.49,-0.261 0.854,-0.316 0.979,0.415 0.124,0.725 0.37,1.429 0.552,2.144 0.108,0.422 0.291,0.632 0.781,0.471 0.44,-0.144 0.598,-0.323 0.436,-0.802 -0.206,-0.603 -0.359,-1.229 -0.475,-1.855 -0.086,-0.459 -0.585,-1.175 -0.07,-1.334 0.596,-0.185 0.481,0.7 0.674,1.106 0.177,0.37 0.275,0.687 0.771,0.476 0.422,-0.178 0.727,-0.341 0.49,-0.933 -0.293,-0.729 -0.46,-1.51 -0.667,-2.272 -0.112,-0.414 -0.285,-0.817 -0.013,-1.26 0.364,-0.593 0.671,-1.22 1.001,-1.832 0.227,0.231 0.453,0.463 0.68,0.694 0.08,0.131 0.16,0.263 0.24,0.393 0.087,0.448 0.395,0.776 0.623,1.149 -0.417,1.041 -0.26,2.242 -0.979,3.224 -0.255,0.349 0.195,0.637 0.585,0.728 0.331,0.078 0.715,0.349 0.833,-0.288 0.158,-0.854 0.364,-1.699 0.555,-2.546 0.058,-0.258 0.086,-0.558 0.496,-0.33 0.775,0.433 1.71,0.247 2.505,0.626 0.345,0.164 0.625,0.166 0.726,-0.335 0.089,-0.441 0.141,-0.749 -0.435,-0.876 -1.048,-0.233 -2.08,-0.532 -3.118,-0.803 -0.468,-0.817 -1.127,-1.531 -1.338,-2.487 2.059,-0.39 3.525,0.577 4.76,2.079 0.063,0.076 0.175,0.115 0.23,0.195 0.297,0.429 0.582,0.32 0.913,0.028 0.386,-0.34 0.29,-0.613 -0.041,-0.914 -0.571,-0.521 -1.1,-1.095 -1.706,-1.571 -0.419,-0.329 -0.364,-0.56 -0.044,-0.873 0.577,-0.565 1.15,-1.133 1.72,-1.705 0.181,-0.178 0.481,-0.376 0.135,-0.641 z" />
        </g>
      </g>
    </g>
  </g>
</svg>
