<svg xmlns="http://www.w3.org/2000/svg" width="220" height="118" viewBox="0 0 220 118"><path d="M125.348 109.105l-3.966 8.744h1.001l1.034-2.304h4.728l1.022 2.304h1.045l-3.941-8.744h-.923zm-35.564.057v8.687h.941v-7.011l3.177 4.642h.048l3.142-4.668v7.037h1.003v-8.687h-1.003l-3.158 4.737-3.16-4.737h-.99zm10.749 0v8.687h6.332v-.884h-5.354v-3.04h4.744v-.896h-4.744v-2.955h5.301v-.912h-6.279zm8.314 0v8.687h3.006c2.73 0 4.608-1.9 4.608-4.332v-.025c0-2.45-1.878-4.33-4.608-4.33h-3.006zm9.773 0v8.687h.976v-8.687h-.976zm-8.795.912h2.028c2.201 0 3.602 1.515 3.602 3.443v.023c0 1.907-1.402 3.4-3.602 3.4h-2.028v-6.866zm15.97.172l1.958 4.431h-3.938l1.98-4.43zM81.125 0v57.767h57.746V0H81.125zm2.28 2.263h53.208v16.222h-36.58v2.279h36.58V37h-36.58v2.268h36.58v16.225H83.406V2.263zm74.685 67.56c-5.145 0-8.928 3.166-8.928 7.267v.094c0 4.194 2.693 6.448 9.342 7.8 6.297 1.257 7.838 2.954 7.838 5.893v.074c0 3.166-2.854 5.508-6.993 5.508-4.088 0-6.884-1.31-9.95-4.113l-1.335 1.54c3.327 2.954 6.74 4.42 11.17 4.419 5.336 0 9.168-3.084 9.168-7.543v-.099c0-4.023-2.685-6.33-9.099-7.628-6.553-1.33-8.077-3.126-8.077-6.06v-.058c0-2.902 2.689-5.239 6.77-5.239 3.032 0 5.659.872 8.256 3.133l1.312-1.63c-2.796-2.247-5.447-3.358-9.474-3.358zm24.907 0c-5.133 0-8.887 3.166-8.887 7.267v.094c0 4.194 2.689 6.448 9.318 7.8 6.313 1.257 7.86 2.954 7.86 5.893v.074c0 3.166-2.864 5.508-7.036 5.508-4.044 0-6.877-1.31-9.914-4.113l-1.34 1.54c3.32 2.954 6.713 4.42 11.14 4.419 5.357 0 9.176-3.084 9.176-7.543v-.099c0-4.023-2.68-6.33-9.085-7.628-6.58-1.33-8.066-3.126-8.066-6.06v-.058c0-2.902 2.696-5.239 6.756-5.239 3.05 0 5.66.872 8.282 3.133l1.284-1.63c-2.8-2.247-5.444-3.358-9.488-3.358zM0 70.208v27.696h19.9v-1.903H2.054V84.895h15.864v-1.894H2.053V72.113H19.69v-1.905H0zm26.518 0v27.699h9.21c8.696 0 14.715-6.046 14.715-13.84v-.084c0-7.79-6.02-13.775-14.715-13.775h-9.21zm31.216 0v27.699h2.051v-27.7h-2.05zm10.56 0v27.699h2.059v-10.33h7.473c5.768 0 10.793-2.996 10.793-8.814v-.078c0-5.355-4.17-8.477-10.272-8.477H68.295zm26.432 0v27.699h2.06V86.433h9.052l8.811 11.474h2.631l-9.14-11.817c4.656-.633 8.114-3.3 8.114-7.916v-.076c0-1.981-.805-3.85-2.122-5.149-1.659-1.668-4.383-2.741-7.776-2.741h-11.63zm28.62 0v27.696h19.886v-1.903h-17.826V84.895h15.847v-1.894h-15.847V72.113h17.615v-1.905h-19.676zm76.742 0v27.696H220v-1.903h-17.861V84.895h15.893v-1.894h-15.893V72.113h17.658v-1.905h-19.71zM28.569 72.113h7.159c7.705 0 12.585 5.377 12.585 11.956v.078c0 6.616-4.88 11.856-12.585 11.856h-7.159v-23.89zm41.786 0h7.826c4.987 0 8.385 2.3 8.385 6.692v.073c0 4.123-3.477 6.809-8.622 6.809h-7.59V72.113zm26.43 0h9.452c5.026 0 7.954 2.347 7.954 6.06v.081c0 3.983-3.444 6.328-8.067 6.328v.002h-9.338v-12.47z"/></svg>