<svg xmlns="http://www.w3.org/2000/svg" width="310" height="159" viewBox="0 0 310 159"><g fill="#68a8c3"><path d="M121.853 1.353v66.29h66.293V1.353h-66.293zm63.688 21.224h-41.977v2.606h41.977v18.628h-41.977v2.607h41.977v18.62h-61.083V3.958h61.083v18.619z"/><path d="M189.147 68.642h-68.293V.352h68.293v68.29zm-66.294-2h64.293V2.352h-64.293v64.29zm63.689-.605h-63.083V2.958h63.083v20.618h-41.978v.606h41.978V44.81h-41.978v.607h41.978v20.62zm-61.083-2h59.083v-16.62h-41.978V42.81h41.978V26.183h-41.978v-4.606h41.978V4.958h-59.083v59.079z"/></g><g fill="#fff"><path d="M.749 93.433h27.629v2.663H3.634v15.258h22.248v2.662H3.634v15.589h25.022v2.663H.749V93.433z"/><path d="M29.03 132.643H.374V93.058h28.379v3.413H4.009v14.508h22.248v3.412H4.009v14.839h25.022v3.413zm-27.906-.75H28.28v-1.913H3.259v-16.339h22.248v-1.912H3.259V95.721h24.745v-1.913H1.124v38.085zM37.925 93.433H50.85c12.207 0 20.639 8.378 20.639 19.307v.11c0 10.93-8.433 19.418-20.639 19.418H37.925V93.433zm12.926 36.172c10.819 0 17.643-7.378 17.643-16.645v-.11c0-9.209-6.824-16.754-17.643-16.754H40.81v33.509h10.041z"/><path d="M50.851 132.643h-13.3V93.058h13.3c12.176 0 21.014 8.277 21.014 19.683v.109c0 11.469-8.838 19.793-21.014 19.793zm-12.551-.75h12.55c11.742 0 20.264-8.009 20.264-19.043v-.109c0-10.971-8.522-18.933-20.264-18.933H38.3v38.085zm12.551-1.913H40.435V95.721h10.416c10.44 0 18.018 7.204 18.018 17.129v.11c0 10.021-7.409 17.02-18.018 17.02zm-9.666-.75h9.666c10.167 0 17.268-6.69 17.268-16.27v-.11c0-9.49-7.262-16.379-17.268-16.379h-9.666v32.759zM81.704 93.433h2.886v38.835h-2.886V93.433z"/><path d="M84.965 132.643h-3.636V93.058h3.636v39.585zm-2.886-.75h2.136V93.808h-2.136v38.085zM96.518 93.433h14.092c8.544 0 14.423 4.383 14.423 11.872v.11c0 8.156-7.045 12.372-15.145 12.372H99.403v14.48h-2.886V93.433zm13.537 21.692c7.212 0 12.095-3.771 12.095-9.543v-.11c0-6.159-4.773-9.376-11.763-9.376H99.403v19.029h10.652z"/><path d="M99.779 132.643h-3.636V93.058h14.467c8.99 0 14.798 4.808 14.798 12.247v.11c0 8.806-7.795 12.747-15.52 12.747h-10.11v14.481zm-2.886-.75h2.136v-14.48h10.86c7.352 0 14.77-3.71 14.77-11.997v-.11c0-7.092-5.383-11.497-14.048-11.497H96.894v38.084zm13.162-16.393H99.028V95.721h11.359c7.6 0 12.138 3.646 12.138 9.751v.11c.001 5.933-5.011 9.918-12.47 9.918zm-10.276-.75h10.277c7.01 0 11.72-3.685 11.72-9.168v-.11c0-5.636-4.257-9.001-11.388-9.001H99.779v18.279zM133.584 93.433h16.311c4.771 0 8.599 1.497 10.929 3.828 1.83 1.831 2.941 4.439 2.941 7.212v.11c0 6.493-4.829 10.208-11.374 11.097l12.815 16.588h-3.662l-12.372-16.088h-12.705v16.088h-2.884V93.433zm15.978 20.139c6.491 0 11.318-3.273 11.318-8.875v-.113c0-5.215-4.107-8.487-11.153-8.487h-13.259v17.476h13.094z"/><path d="M165.97 132.643h-4.609l-12.373-16.088h-12.145v16.088h-3.634V93.058h16.686c4.681 0 8.656 1.398 11.195 3.938 1.938 1.939 3.051 4.665 3.051 7.477v.11c0 6.005-4.12 10.221-11.062 11.372l12.891 16.688zm-4.24-.75h2.713l-12.745-16.497.643-.088c6.918-.938 11.049-4.948 11.049-10.725v-.11c0-2.614-1.032-5.146-2.832-6.947-2.396-2.397-6.184-3.718-10.664-3.718h-15.936v38.085h2.134v-16.088h13.264l12.374 16.088zm-12.168-17.946h-13.469V95.721h13.634c7.111 0 11.528 3.396 11.528 8.862v.113c0 5.533-4.699 9.251-11.693 9.251zm-12.719-.75h12.719c6.648 0 10.943-3.337 10.943-8.5v-.113c0-5.08-4.029-8.112-10.778-8.112h-12.884v16.725z"/><g><path d="M173.699 93.433h27.629v2.663h-24.743v15.258h22.246v2.662h-22.246v15.589h25.021v2.663h-27.907V93.433z"/><path d="M201.982 132.643h-28.657V93.058h28.379v3.413h-24.743v14.508h22.246v3.412h-22.246v14.839h25.021v3.413zm-27.908-.75h27.157v-1.913H176.21v-16.339h22.246v-1.912H176.21V95.721h24.743v-1.913h-26.879v38.085z"/></g><g><path d="M208.38 126.609l1.886-2.164c4.271 3.941 8.211 5.771 13.926 5.771 5.824 0 9.818-3.273 9.818-7.712v-.11c0-4.105-2.162-6.491-10.984-8.268-9.32-1.887-13.092-5.047-13.092-10.93v-.11c0-5.771 5.271-10.207 12.482-10.207 5.658 0 9.376 1.553 13.314 4.716l-1.83 2.274c-3.661-3.163-7.324-4.385-11.595-4.385-5.715 0-9.488 3.273-9.488 7.324v.111c0 4.104 2.108 6.603 11.318 8.487 8.987 1.83 12.761 5.05 12.761 10.709v.11c0 6.27-5.382 10.595-12.872 10.595-6.214.002-10.984-2.049-15.644-6.211z"/><path d="M224.025 133.197c-6.107 0-11.01-1.945-15.895-6.309l-.276-.246 2.383-2.734.283.262c4.423 4.082 8.256 5.672 13.672 5.672 5.561 0 9.443-3.017 9.443-7.337v-.11c0-3.729-1.702-6.092-10.684-7.9-9.513-1.925-13.393-5.198-13.393-11.297v-.11c0-6.033 5.527-10.582 12.857-10.582 5.451 0 9.25 1.346 13.549 4.799l.293.234-2.309 2.87-.294-.254c-3.437-2.97-6.938-4.294-11.35-4.294-5.28 0-9.113 2.923-9.113 6.949v.111c0 3.804 1.756 6.225 11.019 8.12 9.154 1.864 13.061 5.177 13.061 11.076v.11c.001 6.459-5.447 10.97-13.246 10.97zm-15.118-6.622c4.646 4.059 9.323 5.872 15.117 5.872 7.358 0 12.497-4.202 12.497-10.22v-.11c0-5.471-3.727-8.563-12.461-10.342-8.578-1.755-11.618-4.072-11.618-8.854v-.111c0-4.461 4.148-7.699 9.863-7.699 4.479 0 8.056 1.306 11.544 4.225l1.352-1.681c-4.031-3.161-7.648-4.399-12.785-4.399-6.902 0-12.107 4.227-12.107 9.832v.11c0 5.663 3.706 8.723 12.791 10.563 8.332 1.678 11.285 3.937 11.285 8.635v.11c0 4.686-4.287 8.087-10.193 8.087-5.437 0-9.488-1.63-13.896-5.61l-1.389 1.592z"/></g><g><path d="M243.335 126.609l1.888-2.164c4.272 3.941 8.21 5.771 13.926 5.771 5.825 0 9.82-3.273 9.82-7.712v-.11c0-4.105-2.165-6.491-10.986-8.268-9.319-1.887-13.094-5.047-13.094-10.93v-.11c0-5.771 5.271-10.207 12.484-10.207 5.658 0 9.374 1.553 13.314 4.716l-1.831 2.274c-3.662-3.163-7.323-4.385-11.596-4.385-5.714 0-9.486 3.273-9.486 7.324v.111c0 4.104 2.107 6.603 11.317 8.487 8.988 1.83 12.761 5.05 12.761 10.709v.11c0 6.27-5.383 10.595-12.871 10.595-6.212.002-10.984-2.049-15.646-6.211z"/><path d="M258.982 133.197c-6.106 0-11.01-1.945-15.896-6.309l-.276-.246 2.385-2.734.283.262c4.425 4.082 8.258 5.672 13.672 5.672 5.562 0 9.445-3.017 9.445-7.337v-.11c0-3.728-1.703-6.091-10.686-7.9-9.514-1.926-13.395-5.199-13.395-11.297v-.11c0-6.033 5.528-10.582 12.859-10.582 5.448 0 9.247 1.346 13.549 4.799l.293.234-2.31 2.869-.294-.253c-3.438-2.97-6.938-4.294-11.351-4.294-5.279 0-9.111 2.923-9.111 6.949v.111c0 3.804 1.756 6.225 11.018 8.12 9.154 1.863 13.061 5.177 13.061 11.076v.11c0 6.459-5.448 10.97-13.246 10.97zm-15.119-6.622c4.647 4.059 9.325 5.872 15.119 5.872 7.357 0 12.496-4.202 12.496-10.22v-.11c0-5.471-3.727-8.563-12.461-10.342-8.577-1.755-11.617-4.072-11.617-8.854v-.111c0-4.461 4.147-7.699 9.861-7.699 4.479 0 8.056 1.306 11.545 4.225l1.353-1.681c-4.033-3.161-7.65-4.399-12.785-4.399-6.903 0-12.109 4.227-12.109 9.832v.11c0 5.662 3.706 8.723 12.793 10.563 8.333 1.678 11.287 3.938 11.287 8.635v.11c0 4.686-4.288 8.087-10.195 8.087-5.435 0-9.486-1.63-13.896-5.611l-1.391 1.593z"/></g><g><path d="M281.344 93.433h27.629v2.663H284.23v15.258h22.246v2.662H284.23v15.589h25.021v2.663h-27.907V93.433z"/><path d="M309.626 132.643h-28.657V93.058h28.379v3.413h-24.743v14.508h22.246v3.412h-22.246v14.839h25.021v3.413zm-27.907-.75h27.157v-1.913h-25.021v-16.339h22.246v-1.912h-22.246V95.721h24.743v-1.913h-26.879v38.085z"/></g><g><path d="M127.166 146.103h1.391l4.434 6.642 4.433-6.642h1.391v12.17h-1.374v-9.857l-4.434 6.52h-.069l-4.433-6.502v9.84h-1.339v-12.171z"/><path d="M139.189 158.648h-2.124v-9.014l-3.86 5.676h-.396l-.181-.164-3.748-5.497v8.999h-2.089v-12.92h1.966l4.233 6.341 4.232-6.341h1.967v12.92zm-1.374-.75h.624v-11.42h-.815l-4.633 6.942-4.634-6.942h-.815v11.42h.589v-10.681l4.842 7.103 4.844-7.123v10.701zM142.252 146.103h8.797v1.252h-7.423v4.155h6.641v1.252h-6.641v4.259h7.51v1.252h-8.884v-12.17z"/><path d="M151.511 158.648h-9.634v-12.92h9.547v2.002h-7.423v3.405h6.641v2.002h-6.641v3.509h7.51v2.002zm-8.884-.75h8.134v-.502h-7.51v-5.009h6.641v-.502h-6.641v-4.905h7.423v-.502h-8.047v11.42zM153.897 146.103h4.225c3.824 0 6.467 2.626 6.467 6.05v.035c0 3.425-2.643 6.085-6.467 6.085h-4.225v-12.17zm4.225 10.9c3.076 0 5.041-2.086 5.041-4.78v-.035c0-2.694-1.965-4.815-5.041-4.815h-2.852v9.631h2.852z"/><path d="M158.122 158.648h-4.6v-12.92h4.6c3.965 0 6.842 2.702 6.842 6.425 0 3.778-2.877 6.495-6.842 6.495zm-3.85-.75h3.85c3.53 0 6.092-2.401 6.092-5.71 0-3.323-2.562-5.71-6.092-5.71h-3.85v11.42zm3.85-.52h-3.227v-10.381h3.227c3.139 0 5.416 2.183 5.416 5.19 0 3.071-2.227 5.191-5.416 5.191zm-2.476-.75h2.477c2.747 0 4.666-1.812 4.666-4.405 0-2.649-1.919-4.476-4.666-4.476h-2.477v8.881z"/><g><path d="M167.61 146.103h1.373v12.17h-1.373v-12.17z"/><path d="M169.358 158.648h-2.123v-12.92h2.123v12.92zm-1.373-.75h.623v-11.42h-.623v11.42z"/></g><g><path d="M177.049 146.016h1.286l5.545 12.257h-1.477l-1.426-3.217h-6.623l-1.443 3.217h-1.407l5.545-12.257zm3.39 7.807l-2.765-6.206-2.78 6.206h5.545z"/><path d="M184.461 158.648h-2.302l-1.426-3.217h-6.136l-1.443 3.217h-2.231l5.884-13.007h1.771l5.883 13.007zm-1.813-.75h.651l-5.206-11.507h-.802l-5.206 11.507h.583l1.443-3.217h7.11l1.427 3.217zm-1.632-3.7h-6.701l3.361-7.5 3.34 7.5zm-5.543-.75h4.389l-2.188-4.912-2.201 4.912z"/></g></g></g></svg>