<svg xmlns="http://www.w3.org/2000/svg" width="188" height="100" viewBox="0 0 188 100"><path d="M69.498 0v49.018h49V0h-49zm1.936 1.92h45.148v13.766H85.543v1.933h31.039v13.777H85.543v1.924h31.039v13.768H71.434V1.92zm63.373 57.328c-4.366 0-7.577 2.686-7.577 6.166v.08c0 3.56 2.286 5.471 7.928 6.62 5.343 1.065 6.65 2.505 6.65 5v.062c0 2.687-2.421 4.674-5.933 4.674-3.469 0-5.841-1.113-8.443-3.49l-1.133 1.306c2.823 2.507 5.72 3.751 9.478 3.75 4.528 0 7.78-2.616 7.78-6.4v-.084c0-3.414-2.28-5.372-7.721-6.473-5.561-1.129-6.854-2.653-6.854-5.143v-.048c0-2.463 2.282-4.446 5.745-4.446 2.573 0 4.801.74 7.005 2.658l1.114-1.382c-2.373-1.907-4.622-2.85-8.04-2.85zm21.134 0c-4.356 0-7.54 2.686-7.54 6.166v.08c0 3.56 2.28 5.471 7.906 6.62 5.357 1.065 6.67 2.505 6.67 5v.062c0 2.687-2.431 4.674-5.971 4.674-3.431 0-5.835-1.113-8.412-3.49l-1.137 1.306c2.816 2.507 5.696 3.751 9.453 3.75 4.545 0 7.785-2.616 7.785-6.4v-.084c0-3.414-2.274-5.372-7.709-6.473-5.583-1.129-6.843-2.653-6.843-5.143v-.048c0-2.463 2.287-4.446 5.732-4.446 2.588 0 4.802.74 7.027 2.658l1.09-1.382c-2.376-1.907-4.62-2.85-8.05-2.85zm-155.28.326v23.502h16.886v-1.615H2.402v-9.424h13.461V70.43H2.403V61.19h14.964v-1.617H.66zm22.501 0v23.504h7.815c7.379 0 12.486-5.13 12.486-11.744v-.07c0-6.61-5.107-11.69-12.486-11.69h-7.815zm26.488 0v23.504h1.74V59.574h-1.74zm8.961 0v23.504h1.746v-8.766H66.7c4.894 0 9.158-2.541 9.158-7.478v-.066c0-4.544-3.538-7.194-8.716-7.194h-8.53zm22.428 0v23.504h1.748v-9.736h7.682l7.476 9.736h2.233l-7.756-10.027c3.95-.537 6.885-2.8 6.885-6.717v-.064c0-1.681-.683-3.268-1.801-4.37-1.407-1.415-3.719-2.326-6.598-2.326H81.04zm24.285 0v23.502H122.2v-1.615h-15.127v-9.424h13.448V70.43h-13.448V61.19h14.948v-1.617h-16.696zm65.12 0v23.502h16.896v-1.615h-15.156v-9.424h13.486V70.43h-13.486V61.19h14.984v-1.617h-16.725zM24.901 61.191h6.075c6.538 0 10.68 4.563 10.68 10.145v.066c0 5.614-4.141 10.06-10.68 10.06h-6.075v-20.27zm35.457 0H67c4.232 0 7.115 1.951 7.115 5.678v.063c0 3.498-2.95 5.777-7.316 5.777h-6.44V61.191zm22.428 0h8.02c4.265 0 6.75 1.992 6.75 5.143v.068c0 3.38-2.923 5.37-6.846 5.37v.001h-7.924V61.191zm24.236 31.39L103.658 100h.85l.877-1.955h4.011l.868 1.955h.886l-3.343-7.42h-.784zm-30.177.048V100h.799v-5.95l2.695 3.94h.04l2.667-3.96V100h.851v-7.371h-.851l-2.68 4.02-2.681-4.02h-.84zm9.12 0V100h5.374v-.75h-4.543v-2.58h4.025v-.76h-4.025v-2.508h4.498v-.773H85.967zm7.055 0V100h2.551c2.317 0 3.91-1.613 3.91-3.676v-.021c0-2.08-1.593-3.674-3.91-3.674h-2.55zm8.293 0V100h.829v-7.371h-.829zm-7.462.773h1.72c1.868 0 3.057 1.286 3.057 2.922v.02c0 1.618-1.19 2.885-3.057 2.885h-1.72v-5.827zm13.55.147l1.662 3.76h-3.341l1.68-3.76z"/></svg>