<svg xmlns="http://www.w3.org/2000/svg" width="26" height="26" viewBox="0 0 26 26"><path d="M13.063 0c-4.716 0-8.54 3.822-8.54 8.475 0 4.524 7.711 16.76 8.03 17.27.127.127.255.255.445.255.191 0 .383-.063.446-.255.318-.51 8.03-12.809 8.03-17.27C21.601 3.823 17.778 0 13.063 0zm0 24.47C11.406 21.73 5.67 12.108 5.67 8.475c0-4.078 3.313-7.455 7.393-7.455 4.078 0 7.392 3.313 7.392 7.455 0 3.633-5.736 13.255-7.392 15.995z"/><path d="M13.063 4.141c-2.295 0-4.206 1.912-4.206 4.207 0 2.293 1.911 4.205 4.206 4.205 2.294 0 4.205-1.912 4.205-4.205 0-2.295-1.91-4.207-4.205-4.207zm0 7.33A3.127 3.127 0 0 1 9.94 8.347a3.128 3.128 0 0 1 3.123-3.123 3.128 3.128 0 0 1 3.122 3.123 3.126 3.126 0 0 1-3.122 3.122z"/></svg>