<?xml version="1.0" encoding="UTF-8" standalone="no"?>
<!-- Generator: Adobe Illustrator 19.0.0, SVG Export Plug-In . SVG Version: 6.00 Build 0)  -->

<svg
   xmlns:dc="http://purl.org/dc/elements/1.1/"
   xmlns:cc="http://creativecommons.org/ns#"
   xmlns:rdf="http://www.w3.org/1999/02/22-rdf-syntax-ns#"
   xmlns:svg="http://www.w3.org/2000/svg"
   xmlns="http://www.w3.org/2000/svg"
   xmlns:sodipodi="http://sodipodi.sourceforge.net/DTD/sodipodi-0.dtd"
   xmlns:inkscape="http://www.inkscape.org/namespaces/inkscape"
   version="1.1"
   id="Capa_1"
   x="0px"
   y="0px"
   viewBox="0 0 490.3 490.3"
   style="enable-background:new 0 0 490.3 490.3;"
   xml:space="preserve"
   inkscape:version="0.91 r13725"
   sodipodi:docname="logout.svg"><metadata
   id="metadata45"><rdf:RDF><cc:Work
       rdf:about=""><dc:format>image/svg+xml</dc:format><dc:type
         rdf:resource="http://purl.org/dc/dcmitype/StillImage" /></cc:Work></rdf:RDF></metadata><defs
   id="defs43" /><sodipodi:namedview
   pagecolor="#ffffff"
   bordercolor="#666666"
   borderopacity="1"
   objecttolerance="10"
   gridtolerance="10"
   guidetolerance="10"
   inkscape:pageopacity="0"
   inkscape:pageshadow="2"
   inkscape:window-width="1366"
   inkscape:window-height="745"
   id="namedview41"
   showgrid="false"
   inkscape:zoom="0.48133797"
   inkscape:cx="245.14999"
   inkscape:cy="243.07245"
   inkscape:window-x="-8"
   inkscape:window-y="-8"
   inkscape:window-maximized="1"
   inkscape:current-layer="Capa_1" />
<g
   id="g3">
	<g
   id="g5">
		
		<path
   id="path9"
   d="m 385.4,337.65 c 2.4,2.4 5.5,3.6 8.7,3.6 3.2,0 6.3,-1.2 8.7,-3.6 l 83.9,-83.9 c 4.8,-4.8 4.8,-12.5 0,-17.3 l -83.9,-83.9 c -4.8,-4.8 -12.5,-4.8 -17.3,0 -4.8,4.8 -4.8,12.5 0,17.3 l 63,63 -229.9,0 c -6.8,0 -12.3,5.5 -12.3,12.3 0,6.8 5.5,12.3 12.3,12.3 l 229.8,0 -63,63 c -4.8,4.7 -4.8,12.5 0,17.2 z M 0,121.05 0,369.25 c 0,34.2 27.9,62.1 62.1,62.1 l 200.6,0 c 34.2,0 62.1,-27.9 62.1,-62.1 l 0,-40.2 c 0,-6.8 -5.5,-12.3 -12.3,-12.3 -6.8,0 -12.3,5.5 -12.3,12.3 l 0,40.2 c 0,20.7 -16.9,37.6 -37.6,37.6 l -200.5,0 c -20.7,0 -37.6,-16.9 -37.6,-37.6 l 0,-248.2 c 0,-20.7 16.9,-37.6 37.6,-37.6 l 200.6,0 c 20.7,0 37.6,16.9 37.6,37.6 l 0,40.2 c 0,6.8 5.5,12.3 12.3,12.3 6.8,0 12.3,-5.5 12.3,-12.3 l 0,-40.2 c 0,-34.2 -27.9,-62.1 -62.1,-62.1 l -200.7,0 C 27.9,58.95 0,86.75 0,121.05 Z" />
	</g>
</g>
<g
   id="g11">
</g>
<g
   id="g13">
</g>
<g
   id="g15">
</g>
<g
   id="g17">
</g>
<g
   id="g19">
</g>
<g
   id="g21">
</g>
<g
   id="g23">
</g>
<g
   id="g25">
</g>
<g
   id="g27">
</g>
<g
   id="g29">
</g>
<g
   id="g31">
</g>
<g
   id="g33">
</g>
<g
   id="g35">
</g>
<g
   id="g37">
</g>
<g
   id="g39">
</g>
</svg>