<svg xmlns="http://www.w3.org/2000/svg" width="26" height="26" viewBox="0 0 26 26"><path d="M23.065 21.53H2.935A1.935 1.935 0 0 1 1 19.597V6.404c0-1.066.868-1.935 1.935-1.935h20.13c1.066 0 1.935.869 1.935 1.935v13.192c0 1.07-.87 1.935-1.935 1.935zM2.935 5.245c-.639 0-1.16.521-1.16 1.16v13.192c0 .642.521 1.16 1.16 1.16h20.13c.643 0 1.16-.518 1.16-1.16V6.404a1.16 1.16 0 0 0-1.16-1.16H2.935zm0 0"/><path d="M13 14.945c-.516 0-1.03-.17-1.42-.51l-9.893-8.62a.387.387 0 0 1-.034-.547.383.383 0 0 1 .544-.038l9.89 8.62c.496.43 1.33.43 1.826 0l9.885-8.616a.383.383 0 0 1 .548.038.385.385 0 0 1-.038.545l-9.885 8.615a2.162 2.162 0 0 1-1.423.513zm0 0"/></svg>