<svg xmlns="http://www.w3.org/2000/svg" width="26" height="26" viewBox="0 0 26 26"><path d="M20.29 25c-1.001 0-2.208-.25-3.533-.752-2.908-1.097-6.068-3.259-8.908-6.098-2.837-2.838-5.006-6.003-6.102-8.908-.996-2.645-.996-4.815 0-5.81.143-.14.287-.295.439-.453.906-.953 1.931-2.025 3.287-1.978.936.038 1.845.622 2.77 1.777 2.744 3.41 1.505 4.628.075 6.035l-.253.251c-.233.234-.677 1.317 3.44 5.432 1.342 1.344 2.489 2.326 3.403 2.922.577.373 1.609.941 2.03.52l.256-.257c1.407-1.43 2.622-2.66 6.03.08 1.155.93 1.738 1.832 1.774 2.77.055 1.355-1.024 2.384-1.979 3.29-.156.152-.31.296-.453.439-.49.493-1.278.74-2.272.74zM5.374 1.81c-.965 0-1.837.914-2.609 1.726-.153.166-.304.323-.454.47-.737.74-.662 2.682.193 4.954 1.057 2.801 3.158 5.864 5.917 8.62 2.76 2.759 5.818 4.859 8.62 5.916 2.27.854 4.214.93 4.952.19.15-.146.306-.296.47-.45.83-.789 1.767-1.683 1.728-2.673-.027-.682-.524-1.41-1.474-2.175-2.838-2.283-3.634-1.48-4.95-.142l-.26.26c-.631.63-1.652.492-3.038-.41-.967-.628-2.153-1.648-3.537-3.028-3.417-3.418-4.51-5.506-3.44-6.58l.258-.251C9.092 6.919 9.9 6.124 7.614 3.282c-.765-.95-1.5-1.447-2.176-1.474h-.063zm0 0"/></svg>