<svg xmlns="http://www.w3.org/2000/svg" width="27" height="22" viewBox="0 0 27 22"><path d="M11.418.094a.402.402 0 0 0-.293.091l-5 4.192c-.032.027-.053.06-.074.094H1.68C.922 4.47.3 5.09.3 5.849v2.56c0 .76.622 1.382 1.38 1.382h.787l1.068 10.734a1.532 1.532 0 0 0 1.528 1.383h16.88c.79 0 1.45-.598 1.53-1.383L24.54 9.791h.781c.761 0 1.377-.622 1.377-1.383V5.85a1.38 1.38 0 0 0-1.377-1.378H20.95c-.021-.034-.042-.067-.074-.094L15.879.185a.402.402 0 0 0-.566.051.403.403 0 0 0 .05.563l4.381 3.672H7.262L11.639.799a.4.4 0 0 0-.221-.705zM1.682 5.27h23.64c.32 0 .582.258.582.578v2.56c0 .32-.263.581-.582.581H1.682a.581.581 0 0 1-.578-.582V5.85c0-.32.259-.578.578-.578zm1.586 4.52h20.466l-1.062 10.652a.732.732 0 0 1-.729.664H5.063a.729.729 0 0 1-.731-.664L3.268 9.791zm4.435 2.246a.4.4 0 0 0-.396.402v5.797a.4.4 0 1 0 .8 0V12.44a.403.403 0 0 0-.404-.402zm3.87 0a.403.403 0 0 0-.405.402v5.797a.4.4 0 1 0 .8 0V12.44a.4.4 0 0 0-.396-.402zm3.863 0a.402.402 0 0 0-.403.402v5.797a.4.4 0 1 0 .799 0V12.44a.398.398 0 0 0-.396-.402zm3.86 0a.397.397 0 0 0-.396.402v5.797c0 .222.174.403.397.403a.4.4 0 0 0 .4-.403V12.44a.4.4 0 0 0-.4-.402z"/></svg>