<?xml version="1.0" encoding="UTF-8" standalone="no"?>
<!-- Created with Inkscape (http://www.inkscape.org/) -->

<svg
   xmlns:dc="http://purl.org/dc/elements/1.1/"
   xmlns:cc="http://creativecommons.org/ns#"
   xmlns:rdf="http://www.w3.org/1999/02/22-rdf-syntax-ns#"
   xmlns:svg="http://www.w3.org/2000/svg"
   xmlns="http://www.w3.org/2000/svg"
   xmlns:sodipodi="http://sodipodi.sourceforge.net/DTD/sodipodi-0.dtd"
   xmlns:inkscape="http://www.inkscape.org/namespaces/inkscape"
   width="188"
   height="100"
   viewBox="0 0 188 100"
   id="svg4571"
   version="1.1"
   inkscape:version="0.91 r13725"
   sodipodi:docname="logo-white.svg">
  <defs
     id="defs4573" />
  <sodipodi:namedview
     id="base"
     pagecolor="#ffffff"
     bordercolor="#666666"
     borderopacity="1.0"
     inkscape:pageopacity="0.0"
     inkscape:pageshadow="2"
     inkscape:zoom="3.959798"
     inkscape:cx="81.734086"
     inkscape:cy="42.760577"
     inkscape:document-units="px"
     inkscape:current-layer="layer1"
     showgrid="false"
     units="px"
     fit-margin-top="0"
     fit-margin-left="0"
     fit-margin-right="0"
     fit-margin-bottom="0"
     inkscape:window-width="1366"
     inkscape:window-height="745"
     inkscape:window-x="-8"
     inkscape:window-y="-8"
     inkscape:window-maximized="1"
     showborder="true"
     inkscape:showpageshadow="true" />
  <metadata
     id="metadata4576">
    <rdf:RDF>
      <cc:Work
         rdf:about="">
        <dc:format>image/svg+xml</dc:format>
        <dc:type
           rdf:resource="http://purl.org/dc/dcmitype/StillImage" />
        <dc:title></dc:title>
      </cc:Work>
    </rdf:RDF>
  </metadata>
  <g
     inkscape:label="Layer 1"
     inkscape:groupmode="layer"
     id="layer1"
     transform="translate(-209.51758,-622.36133)">
    <g
       transform="translate(-533.0757,597.4472)"
       id="g5"
       style="fill:#ffffff;fill-opacity:1">
      <g
         id="g7"
         style="fill:#ffffff;fill-opacity:1">
        <path
           style="fill:#ffffff;fill-opacity:1"
           d="M 69.498047 0 L 69.498047 49.017578 L 118.49805 49.017578 L 118.49805 0 L 69.498047 0 z M 71.433594 1.9199219 L 116.58203 1.9199219 L 116.58203 15.685547 L 85.542969 15.685547 L 85.542969 17.619141 L 116.58203 17.619141 L 116.58203 31.396484 L 85.542969 31.396484 L 85.542969 33.320312 L 116.58203 33.320312 L 116.58203 47.087891 L 71.433594 47.087891 L 71.433594 1.9199219 z M 134.80664 59.248047 C 130.44064 59.248047 127.23047 61.934062 127.23047 65.414062 L 127.23047 65.494141 C 127.23047 69.053141 129.5162 70.965281 135.1582 72.113281 C 140.5012 73.179281 141.80859 74.619281 141.80859 77.113281 L 141.80859 77.175781 C 141.80859 79.862781 139.387 81.849609 135.875 81.849609 C 132.406 81.849609 130.03364 80.737375 127.43164 78.359375 L 126.29883 79.666016 C 129.12183 82.173016 132.01834 83.417016 135.77734 83.416016 C 140.30534 83.416016 143.55664 80.799625 143.55664 77.015625 L 143.55664 76.931641 C 143.55664 73.517641 141.27794 71.559984 135.83594 70.458984 C 130.27494 69.329984 128.98242 67.806406 128.98242 65.316406 L 128.98242 65.267578 C 128.98242 62.804578 131.26356 60.822266 134.72656 60.822266 C 137.29956 60.822266 139.52842 61.561469 141.73242 63.480469 L 142.8457 62.097656 C 140.47271 60.190656 138.22364 59.248047 134.80664 59.248047 z M 155.94141 59.248047 C 151.58541 59.248047 148.40039 61.934062 148.40039 65.414062 L 148.40039 65.494141 C 148.40039 69.053141 150.68164 70.965281 156.30664 72.113281 C 161.66364 73.179281 162.97656 74.619281 162.97656 77.113281 L 162.97656 77.175781 C 162.97656 79.862781 160.54586 81.849609 157.00586 81.849609 C 153.57486 81.849609 151.17075 80.737375 148.59375 78.359375 L 147.45703 79.666016 C 150.27303 82.173016 153.15316 83.417016 156.91016 83.416016 C 161.45516 83.416016 164.69531 80.799625 164.69531 77.015625 L 164.69531 76.931641 C 164.69531 73.517641 162.42133 71.559984 156.98633 70.458984 C 151.40333 69.329984 150.14258 67.806406 150.14258 65.316406 L 150.14258 65.267578 C 150.14258 62.804578 152.43 60.822266 155.875 60.822266 C 158.463 60.822266 160.67734 61.561469 162.90234 63.480469 L 163.99219 62.097656 C 161.61619 60.190656 159.37241 59.248047 155.94141 59.248047 z M 0.66015625 59.574219 L 0.66015625 83.076172 L 17.546875 83.076172 L 17.546875 81.460938 L 2.4023438 81.460938 L 2.4023438 72.037109 L 15.863281 72.037109 L 15.863281 70.429688 L 2.4023438 70.429688 L 2.4023438 61.191406 L 17.367188 61.191406 L 17.367188 59.574219 L 0.66015625 59.574219 z M 23.162109 59.574219 L 23.162109 83.078125 L 30.976562 83.078125 C 38.355562 83.078125 43.462891 77.947984 43.462891 71.333984 L 43.462891 71.263672 C 43.462891 64.653672 38.355563 59.574219 30.976562 59.574219 L 23.162109 59.574219 z M 49.650391 59.574219 L 49.650391 83.078125 L 51.390625 83.078125 L 51.390625 59.574219 L 49.650391 59.574219 z M 58.611328 59.574219 L 58.611328 83.078125 L 60.357422 83.078125 L 60.357422 74.3125 L 66.699219 74.3125 C 71.593219 74.3125 75.857422 71.770984 75.857422 66.833984 L 75.857422 66.767578 C 75.857422 62.223578 72.318625 59.574219 67.140625 59.574219 L 58.611328 59.574219 z M 81.039062 59.574219 L 81.039062 83.078125 L 82.787109 83.078125 L 82.787109 73.341797 L 90.46875 73.341797 L 97.945312 83.078125 L 100.17773 83.078125 L 92.421875 73.050781 C 96.372875 72.513781 99.306641 70.250984 99.306641 66.333984 L 99.306641 66.269531 C 99.306641 64.588531 98.623859 63.002391 97.505859 61.900391 C 96.098859 60.485391 93.787213 59.574219 90.908203 59.574219 L 81.039062 59.574219 z M 105.32422 59.574219 L 105.32422 83.076172 L 122.19922 83.076172 L 122.19922 81.460938 L 107.07227 81.460938 L 107.07227 72.037109 L 120.51953 72.037109 L 120.51953 70.429688 L 107.07227 70.429688 L 107.07227 61.191406 L 122.01953 61.191406 L 122.01953 59.574219 L 105.32422 59.574219 z M 170.44336 59.574219 L 170.44336 83.076172 L 187.33984 83.076172 L 187.33984 81.460938 L 172.18359 81.460938 L 172.18359 72.037109 L 185.66992 72.037109 L 185.66992 70.429688 L 172.18359 70.429688 L 172.18359 61.191406 L 187.16797 61.191406 L 187.16797 59.574219 L 170.44336 59.574219 z M 24.902344 61.191406 L 30.976562 61.191406 C 37.514563 61.191406 41.65625 65.753938 41.65625 71.335938 L 41.65625 71.402344 C 41.65625 77.016344 37.515562 81.462891 30.976562 81.462891 L 24.902344 81.462891 L 24.902344 61.191406 z M 60.359375 61.191406 L 67 61.191406 C 71.232 61.191406 74.115234 63.142141 74.115234 66.869141 L 74.115234 66.931641 C 74.115234 70.429641 71.164828 72.708984 66.798828 72.708984 L 60.359375 72.708984 L 60.359375 61.191406 z M 82.787109 61.191406 L 90.806641 61.191406 C 95.071641 61.191406 97.556641 63.182984 97.556641 66.333984 L 97.556641 66.402344 C 97.556641 69.781344 94.633938 71.771484 90.710938 71.771484 L 90.710938 71.773438 L 82.787109 71.773438 L 82.787109 61.191406 z M 107.02344 92.580078 L 103.6582 100 L 104.50781 100 L 105.38477 98.044922 L 109.39648 98.044922 L 110.26367 100 L 111.15039 100 L 107.80664 92.580078 L 107.02344 92.580078 z M 76.845703 92.628906 L 76.845703 100 L 77.644531 100 L 77.644531 94.050781 L 80.339844 97.990234 L 80.380859 97.990234 L 83.046875 94.029297 L 83.046875 100 L 83.898438 100 L 83.898438 92.628906 L 83.046875 92.628906 L 80.367188 96.648438 L 77.685547 92.628906 L 76.845703 92.628906 z M 85.966797 92.628906 L 85.966797 100 L 91.339844 100 L 91.339844 99.25 L 86.796875 99.25 L 86.796875 96.669922 L 90.822266 96.669922 L 90.822266 95.910156 L 86.796875 95.910156 L 86.796875 93.402344 L 91.294922 93.402344 L 91.294922 92.628906 L 85.96875 92.628906 L 85.966797 92.628906 z M 93.021484 92.628906 L 93.021484 100 L 95.572266 100 C 97.889266 100 99.482422 98.387219 99.482422 96.324219 L 99.482422 96.302734 C 99.482422 94.223734 97.889266 92.628906 95.572266 92.628906 L 93.021484 92.628906 z M 101.31445 92.628906 L 101.31445 100 L 102.14258 100 L 102.14258 92.628906 L 101.31445 92.628906 z M 93.851562 93.402344 L 95.572266 93.402344 C 97.440266 93.402344 98.628906 94.688219 98.628906 96.324219 L 98.628906 96.34375 C 98.628906 97.96175 97.439266 99.228516 95.572266 99.228516 L 93.851562 99.228516 L 93.851562 93.402344 z M 107.40234 93.548828 L 109.06445 97.308594 L 105.72266 97.308594 L 107.40234 93.548828 z "
           transform="translate(742.59328,24.91413)"
           id="path9" />
      </g>
      <g
         id="g29"
         style="fill:#ffffff;fill-opacity:1" />
    </g>
  </g>
</svg>
