<?xml version="1.0" encoding="UTF-8" standalone="no"?>
<!-- Generator: Adobe Illustrator 15.0.2, SVG Export Plug-In . SVG Version: 6.00 Build 0)  -->

<svg
   xmlns:dc="http://purl.org/dc/elements/1.1/"
   xmlns:cc="http://creativecommons.org/ns#"
   xmlns:rdf="http://www.w3.org/1999/02/22-rdf-syntax-ns#"
   xmlns:svg="http://www.w3.org/2000/svg"
   xmlns="http://www.w3.org/2000/svg"
   xmlns:sodipodi="http://sodipodi.sourceforge.net/DTD/sodipodi-0.dtd"
   xmlns:inkscape="http://www.inkscape.org/namespaces/inkscape"
   version="1.1"
   id="Слой_1"
   x="0px"
   y="0px"
   width="340"
   height="255"
   viewBox="0 0 340.00001 255"
   enable-background="new 0 0 340.214 255.12"
   xml:space="preserve"
   inkscape:version="0.91 r13725"
   sodipodi:docname="4mama.svg"><metadata
   id="metadata23"><rdf:RDF><cc:Work
       rdf:about=""><dc:format>image/svg+xml</dc:format><dc:type
         rdf:resource="http://purl.org/dc/dcmitype/StillImage" /><dc:title /></cc:Work></rdf:RDF></metadata><defs
   id="defs21" /><sodipodi:namedview
   pagecolor="#ffffff"
   bordercolor="#666666"
   borderopacity="1"
   objecttolerance="10"
   gridtolerance="10"
   guidetolerance="10"
   inkscape:pageopacity="0"
   inkscape:pageshadow="2"
   inkscape:window-width="1366"
   inkscape:window-height="745"
   id="namedview19"
   showgrid="false"
   fit-margin-top="0"
   fit-margin-left="0"
   fit-margin-right="0"
   fit-margin-bottom="0"
   inkscape:zoom="0.92505489"
   inkscape:cx="-24.476058"
   inkscape:cy="125.39796"
   inkscape:window-x="-8"
   inkscape:window-y="-8"
   inkscape:window-maximized="1"
   inkscape:current-layer="Слой_1" />

<g
   id="XMLID_287_"
   transform="translate(-0.92,-10.119995)">
	<g
   id="g6">
		<path
   id="XMLID_183_"
   d="m 266.903,114.431 c 0,0 -4.492,-6.729 -9.581,0.773 0,0 -2.706,5.856 -6.416,7.341 -4.272,1.706 -9.716,-0.979 -11.106,-1.801 -4.249,-2.504 -7.682,-6.062 -7.682,-6.062 l -0.624,2.208 -2.165,1.701 c 0,0 9.023,1.731 15.106,8.967 0,0 4.562,6.579 10.322,6.569 l 1.376,5.569 0.921,0.09 -1.381,-5.719 c 0.303,-0.038 0.608,-0.092 0.916,-0.17 l 1.481,5.995 0.934,0.085 -1.542,-6.355 c 0.986,-0.38 1.992,-0.988 3.001,-1.884 3.414,-3.026 5.816,-14.703 5.816,-14.703 l 2.227,-1.751 -1.603,-0.853 z m -17.094,12.856 c 0,0 1.682,-0.411 4.211,-3.412 2.135,-2.504 5.531,-2.163 5.584,1.265 0.076,4.129 -5.972,6.488 -9.795,2.147 z m 12.871,-11.341 c -0.576,0.406 -1.355,0.261 -1.756,-0.301 -0.399,-0.563 -0.266,-1.34 0.302,-1.731 0.568,-0.406 1.355,-0.266 1.755,0.296 0.402,0.562 0.265,1.345 -0.301,1.736 z"
   inkscape:connector-curvature="0"
   style="fill:#ffffff" />
		<path
   id="XMLID_179_"
   d="m 325.019,68.371 -5.451,-0.326 -3.53,-2.86 c 0,0 -1.457,9.609 -5.453,18.446 -3.323,7.381 -8.185,13.719 -7.532,12.65 1.699,-2.79 -4.648,-9.464 -4.648,-9.464 0,0 -4.492,11.446 -9.616,11.762 -5.135,0.321 -12.826,-4.13 -12.826,-4.13 -16.787,-6.388 -16.357,9.539 -16.357,9.539 l -1.606,3.182 5.61,0.316 c 0,0 16.508,15.458 25.624,17.085 l -3.974,11.386 1.836,0 3.974,-11.196 c 0.665,0.042 1.309,0.057 1.93,0.041 l -3.895,11.155 1.841,0 4.008,-11.296 c 16.219,-2.093 15.959,-24.808 15.959,-24.808 1.523,-18.526 14.106,-31.482 14.106,-31.482 z m -56.833,34.187 c -1.373,0 -2.483,-1.099 -2.483,-2.459 0,-1.365 1.11,-2.468 2.483,-2.468 1.371,0 2.481,1.104 2.481,2.468 0,1.36 -1.11,2.459 -2.481,2.459 z m 19.908,12.42 c -8.479,-1.882 -5.854,-9.906 1.439,-13.825 8.713,-4.688 8.857,-9.007 8.857,-9.007 8.835,11.546 -0.083,25.095 -10.296,22.832 z"
   inkscape:connector-curvature="0"
   style="fill:#ffffff" />
		<g
   id="XMLID_170_">
			<path
   id="XMLID_178_"
   d="m 123.337,133.289 c -4.586,0 -9.06,2.272 -11.811,5.891 -2.752,-3.904 -6.491,-5.891 -11.124,-5.891 -3.344,0 -6.769,1.585 -9.297,4.185 l 0,-3.046 -9.51,0 0,40.27 9.51,0 0,-19.812 c 0,-6.418 0.896,-12.972 7.492,-12.972 4.993,0 6.009,4.602 6.009,11.507 l 0,21.276 9.521,0 0,-19.812 c 0,-6.734 0.89,-12.972 7.405,-12.972 4.264,0 6.096,3.026 6.096,10.121 l 0,22.662 9.51,0 0,-23.886 c -0.001,-11.625 -4.645,-17.521 -13.801,-17.521 z"
   inkscape:connector-curvature="0"
   style="fill:#ffffff" />
			<path
   id="XMLID_175_"
   d="m 173.568,138.954 c -3.291,-3.669 -7.618,-5.665 -12.423,-5.665 -12.482,0 -19.228,10.833 -19.228,21.029 0,10.779 6.69,21.684 19.479,21.684 4.61,0 8.918,-1.968 12.173,-5.49 l 0,4.186 9.521,0 0,-40.27 -9.521,0 0,4.526 z m 0.411,15.61 c 0,6.368 -3.536,12.806 -11.438,12.806 -7.287,0 -11.104,-6.442 -11.104,-12.806 0,-6.282 3.817,-12.65 11.104,-12.65 7.901,0 11.438,6.354 11.438,12.65 z"
   inkscape:connector-curvature="0"
   style="fill:#ffffff" />
			<path
   id="XMLID_174_"
   d="m 232.086,133.289 c -4.593,0 -9.064,2.272 -11.817,5.891 -2.751,-3.904 -6.479,-5.891 -11.113,-5.891 -3.356,0 -6.778,1.585 -9.298,4.189 l 0,-3.051 -9.521,0 0,40.27 9.521,0 0,-19.812 c 0,-6.418 0.886,-12.972 7.481,-12.972 4.993,0 6.01,4.602 6.01,11.507 l 0,21.276 9.52,0 0,-19.812 c 0,-6.734 0.901,-12.972 7.403,-12.972 4.277,0 6.096,3.026 6.096,10.121 l 0,22.662 9.519,0 0,-23.886 c -0.001,-11.624 -4.645,-17.52 -13.801,-17.52 z"
   inkscape:connector-curvature="0"
   style="fill:#ffffff" />
			<path
   id="XMLID_171_"
   d="m 282.312,134.428 0,4.526 c -3.29,-3.669 -7.607,-5.665 -12.424,-5.665 -12.481,0 -19.217,10.833 -19.217,21.029 0,10.779 6.688,21.684 19.465,21.684 4.614,0 8.918,-1.968 12.176,-5.49 l 0,4.186 9.521,0 0,-40.27 -9.521,0 z m 0.41,20.136 c 0,6.368 -3.536,12.806 -11.433,12.806 -7.292,0 -11.108,-6.442 -11.108,-12.806 0,-6.282 3.816,-12.65 11.108,-12.65 7.897,0 11.433,6.354 11.433,12.65 z"
   inkscape:connector-curvature="0"
   style="fill:#ffffff" />
		</g>
		<g
   id="XMLID_167_">
			<g
   id="g16">
				<path
   id="XMLID_168_"
   d="m 17.683,160.046 -0.862,-1.177 31.563,-61.337 c 1.508,0.144 3.07,0.518 4.686,1.123 1.616,0.606 3.178,1.408 4.686,2.405 l -25.1,49.582 21.761,0 0,-20.303 c 0.861,-0.143 1.723,-0.249 2.584,-0.32 0.861,-0.071 1.687,-0.108 2.478,-0.108 0.933,0 1.848,0.037 2.747,0.108 0.898,0.071 1.778,0.178 2.64,0.32 l 0,20.303 9.91,0 c 0.142,0.784 0.251,1.567 0.323,2.352 0.07,0.783 0.107,1.567 0.107,2.351 0,0.784 -0.037,1.586 -0.107,2.403 -0.072,0.821 -0.181,1.587 -0.323,2.299 l -9.91,0 0,14.639 c -0.934,0.143 -1.815,0.23 -2.64,0.268 -0.826,0.035 -1.669,0.054 -2.531,0.054 -0.861,0 -1.742,-0.019 -2.639,-0.054 -0.899,-0.037 -1.777,-0.125 -2.639,-0.268 l 0,-14.639 -36.734,0 z"
   inkscape:connector-curvature="0"
   style="fill:#ffffff" />
			</g>
		</g>
	</g>
</g>
</svg>