<?xml version="1.0" encoding="UTF-8" standalone="no"?>
<!-- Generator: Adobe Illustrator 15.0.2, SVG Export Plug-In . SVG Version: 6.00 Build 0)  -->

<svg
   xmlns:dc="http://purl.org/dc/elements/1.1/"
   xmlns:cc="http://creativecommons.org/ns#"
   xmlns:rdf="http://www.w3.org/1999/02/22-rdf-syntax-ns#"
   xmlns:svg="http://www.w3.org/2000/svg"
   xmlns="http://www.w3.org/2000/svg"
   xmlns:sodipodi="http://sodipodi.sourceforge.net/DTD/sodipodi-0.dtd"
   xmlns:inkscape="http://www.inkscape.org/namespaces/inkscape"
   version="1.1"
   id="Слой_1"
   x="0px"
   y="0px"
   width="340"
   height="255"
   viewBox="0 0 340.00001 255"
   enable-background="new 0 0 340.214 255.12"
   xml:space="preserve"
   inkscape:version="0.91 r13725"
   sodipodi:docname="baby-box.svg"><metadata
   id="metadata241"><rdf:RDF><cc:Work
       rdf:about=""><dc:format>image/svg+xml</dc:format><dc:type
         rdf:resource="http://purl.org/dc/dcmitype/StillImage" /><dc:title></dc:title></cc:Work></rdf:RDF></metadata><defs
   id="defs239" /><sodipodi:namedview
   pagecolor="#ffffff"
   bordercolor="#666666"
   borderopacity="1"
   objecttolerance="10"
   gridtolerance="10"
   guidetolerance="10"
   inkscape:pageopacity="0"
   inkscape:pageshadow="2"
   inkscape:window-width="1366"
   inkscape:window-height="745"
   id="namedview237"
   showgrid="false"
   inkscape:zoom="0.92505489"
   inkscape:cx="170.10699"
   inkscape:cy="126.47898"
   inkscape:window-x="-8"
   inkscape:window-y="-8"
   inkscape:window-maximized="1"
   inkscape:current-layer="Слой_1" />

<g
   id="g5"
   transform="translate(-0.69684655,-0.11999512)">
	<g
   id="g7">
		<path
   stroke-miterlimit="10"
   d="m 106.547,96.765 c -1.993,22.501 -28.722,41.434 -51.22,39.443 -22.498,-1.993 -32.246,-24.157 -30.253,-46.657 1.992,-22.499 21.845,-39.122 44.345,-37.13 22.498,1.993 39.123,21.848 37.128,44.344 z"
   id="path9"
   inkscape:connector-curvature="0"
   style="fill:#ab7ab0;stroke:#ffffff;stroke-width:6;stroke-miterlimit:10" />
	</g>
	<g
   id="g11">
		<path
   d="m 106.537,96.691 c -1.993,22.501 -28.722,41.435 -51.22,39.442 C 32.819,134.14 23.071,111.976 25.065,89.477 27.057,66.978 46.91,50.355 69.409,52.347 c 22.498,1.993 39.122,21.848 37.128,44.344 z"
   id="path13"
   inkscape:connector-curvature="0"
   style="fill:#86c0d9" />
	</g>
	<g
   id="g15">
		<path
   d="m 58.244,133.266 c -0.808,-0.017 -1.609,-0.059 -2.406,-0.129 l -0.478,-0.046 0.13,-1.349 0.467,0.043 c 0.766,0.067 1.538,0.109 2.312,0.123 l -0.025,1.358 z m 2.888,-0.064 -0.081,-1.354 c 0.906,-0.053 1.84,-0.143 2.774,-0.267 l 0.178,1.344 c -0.966,0.129 -1.932,0.221 -2.871,0.277 z m -8.64,-0.54 c -0.95,-0.188 -1.896,-0.423 -2.813,-0.698 l 0.391,-1.299 c 0.875,0.263 1.778,0.487 2.686,0.667 l -0.264,1.33 z m 14.353,-0.212 -0.269,-1.33 c 0.907,-0.184 1.813,-0.397 2.718,-0.643 l 0.354,1.311 c -0.932,0.251 -1.868,0.472 -2.803,0.662 z m -19.898,-1.471 c -0.893,-0.375 -1.771,-0.803 -2.614,-1.271 l 0.66,-1.186 c 0.799,0.445 1.633,0.851 2.48,1.208 l -0.526,1.249 z m 25.457,-0.025 -0.431,-1.285 c 0.881,-0.295 1.756,-0.618 2.625,-0.967 l 0.504,1.261 c -0.894,0.356 -1.794,0.687 -2.698,0.991 z m 5.338,-2.139 -0.574,-1.23 c 0.847,-0.395 1.682,-0.814 2.506,-1.256 l 0.64,1.197 c -0.847,0.453 -1.704,0.884 -2.572,1.289 z m -35.867,-0.656 c -0.784,-0.555 -1.55,-1.163 -2.277,-1.805 l 0.897,-1.017 c 0.691,0.609 1.42,1.187 2.164,1.716 l -0.784,1.106 z M 82.81,126.1 82.106,124.939 c 0.798,-0.483 1.583,-0.99 2.352,-1.518 l 0.767,1.12 c -0.79,0.54 -1.596,1.061 -2.415,1.559 z m -45.288,-1.778 c -0.647,-0.701 -1.271,-1.45 -1.859,-2.226 l 1.083,-0.817 c 0.56,0.74 1.157,1.455 1.773,2.124 l -0.997,0.919 z m 50.027,-1.47 -0.828,-1.075 c 0.741,-0.571 1.465,-1.159 2.169,-1.766 l 0.886,1.028 c -0.723,0.623 -1.466,1.228 -2.227,1.813 z m -53.526,-3.139 c -0.503,-0.804 -0.984,-1.65 -1.428,-2.514 l 1.205,-0.621 c 0.429,0.832 0.891,1.645 1.373,2.417 l -1.15,0.718 z m 57.874,-0.615 -0.942,-0.975 c 0.67,-0.649 1.32,-1.318 1.948,-2.002 l 1,0.914 c -0.644,0.706 -1.314,1.394 -2.006,2.063 z M 95.779,114.85 94.721,114 c 0.586,-0.727 1.148,-1.479 1.673,-2.233 l 1.113,0.776 c -0.542,0.778 -1.124,1.555 -1.728,2.307 z m -64.404,-0.267 c -0.368,-0.873 -0.713,-1.778 -1.026,-2.692 l 1.283,-0.44 c 0.303,0.885 0.637,1.762 0.993,2.606 l -1.25,0.526 z m 67.698,-4.465 -1.166,-0.695 c 0.475,-0.796 0.922,-1.618 1.328,-2.442 l 1.216,0.599 c -0.421,0.857 -0.885,1.71 -1.378,2.538 z m -69.568,-0.984 c -0.248,-0.92 -0.471,-1.854 -0.667,-2.799 l 1.33,-0.274 c 0.19,0.918 0.404,1.827 0.647,2.719 l -1.31,0.354 z m 72.118,-4.197 -1.263,-0.496 c 0.342,-0.87 0.644,-1.753 0.899,-2.623 l 1.302,0.379 c -0.266,0.91 -0.582,1.831 -0.938,2.74 z m -73.287,-1.434 c -0.141,-0.94 -0.256,-1.892 -0.346,-2.852 l 1.349,-0.127 c 0.09,0.935 0.202,1.862 0.338,2.78 l -1.341,0.199 z m 74.905,-4.119 -1.333,-0.258 c 0.175,-0.903 0.304,-1.824 0.384,-2.737 l 0.026,-0.314 1.352,0.105 -0.026,0.33 c -0.084,0.957 -0.221,1.925 -0.403,2.874 z M 27.793,97.789 c -0.039,-0.855 -0.057,-1.713 -0.057,-2.575 l 10e-4,-0.302 1.357,0.02 -0.001,0.283 c 0,0.842 0.018,1.681 0.054,2.514 l -1.354,0.06 z m 76,-4.494 -1.357,0 0,-0.183 c 10e-4,-0.859 -0.029,-1.734 -0.09,-2.603 l 1.352,-0.097 c 0.065,0.901 0.097,1.811 0.096,2.701 l 0,0.182 z M 29.174,92.124 27.819,92.052 c 0.039,-0.745 0.091,-1.494 0.157,-2.244 l 0.06,-0.619 1.349,0.139 -0.057,0.6 c -0.065,0.733 -0.115,1.464 -0.154,2.196 z m 72.866,-4.38 c -0.137,-0.92 -0.311,-1.841 -0.514,-2.736 l 1.322,-0.302 c 0.211,0.929 0.392,1.884 0.533,2.838 l -1.341,0.2 z M 29.779,86.574 28.444,86.33 c 0.17,-0.936 0.381,-1.883 0.623,-2.817 l 1.313,0.343 c -0.234,0.899 -0.437,1.813 -0.601,2.718 z m 71.026,-4.253 c -0.274,-0.885 -0.586,-1.767 -0.924,-2.623 l 1.26,-0.499 c 0.352,0.888 0.674,1.802 0.959,2.72 l -1.295,0.402 z m -69.62,-1.13 -1.283,-0.44 c 0.312,-0.905 0.662,-1.811 1.045,-2.691 l 1.244,0.538 c -0.367,0.849 -0.705,1.722 -1.006,2.593 z m 67.572,-4.039 c -0.404,-0.83 -0.846,-1.657 -1.313,-2.454 l 1.172,-0.685 c 0.483,0.827 0.942,1.685 1.36,2.546 l -1.219,0.593 z m -65.36,-1.066 -1.199,-0.632 c 0.446,-0.847 0.932,-1.689 1.444,-2.502 l 1.147,0.723 c -0.493,0.783 -0.961,1.594 -1.392,2.411 z M 95.951,72.35 c -0.53,-0.767 -1.091,-1.518 -1.669,-2.23 l 1.056,-0.853 c 0.597,0.738 1.178,1.515 1.729,2.31 l -1.116,0.773 z m -59.59,-0.975 -1.089,-0.809 c 0.576,-0.777 1.184,-1.536 1.808,-2.253 l 1.025,0.889 c -0.601,0.693 -1.187,1.423 -1.744,2.173 z m 56.089,-3.35 c -0.634,-0.673 -1.302,-1.33 -1.986,-1.953 l 0.914,-1.003 c 0.709,0.646 1.402,1.327 2.06,2.025 L 92.45,68.025 Z M 40.005,67.167 39.049,66.203 c 0.679,-0.671 1.393,-1.329 2.126,-1.954 l 0.881,1.033 c -0.707,0.603 -1.397,1.237 -2.051,1.885 z m 48.332,-2.89 C 87.61,63.708 86.85,63.159 86.079,62.647 l 0.751,-1.13 c 0.799,0.532 1.587,1.101 2.344,1.691 l -0.837,1.069 z m -44.096,-0.718 -0.8,-1.097 c 0.774,-0.564 1.579,-1.105 2.395,-1.611 l 0.715,1.153 c -0.788,0.487 -1.565,1.011 -2.31,1.555 z m 39.465,-2.368 c -0.809,-0.453 -1.643,-0.88 -2.481,-1.268 l 0.57,-1.23 c 0.869,0.402 1.734,0.844 2.572,1.314 l -0.661,1.184 z M 48.971,60.628 48.345,59.426 c 0.847,-0.442 1.727,-0.856 2.611,-1.233 l 0.532,1.25 c -0.854,0.361 -1.7,0.762 -2.517,1.185 z m 29.688,-1.776 c -0.873,-0.327 -1.763,-0.621 -2.645,-0.874 l 0.377,-1.305 c 0.914,0.265 1.836,0.569 2.741,0.908 l -0.473,1.271 z M 54.087,58.451 53.652,57.165 c 0.91,-0.307 1.841,-0.583 2.768,-0.82 l 0.335,1.316 c -0.893,0.228 -1.791,0.494 -2.668,0.79 z M 73.313,57.307 C 72.404,57.119 71.48,56.963 70.567,56.844 l 0.174,-1.345 c 0.946,0.123 1.903,0.285 2.845,0.479 l -0.273,1.329 z M 59.474,57.076 59.241,55.74 c 0.942,-0.165 1.905,-0.295 2.86,-0.389 l 0.13,1.351 c -0.92,0.09 -1.848,0.216 -2.757,0.374 z m 8.321,-0.489 c -0.707,-0.038 -1.41,-0.065 -2.107,-0.054 -0.227,0 -0.453,0.002 -0.677,0.007 l -0.03,-1.356 c 0.262,-0.005 0.525,-0.006 0.786,-0.007 0.696,0 1.397,0.019 2.101,0.057 l -0.073,1.353 z"
   id="path17"
   inkscape:connector-curvature="0"
   style="fill:#ffffff" />
	</g>
	<g
   id="g19">
		<path
   stroke-miterlimit="10"
   d="m 242.378,92.919 c 0,19.192 -15.559,34.748 -34.748,34.748 -19.19,0 -34.749,-15.556 -34.749,-34.748 0,-19.19 18.278,-37.982 37.469,-37.982 19.191,0 32.028,18.792 32.028,37.982 z"
   id="path21"
   inkscape:connector-curvature="0"
   style="fill:#c0d898;stroke:#ffffff;stroke-width:6;stroke-miterlimit:10" />
	</g>
	<g
   id="g23">
		<path
   d="m 242.367,92.845 c 0,19.193 -15.558,34.749 -34.748,34.749 -19.19,0 -34.749,-15.556 -34.749,-34.749 0,-19.19 18.279,-37.982 37.469,-37.982 19.19,0 32.028,18.792 32.028,37.982 z"
   id="path25"
   inkscape:connector-curvature="0"
   style="fill:#86c0d9" />
	</g>
	<g
   id="g27">
		<path
   d="m 206.499,125.272 c -0.961,-0.033 -1.931,-0.109 -2.878,-0.227 l 0.166,-1.346 c 0.909,0.112 1.837,0.186 2.76,0.219 l -0.048,1.354 z m 2.887,-0.026 -0.072,-1.354 c 0.916,-0.048 1.843,-0.139 2.752,-0.27 l 0.194,1.343 c -0.951,0.136 -1.918,0.231 -2.874,0.281 z m -8.61,-0.68 c -0.933,-0.201 -1.873,-0.449 -2.794,-0.737 l 0.404,-1.293 c 0.883,0.274 1.781,0.512 2.675,0.704 l -0.285,1.326 z m 14.319,-0.14 -0.313,-1.319 c 0.901,-0.214 1.798,-0.468 2.662,-0.757 l 0.429,1.288 c -0.902,0.3 -1.838,0.567 -2.778,0.788 z m -19.83,-1.577 c -0.878,-0.364 -1.759,-0.774 -2.616,-1.223 l 0.626,-1.202 c 0.824,0.429 1.668,0.823 2.509,1.17 l -0.519,1.255 z m 25.304,-0.244 -0.543,-1.244 c 0.846,-0.37 1.681,-0.782 2.483,-1.219 l 0.65,1.188 c -0.834,0.459 -1.707,0.887 -2.59,1.275 z m -30.418,-2.431 c -0.813,-0.523 -1.606,-1.084 -2.357,-1.669 l 0.834,-1.069 c 0.717,0.559 1.478,1.096 2.258,1.597 l -0.735,1.141 z m 35.478,-0.342 -0.754,-1.127 c 0.759,-0.508 1.509,-1.061 2.226,-1.64 l 0.854,1.055 c -0.75,0.605 -1.533,1.182 -2.326,1.712 z m -40.036,-3.196 c -0.706,-0.655 -1.388,-1.348 -2.026,-2.058 l 1.009,-0.906 c 0.612,0.68 1.265,1.342 1.94,1.97 l -0.923,0.994 z m 44.524,-0.428 -0.941,-0.975 c 0.667,-0.646 1.308,-1.323 1.902,-2.01 l 1.025,0.889 c -0.62,0.717 -1.288,1.422 -1.986,2.096 z m -48.385,-3.858 c -0.58,-0.77 -1.129,-1.572 -1.63,-2.382 l 1.152,-0.714 c 0.48,0.775 1.007,1.544 1.562,2.283 l -1.084,0.813 z m 52.165,-0.504 -1.1,-0.792 c 0.541,-0.752 1.051,-1.53 1.517,-2.313 l 1.166,0.692 c -0.484,0.817 -1.017,1.629 -1.583,2.413 z m -55.206,-4.398 c -0.434,-0.86 -0.831,-1.747 -1.182,-2.634 l 1.261,-0.499 c 0.336,0.851 0.717,1.7 1.131,2.523 l -1.21,0.61 z m 58.153,-0.561 -1.225,-0.585 c 0.398,-0.831 0.763,-1.688 1.083,-2.547 l 1.271,0.474 c -0.334,0.897 -0.715,1.791 -1.129,2.658 z m -60.274,-4.805 c -0.269,-0.913 -0.501,-1.856 -0.69,-2.803 l 1.329,-0.266 c 0.183,0.907 0.406,1.812 0.664,2.687 l -1.303,0.382 z m 62.287,-0.601 -1.308,-0.357 c 0.241,-0.881 0.446,-1.788 0.609,-2.699 l 1.335,0.241 c -0.169,0.949 -0.384,1.897 -0.636,2.815 z m -63.415,-5.057 c -0.102,-0.945 -0.163,-1.913 -0.184,-2.88 l 1.357,-0.027 c 0.019,0.928 0.078,1.857 0.175,2.763 l -1.348,0.144 z m 64.435,-0.62 -1.353,-0.122 c 0.082,-0.906 0.122,-1.835 0.122,-2.763 l 1.357,-0.128 0,0.128 c 0.001,0.968 -0.042,1.937 -0.126,2.885 z m -63.174,-5.039 -1.352,-0.113 c 0.08,-0.952 0.212,-1.916 0.391,-2.867 l 1.333,0.25 c -0.171,0.906 -0.296,1.824 -0.372,2.73 z m 61.847,-0.754 c -0.063,-0.928 -0.155,-1.852 -0.275,-2.771 l 1.343,-0.177 c 0.127,0.947 0.223,1.901 0.287,2.857 l -1.355,0.091 z m -60.835,-4.665 -1.305,-0.374 c 0.262,-0.909 0.57,-1.83 0.921,-2.737 l 1.266,0.488 c -0.336,0.871 -0.633,1.754 -0.882,2.623 z m 60.105,-0.854 c -0.182,-0.913 -0.393,-1.817 -0.631,-2.71 l 1.311,-0.349 c 0.246,0.921 0.463,1.854 0.649,2.796 l -1.329,0.263 z m -58.119,-4.31 -1.222,-0.59 c 0.415,-0.86 0.871,-1.715 1.354,-2.543 l 1.172,0.685 c -0.465,0.796 -0.903,1.62 -1.304,2.448 z m 56.683,-1.06 c -0.302,-0.884 -0.635,-1.758 -0.989,-2.6 l 1.25,-0.526 c 0.366,0.871 0.712,1.776 1.021,2.688 l -1.282,0.438 z m -53.895,-3.739 -1.119,-0.764 c 0.533,-0.78 1.106,-1.559 1.708,-2.313 l 1.061,0.842 c -0.579,0.731 -1.135,1.483 -1.65,2.235 z m 51.734,-1.38 c -0.428,-0.837 -0.885,-1.651 -1.358,-2.421 l 1.155,-0.709 c 0.491,0.799 0.967,1.645 1.411,2.51 l -1.208,0.62 z m -48.281,-2.976 -1.003,-0.914 c 0.639,-0.701 1.313,-1.393 2.005,-2.057 l 0.939,0.978 c -0.669,0.645 -1.323,1.314 -1.941,1.993 z m 45.373,-1.739 c -0.556,-0.752 -1.14,-1.475 -1.739,-2.151 l 1.014,-0.9 c 0.626,0.706 1.238,1.461 1.817,2.245 l -1.092,0.806 z m -41.359,-2.114 -0.87,-1.039 c 0.732,-0.615 1.496,-1.21 2.267,-1.772 l 0.798,1.097 c -0.746,0.542 -1.485,1.12 -2.195,1.714 z m 37.688,-2.009 c -0.68,-0.629 -1.392,-1.222 -2.117,-1.763 l 0.812,-1.086 c 0.763,0.569 1.513,1.192 2.226,1.852 l -0.921,0.997 z m -33.188,-1.264 -0.721,-1.149 c 0.816,-0.511 1.655,-0.995 2.495,-1.439 l 0.634,1.2 c -0.809,0.428 -1.62,0.895 -2.408,1.388 z m 28.78,-2.018 c -0.791,-0.462 -1.614,-0.881 -2.447,-1.245 l 0.543,-1.244 c 0.881,0.386 1.752,0.83 2.589,1.317 l -0.685,1.172 z m -23.87,-0.576 -0.54,-1.244 c 0.897,-0.391 1.802,-0.741 2.688,-1.042 l 0.435,1.285 c -0.85,0.289 -1.72,0.626 -2.583,1.001 z m 18.848,-1.616 c -0.871,-0.262 -1.769,-0.477 -2.67,-0.636 l 0.235,-1.335 c 0.954,0.167 1.904,0.395 2.825,0.672 l -0.39,1.299 z m -13.607,-0.168 -0.324,-1.316 c 0.948,-0.236 1.903,-0.424 2.835,-0.562 l 0.199,1.341 c -0.891,0.133 -1.802,0.314 -2.71,0.537 z m 8.209,-0.788 c -0.9,-0.057 -1.822,-0.06 -2.752,-0.017 l -0.063,-1.354 c 0.977,-0.044 1.951,-0.042 2.898,0.017 l -0.083,1.354 z"
   id="path29"
   inkscape:connector-curvature="0"
   style="fill:#ffffff" />
	</g>
	<g
   id="g31">
		<path
   stroke-miterlimit="10"
   d="m 176.209,121.954 c 0.364,3.338 -1.848,6.316 -4.94,6.654 l -60.666,6.612 c -3.093,0.336 -5.895,-2.094 -6.258,-5.432 l -6.06,-55.594 c -0.364,-3.336 1.848,-6.316 4.94,-6.652 l 60.666,-6.614 c 3.093,-0.335 5.895,2.096 6.258,5.434 l 6.06,55.592 z"
   id="path33"
   inkscape:connector-curvature="0"
   style="fill:#b4badd;stroke:#ffffff;stroke-width:6;stroke-miterlimit:10" />
	</g>
	<g
   id="g35">
		<path
   d="m 176.198,121.88 c 0.364,3.338 -1.847,6.316 -4.94,6.654 l -60.667,6.612 c -3.093,0.335 -5.895,-2.095 -6.258,-5.433 l -6.06,-55.594 c -0.364,-3.336 1.848,-6.316 4.94,-6.652 l 60.666,-6.614 c 3.093,-0.335 5.895,2.096 6.258,5.434 l 6.061,55.593 z"
   id="path37"
   inkscape:connector-curvature="0"
   style="fill:#86c0d9" />
	</g>
	<g
   id="g39">
		<path
   d="m 112.366,133.136 -0.083,-1.354 0.247,-0.02 2.542,-0.277 0.146,1.35 -2.852,0.301 z m 5.672,-0.61 -0.147,-1.35 2.82,-0.308 0.147,1.35 -2.82,0.308 z m -8.769,-0.135 c -0.911,-0.522 -1.686,-1.288 -2.238,-2.218 l 1.167,-0.692 c 0.433,0.727 1.036,1.327 1.745,1.732 l -0.674,1.178 z m 14.409,-0.48 -0.147,-1.349 2.82,-0.308 0.147,1.349 -2.82,0.308 z m 5.639,-0.615 -0.146,-1.349 2.82,-0.308 0.147,1.349 -2.821,0.308 z m 5.64,-0.613 -0.147,-1.349 2.82,-0.308 0.146,1.349 -2.819,0.308 z m 5.639,-0.616 -0.147,-1.349 2.82,-0.307 0.147,1.349 -2.82,0.307 z m 5.64,-0.614 -0.147,-1.35 2.82,-0.308 0.147,1.35 -2.82,0.308 z m 5.64,-0.615 -0.146,-1.35 2.82,-0.307 0.147,1.349 -2.821,0.308 z m 5.64,-0.615 -0.146,-1.349 2.82,-0.308 0.147,1.349 -2.821,0.308 z m 5.64,-0.614 -0.147,-1.349 2.82,-0.308 0.147,1.349 -2.82,0.308 z m -57.048,-0.395 -0.308,-2.82 1.349,-0.147 0.308,2.82 -1.349,0.147 z m 62.688,-0.22 -0.149,-1.349 c 0.811,-0.09 1.579,-0.414 2.222,-0.939 l 0.859,1.05 c -0.847,0.691 -1.861,1.119 -2.932,1.238 z m 4.768,-3.798 -1.265,-0.49 c 0.231,-0.596 0.348,-1.229 0.348,-1.881 0,-0.194 -0.01,-0.391 -0.031,-0.59 l -0.087,-0.795 1.349,-0.147 0.088,0.798 c 0.025,0.25 0.038,0.493 0.038,0.734 0,0.821 -0.149,1.619 -0.44,2.371 z m -68.071,-1.622 -0.308,-2.82 1.349,-0.147 0.307,2.82 -1.348,0.147 z m 66.729,-4.954 -0.308,-2.819 1.349,-0.147 0.307,2.819 -1.348,0.147 z m -67.344,-0.686 -0.308,-2.82 1.349,-0.147 0.308,2.82 -1.349,0.147 z m 66.728,-4.953 -0.307,-2.819 1.349,-0.147 0.307,2.82 -1.349,0.146 z m -67.343,-0.687 -0.308,-2.82 1.35,-0.146 0.308,2.82 -1.35,0.146 z m 66.729,-4.953 -0.308,-2.82 1.349,-0.147 0.308,2.82 -1.349,0.147 z m -67.344,-0.687 -0.306,-2.82 1.349,-0.146 0.306,2.82 -1.349,0.146 z m 66.73,-4.953 -0.308,-2.82 1.349,-0.146 0.308,2.82 -1.349,0.146 z m -67.344,-0.687 -0.307,-2.82 1.349,-0.147 0.307,2.82 -1.349,0.147 z m 66.729,-4.952 -0.308,-2.82 1.349,-0.146 0.308,2.819 -1.349,0.147 z m -67.344,-0.688 -0.308,-2.82 1.349,-0.147 0.308,2.82 -1.349,0.147 z m 66.729,-4.953 -0.307,-2.82 1.349,-0.146 0.308,2.82 -1.35,0.146 z m -67.343,-0.687 -0.308,-2.82 1.349,-0.146 0.307,2.82 -1.348,0.146 z m 66.728,-4.953 -0.308,-2.82 1.349,-0.147 0.308,2.82 -1.349,0.147 z m -67.344,-0.685 -0.307,-2.82 1.349,-0.146 0.308,2.82 -1.35,0.146 z m 66.729,-4.954 -0.307,-2.82 1.349,-0.147 0.307,2.82 -1.349,0.147 z m -67.343,-0.688 -0.043,-0.399 c -0.028,-0.247 -0.04,-0.493 -0.04,-0.737 0,-0.662 0.098,-1.315 0.291,-1.943 l 1.296,0.398 c -0.152,0.498 -0.23,1.017 -0.23,1.544 0,0.194 0.01,0.391 0.032,0.59 l 0.042,0.401 -1.348,0.146 z m 2.789,-4.781 -0.937,-0.98 c 0.793,-0.759 1.769,-1.266 2.82,-1.468 l 0.255,1.333 c -0.793,0.151 -1.533,0.537 -2.138,1.115 z m 63.939,-0.171 -0.294,-2.692 1.333,-0.288 0.311,2.834 -1.35,0.146 z m -59.035,-1.261 -0.147,-1.349 2.82,-0.308 0.147,1.349 -2.82,0.308 z m 5.639,-0.615 -0.147,-1.349 2.82,-0.308 0.146,1.349 -2.819,0.308 z m 5.64,-0.615 -0.147,-1.349 2.82,-0.308 0.146,1.349 -2.819,0.308 z m 5.641,-0.615 -0.147,-1.349 2.82,-0.308 0.147,1.349 -2.82,0.308 z m 5.639,-0.615 -0.147,-1.349 2.82,-0.308 0.146,1.349 -2.819,0.308 z m 5.64,-0.615 -0.147,-1.349 2.82,-0.308 0.146,1.349 -2.819,0.308 z m 5.64,-0.615 -0.147,-1.349 2.819,-0.307 0.146,1.349 -2.818,0.307 z m 24.002,-0.181 c -0.483,-0.695 -1.128,-1.248 -1.864,-1.596 l 0.582,-1.227 c 0.949,0.45 1.778,1.159 2.396,2.05 l -1.114,0.773 z m -18.363,-0.434 -0.147,-1.349 2.82,-0.308 0.147,1.349 -2.82,0.308 z m 5.64,-0.614 -0.146,-1.349 2.82,-0.308 0.147,1.349 -2.821,0.308 z m 5.64,-0.614 -0.146,-1.349 2.82,-0.308 0.147,1.349 -2.821,0.308 z"
   id="path41"
   inkscape:connector-curvature="0"
   style="fill:#ffffff" />
	</g>
	<g
   id="g43">
		<path
   stroke-miterlimit="10"
   d="m 311.473,126.718 c -0.305,3.344 -3.063,5.826 -6.162,5.543 l -60.773,-5.541 c -3.098,-0.282 -5.362,-3.222 -5.057,-6.565 l 5.076,-55.691 c 0.305,-3.344 3.063,-5.825 6.162,-5.543 l 60.773,5.541 c 3.098,0.284 5.362,3.222 5.057,6.565 l -5.076,55.691 z"
   id="path45"
   inkscape:connector-curvature="0"
   style="fill:#edc9bb;stroke:#ffffff;stroke-width:6;stroke-miterlimit:10" />
	</g>
	<g
   id="g47">
		<path
   d="m 311.462,126.645 c -0.305,3.344 -3.063,5.826 -6.162,5.543 l -60.772,-5.54 c -3.099,-0.282 -5.363,-3.222 -5.058,-6.565 l 5.077,-55.691 c 0.304,-3.344 3.062,-5.824 6.162,-5.543 l 60.772,5.54 c 3.099,0.284 5.363,3.222 5.057,6.565 l -5.076,55.691 z"
   id="path49"
   inkscape:connector-curvature="0"
   style="fill:#86c0d9" />
	</g>
	<g
   id="g51">
		<path
   d="m 303.711,130.213 c -0.167,0 -0.336,-0.008 -0.503,-0.023 l 0.127,-1.352 c 0.827,0.083 1.625,-0.09 2.362,-0.479 l 0.634,1.199 c -0.824,0.435 -1.705,0.655 -2.62,0.655 z m -3.324,-0.281 -2.826,-0.258 0.122,-1.352 2.825,0.258 -0.121,1.352 z m -5.651,-0.514 -2.825,-0.258 0.122,-1.352 2.825,0.258 -0.122,1.352 z m -5.65,-0.515 -2.824,-0.258 0.122,-1.352 2.823,0.257 -0.121,1.353 z m -5.65,-0.515 -2.824,-0.258 0.122,-1.352 2.824,0.258 -0.122,1.352 z m -5.65,-0.516 -2.824,-0.257 0.122,-1.352 2.824,0.258 -0.122,1.351 z m 30.851,-0.459 -1.144,-0.729 c 0.444,-0.698 0.722,-1.514 0.798,-2.358 l 0.073,-0.801 1.353,0.125 -0.074,0.799 c -0.097,1.059 -0.445,2.084 -1.006,2.964 z m -36.5,-0.056 -2.824,-0.258 0.122,-1.352 2.823,0.257 -0.121,1.353 z m -5.651,-0.515 -2.823,-0.258 0.121,-1.352 2.824,0.257 -0.122,1.353 z m -5.649,-0.514 -2.824,-0.258 0.122,-1.352 2.824,0.258 -0.122,1.352 z m -5.649,-0.515 -2.826,-0.258 0.122,-1.352 2.826,0.258 -0.122,1.352 z m -5.651,-0.516 -2.551,-0.233 c -0.103,-0.009 -0.205,-0.022 -0.305,-0.036 l 0.186,-1.344 2.792,0.261 -0.122,1.352 z m -5.746,-1.615 c -0.79,-0.692 -1.396,-1.597 -1.754,-2.616 l 1.28,-0.449 c 0.281,0.799 0.753,1.507 1.368,2.046 l -0.894,1.019 z m 66.182,-2.86 -1.353,-0.122 0.258,-2.825 1.353,0.122 -0.258,2.825 z m -66.903,-2.715 -1.352,-0.122 0.258,-2.825 1.352,0.122 -0.258,2.825 z m 67.417,-2.935 -1.352,-0.122 0.258,-2.826 1.352,0.122 -0.258,2.826 z m -66.902,-2.714 -1.353,-0.122 0.258,-2.826 1.352,0.122 -0.257,2.826 z m 67.418,-2.935 -1.352,-0.122 0.257,-2.826 1.353,0.122 -0.258,2.826 z m -66.903,-2.715 -1.352,-0.122 0.258,-2.825 1.352,0.122 -0.258,2.825 z m 67.417,-2.935 -1.352,-0.122 0.258,-2.826 1.352,0.122 -0.258,2.826 z m -66.902,-2.715 -1.352,-0.122 0.257,-2.826 1.353,0.122 -0.258,2.826 z m 67.417,-2.934 -1.352,-0.122 0.257,-2.826 1.353,0.122 -0.258,2.826 z m -66.901,-2.715 -1.353,-0.122 0.258,-2.826 1.352,0.122 -0.257,2.826 z m 67.416,-2.937 -1.352,-0.122 0.258,-2.824 1.352,0.122 -0.258,2.824 z m -66.901,-2.715 -1.352,-0.122 0.256,-2.824 1.352,0.122 -0.256,2.824 z m 67.416,-2.934 -1.353,-0.122 0.258,-2.824 1.352,0.122 -0.257,2.824 z m -66.903,-2.715 -1.352,-0.122 0.258,-2.824 1.352,0.122 -0.258,2.824 z m 67.417,-2.935 -1.352,-0.122 0.258,-2.824 1.352,0.122 -0.258,2.824 z m -66.901,-2.715 -1.352,-0.122 0.257,-2.824 1.353,0.122 -0.258,2.824 z m 67.417,-2.935 -1.352,-0.122 0.245,-2.694 1.364,-0.025 -0.257,2.841 z m -66.903,-2.715 -1.352,-0.122 0.258,-2.824 1.352,0.122 -0.258,2.824 z m 65.397,-2.673 c -0.338,-0.78 -0.861,-1.449 -1.513,-1.934 l 0.812,-1.089 c 0.84,0.627 1.513,1.486 1.945,2.482 l -1.244,0.541 z m -3.789,-2.774 -2.824,-0.257 0.122,-1.352 2.823,0.257 -0.121,1.352 z m -61.092,-0.202 -1.352,-0.122 0.036,-0.4 c 0.083,-0.917 0.343,-1.784 0.775,-2.578 l 1.191,0.648 c -0.343,0.63 -0.55,1.32 -0.615,2.051 l -0.035,0.401 z m 55.441,-0.313 -2.824,-0.258 0.122,-1.352 2.824,0.257 -0.122,1.353 z m -5.649,-0.515 -2.825,-0.258 0.121,-1.352 2.826,0.258 -0.122,1.352 z m -5.649,-0.516 -2.826,-0.257 0.122,-1.352 2.825,0.258 -0.121,1.351 z m -5.651,-0.515 -2.825,-0.258 0.122,-1.352 2.825,0.257 -0.122,1.353 z m -5.649,-0.514 -2.825,-0.258 0.122,-1.352 2.825,0.258 -0.122,1.352 z m -5.65,-0.515 -2.826,-0.258 0.122,-1.352 2.826,0.257 -0.122,1.353 z m -5.65,-0.516 -2.825,-0.258 0.122,-1.352 2.825,0.258 -0.122,1.352 z m -5.65,-0.515 -2.824,-0.257 0.122,-1.352 2.823,0.258 -0.121,1.351 z M 250.033,63 249.31,61.853 c 0.914,-0.577 1.954,-0.881 3.009,-0.881 l 0.04,1.357 c -0.838,0 -1.628,0.232 -2.326,0.671 z m 7.915,-0.175 -2.824,-0.258 0.121,-1.352 2.824,0.257 -0.121,1.353 z"
   id="path53"
   inkscape:connector-curvature="0"
   style="fill:#ffffff" />
	</g>
	<g
   id="g55">
		<path
   d="m 67.664,120.097 c -5.491,-0.486 -9.002,-2.773 -10.628,-6.711 l -0.158,-0.014 -0.182,2.039 c -0.199,2.274 -1.658,3.568 -3.771,3.379 -2.121,-0.187 -3.33,-1.716 -3.127,-3.992 l 4.374,-49.402 c 0.201,-2.274 1.659,-3.568 3.781,-3.381 2.115,0.188 3.321,1.716 3.121,3.994 l -1.424,16.072 0.156,0.014 c 2.035,-2.427 6.146,-5.144 11.635,-4.659 11.294,1.001 16.895,11.851 15.915,22.909 -0.98,11.054 -8.398,20.752 -19.692,19.752 z m 2.699,-36.749 c -8.467,-0.75 -12.183,7.298 -12.808,14.358 -0.624,7.055 1.618,15.632 10.087,16.381 8.468,0.751 12.185,-7.299 12.809,-14.354 0.626,-7.06 -1.617,-15.636 -10.088,-16.385 z"
   id="path57"
   inkscape:connector-curvature="0"
   style="fill:#ffffff" />
		<path
   d="m 69.312,121.657 c -0.582,0 -1.175,-0.026 -1.78,-0.079 -4.302,-0.382 -7.572,-1.806 -9.768,-4.246 -0.303,0.755 -0.759,1.396 -1.353,1.894 -0.967,0.808 -2.226,1.169 -3.618,1.044 -1.46,-0.127 -2.662,-0.742 -3.473,-1.774 -0.791,-1.007 -1.139,-2.331 -1.004,-3.83 l 4.373,-49.403 c 0.272,-3.09 2.447,-4.98 5.394,-4.731 2.947,0.263 4.744,2.515 4.472,5.605 l -1.106,12.491 c 2.548,-1.765 6.05,-3.036 10.122,-2.676 5.792,0.514 10.523,3.407 13.685,8.366 2.838,4.454 4.109,10.191 3.581,16.157 -0.957,10.793 -7.93,21.182 -19.525,21.182 z m -1.517,-3.043 C 78.492,119.56 84.999,110.075 85.873,100.212 86.345,94.898 85.234,89.82 82.747,85.917 80.902,83.022 77.42,79.459 71.309,78.916 66.57,78.503 62.849,80.777 60.946,83.05 l -0.499,0.594 -2.41,-0.213 1.554,-17.554 c 0.13,-1.463 -0.467,-2.265 -1.771,-2.381 -1.318,-0.118 -2.039,0.568 -2.167,2.03 L 51.28,114.93 c -0.065,0.731 0.066,1.33 0.379,1.729 0.295,0.375 0.766,0.594 1.396,0.65 0.61,0.055 1.095,-0.065 1.448,-0.363 0.505,-0.422 0.666,-1.138 0.712,-1.665 l 0.314,-3.519 2.536,0.221 0.345,0.835 c 1.432,3.468 4.503,5.365 9.385,5.796 z m 0.929,-2.991 c -0.397,0 -0.802,-0.018 -1.212,-0.055 -9.541,-0.844 -12.124,-10.221 -11.438,-17.992 0.375,-4.234 1.706,-8.092 3.748,-10.86 2.625,-3.557 6.316,-5.247 10.673,-4.848 l 0,-10e-4 c 4.359,0.386 7.699,2.686 9.657,6.65 1.524,3.083 2.157,7.113 1.783,11.348 -0.375,4.231 -1.706,8.087 -3.748,10.856 -2.379,3.221 -5.632,4.902 -9.463,4.902 z m 0.565,-30.836 c -2.888,0 -5.263,1.24 -7.073,3.694 -1.722,2.335 -2.851,5.658 -3.178,9.356 -0.566,6.406 1.382,14.118 8.737,14.768 3.309,0.302 6.014,-0.935 8.019,-3.651 1.722,-2.335 2.851,-5.657 3.177,-9.354 0.328,-3.697 -0.2,-7.167 -1.485,-9.768 -1.496,-3.026 -3.935,-4.71 -7.253,-5.003 l 0,-10e-4 c -0.321,-0.027 -0.637,-0.041 -0.944,-0.041 z"
   id="path59"
   inkscape:connector-curvature="0"
   style="fill:#ffffff" />
	</g>
	<g
   id="g61">
		<path
   d="m 208.501,113.558 c -4.533,-0.603 -7.363,-2.626 -8.572,-5.951 l -0.128,-0.016 -0.223,1.684 c -0.251,1.878 -1.504,2.899 -3.252,2.667 -1.751,-0.231 -2.698,-1.544 -2.447,-3.423 l 5.411,-40.808 c 0.249,-1.88 1.506,-2.899 3.256,-2.667 1.75,0.232 2.693,1.543 2.443,3.422 l -1.76,13.279 0.127,0.017 c 1.775,-1.939 5.282,-4.046 9.819,-3.444 9.328,1.239 13.58,10.438 12.368,19.571 -1.211,9.133 -7.715,16.904 -17.042,15.669 z m 3.567,-30.376 c -6.996,-0.928 -10.365,5.611 -11.139,11.442 -0.774,5.829 0.777,13.022 7.769,13.949 6.999,0.929 10.37,-5.611 11.144,-11.439 0.772,-5.832 -0.776,-13.026 -7.774,-13.952 z"
   id="path63"
   inkscape:connector-curvature="0"
   style="fill:#ffffff" />
		<path
   d="m 210.502,115.031 c -0.706,0 -1.433,-0.047 -2.177,-0.147 l 0,0 c -3.51,-0.465 -6.157,-1.735 -7.909,-3.784 -0.785,1.582 -2.347,2.428 -4.268,2.167 -1.187,-0.156 -2.16,-0.691 -2.814,-1.544 -0.687,-0.899 -0.958,-2.068 -0.782,-3.382 l 5.411,-40.807 c 0.168,-1.264 0.702,-2.297 1.545,-2.986 0.868,-0.709 1.981,-0.997 3.215,-0.831 2.497,0.331 3.941,2.312 3.594,4.925 l -1.338,10.1 c 2.177,-1.32 5.075,-2.197 8.373,-1.75 10.526,1.396 14.769,11.659 13.52,21.074 -1.162,8.747 -7.092,16.965 -16.37,16.965 z m -1.825,-2.801 c 8.775,1.157 14.466,-6.421 15.54,-14.517 1.074,-8.096 -2.435,-16.902 -11.218,-18.068 -3.867,-0.515 -7.01,1.223 -8.655,3.021 l -0.471,0.514 -2.021,-0.265 0.05,-1.346 1.76,-13.279 c 0.151,-1.14 -0.283,-1.786 -1.292,-1.919 -0.493,-0.064 -0.884,0.019 -1.167,0.25 -0.307,0.25 -0.509,0.687 -0.586,1.265 l -5.412,40.809 c -0.055,0.415 -0.055,0.994 0.255,1.4 0.217,0.281 0.566,0.456 1.042,0.518 1.003,0.147 1.596,-0.374 1.749,-1.515 l 0.397,-3.008 2.133,0.278 0.406,0.781 c 1.05,2.889 3.501,4.551 7.49,5.081 l 0,0 z m 1.331,-2.23 c -0.486,0 -0.98,-0.033 -1.485,-0.101 -3.637,-0.482 -6.351,-2.529 -7.846,-5.922 -1.159,-2.631 -1.541,-6.016 -1.074,-9.529 0.466,-3.517 1.717,-6.685 3.521,-8.921 2.328,-2.885 5.481,-4.162 9.12,-3.672 3.641,0.481 6.354,2.529 7.85,5.924 1.159,2.628 1.542,6.014 1.075,9.53 -0.466,3.516 -1.717,6.683 -3.522,8.919 -2.006,2.486 -4.626,3.772 -7.639,3.772 z m 0.764,-25.566 c -2.208,0 -4.075,0.929 -5.564,2.775 -1.501,1.859 -2.548,4.554 -2.951,7.591 -0.403,3.034 -0.093,5.91 0.871,8.097 1.114,2.528 3.047,3.991 5.747,4.35 2.71,0.353 4.952,-0.55 6.688,-2.7 1.5,-1.859 2.548,-4.554 2.951,-7.589 0.401,-3.036 0.093,-5.913 -0.871,-8.099 -1.115,-2.529 -3.05,-3.992 -5.751,-4.351 l 0,0 c -0.381,-0.05 -0.755,-0.074 -1.12,-0.074 z"
   id="path65"
   inkscape:connector-curvature="0"
   style="fill:#ffffff" />
	</g>
	<g
   id="g67">
		<path
   d="m 290.461,74.277 -10.686,45.135 c -0.345,1.352 -1.207,2.414 -2.714,2.569 -1.372,0.144 -2.851,-0.742 -3.009,-2.251 -0.071,-0.685 0.004,-1.317 0.541,-3.453 l 2.776,-10.618 -13.38,-28.624 c -0.902,-1.986 -1.104,-2.59 -1.174,-3.274 -0.158,-1.51 1.107,-2.682 2.478,-2.823 1.509,-0.158 2.707,0.688 3.254,1.949 l 10.974,24.16 0.139,-0.014 5.622,-25.89 c 0.274,-1.347 1.134,-2.407 2.645,-2.564 1.371,-0.143 2.85,0.744 3.008,2.252 0.07,0.687 -0.003,1.318 -0.474,3.446 z"
   id="path69"
   inkscape:connector-curvature="0"
   style="fill:#ffffff" />
		<path
   d="m 276.773,123.415 c -0.878,0 -1.765,-0.274 -2.484,-0.777 -0.945,-0.661 -1.529,-1.64 -1.646,-2.759 -0.099,-0.931 0.02,-1.742 0.574,-3.947 l 2.651,-10.135 -13.164,-28.16 c -0.952,-2.097 -1.206,-2.826 -1.3,-3.73 -0.105,-1.013 0.196,-2.014 0.85,-2.819 0.71,-0.875 1.765,-1.445 2.894,-1.561 2.031,-0.2 3.871,0.886 4.7,2.795 l 9.286,20.445 4.761,-21.924 c 0.426,-2.086 1.878,-3.465 3.884,-3.675 2.294,-0.226 4.338,1.338 4.565,3.516 0.093,0.901 -0.004,1.666 -0.499,3.899 l -0.006,0.021 -10.686,45.136 c -0.541,2.127 -1.979,3.45 -3.947,3.654 -0.143,0.014 -0.287,0.021 -0.433,0.021 z M 265.655,72.338 c -0.067,0 -0.14,0.004 -0.213,0.011 -0.377,0.039 -0.754,0.241 -0.984,0.526 -0.182,0.223 -0.26,0.471 -0.231,0.739 0.048,0.471 0.206,0.968 1.055,2.835 l 13.591,29.074 -2.906,11.113 c -0.534,2.121 -0.546,2.528 -0.503,2.946 0.032,0.298 0.184,0.543 0.452,0.731 0.281,0.197 0.66,0.288 0.998,0.257 0.283,-0.029 1.132,-0.117 1.488,-1.51 L 289.08,73.958 c 0.462,-2.091 0.491,-2.533 0.444,-2.981 -0.071,-0.672 -0.798,-1.053 -1.45,-0.986 -0.281,0.027 -1.133,0.116 -1.402,1.435 l -5.843,26.916 -2.039,0.204 -0.559,-0.913 -10.974,-24.16 c -0.161,-0.367 -0.607,-1.135 -1.602,-1.135 z"
   id="path71"
   inkscape:connector-curvature="0"
   style="fill:#ffffff" />
	</g>
	<g
   id="g73">
		<path
   stroke-miterlimit="10"
   d="m 195.257,166.286 c 0,14.866 -5.505,27.287 -20.365,27.646 -19.621,0.473 -33.466,-12.779 -33.466,-27.646 0,-14.867 12.05,-26.916 26.915,-26.916 14.864,0 26.916,12.05 26.916,26.916 z"
   id="path75"
   inkscape:connector-curvature="0"
   style="fill:#ab7ab0;stroke:#ffffff;stroke-width:6;stroke-miterlimit:10" />
	</g>
	<g
   id="g77">
		<path
   d="m 195.246,166.212 c 0,14.866 -5.504,27.287 -20.364,27.646 -19.622,0.473 -33.466,-12.78 -33.466,-27.646 0,-14.865 12.05,-26.916 26.915,-26.916 14.863,0 26.915,12.051 26.915,26.916 z"
   id="path79"
   inkscape:connector-curvature="0"
   style="fill:#86c0d9" />
	</g>
	<g
   id="g81">
		<path
   d="m 173.404,192.72 -0.008,-1.357 c 0.915,-0.004 1.818,-0.07 2.684,-0.195 l 0.194,1.344 c -0.927,0.132 -1.893,0.202 -2.87,0.208 z m -2.862,-0.151 c -0.93,-0.102 -1.879,-0.258 -2.823,-0.462 l 0.288,-1.326 c 0.897,0.195 1.799,0.343 2.681,0.438 l -0.146,1.35 z m 8.548,-0.681 -0.394,-1.3 c 0.856,-0.259 1.69,-0.59 2.481,-0.984 l 0.606,1.213 c -0.859,0.429 -1.764,0.789 -2.693,1.071 z m -14.128,-0.513 c -0.896,-0.284 -1.796,-0.61 -2.676,-0.974 l 0.518,-1.255 c 0.844,0.349 1.708,0.663 2.568,0.935 l -0.41,1.294 z m 19.296,-2.068 -0.804,-1.094 c 0.712,-0.522 1.393,-1.111 2.02,-1.752 l 0.97,0.95 c -0.68,0.693 -1.416,1.331 -2.186,1.896 z m -24.555,-0.098 c -0.83,-0.424 -1.663,-0.894 -2.478,-1.394 l 0.709,-1.155 c 0.785,0.48 1.589,0.933 2.387,1.341 l -0.618,1.208 z m -4.839,-2.979 c -0.759,-0.555 -1.51,-1.149 -2.229,-1.766 l 0.884,-1.03 c 0.692,0.594 1.414,1.166 2.146,1.699 l -0.801,1.097 z m 33.441,-1.024 -1.097,-0.798 c 0.516,-0.709 1.001,-1.477 1.443,-2.282 l 1.188,0.65 c -0.467,0.858 -0.985,1.675 -1.534,2.43 z m -37.75,-2.687 c -0.676,-0.689 -1.317,-1.402 -1.904,-2.122 l 1.05,-0.858 c 0.563,0.687 1.176,1.37 1.824,2.03 l -0.97,0.95 z m 40.516,-2.33 -1.255,-0.513 c 0.335,-0.823 0.641,-1.688 0.907,-2.569 l 1.299,0.394 c -0.278,0.921 -0.598,1.825 -0.951,2.688 z m -44.117,-2.09 c -0.54,-0.813 -1.029,-1.645 -1.453,-2.469 l 1.208,-0.621 c 0.4,0.781 0.863,1.568 1.375,2.34 l -1.13,0.75 z m 45.772,-3.359 -1.326,-0.277 c 0.183,-0.875 0.338,-1.783 0.461,-2.7 l 1.344,0.18 c -0.127,0.948 -0.288,1.89 -0.479,2.797 z m -48.382,-1.738 c -0.335,-0.915 -0.605,-1.845 -0.805,-2.764 l 1.327,-0.287 c 0.186,0.858 0.438,1.729 0.752,2.586 l -1.274,0.465 z m 49.138,-3.885 -1.354,-0.086 c 0.058,-0.906 0.086,-1.821 0.086,-2.745 l 1.357,-0.099 0,0.099 c 0,0.951 -0.03,1.898 -0.089,2.831 z m -50.337,-1.738 c -0.021,-0.363 -0.034,-0.726 -0.034,-1.093 0,-0.599 0.022,-1.194 0.064,-1.784 l 1.352,0.094 c -0.039,0.56 -0.058,1.122 -0.058,1.69 0,0.339 0.01,0.677 0.031,1.012 l -1.355,0.081 z m 48.908,-3.896 c -0.106,-0.898 -0.263,-1.798 -0.468,-2.669 l 1.321,-0.311 c 0.216,0.923 0.382,1.872 0.493,2.822 l -1.346,0.158 z m -47.184,-1.576 -1.335,-0.246 c 0.175,-0.939 0.405,-1.877 0.683,-2.784 l 1.296,0.399 c -0.263,0.857 -0.48,1.743 -0.644,2.631 z m 45.947,-3.692 c -0.305,-0.848 -0.661,-1.686 -1.06,-2.493 l 1.216,-0.601 c 0.421,0.853 0.799,1.739 1.12,2.637 l -1.276,0.457 z m -44.361,-1.481 -1.244,-0.543 c 0.382,-0.874 0.818,-1.735 1.298,-2.557 l 1.171,0.682 c -0.452,0.779 -0.864,1.591 -1.225,2.418 z m 41.965,-3.368 c -0.487,-0.755 -1.025,-1.492 -1.597,-2.193 l 1.05,-0.858 c 0.604,0.739 1.172,1.519 1.686,2.314 l -1.139,0.737 z m -39.248,-1.313 -1.088,-0.809 c 0.569,-0.766 1.188,-1.506 1.838,-2.199 l 0.989,0.928 c -0.615,0.656 -1.2,1.355 -1.739,2.08 z m 35.82,-2.875 c -0.649,-0.632 -1.338,-1.23 -2.049,-1.78 l 0.831,-1.072 c 0.749,0.581 1.478,1.212 2.162,1.88 l -0.944,0.972 z m -32.118,-1.078 -0.881,-1.033 c 0.724,-0.616 1.491,-1.199 2.284,-1.731 l 0.756,1.125 c -0.748,0.503 -1.475,1.055 -2.159,1.639 z m 27.835,-2.236 c -0.772,-0.47 -1.579,-0.898 -2.395,-1.274 l 0.568,-1.232 c 0.862,0.397 1.714,0.851 2.53,1.347 l -0.703,1.159 z m -23.345,-0.782 -0.626,-1.205 c 0.842,-0.437 1.722,-0.831 2.615,-1.172 l 0.484,1.266 c -0.846,0.324 -1.678,0.697 -2.473,1.111 z m 18.428,-1.483 c -0.853,-0.281 -1.733,-0.516 -2.619,-0.697 l 0.271,-1.329 c 0.938,0.192 1.87,0.44 2.771,0.738 l -0.423,1.288 z m -13.373,-0.448 -0.335,-1.313 c 0.917,-0.235 1.863,-0.42 2.811,-0.55 l 0.186,1.344 c -0.9,0.123 -1.794,0.298 -2.662,0.519 z m 8.071,-0.642 c -0.709,-0.064 -1.434,-0.096 -2.149,-0.096 l -0.561,0.007 -0.031,-1.357 0.592,-0.007 c 0.756,0 1.521,0.034 2.271,0.101 l -0.122,1.352 z"
   id="path83"
   inkscape:connector-curvature="0"
   style="fill:#ffffff" />
	</g>
	<g
   id="g85">
		<path
   stroke-miterlimit="10"
   d="m 144.003,188.775 c 0.283,2.586 -1.431,4.892 -3.827,5.155 l -46.991,5.122 c -2.396,0.26 -4.567,-1.624 -4.848,-4.209 l -4.692,-43.062 c -0.283,-2.585 1.431,-4.892 3.827,-5.153 l 46.99,-5.123 c 2.396,-0.261 4.567,1.623 4.848,4.209 l 4.693,43.061 z"
   id="path87"
   inkscape:connector-curvature="0"
   style="fill:#edc9bb;stroke:#ffffff;stroke-width:6;stroke-miterlimit:10" />
	</g>
	<g
   id="g89">
		<path
   d="m 143.993,188.701 c 0.283,2.586 -1.431,4.893 -3.827,5.155 l -46.991,5.122 c -2.396,0.261 -4.566,-1.623 -4.848,-4.209 l -4.693,-43.061 c -0.283,-2.586 1.431,-4.892 3.827,-5.153 l 46.99,-5.124 c 2.396,-0.26 4.567,1.624 4.848,4.21 l 4.694,43.06 z"
   id="path91"
   inkscape:connector-curvature="0"
   style="fill:#86c0d9" />
	</g>
	<g
   id="g93">
		<path
   d="m 93.938,197.577 c -1.089,-0.096 -2.127,-0.597 -2.923,-1.413 l 0.97,-0.947 c 0.571,0.584 1.305,0.942 2.072,1.009 l -0.119,1.351 z m 2.955,-0.235 -0.147,-1.349 2.82,-0.308 0.147,1.349 -2.82,0.308 z m 5.64,-0.615 -0.146,-1.349 2.82,-0.308 0.147,1.35 -2.821,0.307 z m 5.64,-0.615 -0.146,-1.35 2.82,-0.308 0.147,1.35 -2.821,0.308 z m 5.64,-0.614 -0.147,-1.349 2.82,-0.308 0.146,1.349 -2.819,0.308 z m 5.64,-0.614 -0.147,-1.35 2.82,-0.308 0.146,1.35 -2.819,0.308 z m 5.64,-0.615 -0.147,-1.35 2.819,-0.307 0.146,1.349 -2.818,0.308 z m 5.639,-0.614 -0.147,-1.35 2.82,-0.308 0.147,1.35 -2.82,0.308 z m -41.131,-0.379 -0.314,-2.838 1.349,-0.146 0.309,2.802 -1.344,0.182 z m 46.771,-0.236 -0.147,-1.35 1.905,-0.208 c 0.252,-0.028 0.501,-0.087 0.735,-0.173 l 0.465,1.274 c -0.333,0.122 -0.687,0.205 -1.05,0.247 l -1.908,0.21 z m 5.414,-2.581 -1.183,-0.664 c 0.319,-0.568 0.488,-1.224 0.488,-1.893 0,-0.146 -0.007,-0.293 -0.022,-0.441 l -0.118,-1.075 1.349,-0.146 0.118,1.077 c 0.021,0.198 0.031,0.393 0.031,0.586 -0.001,0.902 -0.229,1.785 -0.663,2.556 z m -52.806,-2.84 -0.307,-2.82 1.349,-0.147 0.308,2.82 -1.35,0.147 z m 51.664,-4.054 -0.308,-2.819 1.349,-0.147 0.308,2.82 -1.349,0.146 z m -52.279,-1.586 -0.308,-2.819 1.349,-0.147 0.307,2.82 -1.348,0.146 z m 51.663,-4.053 -0.308,-2.82 1.349,-0.146 0.308,2.82 -1.349,0.146 z m -52.278,-1.587 -0.307,-2.82 1.349,-0.146 0.308,2.819 -1.35,0.147 z m 51.663,-4.053 -0.307,-2.818 1.349,-0.147 0.308,2.818 -1.35,0.147 z m -52.278,-1.588 -0.308,-2.819 1.349,-0.147 0.308,2.82 -1.349,0.146 z m 51.663,-4.051 -0.307,-2.82 1.349,-0.146 0.308,2.82 -1.35,0.146 z m -52.277,-1.588 -0.308,-2.82 1.349,-0.146 0.307,2.82 -1.348,0.146 z m 51.663,-4.052 -0.308,-2.819 1.349,-0.147 0.307,2.82 -1.348,0.146 z m -52.279,-1.588 -0.308,-2.819 1.349,-0.146 0.308,2.818 -1.349,0.147 z m 51.663,-4.052 -0.307,-2.82 1.349,-0.146 0.308,2.82 -1.35,0.146 z m -52.277,-1.587 -0.059,-0.539 c -0.022,-0.196 -0.032,-0.394 -0.032,-0.59 0,-0.691 0.132,-1.361 0.391,-1.99 l 1.255,0.515 c -0.191,0.466 -0.288,0.961 -0.288,1.476 0,0.146 0.007,0.293 0.023,0.44 l 0.059,0.541 -1.349,0.147 z m 51.663,-4.052 -0.229,-2.099 c -0.022,-0.212 -0.061,-0.415 -0.112,-0.613 l 1.311,-0.347 c 0.07,0.262 0.12,0.535 0.151,0.814 l 0.228,2.097 -1.349,0.148 z m -48.571,-0.297 -0.648,-1.19 c 0.51,-0.277 1.061,-0.45 1.637,-0.515 l 1.367,-0.147 0.146,1.349 -1.365,0.148 c -0.4,0.043 -0.784,0.163 -1.137,0.355 z m 5.322,-0.812 -0.147,-1.349 2.82,-0.308 0.146,1.349 -2.819,0.308 z m 5.64,-0.615 -0.147,-1.349 2.82,-0.308 0.147,1.349 -2.82,0.308 z m 5.639,-0.614 -0.146,-1.35 2.82,-0.308 0.147,1.35 -2.821,0.308 z m 5.641,-0.615 -0.146,-1.349 2.82,-0.308 0.147,1.349 -2.821,0.308 z m 5.64,-0.614 -0.147,-1.35 2.82,-0.308 0.147,1.35 -2.82,0.308 z m 5.639,-0.615 -0.146,-1.35 2.82,-0.308 0.147,1.35 -2.821,0.308 z m 13.425,-0.511 c -0.59,-0.469 -1.282,-0.715 -2.001,-0.715 l -0.177,0.004 -0.078,-1.354 c 1.112,-0.057 2.197,0.288 3.099,1.001 l -0.843,1.064 z m -7.785,-0.104 -0.146,-1.349 2.82,-0.307 0.147,1.35 -2.821,0.306 z"
   id="path95"
   inkscape:connector-curvature="0"
   style="fill:#ffffff" />
	</g>
	<g
   id="g97">
		<path
   stroke-miterlimit="10"
   d="m 248.777,192.467 c -0.237,2.59 -2.373,4.512 -4.773,4.293 l -47.074,-4.292 c -2.4,-0.219 -4.153,-2.494 -3.917,-5.085 l 3.933,-43.136 c 0.235,-2.591 2.371,-4.512 4.772,-4.294 l 47.073,4.292 c 2.4,0.219 4.155,2.495 3.917,5.085 l -3.931,43.137 z"
   id="path99"
   inkscape:connector-curvature="0"
   style="fill:#b4badd;stroke:#ffffff;stroke-width:6;stroke-miterlimit:10" />
	</g>
	<g
   id="g101">
		<path
   d="m 248.767,192.393 c -0.236,2.59 -2.373,4.513 -4.772,4.294 l -47.075,-4.292 c -2.4,-0.219 -4.153,-2.495 -3.917,-5.085 l 3.933,-43.137 c 0.235,-2.59 2.371,-4.511 4.773,-4.294 l 47.072,4.293 c 2.4,0.219 4.155,2.494 3.917,5.084 l -3.931,43.137 z"
   id="path103"
   inkscape:connector-curvature="0"
   style="fill:#86c0d9" />
	</g>
	<g
   id="g105">
		<path
   d="m 242.765,195.325 c -0.133,0 -0.266,-0.007 -0.4,-0.018 l -1.913,-0.175 0.125,-1.353 1.907,0.175 c 0.244,0.022 0.509,0.016 0.752,-0.023 l 0.208,1.341 c -0.223,0.036 -0.451,0.053 -0.679,0.053 z m -5.136,-0.448 -2.826,-0.258 0.122,-1.353 2.826,0.258 -0.122,1.353 z m -5.65,-0.516 -2.825,-0.258 0.122,-1.352 2.825,0.258 -0.122,1.352 z m -5.651,-0.515 -2.824,-0.258 0.122,-1.352 2.824,0.258 -0.122,1.352 z m 19.943,-0.169 -1.028,-0.886 c 0.525,-0.608 0.843,-1.366 0.917,-2.194 l 0.099,-1.08 1.352,0.121 -0.099,1.082 c -0.103,1.112 -0.533,2.134 -1.241,2.957 z m -25.593,-0.346 -2.823,-0.258 0.121,-1.353 2.824,0.258 -0.122,1.353 z m -5.65,-0.516 -2.824,-0.258 0.122,-1.352 2.824,0.258 -0.122,1.352 z m -5.649,-0.514 -2.824,-0.257 0.122,-1.352 2.824,0.256 -0.122,1.353 z m -5.65,-0.515 -2.823,-0.258 0.122,-1.352 2.824,0.258 -0.123,1.352 z m -5.769,-0.61 c -1.051,-0.309 -1.969,-1.006 -2.589,-1.966 l 1.142,-0.734 c 0.44,0.685 1.09,1.182 1.83,1.398 l -0.383,1.302 z m 49.907,-4.363 -1.352,-0.122 0.258,-2.824 1.352,0.122 -0.258,2.824 z m -51.951,-0.639 -1.354,-0.061 0.014,-0.216 0.241,-2.642 1.352,0.124 -0.253,2.795 z m 52.467,-5.011 -1.353,-0.122 0.258,-2.824 1.353,0.122 -0.258,2.824 z m -51.959,-0.608 -1.352,-0.122 0.258,-2.825 1.352,0.122 -0.258,2.825 z m 52.473,-5.041 -1.352,-0.122 0.258,-2.824 1.352,0.122 -0.258,2.824 z m -51.958,-0.609 -1.352,-0.122 0.258,-2.825 1.352,0.121 -0.258,2.826 z m 52.474,-5.042 -1.352,-0.122 0.256,-2.825 1.352,0.122 -0.256,2.825 z m -51.958,-0.607 -1.353,-0.122 0.258,-2.826 1.353,0.122 -0.258,2.826 z m 52.472,-5.042 -1.352,-0.122 0.258,-2.825 1.352,0.122 -0.258,2.825 z m -51.958,-0.61 -1.352,-0.122 0.257,-2.824 1.353,0.122 -0.258,2.824 z m 52.473,-5.04 -1.353,-0.122 0.258,-2.826 1.352,0.122 -0.257,2.826 z m -51.958,-0.609 -1.353,-0.122 0.258,-2.824 1.352,0.122 -0.257,2.824 z m 52.473,-5.041 -1.352,-0.122 0.191,-2.098 c 0.012,-0.128 0.018,-0.251 0.018,-0.373 l -0.008,-0.256 1.354,-0.077 0.011,0.323 c 0,0.174 -0.008,0.338 -0.023,0.507 l -0.191,2.096 z m -51.958,-0.609 -1.352,-0.122 0.258,-2.823 1.352,0.121 -0.258,2.824 z m 49.939,-4.434 c -0.521,-0.617 -1.229,-1.018 -1.992,-1.126 l 0.19,-1.344 c 1.093,0.155 2.102,0.722 2.838,1.595 l -1.036,0.875 z m -49.425,-1.215 -1.352,-0.124 0.05,-0.54 c 0.082,-0.884 0.38,-1.733 0.861,-2.456 l 1.128,0.753 c -0.356,0.535 -0.578,1.167 -0.638,1.827 l -0.049,0.54 z m 44.642,-0.169 -2.824,-0.257 0.122,-1.353 2.824,0.258 -0.122,1.352 z m -5.649,-0.514 -2.826,-0.258 0.122,-1.352 2.825,0.257 -0.121,1.353 z m -5.651,-0.516 -2.825,-0.258 0.122,-1.352 2.825,0.258 -0.122,1.352 z m -5.649,-0.516 -2.825,-0.257 0.121,-1.353 2.826,0.258 -0.122,1.352 z m -5.649,-0.514 -2.826,-0.258 0.122,-1.352 2.825,0.257 -0.121,1.353 z m -5.65,-0.514 -2.826,-0.258 0.122,-1.352 2.825,0.257 -0.121,1.353 z m -5.65,-0.516 -2.825,-0.258 0.122,-1.352 2.825,0.258 -0.122,1.352 z m -5.653,-0.515 -1.366,-0.124 c -0.379,-0.035 -0.796,0.006 -1.186,0.123 l -0.396,-1.297 c 0.554,-0.17 1.123,-0.224 1.7,-0.179 l 1.371,0.125 -0.123,1.352 z"
   id="path107"
   inkscape:connector-curvature="0"
   style="fill:#ffffff" />
	</g>
	<g
   id="g109">
		<path
   d="m 116.511,187.955 c -3.535,0.219 -5.988,-0.897 -7.402,-3.244 l -0.1,0.008 0.082,1.313 c 0.089,1.466 -0.712,2.428 -2.075,2.512 -1.364,0.085 -2.28,-0.771 -2.37,-2.236 l -1.974,-31.826 c -0.09,-1.465 0.713,-2.426 2.079,-2.511 1.363,-0.085 2.277,0.771 2.368,2.237 l 0.64,10.354 0.1,-0.007 c 1.061,-1.738 3.411,-3.863 6.95,-4.082 7.272,-0.45 11.878,5.909 12.319,13.03 0.442,7.125 -3.341,14.001 -10.617,14.452 z m -1.817,-23.619 c -5.457,0.338 -7.042,5.811 -6.759,10.357 0.28,4.546 2.533,9.782 7.985,9.444 5.458,-0.339 7.044,-5.812 6.763,-10.357 -0.283,-4.547 -2.532,-9.784 -7.989,-9.444 z"
   id="path111"
   inkscape:connector-curvature="0"
   style="fill:#ffffff" />
		<path
   d="m 106.828,189.586 c -0.821,0 -1.55,-0.261 -2.116,-0.761 -0.657,-0.58 -1.038,-1.43 -1.1,-2.454 l -1.974,-31.826 c -0.126,-2.039 1.1,-3.489 3.05,-3.609 1.918,-0.139 3.341,1.167 3.467,3.206 l 0.487,7.875 c 1.458,-1.326 3.526,-2.419 6.104,-2.578 3.744,-0.256 7.063,1.16 9.567,4.027 2.245,2.572 3.612,6.114 3.85,9.974 0.455,7.343 -3.381,15.042 -11.589,15.551 l 0,0 c -2.723,0.18 -4.938,-0.399 -6.575,-1.697 -0.361,1.321 -1.429,2.194 -2.92,2.285 -0.085,0.004 -0.168,0.007 -0.251,0.007 z m -1.893,-36.584 c -0.039,0 -0.078,10e-4 -0.119,0.002 -0.79,0.051 -1.162,0.525 -1.108,1.413 l 1.974,31.826 c 0.021,0.324 0.107,0.765 0.403,1.026 0.205,0.18 0.492,0.248 0.867,0.238 0.787,-0.049 1.158,-0.523 1.104,-1.414 l -0.145,-2.34 1.66,-0.114 0.427,0.536 c 1.229,2.038 3.324,2.936 6.45,2.745 l 0,0 c 6.848,-0.426 10.036,-7.039 9.647,-13.354 -0.212,-3.405 -1.398,-6.508 -3.343,-8.737 -1.439,-1.648 -3.97,-3.563 -7.877,-3.323 -3.018,0.188 -5.146,1.977 -6.129,3.588 l -0.278,0.457 -1.578,0.109 -0.164,-1.036 -0.64,-10.354 c -0.053,-0.842 -0.44,-1.268 -1.151,-1.268 z m 10.49,32.188 c -2.588,0 -4.753,-1.15 -6.288,-3.351 -1.274,-1.826 -2.069,-4.342 -2.237,-7.083 -0.17,-2.741 0.306,-5.335 1.344,-7.305 1.339,-2.54 3.547,-3.977 6.387,-4.151 l 0,0 c 2.817,-0.184 5.207,0.974 6.849,3.331 1.273,1.826 2.068,4.343 2.238,7.085 0.313,5.043 -1.526,11.07 -7.734,11.456 -0.188,0.014 -0.375,0.018 -0.559,0.018 z m -0.238,-19.833 c -0.141,0 -0.284,0.005 -0.429,0.013 l 0,0 c -2.107,0.132 -3.68,1.156 -4.678,3.05 -0.863,1.636 -1.257,3.841 -1.11,6.21 0.146,2.365 0.81,4.505 1.87,6.023 1.223,1.756 2.91,2.573 5.017,2.45 4.679,-0.292 6.044,-5.171 5.792,-9.26 -0.148,-2.366 -0.812,-4.507 -1.87,-6.024 -1.14,-1.634 -2.685,-2.462 -4.592,-2.462 z"
   id="path113"
   inkscape:connector-curvature="0"
   style="fill:#ffffff" />
	</g>
	<g
   id="g115">
		<path
   d="m 169.238,184.29 c -9.096,0.38 -14.521,-7.349 -14.878,-15.899 -0.359,-8.55 4.403,-16.705 13.497,-17.086 9.096,-0.381 14.523,7.351 14.88,15.899 0.358,8.55 -4.405,16.705 -13.499,17.086 z m -1.187,-28.377 c -6.55,0.274 -8.583,6.798 -8.356,12.255 0.229,5.457 2.801,11.787 9.351,11.513 6.547,-0.272 8.584,-6.797 8.358,-12.254 -0.231,-5.455 -2.804,-11.788 -9.353,-11.514 z"
   id="path117"
   inkscape:connector-curvature="0"
   style="fill:#ffffff" />
		<path
   d="m 168.585,185.458 c -9.633,0 -15.021,-8.456 -15.378,-17.019 -0.195,-4.633 1.021,-9.013 3.421,-12.331 2.679,-3.702 6.544,-5.762 11.18,-5.956 4.632,-0.188 8.661,1.536 11.641,5.002 2.67,3.106 4.248,7.37 4.44,12.001 0.366,8.77 -4.532,17.866 -14.603,18.287 l 0,0 c -0.235,0.01 -0.469,0.016 -0.701,0.016 z m -0.089,-33.014 c -0.195,0 -0.392,0.005 -0.59,0.013 -3.905,0.163 -7.158,1.895 -9.407,5.005 -2.099,2.9 -3.158,6.765 -2.986,10.881 0.32,7.623 5.123,15.163 13.677,14.795 8.559,-0.358 12.714,-8.263 12.396,-15.886 -0.174,-4.116 -1.553,-7.879 -3.886,-10.594 -2.376,-2.762 -5.549,-4.214 -9.204,-4.214 z m 0.124,28.401 c -7.038,0 -9.831,-6.744 -10.078,-12.628 -0.25,-6.014 2.076,-13.147 9.46,-13.456 l 0,0 c 7.436,-0.314 10.299,6.604 10.553,12.618 0.251,6.015 -2.078,13.146 -9.461,13.454 -0.16,0.007 -0.319,0.012 -0.474,0.012 z m -0.52,-23.78 c -5.683,0.238 -7.458,6.104 -7.252,11.054 0.208,4.949 2.45,10.62 8.15,10.409 5.683,-0.236 7.459,-6.103 7.254,-11.053 -0.211,-4.95 -2.481,-10.606 -8.152,-10.41 l 0,0 z"
   id="path119"
   inkscape:connector-curvature="0"
   style="fill:#ffffff" />
	</g>
	<g
   id="g121">
		<path
   d="m 233.01,188.74 c -1.01,-0.098 -1.974,-0.667 -2.497,-1.6 l -8.565,-14.692 -11.229,12.778 c -0.69,0.814 -1.744,1.188 -2.757,1.092 -1.547,-0.149 -2.573,-1.473 -2.431,-2.953 0.064,-0.674 0.418,-1.523 1.484,-2.712 l 11.913,-12.848 -8.113,-13.084 c -0.648,-1.014 -0.84,-1.849 -0.781,-2.454 0.144,-1.482 1.338,-2.589 2.752,-2.451 1.347,0.13 1.892,0.793 2.428,1.592 l 7.566,12.422 9.803,-10.74 c 0.68,-0.683 1.344,-1.229 2.688,-1.1 1.417,0.139 2.377,1.455 2.234,2.934 -0.059,0.607 -0.407,1.391 -1.24,2.261 l -10.468,11.285 9.227,14.894 c 0.819,1.37 1.005,2.273 0.939,2.945 -0.144,1.48 -1.404,2.582 -2.953,2.431 z"
   id="path123"
   inkscape:connector-curvature="0"
   style="fill:#ffffff" />
		<path
   d="m 233.291,190.04 c -0.133,0 -0.27,-0.006 -0.405,-0.02 l -0.001,0 c -1.478,-0.145 -2.784,-0.985 -3.494,-2.249 l -7.655,-13.134 -10.051,11.438 c -0.924,1.088 -2.365,1.668 -3.846,1.521 -2.228,-0.215 -3.803,-2.129 -3.588,-4.355 0.105,-1.096 0.681,-2.191 1.808,-3.448 l 11.261,-12.144 -7.597,-12.251 c -0.92,-1.437 -1.035,-2.564 -0.969,-3.255 0.216,-2.229 2.009,-3.83 4.157,-3.608 1.898,0.183 2.736,1.209 3.371,2.156 l 6.705,11.005 8.646,-9.474 c 0.846,-0.851 1.879,-1.702 3.762,-1.513 2.116,0.206 3.605,2.112 3.391,4.337 -0.066,0.69 -0.396,1.778 -1.59,3.026 l -9.788,10.553 8.71,14.06 c 0.879,1.468 1.233,2.652 1.127,3.746 -0.205,2.092 -1.904,3.609 -3.954,3.609 z m -0.157,-2.579 c 0.834,0.07 1.473,-0.473 1.551,-1.277 0.048,-0.504 -0.208,-1.231 -0.764,-2.16 l -9.732,-15.71 11.134,-12.003 c 0.783,-0.818 0.888,-1.361 0.903,-1.51 0.076,-0.792 -0.397,-1.464 -1.079,-1.53 -0.778,-0.077 -1.067,0.14 -1.652,0.727 l -10.92,11.968 -8.458,-13.888 c -0.431,-0.639 -0.679,-0.906 -1.453,-0.981 -0.698,-0.047 -1.271,0.506 -1.35,1.297 -0.014,0.145 -0.014,0.7 0.585,1.637 l 8.64,13.931 -12.579,13.567 c -0.708,0.789 -1.099,1.454 -1.148,1.961 -0.077,0.807 0.472,1.473 1.274,1.55 0.647,0.056 1.26,-0.179 1.651,-0.643 l 12.423,-14.138 9.464,16.234 c 0.304,0.542 0.878,0.905 1.51,0.968 l 0,0 z"
   id="path125"
   inkscape:connector-curvature="0"
   style="fill:#ffffff" />
	</g>
	<g
   id="g127">
		<path
   d="m 151.5,115.875 c -1.922,0.082 -3.377,-1.155 -3.769,-3.223 l -0.31,-1.64 -0.139,0.008 c -2.111,3.676 -5.763,5.266 -9.543,5.418 -6.847,0.281 -13.75,-2.813 -15.215,-10.587 -2.234,-11.838 8.713,-13.221 18.41,-13.618 l 2.995,-0.122 -0.888,-4.708 c -0.604,-3.209 -3.542,-4.672 -7.603,-4.501 -5.992,0.245 -6.338,4.137 -9.044,4.251 -1.924,0.08 -3.08,-1.097 -3.338,-2.449 -0.74,-3.925 6.154,-7.008 11.358,-7.223 8.273,-0.339 13.603,3.182 14.922,10.168 l 4.668,24.746 c 0.39,2.067 -0.579,3.401 -2.504,3.48 z m -6.656,-18.916 -1.354,0.055 c -7.985,0.33 -16.19,0.662 -14.697,8.578 0.781,4.14 4.929,5.55 9.065,5.38 5.349,-0.217 8.91,-3.816 7.658,-10.446 l -0.672,-3.567 z"
   id="path129"
   inkscape:connector-curvature="0"
   style="fill:#ffffff" />
		<path
   d="m 136.855,118.066 c -8.336,0 -14.534,-4.603 -15.913,-11.917 -0.764,-4.053 -0.151,-7.366 1.823,-9.85 3.561,-4.48 10.805,-5.375 18.103,-5.674 l 1.134,-0.046 -0.543,-2.878 c -0.53,-2.821 -3.533,-3.302 -5.953,-3.191 -2.994,0.122 -4.207,1.248 -5.38,2.336 -0.931,0.865 -1.985,1.844 -3.665,1.915 -2.945,0.095 -4.613,-1.798 -4.986,-3.756 -0.273,-1.449 0.13,-2.903 1.167,-4.208 2.396,-3.014 7.703,-4.759 11.704,-4.924 9.072,-0.37 15.123,3.812 16.571,11.477 l 4.667,24.747 c 0.366,1.938 -0.215,3.172 -0.766,3.866 -0.521,0.654 -1.505,1.449 -3.252,1.521 l 0,0 c -2.18,0.073 -4.035,-1.048 -4.937,-3.006 -2.229,2.182 -5.268,3.425 -8.827,3.569 -0.317,0.012 -0.634,0.019 -0.947,0.019 z m -0.81,-36.786 c 4.699,0 7.885,2.147 8.578,5.826 l 1.232,6.538 -4.855,0.197 c -6.534,0.267 -12.959,0.993 -15.716,4.461 -1.384,1.743 -1.771,4.114 -1.178,7.251 1.356,7.195 7.932,9.532 13.567,9.277 2.129,-0.085 6.025,-0.799 8.213,-4.612 l 0.434,-0.752 2.28,-0.137 0.403,1.384 0.311,1.64 c 0.141,0.742 0.6,1.974 2.119,1.914 l 0.001,0 c 0.293,-0.011 0.681,-0.075 0.867,-0.307 0.186,-0.234 0.23,-0.696 0.122,-1.266 l -4.667,-24.747 c -1.457,-7.712 -8.038,-9.087 -13.275,-8.858 -3.63,0.15 -7.809,1.815 -9.317,3.711 -0.669,0.842 -0.561,1.417 -0.525,1.606 0.053,0.278 0.295,1.179 1.69,1.139 0.452,-0.018 0.8,-0.305 1.611,-1.057 1.296,-1.204 3.256,-3.022 7.435,-3.194 0.224,-0.01 0.45,-0.014 0.67,-0.014 z m 1.144,31.315 c -5.395,0 -9.19,-2.528 -9.978,-6.705 -0.498,-2.634 -0.083,-4.808 1.23,-6.46 2.798,-3.521 8.982,-3.775 14.963,-4.022 l 2.764,-0.114 0.93,4.934 c 0.86,4.556 -0.432,7.363 -1.666,8.916 -1.66,2.086 -4.326,3.307 -7.508,3.437 -0.249,0.008 -0.492,0.014 -0.735,0.014 z m 6.331,-13.971 c -5.022,0.208 -10.682,0.446 -12.56,2.809 -0.715,0.899 -0.908,2.162 -0.586,3.862 0.738,3.917 5.429,4.143 7.417,4.069 1.582,-0.064 3.752,-0.501 5.121,-2.223 1.171,-1.474 1.525,-3.658 1.022,-6.316 l -0.414,-2.201 z"
   id="path131"
   inkscape:connector-curvature="0"
   style="fill:#ffffff" />
	</g>
	<g
   id="g133">
		<g
   id="g135">
			<path
   stroke-miterlimit="10"
   d="m 288.596,164.575 c 0,0 -7.995,4.526 -11.511,3.327 -3.52,-1.198 -11.663,-8.843 -4.593,-18.032 7.065,-9.188 21.299,-9.791 29.992,3.811 8.693,13.602 9.494,20.51 2.654,25.899 -6.84,5.391 -8.329,-2.777 -8.595,-5.488 -0.264,-2.713 -1.164,-8.071 -7.947,-9.517 z"
   id="path137"
   inkscape:connector-curvature="0"
   style="fill:#c0d898;stroke:#ffffff;stroke-width:6;stroke-miterlimit:10" />
		</g>
		<g
   id="g139">
			<path
   stroke-miterlimit="10"
   d="m 261.437,159.869 c 2.657,1.438 5.664,1.027 6.717,-0.92 1.053,-1.942 -0.248,-4.688 -2.905,-6.125 -2.653,-1.435 -5.662,-1.025 -6.713,0.92 -1.055,1.946 0.247,4.687 2.901,6.125 z"
   id="path141"
   inkscape:connector-curvature="0"
   style="fill:#c0d898;stroke:#ffffff;stroke-width:6;stroke-miterlimit:10" />
		</g>
		<g
   id="g143">
			<path
   stroke-miterlimit="10"
   d="m 266.019,150.165 c 1.951,1.056 4.162,0.756 4.935,-0.676 0.776,-1.428 -0.181,-3.443 -2.136,-4.5 -1.95,-1.057 -4.159,-0.755 -4.934,0.676 -0.773,1.428 0.183,3.444 2.135,4.5 z"
   id="path145"
   inkscape:connector-curvature="0"
   style="fill:#c0d898;stroke:#ffffff;stroke-width:6;stroke-miterlimit:10" />
		</g>
		<g
   id="g147">
			<path
   stroke-miterlimit="10"
   d="m 271.567,144.183 c 1.669,1.462 3.841,1.715 4.844,0.564 1.004,-1.147 0.462,-3.264 -1.208,-4.725 -1.671,-1.462 -3.838,-1.714 -4.845,-0.563 -1.002,1.145 -0.46,3.26 1.209,4.724 z"
   id="path149"
   inkscape:connector-curvature="0"
   style="fill:#c0d898;stroke:#ffffff;stroke-width:6;stroke-miterlimit:10" />
		</g>
		<g
   id="g151">
			
				<ellipse
   transform="matrix(-0.814,0.5808,-0.5808,-0.814,589.2336,89.616)"
   stroke-miterlimit="10"
   cx="280.26999"
   cy="139.14301"
   rx="2.5420001"
   ry="3.642"
   id="ellipse153"
   style="fill:#c0d898;stroke:#ffffff;stroke-width:6;stroke-miterlimit:10" />
		</g>
		<g
   id="g155">
			<path
   stroke-miterlimit="10"
   d="m 285.454,139.176 c 0.612,1.669 2.103,2.651 3.329,2.199 1.228,-0.451 1.721,-2.169 1.108,-3.834 -0.613,-1.666 -2.104,-2.647 -3.332,-2.196 -1.224,0.449 -1.72,2.168 -1.105,3.831 z"
   id="path157"
   inkscape:connector-curvature="0"
   style="fill:#c0d898;stroke:#ffffff;stroke-width:6;stroke-miterlimit:10" />
		</g>
	</g>
	<g
   id="g159">
		<g
   id="g161">
			<path
   stroke-miterlimit="10"
   d="m 289.729,192.883 c 0,0 1.255,-9.019 -1.132,-11.822 -2.388,-2.802 -12.399,-7.52 -18.289,2.343 -5.89,9.865 -1.257,23.198 14.447,26.251 15.702,3.052 22.362,1.269 24.834,-6.999 2.472,-8.271 -5.596,-6.664 -8.192,-5.92 -2.595,0.747 -7.861,1.87 -11.668,-3.853 z"
   id="path163"
   inkscape:connector-curvature="0"
   style="fill:#c0d898;stroke:#ffffff;stroke-width:6;stroke-miterlimit:10" />
		</g>
		<g
   id="g165">
			<path
   stroke-miterlimit="10"
   d="m 275.489,169.572 c 2.293,1.923 3.013,4.844 1.601,6.522 -1.406,1.681 -4.406,1.482 -6.7,-0.441 -2.293,-1.923 -3.011,-4.843 -1.603,-6.522 1.407,-1.679 4.409,-1.48 6.702,0.441 z"
   id="path167"
   inkscape:connector-curvature="0"
   style="fill:#c0d898;stroke:#ffffff;stroke-width:6;stroke-miterlimit:10" />
		</g>
		<g
   id="g169">
			<path
   stroke-miterlimit="10"
   d="m 268.218,177.332 c 1.685,1.415 2.214,3.561 1.175,4.792 -1.032,1.237 -3.238,1.09 -4.921,-0.324 -1.688,-1.41 -2.214,-3.558 -1.181,-4.792 1.036,-1.231 3.241,-1.088 4.927,0.324 z"
   id="path171"
   inkscape:connector-curvature="0"
   style="fill:#c0d898;stroke:#ffffff;stroke-width:6;stroke-miterlimit:10" />
		</g>
		<g
   id="g173">
			<path
   stroke-miterlimit="10"
   d="m 264.729,184.628 c 1.956,1.006 2.979,2.912 2.287,4.258 -0.692,1.344 -2.839,1.615 -4.794,0.609 -1.955,-1.005 -2.979,-2.911 -2.286,-4.258 0.69,-1.341 2.837,-1.616 4.793,-0.609 z"
   id="path175"
   inkscape:connector-curvature="0"
   style="fill:#c0d898;stroke:#ffffff;stroke-width:6;stroke-miterlimit:10" />
		</g>
		<g
   id="g177">
			
				<ellipse
   transform="matrix(0.2407,-0.9706,0.9706,0.2407,11.133,403.1983)"
   stroke-miterlimit="10"
   cx="263.25699"
   cy="194.48399"
   rx="2.5179999"
   ry="3.609"
   id="ellipse179"
   style="fill:#c0d898;stroke:#ffffff;stroke-width:6;stroke-miterlimit:10" />
		</g>
		<g
   id="g181">
			<path
   stroke-miterlimit="10"
   d="m 265.181,199.249 c 1.759,-0.044 3.209,0.973 3.239,2.266 0.03,1.297 -1.371,2.379 -3.129,2.419 -1.757,0.041 -3.209,-0.97 -3.241,-2.267 -0.03,-1.293 1.372,-2.376 3.131,-2.418 z"
   id="path183"
   inkscape:connector-curvature="0"
   style="fill:#c0d898;stroke:#ffffff;stroke-width:6;stroke-miterlimit:10" />
		</g>
	</g>
	<g
   id="g185">
		<g
   id="g187">
			<path
   d="m 288.585,164.502 c 0,0 -7.995,4.526 -11.511,3.327 -3.519,-1.198 -11.663,-8.843 -4.593,-18.033 7.065,-9.187 21.299,-9.791 29.993,3.811 8.692,13.602 9.493,20.511 2.653,25.899 -6.84,5.391 -8.328,-2.777 -8.595,-5.487 -0.262,-2.714 -1.163,-8.071 -7.947,-9.517 z"
   id="path189"
   inkscape:connector-curvature="0"
   style="fill:#86c0d9" />
		</g>
		<g
   id="g191">
			
				<ellipse
   transform="matrix(-0.476,0.8794,-0.8794,-0.476,526.111,-0.9283)"
   cx="263.332"
   cy="156.27299"
   rx="4.0050001"
   ry="5.4699998"
   id="ellipse193"
   style="fill:#86c0d9" />
		</g>
		<g
   id="g195">
			
				<ellipse
   transform="matrix(-0.4757,0.8796,-0.8796,-0.4757,524.3628,-17.5367)"
   cx="267.40799"
   cy="147.50301"
   rx="2.9430001"
   ry="4.0190001"
   id="ellipse197"
   style="fill:#86c0d9" />
		</g>
		<g
   id="g199">
			<path
   d="m 271.557,144.109 c 1.669,1.461 3.841,1.715 4.844,0.563 1.004,-1.146 0.462,-3.264 -1.208,-4.725 -1.67,-1.461 -3.838,-1.713 -4.845,-0.563 -1.002,1.146 -0.46,3.262 1.209,4.725 z"
   id="path201"
   inkscape:connector-curvature="0"
   style="fill:#86c0d9" />
		</g>
		<g
   id="g203">
			
				<ellipse
   transform="matrix(-0.8141,0.5807,-0.5807,-0.8141,589.179,89.5368)"
   cx="280.259"
   cy="139.069"
   rx="2.5420001"
   ry="3.642"
   id="ellipse205"
   style="fill:#86c0d9" />
		</g>
		<g
   id="g207">
			<path
   d="m 285.443,139.103 c 0.612,1.669 2.103,2.65 3.33,2.199 1.227,-0.451 1.72,-2.169 1.107,-3.834 -0.613,-1.666 -2.104,-2.648 -3.332,-2.196 -1.224,0.448 -1.72,2.166 -1.105,3.831 z"
   id="path209"
   inkscape:connector-curvature="0"
   style="fill:#86c0d9" />
		</g>
	</g>
	<g
   id="g211">
		<g
   id="g213">
			<path
   d="m 289.719,192.81 c 0,0 1.255,-9.02 -1.131,-11.823 -2.389,-2.802 -12.399,-7.52 -18.29,2.344 -5.89,9.864 -1.257,23.197 14.447,26.25 15.703,3.053 22.362,1.269 24.835,-6.999 2.471,-8.27 -5.596,-6.663 -8.193,-5.919 -2.596,0.746 -7.862,1.87 -11.668,-3.853 z"
   id="path215"
   inkscape:connector-curvature="0"
   style="fill:#86c0d9" />
		</g>
		<g
   id="g217">
			<path
   d="m 275.479,169.499 c 2.293,1.923 3.014,4.844 1.601,6.522 -1.406,1.68 -4.406,1.481 -6.7,-0.442 -2.293,-1.922 -3.011,-4.842 -1.603,-6.522 1.408,-1.678 4.409,-1.479 6.702,0.442 z"
   id="path219"
   inkscape:connector-curvature="0"
   style="fill:#86c0d9" />
		</g>
		<g
   id="g221">
			<path
   d="m 268.208,177.258 c 1.684,1.416 2.213,3.562 1.174,4.793 -1.031,1.236 -3.238,1.09 -4.921,-0.324 -1.688,-1.41 -2.214,-3.559 -1.18,-4.792 1.035,-1.231 3.24,-1.088 4.927,0.323 z"
   id="path223"
   inkscape:connector-curvature="0"
   style="fill:#86c0d9" />
		</g>
		<g
   id="g225">
			<path
   d="m 264.719,184.555 c 1.955,1.006 2.979,2.911 2.287,4.258 -0.693,1.344 -2.84,1.615 -4.794,0.609 -1.956,-1.006 -2.979,-2.911 -2.287,-4.258 0.691,-1.341 2.838,-1.616 4.794,-0.609 z"
   id="path227"
   inkscape:connector-curvature="0"
   style="fill:#86c0d9" />
		</g>
		<g
   id="g229">
			
				<ellipse
   transform="matrix(0.2406,-0.9706,0.9706,0.2406,11.2061,403.1437)"
   cx="263.24701"
   cy="194.41"
   rx="2.5179999"
   ry="3.609"
   id="ellipse231"
   style="fill:#86c0d9" />
		</g>
		<g
   id="g233">
			<path
   d="m 265.17,199.176 c 1.759,-0.045 3.209,0.972 3.24,2.266 0.03,1.297 -1.372,2.378 -3.129,2.419 -1.758,0.041 -3.21,-0.97 -3.241,-2.267 -0.03,-1.294 1.371,-2.377 3.13,-2.418 z"
   id="path235"
   inkscape:connector-curvature="0"
   style="fill:#86c0d9" />
		</g>
	</g>
</g>
</svg>