<?xml version="1.0" encoding="UTF-8" standalone="no"?>
<!-- Generator: Adobe Illustrator 15.0.2, SVG Export Plug-In . SVG Version: 6.00 Build 0)  -->

<svg
   xmlns:dc="http://purl.org/dc/elements/1.1/"
   xmlns:cc="http://creativecommons.org/ns#"
   xmlns:rdf="http://www.w3.org/1999/02/22-rdf-syntax-ns#"
   xmlns:svg="http://www.w3.org/2000/svg"
   xmlns="http://www.w3.org/2000/svg"
   xmlns:xlink="http://www.w3.org/1999/xlink"
   xmlns:sodipodi="http://sodipodi.sourceforge.net/DTD/sodipodi-0.dtd"
   xmlns:inkscape="http://www.inkscape.org/namespaces/inkscape"
   version="1.1"
   id="Слой_1"
   x="0px"
   y="0px"
   width="340"
   height="255"
   viewBox="0 0 340.00001 255"
   enable-background="new 0 0 340.214 255.12"
   xml:space="preserve"
   inkscape:version="0.91 r13725"
   sodipodi:docname="dietika.svg"><metadata
   id="metadata21"><rdf:RDF><cc:Work
       rdf:about=""><dc:format>image/svg+xml</dc:format><dc:type
         rdf:resource="http://purl.org/dc/dcmitype/StillImage" /><dc:title></dc:title></cc:Work></rdf:RDF></metadata><defs
   id="defs19" /><sodipodi:namedview
   pagecolor="#ffffff"
   bordercolor="#666666"
   borderopacity="1"
   objecttolerance="10"
   gridtolerance="10"
   guidetolerance="10"
   inkscape:pageopacity="0"
   inkscape:pageshadow="2"
   inkscape:window-width="1366"
   inkscape:window-height="745"
   id="namedview17"
   showgrid="false"
   inkscape:zoom="0.92505489"
   inkscape:cx="170.10699"
   inkscape:cy="126.47898"
   inkscape:window-x="-8"
   inkscape:window-y="-8"
   inkscape:window-maximized="1"
   inkscape:current-layer="Слой_1" />

<g
   id="g5"
   transform="translate(-1.9235,-0.11999512)">
	<defs
   id="defs7">
		<path
   id="SVGID_1_"
   d="m 84.15,165.56 12.623,0 0,-61.85 -12.623,0 0,61.85 z m 118.408,0 12.622,0 0,-61.85 -12.622,0 0,61.85 z m -70.675,-53.932 c 8.262,0 13.655,5.278 13.77,16.064 l -29.95,4.131 c 0.23,-12.851 6.541,-20.195 16.18,-20.195 m -27.654,22.95 c 0,19.736 10.9,32.244 30.408,32.244 8.491,0 16.753,-1.836 21.572,-4.36 l -3.672,-9.41 c -4.246,2.295 -10.901,3.788 -17.098,3.788 -10.442,0 -17.67,-5.623 -18.934,-16.754 l 41.081,-5.737 c 0.115,-1.607 0.115,-3.214 0.115,-4.705 0,-16.639 -9.525,-27.196 -25.59,-27.196 -17.325,0 -27.882,13.197 -27.882,32.13 M 288.948,147.2 c 0,-11.016 12.623,-12.049 25.245,-12.737 l 0,21.688 c -1.951,0.918 -6.655,1.606 -10.671,1.606 -9.524,0 -14.574,-4.017 -14.574,-10.557 m -8.147,-40.392 3.214,8.606 c 4.131,-1.951 11.245,-3.786 17.097,-3.786 7.919,0 13.082,2.753 13.082,10.556 l 0,3.902 c -18.704,1.033 -37.063,4.13 -37.063,21.343 0,12.163 8.95,19.393 26.736,19.393 8.721,0 17.786,-1.951 22.262,-4.36 l 0,-39.015 c 0,-15.262 -8.951,-21 -23.753,-21 -8.264,10e-4 -16.64,2.181 -21.575,4.361 m -112.094,-17.441 0,14.343 -8.377,0 0,9.41 8.377,0 0,35.113 c 0,12.05 6.082,18.13 16.983,18.13 3.212,0 6.312,-0.688 7.803,-1.376 l 0,-10.442 c -1.033,0.459 -2.754,0.803 -4.246,0.803 -4.59,0 -8.262,-2.18 -8.262,-7.802 l 0,-34.426 12.508,0 0,-9.41 -12.508,0 0,-18.13 -12.278,3.787 z M 30.685,93.612 c 2.181,-1.033 6.082,-1.606 9.983,-1.606 12.852,0 22.605,9.523 22.605,31.899 0,22.376 -9.753,31.9 -22.605,31.9 l -9.983,0 0,-62.193 z m -12.967,-8.147 0,79.98 22.262,0 c 21.917,0 36.26,-13.312 36.26,-41.54 0,-28.228 -14.343,-42.801 -36.26,-42.801 -8.836,0 -17.213,1.836 -22.262,4.361 M 83.003,85.35 c 0,3.902 3.327,7.114 7.458,7.114 4.131,0 7.459,-3.212 7.459,-7.114 0,-3.901 -3.328,-7.114 -7.459,-7.114 -4.13,0 -7.458,3.213 -7.458,7.114 m 118.406,0 c 0,3.902 3.328,7.114 7.459,7.114 4.132,0 7.459,-3.212 7.459,-7.114 0,-3.901 -3.327,-7.114 -7.459,-7.114 -4.131,0 -7.459,3.213 -7.459,7.114 m 25.581,-9.868 0,90.078 12.394,0 0,-31.44 0.229,0 25.359,31.44 14.458,0 -26.507,-32.703 25.016,-29.146 -14.574,0 -23.752,27.77 -0.229,0 0,-55.999 -12.394,0 z"
   inkscape:connector-curvature="0" />
	</defs>
	<use
   xlink:href="#SVGID_1_"
   overflow="visible"
   id="use10"
   style="overflow:visible;fill:#ffffff"
   x="0"
   y="0"
   width="100%"
   height="100%" />
	<clipPath
   id="SVGID_2_">
		<use
   xlink:href="#SVGID_1_"
   overflow="visible"
   id="use13"
   style="overflow:visible"
   x="0"
   y="0"
   width="100%"
   height="100%" />
	</clipPath>
	<rect
   x="17.718"
   y="75.482002"
   clip-path="url(#SVGID_2_)"
   width="308.41"
   height="91.339996"
   id="rect15"
   style="fill:#ffffff" />
</g>
</svg>