<?xml version="1.0" encoding="UTF-8" standalone="no"?>
<!-- Generator: Adobe Illustrator 15.0.2, SVG Export Plug-In . SVG Version: 6.00 Build 0)  -->

<svg
   xmlns:dc="http://purl.org/dc/elements/1.1/"
   xmlns:cc="http://creativecommons.org/ns#"
   xmlns:rdf="http://www.w3.org/1999/02/22-rdf-syntax-ns#"
   xmlns:svg="http://www.w3.org/2000/svg"
   xmlns="http://www.w3.org/2000/svg"
   xmlns:sodipodi="http://sodipodi.sourceforge.net/DTD/sodipodi-0.dtd"
   xmlns:inkscape="http://www.inkscape.org/namespaces/inkscape"
   version="1.1"
   id="Слой_1"
   x="0px"
   y="0px"
   width="340"
   height="255"
   viewBox="0 0 340.00001 255"
   enable-background="new 0 0 340.214 255.12"
   xml:space="preserve"
   inkscape:version="0.91 r13725"
   sodipodi:docname="edinstvennaya.svg"><metadata
   id="metadata42"><rdf:RDF><cc:Work
       rdf:about=""><dc:format>image/svg+xml</dc:format><dc:type
         rdf:resource="http://purl.org/dc/dcmitype/StillImage" /><dc:title></dc:title></cc:Work></rdf:RDF></metadata><defs
   id="defs40" /><sodipodi:namedview
   pagecolor="#ffffff"
   bordercolor="#666666"
   borderopacity="1"
   objecttolerance="10"
   gridtolerance="10"
   guidetolerance="10"
   inkscape:pageopacity="0"
   inkscape:pageshadow="2"
   inkscape:window-width="1366"
   inkscape:window-height="745"
   id="namedview38"
   showgrid="false"
   inkscape:zoom="0.92505489"
   inkscape:cx="170.10699"
   inkscape:cy="126.47898"
   inkscape:window-x="-8"
   inkscape:window-y="-8"
   inkscape:window-maximized="1"
   inkscape:current-layer="Слой_1" />

<g
   id="XMLID_336_"
   transform="translate(-1.2951735,-0.11999512)">
	<g
   id="g6">
		<g
   id="XMLID_700_">
			<path
   id="XMLID_712_"
   d="m 50.885,68.194 c 5.583,-0.229 13.293,0.338 13.411,7.354 0.024,1.886 -0.42,3.948 -1.59,5.239 -1.665,1.829 -5.149,2.043 -7.412,2.82 -6.782,2.319 -13.163,8.339 -13.287,16.198 -0.06,3.782 2.269,7.954 5.681,9.359 1.081,0.438 2.321,0.619 3.456,0.962 3.492,1.081 4.961,3.191 4.259,7.11 -0.457,2.548 -2.995,4.344 -4.862,5.987 -0.714,0.709 -1.426,1.415 -2.137,2.114 -2.805,2.805 -5.424,5.844 -7.067,9.335 -2.825,6.001 -5.273,17.047 2.321,20.771 1.695,0.834 3.571,1.296 5.679,1.296 0.391,-0.039 0.773,-0.086 1.16,-0.128 0.262,-0.044 0.519,-0.081 0.779,-0.125 0.507,-0.156 1.016,-0.31 1.524,-0.457 0.598,-0.214 1.204,-0.428 1.802,-0.643 2.476,-1.01 7.032,-4.358 8.748,-0.3 0.439,1.037 0.325,2.438 -0.172,3.409 -1.243,2.411 -5.032,5.035 -7.217,6.568 -1.308,0.919 -2.728,1.596 -4.147,2.314 -2.336,1.162 -4.879,2.22 -7.522,2.748 C 33.46,172.292 23.777,167.549 19.314,158.39 16,151.589 16.201,140.911 19.07,133.919 c 1.197,-2.905 3.372,-5.826 5.284,-8.373 1.076,-1.434 2.384,-2.753 3.725,-4.005 0.831,-0.791 4.405,-3.463 4.574,-4.344 0.154,-0.843 -0.964,-1.238 -1.516,-1.505 -4.356,-2.143 -7.482,-5.829 -8.741,-10.473 -0.599,-2.19 -1.102,-5.129 -0.905,-7.601 0.316,-3.973 1.718,-7.183 3.326,-10.459 1.622,-3.305 3.639,-6.578 6.49,-9.245 2.904,-2.743 6.204,-4.811 9.611,-6.559 2.242,-1.151 5.817,-2.718 9.967,-3.161 z"
   inkscape:connector-curvature="0"
   style="fill:#ffffff" />
			<path
   id="XMLID_711_"
   d="m 111.296,77.738 c 4.951,-0.252 5.158,6.768 5.158,10.979 0,12.645 -0.003,50.195 -0.003,51.876 0,0.581 -0.546,1.314 -1.5,1.314 -0.771,0 -4.383,0 -5.341,0 -0.367,0 -1.274,-0.362 -1.274,-1.314 0,-0.92 -0.014,-1.291 -0.014,-2.182 0,-1.939 0,-22.762 0,-31.244 -0.042,0 -0.125,0.09 -0.125,0.128 -0.236,0.572 -0.399,1.214 -0.543,1.801 -0.432,1.724 -4.854,19.641 -6.634,26.872 -0.668,2.801 -2.384,8.901 -6.62,6.415 -3.221,-1.891 -3.12,-9.211 -3.12,-13.012 0,-11.869 0.07,-48.781 0.084,-49.576 0.012,-0.624 0.539,-1.258 1.155,-1.258 1.11,0 4.699,0 5.381,0 1.207,0 1.565,0.634 1.565,1.258 0.013,7.701 -0.058,15.541 -0.045,23.242 0.001,3.182 0.006,6.368 0.006,9.549 0.003,0.257 -0.056,0.91 0.254,0.91 0.325,-1.424 7.371,-29.296 8.266,-31.654 1.371,-3.613 2.108,-3.946 3.35,-4.104 z"
   inkscape:connector-curvature="0"
   style="fill:#ffffff" />
			<path
   id="XMLID_710_"
   d="m 194.384,78.334 c 7.154,2.938 8.671,14.693 7.495,22.119 -0.278,1.709 -0.687,3.405 -1.357,4.925 -0.25,0.557 -1.195,2.143 -1.146,2.681 0.045,0.477 1.365,1.872 1.684,2.381 0.645,1.024 1.16,2.172 1.55,3.329 2.526,7.601 2.016,21.233 -3.977,26.529 -1.619,1.429 -3.628,1.763 -6.025,1.729 -0.671,-0.016 -1.407,0.033 -1.824,-0.486 -0.176,-0.229 -0.284,-0.523 -0.326,-0.814 -0.003,-3.996 -0.006,-7.987 -0.014,-12.002 0.014,-0.348 0.084,-0.729 0.283,-0.981 0.411,-0.505 2.637,0.114 3.989,-1.915 1.566,-2.343 1.66,-7.625 -0.609,-9.568 -1.426,-1.229 -3.649,-0.248 -3.684,-2.767 -0.003,-2.239 -0.003,-4.472 -0.008,-6.706 0,-0.948 -0.164,-2.162 0.256,-2.9 0.305,-0.529 0.872,-0.505 1.387,-0.69 1.382,-0.529 1.968,-2.143 2.174,-3.525 0.291,-1.986 -0.244,-8.216 -3.252,-7.096 -2.677,0.981 -2.37,8.568 -2.37,11.497 0,9.292 0,18.594 0,27.882 0,1.737 -0.104,7.392 -0.104,8.64 0,0.681 -0.567,1.314 -1.377,1.314 -1.179,0 -3.468,-0.029 -4.971,-0.029 -0.396,0 -1.507,-0.362 -1.507,-1.285 0,-1.435 -0.045,-3.067 -0.045,-4.635 0,-3.915 0,-7.83 0,-11.745 0,-6.11 0,-12.226 0,-18.336 0,-8.668 -0.258,-17.503 4.071,-23.919 0.76,-1.124 1.825,-2.467 3.043,-3.167 0.848,-0.488 5.467,-0.955 6.664,-0.46 z"
   inkscape:connector-curvature="0"
   style="fill:#ffffff" />
			<path
   id="XMLID_709_"
   d="m 286.837,77.738 c 1.611,-0.2 2.979,0.043 4.265,0.615 2.204,0.985 4.013,3.195 5.021,5.325 2.039,4.334 3.185,9.187 3.351,14.455 0.003,2.796 -0.029,36.74 -0.038,42.455 0,0.625 -0.386,1.363 -1.492,1.363 -1.324,0 -3.529,-0.034 -5.061,-0.034 -0.94,0 -1.494,-0.757 -1.494,-1.343 0,-0.99 -0.039,-22.047 -0.039,-24.109 0,-0.205 -0.045,-0.648 -0.272,-0.648 0,-0.038 -3.861,0.153 -4.551,-0.481 -0.237,-0.214 -0.407,-0.514 -0.407,-0.819 0,-1.329 -0.064,-9.135 0.289,-9.978 0.355,-0.843 3.289,-0.467 4.428,-0.467 0.662,0 0.477,-0.548 0.514,-0.548 0.128,-3.12 0.29,-9.245 -2.463,-10.654 -0.361,-0.19 -0.99,-0.157 -1.394,-0.071 -2.278,0.481 -2.578,4.314 -2.702,6.363 -0.013,10.378 -0.04,40.427 -0.04,41.432 0,0.6 -0.22,1.31 -1.444,1.31 -1.012,0 -4.545,0.033 -5.434,0.033 -0.451,0 -1.205,-0.553 -1.205,-1.399 0,-1.32 -0.031,-27.901 -0.031,-33.626 0,-7.754 -0.023,-14.655 2.389,-21.066 0.946,-2.543 2.419,-5.11 4.754,-6.744 0.955,-0.678 1.874,-1.187 3.056,-1.364 z"
   inkscape:connector-curvature="0"
   style="fill:#ffffff" />
			<path
   id="XMLID_708_"
   d="m 314.496,78.448 c 0.965,0.016 2.412,0 4.129,0 1.221,0 4.047,-0.157 4.819,0.582 0.944,0.91 0.562,8.506 0.562,10.458 0,10.459 0,40.841 0,45.571 0,1.29 -0.05,4.848 -0.073,5.528 0,0.776 -0.283,1.315 -1.406,1.315 -1.436,0 -4.611,0.005 -5.056,0.005 -1.126,0 -1.495,-0.609 -1.495,-1.334 0,-1.11 -0.096,-27.076 -0.096,-35.988 0,-2.448 0,-4.901 0,-7.354 -0.023,-1.205 -0.048,-2.405 -0.069,-3.61 -0.063,-0.333 -0.188,-0.647 -0.517,-0.771 -0.528,-0.205 -1.247,-0.134 -1.87,-0.134 -3.445,0 -4.284,3.306 -4.237,6.321 0.026,2.015 0.825,3.981 2.72,4.682 0.492,0.181 1.25,0.114 1.671,0.467 0.397,0.333 0.43,1.042 0.465,1.562 0.012,1.81 0.02,3.62 0.026,5.415 0,1.329 0.118,2.825 -0.221,3.982 -0.191,0.619 -0.959,0.9 -1.416,1.357 -0.275,0.371 -0.558,0.743 -0.835,1.105 -1.75,2.581 -2.064,6.315 -2.169,9.702 0,3.276 0,6.544 -0.009,9.811 0,1.243 -0.019,2.296 -0.019,3.473 0,0.705 -0.48,1.31 -1.291,1.31 -0.896,0 -3.854,0.005 -4.958,0.005 -1.203,0 -1.696,-0.581 -1.696,-1.314 0,-0.744 -0.034,-3.102 -0.034,-4.121 0,-6.672 -0.495,-13.854 1.012,-19.755 0.524,-2.086 1.456,-3.715 3.081,-5.196 0.197,-0.196 0.511,-0.51 0.813,-0.605 -0.117,-0.176 -1.207,-1.791 -1.747,-2.62 -0.879,-1.41 -1.618,-2.911 -2.106,-4.492 -2.111,-6.787 -1.179,-19.065 4.415,-23.418 1.666,-1.304 3.248,-1.939 7.607,-1.939 z"
   inkscape:connector-curvature="0"
   style="fill:#ffffff" />
			<path
   id="XMLID_707_"
   d="m 82.442,78.539 c 0.84,0 1.991,-0.009 2.75,0.196 0.321,0.081 0.628,0.324 0.808,0.633 0.408,0.724 0.247,1.948 0.247,2.886 0,2.972 0.004,5.939 0.004,8.912 0,9.935 -0.261,34.973 0.203,35.811 0.684,1.252 3,-0.186 3.549,1.162 0.272,0.658 0.126,1.739 0.126,2.524 0,6.459 0,13.104 0,19.562 0,0.5 -0.015,0.991 -0.93,0.991 -0.958,0 -4.717,0 -5.345,0 -1.059,0 -1.472,-0.357 -1.472,-1.063 0,-1.481 0.07,-6.178 -0.157,-7.226 -0.152,-0.695 -0.801,-1 -1.374,-1.019 -2.494,-0.005 -10.728,0 -11.832,0 -0.372,0 -0.921,0.499 -1.096,0.838 -0.484,0.919 -0.502,4.463 -0.536,6.544 -0.009,0.871 -0.009,0.581 -0.009,1.023 0,0.667 -0.365,0.901 -0.82,0.901 -1.441,0 -4.323,0 -5.664,-0.015 -0.466,-0.005 -0.922,-0.181 -0.922,-0.786 0,-0.095 -0.047,-15.741 -0.047,-21.299 0.006,-0.61 0.059,-1.029 0.518,-1.396 0.018,-0.019 0.043,-0.038 0.065,-0.057 0.65,-0.448 12.28,-0.224 16.456,-0.224 0.423,-0.125 0.724,-0.353 0.898,-0.83 0.252,-0.733 0.125,-1.795 0.125,-2.653 0,-1.857 0.002,-3.701 0.002,-5.558 0,-8.568 0,-17.117 0,-25.686 -1.137,0 -2.267,-0.09 -3.099,0.52 -4.043,2.986 -2.963,23.909 -2.963,26.957 0,1.048 0.199,3.458 -0.236,4.072 -0.196,0.271 -0.508,0.433 -0.822,0.51 -1.005,0.223 -5.08,0.252 -6.008,-0.028 -0.338,-0.1 -0.706,-0.348 -0.825,-0.705 -0.362,-1.086 -0.114,-2.729 -0.114,-3.954 0,-3.105 0,-6.206 0,-9.301 0,-6.926 0.24,-13.437 1.78,-19.494 0.974,-3.844 2.367,-7.783 5.59,-10.426 1.272,-1.058 2.938,-2.11 4.723,-2.11 0.39,-0.079 4.624,-0.212 6.427,-0.212 z"
   inkscape:connector-curvature="0"
   style="fill:#ffffff" />
			<path
   id="XMLID_706_"
   d="m 162.406,78.644 c 4.471,0 8.951,0 13.423,0 1.077,0 3.33,-0.262 4.063,0.338 0.293,0.247 0.462,0.585 0.526,0.962 0.019,1.715 0.033,3.434 0.06,5.159 -0.026,2.104 -0.041,4.205 -0.06,6.306 -0.064,0.376 -0.238,0.719 -0.526,0.953 -0.862,0.662 -3.94,0.352 -5.223,0.352 0,11.921 0,23.837 0,35.759 0,3.095 0,6.201 0,9.292 0,1.076 -0.059,2.048 -0.059,2.819 0,0.743 -0.219,1.324 -1.465,1.319 -1.439,0 -3.652,0.042 -4.488,0.005 -0.713,-0.043 -1.386,-0.615 -1.38,-1.314 0.008,-0.925 0.031,-1.863 0.031,-2.953 0,-2.458 0,-4.901 0,-7.364 0,-12.521 0,-25.042 0,-37.563 -1.347,0 -4.522,0.334 -5.351,-0.462 -0.216,-0.224 -0.347,-0.533 -0.396,-0.843 -0.021,-2.272 -0.039,-4.544 -0.057,-6.83 0,-1.514 -0.219,-3.338 0.073,-4.758 0.104,-0.496 0.434,-0.849 0.829,-1.177 z"
   inkscape:connector-curvature="0"
   style="fill:#ffffff" />
			<path
   id="XMLID_705_"
   d="m 222.732,78.891 c 0.315,0.191 0.47,0.443 0.534,0.791 0.02,1.419 0.04,2.843 0.063,4.253 -0.014,2.496 -0.03,4.992 -0.032,7.487 -0.039,0.296 -0.089,0.52 -0.257,0.743 -0.488,0.639 -1.479,0.543 -2.294,0.543 -1.373,0 -2.753,0.004 -4.128,0.004 -0.66,0 -1.461,-0.062 -2.02,0.119 -1.961,0.633 -2.016,4.753 -1.826,6.72 0.445,4.53 2.413,3.877 6.557,3.877 0.794,0 1.763,-0.114 2.386,0.219 0.318,0.172 0.516,0.495 0.604,0.844 0.301,1.167 0.341,8.134 0.026,9.63 -0.074,0.343 -0.313,0.743 -0.643,0.9 -0.494,0.214 -1.141,0.147 -1.727,0.147 -1.702,0 -4.98,-0.209 -6.141,0.61 -1.23,0.852 -1.667,2.343 -1.828,3.787 -0.271,2.357 -0.207,6.667 2.046,7.559 1.58,0.628 4.964,0.314 6.951,0.314 0.703,0 1.663,-0.105 2.066,0.471 0.408,0.6 0.255,1.69 0.255,2.5 0,2.367 0.003,4.739 0.003,7.097 0,1.172 0.14,2.516 -0.082,3.596 -0.071,0.339 -0.296,0.582 -0.587,0.749 -0.705,0.403 -4.547,0.176 -5.654,0.176 -1.09,0 -2.117,0.009 -3.072,-0.215 -7.375,-1.743 -9.065,-10.649 -9.065,-17.732 0,-2.015 -0.005,-3.986 0.327,-5.829 1.222,-6.602 3.315,-8.868 3.937,-9.402 -0.914,-1.824 -1.593,-3.681 -2.13,-5.696 -1.618,-6.153 -1.229,-18.894 3.332,-23.038 2.211,-2 11.7,-1.671 12.399,-1.224 z"
   inkscape:connector-curvature="0"
   style="fill:#ffffff" />
			<path
   id="XMLID_704_"
   d="m 252.403,78.539 c 1.286,0 4.456,0 5.269,0 0.68,0 1.089,0.577 1.089,1.258 0.019,1.581 0.042,3.067 0.06,4.658 0,3.095 0,6.196 0,9.292 0,2.838 0,6.068 0,8.911 0,0.219 -0.074,0.639 0.62,0.639 0.816,0 4.461,0.024 5.896,0.024 0.308,0 0.646,0 0.646,-0.563 0,-0.838 0.073,-2.739 0.073,-3.334 0,-4.991 0,-9.973 0,-14.969 0,-1.301 0.058,-3.629 0.058,-4.706 0,-0.905 0.969,-1.21 1.363,-1.21 0.841,0 4.354,0 5.104,0 1.168,0 1.423,0.739 1.423,1.163 0,1.191 -0.074,2.709 -0.074,3.977 0,2.972 0,5.944 0,8.906 0,12.264 0,24.523 0,36.788 0,2.5 0,4.996 0,7.496 -0.026,1.324 -0.046,2.401 -0.067,3.729 0,0.786 -0.605,1.311 -1.379,1.311 -0.745,0 -3.455,-0.005 -4.683,-0.005 -1.115,0 -1.728,-0.481 -1.728,-1.396 0,-0.62 -0.017,-0.781 -0.017,-1.448 0,-1.467 0,-2.92 0,-4.387 0,-6.501 0,-13.002 0,-19.499 -2.15,0 -4.302,0 -6.458,0 -0.202,0 -0.777,-0.062 -0.777,0.124 0,6.587 0,13.174 0,19.761 0,1.413 0.016,4.963 0.016,5.534 0,0.681 -0.335,1.314 -1.232,1.314 -0.977,0 -4.156,-0.038 -4.834,-0.038 -0.965,0 -1.616,-0.448 -1.616,-1.296 0,-1.172 -0.072,-9.559 -0.072,-12.621 0,-12.26 0.094,-47.199 0.094,-48.19 -0.002,-0.437 0.344,-1.223 1.226,-1.223 z"
   inkscape:connector-curvature="0"
   style="fill:#ffffff" />
			<path
   id="XMLID_703_"
   d="m 227.118,78.539 c 1.285,0 4.451,0 5.258,0 0.688,0 1.093,0.577 1.093,1.258 0.019,1.581 0.046,3.067 0.062,4.658 0,3.095 0,6.196 0,9.292 0,2.838 0,6.068 0,8.911 0,0.219 -0.071,0.639 0.622,0.639 0.815,0 4.459,0.024 5.896,0.024 0.308,0 0.639,0 0.639,-0.563 0,-0.838 0.078,-2.739 0.078,-3.334 0,-4.991 0,-9.973 0,-14.969 0,-1.301 0.057,-3.629 0.057,-4.706 0,-0.905 0.965,-1.21 1.365,-1.21 0.833,0 4.347,0 5.098,0 1.172,0 1.423,0.739 1.423,1.163 0,1.191 -0.074,2.709 -0.074,3.977 0,2.972 0,5.944 0,8.906 0,12.264 0,24.523 0,36.788 0,2.5 0,4.996 0,7.496 -0.023,1.324 -0.045,2.401 -0.068,3.729 0,0.786 -0.604,1.311 -1.379,1.311 -0.742,0 -3.451,-0.005 -4.675,-0.005 -1.123,0 -1.735,-0.481 -1.735,-1.396 0,-0.62 -0.011,-0.781 -0.011,-1.448 0,-1.467 0,-2.92 0,-4.387 0,-6.501 0,-13.002 0,-19.499 -2.154,0 -4.303,0 -6.459,0 -0.202,0 -0.776,-0.062 -0.776,0.124 0,6.587 0,13.174 0,19.761 0,1.413 0.018,4.963 0.018,5.534 0,0.681 -0.34,1.314 -1.235,1.314 -0.978,0 -4.16,-0.038 -4.837,-0.038 -0.964,0 -1.618,-0.448 -1.618,-1.296 0,-1.172 -0.068,-9.559 -0.068,-12.621 0,-12.26 0.09,-47.199 0.09,-48.19 -0.003,-0.437 0.343,-1.223 1.236,-1.223 z"
   inkscape:connector-curvature="0"
   style="fill:#ffffff" />
			<path
   id="XMLID_702_"
   d="m 120.067,78.539 c 1.286,0 4.453,0 5.266,0 0.682,0 1.089,0.577 1.089,1.258 0.02,1.581 0.049,3.067 0.061,4.658 0,3.095 0,6.196 0,9.292 0,2.838 0,6.068 0,8.911 0,0.219 -0.073,0.639 0.624,0.639 0.813,0 4.459,0.024 5.892,0.024 0.309,0 0.646,0 0.646,-0.563 0,-0.838 0.068,-2.739 0.068,-3.334 0,-4.991 0,-9.973 0,-14.969 0,-1.301 0.062,-3.629 0.062,-4.706 0,-0.905 0.97,-1.21 1.368,-1.21 0.833,0 4.352,0 5.101,0 1.169,0 1.424,0.739 1.424,1.163 0,1.191 -0.081,2.709 -0.081,3.977 0,2.972 0,5.944 0,8.906 0,12.264 0,24.523 0,36.788 0,2.5 0,4.996 0,7.496 -0.021,1.324 -0.043,2.401 -0.065,3.729 0,0.786 -0.609,1.311 -1.38,1.311 -0.75,0 -3.452,-0.005 -4.681,-0.005 -1.113,0 -1.731,-0.481 -1.731,-1.396 0,-0.62 -0.017,-0.781 -0.017,-1.448 0,-1.467 0,-2.92 0,-4.387 0,-6.501 0,-13.002 0,-19.499 -2.147,0 -4.299,0 -6.452,0 -0.203,0 -0.778,-0.062 -0.778,0.124 0,6.587 0,13.174 0,19.761 0,1.413 0.019,4.963 0.019,5.534 0,0.681 -0.337,1.314 -1.234,1.314 -0.981,0 -4.154,-0.038 -4.841,-0.038 -0.966,0 -1.611,-0.448 -1.611,-1.296 0,-1.172 -0.076,-9.559 -0.076,-12.621 0,-12.26 0.095,-47.199 0.095,-48.19 -10e-4,-0.437 0.346,-1.223 1.232,-1.223 z"
   inkscape:connector-curvature="0"
   style="fill:#ffffff" />
			<path
   id="XMLID_701_"
   d="m 157.631,78.777 c 0.948,0 2.313,-0.196 2.844,0.595 0.359,0.533 0.455,11.788 0.139,12.788 -0.327,1.053 -2.046,0.577 -2.977,0.734 -0.608,0.1 -1.136,0.248 -1.647,0.523 -1.328,0.696 -2.36,2.005 -3.006,3.301 -1.625,3.238 -2.022,6.829 -2.212,10.831 -0.294,6.277 -0.114,13.126 3.123,17.812 0.722,1.043 1.798,1.734 2.967,2.029 0.93,0.238 3.104,0.077 3.613,0.9 0.366,0.585 0.455,12.217 0.123,13.159 -0.196,0.539 -0.714,0.677 -1.286,0.677 -9.02,0 -12.754,-8.025 -14.366,-15.455 -2.511,-11.583 -2.425,-25.048 1.047,-36.03 1.062,-3.377 2.638,-7.031 5.555,-9.426 1.179,-0.977 2.521,-1.705 4.018,-2.053 0.691,-0.128 1.379,-0.252 2.065,-0.385 z"
   inkscape:connector-curvature="0"
   style="fill:#ffffff" />
		</g>
		<g
   id="XMLID_579_">
			<path
   id="XMLID_616_"
   d="m 126.238,164.212 c 0.031,2.515 1.521,3.443 3.41,3.443 1.226,0 2.288,-0.267 3.083,-0.533 l 0.561,3.114 c -1.09,0.435 -2.783,0.725 -4.402,0.725 -4.442,0 -6.858,-2.905 -6.858,-7.978 0,-5.468 2.848,-8.711 6.49,-8.711 3.478,0 5.501,2.748 5.501,7.687 0,1.162 -0.068,1.786 -0.135,2.253 l -7.65,0 z m 3.841,-3.053 c 0,-2.077 -0.531,-3.705 -1.822,-3.705 -1.391,0 -1.988,2.081 -2.019,3.705 l 3.841,0 z"
   inkscape:connector-curvature="0"
   style="fill:#ffffff" />
			<path
   id="XMLID_613_"
   d="m 148.228,147.847 0,18.118 c 0,1.524 0.064,3.31 0.129,4.801 l -3.742,0 -0.233,-1.815 -0.096,0 c -0.598,1.125 -1.89,2.082 -3.345,2.082 -3.445,0 -5.036,-3.801 -5.036,-8.345 0,-5.634 2.483,-8.415 5.202,-8.415 1.424,0 2.286,0.733 2.718,1.661 l 0.065,0 0,-8.087 4.338,0 z m -4.338,12.96 c 0,-0.305 0,-0.667 -0.065,-0.972 -0.137,-0.986 -0.666,-1.886 -1.528,-1.886 -1.52,0 -2.086,2.225 -2.086,4.839 0,3.081 0.831,4.701 2.02,4.701 0.564,0 1.193,-0.301 1.525,-1.425 0.097,-0.233 0.134,-0.595 0.134,-1.023 l 0,-4.234 z"
   inkscape:connector-curvature="0"
   style="fill:#ffffff" />
			<path
   id="XMLID_610_"
   d="m 155.612,150.305 c 0.031,1.386 -0.962,2.353 -2.289,2.353 -1.189,0 -2.186,-0.967 -2.149,-2.353 -0.037,-1.463 1.021,-2.386 2.215,-2.386 1.261,0 2.223,0.923 2.223,2.386 z m -4.341,20.461 0,-16.193 4.341,0 0,16.193 -4.341,0 z"
   inkscape:connector-curvature="0"
   style="fill:#ffffff" />
			<path
   id="XMLID_608_"
   d="m 158.657,159.444 c 0,-1.763 -0.068,-3.315 -0.134,-4.872 l 3.743,0 0.232,1.854 0.068,0 c 0.826,-1.258 2.221,-2.121 3.906,-2.121 3.082,0 4.308,2.453 4.308,6.068 l 0,10.393 -4.339,0 0,-10.131 c 0,-1.362 -0.331,-2.686 -1.592,-2.686 -0.727,0 -1.323,0.5 -1.62,1.452 -0.134,0.339 -0.233,0.867 -0.233,1.49 l 0,9.874 -4.339,0 0,-11.321 z"
   inkscape:connector-curvature="0"
   style="fill:#ffffff" />
			<path
   id="XMLID_606_"
   d="m 173.688,166.86 c 0.632,0.396 1.821,0.861 2.918,0.861 1.123,0 1.753,-0.49 1.753,-1.462 0,-0.823 -0.46,-1.357 -1.888,-2.182 -2.618,-1.495 -3.276,-3.187 -3.276,-4.677 0,-2.905 2.084,-5.129 5.33,-5.129 1.36,0 2.419,0.334 3.277,0.761 l -0.762,3.182 c -0.63,-0.361 -1.389,-0.661 -2.254,-0.661 -1.122,0 -1.622,0.661 -1.622,1.386 0,0.695 0.37,1.129 1.89,2.024 2.386,1.357 3.278,3.053 3.278,4.905 0,3.311 -2.386,5.092 -5.727,5.092 -1.363,0 -2.949,-0.362 -3.676,-0.924 l 0.759,-3.176 z"
   inkscape:connector-curvature="0"
   style="fill:#ffffff" />
			<path
   id="XMLID_604_"
   d="m 189.652,150.366 0,4.206 3.182,0 0,3.081 -3.182,0 0,7.388 c 0,1.886 0.798,2.348 1.621,2.348 0.429,0 0.765,-0.033 1.163,-0.1 l 0.032,3.382 c -0.597,0.161 -1.525,0.29 -2.655,0.29 -1.253,0 -2.352,-0.29 -3.144,-1.019 -0.859,-0.863 -1.358,-2.087 -1.358,-4.635 l 0,-7.654 -1.919,0 0,-3.081 1.919,0 0,-2.849 4.341,-1.357 z"
   inkscape:connector-curvature="0"
   style="fill:#ffffff" />
			<path
   id="XMLID_602_"
   d="m 198.196,154.572 1.22,7.254 c 0.237,1.419 0.465,2.881 0.697,4.506 l 0.069,0 c 0.195,-1.658 0.397,-3.016 0.626,-4.506 l 1.263,-7.254 4.269,0 -4.336,16.193 -3.977,0 -4.436,-16.193 4.605,0 z"
   inkscape:connector-curvature="0"
   style="fill:#ffffff" />
			<path
   id="XMLID_599_"
   d="m 211.208,164.212 c 0.031,2.515 1.525,3.443 3.411,3.443 1.229,0 2.29,-0.267 3.082,-0.533 l 0.562,3.114 c -1.092,0.435 -2.782,0.725 -4.403,0.725 -4.442,0 -6.854,-2.905 -6.854,-7.978 0,-5.468 2.846,-8.711 6.488,-8.711 3.479,0 5.499,2.748 5.499,7.687 0,1.162 -0.068,1.786 -0.138,2.253 l -7.647,0 z m 3.841,-3.053 c 0,-2.077 -0.529,-3.705 -1.82,-3.705 -1.391,0 -1.989,2.081 -2.021,3.705 l 3.841,0 z"
   inkscape:connector-curvature="0"
   style="fill:#ffffff" />
			<path
   id="XMLID_597_"
   d="m 221.441,159.444 c 0,-1.763 -0.068,-3.315 -0.132,-4.872 l 3.74,0 0.229,1.854 0.068,0 c 0.828,-1.258 2.223,-2.121 3.908,-2.121 3.081,0 4.309,2.453 4.309,6.068 l 0,10.393 -4.338,0 0,-10.131 c 0,-1.362 -0.334,-2.686 -1.592,-2.686 -0.729,0 -1.328,0.5 -1.623,1.452 -0.136,0.339 -0.233,0.867 -0.233,1.49 l 0,9.874 -4.336,0 0,-11.321 z"
   inkscape:connector-curvature="0"
   style="fill:#ffffff" />
			<path
   id="XMLID_595_"
   d="m 236.608,159.444 c 0,-1.763 -0.069,-3.315 -0.132,-4.872 l 3.741,0 0.228,1.854 0.068,0 c 0.831,-1.258 2.225,-2.121 3.909,-2.121 3.08,0 4.308,2.453 4.308,6.068 l 0,10.393 -4.337,0 0,-10.131 c 0,-1.362 -0.334,-2.686 -1.593,-2.686 -0.729,0 -1.326,0.5 -1.622,1.452 -0.136,0.339 -0.232,0.867 -0.232,1.49 l 0,9.874 -4.338,0 0,-11.321 z"
   inkscape:connector-curvature="0"
   style="fill:#ffffff" />
			<path
   id="XMLID_592_"
   d="m 262.703,167.056 c 0,1.29 0.064,2.619 0.235,3.71 l -3.878,0 -0.233,-1.586 -0.101,0 c -0.86,1.224 -2.151,1.853 -3.575,1.853 -2.448,0 -4.273,-2.053 -4.273,-4.9 0,-4.268 3.745,-5.992 7.415,-6.029 l 0,-0.362 c 0,-1.291 -0.726,-2.225 -2.281,-2.225 -1.292,0 -2.322,0.366 -3.309,0.962 l -0.796,-2.949 c 0.924,-0.495 2.784,-1.224 5.066,-1.224 4.935,0 5.729,3.444 5.729,6.76 l 0,5.99 z m -4.272,-4.167 c -1.428,0.032 -3.447,0.522 -3.447,2.776 0,1.591 0.896,2.19 1.559,2.19 0.729,0 1.49,-0.434 1.792,-1.396 0.058,-0.233 0.097,-0.462 0.097,-0.757 l 0,-2.813 z"
   inkscape:connector-curvature="0"
   style="fill:#ffffff" />
			<path
   id="XMLID_590_"
   d="m 268.566,154.572 1.584,8.444 c 0.198,0.963 0.336,1.824 0.463,2.72 l 0.07,0 c 0.132,-0.834 0.263,-1.757 0.395,-2.653 l 1.326,-8.511 4.273,0 -3.313,12.517 c -0.792,3.048 -1.851,6.196 -3.613,8.249 -1.391,1.619 -3.011,2.391 -3.672,2.548 l -1.325,-3.738 c 0.728,-0.267 1.491,-0.729 2.153,-1.329 0.595,-0.566 1.062,-1.257 1.354,-1.948 0.136,-0.271 0.233,-0.467 0.233,-0.7 0,-0.195 -0.064,-0.396 -0.134,-0.591 l -4.466,-15.007 4.672,0 z"
   inkscape:connector-curvature="0"
   style="fill:#ffffff" />
			<path
   id="XMLID_587_"
   d="m 288.828,167.056 c 0,1.29 0.068,2.619 0.233,3.71 l -3.874,0 -0.229,-1.586 -0.102,0 c -0.86,1.224 -2.152,1.853 -3.581,1.853 -2.449,0 -4.269,-2.053 -4.269,-4.9 0,-4.268 3.739,-5.992 7.421,-6.029 l 0,-0.362 c 0,-1.291 -0.733,-2.225 -2.292,-2.225 -1.291,0 -2.313,0.366 -3.31,0.962 l -0.793,-2.949 c 0.927,-0.495 2.781,-1.224 5.064,-1.224 4.934,0 5.729,3.444 5.729,6.76 l 0,5.99 z m -4.268,-4.167 c -1.424,0.032 -3.446,0.522 -3.446,2.776 0,1.591 0.897,2.19 1.557,2.19 0.73,0 1.492,-0.434 1.789,-1.396 0.067,-0.233 0.101,-0.462 0.101,-0.757 l 0,-2.813 z"
   inkscape:connector-curvature="0"
   style="fill:#ffffff" />
			<path
   id="XMLID_585_"
   d="m 291.941,168.15 c 0,-1.657 1.191,-2.876 2.551,-2.876 1.391,0 2.521,1.091 2.521,2.876 0,1.753 -1.03,2.882 -2.585,2.882 -1.324,0 -2.487,-1.129 -2.487,-2.882 z"
   inkscape:connector-curvature="0"
   style="fill:#ffffff" />
			<path
   id="XMLID_583_"
   d="m 311.447,165.831 c 0,1.72 0.064,3.415 0.136,4.935 l -3.743,0 -0.234,-1.725 -0.068,0 c -0.759,1.096 -2.084,1.991 -3.772,1.991 -3.084,0 -4.305,-2.281 -4.305,-6.658 l 0,-9.802 4.338,0 0,9.339 c 0,2.12 0.428,3.478 1.623,3.478 0.762,0 1.227,-0.566 1.422,-1.091 0.165,-0.333 0.267,-0.828 0.267,-1.396 l 0,-10.33 4.338,0 0,11.259 z"
   inkscape:connector-curvature="0"
   style="fill:#ffffff" />
			<path
   id="XMLID_580_"
   d="m 325.484,167.056 c 0,1.29 0.071,2.619 0.233,3.71 l -3.876,0 -0.228,-1.586 -0.104,0 c -0.859,1.224 -2.15,1.853 -3.575,1.853 -2.451,0 -4.268,-2.053 -4.268,-4.9 0,-4.268 3.738,-5.992 7.414,-6.029 l 0,-0.362 c 0,-1.291 -0.728,-2.225 -2.286,-2.225 -1.291,0 -2.316,0.366 -3.312,0.962 l -0.792,-2.949 c 0.924,-0.495 2.778,-1.224 5.064,-1.224 4.936,0 5.728,3.444 5.728,6.76 l 0,5.99 z m -4.269,-4.167 c -1.422,0.032 -3.444,0.522 -3.444,2.776 0,1.591 0.896,2.19 1.556,2.19 0.733,0 1.493,-0.434 1.792,-1.396 0.067,-0.233 0.097,-0.462 0.097,-0.757 l 0,-2.813 z"
   inkscape:connector-curvature="0"
   style="fill:#ffffff" />
		</g>
	</g>
</g>
</svg>