<?xml version="1.0" encoding="UTF-8" standalone="no"?>
<!-- Generator: Adobe Illustrator 15.0.2, SVG Export Plug-In . SVG Version: 6.00 Build 0)  -->

<svg
   xmlns:dc="http://purl.org/dc/elements/1.1/"
   xmlns:cc="http://creativecommons.org/ns#"
   xmlns:rdf="http://www.w3.org/1999/02/22-rdf-syntax-ns#"
   xmlns:svg="http://www.w3.org/2000/svg"
   xmlns="http://www.w3.org/2000/svg"
   xmlns:sodipodi="http://sodipodi.sourceforge.net/DTD/sodipodi-0.dtd"
   xmlns:inkscape="http://www.inkscape.org/namespaces/inkscape"
   version="1.1"
   id="Слой_1"
   x="0px"
   y="0px"
   width="340"
   height="255"
   viewBox="0 0 340.00001 255"
   enable-background="new 0 0 340.214 255.12"
   xml:space="preserve"
   inkscape:version="0.91 r13725"
   sodipodi:docname="privat-dom.svg"><metadata
   id="metadata45"><rdf:RDF><cc:Work
       rdf:about=""><dc:format>image/svg+xml</dc:format><dc:type
         rdf:resource="http://purl.org/dc/dcmitype/StillImage" /><dc:title></dc:title></cc:Work></rdf:RDF></metadata><defs
   id="defs43" /><sodipodi:namedview
   pagecolor="#ffffff"
   bordercolor="#666666"
   borderopacity="1"
   objecttolerance="10"
   gridtolerance="10"
   guidetolerance="10"
   inkscape:pageopacity="0"
   inkscape:pageshadow="2"
   inkscape:window-width="1366"
   inkscape:window-height="745"
   id="namedview41"
   showgrid="false"
   inkscape:zoom="0.92505489"
   inkscape:cx="170.10699"
   inkscape:cy="126.47898"
   inkscape:window-x="-8"
   inkscape:window-y="-8"
   inkscape:window-maximized="1"
   inkscape:current-layer="Слой_1" />

<g
   id="g5"
   transform="translate(1.9775,-0.11999512)">
	<g
   id="g7">
		<g
   id="g9">
			<g
   id="g11">
				<path
   d="m 114.88,190.706 -9.302,-1.488 -88.853,0 0,-22.396 c 17.253,-6.924 21.544,-25.434 24.062,-45.394 2.518,-19.962 2.367,-27.255 2.367,-27.255 l 58.058,0 6.842,71.16 8.558,2.082 -1.732,23.291 z m -37.559,-75.493 -10.725,0 -0.631,6.981 c -2.712,25.422 -7.674,40.563 -16.893,46.006 l 0,0.312 31.989,0 -3.74,-53.299 z"
   id="path13"
   inkscape:connector-curvature="0"
   style="fill:#ffffff" />
			</g>
			<path
   d="m 158.522,191.638 c -28.922,0 -45.381,-20.893 -45.381,-49.271 0,-28.382 16.458,-49.272 45.381,-49.272 28.924,0 45.385,20.89 45.385,49.272 0,28.378 -16.461,49.271 -45.385,49.271 z m 0,-76.247 c -8.265,0 -16.696,9.893 -16.696,26.975 0,17.081 8.431,26.146 16.696,26.146 8.264,0 16.697,-9.064 16.697,-26.146 0,-17.082 -8.433,-26.975 -16.697,-26.975 z"
   id="path15"
   inkscape:connector-curvature="0"
   style="fill:#ffffff" />
			<path
   d="m 292.167,189.218 -2.987,-48.882 c -0.588,-6.6 -0.121,-14.258 -0.121,-14.258 l -0.297,0 c 0,0 -0.796,7.526 -2.863,14.258 l -15.639,48.882 -17.418,0 -15.642,-48.882 c -2.065,-6.731 -2.862,-14.258 -2.862,-14.258 l -0.295,0 c 0,0 0.467,7.658 -0.122,14.258 l -2.986,48.882 -27.155,0 8.924,-95.046 32.615,0 12.982,42.072 c 1.773,5.807 3.1,12.933 3.1,12.933 l 0.297,0 c 0,0 1.327,-7.126 3.099,-12.933 l 12.986,-42.072 32.614,0 8.923,95.046 -27.153,0 z"
   id="path17"
   inkscape:connector-curvature="0"
   style="fill:#ffffff" />
		</g>
		<g
   id="g19">
			<g
   id="g21">
				<path
   d="m 55.803,89.854 0,-19.197 -4.886,0 0,19.197 -7.514,0 0,-24.732 19.914,0 0,24.732 -7.514,0 z"
   id="path23"
   inkscape:connector-curvature="0"
   style="fill:#ffffff" />
				<path
   d="m 74.552,81.143 c -0.639,0 -1.353,-0.034 -1.767,-0.103 l 0,8.813 -7.363,0 0,-23.808 c 2.291,-0.854 5.222,-1.367 8.68,-1.367 7.326,0 11.31,3.313 11.31,8.335 0,4.645 -3.532,8.13 -10.86,8.13 z M 74.177,69.769 c -0.526,0 -1.052,0.035 -1.391,0.137 l 0,6.08 c 0.301,0.069 0.827,0.103 1.391,0.103 2.63,0 3.87,-1.06 3.87,-3.109 0,-2.254 -1.277,-3.211 -3.87,-3.211 z"
   id="path25"
   inkscape:connector-curvature="0"
   style="fill:#ffffff" />
				<path
   d="m 100.628,89.854 0,-10.59 c 0,-1.673 0.075,-3.416 0.075,-3.416 l -0.075,0 c 0,0 -0.713,1.572 -1.653,3.074 l -6.763,10.932 -5.712,0 0,-24.732 6.463,0 0,10.077 c 0,1.708 -0.075,3.519 -0.075,3.519 l 0.075,0 c 0,0 0.752,-1.64 1.653,-3.074 l 6.539,-10.521 5.936,0 0,24.732 -6.463,0 z"
   id="path27"
   inkscape:connector-curvature="0"
   style="fill:#ffffff" />
				<path
   d="m 118.176,90.298 c -3.533,0 -6.952,-0.615 -8.981,-1.366 l 0,-22.887 c 2.292,-0.821 5.562,-1.367 8.981,-1.367 7.703,0 10.896,3.007 10.896,7.071 0,2.426 -1.69,4.578 -3.87,5.227 l 0,0.068 c 2.03,0.751 4.359,2.87 4.359,5.909 0,4.611 -3.682,7.345 -11.385,7.345 z m -0.038,-20.565 c -0.676,0 -1.39,0.07 -1.84,0.172 l 0,5.191 2.667,0 c 1.015,0 1.879,-0.309 2.217,-0.615 0.45,-0.409 0.751,-1.093 0.751,-1.981 0,-1.707 -0.863,-2.767 -3.795,-2.767 z m 3.195,10.761 c -0.489,-0.41 -1.204,-0.684 -2.368,-0.684 l -2.667,0 0,5.261 c 0.413,0.067 1.164,0.169 1.84,0.169 2.856,0 3.984,-0.751 3.984,-2.766 0,-0.818 -0.301,-1.569 -0.789,-1.98 z"
   id="path29"
   inkscape:connector-curvature="0"
   style="fill:#ffffff" />
				<path
   d="m 146.507,89.854 -1.165,-4.236 -7.815,0 -1.165,4.236 -7.853,0 8.454,-24.732 8.943,0 8.454,24.732 -7.853,0 z m -4.395,-15.918 c -0.414,-1.503 -0.64,-3.177 -0.64,-3.177 l -0.075,0 c 0,0 -0.226,1.673 -0.639,3.177 l -1.879,6.763 5.11,0 -1.877,-6.763 z"
   id="path31"
   inkscape:connector-curvature="0"
   style="fill:#ffffff" />
				<path
   d="m 163.378,70.793 0,19.061 -7.516,0 0,-19.061 -4.622,0 0,-5.671 16.76,0 0,5.671 -4.622,0 z"
   id="path33"
   inkscape:connector-curvature="0"
   style="fill:#ffffff" />
				<path
   d="m 181.639,89.854 0,-9.599 -4.883,0 0,9.599 -7.516,0 0,-24.732 7.516,0 0,9.6 4.883,0 0,-9.6 7.516,0 0,24.732 -7.516,0 z"
   id="path35"
   inkscape:connector-curvature="0"
   style="fill:#ffffff" />
				<path
   d="m 199.862,90.298 c -3.457,0 -6.312,-0.513 -8.604,-1.366 l 0,-23.81 7.29,0 0,8.813 c 0.413,-0.068 1.126,-0.102 1.767,-0.102 7.326,0 10.858,3.484 10.858,8.129 0,5.022 -3.983,8.336 -11.311,8.336 z m 0.076,-11.409 c -0.564,0 -1.089,0.034 -1.39,0.102 l 0,6.081 c 0.338,0.067 0.863,0.136 1.39,0.136 2.593,0 3.87,-0.957 3.87,-3.21 0,-2.05 -1.241,-3.109 -3.87,-3.109 z m 13.414,10.965 0,-24.732 7.515,0 0,24.732 -7.515,0 z"
   id="path37"
   inkscape:connector-curvature="0"
   style="fill:#ffffff" />
				<path
   d="m 237.099,89.854 0,-10.59 c 0,-1.673 0.075,-3.416 0.075,-3.416 l -0.075,0 c 0,0 -0.714,1.572 -1.652,3.074 l -6.764,10.932 -5.712,0 0,-24.732 6.463,0 0,10.077 c 0,1.708 -0.075,3.519 -0.075,3.519 l 0.075,0 c 0,0 0.752,-1.64 1.653,-3.074 l 6.537,-10.521 5.938,0 0,24.732 -6.463,0 z m -3.795,-26.439 c -4.059,0 -5.975,-2.322 -6.162,-5.807 l 3.87,-0.58 c 0.112,1.708 0.751,2.697 2.292,2.697 1.541,0 2.18,-0.989 2.292,-2.697 l 3.87,0.58 c -0.188,3.485 -2.104,5.807 -6.162,5.807 z"
   id="path39"
   inkscape:connector-curvature="0"
   style="fill:#ffffff" />
			</g>
		</g>
	</g>
</g>
</svg>