<?xml version="1.0" encoding="UTF-8" standalone="no"?>
<!-- Generator: Adobe Illustrator 15.0.2, SVG Export Plug-In . SVG Version: 6.00 Build 0)  -->

<svg
   xmlns:dc="http://purl.org/dc/elements/1.1/"
   xmlns:cc="http://creativecommons.org/ns#"
   xmlns:rdf="http://www.w3.org/1999/02/22-rdf-syntax-ns#"
   xmlns:svg="http://www.w3.org/2000/svg"
   xmlns="http://www.w3.org/2000/svg"
   xmlns:sodipodi="http://sodipodi.sourceforge.net/DTD/sodipodi-0.dtd"
   xmlns:inkscape="http://www.inkscape.org/namespaces/inkscape"
   version="1.1"
   id="Слой_1"
   x="0px"
   y="0px"
   width="340"
   height="255"
   viewBox="0 0 340.00001 255"
   enable-background="new 0 0 340.214 255.12"
   xml:space="preserve"
   inkscape:version="0.91 r13725"
   sodipodi:docname="tvoymalysh.svg"><metadata
   id="metadata29"><rdf:RDF><cc:Work
       rdf:about=""><dc:format>image/svg+xml</dc:format><dc:type
         rdf:resource="http://purl.org/dc/dcmitype/StillImage" /><dc:title></dc:title></cc:Work></rdf:RDF></metadata><defs
   id="defs27" /><sodipodi:namedview
   pagecolor="#ffffff"
   bordercolor="#666666"
   borderopacity="1"
   objecttolerance="10"
   gridtolerance="10"
   guidetolerance="10"
   inkscape:pageopacity="0"
   inkscape:pageshadow="2"
   inkscape:window-width="1366"
   inkscape:window-height="745"
   id="namedview25"
   showgrid="false"
   inkscape:zoom="0.92505489"
   inkscape:cx="170.10699"
   inkscape:cy="126.47898"
   inkscape:window-x="-8"
   inkscape:window-y="-8"
   inkscape:window-maximized="1"
   inkscape:current-layer="Слой_1" />

<g
   id="XMLID_661_"
   transform="translate(-1.828,-0.11999512)">
	<g
   id="g6">
		<g
   id="XMLID_686_">
			<path
   id="XMLID_698_"
   d="m 54.564,106.878 0.176,0 8.75,-31.561 24.19,0 0,59.47 -17.338,0 0,-42.48 -0.173,0 -11.277,42.48 -11.608,0 -11.618,-42.48 -0.177,0 0,42.48 -14.043,0 0,-59.47 24.194,0 8.924,31.561 z"
   inkscape:connector-curvature="0"
   style="fill:#ffffff" />
			<path
   id="XMLID_695_"
   d="m 118.694,113.981 0,2.507 c 0,3.212 -0.428,8.592 -6.932,8.592 -3.121,0 -4.771,-1.65 -4.771,-3.913 0,-1.378 0.611,-3.204 2.434,-4.494 0.599,-0.438 2.422,-1.572 6.584,-2.259 l 2.685,-0.433 z m -11.961,-9.099 c 0.355,-2.254 1.908,-4.766 6.679,-4.766 2.337,0 3.644,0.599 4.246,1.291 1.037,1.139 1.037,2.959 1.037,3.816 l 0,0.691 -3.208,0.268 c -6.495,0.516 -15.856,1.821 -20.965,5.9 -3.389,2.682 -5.036,6.752 -5.036,10.657 0,5.808 4.084,12.916 15.605,12.916 8.84,0 12.74,-4.338 14.473,-7.026 0,3.116 0.346,5.029 0.611,6.159 l 16.29,0 c -1.299,-4.416 -1.299,-7.195 -1.299,-9.708 l 0,-17.34 c 0,-3.554 0,-7.195 -1.724,-10.481 -3.649,-6.855 -11.878,-7.721 -19.249,-7.721 -4.937,0 -11.095,0.341 -15.953,3.563 -2.413,1.549 -5.891,4.674 -7.274,10.307 l 15.767,1.474 z"
   inkscape:connector-curvature="0"
   style="fill:#ffffff" />
			<path
   id="XMLID_693_"
   d="m 183.208,90.404 0,44.384 -17.164,0 0,-32.768 -5.723,0 c -0.343,6.674 -0.525,10.662 -0.957,14.04 -1.037,8.237 -2.772,12.487 -6.414,15.783 -2.853,2.507 -5.81,3.466 -9.878,3.466 -1.742,0 -3.47,-0.101 -5.208,-0.521 l 0,-11.625 c 0.436,0 0.867,0 1.305,0 1.392,-0.079 3.559,-0.424 5.116,-3.028 1.302,-2.079 2.167,-5.462 2.69,-13.87 0.255,-3.719 0.343,-7.887 0.343,-11.533 l 0,-4.329 35.89,0 z"
   inkscape:connector-curvature="0"
   style="fill:#ffffff" />
			<path
   id="XMLID_689_"
   d="m 204.691,114.327 3.476,0 c 1.037,0 2.596,0.17 3.808,1.129 1.305,1.033 1.563,2.425 1.563,3.729 0,0.779 -0.088,2.6 -1.563,3.808 -0.949,0.866 -2.43,1.217 -3.986,1.217 l -3.297,0 0,-9.883 z m -17.155,-23.923 0,44.384 26.951,0 c 2.779,0 7.803,0 11.708,-3.559 3.022,-2.683 4.844,-7.619 4.844,-11.961 0,-4.503 -1.986,-7.979 -4.24,-9.965 -3.725,-3.286 -8.841,-3.641 -12.396,-3.641 l -9.712,0 0,-15.258 -17.155,0 z m 46.029,0 0,44.384 17.16,0 0,-44.384 -17.16,0 z"
   inkscape:connector-curvature="0"
   style="fill:#ffffff" />
			<path
   id="XMLID_687_"
   d="m 272.569,90.404 0,32.759 8.32,0 0,-32.759 16.811,0 0,32.759 8.324,0 0,-32.759 16.819,0 0,44.384 -67.099,0 0,-44.384 16.825,0 z"
   inkscape:connector-curvature="0"
   style="fill:#ffffff" />
		</g>
		<g
   id="XMLID_673_">
			<path
   id="XMLID_684_"
   d="m 234.533,79.158 c 0.77,-2.314 1.978,-5.435 1.978,-6.951 0,-0.406 -0.092,-0.499 -0.374,-0.499 -0.636,0 -1.907,1.139 -3.249,2.876 -0.166,0.208 -0.396,0.539 -0.673,0.539 -0.176,0 -0.406,-0.129 -0.406,-0.465 0,-0.134 0.102,-0.438 0.812,-1.276 1.636,-1.978 4.462,-4.126 6.136,-4.126 1.378,0 1.544,1 1.544,1.646 0,0.742 -0.204,2.051 -1.305,5.466 l -0.544,1.641 0.069,0.037 c 1.507,-2.885 3.493,-5.338 5.31,-6.909 0.964,-0.881 2.438,-1.881 4.061,-1.881 0.996,0 2.438,0.535 2.438,2.854 0,1.309 -0.562,3.457 -1.069,4.964 l -0.396,1.244 0.061,0 c 4.664,-8.186 8.324,-9.062 10.066,-9.062 1.015,0 2.586,0.502 2.586,2.752 0,1.272 -0.558,2.748 -1.305,4.49 l -2.42,5.844 c -0.193,0.502 -0.631,1.683 -0.631,2.25 0,0.235 0.064,0.609 0.465,0.609 0.738,0 2.415,-1.613 3.559,-3.195 0.199,-0.272 0.406,-0.567 0.733,-0.567 0.41,0 0.373,0.272 0.373,0.333 0,0.507 -0.341,0.94 -0.7,1.373 -1.355,1.646 -3.758,4.365 -6.582,4.365 -1.069,0 -1.845,-0.636 -1.845,-1.871 0,-1.216 0.434,-2.295 1.037,-3.798 l 2.655,-6.744 c 0.571,-1.484 0.77,-2.217 0.77,-2.719 0,-0.705 -0.341,-1.074 -0.944,-1.074 -1.069,0 -2.48,1.309 -3.347,2.309 -2.388,2.692 -5.043,7.324 -6.449,10.979 l -0.604,1.572 c -0.165,0.442 -0.202,0.672 -0.972,0.672 l -2.181,0 c -0.235,0 -0.567,0.037 -0.567,-0.332 0,-0.166 0.061,-0.369 0.162,-0.705 l 1.646,-4.803 c 0.807,-2.351 2.346,-6.744 2.346,-8.555 0,-1.138 -0.599,-1.17 -0.844,-1.17 -1.032,0 -2.442,1.47 -3.01,2.111 -3.927,4.396 -5.72,9.135 -6.646,11.61 l -0.47,1.25 c -0.263,0.729 -0.608,0.594 -0.876,0.594 l -2.208,0 c -0.313,0 -0.774,0 -0.479,-0.936 l 2.289,-6.742 z"
   inkscape:connector-curvature="0"
   style="fill:#ffffff" />
			<path
   id="XMLID_680_"
   d="m 268.753,77.779 c 1.378,-5.476 4.065,-7.522 6.55,-7.522 2.181,0 2.222,1.581 2.222,2.088 -10e-4,3.48 -4.974,5.434 -8.772,5.434 z m 4.899,-0.101 c 4.094,-0.973 7.656,-2.318 7.656,-5.434 0,-2.756 -3.188,-2.987 -4.697,-2.987 -9.163,0 -12.551,7.791 -12.551,12.478 0,5.775 4.969,5.775 6.145,5.775 7.048,0 9.324,-3.761 9.324,-6.347 0,-4.02 -4.323,-3.623 -5.835,-3.347 l -0.042,-0.138 z m -5.13,1.139 c 0.701,-0.097 2.618,-0.37 3.789,-0.37 0.774,0 3.328,0.139 3.328,3.264 0,2.448 -1.539,4.794 -4.743,4.794 -1.6,0 -2.945,-0.507 -2.945,-3.628 0,-1.677 0.272,-3.019 0.571,-4.06 z"
   inkscape:connector-curvature="0"
   style="fill:#ffffff" />
			<path
   id="XMLID_677_"
   d="m 294.367,70.256 c 3.318,0 3.554,2.914 3.554,4.301 0,3.784 -2.618,11.948 -7.817,11.948 -3.328,0 -3.393,-3.692 -3.393,-4.567 0,-4.891 3.116,-11.682 7.656,-11.682 z m -0.17,-1 c -5.91,0 -11.377,5.135 -11.377,10.943 0,3.858 2.72,7.31 7.417,7.31 6.609,0 11.579,-5.401 11.579,-10.638 0,-4.226 -3.084,-7.615 -7.619,-7.615 z"
   inkscape:connector-curvature="0"
   style="fill:#ffffff" />
			<path
   id="XMLID_674_"
   d="m 320.908,79.891 c -0.94,2.756 -1.176,3.798 -1.176,4.434 0,0.203 0,0.668 0.434,0.668 0.936,0 2.346,-1.544 2.886,-2.25 l 0.746,-0.94 c 0.171,-0.235 0.396,-0.535 0.637,-0.535 0.193,0 0.368,0.097 0.368,0.369 0,0.332 -0.239,0.641 -0.502,0.973 -0.945,1.203 -3.831,4.899 -7.141,4.899 -0.885,0 -1.387,-0.539 -1.387,-1.512 0,-0.636 0.161,-2.185 1.683,-6.278 l 0.636,-1.738 -0.106,0 c -3.628,6.177 -8.757,9.527 -11.509,9.527 -0.839,0 -2.181,-0.336 -2.181,-2.281 0,-1.309 0.604,-3.023 1.281,-4.628 l 2.407,-5.909 c 0.714,-1.678 0.806,-2.25 0.806,-2.553 0,-0.53 -0.268,-0.53 -0.434,-0.53 -0.571,0 -1.544,0.6 -3.415,3.083 -0.143,0.17 -0.281,0.374 -0.576,0.374 -0.3,0 -0.369,-0.203 -0.369,-0.438 0,-0.235 0.198,-0.571 0.803,-1.378 2.014,-2.581 4.466,-3.992 6.177,-3.992 1.705,0 1.645,1.577 1.645,1.982 0,0.83 -0.327,1.609 -0.936,3.245 l -2.922,7.693 c -0.54,1.374 -0.498,1.904 -0.498,2.047 0,0.567 0.226,0.834 0.793,0.834 0.58,0 1.415,-0.3 3.36,-1.881 2.917,-2.342 6.277,-7.006 7.582,-11.302 l 0.374,-1.208 c 0.166,-0.571 0.428,-0.737 1.041,-0.737 l 2.286,0 c 0.632,0 0.429,0.433 0.359,0.663 l -3.152,9.299 z m -4.655,-11.547 c -2.498,0 -3.572,-1.572 -3.572,-2.411 0,-1.24 2.323,-3.083 3.069,-3.083 0.359,0 0.323,0.364 0.323,0.488 0,0.378 -0.139,0.673 -0.139,1.019 0,1.544 0.683,2.25 1.95,2.25 0.811,0 2.724,-0.333 5.471,-3.425 0.668,-0.742 1.037,-0.332 1.037,-0.102 0,0.24 -0.124,0.429 -0.3,0.637 -0.556,0.672 -3.816,4.627 -7.839,4.627 z"
   inkscape:connector-curvature="0"
   style="fill:#ffffff" />
		</g>
		<g
   id="XMLID_618_">
			<path
   id="XMLID_672_"
   d="m 72.61,159.813 c -2.31,0 -3.208,2.406 -3.208,4.715 0,2.692 1.124,4.716 3.208,4.716 1.924,0 3.111,-1.89 3.111,-4.748 0,-2.309 -0.899,-4.683 -3.111,-4.683 z"
   inkscape:connector-curvature="0"
   style="fill:#ffffff" />
			<path
   id="XMLID_671_"
   d="m 232.478,159.813 c -2.31,0 -3.208,2.406 -3.208,4.715 0,2.692 1.125,4.716 3.208,4.716 1.922,0 3.111,-1.89 3.111,-4.748 0,-2.309 -0.9,-4.683 -3.111,-4.683 z"
   inkscape:connector-curvature="0"
   style="fill:#ffffff" />
			<path
   id="XMLID_670_"
   d="m 131.668,167.445 c 0,1.254 0.836,1.862 1.924,1.862 1.189,0 2.218,-0.802 2.536,-1.798 0.064,-0.253 0.097,-0.544 0.097,-0.834 l 0,-1.701 c -2.568,0.001 -4.557,0.609 -4.557,2.471 z"
   inkscape:connector-curvature="0"
   style="fill:#ffffff" />
			<path
   id="XMLID_669_"
   d="m 302.093,167.445 c 0,1.254 0.834,1.862 1.927,1.862 1.189,0 2.213,-0.802 2.535,-1.798 0.064,-0.253 0.097,-0.544 0.097,-0.834 l 0,-1.701 c -2.568,0.001 -4.559,0.609 -4.559,2.471 z"
   inkscape:connector-curvature="0"
   style="fill:#ffffff" />
			<path
   id="XMLID_619_"
   d="m 18.853,145.481 0,35.275 303.788,0 0,-35.275 -303.788,0 z m 23.201,26.906 -4.874,0 0,-17.516 -5.838,0 0,-4.106 16.614,0 0,4.106 -5.902,0 0,17.516 z m 15.601,0 -4.877,0 -5.709,-15.686 5.292,0 2.116,7.283 c 0.387,1.346 0.645,2.563 0.898,3.816 l 0.097,0 c 0.258,-1.282 0.511,-2.471 0.866,-3.816 l 2.023,-7.283 5.133,0 -5.839,15.686 z m 14.826,0.355 c -4.587,0 -8.113,-3.015 -8.113,-8.085 0,-5.099 3.333,-8.343 8.403,-8.343 4.78,0 7.988,3.305 7.988,8.052 0,5.744 -4.074,8.376 -8.278,8.376 z m 22.082,-5.711 c -2.25,6.254 -3.755,8.726 -5.52,10.297 -1.667,1.475 -3.464,2.019 -4.684,2.148 l -1.06,-4.107 c 0.608,-0.129 1.38,-0.42 2.118,-0.83 0.735,-0.387 1.572,-1.189 2.021,-1.958 0.159,-0.259 0.258,-0.512 0.258,-0.706 0,-0.193 -0.034,-0.415 -0.193,-0.802 l -5.775,-14.372 5.422,0 2.344,7.729 c 0.254,0.899 0.574,2.088 0.765,2.923 l 0.134,0 c 0.189,-0.871 0.447,-2.023 0.673,-2.955 l 1.954,-7.697 5.195,0 -3.652,10.33 z m 29.456,5.356 -4.748,0 0,-8.532 c 0,-2.276 -0.737,-3.595 -2.309,-3.595 -1.154,0 -1.926,0.77 -2.277,1.701 -0.099,0.354 -0.163,0.834 -0.163,1.253 l 0,9.173 -4.746,0 0,-8.822 c 0,-1.954 -0.703,-3.305 -2.276,-3.305 -1.253,0 -1.991,0.963 -2.282,1.732 -0.156,0.383 -0.189,0.835 -0.189,1.254 l 0,9.141 -4.751,0 0,-10.685 c 0,-1.954 -0.063,-3.591 -0.125,-5.001 l 4.139,0 0.192,2.116 0.099,0 c 0.673,-1.028 2.08,-2.503 4.742,-2.503 2.054,0 3.626,1.06 4.298,2.696 l 0.065,0 c 0.613,-0.835 1.286,-1.476 2.054,-1.923 0.866,-0.483 1.83,-0.773 2.984,-0.773 3.017,0 5.294,2.12 5.294,6.835 l 0,9.238 z m 12.784,0 -0.293,-1.572 -0.092,0 c -1.028,1.255 -2.632,1.928 -4.494,1.928 -3.173,0 -5.07,-2.31 -5.07,-4.813 0,-4.075 3.66,-6.002 9.209,-6.002 l 0,-0.188 c 0,-0.871 -0.452,-2.056 -2.854,-2.056 -1.604,0 -3.304,0.548 -4.332,1.185 l -0.899,-3.145 c 1.092,-0.608 3.243,-1.409 6.098,-1.409 5.228,0 6.864,3.083 6.864,6.798 l 0,5.49 c 0,1.475 0.065,2.918 0.258,3.784 l -4.395,0 z m 12.904,0 -4.876,0 0,-22.775 4.876,0 0,22.775 z m 15.017,-5.356 c -2.245,6.254 -3.751,8.726 -5.52,10.297 -1.666,1.475 -3.464,2.019 -4.681,2.148 l -1.06,-4.107 c 0.608,-0.129 1.378,-0.42 2.116,-0.83 0.742,-0.387 1.572,-1.189 2.023,-1.958 0.157,-0.259 0.255,-0.512 0.255,-0.706 0,-0.193 -0.035,-0.415 -0.191,-0.802 l -5.775,-14.372 5.42,0 2.341,7.729 c 0.258,0.899 0.576,2.088 0.774,2.923 l 0.125,0 c 0.194,-0.871 0.45,-2.023 0.673,-2.955 l 1.957,-7.697 5.197,0 -3.654,10.33 z m 9.371,5.711 c -2.054,0 -3.881,-0.484 -5.065,-1.125 l 0.867,-3.462 c 0.898,0.544 2.758,1.152 4.199,1.152 1.478,0 2.088,-0.479 2.088,-1.281 0,-0.834 -0.483,-1.222 -2.281,-1.835 -3.268,-1.088 -4.522,-2.854 -4.49,-4.715 0,-2.95 2.503,-5.162 6.386,-5.162 1.828,0 3.43,0.446 4.391,0.931 l -0.83,3.369 c -0.705,-0.383 -2.088,-0.899 -3.401,-0.899 -1.185,0 -1.862,0.479 -1.862,1.255 0,0.77 0.613,1.152 2.535,1.825 2.984,1.027 4.204,2.567 4.236,4.844 -0.002,2.95 -2.279,5.103 -6.773,5.103 z m 24.646,-0.355 -4.877,0 0,-8.629 c 0,-2.056 -0.71,-3.461 -2.535,-3.461 -1.281,0 -2.083,0.834 -2.438,1.729 -0.129,0.29 -0.161,0.705 -0.161,1.06 l 0,9.302 -4.877,0 0,-22.775 4.877,0 0,8.984 0.064,0 c 0.519,-0.71 1.152,-1.254 1.927,-1.642 0.732,-0.382 1.632,-0.608 2.53,-0.608 3.116,0 5.49,2.153 5.49,6.9 l 0,9.14 z m 6.389,0.355 c -1.632,0 -2.816,-1.254 -2.816,-2.955 0,-1.761 1.185,-2.982 2.881,-2.982 1.668,0 2.825,1.185 2.858,2.982 0,1.701 -1.154,2.955 -2.923,2.955 z m 14.284,-3.853 c 1.153,0 2.054,-0.189 2.789,-0.513 l 0.576,3.596 c -0.866,0.415 -2.503,0.733 -4.36,0.733 -5.07,0 -8.307,-3.107 -8.307,-8.021 0,-4.582 3.144,-8.339 8.979,-8.339 1.286,0 2.696,0.227 3.72,0.608 l -0.77,3.629 c -0.574,-0.259 -1.443,-0.48 -2.725,-0.48 -2.569,0 -4.236,1.825 -4.203,4.393 0.001,2.859 1.923,4.394 4.301,4.394 z m 12.934,3.853 c -4.586,0 -8.112,-3.015 -8.112,-8.085 0,-5.099 3.333,-8.343 8.403,-8.343 4.779,0 7.988,3.305 7.988,8.052 0,5.744 -4.075,8.376 -8.279,8.376 z m 35.041,-0.355 -4.748,0 0,-8.532 c 0,-2.276 -0.737,-3.595 -2.309,-3.595 -1.152,0 -1.927,0.77 -2.277,1.701 -0.097,0.354 -0.162,0.834 -0.162,1.253 l 0,9.173 -4.747,0 0,-8.822 c 0,-1.954 -0.702,-3.305 -2.276,-3.305 -1.254,0 -1.992,0.963 -2.282,1.732 -0.156,0.383 -0.189,0.835 -0.189,1.254 l 0,9.141 -4.751,0 0,-10.685 c 0,-1.954 -0.061,-3.591 -0.125,-5.001 l 4.139,0 0.194,2.116 0.097,0 c 0.673,-1.028 2.083,-2.503 4.742,-2.503 2.057,0 3.628,1.06 4.301,2.696 l 0.064,0 c 0.613,-0.835 1.286,-1.476 2.052,-1.923 0.866,-0.483 1.83,-0.773 2.986,-0.773 3.016,0 5.292,2.12 5.292,6.835 l 0,9.238 z m 6.328,0.355 c -1.636,0 -2.82,-1.254 -2.82,-2.955 0,-1.761 1.185,-2.982 2.885,-2.982 1.672,0 2.826,1.185 2.858,2.982 0,1.701 -1.153,2.955 -2.923,2.955 z m 16.557,-0.355 -0.222,-2.212 -0.097,0 c -0.608,0.958 -2.088,2.567 -4.909,2.567 -3.208,0 -5.518,-1.992 -5.518,-6.836 l 0,-9.205 4.877,0 0,8.436 c 0,2.281 0.737,3.654 2.471,3.654 1.346,0 2.147,-0.926 2.434,-1.7 0.129,-0.286 0.198,-0.637 0.198,-1.056 l 0,-9.334 4.872,0 0,10.652 c 0,2.051 0.064,3.72 0.129,5.033 l -4.235,0 z m 16.954,0 -0.29,-1.572 -0.097,0 c -1.023,1.255 -2.632,1.928 -4.49,1.928 -3.176,0 -5.067,-2.31 -5.067,-4.813 0,-4.075 3.657,-6.002 9.207,-6.002 l 0,-0.188 c 0,-0.871 -0.452,-2.056 -2.854,-2.056 -1.608,0 -3.305,0.548 -4.333,1.185 l -0.898,-3.145 c 1.088,-0.608 3.24,-1.409 6.093,-1.409 5.232,0 6.869,3.083 6.869,6.798 l 0,5.49 c 0,1.475 0.063,2.918 0.253,3.784 l -4.393,0 z"
   inkscape:connector-curvature="0"
   style="fill:#ffffff" />
		</g>
	</g>
</g>
</svg>