<?xml version="1.0" encoding="UTF-8" standalone="no"?>
<!-- Generator: Adobe Illustrator 15.0.2, SVG Export Plug-In . SVG Version: 6.00 Build 0)  -->

<svg
   xmlns:dc="http://purl.org/dc/elements/1.1/"
   xmlns:cc="http://creativecommons.org/ns#"
   xmlns:rdf="http://www.w3.org/1999/02/22-rdf-syntax-ns#"
   xmlns:svg="http://www.w3.org/2000/svg"
   xmlns="http://www.w3.org/2000/svg"
   xmlns:sodipodi="http://sodipodi.sourceforge.net/DTD/sodipodi-0.dtd"
   xmlns:inkscape="http://www.inkscape.org/namespaces/inkscape"
   version="1.1"
   id="Слой_1"
   x="0px"
   y="0px"
   width="340"
   height="255"
   viewBox="0 0 340.00001 255"
   enable-background="new 0 0 340.214 255.12"
   xml:space="preserve"
   inkscape:version="0.91 r13725"
   sodipodi:docname="young-lady.svg"><metadata
   id="metadata43"><rdf:RDF><cc:Work
       rdf:about=""><dc:format>image/svg+xml</dc:format><dc:type
         rdf:resource="http://purl.org/dc/dcmitype/StillImage" /><dc:title></dc:title></cc:Work></rdf:RDF></metadata><defs
   id="defs41" /><sodipodi:namedview
   pagecolor="#ffffff"
   bordercolor="#666666"
   borderopacity="1"
   objecttolerance="10"
   gridtolerance="10"
   guidetolerance="10"
   inkscape:pageopacity="0"
   inkscape:pageshadow="2"
   inkscape:window-width="1366"
   inkscape:window-height="745"
   id="namedview39"
   showgrid="false"
   inkscape:zoom="0.92505489"
   inkscape:cx="170.10699"
   inkscape:cy="126.47898"
   inkscape:window-x="-8"
   inkscape:window-y="-8"
   inkscape:window-maximized="1"
   inkscape:current-layer="Слой_1" />

<g
   id="g5"
   transform="translate(0,-0.11999512)">
	<g
   id="g7">
		<path
   d="m 274.878,63.151 -26.848,0 c -12.128,0 -18.958,5.812 -21.194,16.523 -0.707,3.304 -1.18,6.837 -1.18,8.205 0,5.355 2.945,8.66 6.361,10.711 l -14.838,24.955 17.662,0 12.365,-22.448 2.589,0 -4.119,22.448 18.132,0 11.07,-60.394 z m -22.844,25.98 -4.357,0 c -2.708,0 -3.768,-1.48 -3.768,-3.191 0,-0.455 0.472,-3.19 1.178,-6.722 0.471,-2.506 2.354,-4.103 5.063,-4.103 l 4.356,0 -2.472,14.016 z m -52.905,-8.318 c 0.943,-4.672 2.003,-6.04 5.535,-6.04 2.591,0 3.65,0.684 3.65,2.849 0,0.683 -0.353,3.076 -2.002,12.08 -2.943,-2.281 -6.828,-3.533 -11.186,-3.533 -10.009,0 -15.897,4.672 -17.78,14.7 l -1.296,7.292 c -0.471,2.393 -0.707,4.559 -0.707,6.381 0,7.294 3.651,10.028 12.247,10.028 6.476,0 10.716,-1.367 14.365,-5.812 l -0.941,4.786 17.19,0 8.597,-47.062 c 0.354,-1.709 0.47,-3.191 0.47,-4.559 0,-8.204 -6.005,-9.8 -19.31,-9.8 -15.544,0 -21.667,2.166 -23.904,14.359 l -0.824,4.33 15.896,0 z m 1.532,16.066 c 2.825,0 3.65,1.369 3.65,2.964 0,0.456 -0.118,1.938 -1.296,7.634 -0.589,2.735 -2.236,4.102 -5.063,4.102 -2.825,0 -3.768,-1.595 -3.768,-3.19 0,-0.57 0.118,-1.595 1.295,-7.407 0.471,-2.621 2.356,-4.103 5.182,-4.103 m -44.215,-33.728 -18.133,0 -11.069,60.394 18.134,0 4.592,-25.297 8.95,0 -4.593,25.297 18.135,0 11.068,-60.394 -18.133,0 -4.004,21.764 -8.949,0 4.002,-21.764 z m -44.944,-10.94 c 3.415,0 4.592,0.797 4.592,3.418 0,1.14 -0.236,2.962 -0.471,3.989 l -8.007,43.871 c -0.824,4.787 -2.12,6.04 -6.476,6.04 -3.415,0 -4.71,-0.797 -4.71,-3.418 0,-0.684 0.235,-2.622 0.472,-3.874 l 8.006,-43.871 c 0.942,-4.901 2.237,-6.155 6.594,-6.155 m -32.381,-14.016 -20.607,0 -15.543,85.35 20.607,0 6.83,-37.376 8.243,0 -2.591,13.561 c -0.824,4.558 -1.177,8.204 -1.177,11.053 0,11.167 6.123,13.788 23.432,13.788 22.019,0 27.2,-3.419 30.968,-23.929 L 136.584,61.1 c 0.824,-4.672 1.06,-7.179 1.06,-9.915 0,-11.053 -6.124,-14.015 -23.315,-14.015 -21.901,0 -27.435,4.558 -31.086,23.93 l -1.884,10.028 -8.242,0 6.004,-32.933 z"
   id="path9"
   inkscape:connector-curvature="0"
   style="fill:#86c0d9" />
	</g>
	<g
   id="g11">
		<path
   d="m 187.591,125.534 c -8.06,0 -12.098,-2.491 -13.009,-8.217 l -1.318,7.192 -20.094,0 4.593,-25.297 -6.989,0 -4.593,25.297 -20.095,0 11.423,-62.323 20.094,0 -4.003,21.765 6.988,0 4.004,-21.764 20.093,0 -5.695,31.078 c 3.104,-5.411 8.438,-8.06 16.136,-8.06 3.963,0 7.562,0.979 10.509,2.845 1.184,-6.507 1.716,-9.742 1.716,-10.427 0,-1.31 -0.255,-1.884 -2.687,-1.884 -2.775,0 -3.658,0.655 -4.59,5.266 l -0.156,0.773 -17.85,0 1.042,-5.475 c 2.393,-13.038 9.286,-15.143 24.852,-15.143 13.446,0 20.274,1.665 20.274,10.764 0,0.256 -0.004,0.511 -0.013,0.765 3.599,-6.976 10.233,-10.503 19.807,-10.503 l 28.005,0 -11.424,62.323 -20.093,0 4.121,-22.448 -0.863,0 -12.365,22.448 -35.568,0 0.543,-2.761 c -3.174,2.69 -7.033,3.786 -12.795,3.786 z m 7.535,-38.401 c -9.701,0 -15.049,4.421 -16.832,13.914 L 177,108.33 c -0.46,2.338 -0.691,4.423 -0.691,6.212 0,6.607 3.058,9.064 11.282,9.064 6.661,0 10.352,-1.479 13.62,-5.459 l 1.691,0.798 -0.716,3.636 14.444,0 1.112,-1.87 8.11,-44.4 c 0.312,-1.506 0.454,-2.893 0.454,-4.385 0,-6.854 -4.115,-8.836 -18.346,-8.836 -15.356,0 -20.826,1.961 -22.956,13.569 l -0.607,3.191 13.95,0 c 0.917,-4.088 2.225,-6.04 6.315,-6.04 2.148,0 4.614,0.434 4.614,3.813 0,0.765 -0.338,3.081 -2.018,12.253 l -0.285,1.56 -1.254,-0.971 c -2.81,-2.18 -6.474,-3.332 -10.593,-3.332 z m 51.707,35.448 16.172,0 10.716,-58.466 -25.69,0 c -11.412,0 -18.037,5.154 -20.25,15.756 -0.717,3.349 -1.159,6.763 -1.159,8.008 0,4.211 1.982,7.537 5.893,9.885 l 0.823,0.494 -13.76,23.141 -0.216,1.183 14.911,0 12.364,-22.448 4.317,0 -4.121,22.447 z m -91.353,0 16.176,0 10.714,-58.466 -16.173,0 -4.003,21.765 -10.91,0 4.004,-21.765 -16.172,0 -10.716,58.466 16.171,0 4.593,-25.297 10.909,0 -4.593,25.297 z m 69.606,-31.342 -4.514,24.712 10.138,-17.05 c -2.976,-2.001 -4.857,-4.567 -5.624,-7.662 z M 98.313,125.534 c -16.529,0 -24.396,-2.207 -24.396,-14.751 0,-3.07 0.401,-6.847 1.193,-11.225 l 2.374,-12.425 -6.274,0 -6.83,37.376 -22.566,0 15.895,-87.279 22.567,0 -6.005,32.933 6.287,0 1.736,-9.242 c 3.787,-20.096 9.774,-24.716 32.033,-24.716 16.103,0 24.28,2.317 24.28,14.979 0,2.947 -0.281,5.585 -1.075,10.082 l -7.302,39.549 c -1.77,9.634 -3.894,16.382 -9.006,20.25 -4.919,3.722 -12.413,4.469 -22.911,4.469 z m -28.71,-40.329 10.212,0 -2.81,14.706 c -0.769,4.256 -1.16,7.917 -1.16,10.872 0,10.067 4.83,12.823 22.468,12.823 21.916,0 26.404,-3.46 30.02,-23.139 l 7.301,-39.542 c 0.771,-4.367 1.044,-6.918 1.044,-9.74 0,-10.124 -5.014,-13.051 -22.352,-13.051 -21.2,0 -26.551,4.109 -30.138,23.144 l -2.032,10.813 -10.197,0 6.005,-32.933 -18.646,0 -15.192,83.422 18.647,0 6.83,-37.375 z m 128.349,27.339 c -3.488,0 -4.731,-2.146 -4.731,-4.155 0,-0.628 0.097,-1.587 1.314,-7.598 0.546,-3.045 2.838,-4.876 6.126,-4.876 4.165,0 4.614,2.747 4.614,3.928 0,0.97 -0.442,3.604 -1.315,7.83 -0.687,3.189 -2.764,4.871 -6.008,4.871 z m 2.709,-14.7 c -1.66,0 -3.741,0.574 -4.232,3.309 -1.182,5.834 -1.28,6.773 -1.28,7.236 0,1.457 0.97,2.226 2.804,2.226 2.353,0 3.623,-1.03 4.12,-3.34 1.151,-5.564 1.275,-7.051 1.275,-7.432 0,-0.989 -0.32,-1.999 -2.687,-1.999 z m -99.521,12.649 c -2.947,0 -5.675,-0.531 -5.675,-4.383 0,-0.755 0.238,-2.724 0.489,-4.053 l 8.005,-43.865 c 1.037,-5.389 2.729,-6.945 7.543,-6.945 3.335,0 5.556,0.745 5.556,4.382 0,1.263 -0.257,3.165 -0.496,4.204 l -7.998,43.829 c -0.9,5.233 -2.636,6.831 -7.424,6.831 z m 10.362,-57.318 c -3.838,0 -4.788,0.904 -5.648,5.372 l -8.004,43.862 c -0.242,1.28 -0.456,3.133 -0.456,3.701 0,1.668 0.37,2.454 3.746,2.454 3.846,0 4.776,-0.881 5.526,-5.239 l 8.009,-43.88 c 0.225,-0.982 0.455,-2.723 0.455,-3.815 -10e-4,-1.744 -0.328,-2.455 -3.628,-2.455 z m 141.341,36.921 -5.166,0 c -3.489,0 -4.732,-2.146 -4.732,-4.155 0,-0.732 0.752,-4.689 1.197,-6.912 0.563,-3.004 2.867,-4.878 6.009,-4.878 l 5.506,0 -2.814,15.945 z M 250.15,76.08 c -2.188,0 -3.726,1.239 -4.116,3.316 -0.778,3.896 -1.153,6.208 -1.161,6.548 0,1.836 1.525,2.223 2.804,2.223 l 3.549,0 2.132,-12.087 -3.208,0 z"
   id="path13"
   inkscape:connector-curvature="0"
   style="fill:#ffffff" />
	</g>
	<g
   id="g15">
		<path
   d="m 276.519,134.149 -16.522,0 -10.711,60.395 17.548,0 15.27,-27.918 -4.898,27.918 16.522,0 10.712,-60.395 -17.55,0 -15.384,28.032 5.013,-28.032 z m -64.656,0 -3.987,22.221 c -2.394,13.561 -4.331,18.117 -8.774,24.841 l -5.129,0 -4.898,27.577 16.522,0 2.506,-14.244 23.246,0 -2.506,14.244 16.523,0 4.9,-27.577 -4.9,0 8.317,-47.062 -41.82,0 z m 21.879,13.332 -5.925,33.729 -12.307,0 c 4.33,-6.381 6.609,-11.737 8.774,-23.929 l 1.709,-9.801 7.749,0 z m -63.698,9.458 1.025,-5.812 c 0.911,-5.128 2.278,-6.267 6.608,-6.267 3.419,0 4.787,0.683 4.787,3.303 0,0.8 -0.114,1.938 -1.368,8.775 l -11.052,0 z m 25.753,11.738 2.051,-11.737 c 0.684,-3.76 1.025,-6.95 1.025,-9.686 0,-10.712 -5.584,-14.13 -19.713,-14.13 -17.776,0 -23.816,5.127 -27.122,23.815 l -2.62,14.928 c -0.685,3.646 -1.025,6.724 -1.025,9.459 0,10.369 5.127,14.244 18.459,14.244 17.435,0 24.387,-2.735 27.12,-16.639 l 0.798,-3.986 -17.32,0 c -1.025,6.152 -2.394,7.291 -6.609,7.291 -3.304,0 -4.444,-0.684 -4.444,-3.076 0,-0.797 0.114,-2.051 0.456,-3.988 l 1.14,-6.495 27.804,0 z m -87.002,-59.483 -9.914,55.723 c -1.368,7.862 -3.419,11.736 -9.002,11.736 -2.734,0 -4.444,-0.114 -5.925,-0.797 l -3.304,18.459 c 2.962,0.685 5.697,1.025 10.141,1.025 15.612,0 24.729,-11.736 28.033,-30.424 l 7.179,-40.681 10.37,0 -12.307,70.308 19.941,0 15.042,-85.35 -50.254,0 z"
   id="path17"
   inkscape:connector-curvature="0"
   style="fill:#86c0d9" />
	</g>
	<g
   id="g19">
		<path
   d="m 246.175,209.752 -18.48,0 2.506,-14.244 -21.288,0 -2.506,14.244 -18.482,0 3.87,-21.79 c -4.291,7.135 -12.062,8.572 -24.941,8.572 -13.978,0 -19.424,-4.264 -19.424,-15.208 0,-0.228 0.002,-0.457 0.007,-0.689 l -2.621,14.871 -21.898,0 12.307,-70.308 -8.414,0 -7.038,39.884 c -3.612,20.425 -13.634,31.221 -28.982,31.221 -4.185,0 -7.089,-0.294 -10.358,-1.05 l -0.894,-0.206 3.686,-20.591 1.133,0.522 c 1.297,0.599 2.877,0.708 5.521,0.708 4.598,0 6.63,-2.76 8.053,-10.938 l 10.055,-56.521 52.209,0 -6.98,39.608 c 3.868,-11.946 10.814,-15.679 25.944,-15.679 12.766,0 20.677,2.524 20.677,15.094 0,2.783 -0.341,6.008 -1.04,9.858 l -2.189,12.529 -27.806,0 -1,5.697 c -0.365,2.067 -0.441,3.219 -0.441,3.821 0,1.427 0.148,2.112 3.48,2.112 3.459,0 4.661,-0.503 5.658,-6.486 l 0.135,-0.806 19.313,0 -1.029,5.141 c -0.075,0.383 -0.153,0.759 -0.235,1.125 l 3.899,0 c 4.208,-6.44 6.043,-11.005 8.345,-24.043 l 4.13,-23.018 43.776,0 -8.317,47.061 4.326,0 8.347,-47.061 18.482,0 -4.181,23.376 12.828,-23.376 19.27,0 -11.053,62.322 -18.479,0 4.087,-23.288 -12.737,23.288 -18.7,0 -2.531,14.248 z m -16.183,-1.929 14.566,0 4.558,-25.648 -4.899,0 8.317,-47.061 -39.864,0 -3.846,21.427 c -2.411,13.662 -4.342,18.276 -8.918,25.201 l -0.286,0.433 -4.839,0 -4.557,25.648 14.563,0 2.505,-14.244 25.204,0 -2.504,14.244 z M 179.16,134.088 c -17.351,0 -22.977,4.948 -26.172,23.02 l -2.62,14.927 c -0.681,3.627 -1.011,6.663 -1.011,9.292 0,9.805 4.578,13.279 17.495,13.279 17.016,0 23.527,-2.396 26.175,-15.859 l 0.567,-2.837 -15.336,0 c -1.064,5.699 -2.755,7.292 -7.418,7.292 -2.617,0 -5.408,-0.313 -5.408,-4.041 0,-0.988 0.159,-2.386 0.471,-4.155 l 1.279,-7.292 27.805,0 1.91,-10.938 c 0.681,-3.742 1.011,-6.854 1.011,-9.521 0,-9.845 -4.73,-13.167 -18.748,-13.167 z m -97.399,59.486 c 2.381,0.5 4.89,0.802 9.029,0.802 18.055,0 24.693,-16.111 27.083,-29.627 l 7.319,-41.478 12.326,0 -12.307,70.308 17.985,0 14.702,-83.42 -48.296,0 -9.772,54.927 c -1.345,7.734 -3.48,12.531 -9.952,12.531 -2.255,0 -3.831,-0.081 -5.178,-0.462 l -2.939,16.419 z m 196.591,0.005 14.566,0 10.37,-58.465 -15.828,0 -15.109,27.531 -1.795,-0.634 4.812,-26.897 -14.563,0 -10.369,58.465 15.826,0 14.996,-27.416 1.795,0.63 -4.701,26.786 z m -49.725,-11.404 -14.937,0 1.022,-1.506 c 4.074,-6.004 6.404,-11.06 8.623,-23.556 l 1.847,-10.596 9.708,0 -6.263,35.658 z m -11.321,-1.929 9.702,0 5.586,-31.8 -5.789,0 -1.569,9.001 c -2.096,11.8 -4.305,17.17 -7.93,22.799 z m -35.406,-22.342 -13.006,0 1.225,-6.943 c 0.974,-5.479 2.669,-7.064 7.558,-7.064 2.783,0 5.752,0.33 5.752,4.268 0,0.847 -0.097,1.928 -1.385,8.95 l -0.144,0.789 z m -10.707,-1.928 9.1,0 c 1.116,-6.127 1.208,-7.144 1.208,-7.812 0,-1.626 -0.361,-2.339 -3.823,-2.339 -3.745,0 -4.801,0.645 -5.659,5.472 l -0.826,4.679 z"
   id="path21"
   inkscape:connector-curvature="0"
   style="fill:#ffffff" />
	</g>
	<g
   id="g23">
		<path
   d="m 100.93,180.216 c -1.377,-1.216 -2.847,-2.563 -4.354,-3.813 0.031,0.026 0.062,0.053 0.093,0.079 1.513,2.209 4.009,4.471 6.512,6.259 0.369,0.265 0.905,0.926 1.238,0.324 -1.264,-0.889 -2.414,-1.899 -3.489,-2.849 m 12.232,2.473 c -1.76,1.293 -3.837,-1.04 -5.817,-2.257 0.237,0.774 0.117,1.766 -0.545,2.166 2.877,1.76 6.109,3.296 8.851,1.862 -0.441,-0.826 -1.141,-1.86 -1.948,-2.51 -0.049,0.384 -0.408,0.245 -0.541,0.739 m 5.509,5.18 c 0.647,0.731 1.134,1.446 1.068,2.327 -1.715,3.563 -6.182,3.383 -9.201,2.533 -0.832,-0.232 -2.105,-0.675 -2.694,-1.146 -1.047,-0.839 -1.124,-2.431 -0.003,-3.502 -0.35,-0.371 -1.057,-0.546 -1.548,-0.9 -0.395,0.556 -1.266,1.376 -2.273,1.191 -0.995,-0.183 -1.826,-1.063 -2.886,-1.866 -2.446,-1.853 -4.512,-3.315 -6.646,-5.815 -1.003,-1.174 -1.802,-2.386 -2.553,-3.493 -0.796,-1.175 -1.194,-2.459 -1.867,-3.554 -0.457,-0.744 -0.952,-1.269 -1.023,-1.812 -0.107,-0.83 0.711,-2.129 1.545,-2.599 -1.155,-1.904 -3.53,-4.411 -3.596,-6.514 -0.023,-0.73 0.359,-1.592 1.2,-2.093 -0.206,-0.56 -0.517,-1.109 -0.751,-1.664 0.15,-0.409 0.091,-0.963 0.434,-1.464 0.309,-0.451 0.719,-0.755 1.172,-0.924 -0.99,-1.144 -1.724,-2.839 -0.181,-4.048 1.078,-0.843 2.858,-0.344 3.74,0.754 0.269,0.333 0.372,0.93 0.635,1.327 0.377,0.573 0.904,1.131 1.319,1.744 0.388,0.574 0.753,1.148 1.148,1.757 0.774,1.194 1.83,2.246 2.725,3.479 1.696,2.341 3.77,4.61 6.066,6.602 2.746,2.381 5.516,4.47 8.008,6.561 2.493,2.092 4.604,4.222 6.323,6.578 1.289,1.765 1.635,3.83 0.863,5.413 -0.317,0.3 -0.619,0.765 -1.024,1.128"
   id="path25"
   inkscape:connector-curvature="0"
   style="fill:#86c0d9" />
	</g>
	<g
   id="g27">
		<path
   d="m 85.656,145.938 c 0.047,0.039 0.086,0.009 0.133,0.032 0.287,0.212 0.466,0.605 0.846,0.79 0.166,0.475 0.422,0.941 0.385,1.436 0.425,-0.514 0.825,-1.022 1.12,-1.524 -0.791,-0.156 -1.841,-0.622 -2.484,-0.734 m -9.86,-9.942 c -4.113,-3.188 -6.809,-5.292 -10.729,-9.002 2.432,3.697 6.618,7.002 10.729,9.002 m 33.526,27.018 c 1.238,0.807 2.474,1.596 3.688,2.143 -1.23,-0.729 -2.472,-1.581 -3.688,-2.143 m 9.046,-0.835 c -3.281,-1.361 -6.339,-3.542 -9.501,-5.349 -1.836,-1.049 -3.839,-2.397 -5.563,-3.315 -0.303,-0.163 -0.532,-0.368 -0.086,0.007 0.438,0.367 1.091,0.873 1.625,1.283 5.19,3.996 10.854,7.044 15.958,9.495 -0.868,-0.588 -1.764,-1.388 -2.433,-2.121 M 85.477,145.867 c -1.768,-0.687 -3.86,-2.323 -5.953,-3.325 -1.991,-0.954 -4.193,-1.805 -6.273,-3.039 -2.105,-1.247 -4.27,-2.487 -6.231,-4.035 -1.933,-1.527 -3.572,-3.515 -4.963,-5.358 -1.36,-1.802 -2.292,-3.809 -3.005,-5.701 0.059,-0.82 0.255,-1.989 1.326,-2.624 -1.048,-1.91 -2.753,-3.824 -1.476,-6.007 0.451,-0.773 1.088,-1.14 1.796,-1.195 -1.115,-0.207 -1.946,0.581 -3.17,-0.673 -1.142,-1.169 -0.465,-3.4 0.655,-4.855 1.214,-1.577 2.361,-2.56 3.799,-2.536 1.135,0.018 2.75,0.308 3.995,1.206 1.195,0.863 2.28,1.985 3.224,3.263 1.637,2.214 2.835,4.696 4.466,7.086 0.793,1.162 1.754,2.291 2.725,3.478 2.729,3.336 5.222,7.019 8.088,10.445 1.366,1.631 2.708,3.515 4.387,5.191 1.074,1.073 2.233,1.803 2.048,3.148 -0.232,0.661 -0.488,0.717 -0.878,1.331 -0.501,0.161 -0.987,0.459 -1.569,0.354 -0.424,-0.079 -0.94,-0.689 -1.277,-0.277 0.568,0.661 1.93,0.495 2.773,1.053 0.381,0.254 0.675,0.678 0.916,1.088 1.144,-0.725 2.354,-2.257 3.505,-3.419 0.34,-0.346 0.84,-0.824 1.165,-1.01 0.276,-0.16 0.647,-0.031 0.85,-0.161 0.083,-0.137 -0.021,-0.258 0.096,-0.396 -0.674,-0.139 -1.313,0.174 -1.974,0.172 -1.905,-0.004 -4.027,-1.057 -5.339,-2.73 -0.907,-1.157 -1.68,-3.177 -1.449,-4.714 0.162,-1.083 0.481,-2.116 1.414,-3.106 0.791,-0.314 1.79,-0.412 2.524,0.212 0.135,-0.445 -0.077,-0.859 -0.027,-1.295 1.421,-3.353 5.812,-2.728 8.218,-0.416 1.77,1.699 2.479,3.779 2.523,5.614 -0.174,0.271 -0.042,0.48 -0.229,0.841 1.856,-0.005 3.813,0.088 5.655,1.406 1.902,1.361 3.12,3.115 3.397,5.235 0.252,1.936 -0.868,4.07 -2.624,5.589 -1.55,1.344 -4.663,2.196 -6.528,0.961 -1.201,-0.797 -1.115,-1.886 -0.816,-2.911 -0.165,-0.072 -0.333,-0.188 -0.498,-0.26 -0.559,0.428 -1.18,0.825 -1.929,0.688 -1.433,-0.264 -2.451,-1.943 -2.39,-3.119 -1.124,0.493 -2.143,2.177 -3.23,3.092 0.076,0.144 0.303,0.204 0.341,0.445 0.609,-1.114 2.039,-1.74 3.192,-1.057 0.252,0.148 0.471,0.438 0.747,0.625 0.457,0.313 1.035,0.538 1.501,0.863 1.462,1.016 2.837,2.265 4.043,3.233 1.166,0.938 2.587,1.559 3.882,2.384 1.279,0.813 2.569,1.6 3.835,2.345 3.837,2.253 7.618,3.616 11.374,5.012 2.557,0.95 4.911,1.551 7.484,2.544 1.285,0.496 2.774,1.188 3.797,1.916 2.267,1.607 2.468,3.423 2.718,5.38 -0.443,1.155 -0.786,2.585 -2.147,3.603 -1.193,0.89 -2.546,1.353 -3.834,1.631 -0.486,0.106 -1.009,0.104 -1.271,0.284 -0.153,0.105 -0.287,0.404 -0.432,0.515 -0.304,0.231 -0.885,0.362 -1.264,0.369 -1.323,0.022 -3.168,-0.639 -4.573,-0.896 -0.126,0.76 -0.486,0.906 -0.902,1.547 -2.63,1.053 -6.184,-1.044 -9.182,-2.697 -1.387,-0.764 -2.714,-1.735 -4.07,-2.54 -1.433,-0.853 -2.716,-1.827 -3.715,-2.959 -0.269,-0.625 -0.422,-1.261 -0.299,-1.92 -2.41,-1.657 -4.867,-4.184 -7.198,-6.198 -1.267,-1.095 -1.871,-3.07 -0.335,-4.336 -1.75,-1.425 -4.665,-3.59 -3.256,-5.593 0.341,-0.483 0.531,-0.51 1.016,-0.738 -0.289,-0.881 -1.355,-1.696 -1.136,-2.623 -3.677,4.116 -6.836,8.512 -10.029,12.331 -0.609,0.728 -1.363,1.417 -2.012,2.207 -0.654,0.797 -1.264,1.606 -1.957,2.332 -1.495,1.565 -3.042,3.084 -4.18,4.601 -0.65,0.869 -1.028,1.832 -1.692,2.396 -0.261,0.223 -0.517,0.146 -0.788,0.373 -1.013,0.845 -1.283,2.697 -2.009,3.719 -1.047,1.475 -2.318,2.574 -3.459,3.934 -2.338,2.787 -4.119,5.258 -6.077,8.095 -0.427,0.618 -0.965,1.287 -1.418,2.07 -0.391,0.677 -0.825,1.724 -1.207,2.008 -0.688,0.509 -1.815,0.051 -2.07,-0.943 0.174,-0.966 0.826,-1.975 1.468,-2.98 -1.164,1.148 -2.073,2.395 -2.578,3.639 0.373,0.486 0.719,0.976 0.736,1.492 -0.274,0.505 -0.738,1.071 -1.383,0.986 -1.768,-0.237 -2.074,-2.654 -1.703,-3.655 0.872,-2.354 3.783,-5.111 6.207,-7.589 0.717,-0.73 1.224,-1.557 1.84,-2.19 0.656,-0.679 1.46,-1.099 2.018,-1.647 0.441,-0.434 0.571,-0.855 0.861,-1.025 0.369,-0.218 1.067,-0.15 1.348,0.098 1.14,-1.618 2.923,-2.818 3.796,-4.524 0.503,-0.982 0.727,-1.786 1.287,-2.576 0.569,-0.799 1.354,-1.36 2.176,-2.308 0.629,-0.727 1.125,-1.567 1.785,-2.317 0.589,-0.669 1.264,-1.3 1.902,-1.982 1.319,-1.41 2.477,-2.955 3.679,-4.385 0.457,-0.541 1.038,-0.946 1.472,-1.468 0.79,-0.95 1.586,-2.049 2.504,-2.985 0.673,-0.687 0.801,-1.175 1.595,-1.047 -0.027,-0.186 0.308,-0.402 0.423,-0.599 -0.449,-0.309 -0.88,-0.871 -0.424,-1.39 -0.513,0.075 -1.03,0.092 -1.552,0.05 0.138,0.477 0.313,0.952 0.299,1.442 -0.232,0.662 -0.487,0.717 -0.877,1.33 -0.197,0.085 -0.398,0.166 -0.625,0.271 -0.124,0.058 -0.484,0.132 -0.584,0.224 -0.173,0.159 -0.158,0.366 -0.346,0.505 -0.241,0.181 -0.577,0.258 -0.882,0.294 -0.245,0.03 -0.604,-0.101 -0.865,-0.011 -0.249,0.086 -0.365,0.396 -0.609,0.442 -0.343,0.065 -1.169,-0.214 -1.714,-0.325 -1.222,-0.249 -2.181,-0.248 -3.414,-0.479 -0.578,-0.11 -1.259,-0.174 -1.674,-0.373 -0.194,-0.094 -0.271,-0.277 -0.467,-0.392 -0.7,-0.407 -2.039,-0.632 -3.06,-0.898 -1.039,-0.271 -2.098,-0.681 -3.03,-1.032 -4.027,-1.519 -8.153,-2.969 -12.253,-5.194 -2.029,-1.102 -4.531,-2.284 -5.967,-3.973 -0.32,-0.378 -0.354,-0.875 -0.581,-1.204 0.126,-0.659 0.165,-1.302 0.99,-2.029 0.404,-0.139 0.818,-0.19 1.224,-0.324 0.882,0.031 1.848,1.03 2.786,1.701 -0.14,-1.156 1.119,-2.292 2.136,-2.263 -0.924,-0.709 -1.861,-1.25 -2.582,-1.848 -1.087,-0.902 -3.172,-2.104 -2.997,-3.628 -0.996,1.026 0.534,2.199 0.332,3.3 -0.248,0.678 -0.53,0.779 -0.878,1.33 0.022,-0.036 -0.081,0.004 -0.086,0.007 -1.898,1.396 -4.08,-1.47 -4.176,-3.265 -0.593,-0.182 -1.523,-0.983 -1.787,-1.659 -0.583,-2.082 0.24,-5.141 2.869,-6.734 1.32,-0.801 3.835,-0.854 5.38,-0.254 1,0.387 2.49,1.243 3.502,1.983 1.189,0.869 2.186,1.993 3.28,2.913 1.143,0.958 2.23,1.929 3.397,2.771 4.396,3.17 9.01,5.702 13.436,8.333 2.211,1.314 4.433,2.643 6.622,3.569 1.339,0.567 3.163,0.851 4.564,1.287 0.013,0.007 0.029,0.019 0.045,0.032"
   id="path29"
   inkscape:connector-curvature="0"
   style="fill:#86c0d9" />
	</g>
	<g
   id="g31">
		<path
   d="m 104.034,177.453 c -1.377,-1.215 -2.846,-2.562 -4.353,-3.813 0.031,0.027 0.062,0.054 0.093,0.079 1.513,2.211 4.008,4.472 6.512,6.261 0.369,0.264 0.905,0.926 1.238,0.322 -1.265,-0.889 -2.415,-1.9 -3.49,-2.849 m 12.231,2.474 c -1.759,1.292 -3.836,-1.04 -5.816,-2.257 0.237,0.773 0.116,1.766 -0.545,2.166 2.877,1.76 6.109,3.296 8.851,1.862 -0.441,-0.826 -1.141,-1.86 -1.949,-2.511 -0.049,0.384 -0.407,0.246 -0.541,0.74 m 5.51,5.179 c 0.647,0.731 1.134,1.445 1.068,2.328 -1.715,3.561 -6.181,3.381 -9.201,2.533 -0.832,-0.234 -2.104,-0.677 -2.694,-1.148 -1.046,-0.838 -1.124,-2.428 -0.003,-3.501 -0.351,-0.369 -1.057,-0.544 -1.549,-0.901 -0.395,0.558 -1.267,1.378 -2.273,1.194 -0.995,-0.184 -1.826,-1.064 -2.886,-1.866 -2.446,-1.855 -4.512,-3.315 -6.646,-5.815 -1.004,-1.174 -1.803,-2.387 -2.553,-3.492 -0.797,-1.176 -1.195,-2.461 -1.867,-3.556 -0.458,-0.743 -0.952,-1.268 -1.024,-1.812 -0.106,-0.831 0.712,-2.128 1.546,-2.599 -1.155,-1.905 -3.531,-4.41 -3.596,-6.515 -0.023,-0.729 0.359,-1.591 1.199,-2.093 -0.205,-0.559 -0.516,-1.107 -0.75,-1.663 0.149,-0.409 0.091,-0.963 0.433,-1.464 0.31,-0.453 0.72,-0.756 1.173,-0.924 -0.99,-1.146 -1.723,-2.84 -0.181,-4.047 1.078,-0.844 2.857,-0.344 3.74,0.754 0.268,0.333 0.373,0.929 0.635,1.326 0.376,0.574 0.904,1.13 1.318,1.743 0.389,0.575 0.754,1.149 1.149,1.759 0.774,1.192 1.83,2.244 2.724,3.479 1.697,2.339 3.771,4.608 6.066,6.6 2.746,2.383 5.516,4.47 8.008,6.562 2.494,2.092 4.604,4.221 6.324,6.577 1.288,1.767 1.636,3.831 0.863,5.414 -0.316,0.298 -0.618,0.765 -1.023,1.127"
   id="path33"
   inkscape:connector-curvature="0"
   style="fill:#ffffff" />
	</g>
	<g
   id="g35">
		<path
   d="m 88.759,143.176 c 0.047,0.039 0.087,0.01 0.133,0.032 0.288,0.213 0.467,0.606 0.847,0.789 0.167,0.476 0.421,0.943 0.385,1.436 0.425,-0.513 0.825,-1.022 1.12,-1.524 -0.791,-0.155 -1.841,-0.621 -2.485,-0.733 M 78.9,133.232 c -4.114,-3.188 -6.808,-5.29 -10.729,-9 2.431,3.697 6.618,7 10.729,9 m 33.526,27.02 c 1.237,0.805 2.473,1.595 3.688,2.141 -1.232,-0.729 -2.473,-1.58 -3.688,-2.141 m 9.046,-0.835 c -3.281,-1.361 -6.339,-3.542 -9.501,-5.351 -1.836,-1.048 -3.839,-2.397 -5.563,-3.315 -0.303,-0.163 -0.532,-0.367 -0.086,0.007 0.438,0.368 1.092,0.873 1.625,1.285 5.19,3.994 10.854,7.043 15.958,9.494 -0.869,-0.588 -1.765,-1.388 -2.433,-2.12 M 88.581,143.105 c -1.767,-0.687 -3.86,-2.325 -5.953,-3.327 -1.992,-0.953 -4.193,-1.805 -6.273,-3.037 -2.106,-1.249 -4.271,-2.487 -6.232,-4.037 -1.933,-1.526 -3.573,-3.514 -4.963,-5.357 -1.361,-1.802 -2.292,-3.809 -3.005,-5.701 0.059,-0.819 0.255,-1.989 1.326,-2.624 -1.048,-1.909 -2.753,-3.823 -1.476,-6.007 0.451,-0.772 1.088,-1.14 1.796,-1.195 -1.115,-0.207 -1.946,0.581 -3.17,-0.672 -1.142,-1.169 -0.465,-3.4 0.655,-4.856 1.214,-1.577 2.361,-2.559 3.798,-2.537 1.134,0.02 2.75,0.308 3.996,1.207 1.195,0.864 2.28,1.984 3.224,3.263 1.637,2.213 2.835,4.695 4.466,7.085 0.793,1.163 1.754,2.291 2.725,3.478 2.729,3.337 5.222,7.019 8.088,10.445 1.367,1.631 2.709,3.514 4.387,5.192 1.074,1.071 2.233,1.802 2.048,3.148 -0.231,0.661 -0.487,0.715 -0.877,1.329 -0.501,0.161 -0.987,0.46 -1.569,0.354 -0.425,-0.078 -0.94,-0.688 -1.278,-0.277 0.568,0.662 1.931,0.496 2.773,1.054 0.38,0.254 0.675,0.678 0.916,1.088 1.144,-0.724 2.354,-2.257 3.504,-3.419 0.341,-0.345 0.841,-0.823 1.166,-1.01 0.276,-0.159 0.647,-0.031 0.851,-0.16 0.083,-0.137 -0.021,-0.259 0.094,-0.397 -0.673,-0.138 -1.311,0.174 -1.972,0.172 -1.906,-0.003 -4.027,-1.056 -5.339,-2.731 -0.908,-1.156 -1.68,-3.177 -1.45,-4.714 0.162,-1.083 0.481,-2.115 1.414,-3.105 0.791,-0.314 1.791,-0.412 2.525,0.212 0.135,-0.445 -0.078,-0.858 -0.027,-1.295 1.421,-3.353 5.812,-2.728 8.219,-0.417 1.77,1.699 2.479,3.779 2.523,5.615 -0.174,0.27 -0.042,0.479 -0.229,0.84 1.856,-0.005 3.813,0.088 5.655,1.408 1.902,1.361 3.12,3.114 3.397,5.234 0.252,1.934 -0.869,4.069 -2.624,5.589 -1.55,1.344 -4.663,2.196 -6.529,0.96 -1.2,-0.795 -1.115,-1.885 -0.815,-2.91 -0.165,-0.071 -0.334,-0.188 -0.499,-0.26 -0.559,0.427 -1.179,0.825 -1.928,0.688 -1.433,-0.263 -2.451,-1.942 -2.39,-3.118 -1.125,0.493 -2.143,2.176 -3.23,3.091 0.075,0.145 0.303,0.204 0.341,0.446 0.609,-1.114 2.04,-1.74 3.192,-1.058 0.252,0.15 0.471,0.438 0.747,0.626 0.456,0.313 1.035,0.538 1.501,0.864 1.461,1.016 2.836,2.264 4.043,3.233 1.166,0.937 2.587,1.56 3.883,2.382 1.278,0.814 2.568,1.601 3.835,2.346 3.837,2.253 7.619,3.616 11.374,5.012 2.558,0.95 4.911,1.551 7.484,2.543 1.284,0.497 2.775,1.19 3.797,1.915 2.267,1.609 2.468,3.425 2.717,5.382 -0.442,1.154 -0.786,2.585 -2.146,3.602 -1.193,0.891 -2.546,1.354 -3.834,1.633 -0.486,0.104 -1.009,0.102 -1.271,0.283 -0.153,0.106 -0.287,0.405 -0.432,0.514 -0.304,0.231 -0.885,0.363 -1.264,0.37 -1.324,0.021 -3.168,-0.639 -4.573,-0.896 -0.125,0.761 -0.485,0.907 -0.902,1.549 -2.631,1.052 -6.185,-1.045 -9.182,-2.698 -1.388,-0.765 -2.715,-1.735 -4.07,-2.541 -1.434,-0.851 -2.717,-1.826 -3.716,-2.957 -0.269,-0.626 -0.422,-1.261 -0.298,-1.92 -2.41,-1.657 -4.867,-4.185 -7.198,-6.2 -1.268,-1.095 -1.872,-3.068 -0.336,-4.334 -1.75,-1.426 -4.665,-3.591 -3.255,-5.594 0.341,-0.483 0.53,-0.509 1.016,-0.737 -0.289,-0.882 -1.356,-1.696 -1.136,-2.624 -3.677,4.117 -6.836,8.513 -10.029,12.331 -0.609,0.728 -1.362,1.417 -2.011,2.207 -0.654,0.796 -1.264,1.607 -1.957,2.333 -1.495,1.564 -3.042,3.082 -4.179,4.601 -0.65,0.869 -1.03,1.831 -1.692,2.395 -0.261,0.223 -0.517,0.146 -0.788,0.374 -1.013,0.844 -1.283,2.696 -2.009,3.719 -1.047,1.475 -2.318,2.572 -3.46,3.934 -2.337,2.786 -4.119,5.257 -6.078,8.095 -0.426,0.617 -0.963,1.286 -1.418,2.069 -0.392,0.677 -0.825,1.725 -1.207,2.007 -0.688,0.511 -1.815,0.052 -2.071,-0.942 0.175,-0.968 0.826,-1.975 1.468,-2.981 -1.164,1.15 -2.073,2.395 -2.577,3.641 0.374,0.485 0.719,0.974 0.735,1.491 -0.274,0.504 -0.738,1.071 -1.383,0.985 -1.768,-0.236 -2.074,-2.652 -1.703,-3.654 0.872,-2.354 3.783,-5.112 6.208,-7.587 0.717,-0.732 1.224,-1.558 1.839,-2.193 0.656,-0.677 1.46,-1.099 2.018,-1.646 0.441,-0.434 0.571,-0.856 0.86,-1.027 0.37,-0.218 1.068,-0.15 1.348,0.099 1.14,-1.619 2.923,-2.817 3.796,-4.524 0.503,-0.981 0.727,-1.786 1.287,-2.577 0.569,-0.799 1.354,-1.359 2.176,-2.308 0.63,-0.726 1.126,-1.566 1.785,-2.317 0.589,-0.668 1.264,-1.299 1.901,-1.981 1.32,-1.409 2.478,-2.956 3.68,-4.385 0.457,-0.541 1.039,-0.946 1.471,-1.468 0.79,-0.95 1.586,-2.048 2.504,-2.986 0.673,-0.687 0.802,-1.175 1.595,-1.046 -0.027,-0.185 0.308,-0.401 0.423,-0.6 -0.449,-0.309 -0.88,-0.869 -0.424,-1.388 -0.512,0.074 -1.03,0.092 -1.552,0.049 0.139,0.478 0.314,0.952 0.3,1.442 -0.233,0.663 -0.488,0.716 -0.878,1.33 -0.197,0.085 -0.398,0.165 -0.625,0.271 -0.124,0.059 -0.484,0.132 -0.584,0.224 -0.173,0.159 -0.157,0.365 -0.346,0.505 -0.24,0.181 -0.576,0.257 -0.882,0.294 -0.245,0.03 -0.605,-0.099 -0.865,-0.011 -0.248,0.086 -0.365,0.396 -0.609,0.442 -0.343,0.065 -1.168,-0.213 -1.714,-0.326 -1.222,-0.248 -2.181,-0.247 -3.413,-0.479 -0.58,-0.107 -1.261,-0.171 -1.675,-0.371 -0.194,-0.093 -0.271,-0.277 -0.466,-0.392 -0.7,-0.406 -2.04,-0.633 -3.061,-0.899 -1.038,-0.271 -2.098,-0.68 -3.03,-1.031 -4.026,-1.519 -8.153,-2.969 -12.253,-5.194 -2.029,-1.103 -4.53,-2.284 -5.966,-3.974 -0.321,-0.376 -0.354,-0.875 -0.581,-1.202 0.127,-0.66 0.166,-1.303 0.99,-2.031 0.405,-0.139 0.818,-0.189 1.225,-0.323 0.882,0.032 1.848,1.03 2.785,1.701 -0.14,-1.156 1.119,-2.293 2.136,-2.262 -0.923,-0.709 -1.86,-1.251 -2.581,-1.848 -1.087,-0.902 -3.173,-2.104 -2.997,-3.629 -0.996,1.026 0.534,2.199 0.332,3.3 -0.249,0.678 -0.531,0.779 -0.878,1.33 0.021,-0.035 -0.081,0.004 -0.085,0.008 -1.898,1.396 -4.081,-1.47 -4.175,-3.266 -0.593,-0.182 -1.524,-0.983 -1.788,-1.659 -0.584,-2.082 0.24,-5.14 2.869,-6.734 1.319,-0.8 3.835,-0.853 5.379,-0.254 1,0.387 2.491,1.245 3.502,1.984 1.189,0.869 2.186,1.993 3.28,2.911 1.143,0.959 2.231,1.929 3.398,2.772 4.396,3.17 9.01,5.702 13.436,8.333 2.211,1.314 4.433,2.642 6.622,3.568 1.34,0.567 3.163,0.852 4.565,1.288 0.01,0.005 0.026,0.018 0.042,0.032"
   id="path37"
   inkscape:connector-curvature="0"
   style="fill:#ffffff" />
	</g>
</g>
</svg>