<svg xmlns="http://www.w3.org/2000/svg" id="svg2" width="279" height="100" viewBox="0 0 279 100"><g id="XMLID_224_" transform="translate(0 -1.183) scale(1.31406)"><g id="XMLID_1_"><g id="XMLID_28_"><path id="XMLID_29_" d="M.6 66l-.6-.8 21.7-42.1c1 .1 2.1.4 3.2.8s2.2 1 3.2 1.7l-17.2 34h14.9V45.7c.6-.1 1.2-.2 1.8-.2.6 0 1.2-.1 1.7-.1.6 0 1.3 0 1.9.1.6 0 1.2.1 1.8.2v13.9h6.8c.1.5.2 1.1.2 1.6s.1 1.1.1 1.6 0 1.1-.1 1.7c0 .6-.1 1.1-.2 1.6H33v10.1c-.6.1-1.2.2-1.8.2h-3.5c-.6 0-1.2-.1-1.8-.2V66H.6zm181.7-17.5v3.1c-2.3-2.5-5.2-3.9-8.5-3.9-8.6 0-13.2 7.4-13.2 14.4 0 7.4 4.6 14.9 13.4 14.9 3.2 0 6.1-1.4 8.4-3.8v2.9h6.5V48.4h-6.6zm.3 13.8c0 4.4-2.4 8.8-7.8 8.8-5 0-7.6-4.4-7.6-8.8 0-4.3 2.6-8.7 7.6-8.7 5.4 0 7.8 4.4 7.8 8.7zm-34.8-14.6c-3.2 0-6.2 1.6-8.1 4-1.9-2.7-4.5-4-7.6-4-2.3 0-4.7 1.1-6.4 2.9v-2.1h-6.5v27.7h6.5V62.6c0-4.4.6-8.9 5.1-8.9 3.4 0 4.1 3.2 4.1 7.9v14.6h6.5V62.6c0-4.6.6-8.9 5.1-8.9 2.9 0 4.2 2.1 4.2 7v15.6h6.5V59.9c.1-8.2-3.1-12.2-9.4-12.2zm-40.1 3.9c-2.3-2.5-5.2-3.9-8.5-3.9-8.6 0-13.2 7.4-13.2 14.4C86 69.5 90.6 77 99.4 77c3.2 0 6.1-1.4 8.4-3.8v2.9h6.5V48.4h-6.5v3.2zm.2 10.7c0 4.4-2.4 8.8-7.9 8.8-5 0-7.6-4.4-7.6-8.8 0-4.3 2.6-8.7 7.6-8.7 5.5 0 7.9 4.4 7.9 8.7zM73.2 47.7c-3.1 0-6.2 1.6-8.1 4-1.9-2.7-4.5-4-7.6-4-2.3 0-4.6 1.1-6.4 2.9v-2.1h-6.5v27.7h6.5V62.6c0-4.4.6-8.9 5.1-8.9 3.4 0 4.1 3.2 4.1 7.9v14.6h6.5V62.6c0-4.6.6-8.9 5.1-8.9 2.9 0 4.2 2.1 4.2 7v15.6h6.5V59.9c0-8.2-3.1-12.2-9.4-12.2zM211.7 3.1l-3.7-.2-2.4-2s-1 6.6-3.7 12.7c-2.3 5.1-5.6 9.4-5.2 8.7 1.2-1.9-3.2-6.5-3.2-6.5s-3.1 7.9-6.6 8.1c-3.5.2-8.8-2.8-8.8-2.8-11.5-4.4-11.2 6.6-11.2 6.6l-1.1 2.2 3.9.2s11.3 10.6 17.6 11.7l-2.7 7.8h1.3l2.7-7.7h1.3l-2.7 7.7h1.3l2.8-7.8c11.1-1.4 11-17 11-17 .7-12.8 9.4-21.7 9.4-21.7zm-39.1 23.5c-.9 0-1.7-.8-1.7-1.7 0-.9.8-1.7 1.7-1.7.9 0 1.7.8 1.7 1.7 0 .9-.7 1.7-1.7 1.7zm13.7 8.5c-5.8-1.3-4-6.8 1-9.5 6-3.2 6.1-6.2 6.1-6.2 6 8-.1 17.3-7.1 15.7zm-14.5-.4s-3.1-4.6-6.6.5c0 0-1.9 4-4.4 5-2.9 1.2-6.7-.7-7.6-1.2-2.9-1.7-5.3-4.2-5.3-4.2l-.4 1.5-1.5 1.2s6.2 1.2 10.4 6.2c0 0 3.1 4.5 7.1 4.5l.9 3.8.6.1-.9-3.9c.2 0 .4-.1.6-.1l1 4.1.6.1-1.1-4.4c.7-.3 1.4-.7 2.1-1.3 2.3-2.1 4-10.1 4-10.1l1.5-1.2-1-.6zM160 43.6s1.2-.3 2.9-2.3c1.5-1.7 3.8-1.5 3.8.9.1 2.7-4.1 4.3-6.7 1.4zm8.9-7.8c-.4.3-.9.2-1.2-.2-.3-.4-.2-.9.2-1.2.4-.3.9-.2 1.2.2.2.4.1.9-.2 1.2z"/></g></g></g></svg>