<svg xmlns="http://www.w3.org/2000/svg" width="351" height="100" viewBox="0 0 351 100"><path d="M292.379 70.801c0 2.73-2.216 4.94-4.944 4.94a4.933 4.933 0 0 1-4.933-4.94c0-2.73 2.206-4.93 4.933-4.93 2.728 0 4.944 2.2 4.944 4.93zm47.817-1.051c-1.031 1.093-2.658 2.664-4.136 2.664-2.57 0-2.648-2.44-2.648-4.708 0-1.507.149-3.546 1.626-4.762 1.022-.815 3.24-1.52 5.158-1.63v8.436zm8.33 2.664c-1.176 0-1.11-1.22-1.11-2.837v-15.94c0-1.918-1.026-3.251-2.874-4.007-1.918-.815-4.869-.878-6.188-.878-4.429 0-7.893 1.338-9.52 2.856-1.177 1.037-1.841 2.613-1.841 3.77 0 1.922 1.333 4.075 3.984 4.075 1.922 0 3.986-1.215 3.986-3.433 0-1.046-.376-1.862-1.038-2.5-.662-.697-1.473-1.157-1.473-2.035 0-.455.447-1.57 3.608-1.57.816 0 1.776.126 2.516.468 1.026.516 1.62 1.627 1.62 3.198v6.57c-2.58.113-9.22.642-11.95 2.555-1.62 1.162-2.8 3.251-2.8 5.75 0 1.75.591 3.443 1.842 4.71 1.335 1.341 3.022 1.921 5.162 1.921 1.92 0 3.537-.524 4.646-1.166 1.03-.578 2.362-1.74 3.248-2.731.072.706.44 1.697 1.462 2.617 1.043.93 2.074 1.28 3.771 1.28 1.693 0 2.58-.46 3.609-1.21.96-.712 1.417-1.498 1.753-2.318.002 0-1.507.855-2.413.855zm-26.626-23.2h-9.801v1.163h2.575v16.856c0 1.17-.296 2.213-1.395 3.432-.745.816-1.925 1.807-3.245 1.807-.955 0-2.726-.409-2.726-3.26V49.206h-9.817v1.162h2.587v19.706c0 .99.298 2.27.955 3.142 1.256 1.685 3.027 1.858 4.355 1.858 4.05 0 7.444-1.449 9.286-4.353v3.893h9.741v-1.162H321.9V49.197zM39.06 53.664c0 1.84-.311 11.005-2.482 15.034-1.55 2.933-4.024 3.915-5.733 3.915-7.905 0-9.143-10.51-9.605-15.767-.311-3.662-.62-11.734-.62-15.28 0-15.655 5.888-17.725 10.074-17.725 1.698 0 4.804.98 6.509 5.008.462 1.224 1.86 4.648 1.86 11.37v13.445zM20.62.049H0v2.435h5.426v69.641H.153v2.444H20.62V67.11c.924 2.569 2.473 4.28 3.56 5.255 2.635 2.564 5.119 3.182 9.152 3.182 2.322 0 12.712-.364 19.218-12.59 2.635-5.017 3.257-10.75 3.257-15.162 0-6.344-1.086-13.194-6.826-19.798C43.4 21.64 37.356 20.18 32.707 20.18c-6.197 0-10.69 3.542-12.085 7.577V.049zm54.452 43.355V32.885c0-5.26.935-10.268 6.979-10.268 2.635 0 5.581 1.467 6.661 6.353.47 2.2.778 7.09.778 8.806v5.628H75.072zM101.58 61.24c-1.709 3.064-4.033 5.868-6.67 7.955-1.545 1.215-5.269 3.906-9.915 3.906-4.346 0-6.98-2.449-8.217-4.766-.464-.86-1.709-3.424-1.709-11.375V45.837h29.608c0-4.393-1.086-10.996-5.272-16.62-4.647-6.242-11.313-9.04-17.205-9.04-4.498 0-10.541 1.585-15.96 7.449-4.809 5.135-7.91 11.983-7.91 20.166 0 6.484 2.325 14.183 7.91 19.93 5.268 5.503 11.776 7.823 17.668 7.823 6.817 0 10.85-2.813 13.483-5.373 2.327-2.326 4.8-5.75 6.197-8.072l-2.008-.86zm128.743 2.626V23.593h9.148v-2.44h-9.148V0l-15.19 4.53v16.621h-5.579v2.44h5.58v40.342c0 3.42.466 6.966 3.408 9.288 2.382 1.88 5.466 2.282 7.908 2.313h-.002.316v-.022c3.348-.056 5.17-1.016 7.274-2.556 2.02-1.457 2.996-3.12 3.676-4.857 0 0-3.149 1.802-5.078 1.802-2.468 0-2.322-2.626-2.322-6.041v-.023zm-94.127.438c-2.175 2.322-5.584 5.615-8.677 5.615-5.421 0-5.584-5.135-5.584-9.899 0-3.177.311-7.453 3.409-10.021 2.175-1.711 6.824-3.186 10.852-3.424v17.729zm17.518 5.615c-2.48 0-2.32-2.564-2.32-5.984V30.437c0-4.024-2.173-6.844-6.05-8.437-4.029-1.707-10.235-1.822-13.019-1.822-9.303 0-16.587 2.8-19.995 5.984-2.484 2.204-3.882 5.503-3.882 7.94 0 4.04 2.795 8.56 8.377 8.56 4.026 0 8.37-2.564 8.37-7.208 0-2.195-.775-3.915-2.17-5.26-1.4-1.462-3.1-2.44-3.1-4.284 0-.975.924-3.293 7.594-3.293 1.709 0 3.72.247 5.264.976 2.175 1.102 3.413 3.424 3.413 6.73v13.805c-5.42.252-19.373 1.345-25.113 5.382-3.41 2.444-5.881 6.844-5.881 12.099 0 3.675 1.235 7.212 3.87 9.908 2.791 2.804 6.355 4.028 10.852 4.028 4.033 0 7.442-1.093 9.768-2.444 2.171-1.22 4.955-3.666 6.817-5.746.151 1.466.931 3.546 3.098 5.504 2.173 1.957 4.346 2.686 7.905 2.686 3.571 0 5.431-.976 7.6-2.569 2.017-1.457 2.99-3.12 3.681-4.857-.002 0-3.164 1.8-5.079 1.8zm52.67-48.78c-1.667 0-4.026.023-9.141.023h-11.477v2.44h5.426v35.447c0 2.449-.62 4.653-2.942 7.221-1.553 1.707-4.033 3.78-6.821 3.78-2.011 0-5.73-.847-5.73-6.844V21.15c-4.28 0-6.52.022-9.153.022h-11.468v2.44h5.424v41.44c0 2.075.62 4.768 2.018 6.597 2.64 3.55 6.355 3.915 9.145 3.915 8.528 0 15.656-3.051 19.527-9.166v8.19h20.46v-2.444h-5.268V21.158zm30.392.023v2.44h4.186l22.475 58.682c-1.395 3.41-2.788 5.984-4.644 8.92-1.248 1.83-3.72 5.614-6.981 5.614-.62 0-2.789-.113-2.789-2.195 0-1.344.925-2.695 2.17-4.522.935-1.342 1.552-2.322 1.552-4.035 0-4.03-3.568-7.086-7.599-7.086-3.562 0-9.606 2.444-9.606 9.408 0 1.713.316 4.89 3.409 7.824 1.702 1.713 4.957 3.788 10.074 3.788 4.809 0 7.91-1.589 11.008-5.377 2.942-3.67 5.584-8.675 8.837-18.578l13.64-42.171c.467-1.47 1.865-5.26 4.029-7.704.931-1.102 2.642-2.568 5.117-2.568h.931v-2.44H271.81v2.44h1.553c1.242 0 3.102.126 4.65 1.229 1.865 1.22 2.171 2.682 2.171 4.64 0 1.71-.306 3.059-.768 4.643l-8.22 25.426-13.951-35.938h5.884v-2.44h-26.353z"/></svg>