<svg xmlns="http://www.w3.org/2000/svg" width="736" height="100" viewBox="0 0 736 100"><g><path d="M566.826 68.081v-.595c.987-.222 1.765-1.085 2.338-2.585l6.996-18.014h.479l7.244 18.697c.483 1.229 1.17 1.863 2.06 1.902v.595a46.247 46.247 0 0 0-3.193-.088c-1.694 0-2.961.03-3.803.088v-.595c.754-.03 1.294-.122 1.619-.276.324-.153.487-.43.487-.827 0-.337-.117-.803-.349-1.394l-1.828-4.878h-7.172l-1.22 3.15c-.395 1.008-.594 1.819-.594 2.439 0 .629.21 1.08.63 1.35.421.27 1.073.416 1.953.436v.595a66.321 66.321 0 0 0-3.426-.088c-.89.001-1.631.03-2.221.088zm5.097-8.564h6.736l-3.325-8.87-3.411 8.87zm-23.56-11.888v-.596c.844.058 2.113.087 3.81.087 1.6 0 2.866-.029 3.796-.087v.596c-.546.02-.962.06-1.249.122a1.437 1.437 0 0 0-.723.386 1.355 1.355 0 0 0-.373.747c-.053.305-.08.739-.08 1.299v9.843c0 .764.019 1.424.057 1.981.039.557.112 1.14.219 1.75.106.61.269 1.12.487 1.532.217.411.494.791.829 1.14.333.347.763.607 1.285.775.523.17 1.129.255 1.816.255 1.096 0 2.023-.189 2.784-.566a4.12 4.12 0 0 0 1.766-1.64 7.857 7.857 0 0 0 .893-2.403c.18-.886.269-1.914.269-3.086V50.49c0-1.075-.195-1.808-.583-2.2-.389-.392-1.1-.612-2.132-.66v-.596c.719.058 1.733.087 3.043.087 1.193 0 2.114-.029 2.766-.087v.596c-.993.038-1.643.245-1.95.624-.307.378-.46 1.123-.46 2.236v8.941c0 2.817-.406 4.916-1.219 6.3-.503.853-1.234 1.526-2.197 2.026-.963.498-2.043.747-3.241.747-2.175 0-3.839-.537-4.989-1.612-.868-.812-1.456-1.732-1.754-2.76-.3-1.025-.449-2.564-.449-4.614v-9.334c0-.562-.028-.994-.081-1.299a1.34 1.34 0 0 0-.373-.747 1.459 1.459 0 0 0-.723-.386c-.284-.062-.7-.102-1.244-.122zM20.53 98.25h14.016c23.647 0 35.686-21.141 35.686-48.631C70.233 22.979 56.78.423 34.409.423H20.53V98.25zM35.681 0c29.595 0 47.436 19.876 47.436 48.773 0 29.18-20.533 49.903-47.436 49.903H0v-.425h8.921V.424H0V0h35.681zm697.665 38.336h.363V13.164h-.363c0 2.652-1.572 4.456-4.233 4.456-5.927 0-9.559-4.456-19.962-4.456-16.211 0-26.612 9.155-26.612 23.365 0 28.785 45.362 18.67 45.362 45.165 0 9.999-6.29 17.707-18.39 17.707-.79 0-1.561-.048-2.327-.111v.519c.74.045 1.515.071 2.327.071 14.642 0 26.496-9.993 26.496-24.086 0-28.663-45.486-18.428-45.486-45.044 0-9.274 6.533-17.101 18.63-17.101 15.002-.002 21.173 10.358 24.195 24.687m-52.907-23.603c-4.353 0-7.623 4.333-7.623 15.054v68.89h-8.469L614.99 15.574V83.26c0 11.2 4.233 15.054 8.831 15.054v.363h-16.938v-.363c4.357 0 7.623-4.337 7.623-15.054V14.733h-7.623v-.363h18.634l46.814 79.85V29.787c0-11.2-4.23-15.054-8.828-15.054v-.363h16.936v.363zM537.974 56.28c0 22.765 8.837 43.24 27.949 43.24 20.206 0 27.947-19.27 27.947-42.757 0-22.761-8.834-43.118-27.947-43.118-20.206 0-27.949 19.151-27.949 42.635m66.905-.24c0 24.932-15.972 43.959-38.956 43.959-25.284 0-38.956-18.304-38.956-42.993 0-24.931 15.97-43.843 38.956-43.843 25.284 0 38.956 18.187 38.956 42.877m-89.043-41.308v83.581h7.5v.363h-25.042v-.363h7.625V14.733h-7.625v-.362h25.042v.362zm-24.822 20.353c-1.208-14.813-7.375-20.353-22.38-20.353h-4.594v83.581h7.5v.363h-25.043v-.363h7.619V14.733h-4.596c-15 0-21.17 5.54-22.377 20.353h-.366V9.913h.366c0 2.651 1.571 4.458 4.23 4.458h55.408c2.66 0 4.233-1.807 4.233-4.458h.367v25.173h-.367zm-79.5 27.098h-29.638l14.397-39.144 15.241 39.144zm31.576 36.493v-.363h-6.776l-32.903-83.943h-4.481L381.301 62.57h.448l.005-.022h29.882l14.033 35.767h-7.985v.363h25.406zm-61.789-83.944c-4.355 0-7.62 4.333-7.62 15.054v68.89h-8.47l-49.357-83.103V83.26c0 11.2 4.232 15.054 8.83 15.054v.363h-16.937v-.363c4.353 0 7.622-4.337 7.622-15.054V14.733h-7.622v-.363h18.63l46.819 79.85V29.787c0-11.2-4.235-15.054-8.83-15.054v-.363H381.3v.363zm-84.814 0v83.581h7.5v.363h-25.043v-.363h7.622V14.733h-7.622v-.362h25.043v.362zM274.34 35.086c-1.209-14.813-7.379-20.353-22.382-20.353h-4.594v83.581h7.5v.363H229.82v-.363h7.621V14.733h-4.597c-15 0-21.171 5.54-22.381 20.353h-.363V9.913h.363c0 2.651 1.576 4.458 4.236 4.458h55.41c2.66 0 4.231-1.807 4.231-4.458h.363v25.173h-.364zm-73.813 3.25h.363V13.164h-.363c0 2.652-1.573 4.456-4.235 4.456-5.928 0-9.558-4.456-19.96-4.456-16.212 0-26.614 9.155-26.614 23.365 0 28.785 45.364 18.67 45.364 45.165 0 9.999-6.291 17.707-18.39 17.707-.654 0-1.288-.048-1.925-.092v.511c.623.031 1.25.06 1.925.06 14.64 0 26.496-9.993 26.496-24.086 0-28.663-45.486-18.428-45.486-45.044 0-9.274 6.53-17.101 18.629-17.101 15.003-.002 21.173 10.358 24.196 24.687m-58.669-3.009c-2.541-14.696-7.018-20.596-21.291-20.596h-18.27v41.55h11.613c11.011 0 15.125-4.697 16.214-13.005h.358v26.377h-.358c-1.089-8.313-5.202-13.007-16.214-13.007h-11.613v41.668h19.478c14.276 0 18.75-5.9 21.292-20.591h.241v20.954H84.753v-.363h7.624V14.733h-7.624v-.362h57.343v20.956h-.239z"/></g></svg>