<svg xmlns="http://www.w3.org/2000/svg" width="370" height="100" viewBox="0 0 370 100"><path d="M369.045 73.919h-9.078v-2.956h-.129c-1.973 2.565-5.393 4.011-8.751 4.011-9.474 0-14.856-8.62-14.856-17.363 0-8.547 5.455-17.04 14.729-17.04 3.347 0 6.77 1.453 9.005 4.084v-3.024h9.078v32.288zm-8.156-16.176c0-4.34-2.962-9.012-7.693-9.012-4.74 0-7.632 4.671-7.632 9.012 0 4.34 2.891 9.08 7.632 9.08 4.731 0 7.693-4.74 7.693-9.08zM312.35 41.63v17.492c0 3.684.594 8.096 5.26 8.096 4.668 0 5.26-4.41 5.26-8.096V41.63h9.212v19.003c0 9.41-4.864 14.34-14.471 14.34-9.594 0-14.472-4.93-14.472-14.34V41.63h9.211zm-15.914 27.685c0 3.225-2.63 5.925-5.853 5.925s-5.856-2.7-5.856-5.925c0-3.22 2.633-5.782 5.856-5.782 3.222 0 5.853 2.562 5.853 5.782zM240.791 44.52h.129c1.773-2.565 4.935-3.95 7.9-3.95 4.013 0 7.162 1.65 9.271 5.07 1.965-3.16 5.654-5.07 9.399-5.07 8.222 0 10.26 6.19 10.26 13.221V73.92h-9.2V56.95c0-3.16.195-9.011-4.345-9.011-5.002 0-4.931 6.78-4.931 10.136v15.843h-9.212V57.547c0-3.16.398-9.605-4.407-9.605-5.129 0-4.864 6.707-4.864 10.136v15.843h-9.212V41.633h9.212v2.887zm-13.545 13.287c0 10-6.84 17.167-16.979 17.167-10.123 0-16.965-7.167-16.965-17.167 0-10.065 6.902-17.236 16.965-17.236 10.063 0 16.979 7.171 16.979 17.236zm-24.61 0c0 4.345 2.902 9.016 7.631 9.016 4.743 0 7.632-4.671 7.632-9.016 0-4.471-2.89-9.076-7.632-9.076-4.729 0-7.631 4.605-7.631 9.076zm-22.881 13.085h-.136c-1.902 2.636-5.322 4.08-8.68 4.08-9.472 0-14.865-8.62-14.865-17.363 0-8.547 5.458-17.04 14.731-17.04 3.358 0 6.776 1.453 8.816 4.02h.136V18.147h9.211V73.92h-9.211v-3.027zm.915-13.15c0-4.34-2.891-9.01-7.622-9.01-4.74 0-7.63 4.67-7.63 9.01s2.89 9.081 7.63 9.081c4.731 0 7.622-4.74 7.622-9.08zM143.45 44.985h.126c1.84-2.833 4.605-4.413 8.025-4.413 1.322 0 2.631.329 3.816.789l-1.118 8.556c-1.118-.79-2.438-1.185-3.814-1.185-6.38 0-7.038 5.656-7.038 10.656V73.92h-9.209V41.63h9.21v3.353zm-34.733 14.272c0 4.08 1.582 8.676 6.385 8.676 3.024 0 4.929-1.836 6.184-4.398l8.483 1.376c-2.233 6.449-7.891 10.06-14.67 10.06-10 0-16.114-7.105-16.114-16.899 0-9.8 5.198-17.505 15.659-17.505 10.58 0 15.325 7.83 15.325 17.57v1.116h-21.252zm12.57-5.72c-.47-3.287-2.567-6.52-6.123-6.52-3.68 0-5.718 3.16-6.176 6.52h12.298zM73.333 44.59c2.105-2.505 5.523-4.02 8.945-4.02 9.138 0 14.73 8.556 14.73 17.04 0 8.816-5.396 17.363-14.93 17.363-3.284 0-6.778-1.444-8.616-4.08h-.129v20.257h-9.207V41.63h9.207v2.96zm14.341 13.152c0-4.34-2.9-9.012-7.634-9.012-4.74 0-7.631 4.671-7.631 9.012 0 4.34 2.891 9.08 7.631 9.08 4.734 0 7.634-4.74 7.634-9.08zM37.951 41.63v17.492c0 3.684.59 8.096 5.258 8.096 4.666 0 5.26-4.41 5.26-8.096V41.63h9.214v19.003c0 9.41-4.865 14.34-14.474 14.34-9.605 0-14.472-4.93-14.472-14.34V41.63h9.214zM18.55 49.26c-1.32-1.253-3.027-2.245-4.874-2.245-1.507 0-3.024 1.185-3.024 2.765 0 2.369 3.358 3.029 6.642 4.471 3.358 1.454 6.643 3.69 6.643 9.285 0 7.163-5.778 11.436-12.559 11.436-4.344 0-8.549-1.975-11.378-5.387l4.205-5.464c1.777 1.975 4.149 3.746 6.842 3.746 2.04 0 3.69-1.38 3.69-3.48 0-2.824-3.223-3.489-6.446-4.873-3.222-1.371-6.444-3.287-6.444-8.476 0-6.052 4.211-10.465 10.26-10.465 3.418 0 7.756 1.06 10.385 3.36L18.55 49.26zm137.632 38.544L241.731 100l37.917-12.678v-6.325l-37.102 11.13-86.364-11.13zM236.626 0l43.022 24.614v5.834L236.875 7.114l-80.693 23.334v-5.834z"/></svg>