<svg xmlns="http://www.w3.org/2000/svg" width="261" height="100" viewBox="0 0 261 100"><path d="M259.84 78.576c0 2.56.113 5.068.447 6.57h-7.631l-.505-2.726h-.164c-1.785 2.171-4.571 3.342-7.803 3.342-5.513 0-8.795-4.015-8.795-8.355 0-7.076 6.349-10.418 15.98-10.418v-.333c0-1.503-.778-3.567-4.953-3.567-2.785 0-5.74.947-7.52 2.067l-1.558-5.465c1.89-1.055 5.622-2.444 10.58-2.444 9.078 0 11.92 5.342 11.92 11.802v9.527zm-8.187-6.29c-4.455 0-7.91 1.052-7.91 4.285 0 2.176 1.446 3.233 3.34 3.233 2.061 0 3.841-1.393 4.4-3.124.113-.442.168-.951.168-1.44v-2.953zm-21.282 4.123c0 3.555.113 6.453.227 8.738h-7.356l-.39-3.843h-.163c-1.065 1.663-3.622 4.458-8.527 4.458-5.57 0-9.58-3.455-9.58-11.862V57.907h8.467V72.56c0 3.949 1.282 6.349 4.287 6.349 2.34 0 3.735-1.62 4.235-2.956.222-.5.333-1.106.333-1.835V57.907h8.465v18.502zm-40.773 4.224c0-3.055 2.064-5.177 5.018-5.177 2.893 0 4.9 2.062 4.953 5.177 0 2.956-2.005 5.131-5.067 5.131-2.84 0-4.904-2.175-4.904-5.13zm-25.14-64.106l-15.231.03L130.66 85.06h18.758l1.684-8.929 11.58-.031 1.745 8.989 18.889.031-18.858-68.593zm-10.834 43.76l2.914-15.17 2.81 15.196-5.724-.026zm-46.506 24.742l15.506-.022 18.518-68.518-18.76-.029-7.502 36.9-7.893-36.871-18.665-.029zM68.37 16.496h18.373v68.428H68.371zM24.58.069L34.864 54.34 44.827 0l24.775.069L44.958 100H25.162L0 .069z"/></svg>