<?xml version="1.0" encoding="UTF-8" standalone="no"?>
<!-- Created with Inkscape (http://www.inkscape.org/) -->

<svg
   xmlns:dc="http://purl.org/dc/elements/1.1/"
   xmlns:cc="http://creativecommons.org/ns#"
   xmlns:rdf="http://www.w3.org/1999/02/22-rdf-syntax-ns#"
   xmlns:svg="http://www.w3.org/2000/svg"
   xmlns="http://www.w3.org/2000/svg"
   xmlns:sodipodi="http://sodipodi.sourceforge.net/DTD/sodipodi-0.dtd"
   xmlns:inkscape="http://www.inkscape.org/namespaces/inkscape"
   width="188"
   height="100"
   viewBox="0 0 188 100"
   id="svg4571"
   version="1.1"
   inkscape:version="0.91 r13725"
   sodipodi:docname="logo-color.svg">
  <defs
     id="defs4573" />
  <sodipodi:namedview
     id="base"
     pagecolor="#ffffff"
     bordercolor="#666666"
     borderopacity="1.0"
     inkscape:pageopacity="0.0"
     inkscape:pageshadow="2"
     inkscape:zoom="3.959798"
     inkscape:cx="81.734086"
     inkscape:cy="42.760577"
     inkscape:document-units="px"
     inkscape:current-layer="layer1"
     showgrid="false"
     units="px"
     fit-margin-top="0"
     fit-margin-left="0"
     fit-margin-right="0"
     fit-margin-bottom="0"
     inkscape:window-width="1366"
     inkscape:window-height="745"
     inkscape:window-x="-8"
     inkscape:window-y="-8"
     inkscape:window-maximized="1" />
  <metadata
     id="metadata4576">
    <rdf:RDF>
      <cc:Work
         rdf:about="">
        <dc:format>image/svg+xml</dc:format>
        <dc:type
           rdf:resource="http://purl.org/dc/dcmitype/StillImage" />
        <dc:title></dc:title>
      </cc:Work>
    </rdf:RDF>
  </metadata>
  <g
     inkscape:label="Layer 1"
     inkscape:groupmode="layer"
     id="layer1"
     transform="translate(-209.51758,-622.36133)">
    <g
       id="g5162"
       transform="translate(0.660155,0)">
      <g
         id="g5"
         transform="translate(-533.73586,597.4472)">
        <g
           id="g7">
          <path
             inkscape:connector-curvature="0"
             id="path9"
             transform="translate(533.73586,-597.4472)"
             d="m 343.66406,681.60938 c -4.366,0 -7.57617,2.68601 -7.57617,6.16601 l 0,0.0801 c 0,3.559 2.28573,5.47114 7.92773,6.61914 5.343,1.066 6.6504,2.506 6.6504,5 l 0,0.0625 c 0,2.687 -2.4216,4.67383 -5.9336,4.67383 -3.469,0 -5.84136,-1.11224 -8.44336,-3.49024 l -1.13281,1.30664 c 2.823,2.507 5.71952,3.751 9.47852,3.75 4.528,0 7.77929,-2.61639 7.77929,-6.40039 l 0,-0.084 c 0,-3.414 -2.2787,-5.37166 -7.7207,-6.47266 -5.561,-1.129 -6.85352,-2.65258 -6.85352,-5.14258 l 0,-0.0488 c 0,-2.463 2.28114,-4.44532 5.74414,-4.44532 2.573,0 4.80186,0.73921 7.00586,2.65821 l 1.11328,-1.38282 c -2.37299,-1.907 -4.62206,-2.8496 -8.03906,-2.8496 z m 21.13477,0 c -4.356,0 -7.54102,2.68601 -7.54102,6.16601 l 0,0.0801 c 0,3.559 2.28125,5.47114 7.90625,6.61914 5.357,1.066 6.66992,2.506 6.66992,5 l 0,0.0625 c 0,2.687 -2.4307,4.67383 -5.9707,4.67383 -3.431,0 -5.83511,-1.11224 -8.41211,-3.49024 l -1.13672,1.30664 c 2.816,2.507 5.69613,3.751 9.45313,3.75 4.545,0 7.78515,-2.61639 7.78515,-6.40039 l 0,-0.084 c 0,-3.414 -2.27398,-5.37166 -7.70898,-6.47266 -5.583,-1.129 -6.84375,-2.65258 -6.84375,-5.14258 l 0,-0.0488 c 0,-2.463 2.28742,-4.44532 5.73242,-4.44532 2.588,0 4.80235,0.73921 7.02735,2.65821 l 1.08984,-1.38282 c -2.376,-1.907 -4.61978,-2.8496 -8.05078,-2.8496 z m -155.28125,0.32617 0,23.50195 16.88672,0 0,-1.61523 -15.14453,0 0,-9.42383 13.46093,0 0,-1.60742 -13.46093,0 0,-9.23829 14.96484,0 0,-1.61718 -16.70703,0 z m 22.50195,0 0,23.5039 7.81445,0 c 7.379,0 12.48633,-5.13014 12.48633,-11.74414 l 0,-0.0703 c 0,-6.61 -5.10733,-11.68945 -12.48633,-11.68945 l -7.81445,0 z m 26.48828,0 0,23.5039 1.74024,0 0,-23.5039 -1.74024,0 z m 8.96094,0 0,23.5039 1.74609,0 0,-8.76562 6.3418,0 c 4.894,0 9.1582,-2.54152 9.1582,-7.47852 l 0,-0.0664 c 0,-4.544 -3.53879,-7.19336 -8.71679,-7.19336 l -8.5293,0 z m 22.42773,0 0,23.5039 1.74805,0 0,-9.73633 7.68164,0 7.47656,9.73633 2.23243,0 -7.75586,-10.02734 c 3.951,-0.537 6.88476,-2.7998 6.88476,-6.7168 l 0,-0.0644 c 0,-1.681 -0.68278,-3.26714 -1.80078,-4.36914 -1.407,-1.415 -3.71865,-2.32617 -6.59766,-2.32617 l -9.86914,0 z m 24.28516,0 0,23.50195 16.875,0 0,-1.61523 -15.12695,0 0,-9.42383 13.44726,0 0,-1.60742 -13.44726,0 0,-9.23829 14.94726,0 0,-1.61718 -16.69531,0 z m 65.11914,0 0,23.50195 16.89649,0 0,-1.61523 -15.15625,0 0,-9.42383 13.48632,0 0,-1.60742 -13.48632,0 0,-9.23829 14.98437,0 0,-1.61718 -16.72461,0 z m -145.54101,1.61718 6.07421,0 c 6.538,0 10.67969,4.56254 10.67969,10.14454 l 0,0.0664 c 0,5.614 -4.14069,10.06055 -10.67969,10.06055 l -6.07421,0 0,-20.27149 z m 35.45703,0 6.64062,0 c 4.232,0 7.11524,1.95074 7.11524,5.67774 l 0,0.0625 c 0,3.498 -2.95041,5.77734 -7.31641,5.77734 l -6.43945,0 0,-11.51758 z m 22.42773,0 8.01953,0 c 4.265,0 6.75,1.99158 6.75,5.14258 l 0,0.0684 c 0,3.379 -2.9227,5.36914 -6.8457,5.36914 l 0,0.002 -7.92383,0 0,-10.58204 z"
             style="fill:#231f20" />
        </g>
        <path
           inkscape:connector-curvature="0"
           id="path27"
           transform="translate(533.73586,-597.4472)"
           d="m 278.35547,622.36133 0,49.01758 49,0 0,-49.01758 -49,0 z m 1.93555,1.91992 45.14843,0 0,13.76563 -31.03906,0 0,1.93359 31.03906,0 0,13.77734 -31.03906,0 0,1.92383 31.03906,0 0,13.76758 -45.14843,0 0,-45.16797 z"
           style="fill:#7ea6c0" />
        <g
           id="g29">
          <path
             inkscape:connector-curvature="0"
             id="path31"
             transform="translate(533.73586,-597.4472)"
             d="m 315.88086,714.94141 -3.36524,7.41992 0.84961,0 0.87696,-1.95508 4.01172,0 0.86718,1.95508 0.88672,0 -3.34375,-7.41992 -0.7832,0 z m -30.17774,0.0488 0,7.3711 0.79883,0 0,-5.94922 2.69532,3.93945 0.041,0 2.66602,-3.96094 0,5.97071 0.85156,0 0,-7.3711 -0.85156,0 -2.67969,4.01954 -2.68164,-4.01954 -0.83985,0 z m 9.1211,0 0,7.3711 5.37305,0 0,-0.75 -4.54297,0 0,-2.58008 4.02539,0 0,-0.75977 -4.02539,0 0,-2.50781 4.49804,0 0,-0.77344 -5.32617,0 -0.002,0 z m 7.05469,0 0,7.3711 2.55078,0 c 2.317,0 3.91015,-1.61278 3.91015,-3.67578 l 0,-0.0215 c 0,-2.079 -1.59315,-3.67383 -3.91015,-3.67383 l -2.55078,0 z m 8.29297,0 0,7.3711 0.82812,0 0,-7.3711 -0.82812,0 z m -7.4629,0.77344 1.72071,0 c 1.868,0 3.05664,1.28588 3.05664,2.92188 l 0,0.0195 c 0,1.618 -1.18964,2.88476 -3.05664,2.88476 l -1.72071,0 0,-5.82617 z m 13.55079,0.14649 1.66211,3.75976 -3.3418,0 1.67969,-3.75976 z"
             style="fill:#231f20" />
        </g>
      </g>
    </g>
  </g>
</svg>
