<?xml version="1.0" encoding="UTF-8" standalone="no"?>
<!-- Generator: Adobe Illustrator 15.0.2, SVG Export Plug-In . SVG Version: 6.00 Build 0)  -->

<svg
   xmlns:dc="http://purl.org/dc/elements/1.1/"
   xmlns:cc="http://creativecommons.org/ns#"
   xmlns:rdf="http://www.w3.org/1999/02/22-rdf-syntax-ns#"
   xmlns:svg="http://www.w3.org/2000/svg"
   xmlns="http://www.w3.org/2000/svg"
   xmlns:sodipodi="http://sodipodi.sourceforge.net/DTD/sodipodi-0.dtd"
   xmlns:inkscape="http://www.inkscape.org/namespaces/inkscape"
   version="1.1"
   id="Слой_1"
   x="0px"
   y="0px"
   width="340"
   height="255"
   viewBox="0 0 340.00001 255"
   enable-background="new 0 0 340.214 255.12"
   xml:space="preserve"
   inkscape:version="0.91 r13725"
   sodipodi:docname="beauty-box.svg"><metadata
   id="metadata27"><rdf:RDF><cc:Work
       rdf:about=""><dc:format>image/svg+xml</dc:format><dc:type
         rdf:resource="http://purl.org/dc/dcmitype/StillImage" /><dc:title></dc:title></cc:Work></rdf:RDF></metadata><defs
   id="defs25" /><sodipodi:namedview
   pagecolor="#ffffff"
   bordercolor="#666666"
   borderopacity="1"
   objecttolerance="10"
   gridtolerance="10"
   guidetolerance="10"
   inkscape:pageopacity="0"
   inkscape:pageshadow="2"
   inkscape:window-width="1366"
   inkscape:window-height="745"
   id="namedview23"
   showgrid="false"
   inkscape:zoom="0.92505489"
   inkscape:cx="170.10699"
   inkscape:cy="126.47898"
   inkscape:window-x="-8"
   inkscape:window-y="-8"
   inkscape:window-maximized="1"
   inkscape:current-layer="Слой_1" />

<g
   id="g5"
   transform="translate(-0.56726527,-0.11999512)">
	<path
   d="m 220.324,129.038 c -1.107,-0.765 -2.76,-1.148 -4.956,-1.148 l -8.219,0 0,9.398 8.219,0 c 2.196,0 3.849,-0.382 4.956,-1.148 1.109,-0.766 1.663,-1.944 1.663,-3.535 0,-1.612 -0.553,-2.8 -1.663,-3.567 z"
   id="path7"
   inkscape:connector-curvature="0"
   style="fill:#ffffff" />
	<polygon
   points="106.64,129.945 103.285,121.846 99.93,129.945 "
   id="polygon9"
   style="fill:#ffffff" />
	<path
   d="m 219.268,125.851 c 1.067,-0.776 1.602,-1.899 1.602,-3.371 0,-1.47 -0.534,-2.593 -1.602,-3.369 -1.068,-0.775 -2.579,-1.163 -4.533,-1.163 l -7.585,0 0,9.066 7.585,0 c 1.953,0 3.464,-0.389 4.533,-1.163 z"
   id="path11"
   inkscape:connector-curvature="0"
   style="fill:#ffffff" />
	<path
   d="m 188.929,135.55 c 0,0.318 0.123,0.57 0.373,0.755 0.249,0.186 0.59,0.278 1.024,0.278 0.424,0 0.799,-0.099 1.129,-0.294 0.327,-0.197 0.561,-0.484 0.697,-0.865 l 0,-0.874 -1.699,0 c -1.016,0 -1.524,0.333 -1.524,1 z"
   id="path13"
   inkscape:connector-curvature="0"
   style="fill:#ffffff" />
	<path
   d="m 325.184,114.624 c -19.329,-5.829 -28.699,-7.109 -48.248,-10.31 -19.559,-3.199 -36.705,-3.417 -56.776,-6.233 -7.095,0.842 -33.713,-1.374 -61.583,-3.168 -6.967,-0.447 -14.012,-0.899 -20.846,-1.337 -3.441,-0.208 -6.829,-0.413 -10.127,-0.611 -3.337,-0.169 -6.551,-0.383 -9.697,-0.527 -12.536,-0.648 -23.271,-1 -29.577,-1.32 -0.763,0.038 -1.521,0.075 -2.281,0.113 -6.902,-0.083 -14.593,0.181 -22.095,1.306 -7.472,1.022 -14.72,2.901 -20.487,5.329 -2.615,1.37 -5.225,2.964 -7.791,4.536 -1.283,0.773 -2.561,1.642 -3.83,2.494 l -3.77,2.56 c 2.779,0.798 5.331,1.637 7.539,2.558 -2.729,0.469 -5.462,0.972 -7.734,1.577 -2.271,0.626 -4.071,1.475 -4.943,2.451 -2.674,1.586 -4.182,2.922 -4.86,4.165 -0.68,1.214 -0.542,2.238 0.083,3.184 0.628,0.947 1.741,1.805 3.031,2.714 1.296,0.939 2.766,1.916 4.112,3.021 1.758,0.817 1.82,2.406 2.109,3.945 0.282,1.539 0.788,3.029 3.28,3.683 -1.625,0.355 -2.845,0.62 -4.066,0.887 -1.218,0.276 -2.456,0.495 -4.065,0.943 0.051,0.593 0.671,0.635 1.553,0.428 0.89,-0.173 2.048,-0.569 3.159,-0.911 2.226,-0.684 4.251,-1.125 3.527,1.034 -1.627,-0.046 -3.233,0.501 -4.823,1.144 -1.601,0.609 -3.135,1.479 -4.726,1.876 0.957,1.386 3.7,0.787 6.31,0.478 2.595,-0.36 4.979,-0.678 5.046,0.911 -0.765,0.567 -3.167,0.087 -5.388,-0.034 -2.23,-0.16 -4.202,0.223 -4.016,2.174 0.081,0.788 3.163,-0.043 4.744,-0.333 -2.337,0.855 -4.287,2.003 -5.808,3.044 -1.51,1.072 -2.578,2.087 -3.019,3.113 -0.452,1.006 -0.322,1.91 0.494,2.64 0.807,0.706 2.338,1.337 4.652,1.745 -2.88,0.655 -7.278,0.563 -10.099,2.081 0.01,0.02 0.028,0.032 0.042,0.052 1.525,-0.392 4.306,-0.513 5.671,-0.938 -1.689,0.518 -3.384,1.036 -5.076,1.555 0.435,0.426 0.901,0.831 1.379,1.231 1.386,0.023 2.735,-0.041 4.033,-0.438 -1.104,0.338 -2.211,0.677 -3.321,1.017 1.208,0.916 2.505,1.755 3.847,2.493 2.249,0.487 4.568,1.45 6.522,2.155 1.964,0.716 3.565,1.167 4.626,0.979 17.026,-2.693 34.86,-3.251 53.455,-3.258 0.037,-1.451 -0.962,-2.883 0.589,-3.587 2.466,-0.694 4.688,0.17 6.884,1.036 2.217,0.896 4.422,1.813 6.92,1.156 0.145,-0.761 0.295,-1.556 0.443,-2.338 3.852,1.118 7.812,2.533 11.916,3.854 7.668,0.02 15.444,-0.032 23.323,-0.202 -0.131,-0.87 -0.16,-1.666 0.643,-1.918 3.301,-0.375 7.731,0.781 12.361,1.453 0.702,-0.077 1.401,-0.152 2.092,-0.227 0.577,-0.461 0.793,-1.269 0.928,-1.764 2.099,0.269 3.953,0.635 5.662,1.066 11.667,-1.224 23.484,-2.475 35.655,-3.632 12.166,-1.111 24.686,-2.153 37.734,-2.875 5.672,-1.303 11.382,-2.606 16.705,-2.721 7.798,0.383 17.274,3.612 24.638,5.271 0.192,-4.189 5.009,-6.42 9.557,-8.714 4.545,-2.3 8.808,-4.588 7.798,-9.079 2.488,0.591 5.597,1.33 8.192,1.644 2.593,0.326 4.669,0.245 5.102,-0.869 0.855,-25.718 20.676,-19.639 24.261,-19.555 1.465,0.031 -5.079,-3.593 -1.565,-4.197 z m -257.09,22.075 c -1.441,0.996 -3.541,1.495 -6.301,1.495 l -10.939,0 0,-21.153 10.334,0 c 2.578,0 4.558,0.494 5.938,1.48 1.379,0.987 2.069,2.327 2.069,4.02 0,1.027 -0.247,1.944 -0.74,2.75 -0.494,0.805 -1.185,1.44 -2.071,1.903 1.21,0.384 2.156,1.023 2.842,1.92 0.685,0.896 1.027,1.999 1.027,3.309 0.002,1.854 -0.719,3.279 -2.159,4.276 z m 22.257,1.495 -16.38,0 0,-21.153 15.987,0 0,3.928 -11.12,0 0,4.592 9.821,0 0,3.809 -9.821,0 0,4.896 11.513,0 0,3.928 z m 19.704,0 -1.875,-4.532 -9.821,0 -1.873,4.532 -5.017,0 9.429,-21.153 4.835,0 9.458,21.153 -5.136,0 z m 25.868,-9.307 c 0,3.102 -0.843,5.49 -2.524,7.162 -1.683,1.673 -4.035,2.509 -7.057,2.509 -3.021,0 -5.374,-0.836 -7.056,-2.509 -1.682,-1.672 -2.524,-4.06 -2.524,-7.162 l 0,-11.846 4.896,0 0,11.665 c 0,3.788 1.571,5.682 4.714,5.682 1.532,0 2.7,-0.458 3.506,-1.376 0.806,-0.916 1.208,-2.353 1.208,-4.306 l 0,-11.665 4.836,0 0,11.846 z m 32.91,9.307 -4.897,0 0,-7.554 -7.494,-12.445 0,2.834 -6.77,0 0,17.164 -4.896,0 0,-17.163 -6.77,0 0,-3.989 17.74,0 0.695,0 4.502,0 5.651,9.398 5.651,-9.398 4.804,0 -8.218,13.66 0,7.493 z m 5.305,-0.388 c -0.296,0.297 -0.661,0.445 -1.096,0.445 -0.434,0 -0.799,-0.148 -1.095,-0.445 -0.298,-0.297 -0.445,-0.667 -0.445,-1.112 0,-0.456 0.147,-0.823 0.445,-1.104 0.296,-0.28 0.661,-0.421 1.095,-0.421 0.435,0 0.8,0.141 1.096,0.421 0.296,0.28 0.446,0.647 0.446,1.104 0,0.445 -0.15,0.815 -0.446,1.112 z m 10.628,0.317 -2.351,0 0,-1.017 c -0.328,0.371 -0.721,0.653 -1.176,0.851 -0.455,0.196 -0.948,0.294 -1.478,0.294 -1.122,0 -2.012,-0.322 -2.668,-0.97 -0.656,-0.646 -0.985,-1.604 -0.985,-2.875 l 0,-4.829 2.479,0 0,4.463 c 0,1.378 0.577,2.066 1.731,2.066 0.594,0 1.069,-0.194 1.43,-0.58 0.36,-0.387 0.54,-0.961 0.54,-1.724 l 0,-4.226 2.478,0 0,8.547 z m 9.865,0 -2.318,0 0,-1.064 c -0.467,0.795 -1.335,1.192 -2.605,1.192 -0.656,0 -1.227,-0.112 -1.708,-0.334 -0.481,-0.223 -0.85,-0.53 -1.104,-0.922 -0.254,-0.391 -0.381,-0.836 -0.381,-1.334 0,-0.794 0.299,-1.42 0.897,-1.875 0.598,-0.455 1.522,-0.683 2.772,-0.683 l 1.969,0 c 0,-0.54 -0.163,-0.956 -0.491,-1.247 -0.329,-0.291 -0.822,-0.438 -1.478,-0.438 -0.456,0 -0.902,0.072 -1.343,0.215 -0.439,0.144 -0.813,0.337 -1.12,0.58 l -0.889,-1.731 c 0.466,-0.328 1.023,-0.583 1.675,-0.763 0.652,-0.18 1.321,-0.271 2.011,-0.271 1.323,0 2.339,0.315 3.05,0.945 0.71,0.631 1.063,1.58 1.063,2.852 l 0,4.878 z m 26.449,-1.349 c -1.289,0.947 -3.213,1.42 -5.772,1.42 l -9.187,0 0,-21.153 8.583,0 c 2.236,0 3.988,0.463 5.258,1.39 1.27,0.926 1.904,2.255 1.904,3.989 0,1.27 -0.343,2.316 -1.027,3.142 -0.686,0.827 -1.632,1.411 -2.841,1.753 1.651,0.263 2.901,0.842 3.747,1.738 0.847,0.896 1.27,2.091 1.27,3.581 0,1.812 -0.646,3.194 -1.935,4.14 z m 25.99,-3.686 c -0.947,1.631 -2.258,2.912 -3.929,3.839 -1.674,0.926 -3.537,1.389 -5.59,1.389 -2.057,0 -3.915,-0.463 -5.576,-1.389 -1.663,-0.927 -2.968,-2.208 -3.915,-3.839 -0.946,-1.633 -1.421,-3.456 -1.421,-5.47 0,-2.015 0.475,-3.837 1.421,-5.47 0.947,-1.63 2.252,-2.911 3.915,-3.837 1.661,-0.926 3.52,-1.391 5.576,-1.391 2.053,0 3.916,0.464 5.59,1.391 1.671,0.927 2.981,2.207 3.929,3.837 0.945,1.633 1.419,3.456 1.419,5.47 0,2.014 -0.473,3.837 -1.419,5.47 z m 19.521,5.106 -7.614,-10.183 -7.646,10.183 -1.179,0 8.189,-10.939 -7.616,-10.214 1.211,0 7.069,9.458 7.043,-9.458 1.149,0 -7.617,10.214 8.221,10.939 -1.21,0 z"
   id="path15"
   inkscape:connector-curvature="0"
   style="fill:#ffffff" />
	<path
   d="m 63.334,125.08 c 0.624,-0.422 0.938,-1.047 0.938,-1.874 0,-0.827 -0.314,-1.445 -0.938,-1.859 -0.624,-0.412 -1.541,-0.619 -2.749,-0.619 l -4.867,0 0,4.986 4.867,0 c 1.208,0 2.125,-0.212 2.749,-0.634 z"
   id="path17"
   inkscape:connector-curvature="0"
   style="fill:#ffffff" />
	<path
   d="m 61.431,129.279 -5.712,0 0,5.229 5.712,0 c 1.289,0 2.261,-0.211 2.915,-0.636 0.655,-0.421 0.982,-1.076 0.982,-1.963 10e-4,-1.754 -1.299,-2.63 -3.897,-2.63 z"
   id="path19"
   inkscape:connector-curvature="0"
   style="fill:#ffffff" />
	<path
   d="m 242.596,119.126 c -1.51,-0.846 -3.192,-1.27 -5.044,-1.27 -1.855,0 -3.533,0.424 -5.033,1.27 -1.501,0.847 -2.686,2.015 -3.551,3.506 -0.867,1.49 -1.3,3.152 -1.3,4.985 0,1.834 0.433,3.496 1.3,4.987 0.865,1.491 2.05,2.659 3.551,3.505 1.5,0.847 3.178,1.27 5.033,1.27 1.852,0 3.534,-0.423 5.044,-1.27 1.513,-0.846 2.7,-2.014 3.566,-3.505 0.866,-1.491 1.3,-3.152 1.3,-4.987 0,-1.833 -0.434,-3.495 -1.3,-4.985 -0.866,-1.491 -2.054,-2.659 -3.566,-3.506 z"
   id="path21"
   inkscape:connector-curvature="0"
   style="fill:#ffffff" />
</g>
</svg>