<?xml version="1.0" encoding="UTF-8" standalone="no"?>
<!-- Generator: Adobe Illustrator 15.0.2, SVG Export Plug-In . SVG Version: 6.00 Build 0)  -->

<svg
   xmlns:dc="http://purl.org/dc/elements/1.1/"
   xmlns:cc="http://creativecommons.org/ns#"
   xmlns:rdf="http://www.w3.org/1999/02/22-rdf-syntax-ns#"
   xmlns:svg="http://www.w3.org/2000/svg"
   xmlns="http://www.w3.org/2000/svg"
   xmlns:sodipodi="http://sodipodi.sourceforge.net/DTD/sodipodi-0.dtd"
   xmlns:inkscape="http://www.inkscape.org/namespaces/inkscape"
   version="1.1"
   id="Слой_1"
   x="0px"
   y="0px"
   width="340"
   height="255"
   viewBox="0 0 340.00001 255"
   enable-background="new 0 0 340.214 255.12"
   xml:space="preserve"
   inkscape:version="0.91 r13725"
   sodipodi:docname="beauty.svg"><metadata
   id="metadata24"><rdf:RDF><cc:Work
       rdf:about=""><dc:format>image/svg+xml</dc:format><dc:type
         rdf:resource="http://purl.org/dc/dcmitype/StillImage" /><dc:title></dc:title></cc:Work></rdf:RDF></metadata><defs
   id="defs22" /><sodipodi:namedview
   pagecolor="#ffffff"
   bordercolor="#666666"
   borderopacity="1"
   objecttolerance="10"
   gridtolerance="10"
   guidetolerance="10"
   inkscape:pageopacity="0"
   inkscape:pageshadow="2"
   inkscape:window-width="1366"
   inkscape:window-height="745"
   id="namedview20"
   showgrid="false"
   inkscape:zoom="0.92505489"
   inkscape:cx="170.10699"
   inkscape:cy="126.47898"
   inkscape:window-x="-8"
   inkscape:window-y="-8"
   inkscape:window-maximized="1"
   inkscape:current-layer="Слой_1" />

<g
   id="XMLID_262_"
   transform="translate(0.5365,-0.11999512)">
	<path
   id="XMLID_286_"
   d="m 188.601,101.877 0,1.776 3.048,0 16.368,42.736 c -1.017,2.483 -2.03,4.358 -3.382,6.495 -0.908,1.333 -2.708,4.089 -5.084,4.089 -0.451,0 -2.03,-0.082 -2.03,-1.599 0,-0.98 0.674,-1.963 1.579,-3.294 0.681,-0.976 1.132,-1.69 1.132,-2.938 0,-2.937 -2.6,-5.161 -5.534,-5.161 -2.594,0 -6.996,1.779 -6.996,6.852 0,1.248 0.229,3.562 2.482,5.698 1.239,1.249 3.611,2.76 7.337,2.76 3.502,0 5.761,-1.157 8.017,-3.916 2.143,-2.674 4.066,-6.318 6.435,-13.53 l 9.934,-30.71 c 0.34,-1.072 1.357,-3.831 2.933,-5.61 0.679,-0.803 1.925,-1.871 3.727,-1.871 l 0.678,0 0,-1.776 -15.129,0 0,1.776 1.132,0 c 0.903,0 2.258,0.091 3.386,0.894 1.357,0.888 1.581,1.954 1.581,3.378 0,1.246 -0.224,2.229 -0.56,3.382 l -5.986,18.518 -10.161,-26.172 4.286,0 0,-1.776 -19.193,0 z"
   inkscape:connector-curvature="0"
   style="fill:#ffffff" />
	<path
   id="XMLID_285_"
   d="m 166.468,101.868 c -1.213,0 -2.932,0.01 -6.658,0.01 l -8.357,0 0,1.776 3.952,0 0,25.815 c 0,1.782 -0.452,3.388 -2.143,5.259 -1.132,1.242 -2.938,2.753 -4.968,2.753 -1.465,0 -4.173,-0.617 -4.173,-4.984 l 0,-30.628 c -3.116,0 -4.747,0.01 -6.666,0.01 l -8.352,0 0,1.776 3.951,0 0,30.178 c 0,1.512 0.452,3.474 1.47,4.805 1.921,2.585 4.628,2.851 6.661,2.851 6.21,0 11.401,-2.222 14.221,-6.675 l 0,5.964 14.899,0 0,-1.779 -3.836,0 0,-37.131 z"
   inkscape:connector-curvature="0"
   style="fill:#ffffff" />
	<path
   id="XMLID_282_"
   d="m 115.354,133.302 c -1.583,1.691 -4.066,4.09 -6.319,4.09 -3.949,0 -4.066,-3.739 -4.066,-7.209 0,-2.313 0.227,-5.426 2.483,-7.297 1.583,-1.245 4.97,-2.32 7.903,-2.494 l 0,12.91 z m 12.756,4.09 c -1.806,0 -1.688,-1.867 -1.688,-4.358 l 0,-24.396 c 0,-2.93 -1.582,-4.984 -4.406,-6.144 -2.933,-1.242 -7.454,-1.328 -9.481,-1.328 -6.774,0 -12.079,2.039 -14.562,4.358 -1.81,1.605 -2.827,4.007 -2.827,5.783 0,2.943 2.035,6.232 6.1,6.232 2.931,0 6.095,-1.868 6.095,-5.249 0,-1.6 -0.565,-2.851 -1.581,-3.831 -1.02,-1.065 -2.257,-1.776 -2.257,-3.119 0,-0.711 0.673,-2.399 5.531,-2.399 1.244,0 2.708,0.18 3.833,0.711 1.585,0.803 2.486,2.494 2.486,4.902 l 0,10.053 c -3.948,0.183 -14.108,0.98 -18.288,3.919 -2.484,1.779 -4.284,4.984 -4.284,8.811 0,2.677 0.899,5.253 2.819,7.216 2.032,2.042 4.628,2.933 7.902,2.933 2.938,0 5.418,-0.797 7.113,-1.779 1.581,-0.888 3.609,-2.67 4.965,-4.184 0.11,1.067 0.678,2.582 2.255,4.007 1.581,1.426 3.165,1.956 5.756,1.956 2.601,0 3.955,-0.711 5.534,-1.87 1.469,-1.063 2.177,-2.272 2.681,-3.537 0.002,0.001 -2.3,1.313 -3.696,1.313 z"
   inkscape:connector-curvature="0"
   style="fill:#ffffff" />
	<g
   id="XMLID_275_">
		<g
   id="g10">
			<path
   d="m 183.9,132.982 0,-29.329 6.662,0 0,-1.776 -6.662,0 0,-15.403 -11.062,3.299 0,12.104 -4.063,0 0,1.776 4.063,0 0,29.379 c 0,2.491 0.34,5.073 2.483,6.764 1.734,1.367 3.98,1.664 5.758,1.686 l -0.002,0.005 c 0.029,0 0.055,-0.003 0.083,-0.003 0.048,0.001 0.1,0.003 0.146,0.003 l 0.002,-0.008 c 2.438,-0.044 3.767,-0.739 5.3,-1.862 1.471,-1.063 2.181,-2.272 2.677,-3.537 0,0 -2.293,1.312 -3.697,1.312 -1.799,0 -1.692,-1.913 -1.691,-4.397 l 0.003,-0.013 z"
   id="path12"
   inkscape:connector-curvature="0"
   style="fill:#ffffff" />
		</g>
	</g>
	<path
   id="XMLID_272_"
   d="m 70.838,118.081 0,-7.661 c 0,-3.83 0.682,-7.478 5.082,-7.478 1.919,0 4.065,1.068 4.852,4.627 0.341,1.603 0.565,5.165 0.565,6.413 l 0,4.099 -10.499,0 z m 19.306,12.989 c -1.244,2.231 -2.938,4.273 -4.858,5.793 -1.125,0.886 -3.836,2.845 -7.22,2.845 -3.165,0 -5.082,-1.782 -5.984,-3.47 -0.338,-0.626 -1.244,-2.494 -1.244,-8.284 l 0,-8.1 21.562,0 c 0,-3.199 -0.792,-8.009 -3.84,-12.105 -3.383,-4.544 -8.238,-6.583 -12.53,-6.583 -3.276,0 -7.677,1.154 -11.623,5.423 -3.502,3.739 -5.76,8.726 -5.76,14.687 0,4.722 1.694,10.328 5.76,14.513 3.837,4.008 8.576,5.698 12.868,5.698 4.965,0 7.901,-2.048 9.82,-3.913 1.694,-1.693 3.496,-4.188 4.513,-5.878 l -1.464,-0.626 z"
   inkscape:connector-curvature="0"
   style="fill:#ffffff" />
	<path
   id="XMLID_269_"
   d="m 44.614,125.552 c 0,1.34 -0.226,8.015 -1.808,10.949 -1.13,2.136 -2.93,2.85 -4.175,2.85 -5.757,0 -6.659,-7.654 -6.996,-11.481 -0.226,-2.667 -0.452,-8.545 -0.452,-11.128 0,-11.4 4.289,-12.907 7.337,-12.907 1.235,0 3.499,0.714 4.739,3.647 0.336,0.891 1.354,3.385 1.354,8.281 l 0,9.789 z M 31.184,86.508 c -1.688,0 -4.178,0 -6.659,0 l -8.357,0 0,1.773 3.952,0 0,50.716 -3.84,0 0,1.779 14.905,0 0,-5.433 c 0.673,1.871 1.801,3.116 2.592,3.827 1.918,1.868 3.728,2.316 6.666,2.316 1.691,0 9.257,-0.266 13.996,-9.168 1.918,-3.654 2.372,-7.829 2.372,-11.043 0,-4.621 -0.792,-9.608 -4.972,-14.418 -4.064,-4.63 -8.467,-5.692 -11.852,-5.692 -4.513,0 -7.785,2.579 -8.802,5.518 l 0,-20.175 z"
   inkscape:connector-curvature="0"
   style="fill:#ffffff" />
	<g
   id="XMLID_264_">
		<path
   id="XMLID_268_"
   d="m 276.115,101.934 c -1.276,0 -3.074,0.014 -6.981,0.014 l -8.762,0 0,1.868 4.138,0 0,27.073 c 0,1.882 -0.475,3.555 -2.241,5.513 -1.195,1.312 -3.092,2.9 -5.211,2.9 -1.533,0 -4.377,-0.656 -4.377,-5.235 l 0,-32.132 c -3.272,0 -4.977,0.014 -6.998,0.014 l -8.769,0 0,1.868 4.154,0 0,31.652 c 0,1.589 0.478,3.646 1.533,5.047 2.018,2.704 4.861,2.983 6.995,2.983 6.506,0 11.954,-2.328 14.913,-6.991 l 0,6.252 15.645,0 0,-1.868 -4.039,0 0,-38.958 z"
   inkscape:connector-curvature="0"
   style="fill:#ffffff" />
		<path
   id="XMLID_265_"
   d="m 305.497,134.917 c -1.654,1.757 -4.269,4.279 -6.642,4.279 -4.13,0 -4.256,-3.917 -4.256,-7.562 0,-2.419 0.24,-5.695 2.614,-7.647 1.642,-1.31 5.203,-2.439 8.283,-2.621 l 0,13.551 z m 13.381,4.279 c -1.89,0 -1.782,-1.958 -1.782,-4.558 l 0,-25.603 c 0,-3.08 -1.648,-5.221 -4.617,-6.433 -3.081,-1.312 -7.821,-1.409 -9.939,-1.409 -7.113,0 -12.675,2.147 -15.289,4.586 -1.893,1.667 -2.959,4.196 -2.959,6.057 0,3.088 2.14,6.545 6.397,6.545 3.089,0 6.403,-1.952 6.403,-5.513 0,-1.68 -0.604,-2.991 -1.666,-4.015 -1.063,-1.122 -2.366,-1.861 -2.366,-3.269 0,-0.732 0.718,-2.523 5.796,-2.523 1.31,0 2.851,0.201 4.039,0.752 1.648,0.83 2.603,2.614 2.603,5.137 l 0,10.553 c -4.144,0.181 -14.809,1.031 -19.191,4.105 -2.6,1.868 -4.496,5.221 -4.496,9.235 0,2.809 0.948,5.527 2.959,7.563 2.143,2.154 4.854,3.089 8.291,3.089 3.085,0 5.681,-0.844 7.462,-1.875 1.655,-0.928 3.795,-2.795 5.217,-4.385 0.115,1.136 0.708,2.726 2.349,4.203 1.674,1.491 3.328,2.057 6.058,2.057 2.718,0 4.144,-0.739 5.795,-1.945 1.541,-1.144 2.277,-2.404 2.817,-3.722 -0.002,0.003 -2.425,1.368 -3.881,1.368 z"
   inkscape:connector-curvature="0"
   style="fill:#ffffff" />
	</g>
	<path
   id="XMLID_263_"
   d="m 231.645,138.032 c 0,2.266 -1.84,4.1 -4.104,4.1 -2.262,0 -4.094,-1.834 -4.094,-4.1 0,-2.266 1.832,-4.092 4.094,-4.092 2.264,0 4.104,1.827 4.104,4.092 z"
   inkscape:connector-curvature="0"
   style="fill:#ffffff" />
</g>
</svg>