<?xml version="1.0" encoding="UTF-8" standalone="no"?>
<!-- Generator: Adobe Illustrator 15.0.2, SVG Export Plug-In . SVG Version: 6.00 Build 0)  -->

<svg
   xmlns:dc="http://purl.org/dc/elements/1.1/"
   xmlns:cc="http://creativecommons.org/ns#"
   xmlns:rdf="http://www.w3.org/1999/02/22-rdf-syntax-ns#"
   xmlns:svg="http://www.w3.org/2000/svg"
   xmlns="http://www.w3.org/2000/svg"
   xmlns:sodipodi="http://sodipodi.sourceforge.net/DTD/sodipodi-0.dtd"
   xmlns:inkscape="http://www.inkscape.org/namespaces/inkscape"
   version="1.1"
   id="Слой_1"
   x="0px"
   y="0px"
   width="340"
   height="255"
   viewBox="0 0 340.00001 255"
   enable-background="new 0 0 340.214 255.12"
   xml:space="preserve"
   inkscape:version="0.91 r13725"
   sodipodi:docname="dacha.svg"><metadata
   id="metadata33"><rdf:RDF><cc:Work
       rdf:about=""><dc:format>image/svg+xml</dc:format><dc:type
         rdf:resource="http://purl.org/dc/dcmitype/StillImage" /><dc:title></dc:title></cc:Work></rdf:RDF></metadata><defs
   id="defs31" /><sodipodi:namedview
   pagecolor="#ffffff"
   bordercolor="#666666"
   borderopacity="1"
   objecttolerance="10"
   gridtolerance="10"
   guidetolerance="10"
   inkscape:pageopacity="0"
   inkscape:pageshadow="2"
   inkscape:window-width="1366"
   inkscape:window-height="745"
   id="namedview29"
   showgrid="false"
   inkscape:zoom="0.92505489"
   inkscape:cx="170.10699"
   inkscape:cy="126.47898"
   inkscape:window-x="-8"
   inkscape:window-y="-8"
   inkscape:window-maximized="1"
   inkscape:current-layer="Слой_1" />

<g
   id="g5"
   transform="translate(-0.643,-0.11999512)">
	<path
   d="m 75.255,143.266 0,-42.396 -9.251,0.04 c -5.425,0.227 -8.131,3.839 -8.464,10.386 l 0,22.039 c 0,5.232 -1.796,8.05 -3.83,9.932 l 21.545,0 z m -54.561,-1.338 c 5.743,-1.349 7.992,-6.85 7.992,-13.015 L 28.629,106.85 C 30.975,84.576 43.704,74.902 62.679,75.633 l 43.824,-0.032 0,66.326 4.786,0 0,40.693 -30.887,0 0,-13.056 -32.651,0 0,13.056 -30.785,0 0,-40.693 3.728,0 z"
   id="path7"
   inkscape:connector-curvature="0"
   style="fill:#ffffff" />
	<path
   d="m 297.783,139.401 0,3.789 c 0,7.841 -4.039,10.976 -8.078,10.976 -4.04,0 -6.809,-2.744 -6.809,-6.533 0,-8.756 9.23,-8.231 13.385,-8.231 l 1.502,0 z m 0,29.794 26.537,0 0,-43.645 c 0,-20.516 -17.078,-26.395 -33.232,-26.395 -8.537,0 -19.383,1.438 -28.499,4.181 l 0,17.901 c 10.731,-5.097 19.133,-5.359 19.595,-5.359 5.885,0 15.6,1.177 15.6,8.364 l 0,2.09 -4.039,0 c -15.23,0 -38.541,0.393 -38.541,23.914 0,11.369 6.692,20.515 21.118,20.515 6.46,0 15.229,-1.176 20.999,-9.93 l 0.463,0 0,8.364 z m -74.592,-68.471 0,27.176 c -1.389,0.918 -3.231,1.569 -4.731,1.569 -4.386,0 -4.501,-3.528 -4.501,-4.833 l 0,-23.912 -29.077,0 0,26.002 c 0,16.334 11.423,21.038 22.152,21.038 5.309,0 11.309,-1.045 16.157,-2.613 l 0,24.045 29.075,0 0,-68.472 -29.075,0 z m -67.533,38.677 0,3.789 c 0,7.841 -4.039,10.976 -8.078,10.976 -4.038,0 -6.808,-2.744 -6.808,-6.533 0,-8.756 9.232,-8.231 13.385,-8.231 l 1.501,0 z m 0,29.794 26.538,0 0,-43.645 c 0,-20.516 -17.076,-26.395 -33.23,-26.395 -8.539,0 -19.385,1.438 -28.5,4.181 l 0,17.901 c 10.73,-5.097 19.132,-5.359 19.594,-5.359 5.885,0 15.599,1.177 15.599,8.364 l 0,2.09 -4.039,0 c -15.232,0 -38.539,0.393 -38.539,23.914 0,11.369 6.691,20.515 21.115,20.515 6.462,0 15.231,-1.176 21.001,-9.93 l 0.462,0 0,8.364 z"
   id="path9"
   inkscape:connector-curvature="0"
   style="fill:#ffffff" />
	<g
   id="g11">
		<g
   id="g13">
			<path
   d="m 123.246,95.023 0,-15.622 -3.474,0 -0.107,2.774 c -0.055,1.455 -0.216,5.037 -0.621,7.757 -0.188,1.319 -0.511,2.694 -1.455,3.69 -0.996,1.05 -2.343,1.319 -3.42,1.481 l -1.185,0.189 -0.7,-2.721 0.458,-0.134 c 0.485,-0.135 0.862,-0.216 1.401,-0.62 0.323,-0.242 0.809,-0.673 1.104,-1.455 0.135,-0.323 0.376,-1.077 0.592,-3.124 0.296,-2.693 0.431,-5.98 0.458,-7.623 l 0.054,-3.313 10.72,0 0,18.72 -3.825,0 z"
   id="path15"
   inkscape:connector-curvature="0"
   style="fill:#ffffff" />
			<path
   d="m 133.11,76.303 0,7.272 3.016,0 c 0.161,-1.588 0.754,-3.717 1.994,-5.171 0.889,-1.05 2.612,-2.424 5.683,-2.424 2.532,0 4.336,0.943 5.683,2.506 1.455,1.697 2.263,4.202 2.263,7.164 0,3.933 -1.401,6.141 -2.263,7.165 -1.347,1.589 -3.151,2.532 -5.683,2.532 -3.098,0 -5.01,-1.427 -6.168,-3.098 -1.05,-1.561 -1.616,-3.689 -1.616,-5.575 l -2.909,0 0,8.35 -3.745,0 0,-18.72 3.745,0 z m 7.73,4.552 c -0.296,0.673 -0.727,1.858 -0.727,4.794 0,2.936 0.431,4.121 0.727,4.794 0.35,0.781 1.05,2.021 2.963,2.021 1.912,0 2.612,-1.24 2.963,-2.021 0.296,-0.673 0.727,-1.858 0.727,-4.794 0,-2.936 -0.431,-4.121 -0.727,-4.794 -0.323,-0.728 -1.051,-1.993 -2.963,-1.993 -1.912,0 -2.64,1.266 -2.963,1.993 z"
   id="path17"
   inkscape:connector-curvature="0"
   style="fill:#ffffff" />
			<path
   d="m 165.1,76.303 -0.485,3.071 -7.542,0 0,4.229 2.936,0 c 2.479,0 3.852,0.755 4.553,1.32 0.862,0.701 1.859,2.074 1.859,4.336 0,2.531 -1.105,3.933 -2.21,4.686 -1.131,0.782 -2.693,1.078 -4.04,1.078 l -6.922,0 0,-18.72 11.851,0 z m -5.496,15.649 c 0.458,0 1.401,-0.053 2.021,-0.834 0.215,-0.269 0.538,-0.834 0.538,-1.858 0,-0.7 -0.16,-1.563 -0.969,-2.128 -0.457,-0.323 -1.131,-0.458 -1.723,-0.458 l -2.397,0 0,5.278 2.53,0 z"
   id="path19"
   inkscape:connector-curvature="0"
   style="fill:#ffffff" />
			<path
   d="m 177.412,95.023 0,-9.266 c 0,-0.942 0.08,-2.774 0.161,-3.959 -0.458,1.508 -0.834,2.235 -1.293,3.259 l -4.552,9.966 -3.958,0 0,-18.72 3.824,0 0,9.266 c 0,0.943 -0.081,2.774 -0.162,3.959 0.458,-1.508 0.835,-2.235 1.293,-3.258 l 4.552,-9.967 3.96,0 0,18.72 -3.825,0 z"
   id="path21"
   inkscape:connector-curvature="0"
   style="fill:#ffffff" />
			<path
   d="m 198.562,95.023 -0.701,-10.208 c -0.081,-1.05 -0.053,-0.216 -0.135,-3.125 -0.215,1.185 -0.43,1.966 -0.699,2.883 l -2.964,10.45 -3.205,0 -2.666,-10.047 c -0.324,-1.185 -0.539,-2.021 -0.755,-3.313 -0.081,3.205 -0.054,2.29 -0.134,3.367 l -0.646,9.994 -3.744,0 1.75,-18.72 4.821,0 2.451,9.508 c 0.216,0.808 0.351,1.293 0.432,1.75 0.054,0.269 0.079,0.511 0.136,0.781 0.026,0.135 0.052,0.297 0.079,0.431 0.054,-0.269 0.216,-1.347 0.673,-3.044 l 2.533,-9.427 4.794,0 1.67,18.72 -3.69,0 z"
   id="path23"
   inkscape:connector-curvature="0"
   style="fill:#ffffff" />
			<path
   d="m 214.67,95.023 -1.319,-4.444 -5.494,0 -1.32,4.444 -3.933,0 6.141,-18.774 4.068,0 5.897,18.774 -4.04,0 z m -2.235,-7.542 c -0.592,-1.913 -0.808,-2.855 -1.023,-3.798 -0.242,-0.996 -0.403,-1.508 -0.754,-3.285 -0.27,1.13 -0.673,2.747 -0.89,3.582 -0.483,1.805 -0.646,2.451 -0.995,3.501 l 3.662,0 z"
   id="path25"
   inkscape:connector-curvature="0"
   style="fill:#ffffff" />
			<path
   d="m 233.423,95.023 -3.825,0 0,-7.623 -1.59,0 c -0.728,0 -1.399,0.297 -1.804,0.673 -0.378,0.35 -0.755,1.078 -0.889,1.671 l -0.431,1.913 c -0.189,0.861 -0.378,1.723 -0.89,2.316 -0.673,0.834 -1.696,1.024 -2.262,1.078 l -2.129,0.243 -0.7,-2.613 0.566,-0.162 c 0.296,-0.08 0.888,-0.323 1.077,-0.431 0.565,-0.323 0.729,-0.835 0.888,-1.374 l 0.621,-2.127 c 0.215,-0.727 0.593,-1.455 1.076,-1.912 0.403,-0.377 1.024,-0.701 1.509,-0.862 -1.051,-0.162 -2.102,-0.7 -2.747,-1.427 -0.728,-0.809 -1.078,-1.994 -1.078,-3.178 0,-1.374 0.619,-2.802 1.778,-3.717 1.345,-1.078 2.991,-1.186 4.392,-1.186 l 6.437,0 0,18.718 z m -5.9,-15.702 c -0.565,0 -1.185,0.026 -1.697,0.322 -0.404,0.243 -1.05,0.809 -1.05,2.074 0,0.62 0.135,1.401 0.567,1.913 0.59,0.728 1.479,0.754 1.91,0.754 l 2.344,0 0,-5.063 -2.074,0 z"
   id="path27"
   inkscape:connector-curvature="0"
   style="fill:#ffffff" />
		</g>
	</g>
</g>
</svg>