<?xml version="1.0" encoding="UTF-8" standalone="no"?>
<!-- Generator: Adobe Illustrator 15.0.2, SVG Export Plug-In . SVG Version: 6.00 Build 0)  -->

<svg
   xmlns:dc="http://purl.org/dc/elements/1.1/"
   xmlns:cc="http://creativecommons.org/ns#"
   xmlns:rdf="http://www.w3.org/1999/02/22-rdf-syntax-ns#"
   xmlns:svg="http://www.w3.org/2000/svg"
   xmlns="http://www.w3.org/2000/svg"
   xmlns:sodipodi="http://sodipodi.sourceforge.net/DTD/sodipodi-0.dtd"
   xmlns:inkscape="http://www.inkscape.org/namespaces/inkscape"
   version="1.1"
   id="Слой_1"
   x="0px"
   y="0px"
   width="340"
   height="255"
   viewBox="0 0 340.00001 255"
   enable-background="new 0 0 340.214 255.12"
   xml:space="preserve"
   inkscape:version="0.91 r13725"
   sodipodi:docname="destinations.svg"><metadata
   id="metadata53"><rdf:RDF><cc:Work
       rdf:about=""><dc:format>image/svg+xml</dc:format><dc:type
         rdf:resource="http://purl.org/dc/dcmitype/StillImage" /><dc:title></dc:title></cc:Work></rdf:RDF></metadata><defs
   id="defs51" /><sodipodi:namedview
   pagecolor="#ffffff"
   bordercolor="#666666"
   borderopacity="1"
   objecttolerance="10"
   gridtolerance="10"
   guidetolerance="10"
   inkscape:pageopacity="0"
   inkscape:pageshadow="2"
   inkscape:window-width="1366"
   inkscape:window-height="745"
   id="namedview49"
   showgrid="false"
   inkscape:zoom="0.92505489"
   inkscape:cx="170.10699"
   inkscape:cy="126.47898"
   inkscape:window-x="-8"
   inkscape:window-y="-8"
   inkscape:window-maximized="1"
   inkscape:current-layer="Слой_1" />

<g
   id="g5"
   transform="translate(1.0725,-0.11999512)">
	<g
   id="g7">
		<g
   id="g9">
			<path
   d="m 72.356,115.754 c -1.085,-6.275 -2.998,-8.795 -9.093,-8.795 l -7.802,0 0,17.744 4.959,0 c 4.703,0 6.459,-2.006 6.924,-5.554 l 0.153,0 0,11.263 -0.153,0 c -0.465,-3.55 -2.221,-5.555 -6.924,-5.555 l -4.959,0 0,17.795 8.318,0 c 6.096,0 8.007,-2.521 9.092,-8.794 l 0.104,0 0,8.948 -25.004,0 0,-0.154 3.256,0 0,-35.693 -3.256,0 0,-0.154 24.487,0 0,8.949 -0.102,0 z"
   id="path11"
   inkscape:connector-curvature="0"
   style="fill:#ffffff" />
			<path
   d="m 97.41,117.04 0.155,0 0,-10.749 -0.155,0 c 0,1.132 -0.671,1.903 -1.808,1.903 -2.532,0 -4.082,-1.903 -8.524,-1.903 -6.923,0 -11.365,3.909 -11.365,9.977 0,12.293 19.372,7.973 19.372,19.288 0,4.27 -2.687,7.561 -7.853,7.561 -0.28,0 -0.55,-0.021 -0.822,-0.04 l 0,0.219 c 0.266,0.015 0.534,0.025 0.822,0.025 6.252,0 11.314,-4.268 11.314,-10.285 0,-12.24 -19.424,-7.87 -19.424,-19.235 0,-3.96 2.789,-7.303 7.955,-7.303 6.407,-0.001 9.042,4.422 10.333,10.542"
   id="path13"
   inkscape:connector-curvature="0"
   style="fill:#ffffff" />
			<path
   d="m 128.93,115.651 c -0.516,-6.325 -3.151,-8.691 -9.558,-8.691 l -1.962,0 0,35.692 3.203,0 0,0.154 -10.694,0 0,-0.154 3.254,0 0,-35.692 -1.963,0 c -6.406,0 -9.041,2.366 -9.557,8.691 l -0.155,0 0,-10.75 0.155,0 c 0,1.132 0.673,1.903 1.809,1.903 l 23.662,0 c 1.136,0 1.807,-0.771 1.807,-1.903 l 0.155,0 0,10.75 -0.156,0 z"
   id="path15"
   inkscape:connector-curvature="0"
   style="fill:#ffffff" />
		</g>
		<polygon
   points="134.151,106.96 130.897,106.96 130.897,106.805 141.591,106.805 141.591,106.96 138.388,106.96 138.388,142.652 141.591,142.652 141.591,142.807 130.897,142.807 130.897,142.652 134.151,142.652 "
   id="polygon17"
   style="fill:#ffffff" />
		<g
   id="g19">
			<path
   d="m 174.607,106.96 c -1.861,0 -3.255,1.851 -3.255,6.429 l 0,29.418 -3.617,0 -21.077,-35.487 0,28.904 c 0,4.783 1.807,6.429 3.771,6.429 l 0,0.154 -7.232,0 0,-0.154 c 1.859,0 3.254,-1.853 3.254,-6.429 l 0,-29.264 -3.254,0 0,-0.155 7.956,0 19.993,34.098 0,-27.515 c 0,-4.783 -1.808,-6.429 -3.771,-6.429 l 0,-0.155 7.232,0 0,0.156 z"
   id="path21"
   inkscape:connector-curvature="0"
   style="fill:#ffffff" />
		</g>
		<path
   d="m 187.509,127.224 -12.657,0 6.148,-16.716 6.509,16.716 z m 13.483,15.583 0,-0.154 -2.892,0 -14.051,-35.847 -1.914,0 -7.528,20.582 0.191,0 0.003,-0.009 12.76,0 5.993,15.274 -3.409,0 0,0.154 10.847,0 z"
   id="path23"
   inkscape:connector-curvature="0"
   style="fill:#ffffff" />
		<g
   id="g25">
			<path
   d="m 221.458,115.651 c -0.517,-6.325 -3.149,-8.691 -9.558,-8.691 l -1.962,0 0,35.692 3.203,0 0,0.154 -10.694,0 0,-0.154 3.253,0 0,-35.692 -1.962,0 c -6.405,0 -9.041,2.366 -9.556,8.691 l -0.156,0 0,-10.75 0.156,0 c 0,1.132 0.671,1.903 1.807,1.903 l 23.661,0 c 1.136,0 1.808,-0.771 1.808,-1.903 l 0.156,0 0,10.75 -0.156,0 z"
   id="path27"
   inkscape:connector-curvature="0"
   style="fill:#ffffff" />
		</g>
		<polygon
   points="227.822,106.96 224.566,106.96 224.566,106.805 235.26,106.805 235.26,106.96 232.058,106.96 232.058,142.652 235.26,142.652 235.26,142.807 224.566,142.807 224.566,142.652 227.822,142.652 "
   id="polygon29"
   style="fill:#ffffff" />
		<g
   id="g31">
			<path
   d="m 241.512,124.703 c 0,9.721 3.772,18.465 11.935,18.465 8.628,0 11.935,-8.229 11.935,-18.259 0,-9.72 -3.772,-18.413 -11.935,-18.413 -8.63,0 -11.935,8.178 -11.935,18.207 m 28.57,-0.103 c 0,10.646 -6.82,18.772 -16.636,18.772 -10.797,0 -16.635,-7.816 -16.635,-18.359 0,-10.647 6.819,-18.722 16.635,-18.722 10.797,0 16.636,7.766 16.636,18.309"
   id="path33"
   inkscape:connector-curvature="0"
   style="fill:#ffffff" />
			<path
   d="m 302.348,106.96 c -1.858,0 -3.255,1.851 -3.255,6.429 l 0,29.418 -3.616,0 -21.077,-35.487 0,28.904 c 0,4.783 1.808,6.429 3.771,6.429 l 0,0.154 -7.233,0 0,-0.154 c 1.86,0 3.255,-1.853 3.255,-6.429 l 0,-29.264 -3.255,0 0,-0.155 7.957,0 19.991,34.098 0,-27.515 c 0,-4.783 -1.807,-6.429 -3.771,-6.429 l 0,-0.155 7.232,0 0,0.156 z"
   id="path35"
   inkscape:connector-curvature="0"
   style="fill:#ffffff" />
			<path
   d="m 324.941,117.04 0.154,0 0,-10.749 -0.154,0 c 0,1.132 -0.671,1.903 -1.808,1.903 -2.531,0 -4.082,-1.903 -8.524,-1.903 -6.922,0 -11.364,3.909 -11.364,9.977 0,12.293 19.372,7.973 19.372,19.288 0,4.27 -2.687,7.561 -7.854,7.561 -0.338,0 -0.667,-0.021 -0.994,-0.048 l 0,0.222 c 0.316,0.02 0.646,0.03 0.994,0.03 6.253,0 11.314,-4.268 11.314,-10.285 0,-12.24 -19.424,-7.87 -19.424,-19.235 0,-3.96 2.789,-7.303 7.955,-7.303 6.409,-0.001 9.042,4.422 10.333,10.542"
   id="path37"
   inkscape:connector-curvature="0"
   style="fill:#ffffff" />
		</g>
		<g
   id="g39">
			<path
   d="m 20.546,142.625 5.985,0 c 10.098,0 15.239,-9.027 15.239,-20.767 0,-11.377 -5.745,-21.009 -15.298,-21.009 l -5.926,0 0,41.776 z m 6.469,-41.956 c 12.638,0 20.256,8.487 20.256,20.827 0,12.461 -8.768,21.311 -20.256,21.311 l -15.237,0 0,-0.182 3.809,0 0,-41.775 -3.809,0 0,-0.181 15.237,0 z"
   id="path41"
   inkscape:connector-curvature="0"
   style="fill:#ffffff" />
		</g>
	</g>
	<g
   id="g43"
   style="opacity:0.4">
		<path
   d="m 246.381,121.779 0,-0.248 c 0.352,0.024 0.88,0.036 1.586,0.036 0.667,0 1.193,-0.012 1.581,-0.036 l 0,0.248 c -0.227,0.008 -0.4,0.025 -0.52,0.051 -0.12,0.027 -0.22,0.08 -0.301,0.161 -0.082,0.081 -0.133,0.184 -0.155,0.312 -0.022,0.126 -0.033,0.307 -0.033,0.541 l 0,4.099 c 0,0.318 0.008,0.593 0.023,0.825 0.017,0.232 0.047,0.475 0.092,0.729 0.044,0.254 0.111,0.466 0.202,0.638 0.091,0.172 0.206,0.329 0.346,0.475 0.139,0.145 0.317,0.253 0.535,0.323 0.218,0.07 0.47,0.105 0.757,0.105 0.456,0 0.842,-0.078 1.159,-0.235 0.316,-0.157 0.562,-0.385 0.735,-0.683 0.173,-0.299 0.298,-0.632 0.372,-1.001 0.075,-0.369 0.112,-0.797 0.112,-1.285 l 0,-3.863 c 0,-0.447 -0.081,-0.752 -0.243,-0.916 -0.162,-0.164 -0.458,-0.255 -0.888,-0.275 l 0,-0.248 c 0.299,0.024 0.722,0.036 1.268,0.036 0.496,0 0.88,-0.012 1.151,-0.036 l 0,0.248 c -0.414,0.016 -0.685,0.103 -0.813,0.259 -0.128,0.158 -0.191,0.468 -0.191,0.931 l 0,3.724 c 0,1.172 -0.169,2.047 -0.508,2.624 -0.209,0.354 -0.514,0.636 -0.915,0.843 -0.4,0.208 -0.851,0.312 -1.35,0.312 -0.905,0 -1.598,-0.224 -2.077,-0.671 -0.362,-0.339 -0.605,-0.722 -0.73,-1.148 -0.125,-0.427 -0.187,-1.068 -0.187,-1.922 l 0,-3.887 c 0,-0.233 -0.012,-0.414 -0.034,-0.541 -0.021,-0.127 -0.073,-0.231 -0.155,-0.312 -0.081,-0.081 -0.181,-0.134 -0.301,-0.161 -0.118,-0.027 -0.292,-0.044 -0.518,-0.052 z"
   id="path45"
   inkscape:connector-curvature="0"
   style="fill:#ffffff" />
		<path
   d="m 254.069,130.297 0,-0.248 c 0.412,-0.093 0.735,-0.451 0.974,-1.077 l 2.914,-7.501 0.199,0 3.017,7.786 c 0.201,0.512 0.487,0.775 0.858,0.792 l 0,0.248 c -0.339,-0.024 -0.782,-0.037 -1.33,-0.037 -0.705,0 -1.233,0.013 -1.584,0.037 l 0,-0.248 c 0.314,-0.013 0.539,-0.051 0.674,-0.115 0.135,-0.064 0.203,-0.18 0.203,-0.345 0,-0.141 -0.049,-0.334 -0.146,-0.58 l -0.762,-2.031 -2.985,0 -0.509,1.312 c -0.165,0.419 -0.247,0.757 -0.247,1.015 0,0.263 0.088,0.449 0.263,0.563 0.175,0.114 0.446,0.173 0.813,0.182 l 0,0.248 c -0.472,-0.024 -0.946,-0.037 -1.427,-0.037 -0.37,-0.001 -0.679,0.011 -0.925,0.036 z m 2.122,-3.567 2.806,0 -1.385,-3.694 -1.421,3.694 z"
   id="path47"
   inkscape:connector-curvature="0"
   style="fill:#ffffff" />
	</g>
</g>
</svg>