<?xml version="1.0" encoding="UTF-8" standalone="no"?>
<!-- Generator: Adobe Illustrator 15.0.2, SVG Export Plug-In . SVG Version: 6.00 Build 0)  -->

<svg
   xmlns:dc="http://purl.org/dc/elements/1.1/"
   xmlns:cc="http://creativecommons.org/ns#"
   xmlns:rdf="http://www.w3.org/1999/02/22-rdf-syntax-ns#"
   xmlns:svg="http://www.w3.org/2000/svg"
   xmlns="http://www.w3.org/2000/svg"
   xmlns:sodipodi="http://sodipodi.sourceforge.net/DTD/sodipodi-0.dtd"
   xmlns:inkscape="http://www.inkscape.org/namespaces/inkscape"
   version="1.1"
   id="Слой_1"
   x="0px"
   y="0px"
   width="340"
   height="255"
   viewBox="0 0 340.00001 255"
   enable-background="new 0 0 340.214 255.12"
   xml:space="preserve"
   inkscape:version="0.91 r13725"
   sodipodi:docname="kvartira.svg"><metadata
   id="metadata15"><rdf:RDF><cc:Work
       rdf:about=""><dc:format>image/svg+xml</dc:format><dc:type
         rdf:resource="http://purl.org/dc/dcmitype/StillImage" /><dc:title></dc:title></cc:Work></rdf:RDF></metadata><defs
   id="defs13" /><sodipodi:namedview
   pagecolor="#ffffff"
   bordercolor="#666666"
   borderopacity="1"
   objecttolerance="10"
   gridtolerance="10"
   guidetolerance="10"
   inkscape:pageopacity="0"
   inkscape:pageshadow="2"
   inkscape:window-width="1366"
   inkscape:window-height="745"
   id="namedview11"
   showgrid="false"
   inkscape:zoom="0.92505489"
   inkscape:cx="170.10699"
   inkscape:cy="126.47898"
   inkscape:window-x="-8"
   inkscape:window-y="-8"
   inkscape:window-maximized="1"
   inkscape:current-layer="Слой_1" />

<g
   id="g5"
   transform="translate(0,-0.11999512)">
	<path
   d="m 317.629,135.647 c 0,3.397 -1.334,5.769 -2.67,7.19 -1.963,2.055 -5.104,3.16 -8.087,3.16 -2.12,0 -4.241,-0.553 -5.732,-1.738 -1.021,-0.789 -2.12,-2.291 -2.12,-4.661 0,-1.659 0.55,-3.792 2.905,-5.373 2.198,-1.501 5.653,-2.212 11.464,-2.212 1.413,0 2.827,0.079 4.24,0.158 l 0,3.476 z m -21.515,-15.248 c 4.711,-3.398 9.029,-3.951 11.856,-3.951 1.885,0 5.025,0.158 7.303,2.133 2.277,1.976 2.355,4.346 2.355,5.926 l 0,2.212 c -1.334,-0.079 -3.612,-0.158 -5.025,-0.158 -9.108,0 -13.27,1.58 -15.154,2.687 -5.34,3.003 -6.282,7.979 -6.282,10.746 0,4.503 2.042,7.426 4.397,9.164 2.355,1.738 5.968,2.846 9.579,2.846 4.556,0 9.815,-1.581 13.114,-6.084 l 0.156,0 0,5.451 6.91,0 c -0.314,-1.975 -0.314,-6.321 -0.314,-8.139 l 0,-16.354 c 0,-4.346 -0.234,-8.928 -3.769,-12.484 -2.592,-2.607 -6.753,-3.95 -11.778,-3.95 -2.748,0 -8.716,0.395 -13.819,3.477 l 0.471,6.478 z m -38.161,10.903 c 0,-3.555 0.706,-7.032 2.905,-10.113 1.413,-2.055 4.005,-4.74 8.951,-4.74 3.299,0 5.89,1.343 7.695,3.477 2.827,3.239 3.298,7.585 3.298,10.745 0,5.373 -1.491,9.481 -3.69,11.931 -1.57,1.738 -4.004,3.397 -7.538,3.397 -3.848,0 -6.831,-1.975 -8.559,-4.345 -2.119,-2.845 -3.062,-6.876 -3.062,-10.352 m -7.381,-20.227 0,55.675 7.381,0 0,-20.672 0.157,0 c 1.021,1.501 2.435,2.844 4.555,3.95 2.669,1.422 5.731,1.976 8.794,1.976 6.518,0 10.443,-3.24 12.563,-5.926 3.141,-3.951 4.633,-9.877 4.633,-15.171 0,-6.4 -1.963,-11.693 -4.868,-15.091 -3.298,-3.792 -7.616,-5.373 -12.721,-5.373 -2.983,0 -9.187,0.632 -13.271,6.399 l -0.157,0 0,-5.768 -7.066,0 z m -36.748,0 -7.381,0 0,40.296 7.381,0 21.515,-30.419 0,30.419 7.382,0 0,-40.296 -7.382,0 -21.515,30.419 0,-30.419 z m -44.913,0 0,6.005 13.898,0 0,34.291 7.381,0 0,-34.291 13.898,0 0,-6.005 -35.177,0 z m -28.896,20.227 c 0,-3.555 0.707,-7.032 2.906,-10.113 1.413,-2.055 4.004,-4.74 8.951,-4.74 3.298,0 5.889,1.343 7.695,3.477 2.826,3.239 3.298,7.585 3.298,10.745 0,5.373 -1.492,9.481 -3.69,11.931 -1.57,1.738 -4.004,3.397 -7.538,3.397 -3.848,0 -6.832,-1.975 -8.559,-4.345 -2.12,-2.845 -3.063,-6.876 -3.063,-10.352 m -7.381,-20.227 0,55.675 7.381,0 0,-20.672 0.157,0 c 1.021,1.501 2.435,2.844 4.554,3.95 2.67,1.422 5.732,1.976 8.794,1.976 6.518,0 10.444,-3.24 12.563,-5.926 3.141,-3.951 4.633,-9.877 4.633,-15.171 0,-6.4 -1.963,-11.693 -4.869,-15.091 -3.297,-3.792 -7.616,-5.373 -12.72,-5.373 -2.983,0 -9.187,0.632 -13.27,6.399 l -0.157,0 0,-5.768 -7.066,0 z m -15.154,24.572 c 0,3.397 -1.335,5.769 -2.67,7.19 -1.963,2.055 -5.104,3.16 -8.087,3.16 -2.12,0 -4.24,-0.553 -5.732,-1.738 -1.021,-0.789 -2.12,-2.291 -2.12,-4.661 0,-1.659 0.55,-3.792 2.905,-5.373 2.198,-1.501 5.654,-2.212 11.464,-2.212 1.414,0 2.827,0.079 4.241,0.158 l 0,3.476 z M 95.965,120.399 c 4.711,-3.398 9.03,-3.951 11.856,-3.951 1.885,0 5.026,0.158 7.303,2.133 2.277,1.976 2.356,4.346 2.356,5.926 l 0,2.212 c -1.335,-0.079 -3.612,-0.158 -5.025,-0.158 -9.108,0 -13.271,1.58 -15.155,2.687 -5.339,3.003 -6.282,7.979 -6.282,10.746 0,4.503 2.042,7.426 4.398,9.164 2.355,1.738 5.967,2.846 9.579,2.846 4.555,0 9.815,-1.581 13.113,-6.084 l 0.157,0 0,5.451 6.91,0 c -0.314,-1.975 -0.314,-6.321 -0.314,-8.139 l 0,-16.354 c 0,-4.346 -0.235,-8.928 -3.769,-12.484 -2.591,-2.607 -6.753,-3.95 -11.778,-3.95 -2.748,0 -8.716,0.395 -13.82,3.477 l 0.471,6.478 z m -33.528,12.799 7.617,0 c 3.69,0 5.653,0.475 6.987,1.265 1.571,0.948 2.828,2.607 2.828,5.057 0,1.896 -0.864,3.16 -1.649,3.871 -1.884,1.817 -4.869,1.976 -6.438,1.976 l -9.344,0 0,-12.169 z m 0,-16.118 8.167,0 c 2.748,0 4.476,0.396 5.653,1.106 2.042,1.185 2.356,2.844 2.356,4.108 0,1.106 -0.078,2.923 -2.356,4.267 -1.805,1.027 -4.004,1.106 -6.438,1.106 l -7.381,0 0,-10.587 z m -7.381,-6.005 0,40.296 17.589,0 c 2.984,0 7.145,-0.237 10.522,-2.528 2.748,-1.817 4.554,-4.583 4.554,-8.771 0,-4.188 -2.199,-6.32 -2.749,-6.795 -1.413,-1.343 -3.769,-2.291 -5.889,-2.607 l 0,-0.236 c 2.12,-0.554 3.769,-1.739 4.947,-3.161 1.178,-1.501 2.042,-3.634 2.042,-6.005 0,-2.607 -1.021,-5.688 -4.24,-7.822 -3.298,-2.212 -7.774,-2.371 -10.836,-2.371 l -15.94,0 z m -38.868,40.296 7.381,0 0,-19.357 17.981,19.357 10.443,0 -20.887,-21.096 18.61,-19.2 -10.049,0 -16.097,17.699 0,-17.699 -7.381,0 0,40.296 z"
   id="path7"
   inkscape:connector-curvature="0"
   style="fill:#ffffff" />
	<path
   d="m 196.668,93.093 c -0.166,0.542 -0.291,1.167 -1.291,1.167 l -1.708,0 c -0.917,0 -5.041,0 -5.041,-3.916 0,-2.791 2.208,-5.749 6.707,-5.749 3.041,0 3.416,0.667 3.416,1.417 0,0.417 -0.041,1.083 -0.5,2.417 l -1.583,4.664 z m -2.708,7.749 c -0.375,1.125 -0.875,2.375 -0.875,3.458 0,1.666 1.292,1.791 1.875,1.791 3.374,0 7.374,-5.082 8.124,-6.082 0.375,-0.458 0.5,-0.708 0.5,-0.958 0,-0.208 -0.125,-0.458 -0.417,-0.458 -0.25,0 -0.417,0.167 -0.541,0.333 -1.084,1.333 -3.833,4.332 -5.166,4.332 -0.125,0 -0.542,-0.041 -0.542,-0.541 0,-0.667 0.625,-2.125 1.667,-5.166 l 2.832,-8.124 c 0.667,-1.958 0.875,-2.916 0.875,-3.749 0,-1.833 -1.125,-2.208 -6.415,-2.208 -9.457,0 -11.124,3.958 -11.124,6.583 0,3.916 3.958,4.833 5.958,4.916 l 0.041,0.208 c -5.165,0.917 -6.123,3.042 -8.331,6.125 -1.75,2.458 -2.208,3 -3.416,3.041 l -0.25,0 c -0.417,-0.042 -0.459,-0.083 -0.708,-0.083 -0.167,0 -0.626,0.042 -0.626,0.583 0,0.958 2.292,1.25 3.042,1.25 3.332,0 4.624,-2.208 6.957,-5.708 2.333,-3.499 3.458,-5.332 8.499,-5.166 l -1.959,5.623 z m -35.243,0.291 c 0,-6.499 7.957,-16.081 13.832,-16.081 2,0 2.75,1.208 2.75,2.333 0,2.541 -5.541,9.207 -6.75,10.623 -4.249,4.999 -6.666,5.499 -7.665,5.499 -1.75,10e-4 -2.167,-1.124 -2.167,-2.374 m 13.747,-4.874 c -2.124,5.957 -2.208,7.707 -2.208,8.207 0,1.458 0.833,1.625 1.333,1.625 1.625,0 4.875,-1.667 7.874,-6.374 0.417,-0.667 0.584,-0.958 0.584,-1.166 0,-0.458 -0.25,-0.5 -0.458,-0.5 -0.167,0 -0.334,0.25 -0.459,0.417 -2.832,3.791 -3.832,4.333 -4.374,4.333 -0.125,0 -0.583,0.042 -0.583,-0.792 0,-1.083 1.791,-6.5 2.666,-8.999 l 2.916,-8.249 c 0.084,-0.25 0.209,-0.625 0.209,-0.833 0,-0.333 -0.084,-0.458 -0.626,-0.458 l -1.666,0 c -0.542,0 -0.667,-0.167 -1.125,0.917 -0.208,0.417 -0.292,0.708 -0.666,0.708 -0.292,0 -0.542,-0.208 -0.75,-0.333 -0.875,-0.583 -1.75,-0.708 -2.916,-0.708 -9.624,0 -17.247,11.207 -17.247,17.247 0,3.75 2.333,4.791 4.083,4.791 4.333,0 10.082,-6.249 14.206,-12.498 l 0.167,0 -0.96,2.665 z m -43.492,8.29 c -0.208,0.625 0.125,0.667 0.292,0.667 l 2.292,0 c 0.667,0 0.833,-0.542 0.958,-0.917 l 3.291,-9.291 c 0.083,-0.292 0.167,-0.375 0.542,-0.375 l 9.165,0 c 0.292,0 0.5,0.208 0.417,0.458 l -1.75,4.916 c -0.667,1.833 -1.042,2.875 -1.042,3.833 0,2 1.375,2.25 2.125,2.25 2.208,0 5.374,-3.083 7.582,-5.957 0.583,-0.75 0.708,-1.083 0.708,-1.291 0,-0.292 -0.208,-0.417 -0.417,-0.417 -0.25,0 -0.458,0.292 -0.583,0.417 -3.416,3.916 -4.374,4.499 -4.957,4.499 -0.333,0 -0.667,-0.208 -0.667,-0.75 0,-0.667 0.375,-1.583 0.833,-2.833 l 5.249,-14.914 c 0.125,-0.375 -0.083,-0.5 -0.333,-0.5 l -2.583,0 c -0.333,0 -0.458,0.125 -0.542,0.416 l -2.916,8.332 c -0.125,0.333 -0.333,0.417 -0.583,0.417 l -9.207,0 c -0.458,0 -0.417,-0.375 -0.333,-0.541 l 0.375,-1.083 c 1.166,-3.417 1.375,-5.083 1.375,-6.124 0,-0.292 -0.042,-2.292 -1.916,-2.292 -2.375,0 -5.875,3.458 -7.458,5.874 -0.292,0.417 -0.417,0.708 -0.417,0.958 0,0.25 0.167,0.417 0.375,0.417 0.292,0 0.5,-0.292 0.625,-0.458 0.75,-1 3.208,-4.167 4.458,-4.167 0.125,0 0.708,0.042 0.708,1.167 0,1.125 -0.958,3.958 -1.292,4.874 l -4.374,12.415 z m -38.826,-0.333 c -0.25,0.625 -0.25,1 0.5,1 l 2.041,0 c 0.209,0 0.542,0.083 0.75,-0.458 l 0.708,-1.958 c 2.208,-6.083 9.332,-17.081 13.081,-17.081 0.917,0 1.333,0.5 1.333,1.542 0,1.916 -2.333,8.915 -3.375,11.665 l -1.958,5.124 c -0.125,0.333 -0.25,0.542 -0.25,0.833 0,0.416 0.417,0.333 0.625,0.333 l 1.958,0 c 0.333,0 0.667,0.042 0.917,-0.583 l 0.958,-2.458 c 1.916,-4.916 8.665,-16.373 12.998,-16.373 0.708,0 1.542,0.25 1.542,1.542 0,0.625 -0.208,1.417 -0.917,3.208 l -3.167,7.915 c -0.708,1.792 -1.625,3.625 -1.625,5.499 0,0.792 0.208,2.125 2,2.125 2.167,0 5.083,-2.374 7.332,-5.249 1.083,-1.333 1.125,-1.833 1.125,-2.125 0,-0.083 -0.042,-0.333 -0.417,-0.333 -0.375,0 -0.583,0.292 -0.833,0.708 -0.542,0.833 -3.5,4.458 -4.75,4.458 -0.542,0 -0.583,-0.542 -0.583,-0.833 0,-0.958 0.375,-1.875 0.875,-3.167 l 3.166,-7.916 c 1.167,-2.874 1.458,-3.749 1.458,-4.874 0,-2.333 -1.5,-3.292 -3.083,-3.292 -3.291,0 -7.624,2.875 -12.831,11.873 l -0.042,0 0.625,-1.833 c 0.541,-1.583 1.583,-4.833 1.583,-6.541 0,-2 -1.167,-3.5 -2.875,-3.5 -4.291,0 -10.332,8.541 -12.123,11.582 l -0.083,-0.042 0.625,-1.833 c 1.25,-3.708 2.042,-5.957 2.042,-7.916 0,-1.625 -1.042,-1.792 -1.542,-1.792 -1.542,0 -4.5,2 -6.999,4.916 -1.083,1.25 -1.208,1.583 -1.208,1.792 0,0.333 0.208,0.5 0.5,0.5 0.167,0 0.333,-0.208 0.542,-0.5 0.667,-0.833 3.291,-4 4.583,-4 0.292,0 0.5,0.083 0.5,0.667 0,2.083 -2,7.582 -3.125,10.581 l -2.581,6.794 z M 79.398,84.594 c 2.083,0 4.916,0.875 4.916,5.707 0,6 -4.041,14.665 -10.248,14.665 -4.042,0 -4.708,-3.833 -4.708,-6.291 0,-6.499 4.291,-14.081 10.04,-14.081 m -25.412,19.955 c -0.25,0.667 0.125,0.667 0.292,0.667 l 2.292,0 c 0.667,0 0.833,-0.542 0.958,-0.917 l 3.291,-9.291 c 0.083,-0.292 0.167,-0.375 0.542,-0.375 l 4.874,0 c -0.167,0.75 -0.25,1.458 -0.25,2.208 0,5.333 3.458,9.249 8.29,9.249 5.791,0 13.415,-6.124 13.415,-13.289 0,-4.208 -2.542,-9.332 -8.207,-9.332 -5.208,0 -11.29,4 -12.998,10.04 l -4.625,0 c -0.458,0 -0.417,-0.375 -0.333,-0.541 l 0.375,-1.083 c 1.166,-3.417 1.375,-5.083 1.375,-6.124 0,-0.292 -0.042,-2.292 -1.917,-2.292 -1.625,0 -3.583,1.542 -4.999,2.917 -0.833,0.792 -2.875,3.083 -2.875,3.875 0,0.333 0.25,0.458 0.417,0.458 0.333,0 0.708,-0.708 1.583,-1.791 0.667,-0.833 2.583,-2.833 3.458,-2.833 0.125,0 0.708,0.042 0.708,1.167 0,1.292 -1,4 -1.292,4.874 l -4.374,12.413 z m -13.04,0.25 c 0.25,-2.083 0.375,-4.374 0.375,-6.624 0,-6.166 -0.5,-14.706 -4.291,-14.706 -1.208,0 -3.291,0.917 -5.666,5.625 -0.292,0.583 -0.5,1 -0.5,1.375 0,0.333 0.25,0.417 0.417,0.417 0.333,0 0.5,-0.375 0.625,-0.667 1,-2.333 2.667,-4.291 3.666,-4.291 1.375,0 2.417,4.749 2.417,14.706 0,5.499 -0.375,8.415 -3.666,11.915 -0.708,0.75 -2.083,2.083 -3.541,2.083 -1.125,0 -1.417,-0.625 -2.25,-1.542 -0.375,-0.417 -0.958,-1 -1.833,-1 -0.792,0 -1.625,0.625 -1.625,1.749 0,1.208 1.5,2.542 3.583,2.542 4.5,0 8.207,-4.874 13.29,-11.206 8.79,-10.957 10.415,-14.456 10.415,-18.247 0,-0.25 0.042,-3.458 -2.125,-3.458 -1.208,0 -1.75,1.042 -1.75,2.25 0,0.792 0.208,1.208 0.542,1.833 0.375,0.708 0.667,1.375 0.667,2.416 -10e-4,3.957 -5.375,11.081 -8.75,14.83"
   id="path9"
   inkscape:connector-curvature="0"
   style="fill:#ffffff" />
</g>
</svg>