<?xml version="1.0" encoding="UTF-8" standalone="no"?>
<!-- Generator: Adobe Illustrator 15.0.2, SVG Export Plug-In . SVG Version: 6.00 Build 0)  -->

<svg
   xmlns:dc="http://purl.org/dc/elements/1.1/"
   xmlns:cc="http://creativecommons.org/ns#"
   xmlns:rdf="http://www.w3.org/1999/02/22-rdf-syntax-ns#"
   xmlns:svg="http://www.w3.org/2000/svg"
   xmlns="http://www.w3.org/2000/svg"
   xmlns:sodipodi="http://sodipodi.sourceforge.net/DTD/sodipodi-0.dtd"
   xmlns:inkscape="http://www.inkscape.org/namespaces/inkscape"
   version="1.1"
   id="Слой_1"
   x="0px"
   y="0px"
   width="340"
   height="255"
   viewBox="0 0 340.00001 255"
   enable-background="new 0 0 340.214 255.12"
   xml:space="preserve"
   inkscape:version="0.91 r13725"
   sodipodi:docname="polina.svg"><metadata
   id="metadata23"><rdf:RDF><cc:Work
       rdf:about=""><dc:format>image/svg+xml</dc:format><dc:type
         rdf:resource="http://purl.org/dc/dcmitype/StillImage" /><dc:title></dc:title></cc:Work></rdf:RDF></metadata><defs
   id="defs21" /><sodipodi:namedview
   pagecolor="#ffffff"
   bordercolor="#666666"
   borderopacity="1"
   objecttolerance="10"
   gridtolerance="10"
   guidetolerance="10"
   inkscape:pageopacity="0"
   inkscape:pageshadow="2"
   inkscape:window-width="1366"
   inkscape:window-height="745"
   id="namedview19"
   showgrid="false"
   inkscape:zoom="0.92505489"
   inkscape:cx="170.10699"
   inkscape:cy="126.47898"
   inkscape:window-x="-8"
   inkscape:window-y="-8"
   inkscape:window-maximized="1"
   inkscape:current-layer="Слой_1" />

<g
   id="g5"
   transform="translate(0,-0.11999512)">
	<path
   d="m 19.906,171.429 c 0,0 -3.181,0 -2.431,-3.095 L 37.229,86.993 c 0,0 0.752,-3.092 3.935,-3.092 l 51.338,-0.004 c 0,0 3.183,0 2.425,3.094 l -19.936,81.364 c 0,0 -0.758,3.089 -3.938,3.089 l -13.092,0 c 0,0 -3.18,0 -2.486,-3.103 l 15.924,-71.016 -15.836,0 -17.151,71.009 c 0,0 -0.752,3.095 -3.933,3.095 l -14.573,0 z"
   id="path7"
   inkscape:connector-curvature="0"
   style="fill:#ffffff" />
	<path
   d="m 130.354,116.822 c -3.493,-3.243 -10.225,-4.929 -14.965,-4.737 -5.278,0.209 -12.898,1.912 -16.39,4.157 -3.49,2.244 -7.435,6.335 -8.998,10.191 -1.562,3.857 -7.038,27.055 -7.038,27.055 0,0 -0.766,7.828 1.252,11.696 2.276,4.356 7.23,8.758 15.958,9.004 8.73,0.251 12.26,-1.577 14.255,-2.577 1.993,-0.995 9.191,-5.653 11.438,-10.141 2.244,-4.491 8.396,-30.537 8.478,-34.422 0.008,-2.45 -0.5,-6.983 -3.99,-10.226 z m -13.852,10.237 c -0.261,1.683 -5.134,27.425 -6.296,29.753 -1.474,2.952 -2.576,4.882 -6.293,4.77 -3.42,-0.104 -4.36,-1.634 -4.197,-3.931 0.141,-1.957 6.026,-27.507 7.081,-29.75 1.293,-2.752 2.885,-3.932 6.557,-4.211 2.092,-0.16 3.413,1.684 3.148,3.369 z"
   id="path9"
   inkscape:connector-curvature="0"
   style="fill:#ffffff" />
	<path
   d="m 123.527,169.334 c -3.498,3.479 -9.639,4.988 -9.576,4.993 1.358,0.121 2.945,0.266 4.672,0.366 8.312,0.503 19.871,0.163 24.88,-6.776 3.696,-5.114 10.089,-28.034 13.581,-44.242 0,0 3.017,-0.056 4.724,0.059 l -9.589,44.599 c 0,0 -0.665,3.11 2.516,3.108 l 11.193,-0.011 c 0,0 3.18,-0.002 3.875,-3.105 l 11.741,-52.469 c 0,0 -0.05,-2.724 -2.007,-2.724 -3.193,0 -10.94,-0.013 -33.05,-0.013 0,0 -3.181,0 -3.877,3.104 -8.592,38.311 -8.592,38.311 -9.716,40.679 -1.175,2.9 -1.554,5.353 -4.015,5.242 -0.066,-0.002 -2.346,4.2 -5.352,7.19 z"
   id="path11"
   inkscape:connector-curvature="0"
   style="fill:#ffffff" />
	<path
   d="m 190.564,113.12 c 0,0 -3.18,0 -3.911,3.094 l -12.314,52.12 c 0,0 -0.729,3.096 2.454,3.096 l 11.727,0 c 0,0 3.181,0 4.881,-2.688 l 14.596,-22.996 -5.861,22.602 c 0,0 -0.794,3.082 2.391,3.082 l 11.173,0 c 0,0 3.185,0 3.916,-3.096 l 12.397,-52.21 c 0,0 0.628,-3.005 -2.555,-2.99 l -10.608,-0.031 c 0,0 -3.181,0.018 -5.001,2.63 l -15.635,22.166 5.224,-21.687 c 0,0 0.752,-3.091 -2.43,-3.091 l -10.444,0 z"
   id="path13"
   inkscape:connector-curvature="0"
   style="fill:#ffffff" />
	<path
   d="m 226.012,171.429 c 0,0 -3.183,0 -2.41,-3.085 l 13.058,-52.138 c 0,0 0.771,-3.086 3.955,-3.086 l 11.174,0 c 0,0 3.181,0 2.345,3.07 l -5.069,18.692 7.506,0 5.815,-18.692 c 0,0 0.947,-3.037 4.128,-3.051 l 11.31,-0.048 c 0,0 3.183,-0.009 2.431,3.08 l -12.71,52.182 c 0,0 -0.754,3.09 -3.937,3.087 l -11.771,-0.019 c 0,0 -3.183,-0.005 -2.526,-3.12 l 4.814,-22.5 -7.509,-0.057 -5.575,22.596 c 0,0 -0.762,3.088 -3.946,3.088 l -11.083,0 z"
   id="path15"
   inkscape:connector-curvature="0"
   style="fill:#ffffff" />
	<path
   d="m 323.905,119.317 c -1.509,-3.119 -4.752,-6.392 -8.729,-6.985 -7.036,-1.047 -16.041,-0.169 -20.603,0.438 -4.681,0.624 -10.197,3.443 -10.197,3.443 l 3.592,10.876 c 0.869,-0.434 1.177,-0.646 6.791,-2.652 8.813,-3.145 11.213,-1.523 11.993,0.976 0.78,2.499 -0.807,3.381 -0.807,3.381 0,0 -6.639,3.532 -17.183,6.363 -5.35,1.436 -11.267,6.35 -13.661,14.285 -2.498,8.274 -2.072,11.928 -1.334,14.52 1.289,4.484 2.639,6.744 6.443,8.593 3.713,1.807 10.527,-0.177 12.177,-0.934 2.926,-1.346 2.805,-1.588 4.968,-2.896 l 1.816,-1.195 c -0.32,1.171 -0.49,1.556 -0.49,1.556 0,0 -0.643,2.342 2.591,2.354 0,0 10.755,0.071 12.293,-0.039 1.491,-0.114 1.992,-2.222 1.992,-2.222 l 9.095,-41.135 c 0,0.002 1.145,-4.815 -0.747,-8.727 z m -24.958,39.972 c -1.749,2.493 -3.29,2.262 -3.958,2.303 -0.996,0.068 -3.438,0.14 -4.292,-3.274 -0.395,-1.581 0.419,-7.186 2.446,-9.729 3.212,-4.025 6.372,-5.458 11.492,-7.963 0.001,0 -3.945,16.168 -5.688,18.663 z"
   id="path17"
   inkscape:connector-curvature="0"
   style="fill:#ffffff" />
</g>
</svg>