<?xml version="1.0" encoding="UTF-8" standalone="no"?>
<!-- Generator: Adobe Illustrator 15.0.2, SVG Export Plug-In . SVG Version: 6.00 Build 0)  -->

<svg
   xmlns:dc="http://purl.org/dc/elements/1.1/"
   xmlns:cc="http://creativecommons.org/ns#"
   xmlns:rdf="http://www.w3.org/1999/02/22-rdf-syntax-ns#"
   xmlns:svg="http://www.w3.org/2000/svg"
   xmlns="http://www.w3.org/2000/svg"
   xmlns:sodipodi="http://sodipodi.sourceforge.net/DTD/sodipodi-0.dtd"
   xmlns:inkscape="http://www.inkscape.org/namespaces/inkscape"
   version="1.1"
   id="Слой_1"
   x="0px"
   y="0px"
   width="340"
   height="255"
   viewBox="0 0 340.00001 255"
   enable-background="new 0 0 340.214 255.12"
   xml:space="preserve"
   inkscape:version="0.91 r13725"
   sodipodi:docname="superdom.svg"><metadata
   id="metadata28"><rdf:RDF><cc:Work
       rdf:about=""><dc:format>image/svg+xml</dc:format><dc:type
         rdf:resource="http://purl.org/dc/dcmitype/StillImage" /><dc:title></dc:title></cc:Work></rdf:RDF></metadata><defs
   id="defs26" /><sodipodi:namedview
   pagecolor="#ffffff"
   bordercolor="#666666"
   borderopacity="1"
   objecttolerance="10"
   gridtolerance="10"
   guidetolerance="10"
   inkscape:pageopacity="0"
   inkscape:pageshadow="2"
   inkscape:window-width="1366"
   inkscape:window-height="745"
   id="namedview24"
   showgrid="false"
   inkscape:zoom="0.92505489"
   inkscape:cx="170.10699"
   inkscape:cy="126.47898"
   inkscape:window-x="-8"
   inkscape:window-y="-8"
   inkscape:window-maximized="1"
   inkscape:current-layer="Слой_1" />

<g
   id="XMLID_518_"
   transform="translate(0.26,-0.11999512)">
	<g
   id="g6">
		<polygon
   id="XMLID_361_"
   points="214.152,83.46 250.822,104.441 250.822,109.413 214.364,89.523 145.584,109.413 145.584,104.441 "
   style="fill:#ffffff" />
		<polygon
   id="XMLID_360_"
   points="145.584,158.301 218.503,168.697 250.822,157.891 250.822,152.5 219.197,161.986 145.584,152.5 "
   style="fill:#ffffff" />
		<g
   id="XMLID_311_">
			<g
   id="g11">
				<path
   id="XMLID_358_"
   d="m 28.269,125.447 c -1.125,-1.069 -2.581,-1.913 -4.155,-1.913 -1.284,0 -2.579,1.011 -2.579,2.357 0,2.02 2.862,2.583 5.662,3.812 2.862,1.238 5.662,3.144 5.662,7.913 0,6.104 -4.926,9.748 -10.704,9.748 -3.704,0 -7.287,-1.683 -9.699,-4.591 l 3.583,-4.658 c 1.516,1.684 3.536,3.193 5.832,3.193 1.739,0 3.145,-1.177 3.145,-2.968 0,-2.408 -2.747,-2.975 -5.494,-4.154 -2.747,-1.169 -5.495,-2.801 -5.495,-7.226 0,-5.157 3.589,-8.92 8.746,-8.92 2.914,0 6.612,0.903 8.853,2.864 l -3.357,4.543 z"
   inkscape:connector-curvature="0"
   style="fill:#ffffff" />
				<path
   id="XMLID_356_"
   d="m 44.806,118.943 0,14.91 c 0,3.141 0.503,6.9 4.482,6.9 3.979,0 4.484,-3.76 4.484,-6.9 l 0,-14.91 7.853,0 0,16.197 c 0,8.021 -4.147,12.224 -12.336,12.224 -8.188,0 -12.335,-4.202 -12.335,-12.224 l 0,-16.197 7.852,0 z"
   inkscape:connector-curvature="0"
   style="fill:#ffffff" />
				<path
   id="XMLID_353_"
   d="m 74.966,121.467 c 1.794,-2.135 4.708,-3.426 7.624,-3.426 7.789,0 12.556,7.292 12.556,14.526 0,7.514 -4.6,14.798 -12.726,14.798 -2.798,0 -5.777,-1.231 -7.344,-3.478 l -0.11,0 0,17.267 -7.847,0 0,-42.21 7.847,0 0,2.523 z m 12.224,11.21 c 0,-3.699 -2.471,-7.681 -6.506,-7.681 -4.04,0 -6.504,3.981 -6.504,7.681 0,3.7 2.464,7.74 6.504,7.74 4.035,0 6.506,-4.04 6.506,-7.74 z"
   inkscape:connector-curvature="0"
   style="fill:#ffffff" />
				<path
   id="XMLID_350_"
   d="m 105.124,133.969 c 0,3.478 1.349,7.395 5.442,7.395 2.579,0 4.201,-1.564 5.272,-3.747 l 7.231,1.173 c -1.903,5.497 -6.726,8.575 -12.503,8.575 -8.524,0 -13.735,-6.056 -13.735,-14.402 0,-8.354 4.43,-14.921 13.347,-14.921 9.019,0 13.062,6.675 13.062,14.977 l 0,0.951 -18.116,0 z m 10.714,-4.877 c -0.399,-2.801 -2.188,-5.557 -5.218,-5.557 -3.137,0 -4.875,2.694 -5.265,5.557 l 10.483,0 z"
   inkscape:connector-curvature="0"
   style="fill:#ffffff" />
				<path
   id="XMLID_348_"
   d="m 134.73,121.804 0.108,0 c 1.569,-2.417 3.925,-3.763 6.841,-3.763 1.126,0 2.242,0.282 3.251,0.673 l -0.953,7.292 c -0.954,-0.673 -2.078,-1.01 -3.25,-1.01 -5.438,0 -5.998,4.82 -5.998,9.083 l 0,12.386 -7.85,0 0,-27.521 7.85,0 0,2.86 z"
   inkscape:connector-curvature="0"
   style="fill:#ffffff" />
				<path
   id="XMLID_345_"
   d="m 165.676,143.887 -0.114,0 c -1.623,2.246 -4.536,3.478 -7.4,3.478 -8.073,0 -12.671,-7.347 -12.671,-14.798 0,-7.286 4.652,-14.526 12.557,-14.526 2.862,0 5.776,1.24 7.515,3.426 l 0.114,0 0,-22.539 7.851,0 0,47.537 -7.851,0 0,-2.578 z m 0.78,-11.21 c 0,-3.699 -2.464,-7.681 -6.497,-7.681 -4.04,0 -6.502,3.981 -6.502,7.681 0,3.7 2.462,7.74 6.502,7.74 4.033,0 6.497,-4.04 6.497,-7.74 z"
   inkscape:connector-curvature="0"
   style="fill:#ffffff" />
				<path
   id="XMLID_342_"
   d="m 206.156,132.732 c 0,8.524 -5.831,14.632 -14.473,14.632 -8.629,0 -14.461,-6.107 -14.461,-14.632 0,-8.58 5.884,-14.692 14.461,-14.692 8.58,10e-4 14.473,6.113 14.473,14.692 z m -20.976,0 c 0,3.703 2.475,7.685 6.504,7.685 4.042,0 6.504,-3.981 6.504,-7.685 0,-3.811 -2.462,-7.736 -6.504,-7.736 -4.03,0 -6.504,3.926 -6.504,7.736 z"
   inkscape:connector-curvature="0"
   style="fill:#ffffff" />
				<path
   id="XMLID_340_"
   d="m 217.702,121.408 0.109,0 c 1.513,-2.187 4.207,-3.367 6.733,-3.367 3.421,0 6.104,1.406 7.904,4.322 1.674,-2.694 4.819,-4.322 8.011,-4.322 7.009,0 8.746,5.276 8.746,11.27 l 0,17.154 -7.842,0 0,-14.461 c 0,-2.693 0.166,-7.681 -3.703,-7.681 -4.265,0 -4.203,5.779 -4.203,8.639 l 0,13.503 -7.852,0 0,-13.955 c 0,-2.693 0.34,-8.187 -3.757,-8.187 -4.373,0 -4.147,5.716 -4.147,8.639 l 0,13.503 -7.851,0 0,-27.521 7.851,0 0,2.464 z"
   inkscape:connector-curvature="0"
   style="fill:#ffffff" />
				<path
   id="XMLID_337_"
   d="m 265.131,142.544 c 0,2.749 -2.242,5.05 -4.989,5.05 -2.747,0 -4.99,-2.301 -4.99,-5.05 0,-2.745 2.243,-4.928 4.99,-4.928 2.747,0 4.989,2.183 4.989,4.928 z"
   inkscape:connector-curvature="0"
   style="fill:#ffffff" />
				<path
   id="XMLID_326_"
   d="m 278.696,118.943 0,14.91 c 0,3.141 0.505,6.9 4.483,6.9 3.979,0 4.484,-3.76 4.484,-6.9 l 0,-14.91 7.851,0 0,16.197 c 0,8.021 -4.147,12.224 -12.335,12.224 -8.178,0 -12.335,-4.202 -12.335,-12.224 l 0,-16.197 7.852,0 z"
   inkscape:connector-curvature="0"
   style="fill:#ffffff" />
				<path
   id="XMLID_312_"
   d="m 327.023,146.465 -7.739,0 0,-2.519 -0.108,0 c -1.683,2.187 -4.598,3.418 -7.46,3.418 -8.075,0 -12.662,-7.347 -12.662,-14.798 0,-7.286 4.65,-14.526 12.555,-14.526 2.853,0 5.77,1.24 7.676,3.481 l 0,-2.579 7.739,0 0,27.523 z m -6.952,-13.788 c 0,-3.699 -2.524,-7.681 -6.558,-7.681 -4.04,0 -6.504,3.981 -6.504,7.681 0,3.7 2.464,7.74 6.504,7.74 4.034,0 6.558,-4.04 6.558,-7.74 z"
   inkscape:connector-curvature="0"
   style="fill:#ffffff" />
			</g>
		</g>
	</g>
</g>
</svg>