<?xml version="1.0" encoding="UTF-8" standalone="no"?>
<!-- Generator: Adobe Illustrator 15.0.2, SVG Export Plug-In . SVG Version: 6.00 Build 0)  -->

<svg
   xmlns:dc="http://purl.org/dc/elements/1.1/"
   xmlns:cc="http://creativecommons.org/ns#"
   xmlns:rdf="http://www.w3.org/1999/02/22-rdf-syntax-ns#"
   xmlns:svg="http://www.w3.org/2000/svg"
   xmlns="http://www.w3.org/2000/svg"
   xmlns:sodipodi="http://sodipodi.sourceforge.net/DTD/sodipodi-0.dtd"
   xmlns:inkscape="http://www.inkscape.org/namespaces/inkscape"
   version="1.1"
   id="Слой_1"
   x="0px"
   y="0px"
   width="340.214px"
   height="255.12px"
   viewBox="0 0 340.214 255.12"
   enable-background="new 0 0 340.214 255.12"
   xml:space="preserve"
   inkscape:version="0.91 r13725"
   sodipodi:docname="tvoe-zdorovie.svg"><metadata
   id="metadata105"><rdf:RDF><cc:Work
       rdf:about=""><dc:format>image/svg+xml</dc:format><dc:type
         rdf:resource="http://purl.org/dc/dcmitype/StillImage" /><dc:title></dc:title></cc:Work></rdf:RDF></metadata><defs
   id="defs103" /><sodipodi:namedview
   pagecolor="#ffffff"
   bordercolor="#666666"
   borderopacity="1"
   objecttolerance="10"
   gridtolerance="10"
   guidetolerance="10"
   inkscape:pageopacity="0"
   inkscape:pageshadow="2"
   inkscape:window-width="1366"
   inkscape:window-height="745"
   id="namedview101"
   showgrid="false"
   inkscape:zoom="0.92505489"
   inkscape:cx="170.10699"
   inkscape:cy="126.47898"
   inkscape:window-x="-8"
   inkscape:window-y="-8"
   inkscape:window-maximized="1"
   inkscape:current-layer="Слой_1" />

<g
   id="g5">
	<g
   id="g7">
		<path
   fill="#FFFFFF"
   d="M37.701,160.408c-8.58,0-20.07-2.142-20.8-20.652l-0.046-1.219h12.171l0.041,1.136    c0.19,5.602,3.032,8.21,8.941,8.21c6.226,0,7.532-3.1,7.532-5.701c0-3.585-1.907-5.182-6.182-5.182h-7.248v-12h6.206    c4.065,0,5.875-1.437,5.875-4.656c0-3.39-2.375-5.107-7.058-5.107h-0.105c-2.079,0-6.404,0-6.673,7.167l-0.043,1.136H18.07    l0.059-1.236c0.638-13.367,6.992-19.592,20.001-19.592c12.285,0,19.329,5.798,19.329,15.912c0,6.897-3.246,10.086-5.987,11.549    c4.987,2.228,7.336,6.543,7.336,13.35C58.809,154.727,51.708,160.408,37.701,160.408z M19.319,140.889    c1.064,15.181,10.341,17.164,18.382,17.164c12.794,0,18.753-4.615,18.753-14.529c0-7.003-2.574-10.621-8.608-12.09l-0.896-0.221    v-2.044l0.951-0.184c2.167-0.424,7.204-2.277,7.204-10.36c0-11.206-9.232-13.558-16.974-13.558c-11.386,0-16.7,4.84-17.575,16.12    h7.522c0.548-5.511,3.554-8.3,8.949-8.3h0.105c0.76,0,3.068,0,5.187,0.905c2.762,1.182,4.225,3.451,4.225,6.553    c0,3.196-1.428,7.007-8.23,7.007h-3.851v7.295h4.893c7.056,0,8.537,4.098,8.537,7.535c0,1.89-0.715,8.056-9.886,8.056    c-6.747,0-10.604-3.227-11.219-9.349H19.319z"
   id="path9" />
	</g>
	<g
   id="g11">
		<g
   id="g13">
			<path
   fill="#FFFFFF"
   d="M27.89,139.713c0.184,5.384,2.759,9.345,10.117,9.345c7.174,0,8.707-3.961,8.707-6.876     c0-5.982-4.906-6.36-7.357-6.36h-6.072v-9.642h5.03c2.881,0,7.051-0.675,7.051-5.835c0-6.356-6.929-6.283-8.34-6.283     c-2.208,0-7.542,0.15-7.849,8.304h-9.873c0.674-14.135,7.849-18.474,18.826-18.474c9.628,0,18.151,3.663,18.151,14.733     c0,8.3-5.089,10.918-8.156,11.515v0.151c6.132,1.492,9.505,5.16,9.505,13.236c0,13.31-10.608,15.704-19.93,15.704     c-8.768,0-18.948-2.395-19.623-19.519H27.89z"
   id="path15" />
		</g>
	</g>
	<g
   id="g17">
		<path
   fill="#FFFFFF"
   d="M101.719,167.946H91.036v-9.034H68.361v9.034H57.678l-0.589-18.37h4.863    c3.156-5.328,4.569-11.587,4.569-20.181v-7.612h30.344v27.792h5.446L101.719,167.946z M93.392,165.595h6.048l0.439-13.664h-5.366    v-27.792H68.875v5.257c0,9.358-1.624,16.136-5.262,21.98l-0.346,0.555h-3.749l0.439,13.664h6.049v-9.035h27.385V165.595z     M87.085,151.931H70.849l0.887-1.717c2.554-4.946,3.792-10.391,3.792-16.644v-4.806h11.557V151.931z M74.655,149.576H84.73    v-18.457h-6.847v2.451C77.883,139.495,76.826,144.753,74.655,149.576z"
   id="path19" />
	</g>
	<g
   id="g21">
		<path
   fill="#FFFFFF"
   d="M119.433,160.214c-11.938,0-19.064-7.452-19.064-19.933c0-6.697,1.998-11.854,5.938-15.328    c3.316-2.926,7.855-4.469,13.126-4.469c11.938,0,19.065,7.398,19.065,19.797C138.498,152.762,131.371,160.214,119.433,160.214z     M119.433,122.836c-5.023,0-16.713,1.7-16.713,17.445c0,11.172,6.092,17.577,16.713,17.577s16.71-6.405,16.71-17.577    C136.143,129.194,130.054,122.836,119.433,122.836z M119.433,153.23c-4.06,0-8.899-2.249-8.899-12.949    c0-10.592,4.839-12.816,8.899-12.816c5.821,0,8.898,4.433,8.898,12.816C128.332,150.981,123.491,153.23,119.433,153.23z     M119.433,129.82c-4.343,0-6.546,3.517-6.546,10.461c0,7.127,2.142,10.594,6.546,10.594c4.402,0,6.543-3.467,6.543-10.594    C125.977,129.82,121.224,129.82,119.433,129.82z"
   id="path23" />
	</g>
	<g
   id="g25">
		<path
   fill="#FFFFFF"
   d="M152.138,171.576h-12.134v-49.792h11.573l-0.037,2.435c2.655-2.508,5.795-3.734,9.525-3.734    c9.894,0,16.039,7.636,16.039,19.934c0,11.837-6.523,19.796-16.233,19.796c-0.968,0-5.23-0.177-8.734-3.063V171.576z     M142.359,169.222h7.426v-18.728l2.136,3c2.96,4.155,7.976,4.364,8.951,4.364c8.432,0,13.88-6.846,13.88-17.44    c0-10.846-5.247-17.582-13.687-17.582c-1.438,0-5.812,0-9.618,5.009l-0.352,0.468h-1.975l0.066-4.175h-6.829V169.222z     M158.169,153.23c-5.531,0-8.834-4.844-8.834-12.949c0-11.894,6.762-12.816,8.834-12.816c2.06,0,8.769,0.923,8.769,12.816    C166.938,148.387,163.66,153.23,158.169,153.23z M158.169,129.82c-1.949,0-6.481,1.019-6.481,10.461    c0,3.183,0.631,10.594,6.481,10.594c5.793,0,6.418-7.411,6.418-10.594C164.587,130.839,160.099,129.82,158.169,129.82z"
   id="path27" />
	</g>
	<g
   id="g29">
		<path
   fill="#FFFFFF"
   d="M198.063,160.214c-11.938,0-19.064-7.452-19.064-19.933c0-6.697,1.998-11.854,5.94-15.328    c3.315-2.926,7.854-4.469,13.124-4.469c11.938,0,19.068,7.398,19.068,19.797C217.132,152.762,210.001,160.214,198.063,160.214z     M198.063,122.836c-5.023,0-16.711,1.7-16.711,17.445c0,11.172,6.092,17.577,16.711,17.577c10.622,0,16.714-6.405,16.714-17.577    C214.777,129.194,208.686,122.836,198.063,122.836z M198.063,153.23c-4.058,0-8.897-2.249-8.897-12.949    c0-10.592,4.84-12.816,8.897-12.816c5.822,0,8.901,4.433,8.901,12.816C206.965,150.981,202.125,153.23,198.063,153.23z     M198.063,129.82c-4.342,0-6.542,3.517-6.542,10.461c0,7.127,2.14,10.594,6.542,10.594c4.406,0,6.547-3.467,6.547-10.594    C204.61,129.82,199.854,129.82,198.063,129.82z"
   id="path31" />
	</g>
	<g
   id="g33">
		<path
   fill="#FFFFFF"
   d="M239.891,158.912h-20.61v-37.128h20.674c2.95,0,11.924,0,11.924,9.596c0,3.56-1.732,6.59-4.469,8.193    c3.955,1.696,5.628,4.542,5.628,9.261C253.037,157.866,245.532,158.912,239.891,158.912z M221.634,156.56h18.257    c7.767,0,10.792-2.167,10.792-7.726c0-4.709-1.737-6.72-6.884-7.958l-0.901-0.214v-2.145l0.995-0.154    c2.802-0.435,5.631-2.759,5.631-6.983c0-6.379-4.836-7.241-9.569-7.241h-18.32V156.56z M236.351,151.931h-7.292V141.91h7.162    c4.622,0,6.776,1.678,6.776,5.281C242.997,149.353,241.845,151.931,236.351,151.931z M231.414,149.576h4.937    c4.292,0,4.292-1.609,4.292-2.385c0-1.306,0-2.926-4.422-2.926h-4.807V149.576z M235.322,137.759h-6.264v-8.995h6.457    c1.563,0,6.322,0,6.322,4.603C241.838,135.371,240.709,137.759,235.322,137.759z M231.414,135.404h3.908    c4.165,0,4.165-1.482,4.165-2.037c0-1.187-0.305-2.248-3.972-2.248h-4.102V135.404z"
   id="path35" />
	</g>
	<g
   id="g37">
		<path
   fill="#FFFFFF"
   d="M273.672,158.912h-19.321v-37.128h12.134v12.322h5.447c12.305,0,14.887,7.041,14.887,12.952    C286.818,152.465,284.536,158.912,273.672,158.912z M256.701,156.56h16.971c7.361,0,10.792-3.022,10.792-9.502    c0-7.131-4.099-10.598-12.532-10.598h-7.803v-12.321h-7.428V156.56z M269.747,151.931h-5.618v-10.846h5.361    c5.918,0,7.161,3.063,7.161,5.629C276.651,150.174,274.33,151.931,269.747,151.931z M266.484,149.576h3.263    c3.998,0,4.549-1.373,4.549-2.862c0-2.295-1.436-3.273-4.806-3.273h-3.006V149.576z"
   id="path39" />
	</g>
	<g
   id="g41">
		<path
   fill="#FFFFFF"
   d="M306.424,160.214c-5.635,0-18.744-1.943-18.744-19.933c0-12.028,7.662-19.797,19.516-19.797    c7.168,0,12.298,2.839,15.258,8.44c2.331,4.418,2.621,9.345,2.762,11.713l0.017,0.255l0.104,3.166h-25.057    c0.261,2.268,1.43,6.816,6.597,6.816c2.194,0,4.79-0.921,5.494-3.51l0.234-0.869h12.331l-0.384,1.474    C322.429,156.093,316.33,160.214,306.424,160.214z M307.195,122.836c-10.584,0-17.16,6.686-17.16,17.445    c0,15.293,10.27,17.577,16.389,17.577c8.187,0,13.239-2.948,15.397-9.007h-7.479c-1.326,3.21-4.646,4.379-7.468,4.379    c-7.128,0-9.024-6.507-9.024-10.351v-1.177h25.053l-0.036-0.925C322.604,136.339,321.805,122.836,307.195,122.836z     M315.161,138.237h-17.378l0.067-1.24c0.257-4.742,3.206-9.532,9.214-9.532c2.353,0,7.843,0.933,8.063,9.569L315.161,138.237z     M300.361,135.885h12.342c-0.397-4.028-2.291-6.064-5.639-6.064C302.188,129.82,300.772,133.768,300.361,135.885z"
   id="path43" />
	</g>
	<g
   id="g45">
		<g
   id="g47">
			<path
   fill="#FFFFFF"
   d="M62.613,150.752c3.41-5.475,5.083-12.048,5.083-21.356v-6.436h27.993v27.792h5.404l-0.515,16.019h-8.365     v-9.035H67.182v9.035h-8.365l-0.514-16.019H62.613z M76.706,129.943v3.627c0,8.217-2.123,13.691-3.926,17.182h13.128v-20.809     H76.706z"
   id="path49" />
		</g>
		<g
   id="g51">
			<path
   fill="#FFFFFF"
   d="M101.607,140.281c0-13.691,8.814-18.621,17.889-18.621c10.23,0,17.887,5.955,17.887,18.621     c0,12.798-7.722,18.754-17.887,18.754C109.33,159.035,101.607,153.079,101.607,140.281z M127.219,140.281     c0-11.093-5.341-11.64-7.723-11.64c-2.189,0-7.722,0.547-7.722,11.64c0,4.448,0.771,11.773,7.722,11.773     C126.509,152.055,127.219,144.659,127.219,140.281z"
   id="path53" />
		</g>
		<g
   id="g55">
			<path
   fill="#FFFFFF"
   d="M150.509,122.959l-0.063,4.178h0.194c3.797-4.996,8.106-5.478,10.552-5.478     c9.199,0,14.865,7.254,14.865,18.754c0,10.955-5.728,18.621-15.059,18.621c-1.288,0-6.691-0.341-9.908-4.86V170.4h-9.783v-47.441     H150.509z M158.296,152.055c5.663,0,7.593-5.752,7.593-11.773c0-9.724-4.697-11.64-7.593-11.64c-2.96,0-7.656,1.917-7.656,11.64     C150.64,146.303,152.57,152.055,158.296,152.055z"
   id="path57" />
		</g>
		<g
   id="g59">
			<path
   fill="#FFFFFF"
   d="M180.365,140.281c0-13.691,8.817-18.621,17.89-18.621c10.233,0,17.889,5.955,17.889,18.621     c0,12.798-7.72,18.754-17.889,18.754C188.089,159.035,180.365,153.079,180.365,140.281z M205.977,140.281     c0-11.093-5.342-11.64-7.722-11.64c-2.188,0-7.723,0.547-7.723,11.64c0,4.448,0.774,11.773,7.723,11.773     C205.268,152.055,205.977,144.659,205.977,140.281z"
   id="path61" />
		</g>
		<g
   id="g63">
			<path
   fill="#FFFFFF"
   d="M240.208,122.959c3.026,0,10.748,0,10.748,8.423c0,4.652-3.09,7.595-6.63,8.143v0.208     c5.407,1.299,7.786,3.627,7.786,9.101c0,7.121-4.89,8.901-11.968,8.901h-19.433v-34.776H240.208z M230.492,136.583h5.083     c1.61,0,5.342-0.136,5.342-3.216c0-2.876-2.382-3.424-5.147-3.424h-5.277V136.583z M230.492,150.752h6.115     c4.89,0,5.468-2.055,5.468-3.558c0-2.398-0.966-4.108-5.599-4.108h-5.984V150.752z"
   id="path65" />
		</g>
		<g
   id="g67">
			<path
   fill="#FFFFFF"
   d="M265.625,122.959v12.321h6.177c3.089,0,14.158-0.271,14.158,11.777c0,8.487-5.664,10.678-11.971,10.678     h-18.143v-34.776H265.625z M265.625,150.752h4.439c3.41,0,5.729-0.959,5.729-4.038c0-4.313-4.186-4.448-5.985-4.448h-4.183     V150.752z"
   id="path69" />
		</g>
		<g
   id="g71">
			<path
   fill="#FFFFFF"
   d="M323.792,147.672c-2.568,9.857-10.999,11.363-16.987,11.363c-4.309,0-17.565-0.959-17.565-18.754     c0-11.981,7.659-18.621,18.341-18.621c16.018,0,16.6,15.06,16.857,19.302l0.066,1.921h-25.098c0,3.353,1.543,9.172,7.853,9.172     c2.829,0,5.789-1.303,6.624-4.383H323.792z M314.337,137.064c-0.193-7.465-4.506-8.423-6.888-8.423     c-5.791,0-7.849,4.863-8.043,8.423H314.337z"
   id="path73" />
		</g>
	</g>
	<g
   id="g75">
		<g
   id="g77">
			<g
   id="g79">
				<path
   fill="#FFFFFF"
   d="M120.863,118.357c-1.192,0.912-2.565,1.446-4.122,1.527c-1.754,0.129-3.142-0.412-4.242-1.554      c-1.019-1.105-1.583-2.732-1.698-4.926c-0.135-2.62,0.7-4.978,2.506-7.155c1.808-2.141,3.989-3.26,6.541-3.434      c1.315-0.067,2.246,0.113,2.869,0.548c0.583,0.43,0.901,1.186,0.958,2.265c0.057,1.075-0.284,2.214-1.059,3.49      c-0.584,1.032-1.224,1.8-1.954,2.378c-0.655,0.498-1.744,1.095-3.303,1.87c-1.286,0.608-1.911,0.95-1.944,1.07      c0.037,0.691,0.466,1.246,1.293,1.747c0.657,0.351,1.31,0.548,1.947,0.514c0.918-0.01,1.979-0.374,3.223-1.056      c1.247-0.684,1.827-1.025,1.787-1.022c0.319-0.016,0.491,0.208,0.518,0.708C124.196,115.598,123.087,116.58,120.863,118.357z       M118.896,104.489c-1.199,0.024-2.271,0.929-3.223,2.639c-0.88,1.513-1.29,2.886-1.224,4.116      c0.038,0.734,0.298,1.105,0.776,1.079c0.681,0.003,1.609-0.585,2.829-1.731c1.487-1.389,2.167-2.929,2.119-4.625      C120.121,104.963,119.691,104.445,118.896,104.489z"
   id="path81" />
			</g>
		</g>
		<g
   id="g83">
			<g
   id="g85">
				<path
   fill="#FFFFFF"
   d="M107.974,116.677c-1.627,2.555-3.638,3.898-6.031,4.021c-1.875,0.1-3.253-0.254-4.177-1.092      c-0.842-0.805-1.356-2.208-1.463-4.249c-0.166-2.382,0.364-4.492,1.466-6.366c0.952-1.67,2.363-2.979,4.231-3.964      c0.196-0.09,0.434-0.137,0.709-0.19c0.241-0.017,0.636-0.074,1.27-0.225c0.31-0.17,0.622-0.34,0.968-0.587      c0.309-0.21,0.704-0.347,1.221-0.374c1.036-0.093,1.918,0.708,2.679,2.292c0.633,1.356,1.029,2.798,1.11,4.378      C110.104,112.322,109.415,114.439,107.974,116.677z M107.346,108.527c-0.118-0.688-0.219-1.105-0.346-1.252      c-0.173-0.26-0.58-0.357-1.297-0.357c-0.14,0.391-0.287,0.668-0.518,0.838c-0.08,0.003-0.551,0.143-1.413,0.498      c-0.368-0.137-0.712-0.581-1.032-1.336c-0.079,0.003-0.159,0.01-0.24-0.027c-0.638,0.037-1.319,0.765-1.926,2.184      c-0.606,1.383-0.813,2.786-0.776,4.249c0.057,1.076,0.424,1.987,1.104,2.759c0.68,0.737,1.46,1.119,2.377,1.071      c1.319-0.03,2.424-1.052,3.36-3.032c0.718-1.58,1.044-2.986,0.98-4.219C107.606,109.71,107.542,109.252,107.346,108.527z"
   id="path87" />
			</g>
		</g>
		<g
   id="g89">
			<g
   id="g91">
				<path
   fill="#FFFFFF"
   d="M86.699,121.38c-2.993,0.16-4.332-1.737-4.541-5.705c-0.06-1.152,0.104-3.363,0.321-4.569      c-0.354,0.096-0.587,0.26-1.146,0.29c-0.478,0.024-0.691-0.271-0.712-0.617c-0.056-1.08,1.129-1.373,2.138-1.967      c0.626-2.539,1.773-7.345,3.724-9.84c1.951-2.495,3.715-3.938,6.266-4.075c1.917-0.101,3.276,0.637,3.387,2.755      c0.197,3.774-3.551,7.057-6.435,9.292c1.663-0.318,5.743-0.341,5.947,3.587C95.876,114.84,91.724,121.12,86.699,121.38z       M89.392,108.657c-1.515,0.081-2.213,0.504-2.838,0.805c-0.4,1.526-0.461,4.191-0.417,5c0.08,1.544,0.546,3.564,2.501,3.46      c1.914-0.101,3.831-2.441,3.617-6.52C92.172,109.823,91.387,108.554,89.392,108.657z M91.726,96.727      c-1.358,0.034-2.263,1.085-3.158,3.1c-0.678,1.54-1.66,6.453-1.773,7.347c2.198-0.808,5.987-5.601,5.809-9.027      C92.549,97.147,92.366,96.693,91.726,96.727z"
   id="path93" />
			</g>
		</g>
		<g
   id="g95">
			<g
   id="g97">
				<path
   fill="#FFFFFF"
   d="M80.392,111.717c-0.182,2.631-0.265,4.104-0.25,4.412c0.017,0.311,0.244,1.567,0.721,3.785      c0.014,0.267-0.364,0.711-1.212,1.336c-0.768,0.58-1.431,0.924-1.991,0.954c-0.995,0.09-1.506-0.541-1.613-1.807      c-0.065-1.232,0.117-3.097,0.628-5.59c0.468-2.496,0.701-4.166,0.656-5.014c-0.01-0.966-0.474-1.404-1.273-1.4      c-0.479,0.023-1.097,0.441-1.932,1.3c-0.872,0.931-1.458,1.967-1.718,3.1c-0.263,1.091-0.396,3.142-0.593,6.242      c-0.098,1.934-0.965,2.946-2.639,3.073c-0.798,0.044-1.252-0.244-1.286-0.862c-0.076-0.728,0.151-2.474,0.647-5.24      c0.454-2.766,0.629-4.743,0.608-5.939c-0.028-0.538-0.283-0.835-0.764-0.808c-0.638-0.007-1.409,0.575-2.351,1.666      c-0.905,1.053-1.378,1.964-1.497,2.779c-0.188,1.707-0.458,4.191-0.885,7.495c0.01,0.234-0.296,0.481-0.959,0.822      c-0.584,0.3-1.055,0.444-1.453,0.501c-0.598,0.033-0.949-0.528-1.011-1.724c-0.151-2.151,0.383-6.426,1.368-12.842      c0.09-0.548,0.347-0.986,0.928-1.363c0.464-0.294,0.975-0.474,1.573-0.508c0.635-0.069,0.932,0.224,0.922,0.801      c-0.094,0.505-0.187,1.016-0.357,1.564c-0.132,0.547,0,0.808,0.483,0.825c0.038-0.004,0.729-0.577,2.146-1.777      c1.38-1.148,2.588-1.752,3.704-1.85c0.638-0.034,1.048,0.177,1.315,0.661c0.087,0.154,0.151,0.575,0.227,1.303      c0.023,0.46,0.156,0.688,0.478,0.708c0,0,0.691-0.538,2.112-1.653c1.424-1.079,2.554-1.64,3.391-1.724      c0.599-0.03,1.093,0.253,1.568,0.921c0.348,0.525,0.537,1.093,0.569,1.707C80.659,107.648,80.569,109.005,80.392,111.717z"
   id="path99" />
			</g>
		</g>
	</g>
</g>
</svg>