<?xml version="1.0" encoding="UTF-8" standalone="no"?>
<!-- Generator: Adobe Illustrator 15.0.2, SVG Export Plug-In . SVG Version: 6.00 Build 0)  -->

<svg
   xmlns:dc="http://purl.org/dc/elements/1.1/"
   xmlns:cc="http://creativecommons.org/ns#"
   xmlns:rdf="http://www.w3.org/1999/02/22-rdf-syntax-ns#"
   xmlns:svg="http://www.w3.org/2000/svg"
   xmlns="http://www.w3.org/2000/svg"
   xmlns:sodipodi="http://sodipodi.sourceforge.net/DTD/sodipodi-0.dtd"
   xmlns:inkscape="http://www.inkscape.org/namespaces/inkscape"
   version="1.1"
   id="Слой_1"
   x="0px"
   y="0px"
   width="340"
   height="255"
   viewBox="0 0 340.00001 255"
   enable-background="new 0 0 340.214 255.12"
   xml:space="preserve"
   inkscape:version="0.91 r13725"
   sodipodi:docname="viva.svg"><metadata
   id="metadata18"><rdf:RDF><cc:Work
       rdf:about=""><dc:format>image/svg+xml</dc:format><dc:type
         rdf:resource="http://purl.org/dc/dcmitype/StillImage" /><dc:title></dc:title></cc:Work></rdf:RDF></metadata><defs
   id="defs16" /><sodipodi:namedview
   pagecolor="#ffffff"
   bordercolor="#666666"
   borderopacity="1"
   objecttolerance="10"
   gridtolerance="10"
   guidetolerance="10"
   inkscape:pageopacity="0"
   inkscape:pageshadow="2"
   inkscape:window-width="1366"
   inkscape:window-height="745"
   id="namedview14"
   showgrid="false"
   inkscape:zoom="0.92505489"
   inkscape:cx="170.10699"
   inkscape:cy="126.47898"
   inkscape:window-x="-8"
   inkscape:window-y="-8"
   inkscape:window-maximized="1"
   inkscape:current-layer="Слой_1" />

<g
   id="XMLID_1_"
   transform="translate(-0.616,-0.11999512)">
	<polygon
   id="XMLID_40_"
   points="16.82,62.897 45.868,62.897 58.02,127.032 69.794,62.815 99.072,62.897 69.949,180.99 46.556,180.99 "
   style="fill:#ffffff" />
	<rect
   id="XMLID_38_"
   x="97.616997"
   y="82.310997"
   width="21.711"
   height="80.865997"
   style="fill:#ffffff" />
	<polygon
   id="XMLID_33_"
   points="121.195,82.275 143.407,163.3 161.731,163.279 183.615,82.311 161.446,82.275 152.579,125.883 143.25,82.311 "
   style="fill:#ffffff" />
	<path
   id="XMLID_12_"
   d="m 211.169,82.347 -18.001,0.036 -21.942,80.953 22.168,0 1.99,-10.551 13.684,-0.036 2.063,10.623 22.32,0.035 -22.282,-81.06 z m -12.804,51.712 3.441,-17.926 3.322,17.957 -6.763,-0.031 z"
   inkscape:connector-curvature="0"
   style="fill:#ffffff" />
	<g
   id="XMLID_3_">
		<path
   id="XMLID_10_"
   d="m 240.876,158.104 c 0,-3.611 2.439,-6.12 5.93,-6.12 3.419,0 5.79,2.438 5.854,6.12 0,3.493 -2.369,6.063 -5.988,6.063 -3.357,0 -5.796,-2.569 -5.796,-6.063 z"
   inkscape:connector-curvature="0"
   style="fill:#ffffff" />
		<path
   id="XMLID_8_"
   d="m 289.061,153.113 c 0,4.201 0.135,7.627 0.267,10.325 l -8.691,0 -0.461,-4.54 -0.192,0 c -1.257,1.965 -4.28,5.269 -10.076,5.269 -6.584,0 -11.32,-4.083 -11.32,-14.019 l 0,-18.9 10.006,0 0,17.316 c 0,4.667 1.515,7.503 5.066,7.503 2.766,0 4.413,-1.912 5.006,-3.492 0.263,-0.591 0.395,-1.308 0.395,-2.17 l 0,-19.157 10.002,0 0,21.865 z"
   inkscape:connector-curvature="0"
   style="fill:#ffffff" />
		<path
   id="XMLID_5_"
   d="m 323.885,155.673 c 0,3.026 0.133,5.991 0.527,7.766 l -9.017,0 -0.596,-3.221 -0.194,0 c -2.108,2.564 -5.4,3.949 -9.219,3.949 -6.517,0 -10.396,-4.744 -10.396,-9.874 0,-8.36 7.503,-12.31 18.886,-12.31 l 0,-0.396 c 0,-1.774 -0.919,-4.216 -5.854,-4.216 -3.29,0 -6.783,1.119 -8.886,2.441 l -1.842,-6.457 c 2.235,-1.246 6.646,-2.888 12.504,-2.888 10.729,0 14.086,6.314 14.086,13.946 l 0,11.26 z m -9.674,-7.432 c -5.266,0 -9.348,1.241 -9.348,5.063 0,2.569 1.71,3.82 3.947,3.82 2.438,0 4.54,-1.646 5.2,-3.692 0.135,-0.523 0.2,-1.123 0.2,-1.703 l 0,-3.488 z"
   inkscape:connector-curvature="0"
   style="fill:#ffffff" />
	</g>
</g>
</svg>