<?xml version="1.0" encoding="UTF-8" standalone="no"?>
<!-- Created with Inkscape (http://www.inkscape.org/) -->

<svg
   xmlns:dc="http://purl.org/dc/elements/1.1/"
   xmlns:cc="http://creativecommons.org/ns#"
   xmlns:rdf="http://www.w3.org/1999/02/22-rdf-syntax-ns#"
   xmlns:svg="http://www.w3.org/2000/svg"
   xmlns="http://www.w3.org/2000/svg"
   xmlns:sodipodi="http://sodipodi.sourceforge.net/DTD/sodipodi-0.dtd"
   xmlns:inkscape="http://www.inkscape.org/namespaces/inkscape"
   width="26"
   height="19"
   viewBox="0 0 26 19.000001"
   id="svg12110"
   version="1.1"
   inkscape:version="0.91 r13725"
   sodipodi:docname="email.svg">
  <defs
     id="defs12112" />
  <sodipodi:namedview
     id="base"
     pagecolor="#ffffff"
     bordercolor="#666666"
     borderopacity="1.0"
     inkscape:pageopacity="0.0"
     inkscape:pageshadow="2"
     inkscape:zoom="2.8"
     inkscape:cx="-2.0922789"
     inkscape:cy="35.331008"
     inkscape:document-units="px"
     inkscape:current-layer="layer1"
     showgrid="false"
     units="px"
     fit-margin-top="0"
     fit-margin-left="0"
     fit-margin-right="0"
     fit-margin-bottom="0"
     inkscape:window-width="1366"
     inkscape:window-height="745"
     inkscape:window-x="-8"
     inkscape:window-y="-8"
     inkscape:window-maximized="1" />
  <metadata
     id="metadata12115">
    <rdf:RDF>
      <cc:Work
         rdf:about="">
        <dc:format>image/svg+xml</dc:format>
        <dc:type
           rdf:resource="http://purl.org/dc/dcmitype/StillImage" />
        <dc:title></dc:title>
      </cc:Work>
    </rdf:RDF>
  </metadata>
  <g
     inkscape:label="Layer 1"
     inkscape:groupmode="layer"
     id="layer1"
     transform="translate(-173.01567,-965.37844)">
    <g
       transform="matrix(1.024,0,0,1.0381765,-1485.1523,-1093.9872)"
       id="g7743">
      <g
         id="g7745">
        <path
           id="path7747"
           style="fill:#000000;fill-opacity:0.93478262;stroke:#ffffff;stroke-width:0.38794881;stroke-miterlimit:10"
           d="m 1619.5,1983.83 0,17.916 25,0 0,-17.916 -25,0 z m 15.261,9.194 -2.271,2.278 c -0.274,0.257 -0.706,0.257 -0.971,0.013 l -2.28,-2.291 0.021,-0.021 -8.24,-8.339 21.967,0 -8.246,8.339 0.02,0.021 z m -6.71,-0.015 -7.717,7.426 0,-15.179 7.717,7.753 z m 0.588,0.593 2.302,2.311 c 0.294,0.275 0.675,0.413 1.056,0.413 0.384,0 0.771,-0.141 1.076,-0.425 l 2.289,-2.299 7.599,7.312 -21.924,0 7.602,-7.312 z m 7.31,-0.591 7.717,-7.755 0,15.179 -7.717,-7.424 z m 0,0"
           inkscape:connector-curvature="0" />
      </g>
    </g>
  </g>
</svg>
