<?xml version="1.0" encoding="UTF-8" standalone="no"?>
<!-- Created with Inkscape (http://www.inkscape.org/) -->

<svg
   xmlns:dc="http://purl.org/dc/elements/1.1/"
   xmlns:cc="http://creativecommons.org/ns#"
   xmlns:rdf="http://www.w3.org/1999/02/22-rdf-syntax-ns#"
   xmlns:svg="http://www.w3.org/2000/svg"
   xmlns="http://www.w3.org/2000/svg"
   xmlns:sodipodi="http://sodipodi.sourceforge.net/DTD/sodipodi-0.dtd"
   xmlns:inkscape="http://www.inkscape.org/namespaces/inkscape"
   width="24"
   height="24"
   viewBox="0 0 24.000001 24"
   id="svg12960"
   version="1.1"
   inkscape:version="0.91 r13725"
   sodipodi:docname="header-location.svg">
  <defs
     id="defs12962" />
  <sodipodi:namedview
     id="base"
     pagecolor="#ffffff"
     bordercolor="#666666"
     borderopacity="1.0"
     inkscape:pageopacity="0.0"
     inkscape:pageshadow="2"
     inkscape:zoom="2.8"
     inkscape:cx="-12.111927"
     inkscape:cy="44.398456"
     inkscape:document-units="px"
     inkscape:current-layer="layer1"
     showgrid="false"
     fit-margin-top="0"
     fit-margin-left="0"
     fit-margin-right="0"
     fit-margin-bottom="0"
     units="px"
     inkscape:window-width="1366"
     inkscape:window-height="745"
     inkscape:window-x="-8"
     inkscape:window-y="-8"
     inkscape:window-maximized="1" />
  <metadata
     id="metadata12965">
    <rdf:RDF>
      <cc:Work
         rdf:about="">
        <dc:format>image/svg+xml</dc:format>
        <dc:type
           rdf:resource="http://purl.org/dc/dcmitype/StillImage" />
        <dc:title></dc:title>
      </cc:Work>
    </rdf:RDF>
  </metadata>
  <g
     inkscape:label="Layer 1"
     inkscape:groupmode="layer"
     id="layer1"
     transform="translate(-389.02436,-783.21963)">
    <g
       transform="translate(-882.25714,714.60535)"
       id="g191">
      <g
         id="g193">
        <path
           id="path197"
           style="fill:#262626"
           d="m 1286.816,76.732 c 0,-1.952 -1.582,-3.534 -3.534,-3.534 -1.952,0 -3.534,1.582 -3.534,3.534 0,1.952 1.582,3.534 3.534,3.534 1.952,0 3.534,-1.582 3.534,-3.534 l 0,0 z m -5.953,0 c 0,-1.335 1.084,-2.418 2.419,-2.418 1.335,0 2.419,1.083 2.419,2.418 0,1.335 -1.084,2.418 -2.419,2.418 -1.335,0 -2.419,-1.083 -2.419,-2.418 l 0,0 z m 0,0 m 5.641,11.298 c 2.194,-3.659 4.896,-8.689 4.896,-11.297 0,-4.478 -3.641,-8.119 -8.118,-8.119 -4.477,0 -8.119,3.641 -8.119,8.119 0,2.654 2.8,7.818 5.014,11.492 0,0 2.537,4.006 2.645,4.151 0.145,0.193 0.568,0.423 0.927,0 0.112,-0.135 2.746,-4.334 2.755,-4.346 z m -3.222,3.026 c -1.631,-2.488 -6.998,-10.95 -6.998,-14.323 0,-3.861 3.143,-7.003 6.998,-7.003 3.86,0 7.003,3.143 7.003,7.003 0,3.372 -5.373,11.834 -7.003,14.323 z"
           inkscape:connector-curvature="0" />
      </g>
    </g>
  </g>
</svg>
