<?xml version="1.0" encoding="UTF-8" standalone="no"?>
<!-- Created with Inkscape (http://www.inkscape.org/) -->

<svg
   xmlns:dc="http://purl.org/dc/elements/1.1/"
   xmlns:cc="http://creativecommons.org/ns#"
   xmlns:rdf="http://www.w3.org/1999/02/22-rdf-syntax-ns#"
   xmlns:svg="http://www.w3.org/2000/svg"
   xmlns="http://www.w3.org/2000/svg"
   xmlns:sodipodi="http://sodipodi.sourceforge.net/DTD/sodipodi-0.dtd"
   xmlns:inkscape="http://www.inkscape.org/namespaces/inkscape"
   width="192"
   height="27"
   viewBox="0 0 192.00001 26.999999"
   id="svg12804"
   version="1.1"
   inkscape:version="0.91 r13725"
   sodipodi:docname="icons-sections.svg">
  <defs
     id="defs12806" />
  <sodipodi:namedview
     id="base"
     pagecolor="#ffffff"
     bordercolor="#666666"
     borderopacity="1.0"
     inkscape:pageopacity="0.0"
     inkscape:pageshadow="2"
     inkscape:zoom="0.98994949"
     inkscape:cx="-22.191472"
     inkscape:cy="-10.833752"
     inkscape:document-units="px"
     inkscape:current-layer="layer1"
     showgrid="false"
     fit-margin-top="0"
     fit-margin-left="0"
     fit-margin-right="0"
     fit-margin-bottom="0"
     units="px"
     inkscape:window-width="1366"
     inkscape:window-height="745"
     inkscape:window-x="-8"
     inkscape:window-y="-8"
     inkscape:window-maximized="1" />
  <metadata
     id="metadata12809">
    <rdf:RDF>
      <cc:Work
         rdf:about="">
        <dc:format>image/svg+xml</dc:format>
        <dc:type
           rdf:resource="http://purl.org/dc/dcmitype/StillImage" />
        <dc:title></dc:title>
      </cc:Work>
    </rdf:RDF>
  </metadata>
  <g
     inkscape:label="Layer 1"
     inkscape:groupmode="layer"
     id="layer1"
     transform="translate(-66.296,-481.71934)">
    <g
       transform="translate(-724.27399,235.89334)"
       id="g12779"
       style="fill:#2254a0;fill-opacity:1">
      <path
         style="fill:#2254a0;fill-opacity:1"
         inkscape:connector-curvature="0"
         d="m 811.247,246.381 -3.846,0 -2.441,0 -2.478,0 -1.553,0 -8.063,25.891 7.176,0 1.482,-5.215 9.374,0 1.498,5.215 7.434,0 -8.063,-25.891 -0.52,0 z m -7.936,14.388 2.198,-7.73 1.363,0 2.22,7.73 -5.781,0 z"
         id="XMLID_52_" />
      <path
         style="fill:#2254a0;fill-opacity:1"
         inkscape:connector-curvature="0"
         d="m 949.998,246.381 -3.847,0 -2.44,0 -2.479,0 -1.554,0 -8.063,25.891 7.176,0 1.482,-5.215 9.373,0 1.497,5.215 7.435,0 -8.063,-25.891 -0.517,0 z m -7.936,14.388 2.197,-7.73 1.363,0 2.22,7.73 -5.78,0 z"
         id="XMLID_49_" />
      <polygon
         style="fill:#2254a0;fill-opacity:1"
         points="826.116,246.381 822.269,246.381 822.269,272.271 829.296,272.271 829.296,253.039 840.355,253.039 840.355,246.381 829.296,246.381 "
         id="XMLID_32_" />
      <path
         style="fill:#2254a0;fill-opacity:1"
         inkscape:connector-curvature="0"
         d="m 855.076,246.381 -4.809,0 -3.181,0 -3.847,0 0,25.891 7.027,0 0,-7.619 4.809,0 c 6.547,0 9.875,-4.105 9.875,-9.136 0,-5.031 -3.327,-9.136 -9.874,-9.136 z m 0,11.984 -4.809,0 0,-5.696 4.809,0 c 1.923,0 2.848,1.294 2.848,2.848 0,1.553 -0.925,2.848 -2.848,2.848 z"
         id="XMLID_29_" />
      <path
         style="fill:#2254a0;fill-opacity:1"
         inkscape:connector-curvature="0"
         d="m 881.114,245.826 c -7.878,0 -13.869,5.844 -13.869,13.5 0,7.656 5.991,13.5 13.869,13.5 7.878,0 13.87,-5.844 13.87,-13.5 0,-7.656 -5.992,-13.5 -13.87,-13.5 z m 0,19.973 c -3.772,0 -6.473,-2.701 -6.473,-6.473 0,-3.773 2.7,-6.473 6.473,-6.473 3.773,0 6.473,2.7 6.473,6.473 0,3.772 -2.7,6.473 -6.473,6.473 z"
         id="XMLID_26_" />
      <polygon
         style="fill:#2254a0;fill-opacity:1"
         points="898.35,272.271 905.377,272.271 905.377,256.433 910.963,267.056 916.362,267.056 922.021,256.351 922.021,272.271 929.049,272.271 929.049,246.381 925.683,246.381 922.021,246.381 919.729,246.381 913.788,257.63 907.93,246.381 905.377,246.381 901.642,246.381 898.35,246.381 "
         id="XMLID_25_" />
      <polygon
         style="fill:#2254a0;fill-opacity:1"
         points="956.233,253.039 964.74,253.039 964.74,272.271 971.768,272.271 971.768,253.039 980.274,253.039 980.274,246.381 971.768,246.381 964.74,246.381 956.233,246.381 "
         id="XMLID_24_" />
    </g>
  </g>
</svg>
