<?xml version="1.0" encoding="UTF-8" standalone="no"?>
<!-- Created with Inkscape (http://www.inkscape.org/) -->

<svg
   xmlns:dc="http://purl.org/dc/elements/1.1/"
   xmlns:cc="http://creativecommons.org/ns#"
   xmlns:rdf="http://www.w3.org/1999/02/22-rdf-syntax-ns#"
   xmlns:svg="http://www.w3.org/2000/svg"
   xmlns="http://www.w3.org/2000/svg"
   xmlns:sodipodi="http://sodipodi.sourceforge.net/DTD/sodipodi-0.dtd"
   xmlns:inkscape="http://www.inkscape.org/namespaces/inkscape"
   width="398"
   height="50"
   viewBox="0 0 398 50"
   id="svg12140"
   version="1.1"
   inkscape:version="0.91 r13725"
   sodipodi:docname="logo-footer.svg">
  <defs
     id="defs12142" />
  <sodipodi:namedview
     id="base"
     pagecolor="#f2f2f2"
     bordercolor="#666666"
     borderopacity="1.0"
     inkscape:pageopacity="0"
     inkscape:pageshadow="2"
     inkscape:zoom="1.4"
     inkscape:cx="151.72802"
     inkscape:cy="36.318862"
     inkscape:document-units="px"
     inkscape:current-layer="layer1"
     showgrid="false"
     fit-margin-top="0"
     fit-margin-left="0"
     fit-margin-right="0"
     fit-margin-bottom="0"
     units="px"
     inkscape:window-width="1366"
     inkscape:window-height="745"
     inkscape:window-x="-8"
     inkscape:window-y="-8"
     inkscape:window-maximized="1" />
  <metadata
     id="metadata12145">
    <rdf:RDF>
      <cc:Work
         rdf:about="">
        <dc:format>image/svg+xml</dc:format>
        <dc:type
           rdf:resource="http://purl.org/dc/dcmitype/StillImage" />
        <dc:title></dc:title>
      </cc:Work>
    </rdf:RDF>
  </metadata>
  <g
     inkscape:label="Layer 1"
     inkscape:groupmode="layer"
     id="layer1"
     transform="translate(-40.41528,-159.9292)">
    <path
       id="XMLID_82_"
       transform="translate(-598.96622,-5639.4163)"
       style="fill:#ffffff"
       d="m 1011.638,5847.939 11.487,0 0,-31.439 13.906,0 0,-10.883 -13.906,0 -11.487,0 -13.907,0 0,10.883 13.907,0 z m -69.832,-26.025 0,26.025 11.488,0 0,-42.322 -5.502,0 -5.986,0 -3.747,0 -9.712,18.388 -9.576,-18.388 -4.172,0 -6.107,0 -5.381,0 0,42.322 11.488,0 0,-25.891 9.13,17.367 8.827,0 z m -66.868,-17.204 c -12.878,0 -22.673,9.553 -22.673,22.067 0,12.514 9.795,22.068 22.673,22.068 12.878,0 22.672,-9.554 22.672,-22.068 0,-12.514 -9.795,-22.067 -22.672,-22.067 z m 0,32.649 c -6.167,0 -10.581,-4.414 -10.581,-10.581 0,-6.167 4.414,-10.581 10.581,-10.581 6.167,0 10.58,4.414 10.58,10.581 0,6.167 -4.414,10.581 -10.58,10.581 z m -42.565,-31.742 -7.86,0 -5.199,0 -6.288,0 0,42.322 11.487,0 0,-12.455 7.86,0 c 10.701,0 16.143,-6.711 16.143,-14.934 0,-8.223 -5.442,-14.933 -16.143,-14.933 z m 0,19.59 -7.86,0 0,-9.312 7.86,0 c 3.144,0 4.655,2.116 4.655,4.655 0,2.54 -1.511,4.657 -4.655,4.657 z m -24.063,-19.59 -18.078,0 -5.199,0 -6.288,0 0,42.322 11.487,0 0,-31.439 18.078,0 z m 179.229,0 -6.288,0 -3.99,0 -4.051,0 -2.539,0 -13.181,42.322 11.729,0 2.424,-8.524 15.322,0 2.447,8.524 12.153,0 -13.181,-42.322 -0.845,0 z m -12.974,23.519 3.592,-12.637 2.229,0 3.629,12.637 -9.45,0 z m -213.837,-23.519 -6.288,0 -3.991,0 -4.051,0 -2.539,0 -13.181,42.322 11.729,0 2.423,-8.524 15.323,0 2.448,8.524 12.152,0 -13.18,-42.322 -0.845,0 z m -12.974,23.519 3.592,-12.637 2.228,0 3.629,12.637 -9.449,0 z m -62.156,2.739 -2.064,-3.553 -0.483,-0.833 -1.873,-3.222 -6.479,-11.151 15.26,-8.866 10.899,18.758 -14.102,8.194 -1.158,0.673 z m -2.064,13.263 -21.695,0 0,-11.057 3.83,-6.592 13.654,0 4.21,7.246 0,10.403 z m -24.917,-13.715 -14.481,-8.415 10.898,-18.758 15.26,8.866 -6.479,11.151 -1.872,3.222 -0.104,0.18 -2.444,4.206 -0.778,-0.452 z m 13.88,-15.683 4.955,8.528 -9.911,0 4.956,-8.528 z m 18.628,-15.894 -18.629,10.823 -18.628,-10.823 -14.136,24.329 18.886,10.975 0,13.211 28.139,0 0,-13.433 18.506,-10.753 -14.138,-24.329 z" />
  </g>
</svg>
