<?xml version="1.0" encoding="UTF-8" standalone="no"?>
<!-- Created with Inkscape (http://www.inkscape.org/) -->

<svg
   xmlns:dc="http://purl.org/dc/elements/1.1/"
   xmlns:cc="http://creativecommons.org/ns#"
   xmlns:rdf="http://www.w3.org/1999/02/22-rdf-syntax-ns#"
   xmlns:svg="http://www.w3.org/2000/svg"
   xmlns="http://www.w3.org/2000/svg"
   xmlns:sodipodi="http://sodipodi.sourceforge.net/DTD/sodipodi-0.dtd"
   xmlns:inkscape="http://www.inkscape.org/namespaces/inkscape"
   width="224"
   height="54"
   viewBox="0 0 224 54"
   id="svg12140"
   version="1.1"
   inkscape:version="0.91 r13725"
   sodipodi:docname="logo-header.svg">
  <defs
     id="defs12142" />
  <sodipodi:namedview
     id="base"
     pagecolor="#f2f2f2"
     bordercolor="#666666"
     borderopacity="1.0"
     inkscape:pageopacity="0"
     inkscape:pageshadow="2"
     inkscape:zoom="1.4"
     inkscape:cx="219.82209"
     inkscape:cy="21.080005"
     inkscape:document-units="px"
     inkscape:current-layer="layer1"
     showgrid="false"
     fit-margin-top="0"
     fit-margin-left="0"
     fit-margin-right="0"
     fit-margin-bottom="0"
     units="px"
     inkscape:window-width="1366"
     inkscape:window-height="745"
     inkscape:window-x="-8"
     inkscape:window-y="-8"
     inkscape:window-maximized="1" />
  <metadata
     id="metadata12145">
    <rdf:RDF>
      <cc:Work
         rdf:about="">
        <dc:format>image/svg+xml</dc:format>
        <dc:type
           rdf:resource="http://purl.org/dc/dcmitype/StillImage" />
        <dc:title></dc:title>
      </cc:Work>
    </rdf:RDF>
  </metadata>
  <g
     inkscape:label="Layer 1"
     inkscape:groupmode="layer"
     id="layer1"
     transform="translate(161.25022,-141.40463)">
    <path
       id="XMLID_2_"
       style="fill:#0061af"
       d="m 40.32328,150.76563 7.817,0 0,17.673 6.458,0 0,-17.673 7.817,0 0,-6.117 -7.817,0 -6.458,0 -7.817,0 z m -24.979,17.673 0,-23.79 -3.093,0 -3.365,0 -2.107,0 -5.458,10.336 -5.383,-10.336 -2.345,0 -3.433,0 -3.025,0 0,23.79 6.458,0 0,-14.554 5.132,9.762 4.962,0 5.199,-9.837 0,14.629 z m -44.046,-24.3 c -7.239,0 -12.745,5.37 -12.745,12.405 0,7.035 5.505,12.405 12.745,12.405 7.239,0 12.745,-5.37 12.745,-12.405 0,-7.035 -5.506,-12.405 -12.745,-12.405 z m 0,18.353 c -3.467,0 -5.948,-2.481 -5.948,-5.948 0,-3.467 2.481,-5.947 5.948,-5.947 3.467,0 5.948,2.481 5.948,5.947 0,3.466 -2.481,5.948 -5.948,5.948 z m -23.926,-17.843 -4.418,0 -2.922,0 -3.535,0 0,23.791 6.457,0 0,-7.001 4.418,0 c 6.016,0 9.074,-3.772 9.074,-8.395 0,-4.623 -3.059,-8.395 -9.074,-8.395 z m 0,11.011 -4.418,0 0,-5.234 4.418,0 c 1.767,0 2.617,1.189 2.617,2.617 -10e-4,1.428 -0.85,2.617 -2.617,2.617 z m -13.527,-11.011 -10.162,0 -2.923,0 -3.534,0 0,23.79 6.457,0 0,-17.673 10.162,0 z m 100.749,0 -3.535,0 -2.243,0 -2.277,0 -1.427,0 -7.409,23.791 6.594,0 1.362,-4.792 8.613,0 1.376,4.792 6.832,0 -7.409,-23.791 -0.477,0 z m -7.293,13.22 2.02,-7.103 1.252,0 2.04,7.103 -5.312,0 z m -120.203,-13.22 -3.534,0 -2.243,0 -2.277,0 -1.427,0 -7.41,23.791 6.594,0 1.362,-4.792 8.613,0 1.376,4.792 6.831,0 -7.409,-23.791 -0.476,0 z m -7.293,13.22 2.019,-7.103 1.253,0 2.04,7.103 -5.312,0 z m 159.511,33.049 c 0.096,0.562 0.479,0.897 0.945,0.897 0.562,0 0.897,-0.407 0.897,-0.945 0,-0.574 -0.335,-0.969 -0.861,-0.969 -0.204,0 -0.383,0.048 -0.539,0.131 l -0.586,-0.742 1.089,-1.472 -1.819,0 0,-1.077 3.577,0 0,0.395 -1.495,1.915 c 0.036,-0.012 0.072,-0.012 0.107,-0.012 l 0.072,0 c 0.909,0 1.627,0.706 1.627,1.855 0,1.244 -0.921,1.974 -2.07,1.974 -1.101,0 -2.046,-0.706 -2.142,-1.771 l 1.198,-0.179 z m -4.583,-1.855 1.041,0 0,-0.264 c 0,-0.753 -0.539,-1.053 -1.173,-1.053 -0.49,0 -0.921,0.263 -1.125,0.802 l -1.137,-0.239 c 0.251,-1.017 1.113,-1.663 2.273,-1.663 1.4,0 2.405,0.61 2.405,2.381 l 0,3.745 -1.053,0 -0.12,-0.79 c -0.395,0.563 -1.005,0.886 -1.867,0.886 -1.005,0 -1.854,-0.575 -1.854,-1.831 0.002,-1.244 1.067,-1.974 2.61,-1.974 z m -0.538,2.704 c 0.766,0 1.58,-0.49 1.58,-1.531 l 0,-0.132 -1.089,0 c -0.766,0 -1.244,0.359 -1.244,0.933 -10e-4,0.419 0.226,0.73 0.753,0.73 z m -8.758,3.446 0,-8.471 1.244,0 0,0.694 c 0.191,-0.347 0.85,-0.79 1.639,-0.79 1.783,0 2.692,1.185 2.692,3.111 0,1.866 -0.897,3.111 -2.716,3.111 -0.754,0 -1.34,-0.371 -1.615,-0.766 l 0,3.111 -1.244,0 z m 2.716,-3.446 c 0.897,0 1.543,-0.766 1.543,-2.01 0,-1.245 -0.646,-2.01 -1.543,-2.01 -0.897,0 -1.543,0.766 -1.543,2.01 -0.001,1.244 0.645,2.01 1.543,2.01 z m -6.545,-2.704 1.041,0 0,-0.264 c 0,-0.753 -0.538,-1.053 -1.172,-1.053 -0.491,0 -0.921,0.263 -1.125,0.802 l -1.136,-0.239 c 0.251,-1.017 1.112,-1.663 2.273,-1.663 1.4,0 2.405,0.61 2.405,2.381 l 0,3.745 -1.053,0 -0.12,-0.79 c -0.395,0.563 -1.005,0.886 -1.866,0.886 -1.005,0 -1.854,-0.575 -1.854,-1.831 -0.001,-1.244 1.064,-1.974 2.607,-1.974 z m -0.538,2.704 c 0.766,0 1.579,-0.49 1.579,-1.531 l 0,-0.132 -1.089,0 c -0.766,0 -1.244,0.359 -1.244,0.933 0,0.419 0.227,0.73 0.754,0.73 z m -6.15,-0.849 c 0.096,0.562 0.479,0.897 0.945,0.897 0.562,0 0.897,-0.407 0.897,-0.945 0,-0.574 -0.335,-0.969 -0.862,-0.969 -0.203,0 -0.383,0.048 -0.539,0.131 l -0.586,-0.742 1.089,-1.472 -1.819,0 0,-1.077 3.577,0 0,0.395 -1.495,1.915 c 0.036,-0.012 0.072,-0.012 0.107,-0.012 l 0.072,0 c 0.909,0 1.627,0.706 1.627,1.855 0,1.244 -0.921,1.974 -2.07,1.974 -1.101,0 -2.046,-0.706 -2.142,-1.771 l 1.199,-0.179 z m -6.449,-6.749 c 0.491,0 0.861,0.395 0.861,0.874 0,0.479 -0.371,0.85 -0.861,0.85 -0.49,0 -0.861,-0.371 -0.861,-0.85 0,-0.479 0.37,-0.874 0.861,-0.874 z m -0.622,8.603 0,-6.03 1.244,0 0,6.03 -1.244,0 z m -8.962,-4.929 0,-1.101 4.487,0 0,1.101 -1.627,0 0,4.93 -1.244,0 0,-4.93 -1.616,0 z m -5.707,-1.101 1.316,0 1.424,4.056 1.375,-4.056 1.316,0 -3.051,8.471 -1.244,0 0.981,-2.74 -2.117,-5.731 z m -5.216,1.101 0,-1.101 4.487,0 0,1.101 -1.627,0 0,4.93 -1.245,0 0,-4.93 -1.615,0 z m -6.521,1.22 1.041,0 0,-0.264 c 0,-0.753 -0.539,-1.053 -1.173,-1.053 -0.49,0 -0.921,0.263 -1.125,0.802 l -1.137,-0.239 c 0.251,-1.017 1.113,-1.663 2.273,-1.663 1.4,0 2.405,0.61 2.405,2.381 l 0,3.745 -1.053,0 -0.12,-0.79 c -0.395,0.563 -1.005,0.886 -1.866,0.886 -1.005,0 -1.854,-0.575 -1.854,-1.831 0.001,-1.244 1.066,-1.974 2.609,-1.974 z m -0.539,2.704 c 0.766,0 1.58,-0.49 1.58,-1.531 l 0,-0.132 -1.089,0 c -0.766,0 -1.244,0.359 -1.244,0.933 0,0.419 0.227,0.73 0.753,0.73 z m -7.848,1.005 0,-6.03 1.244,0 0,2.405 2.178,-2.405 1.579,0 -2.524,2.776 2.68,3.254 -1.58,0 -2.333,-2.884 0,2.884 -1.244,0 z m -2.62,-8.603 c 0.49,0 0.861,0.395 0.861,0.874 0,0.479 -0.371,0.85 -0.861,0.85 -0.491,0 -0.861,-0.371 -0.861,-0.85 -10e-4,-0.479 0.37,-0.874 0.861,-0.874 z m -0.622,8.603 0,-6.03 1.244,0 0,6.03 -1.244,0 z m -6.785,0 0,-6.03 1.244,0 0,2.273 2.297,0 0,-2.273 1.244,0 0,6.03 -1.244,0 0,-2.656 -2.297,0 0,2.656 -1.244,0 z m -6.496,0 1.986,-3.183 -1.771,-2.848 1.34,0 1.101,1.771 1.101,-1.771 1.34,0 -1.771,2.848 1.986,3.183 -1.34,0 -1.316,-2.106 -1.316,2.106 -1.34,0 z m -3.446,-6.126 c 1.926,0 2.776,1.567 2.776,2.919 l 0,0.538 -4.271,0 c 0,0.885 0.502,1.663 1.496,1.663 0.658,0 1.256,-0.347 1.58,-1.017 l 1.064,0.418 c -0.574,1.137 -1.28,1.699 -2.644,1.699 -1.974,0 -2.812,-1.663 -2.812,-3.111 0,-1.422 0.837,-3.109 2.811,-3.109 z m 1.46,2.417 c -0.096,-0.67 -0.562,-1.316 -1.459,-1.316 -0.826,0 -1.34,0.55 -1.472,1.316 l 2.931,0 z m -9.356,-1.22 0,-1.101 4.486,0 0,1.101 -1.627,0 0,4.93 -1.244,0 0,-4.93 -1.615,0 z m -6.091,4.929 0,-6.03 1.244,0 0,2.273 2.297,0 0,-2.273 1.244,0 0,6.03 -1.244,0 0,-2.656 -2.297,0 0,2.656 -1.244,0 z m -3.936,-3.709 1.041,0 0,-0.264 c 0,-0.753 -0.539,-1.053 -1.172,-1.053 -0.491,0 -0.921,0.263 -1.125,0.802 l -1.137,-0.239 c 0.251,-1.017 1.112,-1.663 2.273,-1.663 1.4,0 2.405,0.61 2.405,2.381 l 0,3.745 -1.053,0 -0.12,-0.79 c -0.395,0.563 -1.005,0.886 -1.866,0.886 -1.005,0 -1.855,-0.575 -1.855,-1.831 0,-1.244 1.065,-1.974 2.609,-1.974 z m -0.538,2.704 c 0.766,0 1.579,-0.49 1.579,-1.531 l 0,-0.132 -1.089,0 c -0.766,0 -1.244,0.359 -1.244,0.933 0,0.419 0.227,0.73 0.754,0.73 z m -5.66,-5.121 c 1.292,0 2.129,0.563 2.608,1.663 l -1.113,0.479 c -0.287,-0.658 -0.777,-1.041 -1.495,-1.041 -1.053,0 -1.52,0.874 -1.52,2.01 0,1.136 0.466,2.01 1.52,2.01 0.718,0 1.208,-0.383 1.495,-1.041 l 1.113,0.479 c -0.479,1.101 -1.316,1.663 -2.608,1.663 -1.915,0 -2.836,-1.448 -2.836,-3.111 0,-1.663 0.922,-3.111 2.836,-3.111 z m -9.523,2.417 1.041,0 0,-0.264 c 0,-0.753 -0.539,-1.053 -1.173,-1.053 -0.491,0 -0.921,0.263 -1.125,0.802 l -1.137,-0.239 c 0.251,-1.017 1.113,-1.663 2.273,-1.663 1.4,0 2.405,0.61 2.405,2.381 l 0,3.745 -1.053,0 -0.12,-0.79 c -0.395,0.563 -1.005,0.886 -1.866,0.886 -1.005,0 -1.854,-0.575 -1.854,-1.831 0,-1.244 1.065,-1.974 2.609,-1.974 z m -0.539,2.704 c 0.766,0 1.58,-0.49 1.58,-1.531 l 0,-0.132 -1.089,0 c -0.766,0 -1.245,0.359 -1.245,0.933 0,0.419 0.228,0.73 0.754,0.73 z m -7.334,-3.924 0,-1.101 4.487,0 0,1.101 -1.627,0 0,4.93 -1.245,0 0,-4.93 -1.615,0 z m -6.521,1.22 1.041,0 0,-0.264 c 0,-0.753 -0.539,-1.053 -1.173,-1.053 -0.49,0 -0.921,0.263 -1.125,0.802 l -1.137,-0.239 c 0.251,-1.017 1.113,-1.663 2.273,-1.663 1.4,0 2.405,0.61 2.405,2.381 l 0,3.745 -1.053,0 -0.12,-0.79 c -0.395,0.563 -1.005,0.886 -1.867,0.886 -1.005,0 -1.854,-0.575 -1.854,-1.831 0.002,-1.244 1.067,-1.974 2.61,-1.974 z m -0.538,2.704 c 0.766,0 1.579,-0.49 1.579,-1.531 l 0,-0.132 -1.089,0 c -0.766,0 -1.244,0.359 -1.244,0.933 0,0.419 0.227,0.73 0.754,0.73 z m -7.849,1.005 0,-6.03 1.244,0 0,2.405 2.178,-2.405 1.579,0 -2.524,2.776 2.68,3.254 -1.579,0 -2.333,-2.884 0,2.884 -1.245,0 z m -5.624,-4.929 0,-1.101 4.487,0 0,1.101 -1.627,0 0,4.93 -1.244,0 0,-4.93 -1.616,0 z m -6.329,4.929 0,-6.03 1.245,0 0,4.08 2.405,-4.08 1.376,0 0,6.03 -1.245,0 0,-4.08 -2.404,4.08 -1.377,0 z m -7.526,-1.101 c 0.706,0 1.077,-0.275 1.137,-0.909 l 0.395,-4.02 4.188,0 0,6.03 -1.244,0 0,-4.93 -1.843,0 -0.359,3.35 c -0.156,1.352 -0.945,1.58 -2.273,1.58 l 0,-1.101 z m -7.023,1.101 0,-8.375 6.03,0 0,8.375 -1.316,0 0,-7.131 -3.398,0 0,7.131 -1.316,0 z m -25.294,-33.363 -1.16,-1.997 -0.272,-0.468 -1.053,-1.812 -3.642,-6.269 8.578,-4.984 6.127,10.544 -7.927,4.606 -0.651,0.38 z m -1.16,7.456 -12.195,0 0,-6.215 2.153,-3.705 7.676,0 2.367,4.073 0,5.847 z m -14.007,-7.71 -8.141,-4.73 6.127,-10.544 8.578,4.984 -3.642,6.269 -1.053,1.812 -0.058,0.1 -1.374,2.365 -0.437,-0.256 z m 7.802,-8.816 2.786,4.794 -5.571,0 2.785,-4.794 z m 10.472,-8.934 -10.472,6.084 -10.471,-6.084 -7.946,13.676 10.616,6.168 0,7.427 15.817,0 0,-7.551 10.403,-6.044 -7.947,-13.676 z"
       inkscape:connector-curvature="0" />
  </g>
</svg>
