<?xml version="1.0" encoding="UTF-8" standalone="no"?>
<!-- Created with Inkscape (http://www.inkscape.org/) -->

<svg
   xmlns:dc="http://purl.org/dc/elements/1.1/"
   xmlns:cc="http://creativecommons.org/ns#"
   xmlns:rdf="http://www.w3.org/1999/02/22-rdf-syntax-ns#"
   xmlns:svg="http://www.w3.org/2000/svg"
   xmlns="http://www.w3.org/2000/svg"
   xmlns:sodipodi="http://sodipodi.sourceforge.net/DTD/sodipodi-0.dtd"
   xmlns:inkscape="http://www.inkscape.org/namespaces/inkscape"
   width="404"
   height="144"
   viewBox="0 0 404 144"
   id="svg12140"
   version="1.1"
   inkscape:version="0.91 r13725"
   sodipodi:docname="logo.svg">
  <defs
     id="defs12142" />
  <sodipodi:namedview
     id="base"
     pagecolor="#f2f2f2"
     bordercolor="#666666"
     borderopacity="1.0"
     inkscape:pageopacity="0"
     inkscape:pageshadow="2"
     inkscape:zoom="1.4"
     inkscape:cx="155.07852"
     inkscape:cy="37.511948"
     inkscape:document-units="px"
     inkscape:current-layer="layer1"
     showgrid="false"
     fit-margin-top="0"
     fit-margin-left="0"
     fit-margin-right="0"
     fit-margin-bottom="0"
     units="px"
     inkscape:window-width="1366"
     inkscape:window-height="745"
     inkscape:window-x="-8"
     inkscape:window-y="-8"
     inkscape:window-maximized="1" />
  <metadata
     id="metadata12145">
    <rdf:RDF>
      <cc:Work
         rdf:about="">
        <dc:format>image/svg+xml</dc:format>
        <dc:type
           rdf:resource="http://purl.org/dc/dcmitype/StillImage" />
        <dc:title></dc:title>
      </cc:Work>
    </rdf:RDF>
  </metadata>
  <g
     inkscape:label="Layer 1"
     inkscape:groupmode="layer"
     id="layer1"
     transform="translate(-37.06478,-67.122286)">
    <g
       id="g13867"
       transform="translate(3.3505,-1.193063)">
      <g
         transform="translate(-138.40222,14.986349)"
         id="g12099">
        <g
           id="g19">
          <path
             style="fill:#0061af"
             inkscape:connector-curvature="0"
             d="m 288.233,71.333 -1.16,-1.997 -0.272,-0.468 -1.053,-1.812 -3.642,-6.269 8.578,-4.984 6.127,10.544 -7.927,4.606 -0.651,0.38 z m -1.16,7.456 -12.195,0 0,-6.215 2.153,-3.705 7.676,0 2.367,4.073 0,5.847 z m -14.007,-7.71 -8.141,-4.73 6.127,-10.544 8.578,4.984 -3.642,6.269 -1.053,1.812 -0.058,0.1 -1.374,2.365 -0.437,-0.256 z m 7.802,-8.816 2.786,4.794 -5.571,0 2.785,-4.794 z m 10.472,-8.934 -10.472,6.084 -10.471,-6.084 -7.946,13.676 10.616,6.168 0,7.427 15.817,0 0,-7.551 10.403,-6.044 -7.947,-13.676 z"
             id="path21" />
          <g
             id="g23">
            <g
               id="g25">
              <path
                 style="fill:#0061af"
                 inkscape:connector-curvature="0"
                 d="m 313.527,104.696 0,-8.375 6.03,0 0,8.375 -1.316,0 0,-7.131 -3.398,0 0,7.131 -1.316,0 z"
                 id="path27" />
              <path
                 style="fill:#0061af"
                 inkscape:connector-curvature="0"
                 d="m 320.55,103.595 c 0.706,0 1.077,-0.275 1.137,-0.909 l 0.395,-4.02 4.188,0 0,6.03 -1.244,0 0,-4.93 -1.843,0 -0.359,3.35 c -0.156,1.352 -0.945,1.58 -2.273,1.58 l 0,-1.101 z"
                 id="path29" />
              <path
                 style="fill:#0061af"
                 inkscape:connector-curvature="0"
                 d="m 328.076,104.696 0,-6.03 1.245,0 0,4.08 2.405,-4.08 1.376,0 0,6.03 -1.245,0 0,-4.08 -2.404,4.08 -1.377,0 z"
                 id="path31" />
              <path
                 style="fill:#0061af"
                 inkscape:connector-curvature="0"
                 d="m 334.405,99.767 0,-1.101 4.487,0 0,1.101 -1.627,0 0,4.93 -1.244,0 0,-4.93 -1.616,0 z"
                 id="path33" />
              <path
                 style="fill:#0061af"
                 inkscape:connector-curvature="0"
                 d="m 340.029,104.696 0,-6.03 1.244,0 0,2.405 2.178,-2.405 1.579,0 -2.524,2.776 2.68,3.254 -1.579,0 -2.333,-2.884 0,2.884 -1.245,0 z"
                 id="path35" />
              <path
                 style="fill:#0061af"
                 inkscape:connector-curvature="0"
                 d="m 348.416,100.987 1.041,0 0,-0.264 c 0,-0.753 -0.539,-1.053 -1.173,-1.053 -0.49,0 -0.921,0.263 -1.125,0.802 l -1.137,-0.239 c 0.251,-1.017 1.113,-1.663 2.273,-1.663 1.4,0 2.405,0.61 2.405,2.381 l 0,3.745 -1.053,0 -0.12,-0.79 c -0.395,0.563 -1.005,0.886 -1.867,0.886 -1.005,0 -1.854,-0.575 -1.854,-1.831 0.002,-1.244 1.067,-1.974 2.61,-1.974 z m -0.538,2.704 c 0.766,0 1.579,-0.49 1.579,-1.531 l 0,-0.132 -1.089,0 c -0.766,0 -1.244,0.359 -1.244,0.933 0,0.419 0.227,0.73 0.754,0.73 z"
                 id="path37" />
              <path
                 style="fill:#0061af"
                 inkscape:connector-curvature="0"
                 d="m 354.937,99.767 0,-1.101 4.487,0 0,1.101 -1.627,0 0,4.93 -1.245,0 0,-4.93 -1.615,0 z"
                 id="path39" />
              <path
                 style="fill:#0061af"
                 inkscape:connector-curvature="0"
                 d="m 362.81,100.987 1.041,0 0,-0.264 c 0,-0.753 -0.539,-1.053 -1.173,-1.053 -0.491,0 -0.921,0.263 -1.125,0.802 l -1.137,-0.239 c 0.251,-1.017 1.113,-1.663 2.273,-1.663 1.4,0 2.405,0.61 2.405,2.381 l 0,3.745 -1.053,0 -0.12,-0.79 c -0.395,0.563 -1.005,0.886 -1.866,0.886 -1.005,0 -1.854,-0.575 -1.854,-1.831 0,-1.244 1.065,-1.974 2.609,-1.974 z m -0.539,2.704 c 0.766,0 1.58,-0.49 1.58,-1.531 l 0,-0.132 -1.089,0 c -0.766,0 -1.245,0.359 -1.245,0.933 0,0.419 0.228,0.73 0.754,0.73 z"
                 id="path41" />
              <path
                 style="fill:#0061af"
                 inkscape:connector-curvature="0"
                 d="m 372.333,98.57 c 1.292,0 2.129,0.563 2.608,1.663 l -1.113,0.479 c -0.287,-0.658 -0.777,-1.041 -1.495,-1.041 -1.053,0 -1.52,0.874 -1.52,2.01 0,1.136 0.466,2.01 1.52,2.01 0.718,0 1.208,-0.383 1.495,-1.041 l 1.113,0.479 c -0.479,1.101 -1.316,1.663 -2.608,1.663 -1.915,0 -2.836,-1.448 -2.836,-3.111 0,-1.663 0.922,-3.111 2.836,-3.111 z"
                 id="path43" />
              <path
                 style="fill:#0061af"
                 inkscape:connector-curvature="0"
                 d="m 378.531,100.987 1.041,0 0,-0.264 c 0,-0.753 -0.539,-1.053 -1.172,-1.053 -0.491,0 -0.921,0.263 -1.125,0.802 l -1.137,-0.239 c 0.251,-1.017 1.112,-1.663 2.273,-1.663 1.4,0 2.405,0.61 2.405,2.381 l 0,3.745 -1.053,0 -0.12,-0.79 c -0.395,0.563 -1.005,0.886 -1.866,0.886 -1.005,0 -1.855,-0.575 -1.855,-1.831 0,-1.244 1.065,-1.974 2.609,-1.974 z m -0.538,2.704 c 0.766,0 1.579,-0.49 1.579,-1.531 l 0,-0.132 -1.089,0 c -0.766,0 -1.244,0.359 -1.244,0.933 0,0.419 0.227,0.73 0.754,0.73 z"
                 id="path45" />
              <path
                 style="fill:#0061af"
                 inkscape:connector-curvature="0"
                 d="m 382.467,104.696 0,-6.03 1.244,0 0,2.273 2.297,0 0,-2.273 1.244,0 0,6.03 -1.244,0 0,-2.656 -2.297,0 0,2.656 -1.244,0 z"
                 id="path47" />
              <path
                 style="fill:#0061af"
                 inkscape:connector-curvature="0"
                 d="m 388.558,99.767 0,-1.101 4.486,0 0,1.101 -1.627,0 0,4.93 -1.244,0 0,-4.93 -1.615,0 z"
                 id="path49" />
              <path
                 style="fill:#0061af"
                 inkscape:connector-curvature="0"
                 d="m 396.454,98.57 c 1.926,0 2.776,1.567 2.776,2.919 l 0,0.538 -4.271,0 c 0,0.885 0.502,1.663 1.496,1.663 0.658,0 1.256,-0.347 1.58,-1.017 l 1.064,0.418 c -0.574,1.137 -1.28,1.699 -2.644,1.699 -1.974,0 -2.812,-1.663 -2.812,-3.111 0,-1.422 0.837,-3.109 2.811,-3.109 z m 1.46,2.417 c -0.096,-0.67 -0.562,-1.316 -1.459,-1.316 -0.826,0 -1.34,0.55 -1.472,1.316 l 2.931,0 z"
                 id="path51" />
              <path
                 style="fill:#0061af"
                 inkscape:connector-curvature="0"
                 d="m 399.9,104.696 1.986,-3.183 -1.771,-2.848 1.34,0 1.101,1.771 1.101,-1.771 1.34,0 -1.771,2.848 1.986,3.183 -1.34,0 -1.316,-2.106 -1.316,2.106 -1.34,0 z"
                 id="path53" />
              <path
                 style="fill:#0061af"
                 inkscape:connector-curvature="0"
                 d="m 406.396,104.696 0,-6.03 1.244,0 0,2.273 2.297,0 0,-2.273 1.244,0 0,6.03 -1.244,0 0,-2.656 -2.297,0 0,2.656 -1.244,0 z"
                 id="path55" />
              <path
                 style="fill:#0061af"
                 inkscape:connector-curvature="0"
                 d="m 413.803,96.093 c 0.49,0 0.861,0.395 0.861,0.874 0,0.479 -0.371,0.85 -0.861,0.85 -0.491,0 -0.861,-0.371 -0.861,-0.85 -0.001,-0.479 0.37,-0.874 0.861,-0.874 z m -0.622,8.603 0,-6.03 1.244,0 0,6.03 -1.244,0 z"
                 id="path57" />
              <path
                 style="fill:#0061af"
                 inkscape:connector-curvature="0"
                 d="m 416.423,104.696 0,-6.03 1.244,0 0,2.405 2.178,-2.405 1.579,0 -2.524,2.776 2.68,3.254 -1.58,0 -2.333,-2.884 0,2.884 -1.244,0 z"
                 id="path59" />
              <path
                 style="fill:#0061af"
                 inkscape:connector-curvature="0"
                 d="m 424.81,100.987 1.041,0 0,-0.264 c 0,-0.753 -0.539,-1.053 -1.173,-1.053 -0.49,0 -0.921,0.263 -1.125,0.802 l -1.137,-0.239 c 0.251,-1.017 1.113,-1.663 2.273,-1.663 1.4,0 2.405,0.61 2.405,2.381 l 0,3.745 -1.053,0 -0.12,-0.79 c -0.395,0.563 -1.005,0.886 -1.866,0.886 -1.005,0 -1.854,-0.575 -1.854,-1.831 10e-4,-1.244 1.066,-1.974 2.609,-1.974 z m -0.539,2.704 c 0.766,0 1.58,-0.49 1.58,-1.531 l 0,-0.132 -1.089,0 c -0.766,0 -1.244,0.359 -1.244,0.933 0,0.419 0.227,0.73 0.753,0.73 z"
                 id="path61" />
              <path
                 style="fill:#0061af"
                 inkscape:connector-curvature="0"
                 d="m 431.331,99.767 0,-1.101 4.487,0 0,1.101 -1.627,0 0,4.93 -1.245,0 0,-4.93 -1.615,0 z"
                 id="path63" />
              <path
                 style="fill:#0061af"
                 inkscape:connector-curvature="0"
                 d="m 436.547,98.666 1.316,0 1.424,4.056 1.375,-4.056 1.316,0 -3.051,8.471 -1.244,0 0.981,-2.74 -2.117,-5.731 z"
                 id="path65" />
              <path
                 style="fill:#0061af"
                 inkscape:connector-curvature="0"
                 d="m 442.254,99.767 0,-1.101 4.487,0 0,1.101 -1.627,0 0,4.93 -1.244,0 0,-4.93 -1.616,0 z"
                 id="path67" />
              <path
                 style="fill:#0061af"
                 inkscape:connector-curvature="0"
                 d="m 451.838,96.093 c 0.491,0 0.861,0.395 0.861,0.874 0,0.479 -0.371,0.85 -0.861,0.85 -0.49,0 -0.861,-0.371 -0.861,-0.85 0,-0.479 0.37,-0.874 0.861,-0.874 z m -0.622,8.603 0,-6.03 1.244,0 0,6.03 -1.244,0 z"
                 id="path69" />
              <path
                 style="fill:#0061af"
                 inkscape:connector-curvature="0"
                 d="m 458.287,102.842 c 0.096,0.562 0.479,0.897 0.945,0.897 0.562,0 0.897,-0.407 0.897,-0.945 0,-0.574 -0.335,-0.969 -0.862,-0.969 -0.203,0 -0.383,0.048 -0.539,0.131 l -0.586,-0.742 1.089,-1.472 -1.819,0 0,-1.077 3.577,0 0,0.395 -1.495,1.915 c 0.036,-0.012 0.072,-0.012 0.107,-0.012 l 0.072,0 c 0.909,0 1.627,0.706 1.627,1.855 0,1.244 -0.921,1.974 -2.07,1.974 -1.101,0 -2.046,-0.706 -2.142,-1.771 l 1.199,-0.179 z"
                 id="path71" />
              <path
                 style="fill:#0061af"
                 inkscape:connector-curvature="0"
                 d="m 464.975,100.987 1.041,0 0,-0.264 c 0,-0.753 -0.538,-1.053 -1.172,-1.053 -0.491,0 -0.921,0.263 -1.125,0.802 l -1.136,-0.239 c 0.251,-1.017 1.112,-1.663 2.273,-1.663 1.4,0 2.405,0.61 2.405,2.381 l 0,3.745 -1.053,0 -0.12,-0.79 c -0.395,0.563 -1.005,0.886 -1.866,0.886 -1.005,0 -1.854,-0.575 -1.854,-1.831 -10e-4,-1.244 1.064,-1.974 2.607,-1.974 z m -0.538,2.704 c 0.766,0 1.579,-0.49 1.579,-1.531 l 0,-0.132 -1.089,0 c -0.766,0 -1.244,0.359 -1.244,0.933 0,0.419 0.227,0.73 0.754,0.73 z"
                 id="path73" />
              <path
                 style="fill:#0061af"
                 inkscape:connector-curvature="0"
                 d="m 468.804,107.137 0,-8.471 1.244,0 0,0.694 c 0.191,-0.347 0.85,-0.79 1.639,-0.79 1.783,0 2.692,1.185 2.692,3.111 0,1.866 -0.897,3.111 -2.716,3.111 -0.754,0 -1.34,-0.371 -1.615,-0.766 l 0,3.111 -1.244,0 z m 2.716,-3.446 c 0.897,0 1.543,-0.766 1.543,-2.01 0,-1.245 -0.646,-2.01 -1.543,-2.01 -0.897,0 -1.543,0.766 -1.543,2.01 -10e-4,1.244 0.645,2.01 1.543,2.01 z"
                 id="path75" />
              <path
                 style="fill:#0061af"
                 inkscape:connector-curvature="0"
                 d="m 478.1,100.987 1.041,0 0,-0.264 c 0,-0.753 -0.539,-1.053 -1.173,-1.053 -0.49,0 -0.921,0.263 -1.125,0.802 l -1.137,-0.239 c 0.251,-1.017 1.113,-1.663 2.273,-1.663 1.4,0 2.405,0.61 2.405,2.381 l 0,3.745 -1.053,0 -0.12,-0.79 c -0.395,0.563 -1.005,0.886 -1.867,0.886 -1.005,0 -1.854,-0.575 -1.854,-1.831 0.002,-1.244 1.067,-1.974 2.61,-1.974 z m -0.538,2.704 c 0.766,0 1.58,-0.49 1.58,-1.531 l 0,-0.132 -1.089,0 c -0.766,0 -1.244,0.359 -1.244,0.933 -0.001,0.419 0.226,0.73 0.753,0.73 z"
                 id="path77" />
              <path
                 style="fill:#0061af"
                 inkscape:connector-curvature="0"
                 d="m 482.683,102.842 c 0.096,0.562 0.479,0.897 0.945,0.897 0.562,0 0.897,-0.407 0.897,-0.945 0,-0.574 -0.335,-0.969 -0.861,-0.969 -0.204,0 -0.383,0.048 -0.539,0.131 l -0.586,-0.742 1.089,-1.472 -1.819,0 0,-1.077 3.577,0 0,0.395 -1.495,1.915 c 0.036,-0.012 0.072,-0.012 0.107,-0.012 l 0.072,0 c 0.909,0 1.627,0.706 1.627,1.855 0,1.244 -0.921,1.974 -2.07,1.974 -1.101,0 -2.046,-0.706 -2.142,-1.771 l 1.198,-0.179 z"
                 id="path79" />
            </g>
            <g
               id="XMLID_1_">
              <path
                 style="fill:#0061af"
                 inkscape:connector-curvature="0"
                 id="XMLID_14_"
                 d="m 330.465,56.573 -3.534,0 -2.243,0 -2.277,0 -1.427,0 -7.41,23.791 6.594,0 1.362,-4.792 8.613,0 1.376,4.792 6.831,0 -7.409,-23.791 -0.476,0 z m -7.293,13.22 2.019,-7.103 1.253,0 2.04,7.103 -5.312,0 z" />
              <path
                 style="fill:#0061af"
                 inkscape:connector-curvature="0"
                 id="XMLID_11_"
                 d="m 457.961,56.573 -3.535,0 -2.243,0 -2.277,0 -1.427,0 -7.409,23.791 6.594,0 1.362,-4.792 8.613,0 1.376,4.792 6.832,0 -7.409,-23.791 -0.477,0 z m -7.293,13.22 2.02,-7.103 1.252,0 2.04,7.103 -5.312,0 z" />
              <polygon
                 style="fill:#0061af"
                 id="XMLID_10_"
                 points="347.05,62.69 357.212,62.69 357.212,56.573 347.05,56.573 344.127,56.573 340.593,56.573 340.593,80.363 347.05,80.363 " />
              <path
                 style="fill:#0061af"
                 inkscape:connector-curvature="0"
                 id="XMLID_7_"
                 d="m 370.739,56.573 -4.418,0 -2.922,0 -3.535,0 0,23.791 6.457,0 0,-7.001 4.418,0 c 6.016,0 9.074,-3.772 9.074,-8.395 0,-4.623 -3.059,-8.395 -9.074,-8.395 z m 0,11.011 -4.418,0 0,-5.234 4.418,0 c 1.767,0 2.617,1.189 2.617,2.617 -10e-4,1.428 -0.85,2.617 -2.617,2.617 z" />
              <path
                 style="fill:#0061af"
                 inkscape:connector-curvature="0"
                 id="XMLID_4_"
                 d="m 394.665,56.063 c -7.239,0 -12.745,5.37 -12.745,12.405 0,7.035 5.505,12.405 12.745,12.405 7.239,0 12.745,-5.37 12.745,-12.405 0,-7.035 -5.506,-12.405 -12.745,-12.405 z m 0,18.353 c -3.467,0 -5.948,-2.481 -5.948,-5.948 0,-3.467 2.481,-5.947 5.948,-5.947 3.467,0 5.948,2.481 5.948,5.947 0,3.466 -2.481,5.948 -5.948,5.948 z" />
              <polygon
                 style="fill:#0061af"
                 id="XMLID_3_"
                 points="427.054,75.571 432.253,65.734 432.253,80.363 438.711,80.363 438.711,56.573 435.618,56.573 432.253,56.573 430.146,56.573 424.688,66.909 419.305,56.573 416.96,56.573 413.527,56.573 410.502,56.573 410.502,80.363 416.96,80.363 416.96,65.809 422.092,75.571 " />
              <polygon
                 style="fill:#0061af"
                 id="XMLID_2_"
                 points="477.965,62.69 485.782,62.69 485.782,56.573 477.965,56.573 471.507,56.573 463.69,56.573 463.69,62.69 471.507,62.69 471.507,80.363 477.965,80.363 " />
            </g>
          </g>
        </g>
      </g>
      <g
         id="g7639"
         transform="translate(-602.66722,-5637.7227)">
        <path
           id="path7641"
           d="m 685.598,5831.875 -2.064,-3.553 -0.483,-0.833 -1.873,-3.222 -6.479,-11.151 15.26,-8.866 10.899,18.758 -14.102,8.194 -1.158,0.673 z m -2.064,13.263 -21.695,0 0,-11.057 3.83,-6.592 13.654,0 4.21,7.246 0,10.403 z m -24.917,-13.715 -14.481,-8.415 10.898,-18.758 15.26,8.866 -6.479,11.151 -1.872,3.222 -0.104,0.18 -2.444,4.206 -0.778,-0.452 z m 13.88,-15.683 4.955,8.528 -9.911,0 4.956,-8.528 z m 18.628,-15.894 -18.629,10.823 -18.628,-10.823 -14.136,24.329 18.886,10.975 0,13.211 28.139,0 0,-13.433 18.506,-10.753 -14.138,-24.329 z"
           inkscape:connector-curvature="0"
           style="fill:#ffffff" />
        <g
           id="g7643">
          <g
             id="XMLID_81_">
            <path
               d="m 760.728,5805.617 -6.288,0 -3.991,0 -4.051,0 -2.539,0 -13.181,42.322 11.729,0 2.423,-8.524 15.323,0 2.448,8.524 12.152,0 -13.18,-42.322 -0.845,0 z m -12.974,23.519 3.592,-12.637 2.228,0 3.629,12.637 -9.449,0 z"
               id="XMLID_94_"
               inkscape:connector-curvature="0"
               style="fill:#ffffff" />
            <path
               d="m 987.539,5805.617 -6.288,0 -3.99,0 -4.051,0 -2.539,0 -13.181,42.322 11.729,0 2.424,-8.524 15.322,0 2.447,8.524 12.153,0 -13.181,-42.322 -0.845,0 z m -12.974,23.519 3.592,-12.637 2.229,0 3.629,12.637 -9.45,0 z"
               id="XMLID_91_"
               inkscape:connector-curvature="0"
               style="fill:#ffffff" />
            <polygon
               points="790.232,5847.939 790.232,5816.5 808.31,5816.5 808.31,5805.617 790.232,5805.617 785.033,5805.617 778.745,5805.617 778.745,5847.939 "
               id="XMLID_90_"
               style="fill:#ffffff" />
            <path
               d="m 832.373,5805.617 -7.86,0 -5.199,0 -6.288,0 0,42.322 11.487,0 0,-12.455 7.86,0 c 10.701,0 16.143,-6.711 16.143,-14.934 0,-8.223 -5.442,-14.933 -16.143,-14.933 z m 0,19.59 -7.86,0 0,-9.312 7.86,0 c 3.144,0 4.655,2.116 4.655,4.655 0,2.54 -1.511,4.657 -4.655,4.657 z"
               id="XMLID_87_"
               inkscape:connector-curvature="0"
               style="fill:#ffffff" />
            <path
               d="m 874.938,5804.71 c -12.878,0 -22.673,9.553 -22.673,22.067 0,12.514 9.795,22.068 22.673,22.068 12.878,0 22.672,-9.554 22.672,-22.068 0,-12.514 -9.795,-22.067 -22.672,-22.067 z m 0,32.649 c -6.167,0 -10.581,-4.414 -10.581,-10.581 0,-6.167 4.414,-10.581 10.581,-10.581 6.167,0 10.58,4.414 10.58,10.581 0,6.167 -4.414,10.581 -10.58,10.581 z"
               id="XMLID_84_"
               inkscape:connector-curvature="0"
               style="fill:#ffffff" />
            <polygon
               points="923.729,5839.415 932.556,5839.415 941.806,5821.914 941.806,5847.939 953.294,5847.939 953.294,5805.617 947.792,5805.617 941.806,5805.617 938.059,5805.617 928.347,5824.005 918.771,5805.617 914.599,5805.617 908.492,5805.617 903.111,5805.617 903.111,5847.939 914.599,5847.939 914.599,5822.048 "
               id="XMLID_83_"
               style="fill:#ffffff" />
            <polygon
               points="1023.125,5847.939 1023.125,5816.5 1037.031,5816.5 1037.031,5805.617 1023.125,5805.617 1011.638,5805.617 997.731,5805.617 997.731,5816.5 1011.638,5816.5 1011.638,5847.939 "
               id="XMLID_82_"
               style="fill:#ffffff" />
          </g>
        </g>
      </g>
    </g>
  </g>
</svg>
