<?xml version="1.0" encoding="UTF-8" standalone="no"?>
<!-- Generator: Adobe Illustrator 15.0.2, SVG Export Plug-In . SVG Version: 6.00 Build 0)  -->

<svg
   xmlns:dc="http://purl.org/dc/elements/1.1/"
   xmlns:cc="http://creativecommons.org/ns#"
   xmlns:rdf="http://www.w3.org/1999/02/22-rdf-syntax-ns#"
   xmlns:svg="http://www.w3.org/2000/svg"
   xmlns="http://www.w3.org/2000/svg"
   xmlns:sodipodi="http://sodipodi.sourceforge.net/DTD/sodipodi-0.dtd"
   xmlns:inkscape="http://www.inkscape.org/namespaces/inkscape"
   version="1.1"
   id="Слой_1"
   x="0px"
   y="0px"
   width="374"
   height="508"
   viewBox="0 0 373.99998 508.00002"
   enable-background="new 0 0 330.588 167.941"
   xml:space="preserve"
   inkscape:version="0.91 r13725"
   sodipodi:docname="section-1-img.svg"><metadata
   id="metadata187"><rdf:RDF><cc:Work
       rdf:about=""><dc:format>image/svg+xml</dc:format><dc:type
         rdf:resource="http://purl.org/dc/dcmitype/StillImage" /><dc:title></dc:title></cc:Work></rdf:RDF></metadata><defs
   id="defs185" /><sodipodi:namedview
   pagecolor="#fafafa"
   bordercolor="#666666"
   borderopacity="1"
   objecttolerance="10"
   gridtolerance="10"
   guidetolerance="10"
   inkscape:pageopacity="0"
   inkscape:pageshadow="2"
   inkscape:window-width="1366"
   inkscape:window-height="745"
   id="namedview183"
   showgrid="false"
   inkscape:zoom="1.1343424"
   inkscape:cx="183.35726"
   inkscape:cy="249.30192"
   inkscape:window-x="-8"
   inkscape:window-y="-8"
   inkscape:window-maximized="1"
   inkscape:current-layer="Слой_1"
   fit-margin-top="0"
   fit-margin-left="0"
   fit-margin-right="0"
   fit-margin-bottom="0" />



<g
   id="g4222"
   transform="translate(19.097985,-223.81948)"><g
     id="g59">
	<g
   id="g61">
		<path
   id="path63"
   d="m 44.232,273.419 -15.009,-48.204 -12.67,0 13.84,48.204 13.839,0 z m -11.013,-21.411 -28.097,0 0,11.706 28.097,0 0,-11.706 z m -4.962,-26.793 -16.319,0 0,12.393 16.319,0 0,-12.393 z m -20.867,48.204 13.704,-48.204 -12.047,0 -15.012,48.204 13.355,0 z"
   inkscape:connector-curvature="0"
   style="fill:#ffffff" />
		<path
   id="path65"
   d="m 302.583,273.419 -15.01,-48.204 -12.673,0 13.843,48.204 13.84,0 z m -11.013,-21.411 -28.103,0 0,11.706 28.103,0 0,-11.706 z m -4.958,-26.793 -16.324,0 0,12.393 16.324,0 0,-12.393 z m -20.873,48.204 13.708,-48.204 -12.049,0 -15.017,48.204 13.358,0 z"
   inkscape:connector-curvature="0"
   style="fill:#ffffff" />
		<path
   id="path67"
   d="m 82.456,225.215 -26.512,0 0,12.393 26.512,0 0,-12.393 z m -20.59,0 -13.089,0 0,48.204 13.089,0 0,-48.204 z"
   inkscape:connector-curvature="0"
   style="fill:#ffffff" />
		<path
   id="path69"
   d="m 109.869,259.234 c 12.185,0 18.383,-7.639 18.383,-17.009 0,-9.365 -6.199,-17.01 -18.383,-17.01 l -14.879,0 0,11.707 14.879,0 c 3.58,0 5.298,2.41 5.298,5.304 0,2.894 -1.718,5.302 -5.298,5.302 l -14.879,0 0,11.707 14.879,0 z m -8.954,-34.019 -13.085,0 0,48.204 13.085,0 0,-48.204 z"
   inkscape:connector-curvature="0"
   style="fill:#ffffff" />
		<path
   id="path71"
   d="m 132.524,249.318 c 0,14.253 11.154,25.136 25.826,25.136 14.669,0 25.82,-10.883 25.82,-25.136 0,-14.258 -11.151,-25.133 -25.82,-25.133 -14.672,0 -25.826,10.875 -25.826,25.133 m 13.773,0 c 0,-7.021 5.026,-12.05 12.053,-12.05 7.024,0 12.052,5.029 12.052,12.05 0,7.021 -5.028,12.054 -12.052,12.054 -7.027,0 -12.053,-5.034 -12.053,-12.054"
   inkscape:connector-curvature="0"
   style="fill:#ffffff" />
		<path
   id="path73"
   d="m 222.945,253.376 -14.666,-28.161 -11.708,0 4.682,14.389 12.668,24.109 10.059,0 12.739,-24.109 4.617,-14.389 -11.087,0 -14.876,28.161 7.572,0 z m 24.657,-28.161 -13.082,0 0,48.204 13.082,0 0,-48.204 z m -44.081,0 -13.081,0 0,48.204 13.081,0 0,-48.204 z"
   inkscape:connector-curvature="0"
   style="fill:#ffffff" />
		<path
   id="path75"
   d="m 342.982,225.215 -44.764,0 0,12.393 44.764,0 0,-12.393 z m -15.836,0 -13.089,0 0,48.204 13.089,0 0,-48.204 z"
   inkscape:connector-curvature="0"
   style="fill:#ffffff" />
	</g>
	<g
   id="g77">
		<path
   id="path79"
   d="m -3.059,299.752 15.865,0 0,19.353 -4.762,0 0,-15.284 -6.339,0 0,15.284 -4.764,0 0,-19.353 z"
   inkscape:connector-curvature="0"
   style="fill:#ffffff" />
		<path
   id="path81"
   d="m 16.704,315.036 c 2.251,0 3.264,-0.75 3.47,-2.719 l 1.257,-12.564 14.102,0 0,19.353 -4.763,0 0,-15.284 -4.913,0 -1.163,10.22 c -0.263,2.25 -1.05,3.62 -2.626,4.294 -0.769,0.338 -1.556,0.544 -2.325,0.638 -0.769,0.094 -1.781,0.131 -3.038,0.131 l 0,-4.069 z"
   inkscape:connector-curvature="0"
   style="fill:#ffffff" />
		<path
   id="path83"
   d="m 41.662,299.752 4.764,0 0,11.946 6.639,-11.946 5.194,0 0,19.353 -4.764,0 0,-11.946 -6.657,11.946 -5.176,0 0,-19.353 z"
   inkscape:connector-curvature="0"
   style="fill:#ffffff" />
		<path
   id="path85"
   d="m 62.063,299.752 15.134,0 0,4.069 -5.176,0 0,15.284 -4.764,0 0,-15.284 -5.194,0 0,-4.069 z"
   inkscape:connector-curvature="0"
   style="fill:#ffffff" />
		<path
   id="path87"
   d="m 81.451,299.752 4.764,0 0,7.595 6.301,-7.595 5.87,0 -7.764,8.908 8.27,10.445 -5.851,0 -6.826,-9.133 0,9.133 -4.764,0 0,-19.353 z"
   inkscape:connector-curvature="0"
   style="fill:#ffffff" />
		<path
   id="path89"
   d="m 102.733,308.922 c 1.519,-1.144 3.507,-1.725 5.963,-1.725 l 3.226,0 0,-0.844 c 0,-1.894 -1.125,-2.851 -3.375,-2.832 -1.707,0 -2.832,0.731 -3.339,2.213 l -4.031,-0.919 c 0.318,-1.613 1.125,-2.907 2.456,-3.9 1.332,-0.994 2.963,-1.481 4.914,-1.481 5.419,0 8.139,2.7 8.139,8.12 l 0,11.552 -3.92,0 -0.487,-2.457 c -1.519,1.838 -3.507,2.757 -5.964,2.757 -1.706,0 -3.112,-0.506 -4.219,-1.519 -1.106,-1.032 -1.65,-2.476 -1.65,-4.351 -0.001,-1.932 0.768,-3.47 2.287,-4.614 z m 4.707,6.413 c 1.181,0 2.213,-0.375 3.112,-1.106 0.919,-0.731 1.369,-1.707 1.369,-2.888 l 0,-0.375 -3.188,0 c -2.194,0 -3.301,0.825 -3.301,2.494 0.002,1.032 0.714,1.875 2.008,1.875 z"
   inkscape:connector-curvature="0"
   style="fill:#ffffff" />
		<path
   id="path91"
   d="m 131.215,306.447 c 0,-1.256 0.432,-2.344 1.313,-3.226 0.881,-0.881 1.95,-1.332 3.206,-1.332 1.257,0 2.326,0.45 3.207,1.332 0.882,0.881 1.332,1.969 1.332,3.226 0,1.257 -0.45,2.325 -1.332,3.207 -0.881,0.881 -1.95,1.313 -3.207,1.313 -1.256,0 -2.325,-0.432 -3.206,-1.313 -0.882,-0.882 -1.313,-1.951 -1.313,-3.207 z"
   inkscape:connector-curvature="0"
   style="fill:#ffffff" />
		<path
   id="path93"
   d="m 172.657,304.965 -4.258,1.725 c -1.05,-2.119 -2.568,-3.188 -4.538,-3.169 -1.463,0 -2.569,0.544 -3.338,1.632 -0.75,1.087 -1.125,2.513 -1.125,4.275 0,1.763 0.375,3.188 1.125,4.276 0.769,1.088 1.875,1.631 3.338,1.631 1.97,0 3.488,-1.069 4.538,-3.188 l 4.258,1.726 c -1.482,3.694 -4.426,5.532 -8.796,5.532 -3.019,0 -5.363,-0.938 -6.995,-2.832 -1.631,-1.894 -2.456,-4.275 -2.456,-7.145 0,-2.869 0.825,-5.25 2.456,-7.145 1.632,-1.894 3.977,-2.851 6.995,-2.851 4.37,10e-4 7.314,1.839 8.796,5.533 z"
   inkscape:connector-curvature="0"
   style="fill:#ffffff" />
		<path
   id="path95"
   d="m 177.08,308.922 c 1.519,-1.144 3.507,-1.725 5.963,-1.725 l 3.226,0 0,-0.844 c 0,-1.894 -1.125,-2.851 -3.375,-2.832 -1.707,0 -2.832,0.731 -3.339,2.213 l -4.031,-0.919 c 0.318,-1.613 1.125,-2.907 2.456,-3.9 1.332,-0.994 2.963,-1.481 4.914,-1.481 5.419,0 8.139,2.7 8.139,8.12 l 0,11.552 -3.92,0 -0.487,-2.457 c -1.519,1.838 -3.507,2.757 -5.964,2.757 -1.706,0 -3.112,-0.506 -4.219,-1.519 -1.106,-1.032 -1.65,-2.476 -1.65,-4.351 -0.001,-1.932 0.768,-3.47 2.287,-4.614 z m 4.707,6.413 c 1.181,0 2.213,-0.375 3.112,-1.106 0.919,-0.731 1.369,-1.707 1.369,-2.888 l 0,-0.375 -3.188,0 c -2.194,0 -3.301,0.825 -3.301,2.494 0.001,1.032 0.714,1.875 2.008,1.875 z"
   inkscape:connector-curvature="0"
   style="fill:#ffffff" />
		<path
   id="path97"
   d="m 196.13,299.752 4.764,0 0,7.032 6.451,0 0,-7.032 4.763,0 0,19.353 -4.763,0 0,-8.251 -6.451,0 0,8.251 -4.764,0 0,-19.353 z"
   inkscape:connector-curvature="0"
   style="fill:#ffffff" />
		<path
   id="path99"
   d="m 216.344,299.752 15.134,0 0,4.069 -5.176,0 0,15.284 -4.764,0 0,-15.284 -5.194,0 0,-4.069 z"
   inkscape:connector-curvature="0"
   style="fill:#ffffff" />
		<path
   id="path101"
   d="m 250.004,302.659 c 1.388,1.913 2.081,4.144 2.081,6.338 l 0,1.969 -13.333,0 c 0.057,1.181 0.469,2.194 1.275,3.075 0.806,0.863 1.912,1.294 3.3,1.294 1.97,0 3.545,-0.994 4.688,-2.981 l 3.845,1.406 c -1.632,3.77 -4.576,5.645 -8.795,5.645 -3.17,0 -5.758,-1.313 -7.183,-3.282 -1.406,-1.969 -2.119,-4.294 -2.119,-6.695 0,-2.401 0.713,-4.744 2.119,-6.695 1.425,-1.969 4.013,-3.3 7.183,-3.3 3.076,0 5.551,1.313 6.939,3.226 z m -2.794,4.538 c -0.544,-2.457 -1.913,-3.694 -4.145,-3.676 -1.126,0 -2.063,0.356 -2.813,1.069 -0.75,0.712 -1.219,1.575 -1.388,2.606 l 8.346,0 z"
   inkscape:connector-curvature="0"
   style="fill:#ffffff" />
		<path
   id="path103"
   d="m 259.696,308.772 -5.607,-9.02 5.007,0 3.15,5.026 3.15,-5.026 4.988,0 -5.606,9.02 6.413,10.333 -4.988,0 -3.957,-6.301 -3.957,6.301 -5.007,0 6.414,-10.333 z"
   inkscape:connector-curvature="0"
   style="fill:#ffffff" />
		<path
   id="path105"
   d="m 274.564,299.752 4.764,0 0,7.032 6.451,0 0,-7.032 4.763,0 0,19.353 -4.763,0 0,-8.251 -6.451,0 0,8.251 -4.764,0 0,-19.353 z"
   inkscape:connector-curvature="0"
   style="fill:#ffffff" />
		<path
   id="path107"
   d="m 295.51,294.182 c 0,-0.881 0.3,-1.613 0.881,-2.194 0.601,-0.582 1.332,-0.882 2.194,-0.882 0.882,0 1.612,0.3 2.194,0.882 0.581,0.581 0.881,1.313 0.881,2.194 0,0.863 -0.3,1.594 -0.881,2.194 -0.582,0.581 -1.313,0.881 -2.194,0.881 -0.862,0 -1.594,-0.281 -2.194,-0.881 -0.6,-0.6 -0.881,-1.331 -0.881,-2.194 z m 0.693,5.57 4.764,0 0,19.353 -4.764,0 0,-19.353 z"
   inkscape:connector-curvature="0"
   style="fill:#ffffff" />
		<path
   id="path109"
   d="m 306.647,299.752 4.764,0 0,7.595 6.301,-7.595 5.87,0 -7.764,8.908 8.27,10.445 -5.851,0 -6.826,-9.133 0,9.133 -4.764,0 0,-19.353 z"
   inkscape:connector-curvature="0"
   style="fill:#ffffff" />
		<path
   id="path111"
   d="m 327.93,308.922 c 1.519,-1.144 3.507,-1.725 5.963,-1.725 l 3.226,0 0,-0.844 c 0,-1.894 -1.125,-2.851 -3.375,-2.832 -1.707,0 -2.832,0.731 -3.339,2.213 l -4.031,-0.919 c 0.318,-1.613 1.125,-2.907 2.456,-3.9 1.332,-0.994 2.963,-1.481 4.914,-1.481 5.419,0 8.139,2.7 8.139,8.12 l 0,11.552 -3.92,0 -0.487,-2.457 c -1.519,1.838 -3.507,2.757 -5.964,2.757 -1.706,0 -3.112,-0.506 -4.219,-1.519 -1.106,-1.032 -1.65,-2.476 -1.65,-4.351 -10e-4,-1.932 0.767,-3.47 2.287,-4.614 z m 4.707,6.413 c 1.181,0 2.213,-0.375 3.112,-1.106 0.919,-0.731 1.369,-1.707 1.369,-2.888 l 0,-0.375 -3.188,0 c -2.194,0 -3.301,0.825 -3.301,2.494 10e-4,1.032 0.714,1.875 2.008,1.875 z"
   inkscape:connector-curvature="0"
   style="fill:#ffffff" />
	</g>
	<polygon
   id="polygon113"
   points="342.982,284.346 342.982,288.199 342.982,288.199 -5.965,288.199 -5.965,284.346 "
   style="fill:#ffffff" />
</g><g
     id="g115">
	<g
   id="g117">
		<g
   id="g119">
			<path
   id="path121"
   d="m 137.763,702.939 c 1.7,8.697 6.409,13.014 14.061,13.014 9.091,0 13.93,-5.886 13.93,-16.611 0,-10.529 -5.297,-16.219 -14.715,-16.219 -6.082,0 -11.575,2.813 -16.611,8.437 l -10.595,-2.158 5.232,-52.776 48.199,0 0,15.564 -34.4,0 -2.158,19.555 c 3.925,-2.289 8.371,-3.467 13.276,-3.467 9.482,0 16.611,2.813 21.386,8.371 4.839,5.559 7.259,13.146 7.259,22.693 0,9.549 -2.812,17.266 -8.437,23.217 -5.624,5.951 -13.079,8.895 -22.366,8.895 -8.044,0 -14.846,-2.289 -20.47,-6.998 -5.56,-4.643 -8.764,-10.922 -9.549,-18.573 l 15.958,-2.944 z"
   inkscape:connector-curvature="0"
   style="fill:#df1f26" />
			<path
   id="path123"
   d="m 184.354,683.516 c 0,-15.107 3.009,-26.814 8.96,-35.25 5.951,-8.437 14.519,-12.688 25.571,-12.688 11.052,0 19.619,4.251 25.57,12.688 6.017,8.436 9.025,20.143 9.025,35.25 0,15.107 -3.009,26.879 -9.025,35.315 -5.951,8.437 -14.519,12.622 -25.57,12.622 -11.053,0 -19.62,-4.186 -25.571,-12.622 -5.951,-8.436 -8.96,-20.208 -8.96,-35.315 z m 16.612,0.065 c 0,21.581 5.951,32.372 17.92,32.372 11.968,0 17.984,-10.791 17.984,-32.372 0,-21.647 -6.017,-32.438 -17.984,-32.438 -11.969,0 -17.92,10.791 -17.92,32.438 z"
   inkscape:connector-curvature="0"
   style="fill:#df1f26" />
		</g>
	</g>
	<g
   id="g125">
		<path
   id="path127"
   d="m 82.658,686.242 2.046,-12.01 8.407,0 0,12.01 1.262,0 -0.285,5.17 -2.341,0 0,-2.584 -7.796,0 0,2.584 -2.331,0 -0.295,-5.17 1.333,0 z m 7.736,0 0,-9.506 -3.308,0 -1.751,9.506 5.059,0 z"
   inkscape:connector-curvature="0"
   style="fill:#ffffff" />
		<path
   id="path129"
   d="m 95.27,681.541 c 0,-1.629 0.326,-3.023 0.967,-4.174 0.651,-1.149 1.486,-1.994 2.494,-2.514 1.018,-0.519 2.157,-0.783 3.42,-0.783 1.271,0 2.412,0.265 3.419,0.783 1.018,0.52 1.853,1.364 2.494,2.514 0.641,1.15 0.967,2.545 0.967,4.174 0,1.617 -0.326,3.012 -0.967,4.162 -0.642,1.15 -1.477,1.994 -2.494,2.514 -1.007,0.52 -2.147,0.773 -3.419,0.773 -1.263,0 -2.402,-0.254 -3.42,-0.773 -1.008,-0.52 -1.843,-1.363 -2.494,-2.514 -0.641,-1.15 -0.967,-2.545 -0.967,-4.162 z m 2.758,0 c 0,1.639 0.387,2.869 1.17,3.704 0.784,0.835 1.771,1.252 2.952,1.252 1.18,0 2.167,-0.417 2.951,-1.252 0.783,-0.835 1.181,-2.065 1.181,-3.704 0,-1.639 -0.397,-2.881 -1.181,-3.715 -0.784,-0.835 -1.771,-1.252 -2.951,-1.252 -1.181,0 -2.168,0.417 -2.952,1.252 -0.783,0.834 -1.17,2.076 -1.17,3.715 z"
   inkscape:connector-curvature="0"
   style="fill:#ffffff" />
		<path
   id="path131"
   d="m 80.287,691.422 0,-1.038 29.73,0 0,1.038 -29.73,0 z"
   inkscape:connector-curvature="0"
   style="fill:#ffffff" />
	</g>
	<g
   id="g133">
		<path
   id="path135"
   d="m 202.709,675.146 c 0,-2.029 0.698,-3.73 2.073,-5.105 1.396,-1.375 3.143,-2.051 5.259,-2.051 2.116,0 3.884,0.676 5.259,2.051 1.374,1.375 2.072,3.076 2.072,5.105 0,2.029 -0.698,3.71 -2.072,5.084 -1.375,1.375 -3.143,2.051 -5.259,2.051 -2.116,0 -3.862,-0.676 -5.259,-2.051 -1.375,-1.374 -2.073,-3.054 -2.073,-5.084 z m 26.948,-8.488 3.229,2.531 -24.046,32.142 -3.207,-2.597 24.024,-32.076 z m -22.387,8.488 c 0,0.83 0.24,1.527 0.742,2.073 0.502,0.546 1.179,0.829 2.029,0.829 0.873,0 1.549,-0.283 2.029,-0.829 0.502,-0.546 0.742,-1.243 0.742,-2.073 0,-0.851 -0.24,-1.527 -0.742,-2.072 -0.48,-0.546 -1.156,-0.83 -2.029,-0.83 -0.851,0 -1.527,0.284 -2.029,0.83 -0.502,0.545 -0.742,1.222 -0.742,2.072 z m 13.593,17.697 c 0,-2.029 0.698,-3.731 2.073,-5.106 1.375,-1.374 3.12,-2.051 5.237,-2.051 2.116,0 3.884,0.677 5.258,2.051 1.396,1.375 2.095,3.077 2.095,5.106 0,2.029 -0.698,3.71 -2.095,5.084 -1.374,1.375 -3.142,2.052 -5.258,2.052 -2.117,0 -3.862,-0.677 -5.237,-2.052 -1.374,-1.374 -2.073,-3.055 -2.073,-5.084 z m 4.561,0 c 0,0.829 0.24,1.527 0.721,2.073 0.502,0.545 1.178,0.829 2.029,0.829 0.872,0 1.549,-0.284 2.051,-0.829 0.502,-0.546 0.742,-1.244 0.742,-2.073 0,-0.851 -0.24,-1.527 -0.742,-2.073 -0.502,-0.545 -1.179,-0.828 -2.051,-0.828 -0.852,0 -1.527,0.283 -2.029,0.828 -0.481,0.545 -0.721,1.222 -0.721,2.073 z"
   inkscape:connector-curvature="0"
   style="fill:#ffffff" />
	</g>
</g><g
     id="g137">
	<g
   id="g139">
		<path
   id="path141"
   d="m 186.469,428.07 c 4.535,0 8.485,0 12.655,0 -5.658,-5.647 -11.02,-11 -16.867,-16.836 3.711,-1.471 6.444,-0.43 9.557,-1.238 -4.331,-5.106 -8.437,-9.947 -12.949,-15.269 2.767,-0.123 4.861,-0.215 7.734,-0.342 -6.182,-7.359 -11.898,-14.165 -17.614,-20.97 -0.397,-0.412 -0.766,-0.703 -1.1,-0.842 -0.333,0.139 -0.702,0.43 -1.1,0.842 -5.716,6.806 -11.432,13.611 -17.614,20.97 2.874,0.127 4.968,0.22 7.734,0.342 -4.513,5.321 -8.618,10.163 -12.949,15.269 3.113,0.808 5.845,-0.233 9.557,1.238 -5.848,5.836 -11.209,11.188 -16.867,16.836 4.17,0 8.12,0 12.655,0 -6.237,6.959 -12.004,13.394 -18.316,20.437 10.021,0 19.065,0.113 28.103,-0.067 2.808,-0.056 3.834,0.816 3.412,3.526 -0.08,0.508 -0.012,1.038 -0.011,1.559 0.001,7.231 0.005,8.182 5.396,8.2 5.391,-0.019 5.395,-0.969 5.396,-8.2 0,-0.521 0.068,-1.051 -0.011,-1.559 -0.423,-2.71 0.604,-3.582 3.412,-3.526 9.038,0.181 18.083,0.067 28.103,0.067 -6.313,-7.043 -12.079,-13.478 -18.316,-20.437 z"
   inkscape:connector-curvature="0"
   style="fill:#ffffff" />
		<path
   id="path143"
   d="m 167.885,360.898 c 0.716,3.76 3.424,5.728 7.222,5.247 -3.356,1.843 -4.389,5.025 -2.759,8.49 -2.791,-2.623 -6.137,-2.623 -8.926,0 1.63,-3.464 0.597,-6.647 -2.758,-8.49 3.797,0.481 6.504,-1.486 7.221,-5.247 z"
   inkscape:connector-curvature="0"
   style="clip-rule:evenodd;fill:#ffffff;fill-rule:evenodd" />
	</g>
	<g
   id="g145">
		<path
   id="path147"
   d="m -18.727,482.088 9.342,0 0,19.068 20.049,0 0,-19.068 9.307,0 0,50.174 -9.307,0 0,-22.498 -20.049,0 0,22.498 -9.342,0 0,-50.174 z"
   inkscape:connector-curvature="0"
   style="fill:#ffffff" />
		<path
   id="path149"
   d="m 29.838,507.209 c 0,-5.598 1.12,-10.391 3.324,-14.345 2.239,-3.954 5.108,-6.858 8.572,-8.642 3.499,-1.785 7.417,-2.695 11.756,-2.695 4.373,0 8.292,0.91 11.756,2.695 3.499,1.783 6.368,4.688 8.572,8.642 2.204,3.954 3.324,8.747 3.324,14.345 0,5.563 -1.12,10.357 -3.324,14.311 -2.204,3.954 -5.073,6.857 -8.572,8.643 -3.464,1.784 -7.383,2.659 -11.756,2.659 -4.339,0 -8.257,-0.875 -11.756,-2.659 -3.464,-1.785 -6.333,-4.688 -8.572,-8.643 -2.204,-3.954 -3.324,-8.748 -3.324,-14.311 z m 9.482,0 c 0,5.634 1.329,9.867 4.023,12.736 2.694,2.869 6.088,4.304 10.146,4.304 4.058,0 7.452,-1.435 10.146,-4.304 2.694,-2.869 4.059,-7.103 4.059,-12.736 0,-5.633 -1.364,-9.901 -4.059,-12.77 -2.694,-2.869 -6.088,-4.305 -10.146,-4.305 -4.058,0 -7.452,1.436 -10.146,4.305 -2.694,2.869 -4.023,7.137 -4.023,12.77 z"
   inkscape:connector-curvature="0"
   style="fill:#ffffff" />
		<path
   id="path151"
   d="m 87.009,482.088 18.369,0 c 4.374,0 7.872,1.189 10.427,3.464 2.589,2.31 3.884,5.634 3.884,10.077 0,4.094 -1.819,7.627 -4.934,9.271 5.003,2.064 7.522,6.123 7.522,12.246 0,4.828 -1.47,8.572 -4.408,11.196 -2.939,2.624 -6.998,3.919 -12.142,3.919 l -18.718,0 0,-50.173 z m 17.845,19.488 c 3.918,0 5.878,-1.504 5.878,-5.423 0,-3.919 -1.994,-5.458 -6.088,-5.458 l -8.293,0 0,10.881 8.503,0 z m 0,22.078 c 5.388,0 8.082,-2.239 8.082,-6.718 0.035,-4.514 -2.659,-6.753 -8.082,-6.753 l -8.503,0 0,13.471 8.503,0 z"
   inkscape:connector-curvature="0"
   style="fill:#ffffff" />
		<path
   id="path153"
   d="m 126.371,507.209 c 0,-5.598 1.12,-10.391 3.324,-14.345 2.239,-3.954 5.108,-6.858 8.572,-8.642 3.499,-1.785 7.417,-2.695 11.756,-2.695 4.373,0 8.292,0.91 11.756,2.695 3.499,1.783 6.368,4.688 8.572,8.642 2.204,3.954 3.324,8.747 3.324,14.345 0,5.563 -1.12,10.357 -3.324,14.311 -2.204,3.954 -5.073,6.857 -8.572,8.643 -3.464,1.784 -7.383,2.659 -11.756,2.659 -4.339,0 -8.257,-0.875 -11.756,-2.659 -3.464,-1.785 -6.333,-4.688 -8.572,-8.643 -2.204,-3.954 -3.324,-8.748 -3.324,-14.311 z m 9.483,0 c 0,5.634 1.329,9.867 4.023,12.736 2.694,2.869 6.088,4.304 10.146,4.304 4.058,0 7.452,-1.435 10.146,-4.304 2.694,-2.869 4.059,-7.103 4.059,-12.736 0,-5.633 -1.364,-9.901 -4.059,-12.77 -2.694,-2.869 -6.088,-4.305 -10.146,-4.305 -4.058,0 -7.452,1.436 -10.146,4.305 -2.694,2.869 -4.023,7.137 -4.023,12.77 z"
   inkscape:connector-curvature="0"
   style="fill:#ffffff" />
		<path
   id="path155"
   d="m 180.883,482.088 18.929,0 c 5.108,0 8.992,1.399 11.687,4.199 2.694,2.799 4.023,6.508 4.023,11.091 0,4.583 -1.329,8.257 -4.023,11.056 -2.694,2.8 -6.578,4.199 -11.687,4.199 l -9.587,0 0,19.629 -9.342,0 0,-50.174 z m 18.579,21.937 c 4.374,0 6.578,-2.204 6.578,-6.647 0,-4.444 -2.204,-6.683 -6.578,-6.683 l -9.237,0 0,13.33 9.237,0 z"
   inkscape:connector-curvature="0"
   style="fill:#ffffff" />
		<path
   id="path157"
   d="m 223.289,482.088 9.342,0 0,50.174 -9.342,0 0,-50.174 z"
   inkscape:connector-curvature="0"
   style="fill:#ffffff" />
		<path
   id="path159"
   d="m 244.353,482.088 9.307,0 0,17.215 c 0,6.577 2.904,10.041 7.663,10.041 2.414,0 4.338,-0.35 5.703,-1.015 1.399,-0.665 2.868,-1.784 4.408,-3.358 l 0,-22.883 9.307,0 0,50.174 -9.307,0 0,-17.109 c -2.904,2.064 -6.823,3.078 -11.756,3.078 -4.724,0 -8.468,-1.539 -11.231,-4.652 -2.729,-3.115 -4.094,-7.873 -4.094,-14.275 l 0,-17.216 z"
   inkscape:connector-curvature="0"
   style="fill:#ffffff" />
		<path
   id="path161"
   d="m 293.616,482.088 9.342,0 0,19.068 20.049,0 0,-19.068 9.307,0 0,50.174 -9.307,0 0,-22.498 -20.049,0 0,22.498 -9.342,0 0,-50.174 z"
   inkscape:connector-curvature="0"
   style="fill:#ffffff" />
		<path
   id="path163"
   d="m 345.189,482.088 9.342,0 0,50.174 -9.342,0 0,-50.174 z"
   inkscape:connector-curvature="0"
   style="fill:#ffffff" />
	</g>
	<g
   id="g165">
		<path
   id="path167"
   d="m 31.206,583.037 c 1.141,4.662 3.724,7.01 7.781,7.01 2.247,0 4.059,-0.737 5.467,-2.18 1.442,-1.476 2.146,-3.421 2.146,-5.869 0,-5.4 -3.085,-8.451 -7.546,-8.451 -1.476,0 -2.885,0.335 -4.192,1.039 l -3.421,-4.796 9.056,-12.442 -15.327,0 0,-7.982 27.568,0 0,3.052 -11.336,15.294 c 0.839,-0.102 1.476,-0.135 1.912,-0.135 3.655,0 6.573,1.309 8.72,3.958 2.147,2.649 3.22,6.07 3.22,10.329 0,4.897 -1.543,8.821 -4.595,11.739 -3.052,2.918 -6.942,4.394 -11.672,4.394 -4.394,0 -8.083,-1.274 -11.034,-3.857 -2.951,-2.582 -4.628,-5.936 -5.03,-9.994 l 8.283,-1.109 z"
   inkscape:connector-curvature="0"
   style="fill:#ffffff" />
		<path
   id="path169"
   d="m 65.677,549.365 8.955,0 0,18.278 19.218,0 0,-18.278 8.921,0 0,48.094 -8.921,0 0,-21.564 -19.218,0 0,21.564 -8.955,0 0,-48.094 z"
   inkscape:connector-curvature="0"
   style="fill:#ffffff" />
		<path
   id="path171"
   d="m 115.104,549.365 8.955,0 0,31.761 17.642,-31.761 9.391,0 0,48.094 -8.921,0 0,-31.727 -17.642,31.727 -9.425,0 0,-48.094 z"
   inkscape:connector-curvature="0"
   style="fill:#ffffff" />
		<path
   id="path173"
   d="m 178.418,570.863 -19.52,-21.498 11.001,0 16.4,17.876 0,-17.876 8.954,0 0,17.876 16.401,-17.876 11,0 -19.52,21.498 20.895,26.596 -11.336,0 -17.44,-22.939 0,22.939 -8.953,0 0,-22.939 -17.44,22.939 -11.336,0 20.894,-26.596 z"
   inkscape:connector-curvature="0"
   style="fill:#ffffff" />
		<path
   id="path175"
   d="m 230.425,549.365 8.955,0 0,17.876 16.4,-17.876 11.001,0 -19.52,21.498 20.895,26.596 -11.336,0 -17.44,-22.939 0,22.939 -8.955,0 0,-48.094 z"
   inkscape:connector-curvature="0"
   style="fill:#ffffff" />
		<path
   id="path177"
   d="m 274.554,549.365 8.955,0 0,31.761 17.642,-31.761 9.391,0 0,48.094 -8.921,0 0,-31.727 -17.642,31.727 -9.425,0 0,-48.094 z"
   inkscape:connector-curvature="0"
   style="fill:#ffffff" />
	</g>
	<g
   id="g179">
		<path
   id="path181"
   d="m 319.286,547.923 4.147,1.358 0,-4.297 3.888,0 0,4.297 4.148,-1.358 1.265,3.757 -4.148,1.414 2.549,3.479 -3.236,2.399 -2.512,-3.553 -2.529,3.553 -3.236,-2.399 2.566,-3.479 -4.166,-1.414 1.264,-3.757 z"
   inkscape:connector-curvature="0"
   style="fill:#ffffff" />
	</g>
</g></g>
</svg>