<?xml version="1.0" encoding="UTF-8" standalone="no"?>
<!-- Created with Inkscape (http://www.inkscape.org/) -->

<svg
   xmlns:dc="http://purl.org/dc/elements/1.1/"
   xmlns:cc="http://creativecommons.org/ns#"
   xmlns:rdf="http://www.w3.org/1999/02/22-rdf-syntax-ns#"
   xmlns:svg="http://www.w3.org/2000/svg"
   xmlns="http://www.w3.org/2000/svg"
   xmlns:sodipodi="http://sodipodi.sourceforge.net/DTD/sodipodi-0.dtd"
   xmlns:inkscape="http://www.inkscape.org/namespaces/inkscape"
   width="36.93071mm"
   height="189.64963mm"
   viewBox="0 0 130.85684 671.98687"
   id="svg12793"
   version="1.1"
   inkscape:version="0.91 r13725"
   sodipodi:docname="section-2-bg-right.svg">
  <defs
     id="defs12795" />
  <sodipodi:namedview
     id="base"
     pagecolor="#ffffff"
     bordercolor="#666666"
     borderopacity="1.0"
     inkscape:pageopacity="0.0"
     inkscape:pageshadow="2"
     inkscape:zoom="0.35"
     inkscape:cx="-81.487617"
     inkscape:cy="754.61762"
     inkscape:document-units="px"
     inkscape:current-layer="layer1"
     showgrid="false"
     fit-margin-top="0"
     fit-margin-left="0"
     fit-margin-right="0"
     fit-margin-bottom="0"
     inkscape:window-width="1366"
     inkscape:window-height="745"
     inkscape:window-x="-8"
     inkscape:window-y="-8"
     inkscape:window-maximized="1" />
  <metadata
     id="metadata12798">
    <rdf:RDF>
      <cc:Work
         rdf:about="">
        <dc:format>image/svg+xml</dc:format>
        <dc:type
           rdf:resource="http://purl.org/dc/dcmitype/StillImage" />
        <dc:title></dc:title>
      </cc:Work>
    </rdf:RDF>
  </metadata>
  <g
     inkscape:label="Layer 1"
     inkscape:groupmode="layer"
     id="layer1"
     transform="translate(77.798092,-1300.7072)">
    <g
       transform="translate(-1213.9483,419.82567)"
       id="g12085">
      <g
         id="g2675">
        <g
           id="g2677">
          <path
             style="fill:#1c4781"
             inkscape:connector-curvature="0"
             id="path2679"
             d="m 1174.98,1045.714 c -0.476,-0.139 -0.719,-0.083 -0.829,0.457 -0.256,1.257 -0.563,2.504 -0.854,3.754 -0.104,0.444 -0.218,0.769 0.489,0.887 0.627,0.105 0.745,-0.094 0.832,-0.594 0.105,-0.592 0.257,-1.175 0.457,-2.071 0.531,0.884 0.855,1.534 1.29,2.098 0.223,0.289 0.2,1.055 1.033,0.583 0.796,-0.452 0.371,-0.798 0.135,-1.255 -0.275,-0.533 -0.993,-1.091 -0.751,-1.57 0.264,-0.522 1.02,0.058 1.567,0.067 0.562,0.01 0.722,-0.059 0.846,-0.585 0.129,-0.551 -0.096,-0.677 -0.555,-0.79 -1.226,-0.299 -2.447,-0.627 -3.66,-0.981 z" />
        </g>
        <g
           id="g2681">
          <path
             style="fill:#1c4781"
             inkscape:connector-curvature="0"
             id="path2683"
             d="m 1163.977,1029.333 c 0.602,0.188 0.732,-0.056 0.836,-0.576 0.235,-1.181 0.482,-2.364 0.821,-3.517 0.161,-0.546 0.178,-0.799 -0.438,-1.002 -0.71,-0.233 -0.779,0.156 -0.871,0.655 -0.104,0.557 -0.24,1.107 -0.362,1.661 -0.09,0.015 -0.179,0.03 -0.267,0.044 -0.406,-0.675 -0.836,-1.338 -1.21,-2.029 -0.268,-0.497 -0.563,-0.564 -1.042,-0.287 -0.529,0.308 -0.299,0.643 -0.102,0.995 0.141,0.251 0.298,0.495 0.434,0.75 0.21,0.396 0.777,0.843 0.438,1.214 -0.339,0.371 -0.918,-0.09 -1.393,-0.185 -0.032,-0.01 -0.063,-0.033 -0.09,-0.055 -0.393,-0.325 -0.71,-0.345 -0.883,0.219 -0.152,0.501 -0.303,0.938 0.477,1.111 1.231,0.274 2.447,0.627 3.652,1.002 z" />
        </g>
        <g
           id="g2685">
          <path
             style="fill:#1c4781"
             inkscape:connector-curvature="0"
             id="path2687"
             d="m 1184.119,1036.593 c -0.807,0.044 -1.617,0.025 -2.629,0.037 0.584,-0.597 0.993,-1.031 1.418,-1.447 0.324,-0.317 0.611,-0.549 0.136,-1.041 -0.46,-0.478 -0.76,-0.245 -1.076,0.059 -0.908,0.872 -1.8,1.761 -2.685,2.656 -0.256,0.259 -0.465,0.492 -0.027,0.866 1.011,0.866 1.973,1.79 2.926,2.719 0.373,0.364 0.618,0.351 0.967,-0.03 0.359,-0.392 0.304,-0.674 -0.066,-0.983 -0.303,-0.255 -0.599,-0.518 -0.889,-0.788 -0.129,-0.119 -0.307,-0.274 -0.191,-0.45 0.083,-0.126 0.359,-0.279 0.432,-0.233 0.608,0.383 1.166,-0.178 1.743,-0.062 0.552,0.11 0.864,-0.229 0.866,-0.657 0,-0.507 -0.411,-0.675 -0.925,-0.646 z" />
        </g>
        <g
           id="g2689">
          <path
             style="fill:#1c4781"
             inkscape:connector-curvature="0"
             id="path2691"
             d="m 1154.466,1038.434 c 0.417,0.063 0.803,0.066 1.224,0 0.351,-0.058 0.787,-0.187 1.074,0.094 0.119,0.316 0.119,0.545 -0.114,0.744 -0.246,0.209 -0.454,0.466 -0.706,0.669 -0.401,0.323 -0.408,0.575 -0.015,0.95 0.386,0.37 0.626,0.329 0.972,-0.027 0.905,-0.926 1.836,-1.827 2.763,-2.733 0.259,-0.252 0.439,-0.494 0.093,-0.809 -1.037,-0.94 -2.086,-1.869 -3.104,-2.829 -0.438,-0.412 -0.6,-0.02 -0.867,0.198 -0.342,0.276 -0.286,0.5 -0.024,0.801 0.426,0.492 1.465,0.884 1.174,1.44 -0.248,0.476 -1.329,0.129 -2.038,0.197 -0.107,0.01 -0.217,0.012 -0.325,0 -0.353,-0.034 -0.575,0.092 -0.524,0.476 0.039,0.315 -0.164,0.744 0.417,0.831 z" />
        </g>
        <g
           id="g2693">
          <path
             style="fill:#1c4781"
             inkscape:connector-curvature="0"
             id="path2695"
             d="m 1174.963,1029.137 c 1.021,-0.435 2.027,-0.804 3.146,-0.931 0.333,-0.038 0.947,-0.295 0.714,-1.054 -0.22,-0.715 -0.538,-0.594 -1.022,-0.364 -0.286,0.135 -0.607,0.206 -0.921,0.272 -0.198,0.042 -0.545,0.096 -0.589,0.015 -0.104,-0.191 -0.143,-0.436 0.036,-0.69 0.33,-0.466 0.567,-0.997 0.884,-1.474 0.314,-0.476 0.069,-0.686 -0.31,-0.931 -0.432,-0.281 -0.626,-0.116 -0.83,0.273 -0.4,0.763 -0.836,1.506 -1.348,2.416 -0.21,-0.729 -0.338,-1.286 -0.533,-1.818 -0.13,-0.356 0.066,-1.008 -0.789,-0.78 -0.749,0.2 -0.653,0.587 -0.508,1.109 0.313,1.128 0.664,2.25 0.896,3.395 0.162,0.807 0.765,0.736 1.174,0.562 z" />
        </g>
        <g
           id="g2697">
          <path
             style="fill:#1c4781"
             inkscape:connector-curvature="0"
             id="path2699"
             d="m 1172.979,1031.904 c 1.205,-0.496 2.456,-0.851 3.734,-1.089 0.935,-0.173 0.73,-0.769 0.535,-1.439 -0.103,-0.254 -0.334,-0.209 -0.597,-0.122 -0.647,0.216 -1.317,0.376 -1.946,0.638 -0.85,0.352 -1.394,0.315 -1.527,-0.774 -0.083,-0.673 -0.325,-1.325 -0.491,-1.987 -0.11,-0.437 -0.301,-0.571 -0.771,-0.375 -0.339,0.141 -0.712,0.087 -0.551,0.653 0.392,1.382 0.739,2.776 1.114,4.164 0.063,0.239 0.115,0.49 0.5,0.331 z" />
        </g>
        <g
           id="g2701">
          <path
             style="fill:#1c4781"
             inkscape:connector-curvature="0"
             id="path2703"
             d="m 1165.651,1031.877 c 0.213,0.056 0.501,0.28 0.598,-0.139 0.343,-1.475 0.674,-2.953 1.006,-4.431 0.015,-0.065 -0.011,-0.14 -0.02,-0.23 -0.229,-0.251 -0.567,-0.268 -0.874,-0.331 -0.364,-0.076 -0.389,0.233 -0.443,0.475 -0.193,0.843 -0.403,1.685 -0.563,2.535 -0.092,0.487 -0.306,0.77 -0.771,0.476 -0.758,-0.479 -1.656,-0.352 -2.441,-0.66 -0.485,-0.191 -0.732,-0.078 -0.839,0.438 -0.093,0.441 -0.07,0.716 0.477,0.844 1.299,0.301 2.58,0.682 3.87,1.023 z" />
        </g>
        <g
           id="g2705">
          <path
             style="fill:#1c4781"
             inkscape:connector-curvature="0"
             id="path2707"
             d="m 1160.603,1037.149 c 0.527,0.418 0.442,0.694 -0.01,1.093 -0.617,0.551 -1.181,1.162 -1.77,1.746 -0.208,0.205 -0.496,0.415 -0.08,0.667 0.289,0.175 0.449,0.782 1.207,0.1 0.782,-0.773 1.809,-1.784 2.829,-2.799 0.361,-0.359 0.047,-0.552 -0.194,-0.774 -0.95,-0.873 -1.899,-1.746 -2.838,-2.632 -0.348,-0.328 -0.634,-0.486 -1.071,-0.079 -0.543,0.503 -0.06,0.783 0.195,1.053 0.542,0.575 1.11,1.135 1.729,1.625 z" />
        </g>
        <g
           id="g2709">
          <path
             style="fill:#1c4781"
             inkscape:connector-curvature="0"
             id="path2711"
             d="m 1178.452,1037.989 c -0.485,-0.442 -0.576,-0.821 0.018,-1.301 0.582,-0.472 1.058,-1.073 1.598,-1.599 0.31,-0.3 0.401,-0.505 0.019,-0.864 -0.365,-0.342 -0.62,-0.426 -0.983,-0.057 -0.957,0.973 -1.908,1.952 -2.894,2.895 -0.352,0.335 -0.215,0.469 0.074,0.726 1.02,0.906 2.026,1.828 2.995,2.786 0.283,0.28 0.603,0.372 0.759,0.101 0.152,-0.264 0.725,-0.547 0.24,-1.011 -0.609,-0.559 -1.216,-1.118 -1.826,-1.676 z" />
        </g>
        <g
           id="g2713">
          <path
             style="fill:#1c4781"
             inkscape:connector-curvature="0"
             id="path2715"
             d="m 1173.41,1043.138 c -0.496,-0.181 -0.641,-0.194 -0.75,0.324 -0.281,1.336 -0.601,2.666 -0.89,4 -0.045,0.209 -0.27,0.485 0.12,0.628 0.3,0.111 0.598,0.229 0.755,0.289 0.413,-0.236 0.352,-0.478 0.398,-0.679 0.179,-0.772 0.415,-1.537 0.516,-2.32 0.092,-0.721 0.385,-0.771 0.987,-0.563 0.781,0.269 1.6,0.428 2.389,0.675 0.418,0.13 0.621,0.037 0.653,-0.402 0.024,-0.338 0.371,-0.708 -0.341,-0.861 -1.297,-0.279 -2.589,-0.639 -3.837,-1.091 z" />
        </g>
        <g
           id="g2717">
          <path
             style="fill:#1c4781"
             inkscape:connector-curvature="0"
             id="path2719"
             d="m 1177.233,1034.435 c -0.271,-0.208 -0.446,-0.769 -0.953,-0.368 -0.271,0.214 -0.587,0.318 -0.821,0.649 -0.471,0.662 -1.032,1.294 -1.668,1.8 -0.736,0.586 -1.583,0.39 -2.285,-0.135 -0.705,-0.528 -0.117,-1.102 0.18,-1.493 0.382,-0.504 0.983,-0.989 1.612,-0.994 0.918,-0.01 1.555,-0.628 2.379,-0.813 0.611,-0.138 0.218,-0.663 0.144,-0.998 -0.097,-0.436 -0.472,-0.316 -0.683,-0.15 -0.72,0.564 -1.648,0.357 -2.417,0.717 -0.434,0.203 -0.547,0.191 -0.723,-0.407 -0.226,-0.771 -0.532,-1.536 -0.685,-2.33 -0.145,-0.751 -0.706,-0.782 -1.19,-0.683 -0.662,0.136 -0.227,0.638 -0.132,0.952 0.594,1.967 1.278,3.93 -0.367,5.748 -0.04,0.044 -0.116,0.053 -0.175,0.078 -1.597,-2.125 -1.611,-2.203 -0.987,-4.708 0.113,-0.452 0.203,-0.91 0.307,-1.364 0.139,-0.616 -0.395,-0.453 -0.672,-0.577 -0.317,-0.142 -0.554,-0.11 -0.61,0.305 -0.035,0.249 -0.104,0.494 -0.162,0.74 -0.619,2.622 -0.615,2.605 -3.188,1.865 -0.438,-0.126 -1.081,-0.68 -1.362,0.173 -0.297,0.898 0.485,0.922 1.044,1.086 0.174,0.05 0.354,0.077 0.522,0.139 1.403,0.52 3.02,0.685 3.575,2.493 0.172,0.564 0.082,0.749 -0.424,0.771 -1.218,0.055 -2.426,0.129 -3.28,-1.069 -0.368,-0.516 -0.974,-0.856 -1.412,-1.331 -0.395,-0.427 -0.662,-0.396 -1.055,0.01 -0.411,0.422 -0.199,0.68 0.115,0.968 0.53,0.486 1.046,0.99 1.597,1.451 0.515,0.43 0.786,0.753 0.045,1.281 -0.575,0.411 -1.021,1.008 -1.507,1.538 -0.233,0.254 -0.734,0.426 -0.203,0.923 0.43,0.402 0.733,0.489 1.149,0.024 0.456,-0.509 0.936,-0.999 1.43,-1.47 0.756,-0.722 1.626,-1.156 2.718,-1.055 0.761,0.071 0.935,0.329 0.67,1.108 -0.515,1.515 -1.782,1.872 -3.076,2.143 -1.205,0.252 -2.039,0.687 -1.787,2.11 1.091,-0.723 2.389,-0.768 3.597,-1.107 0.229,-0.064 0.332,0.047 0.419,0.21 0.11,0.206 0.01,0.354 -0.183,0.411 -1.128,0.329 -2.257,0.656 -3.394,0.956 -0.24,0.063 -0.354,-0.187 -0.471,-0.363 -0.261,0.242 -0.487,0.539 -0.786,0.712 -0.433,0.249 -0.805,0.479 -0.565,1.053 0.243,0.579 0.701,0.328 1.106,0.262 0.194,-0.031 0.439,-0.219 0.538,0.098 0.093,0.294 -0.221,0.307 -0.374,0.425 -0.623,0.479 -1.402,0.544 -2.109,0.8 -0.362,0.131 -0.77,0.221 -0.552,0.821 0.165,0.456 0.221,0.838 0.849,0.513 0.296,-0.152 0.704,0.137 1.016,-0.166 0.146,-0.142 0.33,-0.338 0.539,-0.101 0.166,0.189 0.057,0.434 -0.023,0.61 -0.224,0.49 -0.482,0.967 -0.756,1.432 -0.217,0.368 -0.265,0.629 0.194,0.867 0.418,0.217 0.663,0.274 0.942,-0.224 0.392,-0.7 0.687,-1.474 1.285,-2.105 0.449,0.559 0.468,1.19 0.617,1.771 0.121,0.47 0.331,0.665 0.843,0.519 0.48,-0.137 0.628,-0.343 0.48,-0.85 -0.322,-1.105 -0.604,-2.224 -0.863,-3.345 -0.169,-0.734 -0.409,-1.248 -1.276,-0.751 -0.132,0.075 -0.277,0.119 -0.377,-0.026 -0.141,-0.204 0,-0.324 0.167,-0.42 0.278,-0.163 0.553,-0.335 0.838,-0.487 0.524,-0.28 0.914,-0.339 1.048,0.445 0.133,0.776 0.396,1.53 0.591,2.296 0.116,0.451 0.312,0.676 0.837,0.504 0.471,-0.154 0.641,-0.346 0.467,-0.858 -0.221,-0.646 -0.385,-1.315 -0.51,-1.987 -0.092,-0.492 -0.627,-1.258 -0.074,-1.429 0.638,-0.198 0.515,0.75 0.721,1.185 0.189,0.396 0.295,0.735 0.827,0.51 0.451,-0.191 0.778,-0.365 0.524,-0.999 -0.313,-0.781 -0.493,-1.617 -0.714,-2.434 -0.12,-0.444 -0.306,-0.875 -0.015,-1.35 0.39,-0.635 0.719,-1.306 1.072,-1.961 0.243,0.249 0.485,0.496 0.729,0.744 0.085,0.14 0.171,0.281 0.258,0.42 0.093,0.479 0.422,0.831 0.666,1.231 -0.446,1.114 -0.278,2.401 -1.048,3.453 -0.273,0.374 0.208,0.682 0.627,0.78 0.354,0.083 0.766,0.374 0.892,-0.309 0.17,-0.914 0.39,-1.819 0.595,-2.727 0.062,-0.275 0.092,-0.597 0.53,-0.354 0.83,0.464 1.831,0.265 2.684,0.671 0.369,0.176 0.669,0.177 0.776,-0.359 0.096,-0.472 0.151,-0.802 -0.465,-0.939 -1.122,-0.249 -2.228,-0.569 -3.34,-0.859 -0.501,-0.875 -1.207,-1.64 -1.433,-2.663 2.204,-0.418 3.775,0.618 5.098,2.226 0.067,0.082 0.188,0.124 0.246,0.209 0.318,0.46 0.623,0.343 0.978,0.03 0.413,-0.364 0.311,-0.657 -0.044,-0.979 -0.611,-0.558 -1.178,-1.173 -1.827,-1.682 -0.448,-0.352 -0.39,-0.6 -0.047,-0.935 0.618,-0.604 1.232,-1.213 1.843,-1.826 0.192,-0.197 0.514,-0.41 0.144,-0.693 z" />
        </g>
      </g>
      <g
         id="g2721">
        <g
           id="g2723">
          <path
             style="fill:#1c4781"
             inkscape:connector-curvature="0"
             id="path2725"
             d="m 1189.11,1251.681 c -0.476,-0.139 -0.72,-0.083 -0.829,0.457 -0.256,1.257 -0.563,2.504 -0.854,3.754 -0.104,0.444 -0.218,0.769 0.489,0.887 0.627,0.105 0.745,-0.094 0.832,-0.594 0.105,-0.592 0.257,-1.175 0.457,-2.071 0.532,0.884 0.855,1.534 1.29,2.098 0.223,0.289 0.2,1.055 1.033,0.583 0.797,-0.451 0.371,-0.798 0.135,-1.255 -0.275,-0.533 -0.993,-1.091 -0.751,-1.57 0.264,-0.522 1.02,0.058 1.567,0.067 0.562,0.01 0.722,-0.059 0.846,-0.585 0.129,-0.551 -0.096,-0.677 -0.555,-0.79 -1.226,-0.299 -2.447,-0.627 -3.66,-0.981 z" />
        </g>
        <g
           id="g2727">
          <path
             style="fill:#1c4781"
             inkscape:connector-curvature="0"
             id="path2729"
             d="m 1178.106,1235.301 c 0.603,0.188 0.732,-0.056 0.836,-0.577 0.235,-1.181 0.482,-2.364 0.821,-3.517 0.161,-0.546 0.178,-0.799 -0.438,-1.002 -0.71,-0.233 -0.779,0.156 -0.872,0.655 -0.103,0.557 -0.239,1.107 -0.361,1.661 -0.09,0.015 -0.179,0.03 -0.267,0.044 -0.406,-0.675 -0.836,-1.338 -1.21,-2.029 -0.268,-0.497 -0.563,-0.564 -1.041,-0.287 -0.53,0.308 -0.3,0.643 -0.104,0.995 0.142,0.251 0.299,0.495 0.435,0.75 0.21,0.396 0.776,0.843 0.438,1.214 -0.339,0.371 -0.918,-0.09 -1.393,-0.185 -0.032,-0.01 -0.063,-0.033 -0.09,-0.055 -0.393,-0.325 -0.71,-0.345 -0.882,0.219 -0.153,0.501 -0.304,0.938 0.476,1.111 1.232,0.274 2.448,0.627 3.652,1.003 z" />
        </g>
        <g
           id="g2731">
          <path
             style="fill:#1c4781"
             inkscape:connector-curvature="0"
             id="path2733"
             d="m 1198.249,1242.56 c -0.807,0.044 -1.617,0.025 -2.629,0.037 0.584,-0.597 0.993,-1.031 1.418,-1.447 0.324,-0.317 0.612,-0.549 0.136,-1.041 -0.46,-0.478 -0.76,-0.245 -1.076,0.059 -0.908,0.872 -1.8,1.761 -2.685,2.656 -0.256,0.259 -0.464,0.492 -0.027,0.866 1.011,0.866 1.973,1.79 2.926,2.719 0.374,0.363 0.618,0.351 0.968,-0.03 0.358,-0.392 0.303,-0.674 -0.067,-0.983 -0.303,-0.255 -0.599,-0.518 -0.889,-0.788 -0.128,-0.119 -0.308,-0.274 -0.191,-0.45 0.083,-0.126 0.359,-0.279 0.432,-0.233 0.608,0.383 1.166,-0.177 1.743,-0.062 0.553,0.11 0.864,-0.229 0.866,-0.657 0,-0.507 -0.411,-0.675 -0.925,-0.646 z" />
        </g>
        <g
           id="g2735">
          <path
             style="fill:#1c4781"
             inkscape:connector-curvature="0"
             id="path2737"
             d="m 1168.596,1244.401 c 0.418,0.063 0.803,0.066 1.224,0 0.351,-0.058 0.786,-0.187 1.073,0.095 0.12,0.315 0.12,0.545 -0.113,0.744 -0.246,0.209 -0.454,0.466 -0.705,0.669 -0.402,0.323 -0.409,0.575 -0.016,0.95 0.386,0.37 0.626,0.329 0.972,-0.027 0.905,-0.926 1.836,-1.827 2.763,-2.732 0.26,-0.252 0.439,-0.495 0.093,-0.809 -1.037,-0.94 -2.085,-1.869 -3.104,-2.829 -0.438,-0.412 -0.6,-0.02 -0.866,0.198 -0.343,0.276 -0.287,0.5 -0.025,0.801 0.426,0.492 1.465,0.884 1.174,1.44 -0.248,0.475 -1.329,0.128 -2.038,0.196 -0.107,0.01 -0.217,0.012 -0.325,10e-4 -0.353,-0.034 -0.575,0.092 -0.524,0.476 0.039,0.314 -0.164,0.743 0.417,0.83 z" />
        </g>
        <g
           id="g2739">
          <path
             style="fill:#1c4781"
             inkscape:connector-curvature="0"
             id="path2741"
             d="m 1189.093,1235.104 c 1.021,-0.435 2.028,-0.804 3.146,-0.931 0.333,-0.038 0.947,-0.295 0.715,-1.054 -0.221,-0.715 -0.539,-0.594 -1.023,-0.364 -0.286,0.135 -0.607,0.206 -0.921,0.272 -0.198,0.042 -0.545,0.096 -0.589,0.015 -0.104,-0.191 -0.143,-0.436 0.036,-0.69 0.329,-0.466 0.567,-0.997 0.884,-1.474 0.314,-0.475 0.069,-0.685 -0.31,-0.931 -0.432,-0.281 -0.626,-0.116 -0.83,0.273 -0.4,0.763 -0.837,1.506 -1.347,2.416 -0.211,-0.729 -0.339,-1.286 -0.534,-1.818 -0.13,-0.356 0.067,-1.008 -0.789,-0.78 -0.749,0.2 -0.653,0.587 -0.508,1.109 0.313,1.128 0.664,2.25 0.896,3.395 0.162,0.807 0.765,0.735 1.174,0.562 z" />
        </g>
        <g
           id="g2743">
          <path
             style="fill:#1c4781"
             inkscape:connector-curvature="0"
             id="path2745"
             d="m 1187.109,1237.871 c 1.203,-0.496 2.455,-0.851 3.733,-1.089 0.935,-0.173 0.73,-0.769 0.535,-1.439 -0.103,-0.254 -0.334,-0.209 -0.597,-0.122 -0.647,0.216 -1.317,0.376 -1.945,0.638 -0.851,0.352 -1.395,0.315 -1.528,-0.774 -0.083,-0.673 -0.325,-1.325 -0.491,-1.987 -0.11,-0.437 -0.301,-0.571 -0.771,-0.375 -0.339,0.141 -0.711,0.087 -0.551,0.653 0.392,1.382 0.739,2.776 1.114,4.164 0.064,0.238 0.115,0.49 0.501,0.331 z" />
        </g>
        <g
           id="g2747">
          <path
             style="fill:#1c4781"
             inkscape:connector-curvature="0"
             id="path2749"
             d="m 1179.781,1237.844 c 0.213,0.056 0.501,0.28 0.598,-0.139 0.342,-1.475 0.674,-2.953 1.006,-4.431 0.015,-0.065 -0.011,-0.14 -0.02,-0.23 -0.229,-0.251 -0.567,-0.268 -0.874,-0.331 -0.364,-0.076 -0.388,0.233 -0.442,0.475 -0.193,0.843 -0.404,1.685 -0.563,2.535 -0.092,0.487 -0.306,0.77 -0.771,0.476 -0.758,-0.479 -1.656,-0.351 -2.441,-0.66 -0.485,-0.191 -0.732,-0.078 -0.84,0.438 -0.092,0.442 -0.07,0.716 0.478,0.844 1.298,0.301 2.578,0.682 3.869,1.023 z" />
        </g>
        <g
           id="g2751">
          <path
             style="fill:#1c4781"
             inkscape:connector-curvature="0"
             id="path2753"
             d="m 1174.732,1243.116 c 0.527,0.419 0.441,0.694 -0.01,1.093 -0.617,0.551 -1.181,1.162 -1.77,1.746 -0.208,0.205 -0.496,0.415 -0.08,0.668 0.288,0.175 0.448,0.781 1.207,0.099 0.782,-0.773 1.809,-1.784 2.829,-2.799 0.361,-0.359 0.047,-0.552 -0.194,-0.774 -0.95,-0.873 -1.899,-1.746 -2.838,-2.632 -0.348,-0.329 -0.634,-0.486 -1.071,-0.08 -0.543,0.503 -0.06,0.783 0.195,1.053 0.543,0.576 1.111,1.136 1.729,1.626 z" />
        </g>
        <g
           id="g2755">
          <path
             style="fill:#1c4781"
             inkscape:connector-curvature="0"
             id="path2757"
             d="m 1192.582,1243.956 c -0.485,-0.442 -0.576,-0.821 0.018,-1.301 0.582,-0.472 1.058,-1.073 1.598,-1.599 0.31,-0.3 0.402,-0.505 0.019,-0.864 -0.365,-0.342 -0.62,-0.426 -0.983,-0.057 -0.957,0.973 -1.908,1.952 -2.895,2.895 -0.351,0.335 -0.214,0.469 0.075,0.726 1.02,0.906 2.026,1.828 2.995,2.786 0.283,0.28 0.603,0.372 0.759,0.101 0.152,-0.264 0.726,-0.547 0.241,-1.011 -0.61,-0.559 -1.218,-1.118 -1.827,-1.676 z" />
        </g>
        <g
           id="g2759">
          <path
             style="fill:#1c4781"
             inkscape:connector-curvature="0"
             id="path2761"
             d="m 1187.54,1249.104 c -0.496,-0.181 -0.64,-0.194 -0.75,0.324 -0.281,1.336 -0.601,2.666 -0.89,4 -0.045,0.209 -0.27,0.485 0.12,0.629 0.3,0.11 0.598,0.229 0.755,0.288 0.413,-0.236 0.352,-0.478 0.398,-0.678 0.179,-0.773 0.416,-1.538 0.516,-2.32 0.092,-0.721 0.385,-0.771 0.987,-0.563 0.781,0.269 1.6,0.428 2.389,0.675 0.418,0.13 0.621,0.037 0.653,-0.402 0.025,-0.338 0.371,-0.708 -0.341,-0.862 -1.297,-0.278 -2.589,-0.638 -3.837,-1.091 z" />
        </g>
        <g
           id="g2763">
          <path
             style="fill:#1c4781"
             inkscape:connector-curvature="0"
             id="path2765"
             d="m 1191.363,1240.401 c -0.271,-0.208 -0.446,-0.769 -0.953,-0.368 -0.271,0.214 -0.586,0.318 -0.821,0.649 -0.471,0.663 -1.032,1.294 -1.668,1.8 -0.737,0.586 -1.583,0.39 -2.284,-0.135 -0.706,-0.528 -0.118,-1.102 0.179,-1.493 0.382,-0.504 0.983,-0.99 1.612,-0.995 0.918,-0.01 1.555,-0.628 2.379,-0.813 0.611,-0.138 0.218,-0.663 0.144,-0.997 -0.097,-0.437 -0.472,-0.316 -0.683,-0.15 -0.719,0.564 -1.648,0.357 -2.417,0.717 -0.435,0.203 -0.547,0.191 -0.723,-0.407 -0.226,-0.771 -0.532,-1.536 -0.685,-2.33 -0.145,-0.751 -0.706,-0.782 -1.19,-0.683 -0.662,0.136 -0.227,0.638 -0.132,0.952 0.594,1.967 1.278,3.93 -0.367,5.748 -0.04,0.044 -0.116,0.053 -0.175,0.078 -1.597,-2.125 -1.611,-2.203 -0.987,-4.708 0.113,-0.452 0.203,-0.91 0.307,-1.364 0.139,-0.616 -0.395,-0.453 -0.672,-0.577 -0.317,-0.142 -0.554,-0.11 -0.61,0.305 -0.035,0.249 -0.104,0.494 -0.163,0.74 -0.618,2.622 -0.614,2.605 -3.187,1.865 -0.438,-0.126 -1.081,-0.68 -1.362,0.173 -0.297,0.898 0.486,0.922 1.044,1.086 0.174,0.05 0.354,0.077 0.522,0.139 1.402,0.52 3.02,0.685 3.575,2.493 0.172,0.564 0.083,0.749 -0.424,0.771 -1.218,0.055 -2.427,0.129 -3.28,-1.069 -0.368,-0.516 -0.974,-0.856 -1.412,-1.331 -0.395,-0.428 -0.662,-0.396 -1.055,0.01 -0.411,0.422 -0.199,0.68 0.115,0.968 0.529,0.486 1.046,0.99 1.598,1.451 0.514,0.43 0.785,0.753 0.044,1.281 -0.575,0.411 -1.021,1.008 -1.507,1.538 -0.233,0.254 -0.734,0.426 -0.203,0.923 0.43,0.402 0.733,0.489 1.149,0.024 0.456,-0.509 0.936,-0.999 1.43,-1.47 0.756,-0.722 1.626,-1.156 2.718,-1.055 0.761,0.071 0.935,0.329 0.67,1.108 -0.515,1.515 -1.782,1.872 -3.076,2.143 -1.205,0.252 -2.039,0.687 -1.787,2.11 1.091,-0.722 2.389,-0.768 3.597,-1.107 0.229,-0.064 0.333,0.047 0.419,0.21 0.109,0.206 0.01,0.354 -0.183,0.411 -1.128,0.329 -2.257,0.656 -3.394,0.956 -0.24,0.063 -0.354,-0.187 -0.471,-0.363 -0.26,0.242 -0.487,0.539 -0.786,0.712 -0.433,0.249 -0.805,0.479 -0.565,1.053 0.243,0.579 0.701,0.328 1.107,0.262 0.193,-0.031 0.438,-0.219 0.537,0.098 0.093,0.295 -0.221,0.307 -0.374,0.425 -0.624,0.479 -1.401,0.544 -2.108,0.8 -0.363,0.131 -0.771,0.221 -0.553,0.821 0.165,0.456 0.221,0.838 0.849,0.513 0.296,-0.152 0.704,0.137 1.016,-0.166 0.146,-0.142 0.33,-0.338 0.539,-0.101 0.167,0.189 0.058,0.434 -0.023,0.61 -0.224,0.49 -0.482,0.967 -0.756,1.432 -0.217,0.368 -0.265,0.629 0.194,0.867 0.418,0.217 0.664,0.274 0.943,-0.224 0.391,-0.7 0.686,-1.474 1.284,-2.105 0.449,0.559 0.468,1.19 0.617,1.771 0.122,0.47 0.331,0.665 0.843,0.519 0.48,-0.137 0.629,-0.343 0.48,-0.85 -0.322,-1.105 -0.604,-2.224 -0.863,-3.345 -0.169,-0.734 -0.409,-1.248 -1.275,-0.751 -0.133,0.076 -0.278,0.119 -0.378,-0.026 -0.141,-0.204 0,-0.324 0.167,-0.42 0.279,-0.163 0.553,-0.335 0.838,-0.487 0.524,-0.28 0.914,-0.339 1.048,0.445 0.133,0.776 0.396,1.53 0.591,2.296 0.116,0.452 0.312,0.676 0.837,0.504 0.471,-0.154 0.641,-0.346 0.467,-0.858 -0.22,-0.646 -0.385,-1.315 -0.51,-1.987 -0.092,-0.491 -0.626,-1.258 -0.074,-1.429 0.638,-0.198 0.515,0.75 0.722,1.185 0.188,0.396 0.295,0.735 0.826,0.51 0.451,-0.191 0.778,-0.365 0.524,-0.999 -0.313,-0.781 -0.493,-1.617 -0.714,-2.434 -0.121,-0.444 -0.306,-0.875 -0.015,-1.35 0.39,-0.635 0.719,-1.306 1.072,-1.961 0.243,0.249 0.485,0.496 0.729,0.744 0.085,0.14 0.171,0.281 0.257,0.42 0.094,0.479 0.423,0.831 0.667,1.23 -0.446,1.115 -0.278,2.401 -1.048,3.453 -0.273,0.374 0.208,0.682 0.627,0.78 0.354,0.083 0.766,0.374 0.892,-0.309 0.17,-0.914 0.39,-1.819 0.595,-2.727 0.062,-0.276 0.092,-0.598 0.53,-0.354 0.83,0.463 1.831,0.265 2.684,0.67 0.369,0.176 0.669,0.177 0.776,-0.359 0.096,-0.472 0.151,-0.802 -0.465,-0.939 -1.122,-0.249 -2.228,-0.569 -3.34,-0.859 -0.501,-0.875 -1.207,-1.64 -1.433,-2.663 2.204,-0.418 3.775,0.618 5.098,2.226 0.067,0.082 0.188,0.124 0.246,0.209 0.318,0.46 0.623,0.343 0.978,0.03 0.414,-0.364 0.311,-0.656 -0.043,-0.979 -0.612,-0.558 -1.178,-1.173 -1.828,-1.682 -0.448,-0.352 -0.39,-0.599 -0.047,-0.935 0.618,-0.604 1.232,-1.213 1.843,-1.826 0.192,-0.195 0.513,-0.407 0.144,-0.691 z" />
        </g>
      </g>
      <g
         style="opacity:0.6"
         id="g2767">
        <g
           id="g2769">
          <path
             style="fill:#1c4781"
             inkscape:connector-curvature="0"
             id="path2771"
             d="m 1228.681,1186.802 c -0.344,-0.101 -0.52,-0.06 -0.6,0.331 -0.185,0.909 -0.406,1.811 -0.616,2.714 -0.076,0.321 -0.157,0.556 0.354,0.642 0.453,0.076 0.539,-0.068 0.602,-0.429 0.076,-0.428 0.186,-0.85 0.33,-1.498 0.385,0.639 0.619,1.109 0.933,1.517 0.161,0.209 0.145,0.763 0.747,0.422 0.576,-0.327 0.269,-0.577 0.098,-0.908 -0.199,-0.385 -0.718,-0.789 -0.543,-1.135 0.19,-0.377 0.737,0.042 1.133,0.048 0.406,0.01 0.521,-0.042 0.611,-0.422 0.094,-0.399 -0.069,-0.489 -0.4,-0.571 -0.89,-0.218 -1.771,-0.455 -2.649,-0.711 z" />
        </g>
        <g
           id="g2773">
          <path
             style="fill:#1c4781"
             inkscape:connector-curvature="0"
             id="path2775"
             d="m 1220.726,1174.959 c 0.435,0.136 0.529,-0.04 0.604,-0.417 0.17,-0.854 0.348,-1.709 0.594,-2.543 0.116,-0.395 0.128,-0.578 -0.317,-0.724 -0.514,-0.169 -0.563,0.113 -0.63,0.474 -0.075,0.402 -0.174,0.801 -0.262,1.201 -0.064,0.01 -0.129,0.021 -0.193,0.031 -0.293,-0.488 -0.604,-0.967 -0.874,-1.467 -0.194,-0.359 -0.407,-0.407 -0.753,-0.207 -0.383,0.223 -0.217,0.465 -0.074,0.719 0.102,0.182 0.216,0.358 0.313,0.542 0.151,0.287 0.562,0.609 0.316,0.878 -0.246,0.269 -0.664,-0.065 -1.007,-0.134 -0.023,0 -0.046,-0.024 -0.064,-0.04 -0.284,-0.235 -0.514,-0.249 -0.639,0.158 -0.11,0.362 -0.219,0.679 0.345,0.804 0.891,0.199 1.769,0.454 2.641,0.725 z" />
        </g>
        <g
           id="g2777">
          <path
             style="fill:#1c4781"
             inkscape:connector-curvature="0"
             id="path2779"
             d="m 1235.288,1180.207 c -0.583,0.032 -1.17,0.019 -1.9,0.026 0.422,-0.431 0.718,-0.745 1.025,-1.046 0.234,-0.229 0.441,-0.397 0.098,-0.753 -0.333,-0.345 -0.55,-0.177 -0.778,0.043 -0.656,0.63 -1.301,1.273 -1.941,1.92 -0.185,0.187 -0.335,0.355 -0.02,0.626 0.73,0.626 1.427,1.293 2.116,1.965 0.27,0.263 0.446,0.254 0.699,-0.021 0.259,-0.283 0.219,-0.487 -0.049,-0.711 -0.219,-0.184 -0.433,-0.374 -0.643,-0.569 -0.093,-0.086 -0.222,-0.199 -0.138,-0.326 0.06,-0.091 0.26,-0.202 0.312,-0.168 0.44,0.276 0.843,-0.128 1.261,-0.045 0.398,0.079 0.624,-0.166 0.626,-0.475 0,-0.365 -0.296,-0.486 -0.668,-0.466 z" />
        </g>
        <g
           id="g2781">
          <path
             style="fill:#1c4781"
             inkscape:connector-curvature="0"
             id="path2783"
             d="m 1213.85,1181.539 c 0.302,0.045 0.58,0.047 0.885,0 0.253,-0.042 0.568,-0.135 0.775,0.068 0.087,0.228 0.087,0.394 -0.082,0.538 -0.178,0.152 -0.328,0.337 -0.51,0.484 -0.291,0.234 -0.296,0.416 -0.012,0.687 0.279,0.268 0.453,0.238 0.703,-0.02 0.654,-0.669 1.327,-1.321 1.997,-1.976 0.188,-0.183 0.317,-0.357 0.067,-0.585 -0.75,-0.68 -1.508,-1.351 -2.244,-2.045 -0.315,-0.298 -0.434,-0.014 -0.626,0.143 -0.248,0.2 -0.208,0.361 -0.019,0.58 0.309,0.355 1.06,0.639 0.849,1.041 -0.179,0.343 -0.961,0.093 -1.474,0.142 -0.077,0.01 -0.156,0.01 -0.234,10e-4 -0.256,-0.025 -0.416,0.066 -0.379,0.344 0.03,0.227 -0.117,0.537 0.304,0.6 z" />
        </g>
        <g
           id="g2785">
          <path
             style="fill:#1c4781"
             inkscape:connector-curvature="0"
             id="path2787"
             d="m 1228.668,1174.816 c 0.738,-0.314 1.467,-0.581 2.274,-0.673 0.241,-0.028 0.685,-0.214 0.517,-0.762 -0.159,-0.517 -0.39,-0.429 -0.74,-0.263 -0.206,0.098 -0.439,0.149 -0.665,0.197 -0.144,0.03 -0.395,0.069 -0.426,0.01 -0.075,-0.138 -0.104,-0.315 0.026,-0.499 0.238,-0.337 0.41,-0.721 0.639,-1.065 0.228,-0.344 0.05,-0.496 -0.224,-0.673 -0.313,-0.203 -0.452,-0.084 -0.601,0.197 -0.289,0.551 -0.604,1.088 -0.974,1.747 -0.152,-0.528 -0.245,-0.93 -0.386,-1.315 -0.094,-0.257 0.048,-0.729 -0.571,-0.564 -0.541,0.145 -0.472,0.425 -0.367,0.802 0.227,0.815 0.48,1.626 0.647,2.454 0.121,0.585 0.555,0.533 0.851,0.407 z" />
        </g>
        <g
           id="g2789">
          <path
             style="fill:#1c4781"
             inkscape:connector-curvature="0"
             id="path2791"
             d="m 1227.234,1176.817 c 0.87,-0.358 1.774,-0.615 2.699,-0.787 0.676,-0.125 0.528,-0.556 0.387,-1.041 -0.074,-0.184 -0.242,-0.151 -0.432,-0.088 -0.468,0.156 -0.952,0.272 -1.406,0.461 -0.614,0.255 -1.008,0.228 -1.105,-0.56 -0.06,-0.487 -0.234,-0.958 -0.354,-1.437 -0.08,-0.316 -0.218,-0.413 -0.558,-0.271 -0.245,0.102 -0.515,0.063 -0.398,0.473 0.283,0.999 0.535,2.007 0.806,3.01 0.045,0.173 0.082,0.355 0.361,0.24 z" />
        </g>
        <g
           id="g2793">
          <path
             style="fill:#1c4781"
             inkscape:connector-curvature="0"
             id="path2795"
             d="m 1221.936,1176.798 c 0.154,0.04 0.362,0.203 0.433,-0.101 0.247,-1.066 0.487,-2.134 0.728,-3.203 0.011,-0.047 -0.01,-0.102 -0.015,-0.167 -0.165,-0.182 -0.41,-0.193 -0.632,-0.24 -0.263,-0.054 -0.28,0.169 -0.32,0.344 -0.14,0.609 -0.292,1.218 -0.406,1.833 -0.066,0.352 -0.222,0.556 -0.557,0.344 -0.549,-0.346 -1.198,-0.254 -1.766,-0.478 -0.351,-0.138 -0.529,-0.056 -0.607,0.316 -0.066,0.319 -0.051,0.518 0.346,0.61 0.937,0.22 1.863,0.495 2.796,0.742 z" />
        </g>
        <g
           id="g2797">
          <path
             style="fill:#1c4781"
             inkscape:connector-curvature="0"
             id="path2799"
             d="m 1218.285,1180.61 c 0.382,0.302 0.32,0.501 0,0.79 -0.447,0.398 -0.854,0.84 -1.28,1.262 -0.149,0.148 -0.358,0.3 -0.057,0.482 0.208,0.127 0.324,0.565 0.872,0.072 0.566,-0.559 1.308,-1.29 2.046,-2.023 0.261,-0.259 0.033,-0.399 -0.141,-0.56 -0.688,-0.631 -1.374,-1.263 -2.052,-1.903 -0.252,-0.237 -0.459,-0.352 -0.775,-0.057 -0.392,0.364 -0.043,0.566 0.142,0.761 0.392,0.417 0.803,0.821 1.249,1.176 z" />
        </g>
        <g
           id="g2801">
          <path
             style="fill:#1c4781"
             inkscape:connector-curvature="0"
             id="path2803"
             d="m 1231.19,1181.217 c -0.351,-0.319 -0.416,-0.593 0.014,-0.941 0.421,-0.341 0.764,-0.776 1.155,-1.156 0.223,-0.217 0.29,-0.365 0.013,-0.625 -0.264,-0.247 -0.448,-0.308 -0.711,-0.041 -0.692,0.703 -1.38,1.411 -2.093,2.093 -0.253,0.242 -0.154,0.338 0.055,0.524 0.736,0.655 1.465,1.321 2.165,2.015 0.205,0.202 0.436,0.269 0.549,0.073 0.11,-0.191 0.524,-0.396 0.174,-0.731 -0.441,-0.404 -0.879,-0.808 -1.321,-1.211 z" />
        </g>
        <g
           id="g2805">
          <path
             style="fill:#1c4781"
             inkscape:connector-curvature="0"
             id="path2807"
             d="m 1227.546,1184.939 c -0.359,-0.13 -0.463,-0.14 -0.542,0.234 -0.204,0.966 -0.435,1.927 -0.644,2.892 -0.032,0.151 -0.195,0.351 0.087,0.455 0.216,0.08 0.432,0.166 0.545,0.208 0.299,-0.171 0.255,-0.346 0.288,-0.491 0.13,-0.559 0.301,-1.111 0.373,-1.677 0.066,-0.521 0.278,-0.557 0.714,-0.407 0.564,0.194 1.156,0.31 1.727,0.488 0.303,0.094 0.449,0.026 0.473,-0.291 0.019,-0.245 0.269,-0.512 -0.246,-0.623 -0.939,-0.2 -1.873,-0.461 -2.775,-0.788 z" />
        </g>
        <g
           id="g2809">
          <path
             style="fill:#1c4781"
             inkscape:connector-curvature="0"
             id="path2811"
             d="m 1230.31,1178.646 c -0.195,-0.15 -0.322,-0.555 -0.688,-0.266 -0.196,0.155 -0.425,0.23 -0.594,0.469 -0.341,0.479 -0.747,0.936 -1.206,1.301 -0.533,0.424 -1.145,0.282 -1.652,-0.098 -0.51,-0.382 -0.085,-0.797 0.13,-1.08 0.276,-0.364 0.711,-0.715 1.166,-0.719 0.663,0 1.123,-0.455 1.72,-0.588 0.441,-0.1 0.157,-0.479 0.104,-0.721 -0.07,-0.315 -0.341,-0.228 -0.493,-0.108 -0.521,0.408 -1.192,0.258 -1.748,0.519 -0.313,0.146 -0.396,0.138 -0.521,-0.295 -0.164,-0.557 -0.386,-1.11 -0.496,-1.685 -0.104,-0.542 -0.51,-0.565 -0.86,-0.493 -0.479,0.098 -0.164,0.461 -0.095,0.688 0.43,1.422 0.924,2.841 -0.266,4.156 -0.029,0.031 -0.084,0.039 -0.127,0.056 -1.154,-1.536 -1.164,-1.593 -0.713,-3.403 0.082,-0.327 0.146,-0.658 0.221,-0.986 0.101,-0.446 -0.285,-0.328 -0.485,-0.418 -0.229,-0.103 -0.4,-0.079 -0.441,0.221 -0.025,0.18 -0.075,0.357 -0.117,0.535 -0.448,1.896 -0.444,1.884 -2.305,1.348 -0.317,-0.091 -0.781,-0.491 -0.984,0.125 -0.215,0.649 0.351,0.667 0.755,0.785 0.125,0.037 0.256,0.056 0.377,0.101 1.015,0.375 2.184,0.495 2.585,1.803 0.124,0.408 0.06,0.541 -0.306,0.558 -0.881,0.04 -1.755,0.093 -2.372,-0.773 -0.267,-0.373 -0.704,-0.619 -1.021,-0.962 -0.285,-0.309 -0.479,-0.287 -0.763,0.01 -0.297,0.305 -0.145,0.492 0.083,0.7 0.383,0.352 0.756,0.716 1.154,1.049 0.372,0.311 0.568,0.544 0.032,0.926 -0.415,0.297 -0.737,0.729 -1.089,1.112 -0.169,0.184 -0.531,0.308 -0.147,0.667 0.312,0.291 0.531,0.353 0.831,0.017 0.33,-0.369 0.677,-0.722 1.034,-1.063 0.546,-0.522 1.175,-0.836 1.965,-0.763 0.55,0.051 0.676,0.237 0.484,0.801 -0.372,1.096 -1.289,1.354 -2.224,1.549 -0.871,0.183 -1.475,0.497 -1.292,1.525 0.788,-0.522 1.727,-0.555 2.6,-0.8 0.165,-0.046 0.24,0.034 0.303,0.152 0.08,0.148 0.01,0.256 -0.132,0.297 -0.815,0.237 -1.632,0.474 -2.453,0.69 -0.174,0.046 -0.257,-0.135 -0.341,-0.263 -0.188,0.175 -0.353,0.39 -0.568,0.515 -0.313,0.18 -0.582,0.346 -0.408,0.761 0.176,0.419 0.507,0.237 0.8,0.189 0.141,-0.022 0.317,-0.158 0.389,0.071 0.067,0.213 -0.159,0.222 -0.271,0.308 -0.45,0.346 -1.013,0.394 -1.524,0.579 -0.263,0.095 -0.557,0.16 -0.399,0.594 0.12,0.329 0.159,0.606 0.613,0.371 0.214,-0.11 0.509,0.099 0.734,-0.12 0.105,-0.103 0.239,-0.244 0.39,-0.073 0.121,0.137 0.042,0.313 -0.017,0.441 -0.161,0.354 -0.349,0.699 -0.546,1.035 -0.157,0.266 -0.191,0.455 0.141,0.627 0.302,0.156 0.479,0.198 0.681,-0.162 0.283,-0.506 0.496,-1.065 0.93,-1.522 0.324,0.404 0.338,0.861 0.445,1.28 0.088,0.34 0.239,0.481 0.61,0.375 0.347,-0.099 0.453,-0.248 0.347,-0.614 -0.232,-0.799 -0.437,-1.608 -0.624,-2.418 -0.122,-0.531 -0.296,-0.902 -0.923,-0.543 -0.096,0.055 -0.2,0.086 -0.272,-0.019 -0.102,-0.147 0,-0.234 0.12,-0.303 0.202,-0.118 0.4,-0.243 0.606,-0.353 0.379,-0.202 0.661,-0.245 0.758,0.322 0.096,0.561 0.286,1.106 0.427,1.66 0.084,0.327 0.226,0.489 0.604,0.364 0.341,-0.111 0.464,-0.25 0.338,-0.62 -0.159,-0.467 -0.278,-0.951 -0.368,-1.437 -0.066,-0.355 -0.453,-0.91 -0.054,-1.033 0.461,-0.144 0.372,0.542 0.521,0.856 0.137,0.287 0.213,0.531 0.598,0.369 0.326,-0.138 0.563,-0.264 0.379,-0.722 -0.227,-0.565 -0.356,-1.169 -0.517,-1.76 -0.087,-0.32 -0.221,-0.633 -0.01,-0.976 0.281,-0.459 0.519,-0.944 0.774,-1.418 0.176,0.179 0.352,0.358 0.527,0.537 0.062,0.101 0.123,0.203 0.186,0.304 0.068,0.346 0.306,0.601 0.482,0.89 -0.323,0.806 -0.201,1.736 -0.758,2.496 -0.198,0.271 0.15,0.493 0.453,0.564 0.257,0.061 0.554,0.27 0.645,-0.223 0.123,-0.661 0.282,-1.315 0.43,-1.972 0.045,-0.199 0.066,-0.432 0.384,-0.255 0.601,0.335 1.324,0.191 1.94,0.484 0.267,0.127 0.483,0.128 0.562,-0.259 0.068,-0.341 0.109,-0.58 -0.337,-0.679 -0.811,-0.18 -1.61,-0.412 -2.414,-0.621 -0.362,-0.632 -0.873,-1.186 -1.035,-1.925 1.593,-0.302 2.729,0.447 3.685,1.609 0.049,0.059 0.136,0.089 0.178,0.151 0.23,0.333 0.45,0.249 0.707,0.021 0.299,-0.263 0.225,-0.475 -0.031,-0.708 -0.442,-0.403 -0.852,-0.848 -1.321,-1.216 -0.324,-0.255 -0.281,-0.434 -0.034,-0.676 0.447,-0.437 0.892,-0.877 1.332,-1.32 0.137,-0.138 0.369,-0.291 0.102,-0.497 z" />
        </g>
      </g>
      <g
         style="opacity:0.7"
         id="g2995">
        <g
           id="g2997">
          <path
             style="fill:#1c4781"
             inkscape:connector-curvature="0"
             id="path2999"
             d="m 1198.745,1449.148 c 3.274,-0.981 6.125,-1.835 9.136,-2.738 -5.283,-2.776 -10.29,-5.407 -15.75,-8.276 2.367,-1.845 4.561,-1.699 6.637,-2.944 -4.211,-2.68 -8.202,-5.221 -12.59,-8.014 1.972,-0.686 3.464,-1.204 5.512,-1.916 -6.025,-3.875 -11.597,-7.459 -17.168,-11.043 -0.374,-0.206 -0.702,-0.332 -0.973,-0.358 -0.211,0.17 -0.415,0.456 -0.615,0.834 -2.682,6.057 -5.363,12.113 -8.265,18.664 2.102,-0.532 3.634,-0.919 5.656,-1.431 -2.128,4.746 -4.063,9.063 -6.106,13.616 2.418,-0.101 4.17,-1.429 7.162,-1.19 -2.983,5.399 -5.718,10.35 -8.604,15.574 3.011,-0.902 5.862,-1.757 9.136,-2.738 -3.025,6.278 -5.822,12.083 -8.884,18.437 7.233,-2.167 13.787,-4.044 20.273,-6.127 2.015,-0.647 2.941,-0.251 3.211,1.759 0.051,0.377 0.212,0.738 0.323,1.106 1.536,5.122 1.74,5.794 5.636,4.641 3.888,-1.18 3.688,-1.854 2.154,-6.976 -0.109,-0.369 -0.174,-0.759 -0.338,-1.102 -0.881,-1.827 -0.325,-2.667 1.714,-3.235 6.563,-1.827 13.068,-3.864 20.302,-6.032 -6.051,-3.621 -11.579,-6.931 -17.559,-10.511 z" />
        </g>
        <g
           id="g3001">
          <path
             style="fill:#1c4781"
             inkscape:connector-curvature="0"
             id="path3003"
             d="m 1193.623,1480.859 c -0.854,0.256 -1.68,0.401 -2.454,0.432 l -0.04,-1.323 c 0.66,-0.026 1.371,-0.152 2.114,-0.375 0.344,-0.093 0.626,-0.204 0.911,-0.323 l 0.514,1.219 c -0.329,0.136 -0.679,0.261 -1.041,0.37 -10e-4,-10e-4 0,0 0,0 z m 4.01,-2.506 -1.048,-0.819 c 0.599,-0.739 0.979,-1.65 1.129,-2.708 l 1.333,0.17 c -0.185,1.297 -0.66,2.426 -1.414,3.357 z m -10.044,2.123 c -0.997,-0.559 -1.868,-1.402 -2.589,-2.505 l 1.135,-0.724 c 0.604,0.924 1.319,1.623 2.129,2.076 l -0.675,1.153 z m 11.327,-8.988 -1.323,0.255 c -0.089,-0.468 -0.208,-0.955 -0.354,-1.446 -0.201,-0.672 -0.42,-1.231 -0.567,-1.582 l 1.245,-0.517 c 0.159,0.38 0.396,0.985 0.613,1.712 0.159,0.535 0.288,1.066 0.386,1.578 z m -15.355,3.315 -0.033,-0.108 c -0.453,-1.513 -0.564,-2.697 -0.568,-2.747 l 0.128,-0.013 -0.166,-0.522 1.304,-0.414 0.074,0.816 c 0,0.011 0.105,1.112 0.52,2.492 l 0.029,0.097 -1.288,0.399 z m -10.987,1.17 -2.154,0.644 -0.377,-1.267 2.152,-0.643 1.074,-0.322 0.381,1.266 -1.076,0.322 z m 40.038,-12 -0.382,-1.266 3.222,-0.977 0.384,1.265 -3.224,0.978 z m -3.23,0.966 c -1.021,0.302 -2.082,0.612 -3.238,0.945 l -0.366,-1.271 c 1.154,-0.333 2.212,-0.642 3.229,-0.942 l 0.375,1.268 z m -42.193,12.638 -3.23,0.958 -0.376,-1.268 3.23,-0.958 0.376,1.268 z m 9.689,-2.904 -0.386,-1.265 c 1.082,-0.33 2.155,-0.659 3.218,-0.988 l 0.392,1.263 c -1.065,0.33 -2.14,0.66 -3.224,0.99 z m 42.182,-12.655 -0.383,-1.266 c 0.991,-0.3 2.058,-0.621 3.226,-0.972 l 0.381,1.267 c -1.169,0.349 -2.234,0.671 -3.224,0.971 z m -58.33,17.477 -4.681,1.399 0.884,-1.551 0.459,0.247 -0.132,-0.439 3.092,-0.923 0.378,1.267 z m 42.169,-12.687 -3.249,0.9 -0.352,-1.275 3.243,-0.899 0.358,1.274 z m 16.892,-7.255 c -1.045,-0.55 -2.019,-1.071 -2.948,-1.577 l 0.66,-1.161 c 0.925,0.502 1.892,1.021 2.933,1.568 l -0.645,1.17 z m -60.053,17.504 -1.184,-0.62 c 0.556,-1.012 1.078,-1.981 1.583,-2.927 l 1.19,0.606 c -0.507,0.95 -1.032,1.925 -1.589,2.941 z m 54.178,-20.689 -0.781,-0.433 c -0.707,-0.392 -1.412,-0.783 -2.133,-1.18 l 0.666,-1.157 c 0.722,0.397 1.429,0.789 2.137,1.182 l 0.781,0.434 -0.67,1.154 z m -51.027,14.796 -1.194,-0.599 0.334,-0.635 c 0.403,-0.77 0.808,-1.538 1.219,-2.316 l 1.192,0.602 c -0.41,0.777 -0.813,1.544 -1.217,2.313 l -0.334,0.635 z m 45.19,-17.999 c -0.923,-0.495 -1.895,-1.008 -2.942,-1.549 l 0.461,-0.852 -1.074,0.322 -0.38,-1.267 3.228,-0.967 0.38,1.267 -1.649,0.494 c 0.93,0.482 1.801,0.942 2.631,1.388 l -0.655,1.164 z m -42.071,12.113 -1.186,-0.613 c 0.51,-0.942 1.043,-1.914 1.611,-2.931 l 1.178,0.629 c -0.566,1.012 -1.095,1.979 -1.603,2.915 z m 48.198,-17.094 -3.228,0.967 -0.38,-1.267 3.228,-0.967 0.38,1.267 z m -47.993,13.692 -3.228,0.967 -0.38,-1.267 3.228,-0.967 0.38,1.267 z m -6.455,1.934 -3.731,1.119 0.966,-1.5 c 0.229,-0.355 0.451,-0.708 0.67,-1.058 l 0.765,0.458 0.951,-0.285 0.379,1.266 z m 51.957,-17.018 c -0.93,-0.464 -1.903,-0.977 -2.977,-1.567 l 0.666,-1.158 c 1.058,0.583 2.016,1.087 2.93,1.543 l -0.619,1.182 z m -51.179,13.383 -1.167,-0.647 c 0.563,-0.972 1.104,-1.934 1.638,-2.894 l 1.179,0.626 c -0.538,0.967 -1.082,1.935 -1.65,2.915 z m 45.286,-16.592 -0.532,-0.304 c -0.782,-0.448 -1.566,-0.897 -2.36,-1.343 l 0.676,-1.152 c 0.797,0.448 1.585,0.898 2.37,1.349 l 0.532,0.304 -0.686,1.146 z m -42.022,10.755 -1.181,-0.625 c 0.534,-0.964 1.076,-1.935 1.641,-2.918 l 1.171,0.642 c -0.563,0.978 -1.101,1.942 -1.631,2.901 z m 36.218,-13.989 c -1.033,-0.54 -2.003,-1.02 -2.964,-1.466 l 0.584,-1.199 c 0.981,0.455 1.969,0.944 3.021,1.494 l -0.641,1.171 z m -32.897,8.232 -1.15,-0.675 c 0.185,-0.301 0.372,-0.604 0.563,-0.908 l -0.224,-0.881 2.835,-0.723 -0.907,1.409 c -0.386,0.6 -0.758,1.192 -1.117,1.778 z m -3.75,-0.349 -3.264,0.833 -0.325,-1.282 3.265,-0.833 0.324,1.282 z m 38.436,-11.572 c -0.25,0.049 -0.5,0.092 -0.751,0.136 -0.819,0.142 -1.585,0.273 -2.416,0.585 l -0.468,-1.237 c 0.94,-0.352 1.822,-0.507 2.663,-0.653 0.242,-0.042 0.483,-0.084 0.726,-0.13 l 0.246,1.299 z m 1.701,-1.241 -2.927,-1.602 0.664,-1.159 2.925,1.601 -0.662,1.16 z m -42.018,10.843 -1.192,-0.603 1.559,-2.947 1.193,0.601 -1.56,2.949 z m 36.168,-14.05 -2.923,-1.605 0.665,-1.158 2.923,1.605 -0.665,1.158 z m -33.051,8.154 -1.192,-0.602 1.561,-2.948 1.191,0.603 -1.56,2.947 z m 27.205,-11.36 -2.796,-1.527 1.43,-0.488 c 0.58,-0.198 1.092,-0.374 1.568,-0.539 l 0.435,1.249 c -0.049,0.017 -0.099,0.034 -0.147,0.051 l 0.174,0.095 -0.664,1.159 z m -25.476,6.56 c -0.855,0.216 -1.375,0.335 -1.897,0.454 -0.403,0.092 -0.809,0.184 -1.377,0.324 l -0.313,-1.285 c 0.578,-0.142 0.99,-0.236 1.399,-0.33 0.515,-0.117 1.025,-0.233 1.867,-0.446 l 0.321,1.283 z m 29.292,-8.971 -0.435,-1.249 c 0.053,-0.018 0.105,-0.037 0.159,-0.055 -0.072,-0.042 -0.145,-0.084 -0.218,-0.126 l 0.694,-1.142 c 0.499,0.29 0.989,0.569 1.471,0.835 l 1.304,0.719 -1.423,0.485 c -0.575,0.195 -1.082,0.37 -1.552,0.533 z m -32.53,7.791 -1.234,-0.514 c 0.36,-0.824 0.819,-1.874 1.338,-3.063 l 1.235,0.511 c -0.519,1.191 -0.978,2.241 -1.339,3.066 z m 29.166,-10.959 c -0.928,-0.578 -1.872,-1.18 -2.822,-1.794 l 0.747,-1.109 c 0.944,0.61 1.882,1.208 2.804,1.783 l -0.729,1.12 z m -26.497,4.827 -1.237,-0.508 c 0.432,-0.996 0.877,-2.03 1.32,-3.066 l 1.239,0.503 c -0.444,1.039 -0.891,2.073 -1.322,3.071 z m 20.879,-8.445 -2.786,-1.829 0.754,-1.105 2.787,1.83 -0.755,1.104 z m -18.248,2.298 -1.241,-0.498 c 0.454,-1.076 0.89,-2.116 1.286,-3.077 l 1.246,0.487 c -0.397,0.965 -0.835,2.008 -1.291,3.088 z m 12.67,-5.936 c -0.964,-0.616 -1.905,-1.208 -2.814,-1.761 l 0.717,-1.129 c 0.917,0.559 1.867,1.156 2.839,1.777 l -0.742,1.113 z m -10.125,-0.264 -1.257,-0.461 c 0.166,-0.428 0.294,-0.769 0.393,-1.04 l -0.681,0.119 0.864,-1.283 c 0.155,-0.23 0.317,-0.444 0.589,-0.526 l 0.646,-0.193 0.221,0.653 c 0.034,0.115 0.063,0.212 0,0.512 l 0.057,0.045 c -0.03,0.037 -0.062,0.072 -0.094,0.106 -0.101,0.371 -0.314,0.984 -0.734,2.068 z m 4.681,-2.965 c -0.565,-0.063 -1.1,-0.53 -1.666,-1.024 -0.297,-0.26 -0.794,-0.694 -0.984,-0.73 l -0.124,-1.312 c 0.697,-0.098 1.334,0.459 2.008,1.048 0.284,0.248 0.759,0.663 0.939,0.703 l -0.173,1.315 z" />
        </g>
      </g>
      <g
         id="g3005">
        <g
           id="g3007">
          <path
             style="fill:#1c4781"
             inkscape:connector-curvature="0"
             id="path3009"
             d="m 1248.084,979.751 -1.822,0.82 -0.512,-1.136 0.687,-0.309 -0.714,-1.585 1.137,-0.511 1.224,2.721 z m -4.662,2.099 -2.84,1.278 -0.511,-1.136 2.839,-1.278 0.512,1.136 z m -6.247,2.812 -2.84,1.279 -0.512,-1.136 2.84,-1.278 0.512,1.135 z m -5.68,2.557 -3.407,1.534 -0.512,-1.136 3.408,-1.534 0.511,1.136 z m -6.247,2.812 -2.84,1.278 -0.512,-1.136 2.84,-1.278 0.512,1.136 z m -6.247,2.813 -2.84,1.278 -0.512,-1.136 2.84,-1.278 0.512,1.136 z m -5.68,2.556 -0.81,0.364 -1.789,-3.976 1.136,-0.511 1.534,3.407 -0.327,0.147 0.256,0.569 z m 32.259,-21.21 -1.136,0.512 -1.278,-2.84 1.137,-0.512 1.277,2.84 z m -35,14.248 -1.137,0.511 -1.277,-2.84 1.136,-0.511 1.278,2.84 z m 32.189,-20.495 -1.136,0.511 -1.279,-2.84 1.137,-0.511 1.278,2.84 z m -35.001,14.248 -1.136,0.511 -1.278,-2.839 1.136,-0.512 1.278,2.84 z m 32.443,-19.927 -1.135,0.512 -1.534,-3.408 1.136,-0.511 1.533,3.407 z m -35,14.248 -1.136,0.511 -1.534,-3.408 1.136,-0.511 1.534,3.408 z m 32.188,-20.495 -1.136,0.511 -1.278,-2.84 1.136,-0.511 1.278,2.84 z m -35.001,14.247 -1.136,0.512 -1.278,-2.84 1.136,-0.511 1.278,2.839 z m 31.839,-20.06 -0.151,-0.209 -0.635,0.286 -0.354,-0.788 0.411,-0.297 c 0.811,-0.587 1.419,-1.142 1.912,-1.745 l 0.965,0.789 c -0.565,0.688 -1.246,1.312 -2.148,1.964 z m -35.686,15.72 c -1.181,0.167 -2.271,0.214 -3.24,0.139 l 0.096,-1.242 c 0.88,0.068 1.879,0.024 2.97,-0.13 l 0.174,1.233 z m 39.445,-20.513 -1.126,-0.532 1.596,-3.379 1.126,0.532 -1.596,3.379 z m -45.792,20.402 -3.097,-0.25 2.723,-2.357 0.815,0.942 -0.477,0.413 0.136,0.011 -0.1,1.241 z m 41.855,-21.349 0.256,-1.298 0.608,0.117 -0.295,-0.544 2.733,-1.481 0.594,1.095 -3.896,2.111 z m -15.647,6.707 -0.078,0.035 c -0.146,0.066 -0.32,0.109 -0.52,0.132 l -0.108,-0.98 -0.55,-0.061 c 0.122,-1.102 0.496,-2.169 1.113,-3.171 l 0.751,0.462 c 0.012,-0.037 0.023,-0.073 0.034,-0.11 l 1.19,0.367 c -0.371,1.201 -1.062,2.678 -1.767,3.27 l -0.065,0.056 z m -26.284,11.538 -2.974,-0.925 0.37,-1.189 0.347,0.108 -0.226,-1.052 3.044,-0.654 0.262,1.218 -2.75,0.59 2.297,0.715 -0.37,1.189 z m 17.983,-8.108 c -0.028,0.013 -0.055,0.024 -0.069,0.03 l -0.044,0.015 c -0.193,0.058 -0.413,0.1 -0.652,0.125 l -0.129,-1.239 c 0.148,-0.016 0.281,-0.04 0.395,-0.071 0.108,-0.051 0.246,-0.137 0.397,-0.248 -0.095,-0.077 -0.189,-0.151 -0.284,-0.222 l 0.746,-0.997 c 0.308,0.23 0.619,0.49 0.926,0.773 l 0.496,0.459 -0.498,0.457 c -0.219,0.201 -0.782,0.692 -1.284,0.918 z m -9.071,4.01 -2.396,0.445 c -0.873,0.163 -1.753,0.326 -2.654,0.51 l -0.248,-1.221 c 0.911,-0.186 1.796,-0.351 2.652,-0.51 l 0.185,-0.035 0.127,-0.246 c 0.163,0.084 0.33,0.165 0.502,0.241 l 1.832,0.816 z m 28.103,-13.254 -0.782,-0.97 c 0.808,-0.651 1.692,-1.392 2.707,-2.264 l 0.143,-0.123 0.813,0.945 -0.143,0.122 c -1.026,0.882 -1.921,1.631 -2.738,2.29 z m -1.362,-0.054 -1.243,-0.072 c 0.055,-0.955 -0.1,-1.844 -0.459,-2.643 l -0.04,-0.086 1.127,-0.531 0.049,0.106 c 0.442,0.984 0.633,2.069 0.566,3.226 z m -21.734,9.122 c -1.345,-0.328 -3.128,-0.959 -3.73,-1.662 l 0.945,-0.811 c 0.224,0.261 1.357,0.842 3.08,1.263 l -0.295,1.21 z m 28.336,-13.511 -0.812,-0.944 3.163,-2.721 -0.483,2.483 -0.401,-0.079 -1.467,1.261 z m -38.885,15.718 c -0.441,-0.502 -0.823,-1.063 -1.135,-1.667 -0.062,-0.12 -0.12,-0.24 -0.175,-0.361 -0.132,-0.294 -0.245,-0.597 -0.334,-0.9 l 1.195,-0.352 c 0.073,0.249 0.165,0.498 0.275,0.741 0.045,0.101 0.093,0.201 0.145,0.301 0.266,0.514 0.59,0.99 0.965,1.417 l -0.936,0.821 z m 11.104,-5.014 c -0.481,-0.085 -0.984,-0.128 -1.538,-0.131 -0.439,-0.003 -0.844,0.072 -1.17,0.217 l -0.506,-1.138 c 0.486,-0.216 1.068,-0.329 1.684,-0.325 0.624,0.004 1.195,0.053 1.746,0.15 l -0.216,1.227 z m 5.898,-4.614 -0.73,-0.557 c -0.219,-0.166 -0.445,-0.326 -0.676,-0.475 l 0.676,-1.046 c 0.014,0.009 0.028,0.018 0.042,0.027 0.171,-0.469 0.378,-0.929 0.617,-1.373 l 1.096,0.591 c -0.268,0.496 -0.488,1.015 -0.657,1.542 -0.043,0.136 -0.084,0.271 -0.121,0.405 l -0.247,0.886 z m 11.256,-6.839 c -0.805,-0.411 -1.724,-0.63 -2.733,-0.653 l 0.027,-1.245 c 1.199,0.027 2.3,0.292 3.272,0.789 l -0.566,1.109 z m -8.469,1.693 -0.862,-0.899 c 0.985,-0.944 2.128,-1.668 3.342,-2.127 l 0.439,1.165 c -1.058,0.399 -2.056,1.034 -2.919,1.861 z m -7.425,2.674 c -0.638,-0.181 -1.315,-0.321 -2.014,-0.417 -0.301,-0.042 -0.607,-0.07 -0.91,-0.084 l 0.06,-1.244 c 0.34,0.016 0.684,0.048 1.021,0.095 0.755,0.104 1.489,0.256 2.183,0.453 l -0.34,1.197 z m -12.728,5.521 -1.18,-0.4 c 0.339,-0.998 0.905,-1.965 1.685,-2.873 l 0.945,0.811 c -0.675,0.787 -1.163,1.616 -1.45,2.462 z m 6.889,-5.748 c -1.14,0.273 -2.259,0.746 -3.234,1.37 l -0.671,-1.05 c 1.092,-0.697 2.342,-1.226 3.615,-1.531 l 0.29,1.211 z" />
        </g>
        <g
           id="g3011">
          <path
             style="fill:#1c4781"
             inkscape:connector-curvature="0"
             id="path3013"
             d="m 1235.121,945.424 c -2.539,1.376 -2.688,0.343 -2.361,-1.333 -3.856,3.317 -7.505,6.185 -11.944,8.188 2.117,-2.044 3.898,-4.096 4.308,-6.529 0.492,-2.93 -1.449,-5.027 -4.575,-4.882 -2.761,0.128 -5.447,2.293 -6.396,5.26 -0.367,1.144 -0.479,2.289 -0.759,3.69 -0.616,-0.604 -1.056,-1.027 -1.485,-1.458 -1.547,-1.555 -3.619,-2.546 -6.245,-2.908 -2.72,-0.376 -5.612,0.556 -7.569,2.497 -2.008,1.991 -2.358,4.019 -1.425,5.826 0.981,1.9 2.912,3.031 5.53,3.527 2.024,0.383 4.246,0.173 6.883,0.081 -4.478,2.282 -8.682,2.613 -13.57,3.663 2.392,0.744 0.925,1.606 -0.026,2.429 1.409,0.114 3.172,-0.113 5.067,-0.597 3.001,6.667 12.848,28.539 13.26,29.456 10.325,-4.648 20.587,-9.267 30.84,-13.883 -0.438,-0.975 -10.27,-22.814 -13.258,-29.451 1.37,-0.914 2.909,-1.85 3.725,-3.576 z m -19.333,6.42 c -0.151,-2.042 0.321,-4.138 1.87,-6.217 0.515,-0.691 1.211,-1.283 2.203,-1.365 1.09,-0.091 1.526,0.493 1.859,1.142 0.646,1.346 -0.848,5.522 -2.432,6.792 -1.008,0.807 -3.428,0.625 -3.5,-0.352 z m -14.79,1.348 c -0.917,-2.158 1.047,-4.319 4.082,-4.3 3.938,0.025 6.372,1.822 8.343,4.019 0.433,0.48 -1.809,2.661 -3.041,3.028 -2.677,0.795 -8.616,-0.942 -9.384,-2.747 z" />
        </g>
        <g
           id="g3015">
          <path
             style="fill:#ffffff"
             inkscape:connector-curvature="0"
             id="path3017"
             d="m 1209.791,969.152 c -0.561,-1.245 -0.603,-2.482 -0.139,-3.705 0.477,-1.229 1.361,-2.125 2.659,-2.71 1.298,-0.584 2.569,-0.657 3.792,-0.194 1.223,0.464 2.121,1.315 2.682,2.56 0.561,1.245 0.596,2.468 0.133,3.691 -0.464,1.223 -1.361,2.126 -2.66,2.71 -1.298,0.584 -2.556,0.652 -3.792,0.194 -1.223,-0.463 -2.115,-1.301 -2.675,-2.546 z m 14.186,-12.648 2.68,0.661 -5.874,26.355 -2.685,-0.707 5.879,-26.309 z m -11.389,11.389 c 0.229,0.508 0.569,0.871 1.027,1.066 0.459,0.196 0.952,0.184 1.474,-0.052 0.536,-0.241 0.872,-0.602 1.017,-1.069 0.156,-0.473 0.111,-0.968 -0.118,-1.477 -0.234,-0.522 -0.568,-0.871 -1.027,-1.066 -0.444,-0.202 -0.938,-0.189 -1.474,0.051 -0.521,0.235 -0.858,0.596 -1.016,1.069 -0.158,0.473 -0.118,0.956 0.117,1.478 z m 13.225,7.101 c -0.561,-1.245 -0.603,-2.481 -0.139,-3.705 0.464,-1.223 1.348,-2.12 2.646,-2.704 1.299,-0.584 2.569,-0.658 3.793,-0.194 1.236,0.458 2.134,1.309 2.694,2.554 0.561,1.244 0.596,2.468 0.119,3.697 -0.464,1.223 -1.361,2.126 -2.659,2.71 -1.299,0.584 -2.557,0.651 -3.779,0.188 -1.222,-0.463 -2.115,-1.301 -2.675,-2.546 z m 2.797,-1.259 c 0.229,0.508 0.569,0.871 1.015,1.073 0.458,0.196 0.951,0.183 1.474,-0.052 0.535,-0.241 0.872,-0.602 1.029,-1.075 0.157,-0.473 0.111,-0.968 -0.118,-1.477 -0.234,-0.522 -0.568,-0.871 -1.027,-1.066 -0.458,-0.196 -0.951,-0.184 -1.486,0.058 -0.522,0.235 -0.859,0.596 -1.017,1.069 -0.144,0.466 -0.104,0.948 0.13,1.47 z" />
        </g>
      </g>
      <g
         style="opacity:0.8"
         id="g6088">
        <g
           id="g6090">
          <path
             style="fill:#1c4781"
             inkscape:connector-curvature="0"
             id="path6092"
             d="m 1158.919,904.66 c -0.517,-0.151 -0.782,-0.09 -0.901,0.497 -0.278,1.366 -0.612,2.721 -0.928,4.08 -0.113,0.483 -0.236,0.835 0.531,0.965 0.683,0.114 0.811,-0.103 0.905,-0.646 0.114,-0.643 0.279,-1.277 0.497,-2.251 0.578,0.961 0.93,1.667 1.402,2.281 0.242,0.314 0.218,1.146 1.123,0.634 0.866,-0.49 0.403,-0.867 0.146,-1.364 -0.299,-0.579 -1.079,-1.187 -0.816,-1.706 0.287,-0.567 1.108,0.063 1.705,0.073 0.609,0.012 0.784,-0.063 0.918,-0.636 0.142,-0.599 -0.104,-0.735 -0.603,-0.858 -1.333,-0.327 -2.66,-0.685 -3.979,-1.069 z" />
        </g>
        <g
           id="g6094">
          <path
             style="fill:#1c4781"
             inkscape:connector-curvature="0"
             id="path6096"
             d="m 1146.955,886.855 c 0.654,0.204 0.796,-0.061 0.908,-0.626 0.256,-1.283 0.524,-2.569 0.894,-3.823 0.175,-0.593 0.192,-0.868 -0.478,-1.089 -0.771,-0.253 -0.847,0.17 -0.947,0.712 -0.112,0.605 -0.261,1.204 -0.394,1.806 -0.097,0.016 -0.193,0.032 -0.29,0.048 -0.441,-0.734 -0.909,-1.454 -1.314,-2.206 -0.292,-0.54 -0.613,-0.613 -1.133,-0.311 -0.576,0.334 -0.325,0.698 -0.111,1.081 0.153,0.273 0.324,0.539 0.472,0.815 0.228,0.431 0.845,0.916 0.476,1.32 -0.369,0.404 -0.999,-0.098 -1.515,-0.201 -0.035,-0.007 -0.068,-0.036 -0.098,-0.06 -0.427,-0.354 -0.771,-0.375 -0.959,0.238 -0.166,0.544 -0.33,1.02 0.519,1.208 1.337,0.297 2.66,0.68 3.97,1.088 z" />
        </g>
        <g
           id="g6098">
          <path
             style="fill:#1c4781"
             inkscape:connector-curvature="0"
             id="path6100"
             d="m 1168.855,894.745 c -0.877,0.048 -1.759,0.028 -2.858,0.04 0.636,-0.648 1.08,-1.12 1.542,-1.573 0.353,-0.345 0.665,-0.597 0.147,-1.131 -0.501,-0.519 -0.827,-0.267 -1.17,0.064 -0.987,0.948 -1.958,1.914 -2.92,2.887 -0.278,0.281 -0.504,0.535 -0.029,0.941 1.099,0.941 2.146,1.945 3.182,2.955 0.405,0.396 0.672,0.381 1.052,-0.033 0.39,-0.425 0.329,-0.732 -0.072,-1.068 -0.33,-0.277 -0.652,-0.563 -0.967,-0.856 -0.14,-0.13 -0.334,-0.299 -0.209,-0.489 0.091,-0.137 0.391,-0.303 0.47,-0.253 0.662,0.416 1.268,-0.193 1.896,-0.067 0.601,0.119 0.939,-0.249 0.942,-0.714 0,-0.551 -0.447,-0.733 -1.006,-0.703 z" />
        </g>
        <g
           id="g6102">
          <path
             style="fill:#1c4781"
             inkscape:connector-curvature="0"
             id="path6104"
             d="m 1136.614,896.747 c 0.453,0.068 0.872,0.071 1.33,-0.003 0.381,-0.063 0.854,-0.203 1.167,0.102 0.13,0.343 0.131,0.593 -0.123,0.809 -0.268,0.228 -0.494,0.506 -0.768,0.727 -0.438,0.352 -0.444,0.625 -0.017,1.032 0.419,0.402 0.681,0.357 1.057,-0.029 0.984,-1.006 1.996,-1.986 3.004,-2.97 0.282,-0.274 0.478,-0.538 0.101,-0.879 -1.127,-1.021 -2.268,-2.031 -3.374,-3.074 -0.476,-0.448 -0.652,-0.021 -0.942,0.215 -0.372,0.3 -0.313,0.543 -0.027,0.871 0.464,0.535 1.593,0.961 1.276,1.565 -0.27,0.516 -1.444,0.14 -2.216,0.213 -0.117,0.011 -0.236,0.013 -0.354,10e-4 -0.384,-0.037 -0.625,0.101 -0.57,0.518 0.045,0.342 -0.177,0.807 0.456,0.902 z" />
        </g>
        <g
           id="g6106">
          <path
             style="fill:#1c4781"
             inkscape:connector-curvature="0"
             id="path6108"
             d="m 1158.9,886.641 c 1.109,-0.472 2.204,-0.874 3.42,-1.012 0.362,-0.041 1.029,-0.32 0.776,-1.145 -0.239,-0.777 -0.585,-0.646 -1.112,-0.396 -0.312,0.146 -0.661,0.224 -1.001,0.295 -0.216,0.046 -0.593,0.104 -0.641,0.016 -0.112,-0.208 -0.155,-0.474 0.04,-0.75 0.357,-0.507 0.616,-1.083 0.96,-1.602 0.343,-0.517 0.075,-0.745 -0.336,-1.013 -0.47,-0.305 -0.681,-0.125 -0.903,0.297 -0.435,0.829 -0.909,1.637 -1.464,2.626 -0.229,-0.793 -0.368,-1.397 -0.58,-1.976 -0.142,-0.387 0.072,-1.096 -0.858,-0.848 -0.814,0.217 -0.711,0.639 -0.553,1.206 0.34,1.226 0.723,2.445 0.974,3.689 0.179,0.88 0.833,0.802 1.278,0.613 z" />
        </g>
        <g
           id="g6110">
          <path
             style="fill:#1c4781"
             inkscape:connector-curvature="0"
             id="path6112"
             d="m 1156.743,889.649 c 1.309,-0.539 2.669,-0.925 4.06,-1.183 1.016,-0.188 0.795,-0.836 0.582,-1.565 -0.112,-0.276 -0.363,-0.228 -0.648,-0.132 -0.705,0.234 -1.434,0.409 -2.116,0.693 -0.924,0.382 -1.516,0.342 -1.661,-0.842 -0.09,-0.731 -0.354,-1.44 -0.535,-2.159 -0.119,-0.475 -0.326,-0.621 -0.838,-0.408 -0.369,0.153 -0.773,0.094 -0.6,0.71 0.427,1.501 0.805,3.018 1.212,4.525 0.069,0.26 0.124,0.534 0.544,0.361 z" />
        </g>
        <g
           id="g6114">
          <path
             style="fill:#1c4781"
             inkscape:connector-curvature="0"
             id="path6116"
             d="m 1148.775,889.62 c 0.231,0.061 0.545,0.305 0.65,-0.151 0.372,-1.603 0.732,-3.209 1.094,-4.815 0.016,-0.071 -0.012,-0.153 -0.021,-0.25 -0.248,-0.273 -0.617,-0.291 -0.951,-0.36 -0.396,-0.082 -0.422,0.253 -0.48,0.516 -0.211,0.917 -0.439,1.831 -0.612,2.755 -0.1,0.529 -0.333,0.836 -0.838,0.518 -0.824,-0.521 -1.801,-0.382 -2.654,-0.718 -0.527,-0.208 -0.797,-0.084 -0.913,0.476 -0.1,0.48 -0.076,0.778 0.519,0.917 1.41,0.327 2.803,0.742 4.206,1.112 z" />
        </g>
        <g
           id="g6118">
          <path
             style="fill:#1c4781"
             inkscape:connector-curvature="0"
             id="path6120"
             d="m 1143.285,895.351 c 0.574,0.455 0.481,0.754 -0.01,1.188 -0.672,0.599 -1.284,1.263 -1.925,1.897 -0.227,0.223 -0.54,0.451 -0.087,0.726 0.313,0.19 0.488,0.849 1.313,0.108 0.851,-0.84 1.966,-1.939 3.076,-3.042 0.393,-0.39 0.051,-0.601 -0.211,-0.841 -1.034,-0.949 -2.066,-1.898 -3.086,-2.861 -0.378,-0.357 -0.689,-0.529 -1.165,-0.086 -0.59,0.548 -0.065,0.851 0.212,1.145 0.59,0.624 1.208,1.233 1.879,1.766 z" />
        </g>
        <g
           id="g6122">
          <path
             style="fill:#1c4781"
             inkscape:connector-curvature="0"
             id="path6124"
             d="m 1162.693,896.264 c -0.527,-0.48 -0.626,-0.893 0.02,-1.415 0.633,-0.513 1.149,-1.167 1.737,-1.738 0.336,-0.327 0.437,-0.549 0.02,-0.939 -0.396,-0.372 -0.674,-0.462 -1.068,-0.061 -1.041,1.057 -2.075,2.121 -3.147,3.146 -0.381,0.364 -0.233,0.509 0.081,0.789 1.108,0.985 2.204,1.986 3.257,3.028 0.309,0.304 0.655,0.404 0.825,0.11 0.165,-0.287 0.788,-0.595 0.262,-1.099 -0.663,-0.607 -1.324,-1.215 -1.987,-1.821 z" />
        </g>
        <g
           id="g6126">
          <path
             style="fill:#1c4781"
             inkscape:connector-curvature="0"
             id="path6128"
             d="m 1157.211,901.859 c -0.539,-0.196 -0.695,-0.211 -0.814,0.353 -0.307,1.453 -0.653,2.897 -0.968,4.348 -0.049,0.228 -0.293,0.527 0.131,0.683 0.325,0.121 0.65,0.249 0.82,0.314 0.449,-0.257 0.383,-0.52 0.434,-0.738 0.194,-0.84 0.452,-1.671 0.561,-2.522 0.1,-0.783 0.419,-0.837 1.073,-0.612 0.85,0.292 1.739,0.465 2.598,0.734 0.454,0.142 0.675,0.04 0.71,-0.438 0.027,-0.367 0.403,-0.77 -0.37,-0.937 -1.413,-0.301 -2.817,-0.693 -4.175,-1.185 z" />
        </g>
        <g
           id="g6130">
          <path
             style="fill:#1c4781"
             inkscape:connector-curvature="0"
             id="path6132"
             d="m 1161.368,892.399 c -0.294,-0.226 -0.484,-0.835 -1.036,-0.399 -0.295,0.233 -0.638,0.346 -0.893,0.705 -0.512,0.72 -1.123,1.407 -1.813,1.957 -0.802,0.637 -1.722,0.423 -2.484,-0.147 -0.768,-0.574 -0.128,-1.197 0.194,-1.623 0.416,-0.548 1.069,-1.076 1.754,-1.081 0.997,-0.007 1.69,-0.683 2.586,-0.883 0.665,-0.15 0.237,-0.72 0.156,-1.084 -0.105,-0.474 -0.513,-0.343 -0.742,-0.163 -0.781,0.613 -1.793,0.388 -2.628,0.779 -0.472,0.221 -0.595,0.208 -0.785,-0.443 -0.246,-0.837 -0.579,-1.669 -0.745,-2.533 -0.156,-0.816 -0.768,-0.85 -1.294,-0.742 -0.721,0.148 -0.247,0.693 -0.144,1.035 0.646,2.138 1.391,4.271 -0.398,6.248 -0.044,0.047 -0.127,0.058 -0.191,0.084 -1.735,-2.31 -1.751,-2.395 -1.072,-5.117 0.123,-0.491 0.221,-0.989 0.332,-1.483 0.152,-0.669 -0.428,-0.493 -0.73,-0.628 -0.344,-0.154 -0.602,-0.119 -0.663,0.332 -0.038,0.271 -0.113,0.537 -0.177,0.805 -0.673,2.85 -0.668,2.832 -3.465,2.026 -0.478,-0.137 -1.175,-0.738 -1.48,0.188 -0.324,0.976 0.527,1.002 1.135,1.18 0.188,0.055 0.385,0.083 0.567,0.151 1.525,0.564 3.283,0.744 3.887,2.71 0.188,0.614 0.091,0.814 -0.46,0.838 -1.324,0.06 -2.639,0.14 -3.566,-1.162 -0.4,-0.561 -1.06,-0.931 -1.535,-1.447 -0.43,-0.464 -0.721,-0.43 -1.146,0.008 -0.447,0.458 -0.217,0.739 0.125,1.052 0.575,0.529 1.137,1.076 1.736,1.578 0.559,0.467 0.854,0.818 0.048,1.393 -0.625,0.447 -1.109,1.096 -1.639,1.671 -0.254,0.276 -0.799,0.462 -0.221,1.003 0.468,0.438 0.798,0.531 1.25,0.026 0.496,-0.554 1.017,-1.085 1.555,-1.598 0.821,-0.785 1.768,-1.256 2.954,-1.146 0.828,0.077 1.018,0.357 0.729,1.204 -0.561,1.647 -1.938,2.034 -3.345,2.329 -1.311,0.274 -2.217,0.746 -1.943,2.293 1.186,-0.785 2.597,-0.834 3.911,-1.203 0.247,-0.069 0.361,0.051 0.455,0.229 0.119,0.224 0.01,0.385 -0.198,0.446 -1.227,0.357 -2.455,0.713 -3.69,1.039 -0.261,0.069 -0.386,-0.203 -0.512,-0.395 -0.283,0.263 -0.53,0.585 -0.854,0.773 -0.471,0.271 -0.875,0.521 -0.614,1.145 0.264,0.629 0.762,0.357 1.203,0.285 0.21,-0.034 0.477,-0.238 0.585,0.106 0.101,0.32 -0.24,0.333 -0.408,0.462 -0.677,0.52 -1.523,0.592 -2.292,0.87 -0.395,0.143 -0.838,0.24 -0.601,0.892 0.18,0.495 0.24,0.911 0.922,0.558 0.322,-0.166 0.766,0.148 1.104,-0.18 0.159,-0.154 0.359,-0.367 0.587,-0.11 0.181,0.206 0.062,0.472 -0.025,0.663 -0.243,0.533 -0.525,1.051 -0.822,1.557 -0.235,0.4 -0.287,0.684 0.212,0.942 0.454,0.236 0.721,0.298 1.024,-0.243 0.426,-0.761 0.746,-1.603 1.397,-2.288 0.488,0.607 0.509,1.294 0.671,1.925 0.132,0.511 0.359,0.723 0.916,0.564 0.523,-0.148 0.684,-0.373 0.523,-0.923 -0.351,-1.202 -0.658,-2.417 -0.939,-3.636 -0.184,-0.798 -0.445,-1.357 -1.388,-0.817 -0.144,0.082 -0.302,0.129 -0.41,-0.029 -0.152,-0.222 0,-0.352 0.182,-0.456 0.304,-0.178 0.602,-0.365 0.911,-0.53 0.57,-0.304 0.994,-0.368 1.14,0.483 0.145,0.844 0.431,1.663 0.643,2.496 0.126,0.491 0.338,0.735 0.909,0.548 0.513,-0.168 0.696,-0.376 0.507,-0.933 -0.238,-0.702 -0.418,-1.43 -0.553,-2.159 -0.101,-0.534 -0.682,-1.368 -0.082,-1.554 0.694,-0.215 0.561,0.815 0.785,1.288 0.205,0.431 0.32,0.799 0.898,0.554 0.491,-0.208 0.847,-0.397 0.57,-1.085 -0.341,-0.849 -0.536,-1.758 -0.776,-2.645 -0.131,-0.482 -0.332,-0.952 -0.016,-1.467 0.424,-0.69 0.781,-1.419 1.166,-2.132 0.264,0.27 0.527,0.539 0.792,0.808 0.092,0.152 0.186,0.306 0.279,0.457 0.102,0.521 0.459,0.903 0.725,1.338 -0.485,1.211 -0.303,2.609 -1.139,3.752 -0.298,0.407 0.226,0.741 0.682,0.848 0.386,0.091 0.832,0.406 0.97,-0.335 0.185,-0.994 0.424,-1.978 0.646,-2.964 0.067,-0.3 0.101,-0.649 0.577,-0.384 0.902,0.504 1.991,0.288 2.918,0.729 0.401,0.191 0.727,0.192 0.844,-0.39 0.104,-0.513 0.165,-0.872 -0.506,-1.021 -1.22,-0.271 -2.422,-0.619 -3.631,-0.934 -0.545,-0.951 -1.313,-1.782 -1.558,-2.895 2.397,-0.454 4.104,0.672 5.543,2.419 0.073,0.089 0.204,0.134 0.268,0.228 0.346,0.5 0.677,0.373 1.063,0.032 0.449,-0.396 0.337,-0.713 -0.048,-1.064 -0.665,-0.606 -1.281,-1.275 -1.987,-1.828 -0.487,-0.383 -0.424,-0.651 -0.051,-1.016 0.672,-0.657 1.34,-1.318 2.003,-1.984 0.209,-0.213 0.559,-0.443 0.156,-0.752 z" />
        </g>
      </g>
      <g
         style="opacity:0.8"
         id="g6134">
        <g
           id="g6136">
          <path
             style="fill:#1c4781"
             inkscape:connector-curvature="0"
             id="path6138"
             d="m 1237.203,1546.955 c -0.517,-0.15 -0.781,-0.09 -0.901,0.498 -0.277,1.366 -0.611,2.721 -0.927,4.08 -0.114,0.483 -0.237,0.835 0.531,0.965 0.682,0.114 0.811,-0.103 0.905,-0.646 0.113,-0.644 0.278,-1.277 0.497,-2.251 0.577,0.961 0.93,1.667 1.401,2.28 0.243,0.314 0.218,1.146 1.124,0.634 0.865,-0.49 0.403,-0.866 0.146,-1.364 -0.299,-0.579 -1.079,-1.187 -0.816,-1.706 0.287,-0.567 1.108,0.063 1.704,0.073 0.61,0.011 0.784,-0.063 0.919,-0.636 0.141,-0.6 -0.104,-0.735 -0.603,-0.858 -1.332,-0.327 -2.661,-0.684 -3.98,-1.069 z" />
        </g>
        <g
           id="g6140">
          <path
             style="fill:#1c4781"
             inkscape:connector-curvature="0"
             id="path6142"
             d="m 1225.24,1529.151 c 0.654,0.204 0.796,-0.061 0.908,-0.627 0.256,-1.283 0.524,-2.569 0.894,-3.823 0.175,-0.593 0.192,-0.868 -0.478,-1.089 -0.771,-0.254 -0.847,0.171 -0.947,0.713 -0.113,0.604 -0.262,1.203 -0.395,1.806 -0.097,0.016 -0.193,0.032 -0.289,0.047 -0.441,-0.733 -0.909,-1.453 -1.315,-2.205 -0.291,-0.539 -0.612,-0.612 -1.133,-0.311 -0.575,0.334 -0.325,0.698 -0.111,1.081 0.153,0.273 0.325,0.538 0.472,0.815 0.229,0.431 0.846,0.916 0.477,1.319 -0.369,0.404 -0.999,-0.098 -1.515,-0.201 -0.035,-0.01 -0.068,-0.035 -0.098,-0.06 -0.427,-0.354 -0.771,-0.375 -0.959,0.238 -0.166,0.544 -0.33,1.02 0.518,1.207 1.338,0.298 2.661,0.681 3.971,1.09 z" />
        </g>
        <g
           id="g6144">
          <path
             style="fill:#1c4781"
             inkscape:connector-curvature="0"
             id="path6146"
             d="m 1247.141,1537.041 c -0.878,0.048 -1.759,0.027 -2.858,0.04 0.635,-0.649 1.08,-1.12 1.542,-1.573 0.352,-0.345 0.664,-0.597 0.146,-1.131 -0.5,-0.52 -0.826,-0.267 -1.169,0.063 -0.988,0.948 -1.958,1.914 -2.92,2.888 -0.278,0.281 -0.505,0.534 -0.03,0.94 1.1,0.941 2.146,1.945 3.183,2.956 0.405,0.395 0.672,0.381 1.051,-0.033 0.391,-0.426 0.33,-0.732 -0.072,-1.068 -0.329,-0.277 -0.651,-0.563 -0.967,-0.857 -0.14,-0.129 -0.334,-0.298 -0.208,-0.488 0.09,-0.138 0.391,-0.304 0.469,-0.254 0.662,0.416 1.269,-0.193 1.896,-0.067 0.6,0.119 0.939,-0.249 0.941,-0.714 0,-0.55 -0.446,-0.732 -1.004,-0.702 z" />
        </g>
        <g
           id="g6148">
          <path
             style="fill:#1c4781"
             inkscape:connector-curvature="0"
             id="path6150"
             d="m 1214.898,1539.043 c 0.454,0.068 0.873,0.071 1.331,0 0.381,-0.063 0.854,-0.203 1.167,0.103 0.13,0.343 0.131,0.593 -0.123,0.809 -0.269,0.228 -0.494,0.507 -0.768,0.728 -0.438,0.352 -0.444,0.625 -0.017,1.032 0.419,0.402 0.68,0.357 1.057,-0.029 0.984,-1.007 1.996,-1.986 3.003,-2.971 0.282,-0.274 0.479,-0.537 0.102,-0.879 -1.128,-1.022 -2.268,-2.031 -3.374,-3.075 -0.476,-0.447 -0.652,-0.021 -0.942,0.215 -0.373,0.301 -0.313,0.544 -0.028,0.872 0.464,0.534 1.594,0.961 1.277,1.565 -0.27,0.516 -1.445,0.14 -2.217,0.213 -0.116,0.012 -0.235,0.013 -0.353,0 -0.384,-0.037 -0.626,0.1 -0.57,0.518 0.045,0.34 -0.176,0.806 0.455,0.901 z" />
        </g>
        <g
           id="g6152">
          <path
             style="fill:#1c4781"
             inkscape:connector-curvature="0"
             id="path6154"
             d="m 1237.186,1528.937 c 1.109,-0.472 2.204,-0.873 3.419,-1.012 0.362,-0.042 1.03,-0.32 0.777,-1.146 -0.239,-0.776 -0.586,-0.646 -1.112,-0.396 -0.312,0.146 -0.661,0.224 -1.002,0.295 -0.216,0.046 -0.592,0.104 -0.64,0.017 -0.112,-0.208 -0.155,-0.474 0.039,-0.75 0.358,-0.507 0.617,-1.083 0.961,-1.603 0.342,-0.517 0.075,-0.745 -0.337,-1.012 -0.469,-0.306 -0.68,-0.126 -0.902,0.297 -0.436,0.829 -0.909,1.636 -1.465,2.626 -0.229,-0.793 -0.367,-1.397 -0.58,-1.977 -0.141,-0.387 0.072,-1.096 -0.858,-0.848 -0.813,0.217 -0.71,0.639 -0.552,1.206 0.34,1.226 0.723,2.445 0.974,3.689 0.177,0.88 0.832,0.803 1.278,0.614 z" />
        </g>
        <g
           id="g6156">
          <path
             style="fill:#1c4781"
             inkscape:connector-curvature="0"
             id="path6158"
             d="m 1235.027,1531.945 c 1.31,-0.539 2.67,-0.925 4.061,-1.184 1.016,-0.188 0.794,-0.836 0.582,-1.564 -0.112,-0.276 -0.364,-0.228 -0.649,-0.133 -0.704,0.234 -1.433,0.409 -2.115,0.693 -0.925,0.382 -1.516,0.342 -1.662,-0.842 -0.089,-0.731 -0.353,-1.44 -0.534,-2.16 -0.119,-0.475 -0.327,-0.62 -0.838,-0.407 -0.369,0.152 -0.773,0.094 -0.6,0.71 0.426,1.501 0.805,3.018 1.212,4.525 0.069,0.261 0.124,0.534 0.543,0.362 z" />
        </g>
        <g
           id="g6160">
          <path
             style="fill:#1c4781"
             inkscape:connector-curvature="0"
             id="path6162"
             d="m 1227.061,1531.915 c 0.231,0.062 0.545,0.305 0.65,-0.15 0.371,-1.604 0.732,-3.209 1.094,-4.815 0.016,-0.072 -0.013,-0.153 -0.022,-0.251 -0.248,-0.273 -0.616,-0.291 -0.95,-0.36 -0.396,-0.082 -0.422,0.254 -0.481,0.517 -0.21,0.916 -0.438,1.831 -0.612,2.755 -0.1,0.529 -0.332,0.836 -0.837,0.518 -0.824,-0.521 -1.801,-0.382 -2.654,-0.718 -0.528,-0.208 -0.797,-0.084 -0.913,0.476 -0.1,0.48 -0.076,0.778 0.519,0.918 1.41,0.326 2.802,0.74 4.206,1.11 z" />
        </g>
        <g
           id="g6164">
          <path
             style="fill:#1c4781"
             inkscape:connector-curvature="0"
             id="path6166"
             d="m 1221.57,1537.646 c 0.574,0.455 0.481,0.754 -0.01,1.188 -0.672,0.6 -1.284,1.263 -1.925,1.897 -0.226,0.223 -0.539,0.451 -0.086,0.726 0.313,0.191 0.487,0.85 1.313,0.108 0.851,-0.841 1.966,-1.938 3.076,-3.042 0.393,-0.39 0.051,-0.601 -0.212,-0.841 -1.033,-0.949 -2.065,-1.898 -3.085,-2.861 -0.379,-0.356 -0.69,-0.528 -1.166,-0.086 -0.59,0.547 -0.064,0.851 0.213,1.145 0.589,0.625 1.208,1.233 1.879,1.766 z" />
        </g>
        <g
           id="g6168">
          <path
             style="fill:#1c4781"
             inkscape:connector-curvature="0"
             id="path6170"
             d="m 1240.979,1538.56 c -0.527,-0.48 -0.626,-0.893 0.02,-1.415 0.633,-0.513 1.149,-1.167 1.737,-1.737 0.336,-0.327 0.437,-0.549 0.02,-0.939 -0.397,-0.371 -0.674,-0.462 -1.069,-0.061 -1.041,1.057 -2.074,2.121 -3.146,3.146 -0.382,0.364 -0.233,0.51 0.081,0.789 1.108,0.984 2.204,1.986 3.257,3.028 0.308,0.305 0.654,0.404 0.825,0.11 0.165,-0.287 0.788,-0.596 0.262,-1.1 -0.664,-0.608 -1.324,-1.216 -1.987,-1.821 z" />
        </g>
        <g
           id="g6172">
          <path
             style="fill:#1c4781"
             inkscape:connector-curvature="0"
             id="path6174"
             d="m 1235.496,1544.155 c -0.539,-0.196 -0.695,-0.212 -0.815,0.353 -0.306,1.452 -0.653,2.896 -0.967,4.348 -0.049,0.228 -0.294,0.527 0.13,0.683 0.326,0.121 0.65,0.249 0.821,0.313 0.449,-0.256 0.382,-0.52 0.433,-0.737 0.195,-0.84 0.452,-1.671 0.562,-2.521 0.1,-0.783 0.418,-0.838 1.073,-0.612 0.85,0.293 1.739,0.466 2.597,0.734 0.454,0.142 0.676,0.039 0.711,-0.438 0.027,-0.368 0.403,-0.77 -0.37,-0.937 -1.413,-0.303 -2.817,-0.695 -4.175,-1.186 z" />
        </g>
        <g
           id="g6176">
          <path
             style="fill:#1c4781"
             inkscape:connector-curvature="0"
             id="path6178"
             d="m 1239.653,1534.695 c -0.294,-0.226 -0.485,-0.835 -1.036,-0.399 -0.295,0.233 -0.638,0.346 -0.893,0.705 -0.512,0.72 -1.123,1.407 -1.814,1.957 -0.801,0.637 -1.721,0.423 -2.483,-0.147 -0.768,-0.574 -0.128,-1.197 0.194,-1.623 0.415,-0.548 1.069,-1.075 1.754,-1.081 0.997,-0.01 1.689,-0.683 2.586,-0.884 0.664,-0.149 0.237,-0.72 0.156,-1.084 -0.105,-0.475 -0.513,-0.343 -0.742,-0.162 -0.782,0.613 -1.793,0.388 -2.629,0.778 -0.472,0.221 -0.594,0.208 -0.785,-0.442 -0.245,-0.838 -0.578,-1.669 -0.744,-2.533 -0.156,-0.815 -0.768,-0.85 -1.294,-0.741 -0.721,0.147 -0.247,0.693 -0.144,1.035 0.646,2.138 1.39,4.271 -0.399,6.247 -0.043,0.048 -0.126,0.058 -0.19,0.085 -1.736,-2.31 -1.751,-2.396 -1.073,-5.117 0.124,-0.491 0.221,-0.989 0.333,-1.482 0.151,-0.67 -0.428,-0.493 -0.73,-0.628 -0.345,-0.154 -0.602,-0.119 -0.664,0.332 -0.038,0.271 -0.113,0.536 -0.176,0.805 -0.673,2.85 -0.669,2.832 -3.466,2.026 -0.477,-0.137 -1.175,-0.738 -1.48,0.188 -0.323,0.976 0.528,1.002 1.135,1.18 0.188,0.055 0.386,0.084 0.568,0.151 1.525,0.564 3.283,0.744 3.887,2.71 0.187,0.613 0.09,0.813 -0.46,0.838 -1.325,0.061 -2.639,0.141 -3.566,-1.162 -0.4,-0.561 -1.06,-0.931 -1.536,-1.446 -0.429,-0.465 -0.72,-0.431 -1.146,0.01 -0.447,0.458 -0.217,0.739 0.125,1.052 0.576,0.528 1.138,1.076 1.736,1.577 0.56,0.467 0.854,0.818 0.049,1.393 -0.625,0.447 -1.11,1.096 -1.639,1.672 -0.254,0.276 -0.799,0.462 -0.221,1.003 0.467,0.438 0.798,0.531 1.25,0.025 0.495,-0.553 1.017,-1.085 1.554,-1.598 0.822,-0.785 1.769,-1.257 2.955,-1.147 0.828,0.078 1.017,0.358 0.729,1.205 -0.56,1.647 -1.938,2.034 -3.344,2.329 -1.311,0.274 -2.218,0.746 -1.943,2.293 1.186,-0.785 2.597,-0.835 3.91,-1.203 0.248,-0.069 0.361,0.051 0.456,0.229 0.119,0.225 0.01,0.386 -0.199,0.446 -1.226,0.357 -2.454,0.713 -3.689,1.039 -0.262,0.069 -0.386,-0.203 -0.513,-0.396 -0.282,0.264 -0.529,0.586 -0.854,0.774 -0.471,0.271 -0.876,0.521 -0.615,1.145 0.265,0.63 0.763,0.356 1.203,0.285 0.211,-0.034 0.477,-0.238 0.585,0.106 0.101,0.32 -0.24,0.333 -0.407,0.462 -0.678,0.521 -1.523,0.592 -2.292,0.87 -0.396,0.143 -0.838,0.24 -0.601,0.893 0.18,0.495 0.239,0.911 0.922,0.557 0.322,-0.165 0.766,0.148 1.104,-0.18 0.158,-0.153 0.359,-0.367 0.586,-0.109 0.182,0.205 0.063,0.471 -0.025,0.663 -0.243,0.533 -0.524,1.051 -0.821,1.557 -0.235,0.4 -0.287,0.685 0.212,0.942 0.454,0.235 0.721,0.298 1.024,-0.244 0.425,-0.76 0.746,-1.602 1.396,-2.287 0.488,0.607 0.51,1.294 0.672,1.924 0.132,0.512 0.359,0.723 0.916,0.564 0.522,-0.148 0.683,-0.373 0.522,-0.923 -0.351,-1.202 -0.657,-2.417 -0.938,-3.636 -0.184,-0.799 -0.445,-1.357 -1.388,-0.817 -0.144,0.082 -0.302,0.13 -0.411,-0.028 -0.151,-0.223 0,-0.352 0.182,-0.457 0.304,-0.178 0.602,-0.364 0.912,-0.529 0.57,-0.304 0.994,-0.367 1.139,0.483 0.145,0.844 0.431,1.663 0.643,2.496 0.126,0.491 0.339,0.735 0.91,0.548 0.512,-0.168 0.696,-0.376 0.507,-0.934 -0.239,-0.702 -0.418,-1.43 -0.554,-2.159 -0.1,-0.534 -0.681,-1.367 -0.081,-1.554 0.694,-0.215 0.56,0.815 0.784,1.288 0.206,0.431 0.32,0.799 0.898,0.554 0.491,-0.207 0.847,-0.396 0.57,-1.085 -0.34,-0.85 -0.535,-1.758 -0.776,-2.646 -0.13,-0.482 -0.332,-0.951 -0.015,-1.468 0.424,-0.689 0.78,-1.419 1.165,-2.132 0.265,0.271 0.528,0.539 0.792,0.809 0.093,0.152 0.187,0.305 0.28,0.457 0.102,0.521 0.459,0.902 0.725,1.338 -0.485,1.211 -0.303,2.609 -1.14,3.752 -0.297,0.407 0.227,0.741 0.682,0.848 0.386,0.091 0.833,0.406 0.97,-0.335 0.185,-0.994 0.424,-1.978 0.646,-2.964 0.067,-0.3 0.101,-0.649 0.577,-0.385 0.902,0.504 1.991,0.288 2.917,0.729 0.402,0.19 0.728,0.192 0.845,-0.391 0.104,-0.513 0.164,-0.871 -0.506,-1.021 -1.22,-0.271 -2.422,-0.618 -3.631,-0.934 -0.545,-0.951 -1.313,-1.782 -1.558,-2.895 2.396,-0.454 4.104,0.672 5.542,2.419 0.074,0.089 0.204,0.134 0.268,0.228 0.346,0.499 0.678,0.373 1.063,0.032 0.449,-0.396 0.338,-0.714 -0.048,-1.064 -0.665,-0.606 -1.28,-1.275 -1.986,-1.829 -0.488,-0.382 -0.424,-0.65 -0.051,-1.016 0.672,-0.656 1.339,-1.318 2.003,-1.984 0.21,-0.211 0.559,-0.441 0.157,-0.75 z" />
        </g>
      </g>
      <g
         style="opacity:0.8"
         id="g6226">
        <g
           id="g6228">
          <g
             id="g6230">
            <path
               style="fill:#1c4781"
               inkscape:connector-curvature="0"
               id="path6232"
               d="m 1254.469,1327.777 c 0,0 2.042,-4.139 -2.93,-6.945 -0.027,-0.022 -0.043,-0.035 -0.043,-0.035 0,0 -0.127,-0.064 -0.357,-0.183 -5.095,-2.604 -26.381,-13.487 -29.39,-15.025 -0.231,-0.118 -0.358,-0.183 -0.358,-0.183 0,0 -0.02,0 -0.054,-0.015 -5.186,-2.387 -7.345,1.691 -7.345,1.691 0,0 -5.343,10.156 -5.867,11.475 -0.524,1.319 0.625,2.16 0.625,2.16 0,0 0.232,0.119 0.655,0.335 1.59,0.813 31.599,16.155 36.425,18.622 0.423,0.217 0.655,0.335 0.655,0.335 0,0 1.354,0.439 2.117,-0.758 0.763,-1.195 5.867,-11.474 5.867,-11.474 z m -32.634,-17.541 c -0.194,-0.128 -0.396,-0.25 -0.61,-0.359 -2.388,-1.221 -5.103,-0.834 -6.58,0.788 0.073,-0.351 0.188,-0.694 0.355,-1.023 1.2,-2.346 4.424,-3.096 7.202,-1.675 0.213,0.109 0.415,0.231 0.61,0.358 l -0.977,1.911 z" />
          </g>
          <g
             id="g6234">
            <path
               style="fill:#1c4781"
               inkscape:connector-curvature="0"
               id="path6236"
               d="m 1263.797,1343.878 c 0,0 -0.032,-0.051 -0.206,-0.179 -0.09,-0.216 -0.226,-0.411 -0.432,-0.559 -1.209,-0.872 -5.365,-2.743 -5.365,-2.743 0,0 -4.851,-1.544 -8.55,4.041 -3.261,-1.667 -42.098,-21.522 -45.696,-23.362 2.359,-6.269 -1.732,-9.297 -1.732,-9.297 0,0 -3.95,-2.273 -5.365,-2.743 -0.241,-0.08 -0.479,-0.076 -0.707,-0.022 -0.204,-0.066 -0.265,-0.062 -0.265,-0.062 0,0 -0.665,-0.245 -1.398,1.19 -0.733,1.435 -9.128,17.854 -9.128,17.854 0,0 -0.614,4.4 2.72,6.819 0.111,0.055 0.271,0.135 0.477,0.239 0.01,0.01 0.014,0.011 0.014,0.011 0,0 14.638,7.471 29.383,15.004 14.74,7.541 29.367,15.032 29.367,15.032 0,0 0.01,10e-4 0.018,0 0.205,0.106 0.364,0.189 0.475,0.247 3.911,1.286 7.118,-1.789 7.118,-1.789 0,0 8.395,-16.42 9.128,-17.855 0.731,-1.434 0.144,-1.83 0.144,-1.83 z m -22.006,17.114 c -0.37,-0.189 -0.719,-0.4 -1.057,-0.621 l 1.692,-3.31 c 0.338,0.221 0.687,0.432 1.057,0.621 4.137,2.115 8.837,1.445 11.396,-1.364 -0.127,0.607 -0.325,1.203 -0.616,1.773 -2.076,4.062 -7.659,5.361 -12.472,2.901 z" />
          </g>
        </g>
        <g
           id="g6238">
          <g
             id="g6240">
            <path
               style="fill:#1c4781"
               inkscape:connector-curvature="0"
               id="path6242"
               d="m 1246.978,1367.667 -0.361,-0.19 -0.077,-0.037 -2.112,-1.082 0.563,-1.099 2.01,1.029 0,10e-4 0.115,0.057 0.311,0.164 0.114,0.037 c 0.189,0.063 0.383,0.119 0.574,0.165 l -0.191,1.239 c -0.232,-0.057 -0.468,-0.125 -0.7,-0.201 l -0.249,-0.083 z m -57.972,-29.642 0.561,-1.101 3.264,1.666 -0.561,1.101 -3.264,-1.666 z m 52.16,26.664 -3.912,-2.003 0.563,-1.1 3.911,2.002 -0.562,1.101 z m -45.636,-23.333 0.563,-1.101 3.913,1.998 -0.562,1.101 -3.914,-1.998 z m 38.465,19.662 -3.26,-1.668 0.563,-1.1 3.259,1.668 -0.562,1.1 z m -31.29,-15.998 0.563,-1.101 3.26,1.665 -0.562,1.101 -3.261,-1.665 z m 24.119,12.328 -3.259,-1.667 0.563,-1.1 3.259,1.668 -0.563,1.099 z m -16.945,-8.665 0.562,-1.101 3.258,1.664 -0.562,1.101 -3.258,-1.664 z m 10.428,5.329 -3.391,-1.735 -0.52,-0.266 0.563,-1.1 0.52,0.266 3.391,1.735 -0.563,1.1 z m -35.153,-18.571 c -0.826,-0.923 -1.453,-2.008 -1.866,-3.226 l 1.353,-0.218 c 0.351,1.035 0.878,1.95 1.566,2.72 l -1.053,0.724 z m 67.304,32.467 -0.56,-1.24 c 1.2,-0.313 2.184,-0.857 2.798,-1.259 l 0.929,1.078 c -1.003,0.657 -2.068,1.134 -3.167,1.421 z m -69.738,-39.089 c -0.01,-0.708 0.055,-1.173 0.062,-1.224 l 0.046,-0.324 1.116,-2.184 1.303,0.667 -1.035,2.026 -0.021,0.147 c 0,0.018 -0.059,0.42 -0.052,1.054 l -1.419,-0.162 z m 75.097,35.145 -1.304,-0.666 1.688,-3.301 1.304,0.666 -1.688,3.301 z m -71.165,-40.96 -1.303,-0.666 1.406,-2.75 1.303,0.667 -1.406,2.749 z m 74.258,34.909 -1.303,-0.666 1.406,-2.75 1.303,0.666 -1.406,2.75 z m -71.164,-40.96 -1.303,-0.666 1.405,-2.75 1.304,0.667 -1.406,2.749 z m 74.258,34.909 -1.303,-0.666 1.406,-2.75 1.303,0.667 -1.406,2.749 z m -57.269,-30.3 -1.368,-0.699 0.129,-0.499 c 0.247,-0.956 0.367,-1.896 0.355,-2.794 l 0.268,0.03 c 0.185,-0.434 0.627,-1.341 1.352,-2.77 l 1.305,0.663 c -0.727,1.435 -1.177,2.357 -1.338,2.742 l -0.17,-0.075 c -0.021,0.702 -0.109,1.422 -0.267,2.15 l 0.297,0.152 -0.563,1.1 z m 42.902,21.096 -1.163,-0.875 c 0.332,-0.384 0.68,-0.74 1.041,-1.068 l -0.021,-0.019 c 0.207,-0.174 0.389,-0.384 0.54,-0.621 0.125,-0.197 0.447,-0.766 1.274,-2.361 l 1.3,0.671 c -0.454,0.876 -0.796,1.522 -1.035,1.951 l 0.303,0.357 c -0.802,0.513 -1.556,1.173 -2.239,1.965 z m -57.078,-31.205 -1.304,-0.667 0.848,-1.657 c 0.355,-0.695 0.784,-1.245 1.273,-1.632 l 1.014,1.017 c -0.367,0.291 -0.698,0.722 -0.984,1.282 l -0.847,1.657 z m 72.865,34.292 c 0.397,-1.222 0,-1.934 -0.41,-2.315 l -0.075,-0.071 -0.062,-0.093 c -0.178,-0.282 -0.402,-0.522 -0.671,-0.715 -0.428,-0.308 -1.099,-0.693 -2.114,-1.212 -0.138,-0.071 -0.278,-0.141 -0.418,-0.211 l 0.549,-1.107 c 0.145,0.072 0.289,0.146 0.432,0.218 1.096,0.56 1.838,0.989 2.337,1.349 0.414,0.298 0.765,0.662 1.043,1.082 0.573,0.568 1.357,1.742 0.756,3.591 l -1.367,-0.516 z m -60.134,-31.158 c -0.479,-1.251 -1.175,-2.157 -1.673,-2.696 l 1.035,-0.743 c 0.59,0.638 1.412,1.707 1.973,3.172 l -1.335,0.267 z m 50.027,24.839 -0.392,-1.273 c 2.084,-0.28 3.644,0.19 3.814,0.245 l 0.045,0.014 -0.3,1.208 -0.046,-0.015 c -0.053,-0.017 -1.341,-0.418 -3.121,-0.179 z m -58.282,-31.201 0.271,-1.217 c 0.043,0.013 0.086,0.027 0.129,0.041 0.583,0.193 1.364,0.544 2.459,1.104 0.293,0.15 0.59,0.305 0.881,0.46 l -0.586,1.087 c -0.284,-0.15 -0.573,-0.302 -0.857,-0.448 -1.001,-0.511 -1.726,-0.839 -2.218,-1.003 l -0.079,-0.024 z m 55.678,26.743 c 0.472,-0.93 0.95,-1.88 1.391,-2.759 l 1.307,0.659 c -0.44,0.88 -0.92,1.832 -1.393,2.763 l -1.305,-0.663 z m -42.246,-22.771 -1.301,-0.671 c 0.498,-0.961 0.992,-1.91 1.428,-2.744 l 1.299,0.674 c -0.436,0.834 -0.929,1.781 -1.426,2.741 z m 45.295,16.694 0.186,-0.374 c 0.328,-0.667 0.519,-1.535 0.521,-2.383 l 1.419,0.18 c 0,1.38 -0.397,2.382 -0.632,2.857 l -0.186,0.375 -1.308,-0.655 z m -42.436,-22.17 -1.295,-0.682 c 0.289,-0.54 1.153,-1.894 2.955,-2.791 l 0.808,1.148 c -1.551,0.771 -2.28,1.974 -2.468,2.325 z m 42.413,16.554 c -0.571,-1.044 -1.475,-1.971 -2.686,-2.754 l 0.715,-1.012 c 1.444,0.934 2.529,2.053 3.227,3.328 l -1.256,0.438 z m -36.991,-19.494 -0.136,-1.285 c 1.211,0.046 2.484,0.357 3.786,0.926 l -0.468,1.145 c -1.107,-0.484 -2.177,-0.748 -3.182,-0.786 z m 31.16,15.062 -3.258,-1.666 0.563,-1.1 3.258,1.666 -0.563,1.1 z m -7.167,-3.664 -3.257,-1.666 0.562,-1.1 3.258,1.666 -0.563,1.1 z m -6.514,-3.331 -3.909,-1.999 0.563,-1.1 3.909,1.998 -0.563,1.101 z m -7.167,-3.663 -3.258,-1.666 0.563,-1.1 3.258,1.665 -0.563,1.101 z" />
          </g>
        </g>
      </g>
      <g
         style="opacity:0.8"
         id="g6244">
        <g
           id="g6246">
          <path
             style="fill:#1c4781"
             inkscape:connector-curvature="0"
             id="path6248"
             d="m 1232.674,1127.433 -3.018,-1.678 0.672,-1.207 3.018,1.678 -0.672,1.207 z m -6.638,-3.691 -3.018,-1.678 0.671,-1.207 3.018,1.678 -0.671,1.207 z m -6.035,-3.356 -3.621,-2.013 0.671,-1.207 3.621,2.013 -0.671,1.207 z m -6.639,-3.691 -3.017,-1.678 0.671,-1.207 3.017,1.678 -0.671,1.207 z m -6.637,-3.691 -2.27,-1.262 c -0.293,-0.163 -0.568,-0.357 -0.818,-0.577 l 0.911,-1.037 c 0.177,0.155 0.371,0.292 0.578,0.407 l 2.27,1.262 -0.671,1.207 z m 29.5,15.664 -0.034,-1.38 c 1.163,-0.029 2.236,-0.678 2.801,-1.693 l 1.206,0.671 c -0.801,1.44 -2.323,2.361 -3.973,2.402 z m -34.174,-21.092 c 0.013,-0.763 0.216,-1.521 0.589,-2.193 l 1.063,-1.912 1.207,0.671 -1.063,1.912 c -0.263,0.474 -0.406,1.007 -0.415,1.544 l -1.381,-0.022 z m 38.497,18.061 -1.207,-0.671 2.014,-3.621 1.206,0.671 -2.013,3.621 z m -33.96,-24.513 -1.207,-0.671 1.678,-3.018 1.207,0.671 -1.678,3.018 z m 37.65,17.874 -1.207,-0.671 1.679,-3.018 1.206,0.671 -1.678,3.018 z m -33.959,-24.512 -1.207,-0.671 1.678,-3.018 1.207,0.671 -1.678,3.018 z m 37.651,17.874 -1.207,-0.671 1.678,-3.018 1.207,0.671 -1.678,3.018 z m -34.295,-23.909 -1.207,-0.671 2.014,-3.621 1.207,0.671 -2.014,3.621 z m 37.65,17.874 -1.207,-0.671 2.014,-3.621 1.207,0.671 -2.014,3.621 z m -33.959,-24.512 -1.207,-0.671 1.678,-3.017 1.207,0.671 -1.678,3.017 z m 37.651,17.874 -1.207,-0.671 1.56,-2.805 c 0.031,-0.058 0.063,-0.119 0.093,-0.18 l 1.244,0.599 c -0.04,0.084 -0.083,0.167 -0.129,0.25 l -1.561,2.807 z m -33.865,-24.071 -0.818,-1.113 c 1.108,-0.814 2.511,-1.1 3.846,-0.784 l -0.317,1.344 c -0.942,-0.222 -1.929,-0.021 -2.711,0.553 z m 34.071,17.152 c -0.292,-0.433 -0.673,-0.782 -1.132,-1.038 l -1.378,-0.766 0.671,-1.207 1.378,0.766 c 0.652,0.363 1.192,0.859 1.606,1.475 l -1.145,0.77 z m -5.528,-3.482 -3.62,-2.014 0.671,-1.207 3.62,2.014 -0.671,1.207 z m -6.637,-3.691 -3.018,-1.678 0.671,-1.207 3.018,1.678 -0.671,1.207 z m -6.639,-3.691 -3.018,-1.678 0.671,-1.207 3.018,1.678 -0.671,1.207 z m -6.035,-3.356 -3.621,-2.013 0.672,-1.207 3.621,2.013 -0.672,1.207 z" />
        </g>
        <g
           id="g6250">
          <rect
             style="fill:#1c4781"
             id="rect6252"
             height="10.963"
             width="10.964"
             transform="matrix(0.874,0.4859,-0.4859,0.874,681.3597,-458.2958)"
             y="1079.172"
             x="1218.887" />
        </g>
        <g
           id="g6254">
          <rect
             style="fill:#1c4781"
             id="rect6256"
             height="10.964"
             width="10.964"
             transform="matrix(0.874,0.4859,-0.4859,0.874,685.599,-462.7456)"
             y="1085.121"
             x="1229.587" />
        </g>
        <g
           id="g6258">
          <rect
             style="fill:#1c4781"
             id="rect6260"
             height="10.963"
             width="10.963"
             transform="matrix(0.874,0.486,-0.486,0.874,689.9535,-467.2692)"
             y="1091.1379"
             x="1240.406" />
        </g>
        <g
           id="g6262">
          <rect
             style="fill:#1c4781"
             id="rect6264"
             height="10.964"
             width="10.964"
             transform="matrix(0.874,0.4859,-0.4859,0.874,685.7798,-454.0848)"
             y="1089.801"
             x="1212.9771" />
        </g>
        <g
           id="g6266">
          <rect
             style="fill:#1c4781"
             id="rect6268"
             height="10.964"
             width="10.964"
             transform="matrix(0.874,0.4859,-0.4859,0.874,690.019,-458.5343)"
             y="1095.75"
             x="1223.676" />
        </g>
        <g
           id="g6270">
          <rect
             style="fill:#1c4781"
             id="rect6272"
             height="10.964"
             width="10.963"
             transform="matrix(0.874,0.486,-0.486,0.874,694.3738,-463.0576)"
             y="1101.766"
             x="1234.4969" />
        </g>
        <g
           id="g6274">
          <rect
             style="fill:#1c4781"
             id="rect6276"
             height="10.964"
             width="10.964"
             transform="matrix(0.874,0.4859,-0.4859,0.874,690.2054,-449.8685)"
             y="1100.442"
             x="1207.0601" />
        </g>
        <g
           id="g6278">
          <rect
             style="fill:#1c4781"
             id="rect6280"
             height="10.964"
             width="10.964"
             transform="matrix(0.874,0.4859,-0.4859,0.874,694.4446,-454.3181)"
             y="1106.391"
             x="1217.759" />
        </g>
        <g
           id="g6282">
          <path
             style="fill:#1c4781"
             inkscape:connector-curvature="0"
             id="path6284"
             d="m 1231.935,1110.435 -5.328,9.582 9.581,5.328 5.328,-9.582 -9.581,-5.328 z m 1.642,12.481 c -0.142,-0.04 -0.279,-0.09 -0.412,-0.146 l 0.417,-1.511 c 0.133,0.056 0.269,0.105 0.411,0.145 1.594,0.439 3.232,-0.306 3.986,-1.702 -0.012,0.259 -0.048,0.52 -0.12,0.78 -0.51,1.855 -2.427,2.944 -4.282,2.434 z" />
        </g>
      </g>
    </g>
  </g>
</svg>
